<svg xmlns="http://www.w3.org/2000/svg" version="1.1" viewBox="0 0 720 1184"><radialGradient fx="452.0151" fy="657.8935" cx="452.0151" cy="657.8935" r="385.3263" id="gradient1" gradientUnits="userSpaceOnUse"><stop offset="0.0%" style="stop-color:#62F317;stop-opacity:1.0" /><stop offset="100.0%" style="stop-color:#0E1532;stop-opacity:1.0" /></radialGradient><path d="M 193.43112 994.94995 C 193.43112 994.94995 42.2182 717.8573 42.2182 717.8573 C 42.2182 717.8573 149.19008 775.56384 149.19008 775.56384 C 149.19008 775.56384 52.760788 597.4684 234.1723 393.89117 C 398.09622 209.9379 529.75415 152.25504 529.75415 152.25504 C 529.75415 152.25504 452.19632 265.2892 452.19632 265.2892 C 452.19632 265.2892 585.59485 219.87027 585.59485 219.87027 C 585.59485 219.87027 492.85834 311.74176 492.85834 311.74176 C 492.85834 311.74176 697.76 357.16644 641.739 359.16953 C 145.43689 435.55533 224.22916 792.55884 224.22916 792.55884 C 224.22916 792.55884 206.4932 797.19666 206.4932 797.19666 C 206.4932 797.19666 337.8103 730.6902 337.8103 730.6902 C 337.8103 730.6902 193.43112 994.94995 193.43112 994.94995 Z" stroke="#0C5B0B" stroke-opacity="1.0" stroke-linecap="round" fill="url(#gradient1)" stroke-width="1.0" /></svg>