<svg xmlns="http://www.w3.org/2000/svg" version="1.1" viewBox="0 0 720 1184"><linearGradient x1="496.68146" y1="744.9627" x2="37.681488" y2="621.96295" id="gradient1" gradientUnits="userSpaceOnUse"><stop offset="0.0%" style="stop-color:#E4679A;stop-opacity:1.0" /><stop offset="100.0%" style="stop-color:#62F317;stop-opacity:1.0" /></linearGradient><path d="M 645.68134 248.96313 C 645.68134 248.96313 330.68146 269.46313 330.68146 269.46313 C 330.68146 269.46313 436.66626 328.96313 436.66626 328.96313 C 436.66626 328.96313 234.61234 342.78082 159.68144 604.96295 C 91.973785 841.87115 113.68144 983.96344 113.68144 983.96344 C 113.68144 983.96344 167.68146 857.9628 167.68146 857.9628 C 167.68146 857.9628 200.68143 994.96344 200.68143 994.96344 C 200.68143 994.96344 228.68143 867.4628 228.68143 867.4628 C 228.68143 867.4628 376.68536 1016.2686 348.40497 967.8682 C 147.40495 507.70483 491.17123 383.2663 491.17123 383.2663 C 491.17123 383.2663 485.60062 365.80133 485.60062 365.80133 C 485.60062 365.80133 499.67133 512.3248 499.67133 512.3248 C 499.67133 512.3248 645.68134 248.96313 645.68134 248.96313 Z" stroke="#0C5B0B" stroke-opacity="1.0" stroke-linecap="round" fill="url(#gradient1)" stroke-width="1.0" /></svg>