<svg xmlns="http://www.w3.org/2000/svg" viewBox="0 0 744.09 1052.36">
 <g transform="translate(-6443.95 2805.28)">
  <rect rx="10.63" width="223.23" height="311.81" x="6704.39" y="-2435" fill="#fff" stroke="#000" stroke-width=".997"/>
  <g transform="matrix(.30106 0 0 .30106 5267.56-1982.7)" fill="#d40000">
   <path d="m4881.64-1311.99c32.952-32.16 54.59-67.22 75.29-100.94 18.15 37.1 44.2 69.56 72.36 100.94-30.14 31.12-53.49 64.39-72.27 99.37-20.818-35.859-42.735-68.33-75.38-99.37"/>
   <path d="m4881.64-1094.99c32.952-32.16 54.59-67.22 75.29-100.94 18.15 37.1 44.2 69.56 72.36 100.94-30.14 31.12-53.49 64.39-72.27 99.37-20.818-35.859-42.735-68.33-75.38-99.37"/>
   <path d="m4881.64-872.79c32.952-32.16 54.59-67.22 75.29-100.94 18.15 37.1 44.2 69.56 72.36 100.94-30.14 31.12-53.49 64.39-72.27 99.37-20.818-35.859-42.735-68.33-75.38-99.37"/>
   <path d="m4881.64-656.54c32.952-32.16 54.59-67.22 75.29-100.94 18.15 37.1 44.2 69.56 72.36 100.94-30.14 31.12-53.49 64.39-72.27 99.37-20.818-35.859-42.735-68.33-75.38-99.37"/>
   <path d="m5068.25-1197.85c32.952-32.16 54.59-67.22 75.29-100.94 18.15 37.1 44.2 69.56 72.36 100.94-30.14 31.12-53.49 64.39-72.27 99.37-20.818-35.859-42.735-68.33-75.38-99.37"/>
   <path d="m5066.7-771.56c32.952-32.16 54.59-67.22 75.29-100.94 18.15 37.1 44.2 69.56 72.36 100.94-30.14 31.12-53.49 64.39-72.27 99.37-20.818-35.859-42.735-68.33-75.38-99.37"/>
   <path d="m5252.1-1311.99c32.952-32.16 54.59-67.22 75.29-100.94 18.15 37.1 44.2 69.56 72.36 100.94-30.14 31.12-53.49 64.39-72.27 99.37-20.818-35.859-42.735-68.33-75.38-99.37"/>
   <path d="m5252.1-1094.99c32.952-32.16 54.59-67.22 75.29-100.94 18.15 37.1 44.2 69.56 72.36 100.94-30.14 31.12-53.49 64.39-72.27 99.37-20.818-35.859-42.735-68.33-75.38-99.37"/>
   <path d="m5252.1-872.79c32.952-32.16 54.59-67.22 75.29-100.94 18.15 37.1 44.2 69.56 72.36 100.94-30.14 31.12-53.49 64.39-72.27 99.37-20.818-35.859-42.735-68.33-75.38-99.37"/>
   <path d="m5252.1-656.54c32.952-32.16 54.59-67.22 75.29-100.94 18.15 37.1 44.2 69.56 72.36 100.94-30.14 31.12-53.49 64.39-72.27 99.37-20.818-35.859-42.735-68.33-75.38-99.37"/>
   <path d="m5426.56-676.62c13.499-13.173 22.364-27.536 30.842-41.35 7.435 15.199 18.1 28.495 29.644 41.35-12.346 12.747-21.914 26.378-29.607 40.708-8.528-14.689-17.506-27.991-30.879-40.708"/>
   <path d="m4799.4-1293.96c13.499-13.173 22.364-27.536 30.842-41.35 7.435 15.199 18.1 28.495 29.644 41.35-12.346 12.747-21.914 26.378-29.607 40.708-8.528-14.689-17.506-27.991-30.879-40.708"/>
   <path d="m4797.86-1351.72v-104.65h10.333v104.65z"/>
   <path d="m4838.81-1456.38c-9.945 0-17.941 8.924-17.941 20v64.64c0 11.08 7.995 20 17.941 20h5.797c9.945 0 17.957-8.924 17.957-20v-64.64c0-11.08-8.01-20-17.957-20h-5.797m2.993 9.892c5.874 0 10.601 4.441 10.601 9.971v65.51c0 5.53-4.726 9.986-10.601 9.986-5.874 0-10.601-4.457-10.601-9.986v-65.51c0-5.53 4.726-9.971 10.601-9.971"/>
   <g transform="matrix(-.50404 0 0-.50404 7403.64 312.08)">
    <path d="m3799.25 1843.75v-207.62h20.5v207.62z"/>
    <path d="m3880.5 1636.12c-19.731 0-35.594 17.705-35.594 39.688v128.25c0 21.983 15.863 39.688 35.594 39.688h11.5c19.731 0 35.625-17.705 35.625-39.688v-128.25c0-21.983-15.894-39.688-35.625-39.688h-11.5m5.938 19.625c11.654 0 21.03 8.81 21.03 19.781v129.97c0 10.971-9.377 19.813-21.03 19.813-11.654 0-21.03-8.842-21.03-19.813v-129.97c0-10.971 9.377-19.781 21.03-19.781"/>
   </g>
  </g>
 </g>
</svg>
