<svg xmlns="http://www.w3.org/2000/svg" viewBox="0 0 744.09 1052.36">
 <g transform="translate(-1760.08-113.66)">
  <g transform="translate(-4683.88 2918.94)">
   <rect rx="10.63" width="223.23" height="311.81" x="6704.39" y="-2435" fill="#fff" stroke="#000" stroke-width=".997"/>
   <g transform="matrix(.30106 0 0 .30106 5267.56-1982.7)" fill="#d40000">
    <path d="m4797.86-1351.72v-104.65h10.333v104.65z"/>
    <path d="m4838.81-1456.38c-9.945 0-17.941 8.924-17.941 20v64.64c0 11.08 7.995 20 17.941 20h5.797c9.945 0 17.957-8.924 17.957-20v-64.64c0-11.08-8.01-20-17.957-20h-5.797m2.993 9.892c5.874 0 10.601 4.441 10.601 9.971v65.51c0 5.53-4.726 9.986-10.601 9.986-5.874 0-10.601-4.457-10.601-9.986v-65.51c0-5.53 4.726-9.971 10.601-9.971"/>
    <g transform="matrix(-.50404 0 0-.50404 7403.64 312.08)">
     <path d="m3799.25 1843.75v-207.62h20.5v207.62z"/>
     <path d="m3880.5 1636.12c-19.731 0-35.594 17.705-35.594 39.688v128.25c0 21.983 15.863 39.688 35.594 39.688h11.5c19.731 0 35.625-17.705 35.625-39.688v-128.25c0-21.983-15.894-39.688-35.625-39.688h-11.5m5.938 19.625c11.654 0 21.03 8.81 21.03 19.781v129.97c0 10.971-9.377 19.813-21.03 19.813-11.654 0-21.03-8.842-21.03-19.813v-129.97c0-10.971 9.377-19.781 21.03-19.781"/>
    </g>
   </g>
  </g>
  <g fill="#d40000">
   <path d="m2029.03 544.08c-1.583-3.472-1.757-9.405 2.971-10.208 3.562-.458 5.01 1.198 5.3 3.742.142.743.562.788.695-.058.204-2.609 2.787-4.133 4.806-3.75 5.527.945 5.204 7.03 3.399 11.156-2.731 5.479-5.601 8.938-8.245 14.452-3.038-5.741-6.507-10.405-8.926-15.333"/>
   <path d="m2063.54 512.26c7.144-.474 10.868 5.627 11.595 10.436.433.764.671.549.837-.042.349-6.174 5.875-11.22 10.993-10.53 8.328.108 13.39 9.375 11.966 17.219-1.738 9.582-6.9 15.351-10.808 21.293-4.421 6.152-10.373 15.04-12.29 19.317 0 0-6.05-9.205-13.917-20.03-5.262-7.239-9.473-15.08-9.865-21.835-.448-7.715 2.719-14.632 11.489-15.828"/>
   <path d="m2119.72 544.93c7.144-.474 10.868 5.627 11.595 10.436.433.764.671.549.837-.042.349-6.174 5.875-11.22 10.993-10.53 8.328.108 13.39 9.375 11.966 17.219-1.738 9.582-6.9 15.351-10.808 21.293-4.421 6.152-10.373 15.04-12.29 19.317 0 0-6.05-9.205-13.917-20.03-5.262-7.239-9.473-15.08-9.865-21.835-.448-7.715 2.719-14.632 11.489-15.828"/>
   <path d="m2175.07 512.26c7.144-.474 10.868 5.627 11.595 10.436.433.764.671.549.837-.042.349-6.174 5.875-11.22 10.993-10.53 8.328.108 13.39 9.375 11.966 17.219-1.738 9.582-6.9 15.351-10.808 21.293-4.421 6.152-10.373 15.04-12.29 19.317 0 0-6.05-9.205-13.917-20.03-5.262-7.239-9.473-15.08-9.865-21.835-.448-7.715 2.719-14.632 11.489-15.828"/>
   <path d="m2175.07 577.59c7.144-.474 10.868 5.627 11.595 10.436.433.764.671.549.837-.042.349-6.174 5.875-11.22 10.993-10.53 8.328.108 13.39 9.375 11.966 17.219-1.738 9.582-6.9 15.351-10.808 21.293-4.421 6.152-10.373 15.04-12.29 19.317 0 0-6.05-9.205-13.917-20.03-5.262-7.239-9.473-15.08-9.865-21.835-.448-7.715 2.719-14.632 11.489-15.828"/>
   <path d="m2063.54 577.59c7.144-.474 10.868 5.627 11.595 10.436.433.764.671.549.837-.042.349-6.174 5.875-11.22 10.993-10.53 8.328.108 13.39 9.375 11.966 17.219-1.738 9.582-6.9 15.351-10.808 21.293-4.421 6.152-10.373 15.04-12.29 19.317 0 0-6.05-9.205-13.917-20.03-5.262-7.239-9.473-15.08-9.865-21.835-.448-7.715 2.719-14.632 11.489-15.828"/>
   <path d="m2175.07 701.98c7.144.474 10.868-5.627 11.595-10.436.433-.764.671-.549.837.042.349 6.174 5.875 11.22 10.993 10.53 8.328-.108 13.39-9.375 11.966-17.219-1.738-9.582-6.9-15.351-10.808-21.293-4.421-6.152-10.373-15.04-12.29-19.317 0 0-6.05 9.205-13.917 20.03-5.262 7.239-9.473 15.08-9.865 21.835-.448 7.715 2.719 14.632 11.489 15.828"/>
   <path d="m2175.07 767.09c7.144.474 10.868-5.627 11.595-10.436.433-.764.671-.549.837.042.349 6.174 5.875 11.22 10.993 10.53 8.328-.108 13.39-9.375 11.966-17.219-1.738-9.582-6.9-15.351-10.808-21.293-4.421-6.152-10.373-15.04-12.29-19.317 0 0-6.05 9.205-13.917 20.03-5.262 7.239-9.473 15.08-9.865 21.835-.448 7.715 2.719 14.632 11.489 15.828"/>
   <path d="m2119.25 734.53c7.144.474 10.868-5.627 11.595-10.436.433-.764.671-.549.837.042.349 6.174 5.875 11.22 10.993 10.53 8.328-.108 13.39-9.375 11.966-17.219-1.738-9.582-6.9-15.351-10.808-21.293-4.421-6.152-10.373-15.04-12.29-19.317 0 0-6.05 9.205-13.917 20.03-5.262 7.239-9.473 15.08-9.865 21.835-.448 7.715 2.719 14.632 11.489 15.828"/>
   <path d="m2063.54 701.98c7.144.474 10.868-5.627 11.595-10.436.433-.764.671-.549.837.042.349 6.174 5.875 11.22 10.993 10.53 8.328-.108 13.39-9.375 11.966-17.219-1.738-9.582-6.9-15.351-10.808-21.293-4.421-6.152-10.373-15.04-12.29-19.317 0 0-6.05 9.205-13.917 20.03-5.262 7.239-9.473 15.08-9.865 21.835-.448 7.715 2.719 14.632 11.489 15.828"/>
   <path d="m2063.54 767.09c7.144.474 10.868-5.627 11.595-10.436.433-.764.671-.549.837.042.349 6.174 5.875 11.22 10.993 10.53 8.328-.108 13.39-9.375 11.966-17.219-1.738-9.582-6.9-15.351-10.808-21.293-4.421-6.152-10.373-15.04-12.29-19.317 0 0-6.05 9.205-13.917 20.03-5.262 7.239-9.473 15.08-9.865 21.835-.448 7.715 2.719 14.632 11.489 15.828"/>
   <path d="m2217.85 734.93c-1.583 3.472-1.757 9.405 2.971 10.208 3.562.458 5.01-1.198 5.3-3.742.142-.743.562-.788.695.058.204 2.609 2.787 4.133 4.806 3.75 5.527-.945 5.204-7.03 3.398-11.156-2.731-5.479-5.601-8.938-8.245-14.452-3.038 5.741-6.507 10.405-8.926 15.333"/>
  </g>
 </g>
</svg>
