<svg xmlns="http://www.w3.org/2000/svg" viewBox="0 0 744.09 1052.36">
 <g transform="translate(-1384-219.68)">
  <g transform="matrix(-1 0 0-1 8572.04-1533.24)">
   <rect rx="10.63" width="223.23" height="311.81" x="6704.39" y="-2435" fill="#fff" stroke="#000" stroke-width=".997"/>
   <g transform="matrix(.30106 0 0 .30106 5267.56-1982.7)">
    <path d="m4797.86-1351.72v-104.65h10.333v104.65z"/>
    <path d="m4838.81-1456.38c-9.945 0-17.941 8.924-17.941 20v64.64c0 11.08 7.995 20 17.941 20h5.797c9.945 0 17.957-8.924 17.957-20v-64.64c0-11.08-8.01-20-17.957-20h-5.797m2.993 9.892c5.874 0 10.601 4.441 10.601 9.971v65.51c0 5.53-4.726 9.986-10.601 9.986-5.874 0-10.601-4.457-10.601-9.986v-65.51c0-5.53 4.726-9.971 10.601-9.971"/>
    <g transform="matrix(-.50404 0 0-.50404 7403.64 312.08)">
     <path d="m3799.25 1843.75v-207.62h20.5v207.62z"/>
     <path d="m3880.5 1636.12c-19.731 0-35.594 17.705-35.594 39.688v128.25c0 21.983 15.863 39.688 35.594 39.688h11.5c19.731 0 35.625-17.705 35.625-39.688v-128.25c0-21.983-15.894-39.688-35.625-39.688h-11.5m5.938 19.625c11.654 0 21.03 8.81 21.03 19.781v129.97c0 10.971-9.377 19.813-21.03 19.813-11.654 0-21.03-8.842-21.03-19.813v-129.97c0-10.971 9.377-19.781 21.03-19.781"/>
    </g>
   </g>
  </g>
  <g>
   <path d="m1697.37 658.47c.015-2.026-1.587-2.064-1.569-.586-.134 7.429-6.417 11.09-10.981 10.219-7.04-1.338-9.282-8.322-9.215-12.435.207-12.696 12.988-22.06 24.52-38.33 8.45 14.691 22.397 26.23 23.22 37.586 1.098 15.1-18.01 20.73-20.737 3.133-.176-1.243-1.64-1.801-1.526-.065.415 4.823-.175 6.831 5.266 18.719h-14.222c3.15-5.555 5.03-12.375 5.24-18.236"/>
   <path d="m1753.08 691.14c.015-2.026-1.587-2.064-1.569-.586-.134 7.429-6.417 11.09-10.981 10.219-7.04-1.338-9.282-8.322-9.215-12.435.207-12.696 12.988-22.06 24.52-38.33 8.45 14.691 22.397 26.23 23.22 37.586 1.098 15.1-18.01 20.73-20.737 3.133-.176-1.243-1.64-1.801-1.526-.065.415 4.823-.175 6.831 5.266 18.719h-14.222c3.15-5.555 5.03-12.375 5.24-18.236"/>
   <path d="m1808.9 658.47c.015-2.026-1.587-2.064-1.569-.586-.134 7.429-6.417 11.09-10.981 10.219-7.04-1.338-9.282-8.322-9.215-12.435.207-12.696 12.988-22.06 24.52-38.33 8.45 14.691 22.397 26.23 23.22 37.586 1.098 15.1-18.01 20.73-20.737 3.133-.176-1.243-1.64-1.801-1.526-.065.415 4.823-.175 6.831 5.266 18.719h-14.222c3.15-5.555 5.03-12.375 5.24-18.236"/>
   <path d="m1808.9 723.8c.015-2.026-1.587-2.064-1.569-.586-.134 7.429-6.417 11.09-10.981 10.219-7.04-1.338-9.282-8.322-9.215-12.435.207-12.696 12.988-22.06 24.52-38.33 8.45 14.691 22.397 26.23 23.22 37.586 1.098 15.1-18.01 20.73-20.737 3.133-.176-1.243-1.64-1.801-1.526-.065.415 4.823-.175 6.831 5.266 18.719h-14.222c3.15-5.555 5.03-12.375 5.24-18.236"/>
   <path d="m1697.37 723.8c.015-2.026-1.587-2.064-1.569-.586-.134 7.429-6.417 11.09-10.981 10.219-7.04-1.338-9.282-8.322-9.215-12.435.207-12.696 12.988-22.06 24.52-38.33 8.45 14.691 22.397 26.23 23.22 37.586 1.098 15.1-18.01 20.73-20.737 3.133-.176-1.243-1.64-1.801-1.526-.065.415 4.823-.175 6.831 5.266 18.719h-14.222c3.15-5.555 5.03-12.375 5.24-18.236"/>
   <path d="m1808.91 767.94c.015 2.026-1.587 2.064-1.569.586-.134-7.429-6.417-11.09-10.981-10.219-7.04 1.338-9.282 8.322-9.215 12.435.207 12.696 12.988 22.06 24.52 38.33 8.45-14.691 22.397-26.23 23.22-37.586 1.098-15.1-18.01-20.73-20.737-3.133-.176 1.243-1.64 1.801-1.526.065.415-4.823-.175-6.831 5.266-18.719h-14.222c3.15 5.555 5.03 12.375 5.24 18.236"/>
   <path d="m1808.91 833.27c.015 2.026-1.587 2.064-1.569.586-.134-7.429-6.417-11.09-10.981-10.219-7.04 1.338-9.282 8.322-9.215 12.435.207 12.696 12.988 22.06 24.52 38.33 8.45-14.691 22.397-26.23 23.22-37.586 1.098-15.1-18.01-20.73-20.737-3.133-.176 1.243-1.64 1.801-1.526.065.415-4.823-.175-6.831 5.266-18.719h-14.222c3.15 5.555 5.03 12.375 5.24 18.236"/>
   <path d="m1753.56 800.6c.015 2.026-1.587 2.064-1.569.586-.134-7.429-6.417-11.09-10.981-10.219-7.04 1.338-9.282 8.322-9.215 12.435.207 12.696 12.988 22.06 24.52 38.33 8.45-14.691 22.397-26.23 23.22-37.586 1.098-15.1-18.01-20.73-20.737-3.133-.176 1.243-1.64 1.801-1.526.065.415-4.823-.175-6.831 5.266-18.719h-14.222c3.15 5.555 5.03 12.375 5.24 18.236"/>
   <path d="m1697.38 767.94c.015 2.026-1.587 2.064-1.569.586-.134-7.429-6.417-11.09-10.981-10.219-7.04 1.338-9.282 8.322-9.215 12.435.207 12.696 12.988 22.06 24.52 38.33 8.45-14.691 22.397-26.23 23.22-37.586 1.098-15.1-18.01-20.73-20.737-3.133-.176 1.243-1.64 1.801-1.526.065.415-4.823-.175-6.831 5.266-18.719h-14.222c3.15 5.555 5.03 12.375 5.24 18.236"/>
   <path d="m1697.38 833.27c.015 2.026-1.587 2.064-1.569.586-.134-7.429-6.417-11.09-10.981-10.219-7.04 1.338-9.282 8.322-9.215 12.435.207 12.696 12.988 22.06 24.52 38.33 8.45-14.691 22.397-26.23 23.22-37.586 1.098-15.1-18.01-20.73-20.737-3.133-.176 1.243-1.64 1.801-1.526.065.415-4.823-.175-6.831 5.266-18.719h-14.222c3.15 5.555 5.03 12.375 5.24 18.236"/>
   <path d="m1661.22 659.82c.001-.872-.895-.465-1.018-.19-1.163 1.986-2.865 2.448-4.548 1.732-1.667-.709-2.604-2.28-2.454-4.522.31-3.438 3.035-7.2 4.355-9.326 1.252-1.93 2.628-4.222 4.077-7.154 1.697 3.363 2.559 4.321 4.405 7.391 1.626 2.704 3.892 5.353 4.068 8.622 0 2.485-1.046 4.832-3.399 5.259-1.331.242-2.579-.442-3.504-2.037-.282-.407-.849-.195-.839.362.165 2.093.955 3.983 2.83 6.212h-6.887c1.41-1.576 2.849-3.704 2.915-6.349"/>
   <path d="m1850.03 832.57c.001.872-.895.465-1.018.19-1.163-1.986-2.865-2.448-4.548-1.732-1.667.709-2.604 2.28-2.454 4.522.31 3.438 3.035 7.2 4.355 9.326 1.252 1.93 2.628 4.222 4.077 7.154 1.697-3.363 2.559-4.321 4.405-7.392 1.626-2.704 3.892-5.353 4.068-8.622 0-2.485-1.046-4.832-3.399-5.259-1.331-.242-2.579.442-3.504 2.037-.282.407-.849.195-.839-.362.165-2.093.955-3.983 2.829-6.212h-6.887c1.41 1.576 2.849 3.704 2.915 6.349"/>
  </g>
 </g>
</svg>
