<svg xmlns="http://www.w3.org/2000/svg" viewBox="0 0 744.09 1052.36">
 <g transform="translate(-50.14 936.46)">
  <rect rx="10.63" width="223.23" height="311.81" x="310.57" y="-566.19" fill="#fff" stroke="#000" stroke-width=".997"/>
  <g transform="translate(-.136)">
   <g transform="matrix(.30106 0 0 .30106-267.5 230.82)">
    <path d="m1947.7-2492.42l.547-6.705c1.692-20.723 6.226-27.723 31.96-49.34 12.488-10.492 16.588-15.669 17.17-21.677 1.63-14.15-11.131-18.57-19.448-18.647-10.769-.099-22.951 6.349-17.14 21.304l-12.08 3.547c-2.439-13.951.056-27.04 11.378-32.858 15.1-7.572 34.478-4.601 44.25 7.33 6.571 8.02 8.06 19.09 4.543 27.754-10.299 22.16-45.24 31.908-48.13 57.53h38.634v-14.267h11.379v26.26z"/>
    <path d="m2633.97-1766.53l-.548 6.705c-1.692 20.723-6.226 27.723-31.96 49.34-12.488 10.492-16.588 15.669-17.17 21.677-1.631 14.15 11.131 18.57 19.448 18.647 10.769.099 22.951-6.349 17.14-21.304l12.08-3.547c2.439 13.951-.056 27.04-11.378 32.858-15.1 7.572-34.478 4.601-44.25-7.33-6.571-8.02-8.06-19.09-4.543-27.754 10.299-22.16 45.24-31.908 48.13-57.53h-38.634v14.266h-11.379v-26.26z"/>
   </g>
   <path d="m414.94-480.9c2.879-5.776 4.976-11.701 5.348-18.04.342-2.332-1.075-2.371-1.288-.729-4.076 15.593-25.763 11.37-25.02-3.297.605-11.895 12.419-14.454 18.582-10.565 2.434 1.433 2.296.575.968-.912-9.155-10.211-3.61-23.362 8.761-23.602 13.38.793 16.851 14.87 8.644 23.15-1.021.995-3.284 4.191.123 1.956 8.287-5.888 19.787.443 19.553 9.521-.433 16.739-20.839 17.987-25.2 4.01-.42-1.55-1.629-2.329-1.295.304.605 4.767 1.856 11.953 5.437 18.206z"/>
   <path d="m429.64-339.24c-2.879 5.775-4.976 11.701-5.348 18.04-.342 2.332 1.075 2.371 1.288.729 4.076-15.593 25.763-11.37 25.02 3.296-.605 11.895-12.419 14.454-18.582 10.565-2.434-1.433-2.296-.575-.968.912 9.155 10.211 3.61 23.362-8.761 23.602-13.38-.793-16.851-14.87-8.644-23.15 1.021-.995 3.284-4.191-.123-1.956-8.287 5.888-19.787-.443-19.553-9.521.433-16.739 20.839-17.987 25.2-4.01.42 1.55 1.629 2.329 1.295-.304-.605-4.767-1.856-11.953-5.437-18.206z"/>
   <path d="m324.41-491.53c1.192-2.445 2.352-4.721 2.984-7.401.419-2.528-.438-1.589-.925.068-.721 2.297-2.723 3.344-4.58 3.369-3.371.046-5.05-2.604-4.948-5.454-.368-2.999 2.671-5.12 4.962-4.957 1.722.123 3.224 1.052 4.133 1.775.596.315 1.234.455.345-.358-1.678-1.833-3.077-2.964-3.046-5.711.029-2.579 2.233-5.268 5.155-5.184 3.651.105 5.312 2.89 5.303 5.481-.001 1.888-.954 3.626-2.411 4.703-.944.766-.679 1.34.398.615 1.035-.892 2.267-1.283 3.545-1.31 3.49-.055 4.855 2.961 4.655 5.764-.187 2.626-2.423 5.328-5.369 5.02-2.631-.301-4.01-2.51-4.805-4.777-.262-.695-.676-.883-.664.153.608 5.057 2.492 8.204 2.505 8.202z"/>
   <path d="m520.23-329.11c-1.192 2.445-2.352 4.721-2.984 7.401-.419 2.528.438 1.589.925-.068.721-2.297 2.723-3.344 4.58-3.369 3.371-.046 5.05 2.604 4.948 5.454.368 2.999-2.671 5.12-4.962 4.957-1.722-.123-3.224-1.052-4.133-1.775-.596-.315-1.234-.455-.345.358 1.678 1.833 3.077 2.964 3.046 5.711-.029 2.579-2.234 5.268-5.155 5.184-3.652-.105-5.312-2.89-5.303-5.481.001-1.888.954-3.626 2.411-4.703.944-.766.679-1.34-.398-.615-1.035.892-2.267 1.283-3.545 1.31-3.49.055-4.855-2.961-4.655-5.764.187-2.626 2.423-5.328 5.369-5.02 2.631.301 4.01 2.51 4.805 4.777.262.695.676.883.664-.153-.608-5.057-2.492-8.204-2.505-8.202z"/>
  </g>
 </g>
</svg>
