<svg xmlns="http://www.w3.org/2000/svg" viewBox="0 0 744.09 1052.36">
 <g transform="translate(-5997.5 3117.09)">
  <rect rx="10.63" width="223.23" height="311.81" x="6257.93" y="-2746.81" fill="#fff" stroke="#000" stroke-width=".997"/>
  <g transform="matrix(.30106 0 0 .30106 5679.86-1949.8)" fill="#d40000">
   <path d="m2217.34-2458.17c32.952-32.16 54.59-67.22 75.29-100.94 18.15 37.1 44.2 69.56 72.36 100.94-30.14 31.12-53.49 64.39-72.27 99.37-20.818-35.859-42.736-68.33-75.38-99.37"/>
   <path d="m2217.34-1797.82c32.952-32.16 54.59-67.22 75.29-100.94 18.15 37.1 44.2 69.56 72.36 100.94-30.14 31.12-53.49 64.39-72.27 99.37-20.818-35.859-42.736-68.33-75.38-99.37"/>
   <path d="m2572.81-1819.93c13.499-13.173 22.364-27.536 30.842-41.35 7.435 15.199 18.1 28.495 29.644 41.35-12.346 12.747-21.914 26.378-29.607 40.708-8.528-14.689-17.506-27.991-30.879-40.708"/>
   <path d="m1949.27-2438.64c13.499-13.173 22.364-27.536 30.842-41.35 7.435 15.199 18.1 28.495 29.644 41.35-12.346 12.747-21.914 26.378-29.607 40.708-8.528-14.689-17.506-27.991-30.879-40.708"/>
   <path d="m1947.7-2492.42l.547-6.705c1.692-20.723 6.226-27.723 31.96-49.34 12.488-10.492 16.588-15.669 17.17-21.677 1.63-14.15-11.131-18.57-19.448-18.647-10.769-.099-22.951 6.349-17.14 21.304l-12.08 3.547c-2.439-13.951.056-27.04 11.378-32.858 15.1-7.572 34.478-4.601 44.25 7.33 6.571 8.02 8.06 19.09 4.543 27.754-10.299 22.16-45.24 31.908-48.13 57.53h38.634v-14.267h11.379v26.26z"/>
   <path d="m2633.97-1766.53l-.548 6.705c-1.692 20.723-6.226 27.723-31.96 49.34-12.488 10.492-16.588 15.669-17.17 21.677-1.631 14.15 11.131 18.57 19.448 18.647 10.769.099 22.951-6.349 17.14-21.304l12.08-3.547c2.439 13.951-.056 27.04-11.378 32.858-15.1 7.572-34.478 4.601-44.25-7.33-6.571-8.02-8.06-19.09-4.543-27.754 10.299-22.16 45.24-31.908 48.13-57.53h-38.634v14.266h-11.379v-26.26z"/>
  </g>
 </g>
</svg>
