<svg xmlns="http://www.w3.org/2000/svg" viewBox="0 0 744.09 1052.36">
 <g transform="translate(-1313.62 198.15)">
  <rect y="172.13" x="1574.05" height="311.81" width="223.23" rx="10.63" fill="#fff" stroke="#000" stroke-width=".997"/>
  <g transform="translate(-.136)" fill="#d40000">
   <path d="m1583.27 232.36c-1.583-3.472-1.757-9.405 2.971-10.208 3.562-.458 5.01 1.198 5.3 3.742.142.743.562.788.695-.058.204-2.609 2.787-4.133 4.806-3.75 5.527.945 5.204 7.03 3.399 11.156-2.731 5.479-5.601 8.938-8.245 14.452-3.038-5.741-6.507-10.405-8.926-15.333"/>
   <path d="m1770.99 423.63c-1.583 3.472-1.757 9.405 2.971 10.208 3.562.458 5.01-1.198 5.3-3.742.142-.743.562-.788.695.058.204 2.609 2.787 4.133 4.806 3.75 5.527-.945 5.204-7.03 3.399-11.156-2.731-5.479-5.601-8.938-8.245-14.452-3.038 5.741-6.507 10.405-8.926 15.333"/>
   <g transform="matrix(.30106 0 0 .30106 995.98 969.14)">
    <path d="m1947.7-2492.42l.547-6.705c1.692-20.723 6.226-27.723 31.96-49.34 12.488-10.492 16.588-15.669 17.17-21.677 1.63-14.15-11.131-18.57-19.448-18.647-10.769-.099-22.951 6.349-17.14 21.304l-12.08 3.547c-2.439-13.951.056-27.04 11.378-32.858 15.1-7.572 34.478-4.601 44.25 7.33 6.571 8.02 8.06 19.09 4.543 27.754-10.299 22.16-45.24 31.908-48.13 57.53h38.634v-14.267h11.379v26.26z"/>
    <path d="m2633.97-1766.53l-.548 6.705c-1.692 20.723-6.226 27.723-31.96 49.34-12.488 10.492-16.588 15.669-17.17 21.677-1.631 14.15 11.131 18.57 19.448 18.647 10.769.099 22.951-6.349 17.14-21.304l12.08-3.547c2.439 13.951-.056 27.04-11.378 32.858-15.1 7.572-34.478 4.601-44.25-7.33-6.571-8.02-8.06-19.09-4.543-27.754 10.299-22.16 45.24-31.908 48.13-57.53h-38.634v14.266h-11.379v-26.26z"/>
   </g>
   <path d="m1673.72 200.09c7.144-.474 10.868 5.627 11.595 10.436.433.764.671.549.837-.042.349-6.174 5.875-11.22 10.993-10.53 8.328.108 13.389 9.375 11.966 17.219-1.738 9.582-6.9 15.351-10.808 21.293-4.421 6.152-10.373 15.04-12.29 19.317 0 0-6.05-9.205-13.917-20.03-5.262-7.239-9.473-15.08-9.865-21.835-.448-7.715 2.719-14.632 11.489-15.828"/>
   <path d="m1673.72 456.39c7.144.474 10.868-5.627 11.595-10.436.433-.764.671-.549.837.042.349 6.174 5.875 11.22 10.993 10.53 8.328-.108 13.389-9.375 11.966-17.219-1.738-9.582-6.9-15.351-10.808-21.293-4.421-6.152-10.373-15.04-12.29-19.317 0 0-6.05 9.205-13.917 20.03-5.262 7.239-9.473 15.08-9.865 21.835-.448 7.715 2.719 14.632 11.489 15.828"/>
  </g>
 </g>
</svg>
