<svg xmlns="http://www.w3.org/2000/svg" viewBox="0 0 744.09 1052.36">
 <g transform="translate(-936.54 92.14)">
  <g transform="translate(-5060.95 3024.95)">
   <rect rx="10.63" width="223.23" height="311.81" x="6257.93" y="-2746.81" fill="#fff" stroke="#000" stroke-width=".997"/>
   <g transform="matrix(.30106 0 0 .30106 5679.86-1949.8)">
    <path d="m1947.7-2492.42l.547-6.705c1.692-20.723 6.226-27.723 31.96-49.34 12.488-10.492 16.588-15.669 17.17-21.677 1.63-14.15-11.131-18.57-19.448-18.647-10.769-.099-22.951 6.349-17.14 21.304l-12.08 3.547c-2.439-13.951.056-27.04 11.378-32.858 15.1-7.572 34.478-4.601 44.25 7.33 6.571 8.02 8.06 19.09 4.543 27.754-10.299 22.16-45.24 31.908-48.13 57.53h38.634v-14.267h11.379v26.26z"/>
    <path d="m2633.97-1766.53l-.548 6.705c-1.692 20.723-6.226 27.723-31.96 49.34-12.488 10.492-16.588 15.669-17.17 21.677-1.631 14.15 11.131 18.57 19.448 18.647 10.769.099 22.951-6.349 17.14-21.304l12.08-3.547c2.439 13.951-.056 27.04-11.378 32.858-15.1 7.572-34.478 4.601-44.25-7.33-6.571-8.02-8.06-19.09-4.543-27.754 10.299-22.16 45.24-31.908 48.13-57.53h-38.634v14.266h-11.379v-26.26z"/>
   </g>
  </g>
  <path d="m1307.55 346.3c.015-2.026-1.587-2.064-1.569-.586-.134 7.429-6.417 11.09-10.981 10.219-7.04-1.338-9.282-8.322-9.215-12.435.207-12.696 12.988-22.06 24.52-38.33 8.45 14.691 22.397 26.23 23.22 37.586 1.098 15.1-18.01 20.73-20.737 3.133-.176-1.243-1.64-1.801-1.526-.065.415 4.823-.175 6.831 5.266 18.719h-14.222c3.15-5.555 5.03-12.375 5.24-18.236"/>
  <path d="m1307.56 522.24c.015 2.026-1.587 2.064-1.569.586-.134-7.429-6.417-11.09-10.981-10.219-7.04 1.338-9.282 8.322-9.215 12.435.207 12.696 12.988 22.06 24.52 38.33 8.45-14.691 22.397-26.23 23.22-37.586 1.098-15.1-18.01-20.73-20.737-3.133-.176 1.243-1.64 1.801-1.526.065.415-4.823-.175-6.831 5.266-18.719h-14.222c3.15 5.555 5.03 12.375 5.24 18.236"/>
  <path d="m1215.43 347.43c.001-.872-.895-.465-1.018-.19-1.163 1.986-2.865 2.448-4.548 1.732-1.667-.709-2.604-2.28-2.454-4.522.31-3.438 3.035-7.2 4.355-9.326 1.252-1.93 2.628-4.222 4.077-7.154 1.697 3.363 2.559 4.321 4.405 7.392 1.626 2.704 3.892 5.353 4.068 8.622 0 2.485-1.046 4.832-3.399 5.259-1.331.242-2.579-.442-3.504-2.037-.282-.407-.849-.195-.839.362.165 2.093.955 3.983 2.829 6.212h-6.887c1.41-1.576 2.849-3.704 2.915-6.349"/>
  <path d="m1403.16 520.59c.001.872-.895.465-1.018.19-1.163-1.986-2.865-2.448-4.548-1.732-1.667.709-2.604 2.28-2.454 4.522.31 3.438 3.035 7.2 4.355 9.326 1.252 1.93 2.628 4.222 4.077 7.154 1.697-3.363 2.559-4.321 4.405-7.392 1.626-2.704 3.892-5.353 4.068-8.622 0-2.485-1.046-4.832-3.399-5.259-1.331-.242-2.579.442-3.504 2.037-.282.407-.849.195-.839-.362.165-2.093.955-3.983 2.829-6.212h-6.887c1.41 1.576 2.849 3.704 2.915 6.349"/>
 </g>
</svg>
