<svg xmlns="http://www.w3.org/2000/svg" viewBox="0 0 744.09 1052.36">
 <g transform="translate(-6220.72 3117.09)">
  <rect rx="10.63" width="223.23" height="311.81" x="6481.16" y="-2746.81" fill="#fff" stroke="#000" stroke-width=".997"/>
  <g transform="matrix(.30106 0 0 .30106 5635.6-1948.95)" fill="#d40000">
   <path d="m3105.3-2458.42c32.952-32.16 54.59-67.22 75.29-100.94 18.15 37.1 44.2 69.56 72.36 100.94-30.14 31.12-53.49 64.39-72.27 99.37-20.818-35.859-42.736-68.33-75.38-99.37"/>
   <path d="m3105.3-1803.73c32.952-32.16 54.59-67.22 75.29-100.94 18.15 37.1 44.2 69.56 72.36 100.94-30.14 31.12-53.49 64.39-72.27 99.37-20.818-35.859-42.735-68.33-75.38-99.37"/>
   <path d="m3105.3-2131.36c32.952-32.16 54.59-67.22 75.29-100.94 18.15 37.1 44.2 69.56 72.36 100.94-30.14 31.12-53.49 64.39-72.27 99.37-20.818-35.859-42.735-68.33-75.38-99.37"/>
   <path d="m3460.61-1821.5c13.499-13.173 22.364-27.536 30.842-41.35 7.435 15.199 18.1 28.495 29.644 41.35-12.346 12.747-21.914 26.378-29.607 40.708-8.528-14.689-17.506-27.991-30.879-40.708"/>
   <path d="m2839.52-2440.01c13.499-13.173 22.364-27.536 30.842-41.35 7.435 15.199 18.1 28.495 29.644 41.35-12.346 12.747-21.914 26.378-29.607 40.708-8.528-14.689-17.506-27.991-30.879-40.708"/>
   <path d="m2836.66-2519.89l8.461-6.112c7.354 11.738 15.563 19.474 28.12 18.14 18.845-1.267 26.649-20.661 22.704-35.28-3.809-13.1-19.417-19.495-31.815-12.498-2.924 1.65-6.305 3.688-6.305 3.688l-4.414-7.194 29.11-33.863h-31.59v14.02h-12.12v-25.13h61.746v8.529c0 0-16.538 16.837-22.01 26.07 13.469.49 24.323 8.865 28.21 22.12 2.28 6.97 1.255 22.922-1.716 29.788-4.961 11.463-18.548 20.759-30.963 21.296-20.828 1.376-31.893-12.961-37.408-23.562"/>
   <path d="m3522-1744.69l-8.461 6.112c-7.354-11.738-15.563-19.475-28.12-18.14-18.845 1.267-26.649 20.661-22.704 35.28 3.809 13.1 19.417 19.495 31.815 12.498 2.924-1.65 6.305-3.375 6.305-3.375l5.226 6.757-29.922 33.988h31.59v-14.02h12.12v25.13h-61.746v-8.529c0 0 16.538-16.837 22.01-26.07-13.469-.49-24.323-8.864-28.21-22.12-2.28-6.97-1.255-22.922 1.716-29.788 4.961-11.463 18.548-20.759 30.963-21.296 20.828-1.376 31.893 12.961 37.408 23.562"/>
  </g>
 </g>
</svg>
