<svg xmlns="http://www.w3.org/2000/svg" viewBox="0 0 744.09 1052.36">
 <g transform="translate(-1536.85 198.15)">
  <g transform="translate(-4683.88 2918.94)">
   <rect rx="10.63" width="223.23" height="311.81" x="6481.16" y="-2746.81" fill="#fff" stroke="#000" stroke-width=".997"/>
   <g transform="matrix(.30106 0 0 .30106 5635.6-1948.95)" fill="#d40000">
    <path d="m2836.66-2519.89l8.461-6.112c7.354 11.738 15.563 19.474 28.12 18.14 18.845-1.267 26.649-20.661 22.704-35.28-3.809-13.1-19.417-19.495-31.815-12.498-2.924 1.65-6.305 3.688-6.305 3.688l-4.414-7.194 29.11-33.863h-31.59v14.02h-12.12v-25.13h61.746v8.529c0 0-16.538 16.837-22.01 26.07 13.469.49 24.323 8.865 28.21 22.12 2.28 6.97 1.255 22.922-1.716 29.788-4.961 11.463-18.548 20.759-30.963 21.296-20.828 1.376-31.893-12.961-37.408-23.562"/>
    <path d="m3522-1744.69l-8.461 6.112c-7.354-11.738-15.563-19.475-28.12-18.14-18.845 1.267-26.649 20.661-22.704 35.28 3.809 13.1 19.417 19.495 31.815 12.498 2.924-1.65 6.305-3.375 6.305-3.375l5.226 6.757-29.922 33.988h31.59v-14.02h12.12v25.13h-61.746v-8.529c0 0 16.538-16.837 22.01-26.07-13.469-.49-24.323-8.864-28.21-22.12-2.28-6.97-1.255-22.922 1.716-29.788 4.961-11.463 18.548-20.759 30.963-21.296 20.828-1.376 31.893 12.961 37.408 23.562"/>
   </g>
  </g>
  <g fill="#d40000">
   <path d="m1807.03 232.79c-1.583-3.472-1.757-9.405 2.971-10.208 3.562-.458 5.01 1.198 5.3 3.742.142.743.562.788.695-.058.204-2.609 2.787-4.133 4.806-3.75 5.527.945 5.204 7.03 3.399 11.156-2.731 5.479-5.601 8.938-8.245 14.452-3.038-5.741-6.507-10.405-8.926-15.333"/>
   <path d="m1896.78 200.86c7.144-.474 10.868 5.627 11.595 10.436.433.764.671.549.837-.042.349-6.174 5.875-11.22 10.993-10.53 8.328.108 13.389 9.375 11.966 17.219-1.738 9.582-6.9 15.351-10.808 21.293-4.421 6.152-10.373 15.04-12.29 19.317 0 0-6.05-9.205-13.917-20.03-5.262-7.239-9.473-15.08-9.865-21.835-.448-7.715 2.719-14.632 11.489-15.828"/>
   <path d="m1896.85 299.28c7.144-.474 10.868 5.627 11.595 10.436.433.764.671.549.837-.042.349-6.174 5.875-11.22 10.993-10.53 8.328.108 13.389 9.375 11.966 17.219-1.738 9.582-6.9 15.351-10.808 21.293-4.421 6.152-10.373 15.04-12.29 19.317 0 0-6.05-9.205-13.917-20.03-5.262-7.239-9.473-15.08-9.865-21.835-.448-7.715 2.719-14.632 11.489-15.828"/>
   <path d="m1994.01 424c-1.583 3.472-1.757 9.405 2.971 10.208 3.562.458 5.01-1.198 5.3-3.742.142-.743.562-.788.695.058.204 2.609 2.787 4.133 4.806 3.75 5.527-.945 5.204-7.03 3.399-11.156-2.731-5.479-5.601-8.938-8.245-14.452-3.038 5.741-6.507 10.405-8.926 15.333"/>
   <path d="m1896.78 455.46c7.144.474 10.868-5.627 11.595-10.436.433-.764.671-.549.837.042.349 6.174 5.875 11.22 10.993 10.53 8.328-.108 13.389-9.375 11.966-17.219-1.738-9.582-6.9-15.351-10.808-21.293-4.421-6.152-10.373-15.04-12.29-19.317 0 0-6.05 9.205-13.917 20.03-5.262 7.239-9.473 15.08-9.865 21.835-.448 7.715 2.719 14.632 11.489 15.828"/>
  </g>
 </g>
</svg>
