<svg xmlns="http://www.w3.org/2000/svg" viewBox="0 0 744.09 1052.36">
 <g transform="translate(-1160.77 92.14)">
  <g transform="translate(-5059.96 3024.95)">
   <rect rx="10.63" width="223.23" height="311.81" x="6481.16" y="-2746.81" fill="#fff" stroke="#000" stroke-width=".997"/>
   <g transform="matrix(.30106 0 0 .30106 5635.6-1948.95)">
    <path d="m2836.66-2519.89l8.461-6.112c7.354 11.738 15.563 19.474 28.12 18.14 18.845-1.267 26.649-20.661 22.704-35.28-3.809-13.1-19.417-19.495-31.815-12.498-2.924 1.65-6.305 3.688-6.305 3.688l-4.414-7.194 29.11-33.863h-31.59v14.02h-12.12v-25.13h61.746v8.529c0 0-16.538 16.837-22.01 26.07 13.469.49 24.323 8.865 28.21 22.12 2.28 6.97 1.255 22.922-1.716 29.788-4.961 11.463-18.548 20.759-30.963 21.296-20.828 1.376-31.893-12.961-37.408-23.562"/>
    <path d="m3522-1744.69l-8.461 6.112c-7.354-11.738-15.563-19.475-28.12-18.14-18.845 1.267-26.649 20.661-22.704 35.28 3.809 13.1 19.417 19.495 31.815 12.498 2.924-1.65 6.305-3.375 6.305-3.375l5.226 6.757-29.922 33.988h31.59v-14.02h12.12v25.13h-61.746v-8.529c0 0 16.538-16.837 22.01-26.07-13.469-.49-24.323-8.864-28.21-22.12-2.28-6.97-1.255-22.922 1.716-29.788 4.961-11.463 18.548-20.759 30.963-21.296 20.828-1.376 31.893 12.961 37.408 23.562"/>
   </g>
  </g>
  <path d="m1530.61 347.07c.015-2.026-1.587-2.064-1.569-.586-.134 7.429-6.417 11.09-10.981 10.219-7.04-1.338-9.282-8.322-9.215-12.435.207-12.696 12.988-22.06 24.52-38.33 8.45 14.691 22.397 26.23 23.22 37.586 1.098 15.1-18.01 20.73-20.737 3.133-.176-1.243-1.64-1.801-1.526-.065.415 4.823-.175 6.831 5.266 18.719h-14.222c3.15-5.555 5.03-12.375 5.24-18.236"/>
  <path d="m1530.69 422.62c.015 2.026-1.587 2.064-1.569.586-.134-7.429-6.417-11.09-10.981-10.219-7.04 1.338-9.282 8.322-9.215 12.435.207 12.696 12.988 22.06 24.52 38.33 8.45-14.691 22.397-26.23 23.22-37.586 1.098-15.1-18.01-20.73-20.737-3.133-.176 1.243-1.64 1.801-1.526.065.415-4.823-.175-6.831 5.266-18.719h-14.222c3.15 5.555 5.03 12.375 5.24 18.236"/>
  <path d="m1530.62 521.3c.015 2.026-1.587 2.064-1.569.586-.134-7.429-6.417-11.09-10.981-10.219-7.04 1.338-9.282 8.322-9.215 12.435.207 12.696 12.988 22.06 24.52 38.33 8.45-14.691 22.397-26.23 23.22-37.586 1.098-15.1-18.01-20.73-20.737-3.133-.176 1.243-1.64 1.801-1.526.065.415-4.823-.175-6.831 5.266-18.719h-14.222c3.15 5.555 5.03 12.375 5.24 18.236"/>
  <path d="m1439.19 347.86c.001-.872-.895-.465-1.018-.19-1.163 1.986-2.865 2.448-4.548 1.732-1.667-.709-2.604-2.28-2.454-4.522.31-3.438 3.035-7.2 4.355-9.326 1.252-1.93 2.628-4.222 4.077-7.154 1.697 3.363 2.559 4.321 4.405 7.392 1.626 2.704 3.892 5.353 4.068 8.622 0 2.485-1.046 4.832-3.399 5.259-1.331.242-2.579-.442-3.504-2.037-.282-.407-.849-.195-.839.362.165 2.093.955 3.983 2.83 6.212h-6.887c1.41-1.576 2.849-3.704 2.915-6.349"/>
  <path d="m1626.18 520.96c.001.872-.895.465-1.018.19-1.163-1.986-2.865-2.448-4.548-1.732-1.667.709-2.604 2.28-2.454 4.522.31 3.438 3.035 7.2 4.355 9.326 1.252 1.93 2.628 4.222 4.077 7.154 1.697-3.363 2.559-4.321 4.405-7.392 1.626-2.704 3.892-5.353 4.068-8.622 0-2.485-1.046-4.832-3.399-5.259-1.331-.242-2.579.442-3.504 2.037-.282.407-.849.195-.839-.362.165-2.093.955-3.983 2.829-6.212h-6.887c1.41 1.576 2.849 3.704 2.915 6.349"/>
 </g>
</svg>
