<svg xmlns="http://www.w3.org/2000/svg" viewBox="0 0 744.09 1052.36">
 <g transform="translate(-1384 92.14)">
  <rect rx="10.63" width="223.23" height="311.81" x="1644.43" y="278.14" fill="#fff" stroke="#000" stroke-width=".997"/>
  <g transform="translate(.576)">
   <g transform="matrix(.30106 0 0 .30106 563.34 1075.28)">
    <path d="m3650.17-2493.73v-9.344h8.586v-15.399h-42.932v-10.865l46.45-70.08 7.591.026v70.05h13.13v10.865h-13.13l-.253 15.399h7.197v9.344zm8.586-80.04l-29.493 44.43h29.493z"/>
    <path d="m4273.16-1766.09v9.344h-8.586v15.399h42.931v10.865l-46.45 70.08-7.591-.026v-70.05h-13.13v-10.865h13.13l.253-15.399h-7.197v-9.344zm-8.586 80.04l29.493-44.43h-29.493z"/>
   </g>
   <path d="m1797.66 361.52c2.879-5.776 4.976-11.701 5.348-18.04.342-2.332-1.075-2.371-1.288-.729-4.076 15.593-25.763 11.37-25.02-3.297.605-11.895 12.419-14.454 18.582-10.565 2.434 1.433 2.296.575.968-.912-9.155-10.211-3.61-23.362 8.761-23.602 13.38.793 16.851 14.87 8.644 23.15-1.021.995-3.284 4.191.123 1.956 8.287-5.888 19.787.443 19.553 9.521-.433 16.739-20.839 17.987-25.2 4.01-.42-1.55-1.629-2.329-1.295.304.605 4.767 1.857 11.953 5.437 18.206z"/>
   <path d="m1698.13 361.52c2.879-5.776 4.976-11.701 5.348-18.04.342-2.332-1.075-2.371-1.288-.729-4.076 15.593-25.763 11.37-25.02-3.297.605-11.895 12.419-14.454 18.582-10.565 2.434 1.433 2.296.575.968-.912-9.155-10.211-3.61-23.362 8.761-23.602 13.38.793 16.851 14.87 8.644 23.15-1.021.995-3.284 4.191.123 1.956 8.287-5.888 19.787.443 19.553 9.521-.433 16.739-20.839 17.987-25.2 4.01-.42-1.55-1.629-2.329-1.295.304.605 4.767 1.857 11.953 5.437 18.206z"/>
   <path d="m1812.36 503.23c-2.879 5.775-4.976 11.701-5.348 18.04-.342 2.332 1.075 2.371 1.288.729 4.076-15.593 25.763-11.37 25.02 3.297-.605 11.895-12.419 14.454-18.582 10.564-2.434-1.433-2.296-.575-.968.912 9.155 10.211 3.61 23.362-8.761 23.602-13.38-.793-16.851-14.87-8.644-23.15 1.021-.995 3.284-4.191-.123-1.956-8.287 5.888-19.787-.443-19.553-9.521.433-16.739 20.839-17.987 25.2-4.01.42 1.55 1.629 2.329 1.295-.304-.605-4.767-1.857-11.953-5.437-18.206z"/>
   <path d="m1712.83 503.23c-2.879 5.775-4.976 11.701-5.348 18.04-.342 2.332 1.075 2.371 1.288.729 4.076-15.593 25.763-11.37 25.02 3.297-.605 11.895-12.419 14.454-18.582 10.564-2.434-1.433-2.296-.575-.968.912 9.155 10.211 3.61 23.362-8.761 23.602-13.38-.793-16.851-14.87-8.644-23.15 1.021-.995 3.284-4.191-.123-1.956-8.287 5.888-19.787-.443-19.553-9.521.433-16.739 20.839-17.987 25.2-4.01.42 1.55 1.629 2.329 1.295-.304-.605-4.767-1.857-11.953-5.437-18.206z"/>
   <path d="m1657.81 353.56c1.192-2.445 2.352-4.721 2.984-7.401.419-2.528-.438-1.589-.925.068-.721 2.297-2.723 3.344-4.58 3.369-3.371.046-5.05-2.604-4.948-5.454-.368-2.999 2.671-5.12 4.962-4.957 1.722.123 3.224 1.052 4.133 1.775.596.315 1.234.455.345-.358-1.678-1.833-3.077-2.964-3.046-5.711.029-2.579 2.234-5.268 5.155-5.184 3.651.105 5.312 2.89 5.303 5.481-.001 1.888-.954 3.626-2.411 4.703-.944.766-.679 1.34.398.615 1.035-.892 2.267-1.283 3.545-1.31 3.491-.055 4.855 2.961 4.655 5.764-.187 2.626-2.423 5.328-5.369 5.02-2.631-.301-4.01-2.51-4.805-4.777-.262-.695-.676-.883-.665.153.608 5.057 2.492 8.204 2.505 8.202z"/>
   <path d="m1853.12 514.82c-1.192 2.445-2.352 4.721-2.984 7.401-.419 2.528.438 1.589.925-.068.721-2.297 2.723-3.344 4.58-3.369 3.371-.045 5.05 2.604 4.948 5.454.368 2.999-2.671 5.12-4.962 4.957-1.722-.123-3.224-1.052-4.133-1.775-.596-.315-1.234-.455-.345.358 1.678 1.833 3.077 2.964 3.046 5.711-.029 2.579-2.234 5.268-5.155 5.184-3.651-.105-5.312-2.89-5.303-5.481.001-1.888.954-3.626 2.411-4.703.944-.766.679-1.34-.398-.615-1.035.892-2.267 1.283-3.545 1.31-3.491.055-4.855-2.961-4.655-5.764.187-2.626 2.423-5.328 5.369-5.02 2.631.302 4.01 2.51 4.805 4.777.262.695.676.883.665-.153-.608-5.057-2.492-8.204-2.505-8.202z"/>
  </g>
 </g>
</svg>
