<svg xmlns="http://www.w3.org/2000/svg" viewBox="0 0 744.09 1052.36">
 <g transform="translate(-6443.95 3117.09)">
  <rect rx="10.63" width="223.23" height="311.81" x="6704.39" y="-2746.81" fill="#fff" stroke="#000" stroke-width=".997"/>
  <g transform="matrix(.30106 0 0 .30106 5623.29-1949.67)" fill="#d40000">
   <path d="m3706.59-2464.92c32.952-32.16 54.59-67.22 75.29-100.94 18.15 37.1 44.2 69.56 72.36 100.94-30.14 31.12-53.49 64.39-72.27 99.37-20.818-35.859-42.735-68.33-75.38-99.37"/>
   <path d="m3706.59-1804.44c32.952-32.16 54.59-67.22 75.29-100.94 18.15 37.1 44.2 69.56 72.36 100.94-30.14 31.12-53.49 64.39-72.27 99.37-20.818-35.859-42.735-68.33-75.38-99.37"/>
   <path d="m4077.05-2464.92c32.952-32.16 54.59-67.22 75.29-100.94 18.15 37.1 44.2 69.56 72.36 100.94-30.14 31.12-53.49 64.39-72.27 99.37-20.818-35.859-42.735-68.33-75.38-99.37"/>
   <path d="m4077.05-1804.44c32.952-32.16 54.59-67.22 75.29-100.94 18.15 37.1 44.2 69.56 72.36 100.94-30.14 31.12-53.49 64.39-72.27 99.37-20.818-35.859-42.735-68.33-75.38-99.37"/>
   <path d="m4240.44-1821.68c13.499-13.173 22.364-27.536 30.842-41.35 7.435 15.199 18.1 28.495 29.644 41.35-12.346 12.747-21.914 26.378-29.607 40.708-8.528-14.689-17.506-27.991-30.879-40.708"/>
   <path d="m3618.58-2436.54c13.499-13.173 22.364-27.536 30.842-41.35 7.435 15.199 18.1 28.495 29.644 41.35-12.346 12.747-21.914 26.378-29.607 40.708-8.528-14.689-17.506-27.991-30.879-40.708"/>
   <path d="m3650.17-2493.73v-9.344h8.586v-15.399h-42.932v-10.865l46.45-70.08 7.591.026v70.05h13.13v10.865h-13.13l-.253 15.399h7.197v9.344zm8.586-80.04l-29.493 44.43h29.493z"/>
   <path d="m4273.16-1766.09v9.344h-8.586v15.399h42.931v10.865l-46.45 70.08-7.591-.026v-70.05h-13.13v-10.865h13.13l.253-15.399h-7.197v-9.344zm-8.586 80.04l29.493-44.43h-29.493z"/>
  </g>
 </g>
</svg>
