<svg xmlns="http://www.w3.org/2000/svg" viewBox="0 0 744.09 1052.36">
 <g transform="translate(-1760.08 198.15)">
  <g transform="translate(-4683.88 2918.94)">
   <rect rx="10.63" width="223.23" height="311.81" x="6704.39" y="-2746.81" fill="#fff" stroke="#000" stroke-width=".997"/>
   <g transform="matrix(.30106 0 0 .30106 5623.29-1949.67)" fill="#d40000">
    <path d="m3650.17-2493.73v-9.344h8.586v-15.399h-42.932v-10.865l46.45-70.08 7.591.026v70.05h13.13v10.865h-13.13l-.253 15.399h7.197v9.344zm8.586-80.04l-29.493 44.43h29.493z"/>
    <path d="m4273.16-1766.09v9.344h-8.586v15.399h42.931v10.865l-46.45 70.08-7.591-.026v-70.05h-13.13v-10.865h13.13l.253-15.399h-7.197v-9.344zm-8.586 80.04l29.493-44.43h-29.493z"/>
   </g>
  </g>
  <g fill="#d40000">
   <path d="m2029.27 233.12c-1.583-3.472-1.757-9.405 2.971-10.208 3.562-.458 5.01 1.198 5.3 3.742.142.743.562.788.695-.058.204-2.609 2.787-4.133 4.806-3.75 5.527.945 5.204 7.03 3.399 11.156-2.731 5.479-5.601 8.938-8.245 14.452-3.038-5.741-6.507-10.405-8.926-15.333"/>
   <path d="m2065.51 198.19c7.144-.474 10.868 5.627 11.595 10.436.433.764.671.549.837-.042.349-6.174 5.875-11.22 10.993-10.53 8.328.108 13.39 9.375 11.966 17.219-1.738 9.582-6.9 15.351-10.808 21.293-4.421 6.152-10.373 15.04-12.29 19.317 0 0-6.05-9.205-13.917-20.03-5.262-7.239-9.473-15.08-9.865-21.835-.448-7.715 2.719-14.632 11.489-15.828"/>
   <path d="m2175.04 198.19c7.144-.474 10.868 5.627 11.595 10.436.433.764.671.549.837-.042.349-6.174 5.875-11.22 10.993-10.53 8.328.108 13.39 9.375 11.966 17.219-1.738 9.582-6.9 15.351-10.808 21.293-4.421 6.152-10.373 15.04-12.29 19.317 0 0-6.05-9.205-13.917-20.03-5.262-7.239-9.473-15.08-9.865-21.835-.448-7.715 2.719-14.632 11.489-15.828"/>
   <path d="m2065.51 454.53c7.144.474 10.868-5.627 11.595-10.436.433-.764.671-.549.837.042.349 6.174 5.875 11.22 10.993 10.53 8.328-.108 13.39-9.375 11.966-17.219-1.738-9.582-6.9-15.351-10.808-21.293-4.421-6.152-10.373-15.04-12.29-19.317 0 0-6.05 9.205-13.917 20.03-5.262 7.239-9.473 15.08-9.865 21.835-.448 7.715 2.719 14.632 11.489 15.828"/>
   <path d="m2175.04 454.53c7.144.474 10.868-5.627 11.595-10.436.433-.764.671-.549.837.042.349 6.174 5.875 11.22 10.993 10.53 8.328-.108 13.39-9.375 11.966-17.219-1.738-9.582-6.9-15.351-10.808-21.293-4.421-6.152-10.373-15.04-12.29-19.317 0 0-6.05 9.205-13.917 20.03-5.262 7.239-9.473 15.08-9.865 21.835-.448 7.715 2.719 14.632 11.489 15.828"/>
   <path d="m2216.49 423.23c-1.583 3.472-1.757 9.405 2.971 10.208 3.562.458 5.01-1.198 5.3-3.742.142-.743.562-.788.695.058.204 2.609 2.787 4.133 4.806 3.75 5.527-.945 5.204-7.03 3.398-11.156-2.731-5.479-5.601-8.938-8.245-14.452-3.038 5.741-6.507 10.405-8.926 15.333"/>
  </g>
 </g>
</svg>
