<svg xmlns="http://www.w3.org/2000/svg" viewBox="0 0 744.09 1052.36">
 <g transform="translate(-1383 92.14)">
  <g transform="translate(-5060.95 3024.95)">
   <rect y="-2746.81" x="6704.39" height="311.81" width="223.23" rx="10.63" fill="#fff" stroke="#000" stroke-width=".997"/>
   <g transform="matrix(.30106 0 0 .30106 5623.29-1949.67)">
    <path d="m3650.17-2493.73v-9.344h8.586v-15.399h-42.932v-10.865l46.45-70.08 7.591.026v70.05h13.13v10.865h-13.13l-.253 15.399h7.197v9.344zm8.586-80.04l-29.493 44.43h29.493z"/>
    <path d="m4273.16-1766.09v9.344h-8.586v15.399h42.931v10.865l-46.45 70.08-7.591-.026v-70.05h-13.13v-10.865h13.13l.253-15.399h-7.197v-9.344zm-8.586 80.04l29.493-44.43h-29.493z"/>
   </g>
  </g>
  <path d="m1698.34 344.4c.015-2.026-1.587-2.064-1.569-.586-.134 7.429-6.417 11.09-10.981 10.219-7.04-1.338-9.282-8.322-9.215-12.435.207-12.696 12.988-22.06 24.52-38.33 8.45 14.691 22.397 26.23 23.22 37.586 1.098 15.1-18.01 20.73-20.737 3.133-.176-1.243-1.64-1.801-1.526-.065.415 4.823-.175 6.831 5.266 18.719h-14.222c3.15-5.555 5.03-12.375 5.24-18.236"/>
  <path d="m1809.87 344.4c.015-2.026-1.587-2.064-1.569-.586-.134 7.429-6.417 11.09-10.981 10.219-7.04-1.338-9.282-8.322-9.215-12.435.207-12.696 12.988-22.06 24.52-38.33 8.45 14.691 22.397 26.23 23.22 37.586 1.098 15.1-18.01 20.73-20.737 3.133-.176-1.243-1.64-1.801-1.526-.065.415 4.823-.175 6.831 5.266 18.719h-14.222c3.15-5.555 5.03-12.375 5.24-18.236"/>
  <path d="m1698.35 520.37c.015 2.026-1.587 2.064-1.569.586-.134-7.429-6.417-11.09-10.981-10.219-7.04 1.338-9.282 8.322-9.215 12.435.207 12.696 12.988 22.06 24.52 38.33 8.45-14.691 22.397-26.23 23.22-37.586 1.098-15.1-18.01-20.73-20.737-3.133-.176 1.243-1.64 1.801-1.526.065.415-4.823-.175-6.831 5.266-18.719h-14.222c3.15 5.555 5.03 12.375 5.24 18.236"/>
  <path d="m1809.88 520.37c.015 2.026-1.587 2.064-1.569.586-.134-7.429-6.417-11.09-10.981-10.219-7.04 1.338-9.282 8.322-9.215 12.435.207 12.696 12.988 22.06 24.52 38.33 8.45-14.691 22.397-26.23 23.22-37.586 1.098-15.1-18.01-20.73-20.737-3.133-.176 1.243-1.64 1.801-1.526.065.415-4.823-.175-6.831 5.266-18.719h-14.222c3.15 5.555 5.03 12.375 5.24 18.236"/>
  <path d="m1660.43 348.19c.001-.872-.895-.465-1.018-.19-1.163 1.986-2.865 2.448-4.548 1.732-1.667-.709-2.604-2.28-2.454-4.522.31-3.438 3.035-7.2 4.355-9.326 1.252-1.93 2.628-4.222 4.077-7.154 1.697 3.363 2.559 4.321 4.405 7.392 1.626 2.704 3.892 5.353 4.068 8.622 0 2.485-1.046 4.832-3.399 5.259-1.331.242-2.579-.442-3.504-2.037-.282-.407-.849-.195-.839.362.165 2.093.955 3.983 2.83 6.212h-6.887c1.41-1.576 2.849-3.704 2.915-6.349"/>
  <path d="m1847.65 520.19c.001.872-.895.465-1.018.19-1.163-1.986-2.865-2.448-4.548-1.732-1.667.709-2.604 2.28-2.454 4.522.31 3.438 3.035 7.2 4.355 9.326 1.252 1.93 2.628 4.222 4.077 7.154 1.697-3.363 2.559-4.321 4.405-7.392 1.626-2.704 3.892-5.353 4.068-8.622 0-2.485-1.046-4.832-3.399-5.259-1.331-.242-2.579.442-3.504 2.037-.282.407-.849.195-.839-.362.165-2.093.955-3.983 2.829-6.212h-6.887c1.41 1.576 2.849 3.704 2.915 6.349"/>
 </g>
</svg>
