<svg xmlns="http://www.w3.org/2000/svg" viewBox="0 0 744.09 1052.36">
 <g transform="translate(-1607.23 92.14)">
  <rect y="278.14" x="1867.66" height="311.81" width="223.23" rx="10.63" fill="#fff" stroke="#000" stroke-width=".997"/>
  <g transform="translate(.076)">
   <g transform="matrix(.30106 0 0 .30106 502.63 1077.14)">
    <path d="m4561.23-2529.25l10.696-.094c2.034 6.457 6.55 13.04 12.678 14.859 17.312 4.065 28.457-5.605 32.13-16.763 4.451-13.531-.101-32.536-12.02-39.29-9.884-5.599-24.563-.877-31.3 11.09l-7.498-4.583 4.02-44.581h48.929v10.536h-39.652l-.622 18.571c8.521-5.986 21.65-5.928 30.18-1.727 16.16 7.702 23.663 25.22 20.518 45.873-4.353 20.538-13.942 32.17-35.599 33.847-24.06.208-32.564-16.336-32.468-27.739"/>
    <path d="m5248.36-1742.92l-10.696.094c-2.034-6.457-6.55-13.04-12.678-14.859-17.312-4.065-28.457 5.605-32.13 16.763-4.451 13.531.101 32.536 12.02 39.29 9.884 5.6 24.563.877 31.3-11.09l7.498 4.583-4.02 44.582h-48.929v-10.536h39.652l.622-18.571c-8.521 5.986-21.65 5.928-30.18 1.727-16.16-7.702-23.663-25.22-20.518-45.873 4.353-20.538 13.942-32.17 35.599-33.847 24.06-.208 32.564 16.336 32.468 27.739"/>
   </g>
   <path d="m1971.85 462.64c2.879-5.776 4.976-11.701 5.348-18.04.342-2.332-1.075-2.371-1.288-.729-4.076 15.593-25.763 11.37-25.02-3.297.605-11.895 12.419-14.454 18.582-10.565 2.434 1.433 2.296.575.968-.912-9.155-10.211-3.61-23.362 8.761-23.602 13.38.793 16.851 14.87 8.644 23.15-1.021.995-3.284 4.191.123 1.956 8.287-5.888 19.787.443 19.553 9.521-.433 16.739-20.839 17.987-25.2 4.01-.42-1.55-1.629-2.329-1.295.304.605 4.767 1.857 11.953 5.437 18.206z"/>
   <path d="m2021.09 363.38c2.879-5.776 4.976-11.701 5.348-18.04.342-2.332-1.075-2.371-1.288-.729-4.076 15.593-25.763 11.37-25.02-3.297.605-11.895 12.419-14.454 18.582-10.565 2.434 1.433 2.296.575.968-.912-9.155-10.211-3.61-23.362 8.761-23.602 13.38.793 16.851 14.87 8.644 23.15-1.021.995-3.284 4.191.123 1.956 8.287-5.888 19.787.443 19.553 9.521-.433 16.739-20.839 17.987-25.2 4.01-.42-1.55-1.629-2.329-1.295.304.605 4.767 1.857 11.953 5.437 18.206z"/>
   <path d="m1922.41 363.38c2.879-5.776 4.976-11.701 5.348-18.04.342-2.332-1.075-2.371-1.288-.729-4.076 15.593-25.763 11.37-25.02-3.297.605-11.895 12.419-14.454 18.582-10.565 2.434 1.433 2.296.575.968-.912-9.155-10.211-3.61-23.362 8.761-23.602 13.38.793 16.851 14.87 8.644 23.15-1.021.995-3.284 4.191.123 1.956 8.287-5.888 19.787.443 19.553 9.521-.433 16.739-20.839 17.987-25.2 4.01-.42-1.55-1.629-2.329-1.295.304.605 4.767 1.857 11.953 5.437 18.206z"/>
   <path d="m2035.8 502.89c-2.879 5.775-4.976 11.701-5.348 18.04-.342 2.332 1.075 2.371 1.288.729 4.076-15.593 25.763-11.37 25.02 3.297-.605 11.895-12.419 14.454-18.582 10.564-2.434-1.433-2.296-.575-.968.912 9.155 10.211 3.61 23.362-8.761 23.602-13.38-.793-16.851-14.87-8.644-23.15 1.021-.995 3.284-4.191-.123-1.956-8.287 5.888-19.787-.443-19.553-9.521.433-16.739 20.839-17.987 25.2-4.01.42 1.55 1.629 2.329 1.295-.304-.605-4.767-1.857-11.953-5.437-18.206z"/>
   <path d="m1937.11 502.89c-2.879 5.775-4.976 11.701-5.348 18.04-.342 2.332 1.075 2.371 1.288.729 4.076-15.593 25.763-11.37 25.02 3.297-.605 11.895-12.419 14.454-18.582 10.564-2.434-1.433-2.296-.575-.968.912 9.155 10.211 3.61 23.362-8.761 23.602-13.38-.793-16.851-14.87-8.644-23.15 1.021-.995 3.284-4.191-.123-1.956-8.287 5.888-19.787-.443-19.553-9.521.433-16.739 20.839-17.987 25.2-4.01.42 1.55 1.629 2.329 1.295-.304-.605-4.767-1.857-11.953-5.437-18.206z"/>
   <path d="m1881.8 353.16c1.192-2.445 2.352-4.721 2.984-7.401.419-2.528-.438-1.589-.925.068-.721 2.297-2.723 3.344-4.58 3.369-3.371.046-5.05-2.604-4.948-5.454-.368-2.999 2.671-5.12 4.962-4.957 1.722.123 3.224 1.052 4.133 1.775.596.315 1.234.455.345-.358-1.678-1.833-3.077-2.964-3.046-5.711.029-2.579 2.234-5.268 5.155-5.184 3.651.105 5.312 2.89 5.303 5.481-.001 1.888-.954 3.626-2.411 4.703-.944.766-.679 1.34.398.615 1.035-.892 2.267-1.283 3.545-1.31 3.491-.055 4.855 2.961 4.655 5.764-.187 2.626-2.423 5.328-5.369 5.02-2.631-.301-4.01-2.51-4.805-4.777-.262-.695-.676-.883-.665.153.608 5.057 2.492 8.204 2.505 8.202z"/>
   <path d="m2076.59 515.17c-1.192 2.445-2.352 4.721-2.984 7.401-.419 2.528.438 1.589.925-.068.721-2.297 2.723-3.344 4.58-3.369 3.371-.045 5.05 2.604 4.948 5.454.368 2.999-2.671 5.12-4.962 4.957-1.722-.123-3.224-1.052-4.133-1.775-.596-.315-1.234-.455-.345.358 1.678 1.833 3.077 2.964 3.046 5.711-.029 2.579-2.233 5.268-5.155 5.184-3.651-.105-5.312-2.89-5.303-5.481.001-1.888.954-3.626 2.411-4.703.944-.766.679-1.34-.398-.615-1.035.892-2.267 1.283-3.545 1.31-3.49.055-4.855-2.961-4.655-5.764.187-2.626 2.423-5.328 5.369-5.02 2.631.302 4.01 2.51 4.805 4.777.262.695.676.883.664-.153-.608-5.057-2.492-8.204-2.505-8.202z"/>
  </g>
 </g>
</svg>
