<svg xmlns="http://www.w3.org/2000/svg" viewBox="0 0 744.09 1052.36">
 <g transform="translate(-6667.18 3117.09)">
  <rect rx="10.63" width="223.23" height="311.81" x="6927.61" y="-2746.81" fill="#fff" stroke="#000" stroke-width=".997"/>
  <g transform="matrix(.30106 0 0 .30106 5562.58-1947.81)" fill="#d40000">
   <path d="m4646.59-2464.92c32.952-32.16 54.59-67.22 75.29-100.94 18.15 37.1 44.2 69.56 72.36 100.94-30.14 31.12-53.49 64.39-72.27 99.37-20.818-35.859-42.735-68.33-75.38-99.37"/>
   <path d="m4646.59-1811.73c32.952-32.16 54.59-67.22 75.29-100.94 18.15 37.1 44.2 69.56 72.36 100.94-30.14 31.12-53.49 64.39-72.27 99.37-20.818-35.859-42.735-68.33-75.38-99.37"/>
   <path d="m5014.22-2464.92c32.952-32.16 54.59-67.22 75.29-100.94 18.15 37.1 44.2 69.56 72.36 100.94-30.14 31.12-53.49 64.39-72.27 99.37-20.818-35.859-42.735-68.33-75.38-99.37"/>
   <path d="m4830.73-2135.22c32.952-32.16 54.59-67.22 75.29-100.94 18.15 37.1 44.2 69.56 72.36 100.94-30.14 31.12-53.49 64.39-72.27 99.37-20.818-35.859-42.735-68.33-75.38-99.37"/>
   <path d="m5014.22-1811.73c32.952-32.16 54.59-67.22 75.29-100.94 18.15 37.1 44.2 69.56 72.36 100.94-30.14 31.12-53.49 64.39-72.27 99.37-20.818-35.859-42.735-68.33-75.38-99.37"/>
   <path d="m5184.38-1826.69c13.499-13.173 22.364-27.536 30.842-41.35 7.435 15.199 18.1 28.495 29.644 41.35-12.346 12.747-21.914 26.378-29.607 40.708-8.528-14.689-17.506-27.991-30.879-40.708"/>
   <path d="m4564.22-2444.03c13.499-13.173 22.364-27.536 30.842-41.35 7.435 15.199 18.1 28.495 29.644 41.35-12.346 12.747-21.914 26.378-29.607 40.708-8.528-14.689-17.506-27.991-30.879-40.708"/>
   <path d="m4561.23-2529.25l10.696-.094c2.034 6.457 6.55 13.04 12.678 14.859 17.312 4.065 28.457-5.605 32.13-16.763 4.451-13.531-.101-32.536-12.02-39.29-9.884-5.599-24.563-.877-31.3 11.09l-7.498-4.583 4.02-44.581h48.929v10.536h-39.652l-.622 18.571c8.521-5.986 21.65-5.928 30.18-1.727 16.16 7.702 23.663 25.22 20.518 45.873-4.353 20.538-13.942 32.17-35.599 33.847-24.06.208-32.564-16.336-32.468-27.739"/>
   <path d="m5248.36-1742.92l-10.696.094c-2.034-6.457-6.55-13.04-12.678-14.859-17.312-4.065-28.457 5.605-32.13 16.763-4.451 13.531.101 32.536 12.02 39.29 9.884 5.6 24.563.877 31.3-11.09l7.498 4.583-4.02 44.582h-48.929v-10.536h39.652l.622-18.571c-8.521 5.986-21.65 5.928-30.18 1.727-16.16-7.702-23.663-25.22-20.518-45.873 4.353-20.538 13.942-32.17 35.599-33.847 24.06-.208 32.564 16.336 32.468 27.739"/>
  </g>
 </g>
</svg>
