<svg xmlns="http://www.w3.org/2000/svg" viewBox="0 0 744.09 1052.36">
 <g transform="translate(-1983.31 198.15)">
  <g transform="translate(-4683.88 2918.94)">
   <rect rx="10.63" width="223.23" height="311.81" x="6927.61" y="-2746.81" fill="#fff" stroke="#000" stroke-width=".997"/>
   <g transform="matrix(.30106 0 0 .30106 5562.58-1947.81)" fill="#d40000">
    <path d="m4561.23-2529.25l10.696-.094c2.034 6.457 6.55 13.04 12.678 14.859 17.312 4.065 28.457-5.605 32.13-16.763 4.451-13.531-.101-32.536-12.02-39.29-9.884-5.599-24.563-.877-31.3 11.09l-7.498-4.583 4.02-44.581h48.929v10.536h-39.652l-.622 18.571c8.521-5.986 21.65-5.928 30.18-1.727 16.16 7.702 23.663 25.22 20.518 45.873-4.353 20.538-13.942 32.17-35.599 33.847-24.06.208-32.564-16.336-32.468-27.739"/>
    <path d="m5248.36-1742.92l-10.696.094c-2.034-6.457-6.55-13.04-12.678-14.859-17.312-4.065-28.457 5.605-32.13 16.763-4.451 13.531.101 32.536 12.02 39.29 9.884 5.6 24.563.877 31.3-11.09l7.498 4.583-4.02 44.582h-48.929v-10.536h39.652l.622-18.571c-8.521 5.986-21.65 5.928-30.18 1.727-16.16-7.702-23.663-25.22-20.518-45.873 4.353-20.538 13.942-32.17 35.599-33.847 24.06-.208 32.564 16.336 32.468 27.739"/>
   </g>
  </g>
  <g fill="#d40000">
   <path d="m2253.25 232.72c-1.583-3.472-1.757-9.405 2.971-10.208 3.562-.458 5.01 1.198 5.3 3.742.142.743.562.788.695-.058.204-2.609 2.787-4.133 4.806-3.75 5.527.945 5.204 7.03 3.398 11.156-2.731 5.479-5.601 8.938-8.245 14.452-3.038-5.741-6.507-10.405-8.926-15.333"/>
   <path d="m2287.79 200.05c7.144-.474 10.868 5.627 11.595 10.436.433.764.671.549.837-.042.349-6.174 5.875-11.22 10.993-10.53 8.328.108 13.39 9.375 11.966 17.219-1.738 9.582-6.9 15.351-10.808 21.293-4.421 6.152-10.373 15.04-12.29 19.317 0 0-6.05-9.205-13.917-20.03-5.262-7.239-9.473-15.08-9.865-21.835-.448-7.715 2.719-14.632 11.489-15.828"/>
   <path d="m2398.48 200.05c7.144-.474 10.868 5.627 11.595 10.436.433.764.671.549.837-.042.349-6.174 5.875-11.22 10.993-10.53 8.328.108 13.39 9.375 11.966 17.219-1.738 9.582-6.9 15.351-10.808 21.293-4.421 6.152-10.373 15.04-12.29 19.317 0 0-6.05-9.205-13.917-20.03-5.262-7.239-9.473-15.08-9.865-21.835-.448-7.715 2.719-14.632 11.489-15.828"/>
   <path d="m2343.3 299.28c7.144-.474 10.868 5.627 11.595 10.436.433.764.671.549.837-.042.349-6.174 5.875-11.22 10.993-10.53 8.328.108 13.39 9.375 11.966 17.219-1.738 9.582-6.9 15.351-10.808 21.293-4.421 6.152-10.373 15.04-12.29 19.317 0 0-6.05-9.205-13.917-20.03-5.262-7.239-9.473-15.08-9.865-21.835-.448-7.715 2.719-14.632 11.489-15.828"/>
   <path d="m2287.79 454.19c7.144.474 10.868-5.627 11.595-10.436.433-.764.671-.549.837.042.349 6.174 5.875 11.22 10.993 10.53 8.328-.108 13.39-9.375 11.966-17.219-1.738-9.582-6.9-15.351-10.808-21.293-4.421-6.152-10.373-15.04-12.29-19.317 0 0-6.05 9.205-13.917 20.03-5.262 7.239-9.473 15.08-9.865 21.835-.448 7.715 2.719 14.632 11.489 15.828"/>
   <path d="m2398.48 454.19c7.144.474 10.868-5.627 11.595-10.436.433-.764.671-.549.837.042.349 6.174 5.875 11.22 10.993 10.53 8.328-.108 13.39-9.375 11.966-17.219-1.738-9.582-6.9-15.351-10.808-21.293-4.421-6.152-10.373-15.04-12.29-19.317 0 0-6.05 9.205-13.917 20.03-5.262 7.239-9.473 15.08-9.865 21.835-.448 7.715 2.719 14.632 11.489 15.828"/>
   <path d="m2439.96 423.58c-1.583 3.472-1.757 9.405 2.971 10.208 3.562.458 5.01-1.198 5.3-3.742.142-.743.562-.788.695.058.204 2.609 2.787 4.133 4.806 3.75 5.527-.945 5.204-7.03 3.398-11.156-2.731-5.479-5.601-8.938-8.245-14.452-3.038 5.741-6.507 10.405-8.926 15.333"/>
  </g>
 </g>
</svg>
