<svg xmlns="http://www.w3.org/2000/svg" viewBox="0 0 744.09 1052.36">
 <g transform="translate(-1607.23 92.14)">
  <g transform="translate(-5059.96 3024.95)">
   <rect rx="10.63" width="223.23" height="311.81" x="6927.61" y="-2746.81" fill="#fff" stroke="#000" stroke-width=".997"/>
   <g transform="matrix(.30106 0 0 .30106 5562.58-1947.81)">
    <path d="m4561.23-2529.25l10.696-.094c2.034 6.457 6.55 13.04 12.678 14.859 17.312 4.065 28.457-5.605 32.13-16.763 4.451-13.531-.101-32.536-12.02-39.29-9.884-5.599-24.563-.877-31.3 11.09l-7.498-4.583 4.02-44.581h48.929v10.536h-39.652l-.622 18.571c8.521-5.986 21.65-5.928 30.18-1.727 16.16 7.702 23.663 25.22 20.518 45.873-4.353 20.538-13.942 32.17-35.599 33.847-24.06.208-32.564-16.336-32.468-27.739"/>
    <path d="m5248.36-1742.92l-10.696.094c-2.034-6.457-6.55-13.04-12.678-14.859-17.312-4.065-28.457 5.605-32.13 16.763-4.451 13.531.101 32.536 12.02 39.29 9.884 5.6 24.563.877 31.3-11.09l7.498 4.583-4.02 44.582h-48.929v-10.536h39.652l.622-18.571c-8.521 5.986-21.65 5.928-30.18 1.727-16.16-7.702-23.663-25.22-20.518-45.873 4.353-20.538 13.942-32.17 35.599-33.847 24.06-.208 32.564 16.336 32.468 27.739"/>
   </g>
  </g>
  <path d="m1921.62 346.26c.015-2.026-1.587-2.064-1.569-.586-.134 7.429-6.417 11.09-10.981 10.219-7.04-1.338-9.282-8.322-9.215-12.435.207-12.696 12.988-22.06 24.52-38.33 8.45 14.691 22.397 26.23 23.22 37.586 1.098 15.1-18.01 20.73-20.737 3.133-.176-1.243-1.64-1.801-1.526-.065.415 4.823-.175 6.831 5.266 18.719h-14.222c3.15-5.555 5.03-12.375 5.24-18.236"/>
  <path d="m2032.3 346.26c.015-2.026-1.587-2.064-1.569-.586-.134 7.429-6.417 11.09-10.981 10.219-7.04-1.338-9.282-8.322-9.215-12.435.207-12.696 12.988-22.06 24.52-38.33 8.45 14.691 22.397 26.23 23.22 37.586 1.098 15.1-18.01 20.73-20.737 3.133-.176-1.243-1.64-1.801-1.526-.065.415 4.823-.175 6.831 5.266 18.719h-14.222c3.15-5.555 5.03-12.375 5.24-18.236"/>
  <path d="m1977.06 445.52c.015-2.026-1.587-2.064-1.569-.586-.134 7.429-6.417 11.09-10.981 10.219-7.04-1.338-9.282-8.322-9.215-12.435.207-12.696 12.988-22.06 24.52-38.33 8.45 14.691 22.397 26.23 23.22 37.586 1.098 15.1-18.01 20.73-20.737 3.133-.176-1.243-1.64-1.801-1.526-.065.415 4.823-.175 6.831 5.266 18.719h-14.222c3.15-5.555 5.03-12.375 5.24-18.236"/>
  <path d="m1921.63 520.04c.015 2.026-1.587 2.064-1.569.586-.134-7.429-6.417-11.09-10.981-10.219-7.04 1.338-9.282 8.322-9.215 12.435.207 12.696 12.988 22.06 24.52 38.33 8.45-14.691 22.397-26.23 23.22-37.586 1.098-15.1-18.01-20.73-20.737-3.133-.176 1.243-1.64 1.801-1.526.065.415-4.823-.175-6.831 5.266-18.719h-14.222c3.15 5.555 5.03 12.375 5.24 18.236"/>
  <path d="m2032.31 520.04c.015 2.026-1.587 2.064-1.569.586-.134-7.429-6.417-11.09-10.981-10.219-7.04 1.338-9.282 8.322-9.215 12.435.207 12.696 12.988 22.06 24.52 38.33 8.45-14.691 22.397-26.23 23.22-37.586 1.098-15.1-18.01-20.73-20.737-3.133-.176 1.243-1.64 1.801-1.526.065.415-4.823-.175-6.831 5.266-18.719h-14.222c3.15 5.555 5.03 12.375 5.24 18.236"/>
  <path d="m1885.41 347.79c.001-.872-.895-.465-1.018-.19-1.163 1.986-2.865 2.448-4.548 1.732-1.667-.709-2.604-2.28-2.454-4.522.31-3.438 3.035-7.2 4.355-9.326 1.252-1.93 2.628-4.222 4.077-7.154 1.697 3.363 2.559 4.321 4.405 7.392 1.626 2.704 3.892 5.353 4.068 8.622 0 2.485-1.046 4.832-3.399 5.259-1.331.242-2.579-.442-3.504-2.037-.282-.407-.849-.195-.839.362.165 2.093.955 3.983 2.83 6.212h-6.887c1.41-1.576 2.849-3.704 2.915-6.349"/>
  <path d="m2072.12 520.54c.001.872-.895.465-1.018.19-1.163-1.986-2.865-2.448-4.548-1.732-1.667.709-2.604 2.28-2.454 4.522.31 3.438 3.035 7.2 4.355 9.326 1.252 1.93 2.628 4.222 4.077 7.154 1.697-3.363 2.559-4.321 4.405-7.391 1.626-2.704 3.892-5.353 4.068-8.622 0-2.485-1.046-4.832-3.399-5.259-1.331-.242-2.579.442-3.504 2.037-.282.407-.849.195-.839-.362.165-2.093.955-3.983 2.829-6.212h-6.887c1.41 1.576 2.849 3.704 2.915 6.349"/>
 </g>
</svg>
