<svg xmlns="http://www.w3.org/2000/svg" viewBox="0 0 744.09 1052.36">
 <g transform="translate(-1830.45 92.14)">
  <rect rx="10.63" width="223.23" height="311.81" x="2090.89" y="278.14" fill="#fff" stroke="#000" stroke-width=".997"/>
  <g transform="translate(-.116)">
   <g transform="matrix(.30106 0 0 .30106 1769.32 729.67)">
    <path d="m1095.47-1380.22c-1.356-9.125-1.335-32.702-.219-39.668 3.418-21.353 11.732-31.12 25.651-34.32 13.514-3.108 32.515.352 36.684 18.209l-11.315.209c-6.111-12.07-21.575-8.843-30.28-3.594-6.953 4.192-10.09 21.656-8.749 22.73-.001 0 13.144-9.557 23.503-8.852 22.15 2.265 31.28 21.11 30.509 38.925-.7 21.423-7.623 38.538-31.09 39.681-22.315-.842-32.551-12.788-34.691-33.32m55.04-5.663c.123-14.865-6.755-25.984-19.762-27.21-13.01-1.228-26.12 11.233-25.21 26.382.911 15.202 6.904 28.01 22.674 27.936 16.96-.076 22.21-16.529 22.299-27.11"/>
    <path d="m1782.2-583.67c1.356 9.125 1.335 32.702.219 39.668-3.418 21.353-11.732 31.12-25.651 34.32-13.514 3.108-32.515-.352-36.684-18.209l11.315-.209c6.111 12.07 21.575 8.843 30.28 3.594 6.953-4.192 10.09-21.655 8.749-22.73.001 0-13.144 9.557-23.503 8.852-22.15-2.265-31.28-21.11-30.509-38.925.7-21.423 7.623-38.538 31.09-39.681 22.315.842 32.551 12.788 34.691 33.32m-55.04 5.663c-.123 14.865 6.755 25.984 19.762 27.21 13.01 1.228 26.12-11.233 25.21-26.382-.911-15.202-6.904-28.01-22.674-27.936-16.96.076-22.21 16.529-22.299 27.11"/>
   </g>
   <path d="m2245.06 462.71c2.879-5.776 4.976-11.701 5.348-18.04.342-2.332-1.075-2.371-1.288-.729-4.076 15.593-25.763 11.37-25.02-3.297.605-11.895 12.419-14.454 18.582-10.565 2.434 1.433 2.296.575.968-.912-9.155-10.211-3.61-23.362 8.761-23.602 13.38.793 16.851 14.87 8.644 23.15-1.021.995-3.284 4.191.123 1.956 8.287-5.888 19.787.443 19.553 9.521-.433 16.739-20.839 17.987-25.2 4.01-.42-1.55-1.629-2.329-1.295.304.605 4.767 1.856 11.953 5.437 18.206z"/>
   <path d="m2145.52 462.71c2.879-5.776 4.976-11.701 5.348-18.04.342-2.332-1.075-2.371-1.288-.729-4.076 15.593-25.763 11.37-25.02-3.297.605-11.895 12.419-14.454 18.582-10.565 2.434 1.433 2.296.575.968-.912-9.155-10.211-3.61-23.362 8.761-23.602 13.38.793 16.851 14.87 8.644 23.15-1.021.995-3.284 4.191.123 1.956 8.287-5.888 19.787.443 19.553 9.521-.433 16.739-20.839 17.987-25.2 4.01-.42-1.55-1.629-2.329-1.295.304.605 4.767 1.856 11.953 5.437 18.206z"/>
   <path d="m2245.06 363.82c2.879-5.776 4.976-11.701 5.348-18.04.342-2.332-1.075-2.371-1.288-.729-4.076 15.593-25.763 11.37-25.02-3.297.605-11.895 12.419-14.454 18.582-10.565 2.434 1.433 2.296.575.968-.912-9.155-10.211-3.61-23.362 8.761-23.602 13.38.793 16.851 14.87 8.644 23.15-1.021.995-3.284 4.191.123 1.956 8.287-5.888 19.787.443 19.553 9.521-.433 16.739-20.839 17.987-25.2 4.01-.42-1.55-1.629-2.329-1.295.304.605 4.767 1.856 11.953 5.437 18.206z"/>
   <path d="m2145.52 363.82c2.879-5.776 4.976-11.701 5.348-18.04.342-2.332-1.075-2.371-1.288-.729-4.076 15.593-25.763 11.37-25.02-3.297.605-11.895 12.419-14.454 18.582-10.565 2.434 1.433 2.296.575.968-.912-9.155-10.211-3.61-23.362 8.761-23.602 13.38.793 16.851 14.87 8.644 23.15-1.021.995-3.284 4.191.123 1.956 8.287-5.888 19.787.443 19.553 9.521-.433 16.739-20.839 17.987-25.2 4.01-.42-1.55-1.629-2.329-1.295.304.605 4.767 1.856 11.953 5.437 18.206z"/>
   <path d="m2259.76 504.17c-2.879 5.775-4.976 11.701-5.348 18.04-.342 2.332 1.075 2.371 1.288.729 4.076-15.593 25.763-11.37 25.02 3.297-.605 11.895-12.419 14.454-18.582 10.564-2.434-1.433-2.296-.575-.968.912 9.155 10.211 3.61 23.362-8.761 23.602-13.38-.793-16.851-14.87-8.644-23.15 1.021-.995 3.284-4.191-.123-1.956-8.287 5.888-19.787-.443-19.553-9.521.433-16.739 20.839-17.987 25.2-4.01.42 1.55 1.629 2.329 1.295-.304-.605-4.767-1.856-11.953-5.437-18.206z"/>
   <path d="m2160.23 504.17c-2.879 5.775-4.976 11.701-5.348 18.04-.342 2.332 1.075 2.371 1.288.729 4.076-15.593 25.763-11.37 25.02 3.297-.605 11.895-12.419 14.454-18.582 10.564-2.434-1.433-2.296-.575-.968.912 9.155 10.211 3.61 23.362-8.761 23.602-13.38-.793-16.851-14.87-8.644-23.15 1.021-.995 3.284-4.191-.123-1.956-8.287 5.888-19.787-.443-19.553-9.521.433-16.739 20.839-17.987 25.2-4.01.42 1.55 1.629 2.329 1.295-.304-.605-4.767-1.856-11.953-5.437-18.206z"/>
   <path d="m2104.16 351.94c1.192-2.445 2.352-4.721 2.984-7.401.419-2.528-.438-1.589-.925.068-.721 2.297-2.723 3.344-4.58 3.369-3.371.046-5.05-2.604-4.948-5.454-.368-2.999 2.671-5.12 4.962-4.957 1.722.123 3.224 1.052 4.133 1.775.596.315 1.234.455.345-.358-1.678-1.833-3.077-2.964-3.046-5.711.029-2.579 2.233-5.268 5.155-5.184 3.651.105 5.312 2.89 5.303 5.481-.001 1.888-.954 3.626-2.411 4.703-.944.766-.679 1.34.398.615 1.035-.892 2.267-1.283 3.545-1.31 3.49-.055 4.855 2.961 4.655 5.764-.187 2.626-2.423 5.328-5.369 5.02-2.631-.301-4.01-2.51-4.805-4.777-.262-.695-.676-.883-.664.153.608 5.057 2.492 8.204 2.505 8.202z"/>
   <path d="m2301.07 513.94c-1.192 2.445-2.352 4.721-2.984 7.401-.419 2.528.438 1.589.925-.068.721-2.297 2.723-3.344 4.58-3.369 3.371-.045 5.05 2.604 4.948 5.454.368 2.999-2.671 5.12-4.962 4.957-1.722-.123-3.224-1.052-4.133-1.775-.596-.315-1.234-.455-.345.358 1.678 1.833 3.077 2.964 3.046 5.711-.029 2.579-2.233 5.268-5.155 5.184-3.651-.105-5.312-2.89-5.303-5.481.001-1.888.954-3.626 2.411-4.703.944-.766.679-1.34-.398-.615-1.035.892-2.267 1.283-3.545 1.31-3.49.055-4.855-2.961-4.655-5.764.187-2.626 2.423-5.328 5.369-5.02 2.631.302 4.01 2.51 4.805 4.777.262.695.676.883.664-.153-.608-5.057-2.492-8.204-2.505-8.202z"/>
  </g>
 </g>
</svg>
