<svg xmlns="http://www.w3.org/2000/svg" viewBox="0 0 744.09 1052.36">
 <g transform="translate(-6890.41 3117.09)">
  <rect rx="10.63" width="223.23" height="311.81" x="7150.84" y="-2746.81" fill="#fff" stroke="#000" stroke-width=".997"/>
  <g transform="matrix(.30106 0 0 .30106 6829.28-2295.28)" fill="#d40000">
   <path d="m1180.25-1309.32c32.952-32.16 54.59-67.22 75.29-100.94 18.15 37.1 44.2 69.56 72.36 100.94-30.14 31.12-53.49 64.39-72.27 99.37-20.818-35.859-42.736-68.33-75.38-99.37"/>
   <path d="m1180.25-980.84c32.952-32.16 54.59-67.22 75.29-100.94 18.15 37.1 44.2 69.56 72.36 100.94-30.14 31.12-53.49 64.39-72.27 99.37-20.818-35.859-42.736-68.33-75.38-99.37"/>
   <path d="m1180.25-653.33c32.952-32.16 54.59-67.22 75.29-100.94 18.15 37.1 44.2 69.56 72.36 100.94-30.14 31.12-53.49 64.39-72.27 99.37-20.818-35.859-42.736-68.33-75.38-99.37"/>
   <path d="m1550.71-1309.32c32.952-32.16 54.59-67.22 75.29-100.94 18.15 37.1 44.2 69.56 72.36 100.94-30.14 31.12-53.49 64.39-72.27 99.37-20.818-35.859-42.736-68.33-75.38-99.37"/>
   <path d="m1550.71-980.84c32.952-32.16 54.59-67.22 75.29-100.94 18.15 37.1 44.2 69.56 72.36 100.94-30.14 31.12-53.49 64.39-72.27 99.37-20.818-35.859-42.736-68.33-75.38-99.37"/>
   <path d="m1550.71-653.33c32.952-32.16 54.59-67.22 75.29-100.94 18.15 37.1 44.2 69.56 72.36 100.94-30.14 31.12-53.49 64.39-72.27 99.37-20.818-35.859-42.736-68.33-75.38-99.37"/>
   <path d="m1722.56-676.62c13.499-13.173 22.364-27.536 30.842-41.35 7.435 15.199 18.1 28.495 29.644 41.35-12.346 12.747-21.914 26.378-29.607 40.708-8.528-14.689-17.506-27.991-30.879-40.708"/>
   <path d="m1095.4-1293.96c13.499-13.173 22.364-27.536 30.842-41.35 7.435 15.199 18.1 28.495 29.644 41.35-12.346 12.747-21.914 26.378-29.607 40.708-8.528-14.689-17.506-27.991-30.879-40.708"/>
   <path d="m1095.47-1380.22c-1.356-9.125-1.335-32.702-.219-39.668 3.418-21.353 11.732-31.12 25.651-34.32 13.514-3.108 32.515.352 36.684 18.209l-11.315.209c-6.111-12.07-21.575-8.843-30.28-3.594-6.953 4.192-10.09 21.656-8.749 22.73-.001 0 13.144-9.557 23.503-8.852 22.15 2.265 31.28 21.11 30.509 38.925-.7 21.423-7.623 38.538-31.09 39.681-22.315-.842-32.551-12.788-34.691-33.32m55.04-5.663c.123-14.865-6.755-25.984-19.762-27.21-13.01-1.228-26.12 11.233-25.21 26.382.911 15.202 6.904 28.01 22.674 27.936 16.96-.076 22.21-16.529 22.299-27.11"/>
   <path d="m1782.2-583.67c1.356 9.125 1.335 32.702.219 39.668-3.418 21.353-11.732 31.12-25.651 34.32-13.514 3.108-32.515-.352-36.684-18.209l11.315-.209c6.111 12.07 21.575 8.843 30.28 3.594 6.953-4.192 10.09-21.655 8.749-22.73.001 0-13.144 9.557-23.503 8.852-22.15-2.265-31.28-21.11-30.509-38.925.7-21.423 7.623-38.538 31.09-39.681 22.315.842 32.551 12.788 34.691 33.32m-55.04 5.663c-.123 14.865 6.755 25.984 19.762 27.21 13.01 1.228 26.12-11.233 25.21-26.382-.911-15.202-6.904-28.01-22.674-27.936-16.96.076-22.21 16.529-22.299 27.11"/>
  </g>
 </g>
</svg>
