<svg xmlns="http://www.w3.org/2000/svg" viewBox="0 0 744.09 1052.36">
 <g transform="translate(-2206.53 198.15)">
  <g transform="translate(-4683.88 2918.94)">
   <rect rx="10.63" width="223.23" height="311.81" x="7150.84" y="-2746.81" fill="#fff" stroke="#000" stroke-width=".997"/>
   <g transform="matrix(.30106 0 0 .30106 6829.28-2295.28)" fill="#d40000">
    <path d="m1095.47-1380.22c-1.356-9.125-1.335-32.702-.219-39.668 3.418-21.353 11.732-31.12 25.651-34.32 13.514-3.108 32.515.352 36.684 18.209l-11.315.209c-6.111-12.07-21.575-8.843-30.28-3.594-6.953 4.192-10.09 21.656-8.749 22.73-.001 0 13.144-9.557 23.503-8.852 22.15 2.265 31.28 21.11 30.509 38.925-.7 21.423-7.623 38.538-31.09 39.681-22.315-.842-32.551-12.788-34.691-33.32m55.04-5.663c.123-14.865-6.755-25.984-19.762-27.21-13.01-1.228-26.12 11.233-25.21 26.382.911 15.202 6.904 28.01 22.674 27.936 16.96-.076 22.21-16.529 22.299-27.11"/>
    <path d="m1782.2-583.67c1.356 9.125 1.335 32.702.219 39.668-3.418 21.353-11.732 31.12-25.651 34.32-13.514 3.108-32.515-.352-36.684-18.209l11.315-.209c6.111 12.07 21.575 8.843 30.28 3.594 6.953-4.192 10.09-21.655 8.749-22.73.001 0-13.144 9.557-23.503 8.852-22.15-2.265-31.28-21.11-30.509-38.925.7-21.423 7.623-38.538 31.09-39.681 22.315.842 32.551 12.788 34.691 33.32m-55.04 5.663c-.123 14.865 6.755 25.984 19.762 27.21 13.01 1.228 26.12-11.233 25.21-26.382-.911-15.202-6.904-28.01-22.674-27.936-16.96.076-22.21 16.529-22.299 27.11"/>
   </g>
  </g>
  <g fill="#d40000">
   <path d="m2475.62 231.5c-1.583-3.472-1.757-9.405 2.971-10.208 3.562-.458 5.01 1.198 5.3 3.742.142.743.562.788.695-.058.204-2.609 2.787-4.133 4.806-3.75 5.527.945 5.204 7.03 3.398 11.156-2.731 5.479-5.601 8.938-8.245 14.452-3.038-5.741-6.507-10.405-8.926-15.333"/>
   <path d="m2510.91 200.49c7.144-.474 10.868 5.627 11.595 10.436.433.764.671.549.837-.042.349-6.174 5.875-11.22 10.993-10.53 8.328.108 13.39 9.375 11.966 17.219-1.738 9.582-6.9 15.351-10.808 21.293-4.421 6.152-10.373 15.04-12.29 19.317 0 0-6.05-9.205-13.917-20.03-5.262-7.239-9.473-15.08-9.865-21.835-.448-7.715 2.719-14.632 11.489-15.828"/>
   <path d="m2622.44 200.49c7.144-.474 10.868 5.627 11.595 10.436.433.764.671.549.837-.042.349-6.174 5.875-11.22 10.993-10.53 8.328.108 13.39 9.375 11.966 17.219-1.738 9.582-6.9 15.351-10.808 21.293-4.421 6.152-10.373 15.04-12.29 19.317 0 0-6.05-9.205-13.917-20.03-5.262-7.239-9.473-15.08-9.865-21.835-.448-7.715 2.719-14.632 11.489-15.828"/>
   <path d="m2622.44 299.38c7.144-.474 10.868 5.627 11.595 10.436.433.764.671.549.837-.042.349-6.174 5.875-11.22 10.993-10.53 8.328.108 13.39 9.375 11.966 17.219-1.738 9.582-6.9 15.351-10.808 21.293-4.421 6.152-10.373 15.04-12.29 19.317 0 0-6.05-9.205-13.917-20.03-5.262-7.239-9.473-15.08-9.865-21.835-.448-7.715 2.719-14.632 11.489-15.828"/>
   <path d="m2510.91 299.38c7.144-.474 10.868 5.627 11.595 10.436.433.764.671.549.837-.042.349-6.174 5.875-11.22 10.993-10.53 8.328.108 13.39 9.375 11.966 17.219-1.738 9.582-6.9 15.351-10.808 21.293-4.421 6.152-10.373 15.04-12.29 19.317 0 0-6.05-9.205-13.917-20.03-5.262-7.239-9.473-15.08-9.865-21.835-.448-7.715 2.719-14.632 11.489-15.828"/>
   <path d="m2510.91 455.47c7.144.474 10.868-5.627 11.595-10.436.433-.764.671-.549.837.042.349 6.174 5.875 11.22 10.993 10.53 8.328-.108 13.39-9.375 11.966-17.219-1.738-9.582-6.9-15.351-10.808-21.293-4.421-6.152-10.373-15.04-12.29-19.317 0 0-6.05 9.205-13.917 20.03-5.262 7.239-9.473 15.08-9.865 21.835-.448 7.715 2.719 14.632 11.489 15.828"/>
   <path d="m2622.44 455.47c7.144.474 10.868-5.627 11.595-10.436.433-.764.671-.549.837.042.349 6.174 5.875 11.22 10.993 10.53 8.328-.108 13.39-9.375 11.966-17.219-1.738-9.582-6.9-15.351-10.808-21.293-4.421-6.152-10.373-15.04-12.29-19.317 0 0-6.05 9.205-13.917 20.03-5.262 7.239-9.473 15.08-9.865 21.835-.448 7.715 2.719 14.632 11.489 15.828"/>
   <path d="m2664.43 422.36c-1.583 3.472-1.757 9.405 2.971 10.208 3.562.458 5.01-1.198 5.3-3.742.142-.743.562-.788.695.058.204 2.609 2.787 4.133 4.806 3.75 5.527-.945 5.204-7.03 3.398-11.156-2.731-5.479-5.601-8.938-8.245-14.452-3.038 5.741-6.507 10.405-8.926 15.333"/>
  </g>
 </g>
</svg>
