<svg xmlns="http://www.w3.org/2000/svg" viewBox="0 0 744.09 1052.36">
 <g transform="translate(-1830.45 92.14)">
  <g transform="translate(-5059.96 3024.95)">
   <rect rx="10.63" width="223.23" height="311.81" x="7150.84" y="-2746.81" fill="#fff" stroke="#000" stroke-width=".997"/>
   <g transform="matrix(.30106 0 0 .30106 6829.28-2295.28)">
    <path d="m1095.47-1380.22c-1.356-9.125-1.335-32.702-.219-39.668 3.418-21.353 11.732-31.12 25.651-34.32 13.514-3.108 32.515.352 36.684 18.209l-11.315.209c-6.111-12.07-21.575-8.843-30.28-3.594-6.953 4.192-10.09 21.656-8.749 22.73-.001 0 13.144-9.557 23.503-8.852 22.15 2.265 31.28 21.11 30.509 38.925-.7 21.423-7.623 38.538-31.09 39.681-22.315-.842-32.551-12.788-34.691-33.32m55.04-5.663c.123-14.865-6.755-25.984-19.762-27.21-13.01-1.228-26.12 11.233-25.21 26.382.911 15.202 6.904 28.01 22.674 27.936 16.96-.076 22.21-16.529 22.299-27.11"/>
    <path d="m1782.2-583.67c1.356 9.125 1.335 32.702.219 39.668-3.418 21.353-11.732 31.12-25.651 34.32-13.514 3.108-32.515-.352-36.684-18.209l11.315-.209c6.111 12.07 21.575 8.843 30.28 3.594 6.953-4.192 10.09-21.655 8.749-22.73.001 0-13.144 9.557-23.503 8.852-22.15-2.265-31.28-21.11-30.509-38.925.7-21.423 7.623-38.538 31.09-39.681 22.315.842 32.551 12.788 34.691 33.32m-55.04 5.663c-.123 14.865 6.755 25.984 19.762 27.21 13.01 1.228 26.12-11.233 25.21-26.382-.911-15.202-6.904-28.01-22.674-27.936-16.96.076-22.21 16.529-22.299 27.11"/>
   </g>
  </g>
  <path d="m2144.73 346.7c.015-2.026-1.587-2.064-1.569-.586-.134 7.429-6.416 11.09-10.981 10.219-7.04-1.338-9.282-8.322-9.215-12.435.207-12.696 12.988-22.06 24.52-38.33 8.45 14.691 22.397 26.23 23.22 37.586 1.098 15.1-18.01 20.73-20.737 3.133-.176-1.243-1.64-1.801-1.526-.065.414 4.823-.175 6.831 5.266 18.719h-14.222c3.15-5.555 5.03-12.375 5.24-18.236"/>
  <path d="m2256.27 346.7c.015-2.026-1.587-2.064-1.569-.586-.134 7.429-6.416 11.09-10.981 10.219-7.04-1.338-9.282-8.322-9.215-12.435.207-12.696 12.988-22.06 24.52-38.33 8.45 14.691 22.397 26.23 23.22 37.586 1.098 15.1-18.01 20.73-20.737 3.133-.176-1.243-1.64-1.801-1.526-.065.414 4.823-.175 6.831 5.266 18.719h-14.222c3.15-5.555 5.03-12.375 5.24-18.236"/>
  <path d="m2144.74 422.72c.015 2.026-1.587 2.064-1.569.586-.134-7.429-6.416-11.09-10.981-10.219-7.04 1.338-9.282 8.322-9.215 12.435.207 12.696 12.988 22.06 24.52 38.33 8.45-14.691 22.397-26.23 23.22-37.586 1.098-15.1-18.01-20.73-20.737-3.133-.176 1.243-1.64 1.801-1.526.065.414-4.823-.175-6.831 5.266-18.719h-14.222c3.15 5.555 5.03 12.375 5.24 18.236"/>
  <path d="m2256.28 422.72c.015 2.026-1.587 2.064-1.569.586-.134-7.429-6.416-11.09-10.981-10.219-7.04 1.338-9.282 8.322-9.215 12.435.207 12.696 12.988 22.06 24.52 38.33 8.45-14.691 22.397-26.23 23.22-37.586 1.098-15.1-18.01-20.73-20.737-3.133-.176 1.243-1.64 1.801-1.526.065.414-4.823-.175-6.831 5.266-18.719h-14.222c3.15 5.555 5.03 12.375 5.24 18.236"/>
  <path d="m2256.28 521.32c.015 2.026-1.587 2.064-1.569.586-.134-7.429-6.416-11.09-10.981-10.219-7.04 1.338-9.282 8.322-9.215 12.435.207 12.696 12.988 22.06 24.52 38.33 8.45-14.691 22.397-26.23 23.22-37.586 1.098-15.1-18.01-20.73-20.737-3.133-.176 1.243-1.64 1.801-1.526.065.414-4.823-.175-6.831 5.266-18.719h-14.222c3.15 5.555 5.03 12.375 5.24 18.236"/>
  <path d="m2144.74 521.32c.015 2.026-1.587 2.064-1.569.586-.134-7.429-6.416-11.09-10.981-10.219-7.04 1.338-9.282 8.322-9.215 12.435.207 12.696 12.988 22.06 24.52 38.33 8.45-14.691 22.397-26.23 23.22-37.586 1.098-15.1-18.01-20.73-20.737-3.133-.176 1.243-1.64 1.801-1.526.065.414-4.823-.175-6.831 5.266-18.719h-14.222c3.15 5.555 5.03 12.375 5.24 18.236"/>
  <path d="m2107.78 346.57c.001-.872-.895-.465-1.018-.19-1.163 1.986-2.865 2.448-4.548 1.732-1.667-.709-2.604-2.28-2.454-4.522.31-3.438 3.035-7.2 4.355-9.326 1.252-1.93 2.628-4.222 4.077-7.154 1.697 3.363 2.559 4.321 4.405 7.392 1.626 2.704 3.892 5.353 4.068 8.622 0 2.485-1.046 4.832-3.399 5.259-1.331.242-2.579-.442-3.504-2.037-.282-.407-.849-.195-.839.362.165 2.093.955 3.983 2.829 6.212h-6.887c1.41-1.576 2.849-3.704 2.915-6.349"/>
  <path d="m2296.6 519.32c.001.872-.895.465-1.018.19-1.163-1.986-2.865-2.448-4.548-1.732-1.667.709-2.604 2.28-2.454 4.522.31 3.438 3.035 7.2 4.355 9.326 1.252 1.93 2.628 4.222 4.077 7.154 1.697-3.363 2.559-4.321 4.405-7.391 1.626-2.704 3.892-5.353 4.068-8.622 0-2.485-1.046-4.832-3.399-5.259-1.331-.242-2.579.442-3.504 2.037-.282.407-.849.195-.839-.362.165-2.093.955-3.983 2.829-6.212h-6.887c1.41 1.576 2.849 3.704 2.915 6.349"/>
 </g>
</svg>
