<svg xmlns="http://www.w3.org/2000/svg" viewBox="0 0 744.09 1052.36">
 <g transform="translate(-5774.27 2805.28)">
  <rect rx="10.63" width="223.23" height="311.81" x="6034.7" y="-2435" fill="#fff" stroke="#000" stroke-width=".99" stroke-miterlimit="3.8"/>
  <g transform="matrix(.30106 0 0 .30106 5449.58-1980.88)" fill="#d40000">
   <path d="m2053.16-1313.11c32.952-32.16 54.59-67.22 75.29-100.94 18.15 37.1 44.2 69.56 72.36 100.94-30.14 31.12-53.49 64.39-72.27 99.37-20.818-35.859-42.735-68.33-75.38-99.37"/>
   <path d="m2053.16-980.13c32.952-32.16 54.59-67.22 75.29-100.94 18.15 37.1 44.2 69.56 72.36 100.94-30.14 31.12-53.49 64.39-72.27 99.37-20.818-35.859-42.735-68.33-75.38-99.37"/>
   <path d="m2053.16-652.63c32.952-32.16 54.59-67.22 75.29-100.94 18.15 37.1 44.2 69.56 72.36 100.94-30.14 31.12-53.49 64.39-72.27 99.37-20.818-35.859-42.735-68.33-75.38-99.37"/>
   <path d="m2240.61-1146.62c32.952-32.16 54.59-67.22 75.29-100.94 18.15 37.1 44.2 69.56 72.36 100.94-30.14 31.12-53.49 64.39-72.27 99.37-20.818-35.859-42.735-68.33-75.38-99.37"/>
   <path d="m2423.62-1313.11c32.952-32.16 54.59-67.22 75.29-100.94 18.15 37.1 44.2 69.56 72.36 100.94-30.14 31.12-53.49 64.39-72.27 99.37-20.818-35.859-42.736-68.33-75.38-99.37"/>
   <path d="m2423.62-980.13c32.952-32.16 54.59-67.22 75.29-100.94 18.15 37.1 44.2 69.56 72.36 100.94-30.14 31.12-53.49 64.39-72.27 99.37-20.818-35.859-42.736-68.33-75.38-99.37"/>
   <path d="m2423.62-652.63c32.952-32.16 54.59-67.22 75.29-100.94 18.15 37.1 44.2 69.56 72.36 100.94-30.14 31.12-53.49 64.39-72.27 99.37-20.818-35.859-42.736-68.33-75.38-99.37"/>
   <path d="m2598.56-676.62c13.499-13.173 22.364-27.536 30.842-41.35 7.435 15.199 18.1 28.495 29.644 41.35-12.346 12.747-21.914 26.378-29.607 40.708-8.528-14.689-17.506-27.991-30.879-40.708"/>
   <path d="m1971.4-1293.96c13.499-13.173 22.364-27.536 30.842-41.35 7.435 15.199 18.1 28.495 29.644 41.35-12.346 12.747-21.914 26.378-29.607 40.708-8.528-14.689-17.506-27.991-30.879-40.708"/>
   <path d="m1984.51-1353.9c7.082-36.835 14.645-64.47 34.478-94.49h-40.31v12.921h-10.714v-24.35h58.972l7.269 11.429c-21.06 22.576-40.35 95.56-36.934 94.49z"/>
   <path d="m2643.99-627.17c-7.082 36.836-14.645 64.47-34.479 94.49h40.31v-12.922h10.714v24.35h-58.972l-7.269-11.429c21.06-22.577 40.35-95.56 36.934-94.49z"/>
  </g>
 </g>
</svg>
