<svg xmlns="http://www.w3.org/2000/svg" viewBox="0 0 744.09 1052.36">
 <g transform="translate(-714.31-219.68)">
  <g transform="translate(-5059.96 3024.95)">
   <rect rx="10.63" width="223.23" height="311.81" x="6034.7" y="-2435" fill="#fff" stroke="#000" stroke-width=".99" stroke-miterlimit="3.8"/>
   <g transform="matrix(.30106 0 0 .30106 5449.58-1980.88)">
    <path d="m1984.51-1353.9c7.082-36.835 14.645-64.47 34.478-94.49h-40.31v12.921h-10.714v-24.35h58.972l7.269 11.429c-21.06 22.576-40.35 95.56-36.934 94.49z"/>
    <path d="m2643.99-627.17c-7.082 36.836-14.645 64.47-34.479 94.49h40.31v-12.922h10.714v24.35h-58.972l-7.269-11.429c21.06-22.577 40.35-95.56 36.934-94.49z"/>
   </g>
  </g>
  <path d="m1027.84 659.96c.015-2.026-1.587-2.064-1.569-.586-.134 7.429-6.417 11.09-10.981 10.219-7.04-1.338-9.282-8.322-9.215-12.435.207-12.696 12.988-22.06 24.52-38.33 8.45 14.691 22.397 26.23 23.22 37.586 1.098 15.1-18.01 20.73-20.737 3.133-.176-1.243-1.64-1.801-1.526-.065.415 4.823-.175 6.831 5.266 18.719h-14.222c3.15-5.555 5.03-12.375 5.24-18.236"/>
  <path d="m1139.37 659.96c.015-2.026-1.587-2.064-1.569-.586-.134 7.429-6.417 11.09-10.981 10.219-7.04-1.338-9.282-8.322-9.215-12.435.207-12.696 12.988-22.06 24.52-38.33 8.45 14.691 22.397 26.23 23.22 37.586 1.098 15.1-18.01 20.73-20.737 3.133-.176-1.243-1.64-1.801-1.526-.065.415 4.823-.175 6.831 5.266 18.719h-14.222c3.15-5.555 5.03-12.375 5.24-18.236"/>
  <path d="m1084.27 710.08c.015-2.026-1.587-2.064-1.569-.586-.134 7.429-6.417 11.09-10.981 10.219-7.04-1.338-9.282-8.322-9.215-12.435.207-12.696 12.988-22.06 24.52-38.33 8.45 14.691 22.397 26.23 23.22 37.586 1.098 15.1-18.01 20.73-20.737 3.133-.176-1.243-1.64-1.801-1.526-.065.415 4.823-.175 6.831 5.266 18.719h-14.222c3.15-5.555 5.03-12.375 5.24-18.236"/>
  <path d="m1139.37 760.2c.015-2.026-1.587-2.064-1.569-.586-.134 7.429-6.417 11.09-10.981 10.219-7.04-1.338-9.282-8.322-9.215-12.435.207-12.696 12.988-22.06 24.52-38.33 8.45 14.691 22.397 26.23 23.22 37.586 1.098 15.1-18.01 20.73-20.737 3.133-.176-1.243-1.64-1.801-1.526-.065.415 4.823-.175 6.831 5.266 18.719h-14.222c3.15-5.555 5.03-12.375 5.24-18.236"/>
  <path d="m1027.84 760.2c.015-2.026-1.587-2.064-1.569-.586-.134 7.429-6.417 11.09-10.981 10.219-7.04-1.338-9.282-8.322-9.215-12.435.207-12.696 12.988-22.06 24.52-38.33 8.45 14.691 22.397 26.23 23.22 37.586 1.098 15.1-18.01 20.73-20.737 3.133-.176-1.243-1.64-1.801-1.526-.065.415 4.823-.175 6.831 5.266 18.719h-14.222c3.15-5.555 5.03-12.375 5.24-18.236"/>
  <path d="m1139.38 835.93c.015 2.026-1.587 2.064-1.569.586-.134-7.429-6.417-11.09-10.981-10.219-7.04 1.338-9.282 8.322-9.215 12.435.207 12.696 12.988 22.06 24.52 38.33 8.45-14.691 22.397-26.23 23.22-37.586 1.098-15.1-18.01-20.73-20.737-3.133-.176 1.243-1.64 1.801-1.526.065.415-4.823-.175-6.831 5.266-18.719h-14.222c3.15 5.555 5.03 12.375 5.24 18.236"/>
  <path d="m1027.85 835.93c.015 2.026-1.587 2.064-1.569.586-.134-7.429-6.417-11.09-10.981-10.219-7.04 1.338-9.282 8.322-9.215 12.435.207 12.696 12.988 22.06 24.52 38.33 8.45-14.691 22.397-26.23 23.22-37.586 1.098-15.1-18.01-20.73-20.737-3.133-.176 1.243-1.64 1.801-1.526.065.415-4.823-.175-6.831 5.266-18.719h-14.222c3.15 5.555 5.03 12.375 5.24 18.236"/>
  <path d="m991.82 660.97c.001-.872-.895-.465-1.018-.19-1.163 1.986-2.865 2.448-4.548 1.732-1.667-.709-2.604-2.28-2.454-4.522.31-3.438 3.035-7.2 4.355-9.326 1.252-1.93 2.628-4.222 4.077-7.154 1.697 3.363 2.559 4.321 4.405 7.391 1.626 2.704 3.892 5.353 4.067 8.622 0 2.485-1.046 4.832-3.399 5.259-1.331.242-2.579-.442-3.504-2.037-.282-.407-.849-.195-.839.362.165 2.093.955 3.983 2.83 6.212h-6.887c1.41-1.576 2.849-3.704 2.915-6.349"/>
  <path d="m1180.63 833.71c.001.872-.895.465-1.018.19-1.163-1.986-2.865-2.448-4.548-1.732-1.667.709-2.604 2.28-2.454 4.522.31 3.438 3.035 7.2 4.355 9.326 1.252 1.93 2.628 4.222 4.077 7.154 1.697-3.363 2.559-4.321 4.405-7.391 1.626-2.704 3.892-5.353 4.068-8.622 0-2.485-1.046-4.832-3.399-5.259-1.331-.242-2.579.442-3.504 2.037-.282.407-.849.195-.839-.362.165-2.093.955-3.983 2.829-6.212h-6.887c1.41 1.576 2.849 3.704 2.915 6.349"/>
 </g>
</svg>
