<svg xmlns="http://www.w3.org/2000/svg" viewBox="0 0 744.09 1052.36">
 <g transform="translate(380.17-760.44)">
  <rect y="1130.72" x="-119.74" height="311.81" width="223.23" rx="10.63" fill="#fff" stroke="#000" stroke-width=".997"/>
  <g transform="translate(-.752)">
   <g transform="matrix(.30106 0 0 .30106-1007.57 1585.79)">
    <path d="m2971.74-1386.81c.532-14.533 5.882-19.991 16.421-27.6-8.406-5.963-11.95-14.736-11.234-22.21 1.732-18.09 15.976-27.14 31.505-26.75 15.529.394 28.913 12.501 29.957 25.649.908 11.437-2.559 16.948-10.82 22.969 9.808 8.11 16.08 13.452 15.84 27.769-.238 14.316-12.641 31.355-34.26 31.878-21.62.523-37.94-17.17-37.408-31.703m60.36.048c.927-13.16-10.922-22.04-24.292-22.18-13.03-.134-24.683 10.784-24.685 22.599 0 12.692 15.16 19.586 24.948 19.623 11.899.044 23.23-8.709 24.03-20.04m-4.278-47.08c.259-11.09-10.154-19.03-20.888-18.711-9.551.284-19.667 7.443-19.672 16.71-.001 11.592 11.5 17.38 21.314 17.598 8.903.198 19.05-7.224 19.246-15.597"/>
    <path d="m3667.75-600.56c-.532 14.533-5.882 19.991-16.421 27.6 8.406 5.963 11.95 14.736 11.234 22.21-1.732 18.09-15.976 27.14-31.505 26.75-15.529-.394-28.913-12.501-29.957-25.649-.908-11.437 2.559-16.948 10.82-22.969-9.808-8.11-16.08-13.452-15.84-27.769.238-14.317 12.641-31.355 34.26-31.878 21.62-.523 37.94 17.17 37.408 31.703m-60.36-.048c-.927 13.16 10.922 22.04 24.292 22.18 13.03.135 24.683-10.784 24.685-22.599 0-12.692-15.16-19.586-24.948-19.623-11.899-.044-23.23 8.71-24.03 20.04m4.278 47.08c-.259 11.09 10.154 19.03 20.888 18.711 9.551-.284 19.667-7.443 19.672-16.71.001-11.592-11.5-17.38-21.314-17.598-8.903-.198-19.05 7.223-19.246 15.597"/>
   </g>
   <g transform="translate(-1317.71 540.77)">
    <path d="m1354.76 674.91c2.879-5.775 4.976-11.701 5.348-18.04.342-2.332-1.075-2.371-1.288-.729-4.076 15.593-25.763 11.37-25.02-3.297.605-11.895 12.419-14.454 18.582-10.564 2.434 1.433 2.296.575.968-.912-9.155-10.211-3.61-23.362 8.761-23.602 13.38.793 16.851 14.87 8.644 23.15-1.021.995-3.284 4.191.123 1.956 8.287-5.888 19.787.443 19.553 9.521-.433 16.739-20.839 17.987-25.2 4.01-.42-1.55-1.629-2.329-1.295.304.605 4.767 1.857 11.953 5.437 18.206z"/>
    <path d="m1354.76 775.15c2.879-5.775 4.976-11.701 5.348-18.04.342-2.332-1.075-2.371-1.288-.729-4.076 15.593-25.763 11.37-25.02-3.297.605-11.895 12.419-14.454 18.582-10.564 2.434 1.433 2.296.575.968-.912-9.155-10.211-3.61-23.362 8.761-23.602 13.38.793 16.851 14.87 8.644 23.15-1.021.995-3.284 4.191.123 1.956 8.287-5.888 19.787.443 19.553 9.521-.433 16.739-20.839 17.987-25.2 4.01-.42-1.55-1.629-2.329-1.295.304.605 4.767 1.857 11.953 5.437 18.206z"/>
    <path d="m1251.23 775.15c2.879-5.775 4.976-11.701 5.348-18.04.342-2.332-1.075-2.371-1.288-.729-4.076 15.593-25.763 11.37-25.02-3.297.605-11.895 12.419-14.454 18.582-10.564 2.434 1.433 2.296.575.968-.912-9.155-10.211-3.61-23.362 8.761-23.602 13.38.793 16.851 14.87 8.644 23.15-1.021.995-3.284 4.191.123 1.956 8.287-5.888 19.787.443 19.553 9.521-.433 16.739-20.839 17.987-25.2 4.01-.42-1.55-1.629-2.329-1.295.304.605 4.767 1.857 11.953 5.437 18.206z"/>
    <path d="m1301.42 725.03c2.879-5.775 4.976-11.701 5.348-18.04.342-2.332-1.075-2.371-1.288-.729-4.076 15.593-25.763 11.37-25.02-3.297.605-11.895 12.419-14.454 18.582-10.564 2.434 1.433 2.296.575.968-.912-9.155-10.211-3.61-23.362 8.761-23.602 13.38.793 16.851 14.87 8.644 23.15-1.021.995-3.284 4.191.123 1.956 8.287-5.888 19.787.443 19.553 9.521-.433 16.739-20.839 17.987-25.2 4.01-.42-1.55-1.629-2.329-1.295.304.605 4.767 1.857 11.953 5.437 18.206z"/>
    <path d="m1251.23 674.91c2.879-5.775 4.976-11.701 5.348-18.04.342-2.332-1.075-2.371-1.288-.729-4.076 15.593-25.763 11.37-25.02-3.297.605-11.895 12.419-14.454 18.582-10.564 2.434 1.433 2.296.575.968-.912-9.155-10.211-3.61-23.362 8.761-23.602 13.38.793 16.851 14.87 8.644 23.15-1.021.995-3.284 4.191.123 1.956 8.287-5.888 19.787.443 19.553 9.521-.433 16.739-20.839 17.987-25.2 4.01-.42-1.55-1.629-2.329-1.295.304.605 4.767 1.857 11.953 5.437 18.206z"/>
    <path d="m1369.47 816.61c-2.879 5.775-4.976 11.701-5.348 18.04-.342 2.332 1.075 2.371 1.288.729 4.076-15.593 25.763-11.37 25.02 3.297-.605 11.895-12.419 14.454-18.582 10.564-2.434-1.433-2.296-.575-.968.912 9.155 10.211 3.61 23.362-8.761 23.602-13.38-.793-16.851-14.87-8.644-23.15 1.021-.995 3.284-4.191-.123-1.956-8.287 5.888-19.787-.443-19.553-9.521.433-16.739 20.839-17.987 25.2-4.01.42 1.55 1.629 2.329 1.295-.304-.605-4.767-1.857-11.953-5.437-18.206z"/>
    <path d="m1316.12 767.31c-2.879 5.775-4.976 11.701-5.348 18.04-.342 2.332 1.075 2.371 1.288.729 4.076-15.593 25.763-11.37 25.02 3.297-.605 11.895-12.419 14.454-18.582 10.564-2.434-1.433-2.296-.575-.968.912 9.155 10.211 3.61 23.362-8.761 23.602-13.38-.793-16.851-14.87-8.644-23.15 1.021-.995 3.284-4.191-.123-1.956-8.287 5.888-19.787-.443-19.553-9.521.433-16.739 20.839-17.987 25.2-4.01.42 1.55 1.629 2.329 1.295-.304-.605-4.767-1.857-11.953-5.437-18.206z"/>
    <path d="m1265.93 816.61c-2.879 5.775-4.976 11.701-5.348 18.04-.342 2.332 1.075 2.371 1.288.729 4.076-15.593 25.763-11.37 25.02 3.297-.605 11.895-12.419 14.454-18.582 10.564-2.434-1.433-2.296-.575-.968.912 9.155 10.211 3.61 23.362-8.761 23.602-13.38-.793-16.851-14.87-8.644-23.15 1.021-.995 3.284-4.191-.123-1.956-8.287 5.888-19.787-.443-19.553-9.521.433-16.739 20.839-17.987 25.2-4.01.42 1.55 1.629 2.329 1.295-.304-.605-4.767-1.857-11.953-5.437-18.206z"/>
    <path d="m1212.18 667.29c1.192-2.445 2.352-4.721 2.984-7.401.419-2.528-.438-1.589-.925.068-.721 2.297-2.723 3.344-4.58 3.369-3.371.045-5.05-2.604-4.948-5.454-.368-2.999 2.671-5.12 4.962-4.957 1.722.123 3.224 1.052 4.133 1.775.596.315 1.234.455.345-.358-1.678-1.833-3.077-2.964-3.046-5.711.029-2.579 2.234-5.268 5.155-5.184 3.651.105 5.312 2.89 5.303 5.481-.001 1.888-.954 3.626-2.411 4.703-.944.766-.679 1.34.398.615 1.035-.892 2.267-1.283 3.545-1.31 3.491-.055 4.855 2.961 4.655 5.764-.187 2.626-2.423 5.328-5.369 5.02-2.631-.302-4.01-2.51-4.805-4.777-.262-.695-.676-.883-.665.153.608 5.057 2.492 8.204 2.505 8.202z"/>
   </g>
   <path d="m90.78 1369.11c-1.192 2.445-2.352 4.721-2.984 7.401-.419 2.527.438 1.589.925-.068.721-2.297 2.723-3.344 4.58-3.369 3.371-.045 5.05 2.604 4.948 5.454.368 2.999-2.671 5.12-4.962 4.957-1.722-.123-3.224-1.052-4.133-1.775-.596-.315-1.234-.455-.345.359 1.678 1.833 3.077 2.964 3.046 5.711-.029 2.579-2.234 5.268-5.155 5.184-3.651-.105-5.312-2.89-5.303-5.481.001-1.888.954-3.626 2.411-4.703.944-.766.679-1.34-.398-.615-1.035.892-2.267 1.283-3.545 1.31-3.49.055-4.855-2.961-4.655-5.764.187-2.626 2.423-5.328 5.369-5.02 2.631.302 4.01 2.51 4.805 4.777.262.695.676.883.665-.153-.608-5.057-2.492-8.204-2.505-8.202z"/>
  </g>
 </g>
</svg>
