<svg xmlns="http://www.w3.org/2000/svg" viewBox="0 0 744.09 1052.36">
 <g transform="translate(-5997.5 2805.28)">
  <rect rx="10.63" width="223.23" height="311.81" x="6257.93" y="-2435" fill="#fff" stroke="#000" stroke-width=".997"/>
  <g transform="matrix(.30106 0 0 .30106 5370.09-1979.93)" fill="#d40000">
   <path d="m3056.57-1323.48c32.952-32.16 54.59-67.22 75.29-100.94 18.15 37.1 44.2 69.56 72.36 100.94-30.14 31.12-53.49 64.39-72.27 99.37-20.818-35.859-42.735-68.33-75.38-99.37"/>
   <path d="m3056.57-990.49c32.952-32.16 54.59-67.22 75.29-100.94 18.15 37.1 44.2 69.56 72.36 100.94-30.14 31.12-53.49 64.39-72.27 99.37-20.818-35.859-42.735-68.33-75.38-99.37"/>
   <path d="m3056.57-662.99c32.952-32.16 54.59-67.22 75.29-100.94 18.15 37.1 44.2 69.56 72.36 100.94-30.14 31.12-53.49 64.39-72.27 99.37-20.818-35.859-42.735-68.33-75.38-99.37"/>
   <path d="m3243.19-1156.99c32.952-32.16 54.59-67.22 75.29-100.94 18.15 37.1 44.2 69.56 72.36 100.94-30.14 31.12-53.49 64.39-72.27 99.37-20.818-35.859-42.736-68.33-75.38-99.37"/>
   <path d="m3427.04-1323.48c32.952-32.16 54.59-67.22 75.29-100.94 18.15 37.1 44.2 69.56 72.36 100.94-30.14 31.12-53.49 64.39-72.27 99.37-20.818-35.859-42.735-68.33-75.38-99.37"/>
   <path d="m3427.04-990.49c32.952-32.16 54.59-67.22 75.29-100.94 18.15 37.1 44.2 69.56 72.36 100.94-30.14 31.12-53.49 64.39-72.27 99.37-20.818-35.859-42.735-68.33-75.38-99.37"/>
   <path d="m3427.04-662.99c32.952-32.16 54.59-67.22 75.29-100.94 18.15 37.1 44.2 69.56 72.36 100.94-30.14 31.12-53.49 64.39-72.27 99.37-20.818-35.859-42.735-68.33-75.38-99.37"/>
   <path d="m3243.19-826.74c32.952-32.16 54.59-67.22 75.29-100.94 18.15 37.1 44.2 69.56 72.36 100.94-30.14 31.12-53.49 64.39-72.27 99.37-20.818-35.859-42.736-68.33-75.38-99.37"/>
   <path d="m3606.56-676.62c13.499-13.173 22.364-27.536 30.842-41.35 7.435 15.199 18.1 28.495 29.644 41.35-12.346 12.747-21.914 26.378-29.607 40.708-8.528-14.689-17.506-27.991-30.879-40.708"/>
   <path d="m2979.4-1293.96c13.499-13.173 22.364-27.536 30.842-41.35 7.435 15.199 18.1 28.495 29.644 41.35-12.346 12.747-21.914 26.378-29.607 40.708-8.528-14.689-17.506-27.991-30.879-40.708"/>
   <path d="m2971.74-1386.81c.532-14.533 5.882-19.991 16.421-27.6-8.406-5.963-11.95-14.736-11.234-22.21 1.732-18.09 15.976-27.14 31.505-26.75 15.529.394 28.913 12.501 29.957 25.649.908 11.437-2.559 16.948-10.82 22.969 9.808 8.11 16.08 13.452 15.84 27.769-.238 14.316-12.641 31.355-34.26 31.878-21.62.523-37.94-17.17-37.408-31.703m60.36.048c.927-13.16-10.922-22.04-24.292-22.18-13.03-.134-24.683 10.784-24.685 22.599 0 12.692 15.16 19.586 24.948 19.623 11.899.044 23.23-8.709 24.03-20.04m-4.278-47.08c.259-11.09-10.154-19.03-20.888-18.711-9.551.284-19.667 7.443-19.672 16.71-.001 11.592 11.5 17.38 21.314 17.598 8.903.198 19.05-7.224 19.246-15.597"/>
   <path d="m3667.75-600.56c-.532 14.533-5.882 19.991-16.421 27.6 8.406 5.963 11.95 14.736 11.234 22.21-1.732 18.09-15.976 27.14-31.505 26.75-15.529-.394-28.913-12.501-29.957-25.649-.908-11.437 2.559-16.948 10.82-22.969-9.808-8.11-16.08-13.452-15.84-27.769.238-14.317 12.641-31.355 34.26-31.878 21.62-.523 37.94 17.17 37.408 31.703m-60.36-.048c-.927 13.16 10.922 22.04 24.292 22.18 13.03.135 24.683-10.784 24.685-22.599 0-12.692-15.16-19.586-24.948-19.623-11.899-.044-23.23 8.71-24.03 20.04m4.278 47.08c-.259 11.09 10.154 19.03 20.888 18.711 9.551-.284 19.667-7.443 19.672-16.71.001-11.592-11.5-17.38-21.314-17.598-8.903-.198-19.05 7.223-19.246 15.597"/>
  </g>
 </g>
</svg>
