<svg xmlns="http://www.w3.org/2000/svg" viewBox="0 0 744.09 1052.36">
 <g transform="translate(-1313.62-113.66)">
  <g transform="translate(-4683.88 2918.94)">
   <rect rx="10.63" width="223.23" height="311.81" x="6257.93" y="-2435" fill="#fff" stroke="#000" stroke-width=".997"/>
   <g transform="matrix(.30106 0 0 .30106 5370.09-1979.93)" fill="#d40000">
    <path d="m2971.74-1386.81c.532-14.533 5.882-19.991 16.421-27.6-8.406-5.963-11.95-14.736-11.234-22.21 1.732-18.09 15.976-27.14 31.505-26.75 15.529.394 28.913 12.501 29.957 25.649.908 11.437-2.559 16.948-10.82 22.969 9.808 8.11 16.08 13.452 15.84 27.769-.238 14.316-12.641 31.355-34.26 31.878-21.62.523-37.94-17.17-37.408-31.703m60.36.048c.927-13.16-10.922-22.04-24.292-22.18-13.03-.134-24.683 10.784-24.685 22.599 0 12.692 15.16 19.586 24.948 19.623 11.899.044 23.23-8.709 24.03-20.04m-4.278-47.08c.259-11.09-10.154-19.03-20.888-18.711-9.551.284-19.667 7.443-19.672 16.71-.001 11.592 11.5 17.38 21.314 17.598 8.903.198 19.05-7.224 19.246-15.597"/>
    <path d="m3667.75-600.56c-.532 14.533-5.882 19.991-16.421 27.6 8.406 5.963 11.95 14.736 11.234 22.21-1.732 18.09-15.976 27.14-31.505 26.75-15.529-.394-28.913-12.501-29.957-25.649-.908-11.437 2.559-16.948 10.82-22.969-9.808-8.11-16.08-13.452-15.84-27.769.238-14.317 12.641-31.355 34.26-31.878 21.62-.523 37.94 17.17 37.408 31.703m-60.36-.048c-.927 13.16 10.922 22.04 24.292 22.18 13.03.135 24.683-10.784 24.685-22.599 0-12.692-15.16-19.586-24.948-19.623-11.899-.044-23.23 8.71-24.03 20.04m4.278 47.08c-.259 11.09 10.154 19.03 20.888 18.711 9.551-.284 19.667-7.443 19.672-16.71.001-11.592-11.5-17.38-21.314-17.598-8.903-.198-19.05 7.223-19.246 15.597"/>
   </g>
  </g>
  <g fill="#d40000">
   <path d="m1583.64 546.85c-1.583-3.472-1.757-9.405 2.971-10.208 3.562-.458 5.01 1.198 5.3 3.742.142.743.562.788.695-.058.204-2.609 2.787-4.133 4.806-3.75 5.527.945 5.204 7.03 3.399 11.156-2.731 5.479-5.601 8.938-8.245 14.452-3.038-5.741-6.507-10.405-8.926-15.333"/>
   <path d="m1618.61 511.57c7.144-.474 10.868 5.627 11.595 10.436.433.764.671.549.837-.042.349-6.174 5.875-11.22 10.993-10.53 8.328.108 13.389 9.375 11.966 17.219-1.738 9.582-6.9 15.351-10.808 21.293-4.421 6.152-10.373 15.04-12.29 19.317 0 0-6.05-9.205-13.917-20.03-5.262-7.239-9.473-15.08-9.865-21.835-.448-7.715 2.719-14.632 11.489-15.828"/>
   <path d="m1728.15 511.57c7.144-.474 10.868 5.627 11.595 10.436.433.764.671.549.837-.042.349-6.174 5.875-11.22 10.993-10.53 8.328.108 13.389 9.375 11.966 17.219-1.738 9.582-6.9 15.351-10.808 21.293-4.421 6.152-10.373 15.04-12.29 19.317 0 0-6.05-9.205-13.917-20.03-5.262-7.239-9.473-15.08-9.865-21.835-.448-7.715 2.719-14.632 11.489-15.828"/>
   <path d="m1672.8 561.7c7.144-.474 10.868 5.627 11.595 10.436.433.764.671.549.837-.042.349-6.174 5.875-11.22 10.993-10.53 8.328.108 13.389 9.375 11.966 17.219-1.738 9.582-6.9 15.351-10.808 21.293-4.421 6.152-10.373 15.04-12.29 19.317 0 0-6.05-9.205-13.917-20.03-5.262-7.239-9.473-15.08-9.865-21.835-.448-7.715 2.719-14.632 11.489-15.828"/>
   <path d="m1618.61 611.82c7.144-.474 10.868 5.627 11.595 10.436.433.764.671.549.837-.042.349-6.174 5.875-11.22 10.993-10.53 8.328.108 13.389 9.375 11.966 17.219-1.738 9.582-6.9 15.351-10.808 21.293-4.421 6.152-10.373 15.04-12.29 19.317 0 0-6.05-9.205-13.917-20.03-5.262-7.239-9.473-15.08-9.865-21.835-.448-7.715 2.719-14.632 11.489-15.828"/>
   <path d="m1728.15 611.82c7.144-.474 10.868 5.627 11.595 10.436.433.764.671.549.837-.042.349-6.174 5.875-11.22 10.993-10.53 8.328.108 13.389 9.375 11.966 17.219-1.738 9.582-6.9 15.351-10.808 21.293-4.421 6.152-10.373 15.04-12.29 19.317 0 0-6.05-9.205-13.917-20.03-5.262-7.239-9.473-15.08-9.865-21.835-.448-7.715 2.719-14.632 11.489-15.828"/>
   <path d="m1728.15 767.91c7.144.474 10.868-5.627 11.595-10.436.433-.764.671-.549.837.042.349 6.174 5.875 11.22 10.993 10.53 8.328-.108 13.389-9.375 11.966-17.219-1.738-9.582-6.9-15.351-10.808-21.293-4.421-6.152-10.373-15.04-12.29-19.317 0 0-6.05 9.205-13.917 20.03-5.262 7.239-9.473 15.08-9.865 21.835-.448 7.715 2.719 14.632 11.489 15.828"/>
   <path d="m1672.8 718.61c7.144.474 10.868-5.627 11.595-10.436.433-.764.671-.549.837.042.349 6.174 5.875 11.22 10.993 10.53 8.328-.108 13.389-9.375 11.966-17.219-1.738-9.582-6.9-15.351-10.808-21.293-4.421-6.152-10.373-15.04-12.29-19.317 0 0-6.05 9.205-13.917 20.03-5.262 7.239-9.473 15.08-9.865 21.835-.448 7.715 2.719 14.632 11.489 15.828"/>
   <path d="m1618.61 767.91c7.144.474 10.868-5.627 11.595-10.436.433-.764.671-.549.837.042.349 6.174 5.875 11.22 10.993 10.53 8.328-.108 13.389-9.375 11.966-17.219-1.738-9.582-6.9-15.351-10.808-21.293-4.421-6.152-10.373-15.04-12.29-19.317 0 0-6.05 9.205-13.917 20.03-5.262 7.239-9.473 15.08-9.865 21.835-.448 7.715 2.719 14.632 11.489 15.828"/>
   <path d="m1772.45 737.7c-1.583 3.472-1.757 9.405 2.971 10.208 3.562.458 5.01-1.198 5.3-3.742.142-.743.562-.788.695.058.204 2.609 2.787 4.133 4.806 3.75 5.527-.945 5.204-7.03 3.399-11.156-2.731-5.479-5.601-8.938-8.245-14.452-3.038 5.741-6.507 10.405-8.926 15.333"/>
  </g>
 </g>
</svg>
