<svg xmlns="http://www.w3.org/2000/svg" viewBox="0 0 744.09 1052.36">
 <g transform="translate(-1160.77-219.68)">
  <rect y="589.95" x="1421.2" height="311.81" width="223.23" rx="10.63" fill="#fff" stroke="#000" stroke-width=".997"/>
  <g transform="translate(-.049)">
   <g transform="matrix(.30106 0 0 .30106 285.5 1040.43)">
    <path d="m3799.82-1365.61l10.05-3.129c3.792 9.949 11.459 12.884 19.569 12.253 14.555-1.132 19.386-17.1 20.478-31.22-5.671 5.893-14.197 8.887-21.456 8.595-23.19-1.227-29.13-19.446-29.345-38.535-.644-16.1 6.137-27.754 17.765-33.09 6.152-2.712 20.244-2.712 26.438.494 14.223 7.361 19.487 20.09 18.532 50.46.015 24.991-5.396 54.1-32.676 54.723-15.77 2.14-27.743-9.898-29.359-20.544m39.485-27.382c4.733-2.941 7.404-5.7 9.525-9.839 1.741-3.397 2.331-5.159 1.834-12.192-1.279-18.12-10.959-28.392-24.994-26.351-7.827 1.138-12.1 5.442-14.557 13.445-4.536 14.778 1.214 32.08 11.986 36.06 4.859 1.797 12.338 1.277 16.205-1.126"/>
    <path d="m4484.18-591.31l-10.05 3.129c-3.792-9.949-11.459-12.884-19.569-12.253-14.556 1.132-19.386 17.1-20.478 31.22 5.671-5.893 14.197-8.887 21.456-8.595 23.19 1.227 29.13 19.446 29.345 38.535.644 16.1-6.137 27.754-17.765 33.09-6.152 2.712-20.244 2.712-26.438-.494-14.223-7.361-19.487-20.09-18.532-50.46-.015-24.991 5.396-54.1 32.676-54.723 15.77-2.14 27.743 9.898 29.359 20.544m-39.485 27.382c-4.733 2.941-7.404 5.7-9.525 9.839-1.741 3.397-2.331 5.159-1.834 12.192 1.279 18.12 10.959 28.392 24.993 26.351 7.828-1.138 12.1-5.442 14.557-13.445 4.536-14.778-1.214-32.08-11.986-36.06-4.859-1.797-12.338-1.278-16.205 1.126"/>
   </g>
   <path d="m1576.28 741.27c2.879-5.775 4.976-11.701 5.348-18.04.342-2.332-1.075-2.371-1.288-.729-4.076 15.593-25.763 11.37-25.02-3.297.605-11.895 12.419-14.454 18.582-10.564 2.434 1.433 2.296.575.968-.912-9.155-10.211-3.61-23.362 8.761-23.602 13.38.793 16.851 14.87 8.644 23.15-1.021.995-3.284 4.191.123 1.956 8.287-5.888 19.787.443 19.553 9.521-.433 16.739-20.839 17.987-25.2 4.01-.42-1.55-1.629-2.329-1.295.304.605 4.767 1.857 11.953 5.437 18.206z"/>
   <path d="m1525.46 768.43c2.879-5.775 4.976-11.701 5.348-18.04.342-2.332-1.075-2.371-1.288-.729-4.076 15.593-25.763 11.37-25.02-3.297.605-11.895 12.419-14.454 18.582-10.564 2.434 1.433 2.296.575.968-.912-9.155-10.211-3.61-23.362 8.761-23.602 13.38.793 16.851 14.87 8.644 23.15-1.021.995-3.284 4.191.123 1.956 8.287-5.888 19.787.443 19.553 9.521-.433 16.739-20.839 17.987-25.2 4.01-.42-1.55-1.629-2.329-1.295.304.605 4.767 1.857 11.953 5.437 18.206z"/>
   <path d="m1474.75 741.27c2.879-5.775 4.976-11.701 5.348-18.04.342-2.332-1.075-2.371-1.288-.729-4.076 15.593-25.763 11.37-25.02-3.297.605-11.895 12.419-14.454 18.582-10.564 2.434 1.433 2.296.575.968-.912-9.155-10.211-3.61-23.362 8.761-23.602 13.38.793 16.851 14.87 8.644 23.15-1.021.995-3.284 4.191.123 1.956 8.287-5.888 19.787.443 19.553 9.521-.433 16.739-20.839 17.987-25.2 4.01-.42-1.55-1.629-2.329-1.295.304.605 4.767 1.857 11.953 5.437 18.206z"/>
   <path d="m1576.28 675.94c2.879-5.775 4.976-11.701 5.348-18.04.342-2.332-1.075-2.371-1.288-.729-4.076 15.593-25.763 11.37-25.02-3.297.605-11.895 12.419-14.454 18.582-10.564 2.434 1.433 2.296.575.968-.912-9.155-10.211-3.61-23.362 8.761-23.602 13.38.793 16.851 14.87 8.644 23.15-1.021.995-3.284 4.191.123 1.956 8.287-5.888 19.787.443 19.553 9.521-.433 16.739-20.839 17.987-25.2 4.01-.42-1.55-1.629-2.329-1.295.304.605 4.767 1.857 11.953 5.437 18.206z"/>
   <path d="m1474.75 675.94c2.879-5.775 4.976-11.701 5.348-18.04.342-2.332-1.075-2.371-1.288-.729-4.076 15.593-25.763 11.37-25.02-3.297.605-11.895 12.419-14.454 18.582-10.564 2.434 1.433 2.296.575.968-.912-9.155-10.211-3.61-23.362 8.761-23.602 13.38.793 16.851 14.87 8.644 23.15-1.021.995-3.284 4.191.123 1.956 8.287-5.888 19.787.443 19.553 9.521-.433 16.739-20.839 17.987-25.2 4.01-.42-1.55-1.629-2.329-1.295.304.605 4.767 1.857 11.953 5.437 18.206z"/>
   <path d="m1489.45 816.14c-2.879 5.775-4.976 11.701-5.348 18.04-.342 2.332 1.075 2.371 1.288.729 4.076-15.593 25.763-11.37 25.02 3.297-.605 11.895-12.419 14.454-18.582 10.564-2.434-1.433-2.296-.575-.968.912 9.155 10.211 3.61 23.362-8.761 23.602-13.38-.793-16.851-14.87-8.644-23.15 1.021-.995 3.284-4.191-.123-1.956-8.287 5.888-19.787-.443-19.553-9.521.433-16.739 20.839-17.987 25.2-4.01.42 1.55 1.629 2.329 1.295-.304-.605-4.767-1.857-11.953-5.437-18.206z"/>
   <path d="m1590.99 816.14c-2.879 5.775-4.976 11.701-5.348 18.04-.342 2.332 1.075 2.371 1.288.729 4.076-15.593 25.763-11.37 25.02 3.297-.605 11.895-12.419 14.454-18.582 10.564-2.434-1.433-2.296-.575-.968.912 9.155 10.211 3.61 23.362-8.761 23.602-13.38-.793-16.851-14.87-8.644-23.15 1.021-.995 3.284-4.191-.123-1.956-8.287 5.888-19.787-.443-19.553-9.521.433-16.739 20.839-17.987 25.2-4.01.42 1.55 1.629 2.329 1.295-.304-.605-4.767-1.857-11.953-5.437-18.206z"/>
   <path d="m1590.99 751.03c-2.879 5.775-4.976 11.701-5.348 18.04-.342 2.332 1.075 2.371 1.288.729 4.076-15.593 25.763-11.37 25.02 3.297-.605 11.895-12.419 14.454-18.582 10.564-2.434-1.433-2.296-.575-.968.912 9.155 10.211 3.61 23.362-8.761 23.602-13.38-.793-16.851-14.87-8.644-23.15 1.021-.995 3.284-4.191-.123-1.956-8.287 5.888-19.787-.443-19.553-9.521.433-16.739 20.839-17.987 25.2-4.01.42 1.55 1.629 2.329 1.295-.304-.605-4.767-1.857-11.953-5.437-18.206z"/>
   <path d="m1489.45 751.03c-2.879 5.775-4.976 11.701-5.348 18.04-.342 2.332 1.075 2.371 1.288.729 4.076-15.593 25.763-11.37 25.02 3.297-.605 11.895-12.419 14.454-18.582 10.564-2.434-1.433-2.296-.575-.968.912 9.155 10.211 3.61 23.362-8.761 23.602-13.38-.793-16.851-14.87-8.644-23.15 1.021-.995 3.284-4.191-.123-1.956-8.287 5.888-19.787-.443-19.553-9.521.433-16.739 20.839-17.987 25.2-4.01.42 1.55 1.629 2.329 1.295-.304-.605-4.767-1.857-11.953-5.437-18.206z"/>
   <path d="m1434.41 662.7c1.192-2.445 2.352-4.721 2.984-7.401.419-2.528-.438-1.589-.925.068-.721 2.297-2.723 3.344-4.58 3.369-3.371.045-5.05-2.604-4.948-5.454-.368-2.999 2.671-5.12 4.962-4.957 1.722.123 3.224 1.052 4.133 1.775.596.315 1.234.455.345-.358-1.678-1.833-3.077-2.964-3.046-5.711.029-2.579 2.234-5.268 5.155-5.184 3.651.105 5.312 2.89 5.303 5.481-.001 1.888-.954 3.626-2.411 4.703-.944.766-.679 1.34.398.615 1.035-.892 2.267-1.283 3.545-1.31 3.491-.055 4.855 2.961 4.655 5.764-.187 2.626-2.423 5.328-5.369 5.02-2.631-.302-4.01-2.51-4.805-4.777-.262-.695-.676-.883-.665.153.608 5.057 2.492 8.204 2.505 8.202z"/>
   <path d="m1631.32 827.38c-1.192 2.445-2.352 4.721-2.984 7.401-.419 2.528.438 1.589.925-.068.721-2.297 2.723-3.344 4.58-3.369 3.371-.045 5.05 2.604 4.948 5.454.368 2.999-2.671 5.12-4.962 4.957-1.722-.123-3.224-1.052-4.133-1.775-.596-.315-1.234-.455-.345.358 1.678 1.833 3.077 2.964 3.046 5.711-.029 2.579-2.234 5.268-5.155 5.184-3.651-.105-5.312-2.89-5.303-5.481.001-1.888.954-3.626 2.411-4.703.944-.766.679-1.34-.398-.615-1.035.892-2.267 1.283-3.545 1.31-3.491.055-4.855-2.961-4.655-5.764.187-2.626 2.423-5.328 5.369-5.02 2.631.302 4.01 2.51 4.805 4.777.262.695.676.883.665-.153-.608-5.057-2.492-8.204-2.505-8.202z"/>
  </g>
 </g>
</svg>
