<svg xmlns="http://www.w3.org/2000/svg" viewBox="0 0 744.09 1052.36">
 <g transform="translate(-6220.72 2805.28)">
  <rect rx="10.63" width="223.23" height="311.81" x="6481.16" y="-2435" fill="#fff" stroke="#000" stroke-width=".997"/>
  <g transform="matrix(.30106 0 0 .30106 5345.45-1984.52)" fill="#d40000">
   <path d="m3880.86-1304.8c32.952-32.16 54.59-67.22 75.29-100.94 18.15 37.1 44.2 69.56 72.36 100.94-30.14 31.12-53.49 64.39-72.27 99.37-20.818-35.859-42.735-68.33-75.38-99.37"/>
   <path d="m3880.86-1087.8c32.952-32.16 54.59-67.22 75.29-100.94 18.15 37.1 44.2 69.56 72.36 100.94-30.14 31.12-53.49 64.39-72.27 99.37-20.818-35.859-42.735-68.33-75.38-99.37"/>
   <path d="m3880.86-865.59c32.952-32.16 54.59-67.22 75.29-100.94 18.15 37.1 44.2 69.56 72.36 100.94-30.14 31.12-53.49 64.39-72.27 99.37-20.818-35.859-42.735-68.33-75.38-99.37"/>
   <path d="m3880.86-649.34c32.952-32.16 54.59-67.22 75.29-100.94 18.15 37.1 44.2 69.56 72.36 100.94-30.14 31.12-53.49 64.39-72.27 99.37-20.818-35.859-42.735-68.33-75.38-99.37"/>
   <path d="m4068.34-977.73c32.952-32.16 54.59-67.22 75.29-100.94 18.15 37.1 44.2 69.56 72.36 100.94-30.14 31.12-53.49 64.39-72.27 99.37-20.818-35.859-42.735-68.33-75.38-99.37"/>
   <path d="m4251.32-1304.8c32.952-32.16 54.59-67.22 75.29-100.94 18.15 37.1 44.2 69.56 72.36 100.94-30.14 31.12-53.49 64.39-72.27 99.37-20.818-35.859-42.735-68.33-75.38-99.37"/>
   <path d="m4251.32-1087.8c32.952-32.16 54.59-67.22 75.29-100.94 18.15 37.1 44.2 69.56 72.36 100.94-30.14 31.12-53.49 64.39-72.27 99.37-20.818-35.859-42.735-68.33-75.38-99.37"/>
   <path d="m4251.32-865.59c32.952-32.16 54.59-67.22 75.29-100.94 18.15 37.1 44.2 69.56 72.36 100.94-30.14 31.12-53.49 64.39-72.27 99.37-20.818-35.859-42.735-68.33-75.38-99.37"/>
   <path d="m4251.32-649.34c32.952-32.16 54.59-67.22 75.29-100.94 18.15 37.1 44.2 69.56 72.36 100.94-30.14 31.12-53.49 64.39-72.27 99.37-20.818-35.859-42.735-68.33-75.38-99.37"/>
   <path d="m4426.56-676.62c13.499-13.173 22.364-27.536 30.842-41.35 7.435 15.199 18.1 28.495 29.644 41.35-12.346 12.747-21.914 26.378-29.607 40.708-8.528-14.689-17.506-27.991-30.879-40.708"/>
   <path d="m3799.4-1293.96c13.499-13.173 22.364-27.536 30.842-41.35 7.435 15.199 18.1 28.495 29.644 41.35-12.346 12.747-21.914 26.378-29.607 40.708-8.528-14.689-17.506-27.991-30.879-40.708"/>
   <path d="m3799.82-1365.61l10.05-3.129c3.792 9.949 11.459 12.884 19.569 12.253 14.555-1.132 19.386-17.1 20.478-31.22-5.671 5.893-14.197 8.887-21.456 8.595-23.19-1.227-29.13-19.446-29.345-38.535-.644-16.1 6.137-27.754 17.765-33.09 6.152-2.712 20.244-2.712 26.438.494 14.223 7.361 19.487 20.09 18.532 50.46.015 24.991-5.396 54.1-32.676 54.723-15.77 2.14-27.743-9.898-29.359-20.544m39.485-27.382c4.733-2.941 7.404-5.7 9.525-9.839 1.741-3.397 2.331-5.159 1.834-12.192-1.279-18.12-10.959-28.392-24.994-26.351-7.827 1.138-12.1 5.442-14.557 13.445-4.536 14.778 1.214 32.08 11.986 36.06 4.859 1.797 12.338 1.277 16.205-1.126"/>
   <path d="m4484.18-591.31l-10.05 3.129c-3.792-9.949-11.459-12.884-19.569-12.253-14.556 1.132-19.386 17.1-20.478 31.22 5.671-5.893 14.197-8.887 21.456-8.595 23.19 1.227 29.13 19.446 29.345 38.535.644 16.1-6.137 27.754-17.765 33.09-6.152 2.712-20.244 2.712-26.438-.494-14.223-7.361-19.487-20.09-18.532-50.46-.015-24.991 5.396-54.1 32.676-54.723 15.77-2.14 27.743 9.898 29.359 20.544m-39.485 27.382c-4.733 2.941-7.404 5.7-9.525 9.839-1.741 3.397-2.331 5.159-1.834 12.192 1.279 18.12 10.959 28.392 24.993 26.351 7.828-1.138 12.1-5.442 14.557-13.445 4.536-14.778-1.214-32.08-11.986-36.06-4.859-1.797-12.338-1.278-16.205 1.126"/>
  </g>
 </g>
</svg>
