<svg xmlns="http://www.w3.org/2000/svg" viewBox="0 0 744.09 1052.36">
 <g transform="translate(-1160.77-219.68)">
  <g transform="translate(-5059.96 3024.95)">
   <rect rx="10.63" width="223.23" height="311.81" x="6481.16" y="-2435" fill="#fff" stroke="#000" stroke-width=".997"/>
   <g transform="matrix(.30106 0 0 .30106 5345.45-1984.52)">
    <path d="m3799.82-1365.61l10.05-3.129c3.792 9.949 11.459 12.884 19.569 12.253 14.555-1.132 19.386-17.1 20.478-31.22-5.671 5.893-14.197 8.887-21.456 8.595-23.19-1.227-29.13-19.446-29.345-38.535-.644-16.1 6.137-27.754 17.765-33.09 6.152-2.712 20.244-2.712 26.438.494 14.223 7.361 19.487 20.09 18.532 50.46.015 24.991-5.396 54.1-32.676 54.723-15.77 2.14-27.743-9.898-29.359-20.544m39.485-27.382c4.733-2.941 7.404-5.7 9.525-9.839 1.741-3.397 2.331-5.159 1.834-12.192-1.279-18.12-10.959-28.392-24.994-26.351-7.827 1.138-12.1 5.442-14.557 13.445-4.536 14.778 1.214 32.08 11.986 36.06 4.859 1.797 12.338 1.277 16.205-1.126"/>
    <path d="m4484.18-591.31l-10.05 3.129c-3.792-9.949-11.459-12.884-19.569-12.253-14.556 1.132-19.386 17.1-20.478 31.22 5.671-5.893 14.197-8.887 21.456-8.595 23.19 1.227 29.13 19.446 29.345 38.535.644 16.1-6.137 27.754-17.765 33.09-6.152 2.712-20.244 2.712-26.438-.494-14.223-7.361-19.487-20.09-18.532-50.46-.015-24.991 5.396-54.1 32.676-54.723 15.77-2.14 27.743 9.898 29.359 20.544m-39.485 27.382c-4.733 2.941-7.404 5.7-9.525 9.839-1.741 3.397-2.331 5.159-1.834 12.192 1.279 18.12 10.959 28.392 24.993 26.351 7.828-1.138 12.1-5.442 14.557-13.445 4.536-14.778-1.214-32.08-11.986-36.06-4.859-1.797-12.338-1.278-16.205 1.126"/>
   </g>
  </g>
  <path d="m1473.96 658.82c.015-2.026-1.587-2.064-1.569-.586-.134 7.429-6.417 11.09-10.981 10.219-7.04-1.338-9.282-8.322-9.215-12.435.207-12.696 12.988-22.06 24.52-38.33 8.45 14.691 22.397 26.23 23.22 37.586 1.098 15.1-18.01 20.73-20.737 3.133-.176-1.243-1.64-1.801-1.526-.065.415 4.823-.175 6.831 5.266 18.719h-14.222c3.15-5.555 5.03-12.375 5.24-18.236"/>
  <path d="m1585.5 658.82c.015-2.026-1.587-2.064-1.569-.586-.134 7.429-6.417 11.09-10.981 10.219-7.04-1.338-9.282-8.322-9.215-12.435.207-12.696 12.988-22.06 24.52-38.33 8.45 14.691 22.397 26.23 23.22 37.586 1.098 15.1-18.01 20.73-20.737 3.133-.176-1.243-1.64-1.801-1.526-.065.415 4.823-.175 6.831 5.266 18.719h-14.222c3.15-5.555 5.03-12.375 5.24-18.236"/>
  <path d="m1585.5 724.15c.015-2.026-1.587-2.064-1.569-.586-.134 7.429-6.417 11.09-10.981 10.219-7.04-1.338-9.282-8.322-9.215-12.435.207-12.696 12.988-22.06 24.52-38.33 8.45 14.691 22.397 26.23 23.22 37.586 1.098 15.1-18.01 20.73-20.737 3.133-.176-1.243-1.64-1.801-1.526-.065.415 4.823-.175 6.831 5.266 18.719h-14.222c3.15-5.555 5.03-12.375 5.24-18.236"/>
  <path d="m1473.96 724.15c.015-2.026-1.587-2.064-1.569-.586-.134 7.429-6.417 11.09-10.981 10.219-7.04-1.338-9.282-8.322-9.215-12.435.207-12.696 12.988-22.06 24.52-38.33 8.45 14.691 22.397 26.23 23.22 37.586 1.098 15.1-18.01 20.73-20.737 3.133-.176-1.243-1.64-1.801-1.526-.065.415 4.823-.175 6.831 5.266 18.719h-14.222c3.15-5.555 5.03-12.375 5.24-18.236"/>
  <path d="m1585.51 833.28c.015 2.026-1.587 2.064-1.569.586-.134-7.429-6.417-11.09-10.981-10.219-7.04 1.338-9.282 8.322-9.215 12.435.207 12.696 12.988 22.06 24.52 38.33 8.45-14.691 22.397-26.23 23.22-37.586 1.098-15.1-18.01-20.73-20.737-3.133-.176 1.243-1.64 1.801-1.526.065.415-4.823-.175-6.831 5.266-18.719h-14.222c3.15 5.555 5.03 12.375 5.24 18.236"/>
  <path d="m1585.51 768.18c.015 2.026-1.587 2.064-1.569.586-.134-7.429-6.417-11.09-10.981-10.219-7.04 1.338-9.282 8.322-9.215 12.435.207 12.696 12.988 22.06 24.52 38.33 8.45-14.691 22.397-26.23 23.22-37.586 1.098-15.1-18.01-20.73-20.737-3.133-.176 1.243-1.64 1.801-1.526.065.415-4.823-.175-6.831 5.266-18.719h-14.222c3.15 5.555 5.03 12.375 5.24 18.236"/>
  <path d="m1530.42 734.42c.015 2.026-1.587 2.064-1.569.586-.134-7.429-6.417-11.09-10.981-10.219-7.04 1.338-9.282 8.322-9.215 12.435.207 12.696 12.988 22.06 24.52 38.33 8.45-14.691 22.397-26.23 23.22-37.586 1.098-15.1-18.01-20.73-20.737-3.133-.176 1.243-1.64 1.801-1.526.065.415-4.823-.175-6.831 5.266-18.719h-14.222c3.15 5.555 5.03 12.375 5.24 18.236"/>
  <path d="m1473.97 768.18c.015 2.026-1.587 2.064-1.569.586-.134-7.429-6.417-11.09-10.981-10.219-7.04 1.338-9.282 8.322-9.215 12.435.207 12.696 12.988 22.06 24.52 38.33 8.45-14.691 22.397-26.23 23.22-37.586 1.098-15.1-18.01-20.73-20.737-3.133-.176 1.243-1.64 1.801-1.526.065.415-4.823-.175-6.831 5.266-18.719h-14.222c3.15 5.555 5.03 12.375 5.24 18.236"/>
  <path d="m1473.97 833.28c.015 2.026-1.587 2.064-1.569.586-.134-7.429-6.417-11.09-10.981-10.219-7.04 1.338-9.282 8.322-9.215 12.435.207 12.696 12.988 22.06 24.52 38.33 8.45-14.691 22.397-26.23 23.22-37.586 1.098-15.1-18.01-20.73-20.737-3.133-.176 1.243-1.64 1.801-1.526.065.415-4.823-.175-6.831 5.266-18.719h-14.222c3.15 5.555 5.03 12.375 5.24 18.236"/>
  <path d="m1438.03 657.33c.001-.872-.895-.465-1.018-.19-1.163 1.986-2.865 2.448-4.548 1.732-1.667-.709-2.604-2.28-2.454-4.522.31-3.438 3.035-7.2 4.355-9.326 1.252-1.93 2.628-4.222 4.077-7.154 1.697 3.363 2.559 4.321 4.405 7.391 1.626 2.704 3.892 5.353 4.068 8.622 0 2.485-1.046 4.832-3.399 5.259-1.331.242-2.579-.442-3.504-2.037-.282-.407-.849-.195-.839.362.165 2.093.955 3.983 2.83 6.212h-6.887c1.41-1.576 2.849-3.704 2.915-6.349"/>
  <path d="m1626.85 830.08c.001.872-.895.465-1.018.19-1.163-1.986-2.865-2.448-4.548-1.732-1.667.709-2.604 2.28-2.454 4.522.31 3.438 3.035 7.2 4.355 9.326 1.252 1.93 2.628 4.222 4.077 7.154 1.697-3.363 2.559-4.321 4.405-7.392 1.626-2.704 3.892-5.353 4.068-8.622 0-2.485-1.046-4.832-3.399-5.259-1.331-.242-2.579.442-3.504 2.037-.282.407-.849.195-.839-.362.165-2.093.955-3.983 2.829-6.212h-6.887c1.41 1.576 2.849 3.704 2.915 6.349"/>
 </g>
</svg>
