<svg xmlns="http://www.w3.org/2000/svg" viewBox="0 0 744.09 1052.36">
 <g transform="translate(-5774.27 3117.09)">
  <rect y="-2746.81" x="6034.7" height="311.81" width="223.23" rx="10.63" fill="#fff" stroke="#000" stroke-width=".997"/>
  <g transform="matrix(.30106 0 0 .30106 5730.64-1948.11)" fill="#d40000">
   <path d="m1306.38-2134.65c32.952-32.16 54.59-67.22 75.29-100.94 18.15 37.1 44.2 69.56 72.36 100.94-30.14 31.12-53.49 64.39-72.27 99.37-20.818-35.859-42.736-68.33-75.38-99.37"/>
   <path d="m1661.74-1825.74c13.499-13.173 22.364-27.536 30.842-41.35 7.435 15.199 18.1 28.495 29.644 41.35-12.346 12.747-21.914 26.378-29.607 40.708-8.528-14.689-17.506-27.991-30.879-40.708"/>
   <path d="m1036.02-2442.51c13.499-13.173 22.364-27.536 30.842-41.35 7.435 15.199 18.1 28.495 29.644 41.35-12.346 12.747-21.914 26.378-29.607 40.708-8.528-14.689-17.506-27.991-30.879-40.708"/>
   <path d="m1033.99-2499.93v-9.09h8.839l18.814-97.23h10.705l20.736 97.23h7.134v9.09h-24.307v-9.09h6.566l-2.616-14.9h-24.532l-1.894 14.9h6.566v9.09zm43.772-34.598l-10.657-52.05-9.987 52.05z"/>
   <path d="m1727.39-1770.25v9.09h-8.839l-18.814 97.23h-10.705l-20.736-97.23h-7.134v-9.09h24.307v9.09h-6.566l2.616 14.9h24.532l1.894-14.9h-6.566v-9.09zm-43.772 34.598l10.657 52.05 9.987-52.05z"/>
  </g>
 </g>
</svg>
