<svg xmlns="http://www.w3.org/2000/svg" viewBox="0 0 744.09 1052.36">
 <g transform="translate(-1090.39 198.15)">
  <g transform="translate(-4683.88 2918.94)">
   <rect y="-2746.81" x="6034.7" height="311.81" width="223.23" rx="10.63" fill="#fff" stroke="#000" stroke-width=".997"/>
   <g transform="matrix(.30106 0 0 .30106 5730.64-1948.11)" fill="#d40000">
    <path d="m1033.99-2499.93v-9.09h8.839l18.814-97.23h10.705l20.736 97.23h7.134v9.09h-24.307v-9.09h6.566l-2.616-14.9h-24.532l-1.894 14.9h6.566v9.09zm43.772-34.598l-10.657-52.05-9.987 52.05z"/>
    <path d="m1727.39-1770.25v9.09h-8.839l-18.814 97.23h-10.705l-20.736-97.23h-7.134v-9.09h24.307v9.09h-6.566l2.616 14.9h24.532l1.894-14.9h-6.566v-9.09zm-43.772 34.598l10.657 52.05 9.987-52.05z"/>
   </g>
  </g>
  <g fill="#d40000">
   <path d="m1359.11 232.88c-1.583-3.472-1.757-9.405 2.971-10.208 3.562-.458 5.01 1.198 5.3 3.742.142.743.562.788.695-.058.204-2.609 2.787-4.133 4.806-3.75 5.527.945 5.204 7.03 3.399 11.156-2.731 5.479-5.601 8.938-8.245 14.452-3.038-5.741-6.507-10.405-8.926-15.333"/>
   <path d="m1450.39 299.28c7.144-.474 10.868 5.627 11.595 10.436.433.764.671.549.837-.042.349-6.174 5.875-11.22 10.993-10.53 8.328.108 13.389 9.375 11.966 17.219-1.738 9.582-6.9 15.351-10.808 21.293-4.421 6.152-10.373 15.04-12.29 19.317 0 0-6.05-9.205-13.917-20.03-5.262-7.239-9.473-15.08-9.865-21.835-.448-7.715 2.719-14.632 11.489-15.828"/>
   <path d="m1547.49 423.57c-1.583 3.472-1.757 9.405 2.971 10.208 3.562.458 5.01-1.198 5.3-3.742.142-.743.562-.788.695.058.204 2.609 2.787 4.133 4.806 3.75 5.527-.945 5.204-7.03 3.399-11.156-2.731-5.479-5.601-8.938-8.245-14.452-3.038 5.741-6.507 10.405-8.926 15.333"/>
  </g>
 </g>
</svg>
