<svg xmlns="http://www.w3.org/2000/svg" viewBox="0 0 744.09 1052.36">
 <g transform="translate(-712.32 92.14)">
  <g transform="translate(-5061.95 3024.95)">
   <rect rx="10.63" width="223.23" height="311.81" x="6034.7" y="-2746.81" fill="#fff" stroke="#000" stroke-width=".997"/>
   <g transform="matrix(.30106 0 0 .30106 5730.64-1948.11)">
    <path d="m1033.99-2499.93v-9.09h8.839l18.814-97.23h10.705l20.736 97.23h7.134v9.09h-24.307v-9.09h6.566l-2.616-14.9h-24.532l-1.894 14.9h6.566v9.09zm43.772-34.598l-10.657-52.05-9.987 52.05z"/>
    <path d="m1727.39-1770.25v9.09h-8.839l-18.814 97.23h-10.705l-20.736-97.23h-7.134v-9.09h24.307v9.09h-6.566l2.616 14.9h24.532l1.894-14.9h-6.566v-9.09zm-43.772 34.598l10.657 52.05 9.987-52.05z"/>
   </g>
  </g>
  <path d="m1083.08 445.39c.015-2.026-1.587-2.064-1.569-.586-.134 7.429-6.417 11.09-10.981 10.219-7.04-1.338-9.282-8.322-9.215-12.435.207-12.696 12.988-22.06 24.52-38.33 8.45 14.691 22.397 26.23 23.22 37.586 1.098 15.1-18.01 20.73-20.737 3.133-.176-1.243-1.64-1.801-1.526-.065.415 4.823-.175 6.831 5.266 18.719h-14.222c3.15-5.555 5.03-12.375 5.24-18.236"/>
  <path d="m990.27 347.95c.001-.872-.895-.465-1.018-.19-1.163 1.986-2.865 2.448-4.548 1.732-1.667-.709-2.604-2.28-2.454-4.522.31-3.438 3.035-7.2 4.355-9.326 1.252-1.93 2.628-4.222 4.077-7.154 1.697 3.363 2.559 4.321 4.405 7.392 1.626 2.704 3.893 5.353 4.067 8.622 0 2.485-1.046 4.832-3.399 5.259-1.331.242-2.579-.442-3.504-2.037-.282-.407-.849-.195-.839.362.165 2.093.955 3.983 2.829 6.212h-6.887c1.41-1.576 2.849-3.704 2.915-6.349"/>
  <path d="m1178.65 520.53c.001.872-.895.465-1.018.19-1.163-1.986-2.865-2.448-4.548-1.732-1.667.709-2.604 2.28-2.454 4.522.31 3.438 3.035 7.2 4.355 9.326 1.252 1.93 2.628 4.222 4.077 7.154 1.697-3.363 2.559-4.321 4.405-7.392 1.626-2.704 3.892-5.353 4.068-8.622 0-2.485-1.046-4.832-3.399-5.259-1.331-.242-2.579.442-3.504 2.037-.282.407-.849.195-.839-.362.165-2.093.955-3.983 2.829-6.212h-6.887c1.41 1.576 2.849 3.704 2.915 6.349"/>
 </g>
</svg>
