<svg xmlns="http://www.w3.org/2000/svg" viewBox="0 0 744.09 1052.36">
 <g transform="translate(-289.24 486.83)">
  <rect y="-116.56" x="549.68" height="311.81" width="223.23" rx="10.63" fill="#fff" stroke="#000" stroke-width=".997"/>
  <g transform="matrix(.15467 0 0 .15467 1008.47-41.18)">
   <path d="m-2766.09 1374.74l-3.296-1700.42 1054.71 1.988 1.322 1697.75zm378.1-1416.9c-37.721-10.282-36.806 27.18-9.185 28.578 30.948 2.664 44.19-50.08 29.422-70.867 0 0-12.863 39.733-20.237 42.29m-244.76 211.82l-45.3 20.21-.18 33.816c18.893-15.02 33.656-33.35 45.48-54.02m309.2 1016.08c-8.915-4.5-19.662-14.165-18.01-15.862.819-.843 5.649.683 10.03 2.654 35.4 14.914 62.88 13.951 105.09-1.367 3.195-1.159 7.966 4.928 6.187 8.276-18.693 27.649-79.19 17.82-103.3 6.299m-18.663-41.492c-8.129-12.212 2.653-2.956 6.271.506 26.19 24.356 61.678 32.609 92.14 9.658 1.415-1.572 1.606-3.03 1.185-4.129-.862-2.247-.88.15-13.903 4.668-29.24 10.945-53.882 1.954-77.911-16.436-9.896-7.632-14.496-11.383-14.496-13.383 0-1.83 1.849-2.971 5.179-2.398 2.063.355 7.82 1.552 12.03 1.897 7.315.599 6.754.287 14.25-3.173 16.02-7.396 30.78-10.1 47.521-7.095 3.878.695 8.751 1.977 9.411 1.757 3.752-1.251-1.781-6.191-15.968-17.442-2.793-2.215-6.267-4.109-7.419-6.03-1.787-2.982.16-3.773 2.184-3.748 5.832.07 32.05 21.983 41.03 34.988 2.733 3.957 4.622 4.376 4.63 8.493-.522 4.271-1.208 8.362 3.417 14.345 3.318 4.293 6.524 11.194 6.553 11.524.034.377-.658 2.537-3.696.536-1.383-.256-2.056-1.739-4.589-1.372-2.206.319-5.793 2.054-9.732 3.915-36.729 23.622-70.55 12.1-98.09-17.08m80.46-1.653c.739.074-2.534-13.503-6.233-17.508-7.291-7.895-18.415-9.333-25.14-1.253-3.782 4.547-7.936 17.219-7.936 17.219 0 0 5.89 1.735 7.534 1.735.233-2.842.251-10.778 6.099-15.434 2.879-2.264 9.08-2.196 11.49-.314 4.794 2.351 6.818 11.872 6.882 15.575 2.62.815 8.657.077 7.3-.02m-44.41-19.562c-5.178 2.31-11.909 3.866-13.453 7.332-2.038 4.573 5.154 5.955 8.897 7.494 5.174 2.495 5.29 1.582 6.964-2.406 1.046-2.491 2.425-5.738 3.742-8.726 3.871-7.478.0001-6.441-6.149-3.694m56.04 12.997c2.981-2.981 3.542-4.949.881-8.332-1.204-1.531-4.637-3.093-8.374-4.349-4.798-1.613-6.892-3.574-3.881 2.925l4.302 9.286c2.211 4.448 4.148 3.265 7.07.47m-490.05-317.14c1.82 0 19.895-5.927 26.329-8.786 6.379-2.437 7.14-2.369 4.603-5.898-.95-1.321-1.718-5.05-1.257-9.136l.481-5.698c-11.141-2.269-27.774 3.899-33.5 11.695-4.068 4.979-3.653 16.06 3.343 17.823m-2.272 27.8c3.385 3.385 4.322 3.507 14.48-.265 3.557-2.38 10.999-5.354 16.217-5.696 12.239-3.255 12.244-1.969 8.777-9.807-1.595-3.607-2.118-6.591-1.618-9.925.592-3.948 1.063-4.491-1.166-5.188-5.852-1.83-33.09 8.353-37.965 16.276-3.433 5.574-2.975 10.353 1.276 14.604m639.53 240.57c-1.779 2.655-4.863 7.373-6.159 10.562-2.235 5.502-.879 6.554.014 17.35.517 6.256.651 15.972.668 21.2.033 10-.11 13.1 2.947 13.692 2.695.519 3.93-1.507 5.222-6.719.645-2.602 2.191-5.323 2.664-6.973 1.921-11.25 5.475-30.03 13.581-37.924 1.127-.932 4.425-1.514 10.408-1.589 7.326-.092 9.668-.3 11.938-1.995 12.821-11.218 2.715-25.715-8.725-26.731-13.245-1.152-31.501 17.14-32.559 19.13m50.891-4.7c.814 12.902-12.05 21.694-25.12 18.705-5.297-1.334-6.889-.121-10.44 7.44-7.709 20.746-10.76 41.551-12.804 55.16-.884 12.245-5.379 44.12-2.122 54.28 37.26 46.05 76.49 93.59 119.44 140.98l255.46.35 1.542-300.74-74.2-70.17.145-111.24c-79.42 37.422-158.6 75.36-237.87 113.11 17.275 55.4-41.3 67.02-54.14 29.886-11.12 10.194-20.231 65.2-16.13 67.914 0 0 1.473 1.985 3.935-2.391 4.053-7.202 9.35-12.509 15.02-16.02 16.513-10.224 36.16-5.18 37.29 12.735m-203.32-5.613c-12.536-9.961-5.824-25.16 4.594-29.716 5.518-2.414 14.375-2.087 24.13 1.355 8.564 3.933 13.68 3.38 22.454 2.299 5.824-.647 4.744 11.547-1.339 14.693-4.287 2.217-14.12 1.168-26.07-5.639-20.625-11.743-29.684 3.476-16.91 17.219 7.082 7.575-5.04 1.507-6.855-.21m-424.62-182.15c11.02-7.094 6.448-19.61-3.824-21.704-13.832.293-17.347 16.17-7.452 21.656 0 1.928-4.921.354-7.579-1.635-4.125-3.087-.361-15.16-4.197-15.642-2.926.05-31.49 10.154-34.569 12.171-12.833 7.282-.789 23.722 6.66 21.842 15.468-3.905 36.496-7.379 50.962-16.689m-63.84-23.489c.266 7.321 2.312 10.577 7.12 10.642 10.05-1.743 19.406-6.535 28.787-9.576 7.331-2.397 10.303-5.102 4.72-9.683-1.693-1.937-3.193-4.715-2.376-9.997 1.921-6.04.45-6.343-2.112-6.636-2.551-.295-8.384 2.151-23.348 7.897-7.872 3.02-9.389 4.331-11.428 8.663-.915 3.318-1.483 5.352-1.362 8.689m83.28 94.49c1.731-2.034 5.568-14.793 5.568-17.947-.778-5.254-4.685-6.444-8.143-3.051-4.206 3.764-3.075 9.449-5.57 13.807-.869 1.517-1.788 3.616-1.536 4.468 1.355 4.585 6.999 5.429 9.682 2.724m32.762-69.47c128.02-136.34 207.32-325 68.59-585.2-15.56-6.623-20.361 18.668-21.85 19.702l-17.726 15.444c93.91 161.94 77.6 348.22-37.22 480.68l.123 8.405c.271 18.498 5.598 17.698 13.38 9.04 8.242-8.695 2.727-1.614-.639 1.966-2.903 3.075-7.522 9.198-8.752 10.795 1.508 11.1 8.496 31.783 4.097 39.17m-8.494-40.966c-1.317-3.68-2.715-12.09-3.434-18.57-.44-4.217-.618-8.198-.837-12.319-1.358-8.194-4.702-26.999-7.418-31.14-2.927-4.468-10.08-7.734-18.07-8.246-6.823-.438-7.389-.316-8.844 1.907-2.497 3.816-.786 23.07 1.752 30.13 2.856 8.28 1.178 12.779-1.141 20.986-.806 2.97-1.1 3.175.364 3.384 6.389-.447 8.513-8.282 11.04-5.948.85.855-1.363 7.282-4.346 13.778-3.147 6.854-4.081 16.297-.342 27.912 2.093 6.503 1.204 8.559-.063 12.483-.847 2.621-2.324 10.656-2.372 18.651 2.983 10.02 1.482 14.509-.269 17.821-3.81 8.505-6.752 20.03-4.704 26.502.898 2.839 3.249.409 4.972-4.455 2.686-9.605 5.822-11.743 13.71-11.745 5.745 0 6.287 2.01 8.188-.557 4.313-5.834 14.848-26.503 15.05-32.26 4.073-14.693 4.274-27.319-3.235-48.31m61.22 96.51c3.48-1.323 8.829-8.68 8.835-11.215.0001-2.794-21.462-23.669-30.402-29.43-4.049-2.609-5.973-.757-13.13 8.878-6.361 8.561-7.195 8.636-6.01 10.284 1.421 1.983 23.294 16.205 30.558 20.242 2.51 1.395 6.766 2.53 10.155 1.241m40.23-37.15c-3.203-2.458-28.892-30.939-36.517-32.353-2.898-.537-12.19 10.04-12.19 12.444 0 1.649 16.04 17.978 27.405 27.899 3.248 2.835 6.834 5.155 7.969 5.155 3.615-1.854 12.876-9.33 13.333-13.145m27.29-26.867c0-1.688-2.832-5.161-9.75-11.955-17.617-17.302-27.43-25.22-30.522-25.2-3.372 1.119-9.473 11.385-9.837 14.958 1.147 2.144 30.619 28.87 34.435 31.463 4.709 4.546 15.02-6.05 15.674-9.271m27.639-27.597c.755-2.542-.719-4.711-4.45-8.285-2.646-2.534-12.04-11.733-20.882-20.442-18.533-18.261-18.573-18.276-24.525-9.744-6.128 8.784-6.096 8.854 11.968 26.477 19.262 18.791 23.774 22.602 26.758 22.602 4.572-2.108 9.549-5.625 11.131-10.608m-206.55-16.483c-3.227-.967-6.195-.398-8.728 1.627-13.655 11.61 5.712 26.55 13.677 17.232 5.303-5.233 5.088-16.476-4.948-18.858m234.91-12.152c0-1.945-3.978-6.304-17.75-19.451-34.07-32.526-32.54-31.29-36.32-29.27-2.359 1.262-6.933 10.01-6.933 13.254 0 2.435 3.273 5.808 28.527 29.391 14.807 13.827 19.19 17.319 21.742 17.319 4.04-1.998 10.558-6.324 10.731-11.243m-234.05 1.224c6.692-2.912 7.938-10.154 4.144-15.875-7.276-6.414-17.396-1.115-17.563 7.153 1.257 7.746 7.831 11.02 13.419 8.721m262.05-28.538c0-3.884-58.34-58.44-62.5-58.44-2.818 0-4.838 2.284-7.486 8.462-2.297 5.36-2.065 8.531.827 11.314 4.216 4.056 15.462 14.419 26.16 24.1 6.325 5.727 13.596 12.565 16.16 15.195 5.999 6.159 12.604 10.928 15.14 10.928 3.614-2.111 8.636-4.965 11.707-11.557m-265.1-7.03c.056-2.191-.507-4.427-2.072-6.094-4.01-4.263-11.454-2.02-13.318 3.629-1.704 13.285 14.848 13.87 15.391 2.465m43.21-424.65l11.411-34.889 34.866-.898 4.887-34.681 35.881-5.165.576-35.832 34.33-4.688-2.121-38.37 31.831-7.537-1.58-35.527 28.925-8.87-1.159-30.923 4.973-3.896-12.512-12.721-10.773 3.499-.196 31.783-28.887 9.297 3.043 35.16-29.2 6.659-.366 38.24-33.548 3.765-2.397 33.737-32.722 6.444-4.879 33.05-31.757 2.159-9.692 29.05-20.981.243v19.442zm379.34 624.2c-1.096-2.618 1.765-2.227 6.751.922 5.215 3.294 12.811 6.04 18.21 6.05 2.25 0 10.294-1.431 17.876-3.189 9.06-3.323 17.09-3.521 26.5-1.486 6.993.941 14.04 1.701 15.649 1.689 4.673.652 12.597-5.118 14.718-8.746 5.754-9.84 4.385 8.04 4.408 10.08.105 9.158 1.249 19.682-5.311 14.786-3.88-2.01-10.654-3.788-16.06-.176-5.446 3.636-9.95 4.41-16.331.572-5.238-2.064-8-2.501-11.92 1.14-4.366 4.057-14.956 2.61-20.63.748-9.752-1.621-15.211-3.036-21.747 2.132-3.486 2-4.384.513-7.01-7.216-2.624-7.729-4.699-16.343-5.102-17.305m24.823-6.459c-.618-.999 4.614-6.125 8.148-7.953 10.374-5.366 30.986-5.127 45.725.318 7.683 2.838 8.867 7.694 1.393 6.671-15.552-3.262-35.06-5.944-50.09 1.21-1.179.631-4.882.226-5.173-.246m13.159-24.295c-10.638-3.945-15.857-8.147-15.857-9.486 0-1.441 2.282-1.175 10.643 1.107 11.392 4.227 24.859 6.452 36.1 2.518 8.08-2.988 12.12-4.879 12.12-3.081 0 1.903-3.339 6.852-8.893 9.7-11.06 4.507-25.64 2.367-34.11-.757m230.86-29.541l7.892-1.083-2.742-32.938 29.08-8.629-2.041-32.758 30.987-10.664-1.848-36.871 32.2-6.343 4.197-32.27 30.4-2.164 6.299-35.11 32.655-1.124 6.726-29.18 21.729-.136-.096-16.387-33.846.105-7.167 31.583-31.941.919-6.778 34.693-33.491-.246-4.286 37.39-31.496 5.164.024 40.26-30.382 7.881 2.352 34.428-30.347 11.07 3.429 32.857zm202.99-772.87c-4.344 3.093-5.986 9.222-4.642 14.214 4.277 11.297 19.333 7.774 21.11-.446.894-3.562-1.472-8.941-5.583-10.11-.72-.205-3.274.034-4.606-1.337-.962-.989 5.03-4.06 8.558-2.895 4.407 1.454 8.01 7.282 8.02 12.326 0 1.957-.551 4.859.16 5.832 7.284-.181 15.624-4.186 23.432-6.35 13.191-3.656 17.964-11.223 15.04-20.09-2.438-7.388-9.997-10.316-19.929-6.579-13.636 5.13-29.637 7.583-41.557 15.431m-563.32 808.64c44.682-31.391 70.993-49.33 128.34-52.43-20.459-8.416-23.799-19.47-29.548-30.05-71.04 6.716-108.77 29.4-142.52 50.579 13.945 6.567 28.508 14.204 43.726 31.898m249.06-43.538c-21.67-15.312-47.45-24.568-74.2-31.719l-20.502 21.239c-1.194-.757 59.36.612 94.7 10.48m208.03-201.49c-139.74-214.73-45.87-403.68 51.3-524.08 3.121-3.951 3.879-4.15 3.175-7.293-.928-4.143-2.072-25.01-1.361-37.07-179.61 178.01-184.21 409.91-71.56 593.95 8.05-7.198 24.292-16.783 18.443-25.508m20.956-18.371c-22.941-38.2-145.12-245.04 41.495-475.79 0 0-.637-11.767-2.034-16.187-2.502-7.922-6.401-11.12-6.401-11.12-78.38 117.66-192.29 264.88-50.02 520.55zm-106.85-389.3c2.792-2.278 6.85-10.553 6.85-13.971 0-3.047-2.197-5.594-23.25-26.952-28.06-28.472-32.906-32.827-36.499-32.827-3.394 0-12.251 8.401-12.251 11.62 0 1.542 8.258 10.438 27.75 29.896 36.17 36.1 34.461 34.632 37.4 32.23m25.85-52.44c0-1.715-2.601-5.117-8.75-11.447-16.222-16.697-39.36-37.864-41.39-37.864-2.585 0-9.666 5.729-11.527 9.326-1.309 2.53-1.282 3.107.251 5.5 2.866 4.473 39.06 38.828 49.35 47.47 6.178 5.671 11.768-8.674 12.07-12.987m13.989-21.305c2.867-1.534 8.305-11.701 7.649-14.298-.307-1.214-9.489-11.09-20.405-21.957-21.594-21.489-22.85-22.265-28.23-17.451-4.875 4.359-7.927 8.725-7.325 10.479.734 2.14 33.06 35 39.665 40.32 5.223 4.208 5.832 4.412 8.649 2.905m164.78-1.591c10.149-9.744-1.352-20.43-9.709-15.498-3.554 2.197-5.672 6.991-4.583 10.176 1.807 5.285 8.973 8.169 14.292 5.322m20.1-2.486c17.18-4.51 25.406-7.525 29-12.879 2.489-3.706 2.774-5.986-.028-12.03-2.586-5.576-5.602-7.28-16.363-1.384-7.39 4.049-23.846 5.988-29.601 9.387-2.301 1.983-1.179 1.961.672 3.136 4.142 2.63 6.165 4.422 5.714 7.901-.982 7.574-.199 8.736 10.606 5.868m-18.18-26.93c8.343-4.266 6.656-14.564-2.659-18.654-12.296-3.238-20.22 11.561-10.15 18.772 2.697 1.889 9.538 1.556 12.81-.118m27.72-4.171c12.06-4.133 16.695-7.369 20.18-14.04 2.756-5.279 1.581-7.638 1.216-12.746-.554-7.742-4.445-6.858-15.686-2.807-5.485 2.121-31.743 9.511-32.11 12.201 12.674 7.245 9.438 11.06 9.544 20.312.662 2.103 6.61.592 16.861-2.922m-164.4-12.329c0-3.495-33.699-36.499-37.27-36.499-5.565 0-13.538 8.652-12.346 13.398.541 2.153 32.14 33.958 36.08 36.32 5.521 3.228 13.178-7.95 13.531-13.216m19.369-20.575c1.451-1.142 4.03-4.096 5.727-6.564 3.632-5.279 3.373-8.221-.97-11.01-1.588-1.019-8.654-7.412-15.702-14.207-7.05-6.795-13.723-12.69-14.832-13.1-5.811-.772-16.31 8.532-15.222 13.295.626 2.493 26.453 27.927 32.22 31.727 3.725 2.456 5.516 2.426 8.782-.143m45.631-49.16c0-.94-5.863-4.712-15.25-9.813-28.697-15.593-29.19-15.702-38.16-8.396-3.075 2.505-5.592 5.359-5.592 6.342 0 1 6.219 7.671 14.15 15.173 16.457 15.568 20.505 18.93 22.799 18.93 4.742-3.483 21.321-17.919 22.05-22.24m40.17-14.658c3.542-4.24 7.521-18.946 5.63-21.905-1.739-1.739-6.211-1.472-8.358.471-2.213 2-7.672 20.475-6.832 22.664.856 2.231 6.487 1.188 9.561-1.23m-313.5 625.86c2.716-.364 8.03-3.681 15.77-10.326 8.264-7.099 34.452-22.898 37.3-29.25 1.273-3.612.348-8.794-2.385-9.188-2.076-.299-2.518 1.288-19.929 13.839-11.744 8.466-32.381 23.597-35.483 26.805-1.346 3.435 1.697 7.759 4.731 8.121m-2.439 101.14c17.926-12.437 32.445-25.318 55.814-39.719 1.806-2.381 2.081-5.925.98-8.82-1.361-3.581-3.245-2.167-10.317 2.746-17.222 11.605-34.94 25.27-49.777 35.406-4.759 3.223-8.767 5.01-7.762 6.819 1.334 2.405 8.69 3.134 11.06 3.569m17.43 7.631c11.788-9.642 25.895-18.848 38.484-28.17 1.761-1.758 2.219-7.688.41-10.119-1.428-1.919-.246-1.565-3.73.413-5.095 2.892-35.586 23.679-41.27 28.379-3.309 2.737-6.06 4.106-5.245 5.061 3.81 2.452 7.855 3.965 11.348 4.441m14.816 7.47c2.438-1.632 23.394-15.03 25.08-16.809 1.929-2.038 1.369-11.155-.506-11.875-5.293 4.211-33.24 21.235-33.29 23.978 2.845 2.558 6.603 4.911 8.721 4.706m22.408 1.866c3.219-2.949 3.859-3.45 3.928-6.756.124-5.987-1.36-5.732-9.893.367-5.961 3.855-9.589 6.567-8.52 8.878 4.235 6.627 10.245 1.399 14.486-2.489m2.31 12.229c1.672-.618 1.685-1.48 1.444-3.572-.268-2.327-.609-2.227-3.14-2.227-6.785.253-.666 6.401 1.696 5.799m-81.59-33.505c3.079-10.168 7.395-18.211 14.446-25.835 28.19-24.979 19.576-55.726 1.775-80.76 23.03-32.24 46.03-66.4 65.818-97.7l-.07-50.884 2.658.28c-.919 111.04 4.15 293.12 4.15 293.12l22.899 17.465-3.084 1.526c3.767-.589-66.67-44.686-108.59-57.22m20.696-12.68c19.498-14.713 38.463-26.28 57.799-41.953 2.056-1.694 3.271-1.788 3.329-5.634.111-7.332-1.351-7.406-8.578-2.234-3.201 2.29-14.926 10.488-26.06 18-11.613 7.839-22.37 14.812-24.53 17.316-10.88 12.614-14.901 18.551-13.784 20.358 1.166 1.886 3.371-.155 11.821-5.853m21.267-35.659c10.02-6.597 33.987-23.24 36.17-25.291 3.796-3.569 4.461-9.26 1.032-9.913-1.673-.319-20.229 12.05-35.909 23.938-7.633 5.786-9.331 7.124-9.331 12.576 0 3.303 1.998 2.667 8.04-1.31m9.988-25.913c30.72-21.841 29.932-19.995 29.26-28.13-.225-2.746-.832-3.994-2.056-4.225-.955-.181-6.384 3.721-12.497 8.02-6.113 4.302-13.399 10.07-17.06 12.612-10.675 7.408-14.21 9.402-14.21 13.645 0 4.187 1.128 6.826 2.982 6.826.696 0 6.804-3.938 13.573-8.75m-4.406-16.915c14.15-9.993 29.739-21.269 31.862-23.945 2.581-3.254 2.118-10.329-1.174-10.329-14.199 9.489-31.29 21.959-43.3 31.808-1.554 1.37-3.53 2.681-4.148 4.47-.119 2.311 2.786 5.363 3.942 5.457 2.343.012 5.942-2.605 12.818-7.461m-9.214-33.819c10.803-7.32 20.628-16.02 31.358-23.4 8.06-5.516 10.342-7.223 9.863-14.159-.276-4-3.796-1.7-17.445 7.394-10.01 6.668-14.608 9.303-18.16 13.865-2.49 5.757-10.7 11.159-11.135 17.741-.0001 2.44 1.61 1.283 5.516-1.441m33.17-43.99c8.298-5.496 9.09-5.622 8.185-12.924-1.128-9.138-2.065-8.598-9.994 3.513-5.214 7.964-7 10.269-6.208 11.75 1.353 2.529 2.845 1.086 8.02-2.339m-30.22-67.24c-.881-4.067-2.126-3.185-6.303.482-7.686 6.748-8.897 11.633-4.109 14.195 2.541 1.36 4.509 1.205 6.02-2.129 3.258-7.184 4.17-9.72 4.392-12.549m-43.05 63.884c-.993-3.713-5.528-8.769-8.982-10.555-3.424-1.771-5.503-1.44-8.773 2.718-3.01 3.832-1.611 6.11 2.918 11.84 3.319 4.198 4.665 5.532 7.274 5.532 3.17-1.241 8.226-5.504 7.563-9.534m-166.62 160.18c-2.193-4.24-6.853-8.711-8.989-7.963-2.262.792-4.465 4.04-4.494 6.075.933 4.163 4.448 6.981 7.151 7.06 5.092-.722 8.186-1.607 6.331-5.173m20.318-6.458c-4.388-4.629-13.06-14.839-14.483-14.839-2.22 0-7.518 5.561-7.518 7.846 0 2.698 7.899 13.756 10.528 14.641 6.644-.616 18.844.128 11.473-7.648m25.08 1.299c-.46-2.235-25.16-28.492-26.981-28.492-2.355 0-7.01 5.166-7.01 7.552 0 1.915 7.976 12.32 15.348 20.02 3.669 3.833 3.997 4.384 8.491 3.683 4.903-.765 11.294.295 10.15-2.764m43.644-5.865c0-5.298-2.771-8.205-13.925-20.274-4.047-4.379-10.884-11.987-15.193-16.908-8.334-9.516-11.904-12.432-15.228-12.441-2.623-.0001-6.642 4.25-6.642 6.96 0 1.74 20.526 25.27 39.12 45.25 4.125 4.433 5.975 5.724 9.932 3.617 2.274-1.552 1.938-4.179 1.937-6.209m-32.14-63.05c-4.172 3.43-5.726 4.833-5.745 7.121-.029 3.488 35.402 42.42 38.561 42.42 1.856 0 1.572-.255 2.666-4.44 2.193-12.704-1.259-16.433-10.441-24.815-6.157-5.62-18.57-24.963-25.04-20.283m62.49-26.04c-9.888-11.827-15.361-17.268-17.37-17.268-1.373 0-3.431 1.323-5.651 3.78-3.695 3.498-3.343 3.372-1 7.535 1.215 2.162 4.617 6.417 7.559 9.455 5.449 5.626 8.242 7.413 10.868 4.715 2.324-2.387 8.06-5.208 5.597-8.217m-5.161-29.511c-2.412-.026-6.465 4.32-6.465 6.686 0 2 8.03 12.06 13.621 17.07 4.527 4.055 6.662 5.145 9.811 2.472 2.356-3.418 1.823-6.544.352-9.155-4.01-4.563-12.764-16.872-17.319-17.07m27.798 2.898c-.06-3.449-10.182-16.608-13.389-17.92-2.664 0-8.316 6.203-8.316 9.07 0 1.535 2.166 4.955 5.838 9.217 7.224 8.385 9.08 10.23 10.65 8.919 2.573-2.144 5.276-5.901 5.217-9.281m11.424-14.822c.666-2.89-1.122-5.865-5.166-10.943-5.05-6.347-7.533-6.773-12.297-1.858-1.758 1.814-2.577 3.399-2.577 4.279 0 2.423 10.602 15.893 12.57 15.893 4.551-.563 5.939-3.873 7.47-7.371m-18.651 33.37c-.948 4.349-2.778 7.19-6.976 9.208-32.37 23.325-31.32 61.33-38.23 96.42-52.42-.527-135.28 20.975-134.76 22.1l278.55-281c0 0 3.457.858 1.341 3.321-22.543 16.205-21.14 47.713-35.965 63.5-24.773 29.937-47.793 55.906-63.951 86.46m-151.19 114.78c.451-3.177-2.47-4.04-5.02-1.485-2.504 2.504-1.514 4.459 2.049 4.047 1.876-.217 2.75-.969 2.976-2.562m85.84-11.809c1.025-2.671-1.415-5.171-16.344-21.737-15.11-16.772-18.543-20.699-21.16-20.699-2.219 0-7.632 5.492-7.632 7.74 0 1.033 2.376 4.432 5.28 7.554 2.904 3.122 8.416 9.253 12.25 13.625 6.602 7.529 9.74 11.165 12.253 12.92 2.467 1.722 4.332 1.632 8.282 1.632 5.425 0 6.603.179 7.07-1.033m25.822-52.732c1.027-3.3 2.491-6.215 2.5-7.451.017-2.306-19.06-21.754-22.29-23.839-3.862-2.496-11.125 5.656-9.314 10.417.5 1.314 6.175 7.99 12.613 14.834 8.184 8.701 12.277 12.799 13.607 12.596 1.363-.209 1.548-2.258 2.885-6.556m7.979-20.437c1.395-2.053 2.536-4.763 2.536-6.02 0-1.429-3.195-5.296-7.761-10.429-8.509-9.565-10.693-10.671-15.354-6.207-4.637 4.443-3.065 6.498 5.092 15.74 10.214 11.572 11.37 12.976 15.486 6.918m72.947-91.34c3.174-3.773 3.244-5.644.338-9.09-1.237-1.466-3.03-3.604-3.989-4.75-2.621-3.139-6.083-2.619-9.656 1.451-1.707 1.944-2.836 3.905-2.832 4.573 0 .668 1.838 3.353 4.078 5.965 5.03 5.873 8.142 6.508 12.06 1.85m11.176-14.416c2.159-3.296 1.186-6.914-2.853-10.603-3.823-3.492-5.724-3.639-8.411-.654-3.591 3.989-3.01 5.325.846 9.596 4.362 4.828 7.868 5.552 10.418 1.662m8.958-11.962c2.985-2.985 2.928-5.538.252-8.94-2.506-3.185-5.097-4.051-7.736-2.638-4.588 2.456-4.104 6.669.412 11.429 2.741 2.889 4.03 3.193 7.07.149m-213.13 599.39c57.05 6.391 118.33 10.857 226.37-5.93l.543-36.667c-33.698 26.28-77.934 8.267-80.48-21.984-.301-26.96 6.899-58.06 12.966-80.23 4.517-16.482 5.807-22.838 1.579-26.05-9.32-5.252-25.861-5.913-30.09-16.867-2.024-5.781-2.216-11.963.744-7.558 1.36 2.024 12.12 7.03 20.521 8.903 14.631 3.266 16.984 4.357 18.643 10.366 1.047 3.792-1.364 16.886-5.218 28.703-2.759 8.46-5.982 22.04-5.982 24.669 0 2.86 2.245 3.328 4.756 2.531 1.083-.344 6.226-5.489 9.464-8.379 14.06-12.541 18.13-12.166 6.129.103-4.775 4.879-11.36 11.611-11.36 12.12 0 2.596 2.439 2.298 7.833.351 8.312-3 27.798-2.64 36.468 1.716 10.778 5.415 11.235 5.176 10.987-11.238-1.939-30.675-6.936-66.968-16.931-95.29-15.244-43.2-46.9-83.28-93.67-81.47-57.01 2.97-91.41 25.672-130.2 52.867 23.423 51.967-10.43 91.77-22.694 97.03-1.184.507 15.352 52.825 22.414 79.41 6.415 24.15 17.199 72.902 17.199 72.902m242.69-1253.45c-1.325-3.419-33.04-106.76-41.908-149.99-85.74-4.988-149.14-12.11-224.63 9.326 0 0-1.637 29.12-.847 30.53.767 3.596 3.367 3.513 5.49 2.334 34.87-19.16 72.66-10.529 75.28 36.72 1 18.04-5.064 30.759-6.168 47.875-.964 14.947-12.723 34.87-5.596 46.22.914 1.397 5.936 4.146 12.801 7.086 12.802 5.482 17.816 10.514 18.756 18.885 1.392 5.775-2.139 9.656-3.204 3.724-.676-3.766-1.337-7.082-17.14-12.494-15.403-5.274-19.558-11.39-21.09-14.61-2.118-4.441-1.719-7.59.262-14.668 4.216-15.06 8.375-30.427 7.991-37.682-.138-2.61-3.03-1.341-6.726 1.804-4.697 3.994-24.784 17.22-25.347 16.656-.264-.264 3.316-5.593 8.938-10.968 6.822-6.523 15.311-14.425 15.311-15.874 0-2.566-1-.782-7.613 1.182-11.529 3.177-24.812 2.722-33.744-1.225-7.576-3.334-12.887-5.267-14.01-3.445-2.805 46.03 4.03 93.47 23.342 130.48 17.297 33.627 53.25 75.74 107.32 66.29 55.862-9.762 110.21-54.695 108.26-54.748-20.846-47.2 2.907-82.36 24.284-103.41m-442.83 1256.51c-24.752-24.788-87.15-51.756-130.03-64.13-3.434-.74-6.812-2.373-6.837 1.691l-.506 85.08-76.63 71.823 1.349 35.05 162.59-.787 107.94-158.25c0 0 5.204-.933 5.778-1.901-19.811-84.03-49.645-151.15-68.6-184.78.318.416-27.25 22.275-51.5-4.9-13.605-15.249-5.256-42.03 7.652-51.844-10.891-8.01-33.453-22.534-48.25-26.726-3.076-.753-7.66 5.471-9.164 11.1-2.703 9.154-7.198 17.34-10.215 26.568-3.316 7.71-6.512 8.873-11.461 6.707-7.707-2.286-9.751-3.084-9.751-3.084l.25 100.02c59.15 20.526 120.04 73.11 137.38 158.37m245.88-1068.84l17.526-19.03c-27.728-3.403-56.798-8.359-90.81-19.04 23.617 17.557 48.35 28.424 73.28 38.07m-96.32-53.55c30.909 10.305 70.01 34.34 118.85 25.288-44.514-17.659-78.32-58.917-92.72-142.92-3.149 16.304-9.661 50.21-19.912 53.877-14.405-55.745-72.32-23.326-49.1 22.14-58.696 40.33-129.27 63.08-193.28 94.19 0 0-9.634 29.57-57.58 70.08-9.05-47.49 1.733-117.95-3.88-165.67l-75.17-70.991c1.152 13.519.626 21.907.025 37.739 2.062 2.759 4.914 4.204 7.809 5.929 4.857 273.59-1.675 544.03-1.616 792.53-.745 152.29 3.284 310.95 1.053 454.74l-2.808 5.202.117 34.37 76.75-73.08c0 0-3.569-51.86.455-91.49 48.44 9.754 93.62 32.514 134.12 57.48 5.099 1.416-24.856-99.56-133.79-144.41 0 0-.15-31.543-.146-100.11 0-66.14-1.031-73.14-2.499-74.22-4.409 4.792-60.15 23.573-62.977 20.399 1.49.497-15.723-117.08-.842-134.94l53.33 1.124c15.253 12.31 9.124-2.683 17.979-5.15 5.311-1.43 29.976 8.181 29.976 8.181 101.64-119.97 91.48-317.28 18.541-428.29-18.686 15.173-38.553 35.739-57.29 44.568-.224-.642-.34-61.21-.34-61.21 97.11-62.33 202.75-242.89 196.01-243.51 0 0 30.07 29.29 41.741 45.849l-95.87 138.84c21.96 44.22 44.17 84.31 58.58 123.19 1.951 5.26 7.957 5.111 9.469 10.645 1.293 4.73-4.48 11.298-3.682 16.517 20.231 77.37 24.819 159.47 4.858 233.85-4.206 16.743 3.501 30.31 13.805 42.906.851 1.096-9.603-9.05-10.537-9.61-3.586-2.153-9.56 5.399-10.82 14.927.825 5.841 3.996 6.867 8.194 11.6 7.4 6.149 36.791 35.09 49.736 48.31 11.497 11.741 14.47 12.269 22.22 3.944 2.187-2.042 4.459-4.821 6.575-6.549.396.641 3.261-2.341 4.237-3.294l173.12-168.98c20.11-19.628-172.87 177.3-172.87 177.3 0 0-93.58 91.87-116.54 114.52-23.711 23.394-26.913 28.51-27.861 30.25-1.691 3.102 7.647 3.02 11.894 2.387.34-.05-3.566.9-7.515.872-24.374-5.447-32.675 21.494-48.04 26.919-40.647 28.864-13.317 75.22 25.518 59.911l9.459-4.549c23.538 43.716 57.49 123.35 73.42 192.57l-6.421 2.968-102.4 153.61h580.73c-41.714-41.525-77.2-92.51-113.33-130.67-57.915 17.321-233.04 13.787-230.27 6.257 0 0-26.519-107.35-41.512-160.08 47.608-40.776 42.729-105.1-26.383-133.97 50.31-39.725 100.96-53.19 150.34-56.41 16.04 40.736 53.695 43.3 71.47 6 .119-.417 66.775 20.489 91.35 43.12-36.44-3.772-72.43-11.03-108.89-12.767 32.1 12.674 64.775 45.774 75.25 83.63 5.127 13.518 12.965 58.15 15.04 58.31 0 0 12.163-51.55 21.593-48.712 24.05 50.19 65.52 12.437 48.05-27.546 61.26-29.24 130.18-61.893 186.53-88.995 16.443-24.799 56.883-71.899 59.54-72.1 0 0 74.38-426.12 74.36-568.57-2.469-171.25 3.434-361.88-3.949-522.06l-.069-46.04-157.1.066-112.15 164.92c0 0-.845 2.614-.827 3.751 15.306 66.54 34.944 123.17 65.76 184.65 42.521-32.12 78.36 20.77 46.47 51.48-5.987 5.765-4.384 7.22 1.605 11.232 5.905 3.955 46.26 24.26 48.14 24.26 7.298-10.842 9.415-26.855 14.335-39.09 1.24-4.661 4.759-5.233 11.791-4.406 9.04 1.062 8.993 4.822 8.691-52.69l-.259-49.4c-54.52-25.11-126.7-88.96-130.07-155.35 31.525 22.937 103.96 56.28 123.3 59.27 8.496 2.372 7.19-12.433 7.454-18.375 2.3 1.539 3.133 24.414 3.133 24.414-31.998-9.672-48.766-7.699-128.64-53.979 13.704 65.31 79.1 116.81 126.52 140.3 0 0 1.984 31.02 1.883 65.762-.306 105.96.755 110.63.755 110.63 0-.052 26.1-6.652 33.34-10.245 12.938-10.364 33.674-2.418 36.544 5.215 4.208 39.99.161 77.07-.728 115.26-22.1 1.576-34.21 6.227-45.11 6.672-7.088-.948-11.395-.992-15.02-5.02-10.555-22.801-9.872-8.342-11.155 8.782-.969 5.066-27.393-3.753-30.03-5.278-114.11 131.36-104.39 282.6-26.888 422.65 12.804-8.639 34.85-25.13 56.891-35.958.532 17.818.832 54.5.832 54.5-89.33 65.54-196.32 239.19-192.7 239.67l-36.29-43.33c0 0 22.848-36.32 30.9-45.924.938-1.1 1.54-12.364 1.54-12.364l55.46-80.2c-25.08-44.42-42.21-82.41-60.05-126.09-1.01-3.657-5.37-19.359-4.411-20.844-37-167.18 3.093-250.33.139-256.66 0 0-.492-3.345-1.278-3.997-1.213-1.01.315-1.973 1.676-4.361 2.639-4.63 6.844-14.13 5.408-16.942-1.061-2.079-31.07-32.08-56.793-56.788-13.534-12.996-12.996-14.485-19.988-7.387-2.592 2.631-8.968 10.122-8.968 10.122-92.95 85.995-166.71 164.3-259.99 255.85l-4.478-4.068c135.69-134.87 272.64-268.4 407.02-404.57l-23.636.401c.668-1.712 1.649-3.309 3.02-3.774 12.672.011 25.706-3.832 35.12-9.179 19.17-14.238 46.68-33.3 48.835-52.08-1.378-36.14-31.866-41.38-53.877-23.709-30.602-54.962-54.823-121.09-67.8-182.81-.613-3.065-4.925-8.349-5.572-11.848 6.556-20.5 110.48-162.11 110.48-162.11h-583.59l111.07 132.26c0-5.279 158.29-23.969 230.78-1.893l44.15 156.82c-40.1 38.775-51.959 102.54 21.802 135.73 1.435 3.11-6.993 8.224-6.993 8.224 1.174-1.912 3.212-3.89 2.386-5.648-19.881-8.689-41.17-30.693-41.17-30.693-44.37 34.665-85.85 53.964-126.48 55.678 0 0 21.451 14.544 25.596 30.52 0 0-1.992-.242-2.515-.882-4.403-5.384-14.522-22.792-23.06-27.92-14.463-3.47-23.02-.946-34.434 6.923l-15.453 14.927c-35.454-10.785-74.831-28.422-96.53-55.2m-5.936 383.83l16.181-15.964c1.85-11.85 5.066-26.918 18.738-43.33 15.166-18.202 31.934-35.32 44.28-51.52 14.828-19.468 22.877-37.09 18.979-45.25 22.1-3.98 42.39-23.483 43.03-58.882.258-18.595 9.232-45.719 9.911-45.34 0 0 154.25-5.247 260.36-106.4 0 0 7.435 1.616 5.692 2.961-40.21 40.27-82.966 69.96-133.5 88.86l-278.74 278.43zm30.861-31.947c4.166-4.166 5.106-5.532 2.749-7.488-3.594-2.983-10.513 3.175-10.513 9.357 0 3.934 3.114 2.781 7.764-1.869m14.431-14.186c3.313-3.174 3.192-5.484.451-8.225-3.766-3.766-9.246-1.451-11.09 4.624-1.855 6.122 5.43 8.588 10.636 3.601m12.701-12.848c1.707-1.944 3.104-3.935 3.104-4.423 0-2.155-5.32-7.04-7.666-7.04-2.992 0-8.334 5.02-8.334 7.834 0 2.346 5.363 7.166 7.973 7.166 1 0 3.216-1.591 4.923-3.535m11.973-23.921c-3.794-3.192-6.289-3.216-9.415-.089-3.636 3.636-3.258 7.632 1.08 11.442 3.295 3.439 4.71 3.104 9.168.355 3.742-3.823 4.413-7.391-.833-11.707m14.05-2.133c4.101-3.451 3.517-6.285-.955-10.758-4.706-4.706-8.338-4.741-11.686.244-1.255 1.869-1.486 3.746-1.486 4.279 0 1.822 7.76 8.734 9.806 8.734 1.122 0 2.63-1.077 4.322-2.5m13.514-13.346c3.486-3.639 3.039-6.238-1.959-11.385-4.204-4.328-7.129-4.66-10.832-1.228-3.831 3.55-3.035 7.298 1.284 11.617 4.375 4.375 7.621 5.05 11.507.995m15.311-15.497c2.559-2.707 1.871-2.489.056-5.426-2.805-4.538-10.985-12.05-13.314-12.05-2.93 0-5.493 4.684-5.468 9.296.025 4.588 2.26 6.454 8.08 11.03 3.866 3.042 2.682 3.317 5.658 1.573 1.65-.966 3.894-2.957 4.987-4.423m12.148-11.1c5.481-6.242 4.441-7.446-8.796-21.391-4.488-4.728-5.421-5.269-8.629-5-3.047.255-3.255 1.01-4.825 4.22-2.892 5.92-.748 8.93 7.578 17.786 8.571 9.117 9.834 9.895 14.671 4.386m13.569-14.569c2.117-1.859 3.535-4.02 3.535-5.398 0-2.434-10.719-14.322-14.548-16.512-2.711-1.551-5.542-.674-9.06 2.349-2.111 1.816-2.059 2.253-1.557 4.253.819 3.263 14.602 17.791 16.876 17.788.943 0 2.806-.774 4.75-2.481m13.458-13.06c2.275-2.321 4.077-5.132 4.077-6.36 0-2.621-11.555-15.989-15.13-17.861-3.037-1.591-4.804-.928-7.802 3.283-3.455 4.852-2.105 7.07 4.749 14.964 6.502 7.49 8.585 9.759 9.796 9.759.403 0 2.067-1.497 4.309-3.784m12.706-13.668c2.915-1.774 6.73-5.512 5.182-8.563-1.641-3.124-21.863-24.558-24.04-25.724-4.269-2.285-4.145 1.01-4.145 11.624v5.51l9.309 9.115c13.567 13.285 10.536 10.04 13.695 8.04m16.447-15.1c1.608-1.608 3.127-4.318 3.107-5.323-8.394-10.224-32.812-42.551-37.22-41.35-.462.125-.647.147-.96 1.072-1.096 3.242-1.539 9.937-.779 15.357 7.708 7.407 25.878 31.524 29.989 33.02 2.456.946 3.541-.445 5.864-2.768m13.12-13.764c1.543-1.478 2.805-3.48 2.805-4.448 0-.969-2.716-4.368-5.604-7.769-2.887-3.402-8.539-10.288-12.56-15.302-23-28.69-24.674-30.833-28.18-27.919-2.306 1.914-2.862 8.673-1.704 11.2 1.998 4.36 27.12 34.658 35.22 42.475 5.151 4.971 6.166 5.465 10.03 1.764m13.233-12.681c1.964-1.852 3.571-4.308 3.571-5.457 0-1.149-3.708-5.821-7.591-10.382-3.883-4.561-10.353-12.343-14.378-17.293-10.322-12.696-10.405-13.156-18.11-13.947-11.67-1.198-10.114 1.374 3.108 16.803 3.2 3.734 9.245 11.11 13.433 16.385 9.805 12.355 14.13 16.905 16.07 16.905.858 0 1.93-1.162 3.894-3.01m13.495-13.221c5.982-5.03 4.8-6.683-14.657-26.777-6.38-6.589-6.834-7.634-11.79-7.634-4.988 0-6.593 1.029-6.593 3.444 0 1.481 25.347 31.605 27.19 32.34 2.496 1 2.786 1.197 5.846-1.377m14.175-14.517c1.596-1.708 2.901-3.918 2.901-4.91 0-2.163-5.503-9.154-10.657-13.673-2.417-2.12-5.456-4.311-7.41-4.311-3.308 0-8.983 1.871-9.96 3.454-.632 1.023 6.896 10.322 14.295 18.12 4.901 5.165 6.82 5.615 10.831 1.321m12.447-12.349c3.133-3.133 3.106-6-.096-10.201-2.322-3.044-3.02-3.344-7.8-3.344-9.05 0-9.311 2.315-2.305 9.805 5.208 5.568 6.644 7.297 10.202 3.74m13.326-13.11c3.52-4.475.508-6.933-5.269-4.301-1.371.625-2.103 2.25-2.391 3-1.785 4.651 4.275 5.604 7.66 1.301m-222.52 37.824c-12.867 8.132-34.494 23.544-49.2 33.841-.389 2.209-.671 7.838.012 12.219 8.333-5.669 35.13-22.782 47.29-32.426.616-3.615 1.501-9.993 1.899-13.633m23.602-37.33c-.431-2.189-1.873-.804-5.682 2.417-4.987 4.217-47.3 35.566-58.54 43.45-4.271 2.998-8.293 5.531-8.75 6.584-.432.994-.845 9.509.774 11.655 9.166-7 52.669-36.17 53.32-37.18 4.494-7.175 14.527-19.694 18.873-26.925m-4.848 94.49c0 0-51.898 62.38-68.59 93.46 0 0-.113 35.549-.596 56.02l-2.828.792c0 0-.243-54.868-.943-114.42-1.75-148.81-3.211-184.94-3.211-184.94l-16.855-12.34-.7-5.854c0 0 74.78 52.36 111.27 60.711-26.66 41.78-51.31 57.898-17.552 106.56m-61.59 74.61c1.039-2.507.332-2.386-1.813-2.292-1.573.069-2.466 1.522-2.537 3.115-.082 1.819.082 2.25 1.5 1.98 1.017-.194 2.35-1.596 2.85-2.803m12.481-18.489c7.467-9.198 13.642-15.16 14.75-21.927-4.784.792-32.32 20.09-32.75 22.14.267 10.218-2.067 11.446 6.338 6.939 3.689-2 6.677-4.469 11.662-7.147m2.353-22.791c8.03-6.67 37.29-22.411 40.647-30.17 1.298-3.561-2.875-6.907-3.53-6.579.532.47-41.907 25.896-57.39 39.23-1.382 1.719-1.028 4.65-.106 7.08 1.698 4.466 5.084.838 20.378-9.563m-9.737-12.268c8.727-5.819 29.37-20.09 34.508-23.657 8.732-6.068 10.469-8.103 7.32-12.599-1.256-1.793-2.963-2.858-5.847-1.589-25.27 17.599-27.454 20.577-46.639 32.908-1.295 3.463-.974 8.632 1.028 10.465 1.456.085 3.898-1.706 9.631-5.528m-.097-18.991c23.02-16.652 35.443-25.07 36.26-26.912.903-2.029 1.169-9.948-.334-10.797-8.567 6.519-31.469 20.538-47.12 33.23-.406 2.609-.884 8.464.379 9.727 3.177 1.313 4.122-.408 10.816-5.25m-2.745-60.12c16.758-12.432 32.25-23.25 49.695-34.906 14.783-9.816 17.253-12 11.58-14.934-1.95-1.01-5.887-2.604-8.409-1.755-19.648 15.859-41.475 31.03-62.3 46.44-.512 2.299 0 6.817-.125 8.851-.201 3.148 3.952.458 9.557-3.7m-2.305-17.738c1.375-1.207 10.15-7.02 19.5-13.79 25.07-18.14 28.03-19.911 28.03-21.837 0-5.269-7.234-6.388-13.822-1.024-12.09 9.843-40.944 27.778-41.01 30.32-.101 3.749-.732 7.442.364 9.09 1.386 2.081 3.414.339 6.941-2.758m7.237-24.578c25.51-17.796 24.5-16.965 24.5-20.16 0-2.783-2.483-1.535-6.386-1.819-3.68-.268-3.75.765-10.748 6.05-14.887 11.249-20.336 14.327-21.895 17.646-.49 1.044-.836 5.173.072 6.081 1.795 1.796 3.862-.409 14.457-7.801m1.686-17.698c4.993-4.155 8.997-7.208 9.332-8.08.727-1.895-3.044-5.273-5.886-5.273-3.08 0-5.476 1.593-13.1 8.158-6.734 5.796-8.099 4.579-7.568 7.851.308 1.897.342 6.085.974 6.846 1.629 1.963 5.117-.235 16.253-9.504m-10.332-11.49c5.393-4.538 6.529-5.471 2.596-9.404-3.561-3.561-7.711-4.446-9.9-2.258-1.212 1.601-.032 10.991-.165 12.866-.213 3.01 3.79 1.892 7.469-1.204m115.53-97.92c0-1.945 9.382-8.811 16.424-10.377 8.977-1.996 20.245-.963 28.13 2.975 6.795 3.393 14.168 11.548 3.25 6.584-10.03-4.459-31.518-4.515-39.3-.913-5.776 2.927-8.5 3.679-8.5 1.731m-6.976-34.378c.73-.73 10.111 1.69 15.276 3.051 13.852 3.65 25.23 1.504 39.752-2.684 3.406-.983 5.103 1.373 3 3.1-7.376 5.107-16.941 8.08-25.19 8.85-18.15 1.688-37.673-7.576-32.84-12.317m-88.994-26.789c7.743-3.788 17.2-56.914 14.15-66.05-9.48 14.482-20.11 20.981-35.25 18.471-24.793-4.111-25.715-34.622-6.557-37.695 7.65-1.227 17.01 3.817 18.55 2.634 8.164-3.831 14.562-31.26 16.556-40.13 1.465-8.699 3.623-32.821 3.947-40.5.689-16.324.034-40.41.034-40.41l-120.64-144.33-264.24-1.136c0 0-.839 202.17-.21 305.6l74.819 71.802.947 116.06c83.6-36.483 164.52-74.8 243.74-116.24-9.189-10.98-8.922-38.639 7.826-49.1 24.659-15.405 45.14 4.987 46.33 21.04m66.23 24.601c.561-6.545 5.426-11.925 5.769-18.581 0-1.481 1.199-3.198 5.13-1.111 5.13 2.724 6.705.805 12.502-1.864 10.288-4.737 13.235-4.629 21.16-1.46 5.127 2.744 6.703 2.726 11.502.236 6.579-4.345 13.565-5.753 19.349-3.725 8.628 3 11.626 4.663 16.55 2.28 2.478-1.2 5.582-5.694 6.126-5.358 3.542 5.261 2.827 13.545 5.089 18.205 4 7.907 2.44 13.572-2.278 9.683-9.918-8.176-17.645-8.378-31.876-4.854-8.328 2.062-12.515 3.666-21.744 2.573-28.594-3.389-30.532-2.533-36.34 1.351-5.646 3.774-9.983 4.159-10.932 2.624m76.75-51.822c-8.255-2.063-17.69-9.568-24.526-7.557-8.425.57-13.232-9.369-8.905-14.811 7.396-7.199 18.88.061 23.342 3.441 9.687 7.358 11.07 7.941 14.984 7.941 16.08-.317 13-15.34 5.23-20.82-4.611-4.834-5.066-7.966-4.087-9.147 1.592-1.918 6.181-.303 11.209 4.992 9.627 9.04 9.853 27.05-1.957 32.499-5.875 3.28-9.734 4.851-15.29 3.462m33.557-52.08c-7.483-5.421-20.801-17.587-24.281-21.92-5.882-7.325-8.233-12.01-7.498-17.892.572-4.576 1.268-7.301-1.673-8.815-3.123-1.607-6.124-8.523-5.517-12.154.168-1.01 3.69-.404 5.824 2.26 2.702.438 2.14-1.168 5.075-3.11 30.574-20.521 55.11-16.565 84.12-2.463 8.419 4.04 30.39 20.704 18.619 15.298-.701-.322-8.41-3.66-16.189-7.584-25.16-12.04-53.18-19.336-76-3.856-3.927 2.748-6.301 4.861-3.247 4.861 12.83-2.495 25.513-7.831 38.688-6.998 19.644.257 31.529 9.952 46.26 16.648 15.993 7.143 19.08 9.587 13.249 15.484-1.646 1.818-2.966 1.766-10.688 1.174-8.303-.636-8.993-.397-13.663 2.594-12.247 7.844-28.15 12.13-42.28 10.94-16.644-1.398-18.427-2.732-18.769-.336-.219 1.532 3.356 4.184 8.286 8.696 3.741 3.424 8.769 8.467 9.209 9.243 1.389 2.45-4.95 1.245-9.528-2.071m-4.67-26.632c-.034-1.969-3.703-10.534-5.892-12.747-2.101-2.124-3.751-1.295-8.222 1.854-3.364 2.369-3.722 4.237-.626 6.986 6.58 5.844 14.799 7.308 14.74 3.906m25.06 1.178c6.717-3.252 13.554-14.776 10.449-18.518-1.848-2.227-3.451-.113-6.977 6.136-1.688 2.991-4.592 6.783-5.836 7.654-5.489 3.845-12.733.255-15.782-8.226-1.841-5.12-3.777-8.376-5.922-6.432-3.873 3.511.514 16.17 8.211 19.447 4.549 1.935 11.142 2.221 15.856-.061m20.896-1.892c6.814-2.105 10.07-5.169 9.495-8.14-.474-2.461-5.382-5.364-8.71-5.364-1.494 0-4.417-.065-5.466 1.332-2.318 3.086-5.997 12.451-6.163 13.464.792 2.063 3.1 1.1 10.844-1.292m23.545-50.777c-33.976-12.996-60.812-18.208-93.13-4.429-10.352 4.495-16.258 4.961-16.777 1.298-.438-3.092 7.01-12.249 15.06-16.478 22.559-10.317 49.643-11.288 72.34-.398 8.483 4.151 32.29 21.07 32.29 22.611 0 1.687-2.151.375-9.786-2.604m397.68 380.71c8.094-4.268 11.815-12.657 6.86-17.612-1.455-1.455-3.486-1.444-5.171-1.444-2.831 0-24.09 5.695-28.21 7.901-2.69 1.44-1.711 3.953.853 6.274 1.187 1.074 2.066 3.371 2.25 5.882.237 3.227-.404 6.145 1.731 5.645 4.338-.996 11.181-1.95 21.686-6.645m-30.21 7.782c2.309-4.195 1.326-9.95-4.731-13.481-3.157-1.633-5.654-.76-8.192 2.863-6.02 10.976 8.927 15.69 12.923 10.618m-30.33 5.15c1.299-14.03.666-55.46.666-55.46 0 0-7.546 6.373-12.304 6.594 1.745-6.06 3.638-8.287 6.348-14.225 1.552-6.292 2.413-17.418 1.979-23.779-.475-6.967-5.387-7.153-.325-19.674 2.586-6.396 3.053-13.13-.301-21.05-1.445-3.91-1.912-6.156 1.854-11.11 3.499-4.606 2.117-6.91 2.051-16.513-.092-13.308-.0001-15.473-4.04-4.737-6.02 8.892-8.787 7.19-17.954 6.12-8.87 19.876-19.242 40.713-19.649 57.845-.256 10.743-.398 12.413 6.305 35 2.496 8.409 3.352 11.209 3.497 21.375.138 9.705.863 13.12 2.34 18.48 2.625 9.533 13.309 25.301 29.533 21.14m-308.5 893.89l.037-19.982c0 0-31.965 9.857-48.19 3.794-16.704-4.518-16.651-5.349-16.321-3.537.588 3.228 12.983 9.771 24.459 12.459 8.07 1.891 24.24-.017 32.17-2.366 4.501-1.334 4.979-.079 3.178 1.3-19.598 15.32-44.45 8.266-60.07-4.448-8.341-8.175-13.935-8.219-9.431 2.759 21.448 43.46 74.7 17.821 74.17 10.02m-21.575-29.697l7.269.139c0 0-2.23-12.667-5.998-16.361-7.708-7.557-18.6-6.404-25.51 1.02-3.166 3.401-5.583 15.425-5.583 15.425l5.846.123c2.166-5.613 11.389-31.949 23.977-.345m-29.09-19.16c-4.13-1.131-13.195 2.989-17.607 5.856-1.633 1.805-1.649 2.066.297 4.628 4.236 5.578 10.711 8.242 11.169 6.156 1.88-2.94 6.574-15.504 6.141-16.64m48.03 14.09c.953-3.896-2.715-10.557-8.441-12.891-2.474-.613-4.922-1.111-4.199 1.618.806 3.05 2.518 8.06 4.116 11.407 1.162 2.514 1.903 3.779 4.343 2.827 1.917-.64 3.529-1.237 4.18-2.961m311.94-264.91l.066-33.848c-17.09 17.324-39.435 46.4-46.2 57.28zm-522.06-932.8c7.238-3.103 12.556-12.566 10.721-17.347-1.139-2.967-4.148-.589-7.188 3.807-4.891 7.07-6.129 7.839-10.43 7.839-4.577 0-6.392-1.179-9.532-7.334-2.163-5.821-3.697-6.733-5.715-4.195-.949 1.144-.872 2.784.361 7.03 3.225 11.09 11.526 14.601 21.784 10.204m19.732-3.501c8.03-2.763 9.67-3.643 9.289-6.317-.399-2.8-6.789-6.536-10.405-5.845-2.62 1.579-9.406 12.32-9.02 14.238.926 1.498 3.615.167 10.135-2.076m-46.32-4.682c-.279-2.475-.621-4.907-1.306-5.732-2.576-3.104-8.02-.912-8.02 3.035 0 2.999 4.268 6.393 7.725 6.393 2.435 0 2.083.594 1.6-3.696m45.39-20.234c11.425 4.3 17.219 4.783 11-1.059-8.543-9.477-47.704-20.301-68.72-4.835-1.495 2.134-1.186 10.304.449 9.853 17.1-11.531 38.987-10.915 57.27-3.96m-39.11-32.683c-9.598 3.194-18.614 8.217-19.767 12.888-1.86 7.531 1.511 7.609 14.06 3.66 16.17-5.294 34.26-2.896 48.04 5.066 10.465 7.612 13.564 5.093 11.796-1.3-5.852-21.17-38.563-24.978-54.13-20.313" fill="#131f67"/>
   <path d="m2924.16 750.5l-70.61 69.963.989 82.8c7.095 13.01-108.97-37.1-127.3-52.27 2.126 55.31 77.61 118.32 126.7 141.38l1.344 175.62c0 0 19.753-7.66 30.625-11.438 8.05-2.797 26.465-2.531 32.531-5.438 9.635-120.39 17.856-277.03 5.719-400.62m-392.72 86.66c-6.878.117-11 1.982-10.906 6.406-2.07-.345 26.09 103.38 38.906 146.69-24.948 25.21-50.986 68.999-13.719 109.53 7.954 8.651 22.517 15.975 36.37 24.281 6.173 5.991-75.78 58.82-148.72 58.844-23.38-51.27-56.05-22.921-74.06-5.03-14.07-1.236-66.6-32.524-93.47-50.44-.43-.286-.147-7.704-.094-9.06 1.869 12.221 105.27 38.59 109.94 26.344-2.985 0-46.38-29.351-58.844-58.31-15.907-32.665-28.656-77.53-28.656-77.53-5.786 16.593-3.806 39.585-19.75 47.812-4.773-54-81.88-26.46-43.5 26.344-21.564 6.326-40 17.485-60.938 26.781 43.799 59.59 104.08 99.23 167.75 122.59-8.396 17.89-57.979 58.16-17.25 105.62 1.836 1.46-38.922 45.916-58.969 80.69-15.09 26.17-10.538 46.26-8.812 46.906 55.22-63.28 86.25-116.81 86.25-116.81-.47 7.36 65.54 3.377 64.44-56.06 1.459-16.04 4.361-33.427 10.531-48.31 100.73 4.739 187.33-31.14 260.53-106.5 0 0 14.91 4.254 24.312 5.719 4.715.734 11.398-2.339 12.5-2.656 4.237-.217 10.354-1.043 16.06-4.25 7.815-4.39 15.71-11.955 24.06-18.719 10.955-8.871 21.891-17.425 25.781-26.562 4.366-10.159.951-22.406-2.781-33.25-23.497-27.666-39.09 2.084-49.5-1.781-36.15-49.14-66.3-188.16-71.22-189.25-20.2-4.068-89.27-30.49-116.25-30.03m-248.12 94.88c-2.695.181-12.384 43.4-20.969 43.06-36.35-23.415-37.14 25.05-5.875 22.844 26.408-1.862 41.17-44.48 26.969-65.875-.039-.02-.082-.034-.125-.031m-388.59 82.22c1.205 262.78 5.936 525.46 12.09 788.16 23.752-5.863 41.02-10.333 64.31-.156 2.186-74.68-4.381-263.14-2.813-445.62 88.77-69.03 151.11-145.17 194.91-244.69l-135.53 63.47c0 0-44.29 63.49-58.44 67.56-2.01-9.04-4.274-116.5-2.438-162.59zm301.16 162.53l-26.625 38.531c0 0 .618 132.33 2.156 196.09 1.1 12.698 12.639 24.342 3.406 35.719 5.629 0 30.24 171.68 6.844 241.28-4.191 12.466-.268 21.274 6.281 24.12l50.75 51.5c16.01 5.314 31.597 3.24 45.03 0 48.04-43.946 116.28-120.94 116.28-120.94l-180.41-170.53c-15.471-41.36-23.719-295.78-23.719-295.78m657.47 551.87c-130.62 97.64-186.76 236.59-187.62 235.66.458 1.621-.654 7.32 7.531 2.813 33.805-18.306 120.72-57.781 120.72-57.781 20.643-24.801 36.519-48.74 60.16-72.34 0 0 2.557 107.67.469 161.69 21.32 15.85 71.937 65.37 71.937 65.37-.001-.001 13.977-764.99-16.187-784.41-29.29 5.676-43.998 16.375-54.926-17.596-7.726 155.75-.083 312.04-2.074 466.6m-283.65-430.53c-31.505 25.749-139.82 132-139.6 133.1 28.726 48.17 142.18 144.68 196.56 198.62l7.875 274.84c8-10.758 13.818-20.889 22.5-31.656 0 0-1.419-139.16-4.781-204.41-.994-19.292-5.419-34.497-4.03-36.25-15.305-79.19-21.653-166.67.001-251.57-51.37-44.24-67.69-73.66-78.54-82.68m8.435 313.91c-.081.029-.161.087-.25.188-26.595 37.875-77.44 120.1-81.09 119.91-1.076-2.46-52.55-.163-62.28 32.22-8.172 24.11-8.793 46.29-14.75 71.16-103.28-3.373-178.88 29.28-258.5 102.66-22.643.889-42.471 2.747-56.41 7.906-11.674 4.322-17.947 12.11-25.12 17.313-20.21 14.645-25.679 27.14-24.688 42.44 1.797 27.716 50.772 31.658 53.28 12.12 2.483 0 47.925 103.81 52.34 121.5 10.717 28.596 22.2 82.1 23.563 82.19 18.294 1.175 121 29.979 121.37 19.531 9.677-4.152-35.718-152.7-35.718-152.7 79.35-66.56-8.13-137.7-28.687-135.09 45.18-32.16 97.02-53.824 154.19-56.675 8.854 31.769 49.876 48.1 70.53 5.875 0 0 88.86 31.806 88.5 42.34-36.591-5.521-66.67-8.401-103.31-11.906 70.2 38.1 72.35 88.32 86.69 138.31 1.951-8.852 20.469-47.531 20.469-47.531 23.809 52.802 69.09 16.16 50.41-26.469l56.34-26.12c6.49-3.293-84.22-105.33-166.72-119.78 4.156-7.597 5.8-14.747 10.09-20.937 20.687-20.293 36.72-50.01 5.094-85.56 20.876-29.17 69.29-99.59 66.22-100.84 0 0 .942-32.912-1.563-32.03m-678.33 324.54c-.795 0-2.254 244.18-.541 365.39-2.027 5.02-3.344 31.844-3.344 31.844l75.12-70.56 2.25-91.22c19.615-4.692 141.88 57.37 132.09 57.03 9.332-3.929-56.44-128.13-133.16-141.91-1.426-70.36-2.145-150.02-4.156-171.44-26.641 5.087-68.27 21.02-68.27 20.857m666.99 146.89c-21.04 6.274-29.811 50.49-23 71.937 1.26 3.968.462 4.823 3.813.938 8.197-12.03 5.611-35.999 20.09-48.656 38.25 11.538 34.453-38.2-.906-24.22" transform="translate(-4650.83-1012.23)" fill="#e2cf00"/>
   <path d="m-1686.83 1464.63v-22.5h20.25v-121.37c0 0 .102-29.21 1.433-32.888 15.614-53.21 102.07-49.51 106.38-2.047 1.821 8.08 1.317 34.935 1.317 34.935h-22.875c0 0-.161-8.563-.468-14.888 2.963-50.4-58.22-39.932-61.26-6.083-1.266 6.074-1.397 20.971-1.397 20.971v121.37h23.625v22.5zm-883.92-105.39l99.45-150.24c118.73 39.68 239.94 40.4 362.44 20.819l109.48 129.42h-44.762l-68.906-98.4c-24.971 5.767-50.924 8.286-76.78 11.837l32.25 86.56h-35.1l-25.334-85.62c-59.43 2.305-99.91-2.988-141.17-7.82l-14.864 93.44h-35.719l24.11-96.48c-28.07-5.259-56.4-9.773-79.923-17.31l-73.01 113.79zm113.89-88.41l41.28 11.178-20.16 77.23h-75.53zm106.63 88.41l11.671-68.23c27.726 5.467 63.907 6.569 102.05 6.18l17.94 62.05zm195.43-63.26l32.57-8.629 48.823 71.886h-59.34zm257.79 51.29c-34.418-69.21-81.43-129.43-132.53-186.72 49.894-52.45 91.96-113.08 132.36-182.01 40.09 69.57 86.32 134.02 137.27 184.7-56.04 55.743-98.95 116.41-137.09 184.02m277.38-124.61c-16.58-27.1-36.42-54.2-60.791-81.3 22.247-25.02 41.642-51.812 59.1-79.82 20.12 30.885 40.862 57.688 62.18 80.78-22.536 25.2-41.45 52.814-60.48 80.35m-1010.3-360.84c158.86-184.76 137.73-378.72 49.969-535.16l18.659-19.19c101.49 166.77 123.09 403.89-63.942 587.65-1.97-11.08-4.685-33.3-4.685-33.3m633.49-207.21c22.821 38.842 36.775 78.17 60.89 117.23l-57.22 77.33zm-683.48 122.37c-1.482-121.91.37-368.92.37-368.92l53.599-40.998c64.13 77.849 99.13 283.04-16.04 419.61-8.375-6.101-31.18-3.563-37.928-9.69m761.01-24.601c-147.01-247.96-72.25-428.77 69.43-589.33.413 12.374 1.343 24.699 2.463 37.02-121.64 139.27-170.28 345.25-51.02 531.6zm-266.2-36.02l66.949-91.23c0 0 12.691-36.29 23.381-47.01l12.276-10.862c4.09 3.944 11.874 8.936 11.637 13.471-.253 4.281-6.572 26.923-6.572 26.923l-78.3 114.49c0 0-23.76-4.165-29.374-5.794m356.11-442.79c2.114-2.39 28.689 8.698 28.689 8.698l1.701 374.88-53.2 34.18c-15.437 7.84-136.06-238.18 22.813-417.76m-560.49 157.92c24.23-32.997 49.744-61.56 73.22-91.87 6.07 2.087 22.01 2.442 22.01 2.442 1.683.906-5.365 25.14-22.735 41.854-17.456 17.791-59.03 66.55-60.25 91.11-.376 7.574-17.374 16.251-17.374 16.251l-12.09-12.748c3.706-18.678 9.499-32.996 17.215-47.03m-151.09-143.8l53.31-69.16 5.317 183.75zm-182.18-407.52c50.757-54.03 95.61-116.03 137.99-180.11 38.675 63.62 81.57 128.67 135.24 181.41-48.865 53.589-95.17 117.88-135.58 181.61-38.8-62.06-82.18-126.29-137.64-182.91m-202.53 16.198c24.16-23.393 44.23-49.3 60.59-77.49 18.764 28.47 36.473 57.803 61.56 81.1-23.15 24.812-30.566 32.703-62.12 79.01-17.811-28.86-36.3-57.31-60.02-82.62m559.2-74.81l-105.55-131.93h51.11l62.859 93.36 75.29-8.595-26.495-84.77h31.19l22.03 83.41c46.18 1.095 91.32 4.688 135.14 9.08l22.523-92.48h31.768l-28.831 96.78 85.02 22.318 75.75-119.1h37.638l-107.37 153.77c-140.36-42.16-253.1-37.33-362.09-21.837m-564.45-67.4c-1.643-11.659-2.01-23.16.112-34.35h22.804c0 0-.145 8.406.173 15.556.013 45.17 54.07 39.36 62.05 10.904 2.82-10.05 2.38-26.13 2.38-26.13l.095-120.18h-23.16v-23.335h68.59v23.335h-21.39v119.85c0 0-.173.518-.057 2.59.405 7.233.64 24.57-3.196 32.704-21.672 54-100.94 41.753-108.41-.947m868.76 12.18l24.05-76.79 71.934.08-55.06 87.72zm-174.1-18.678l-15.202-58.03h126.82l-16.376 64.878c-33.495-5.655-64.08-6.735-95.25-6.848m-152.03-58.03h50.622l19.717 60.05-29.2 3.307z" fill="#d40000"/>
   <path d="m2162.63 693.36l122.23 146.23c25.464-9.109 153.82-23.753 230.82-6.186 13.414 52.56 27.612 105.65 42.625 153.5 0 0-4.81 5.612-8.281 9.188-49.17 56.664-14.368 111.4 30.628 129.25-8.113 16.853-94.34 58.811-146.85 53.821.087-.523-16.13-38.511-48.992-25.67-11.235 4.39-15.866 12.84-24.563 21.09-31.369-9.459-72.793-30.08-94.32-52.761 40.29 20.06 79.966 30.859 119.81 25.543 0 0-4.941-4.115-10.545-6.688-3.37-1.546-11.481-6.43-18.03-10.844-18.518-12.478-30.816-27.521-43.5-53.25-14.599-26.07-16.974-54.12-24.974-78.85-4.234 12.677-6.06 46.16-17.12 53.1-2.867 1.879-3.393 1.31-5.531-5.781-8.441-25.745-39.34-22.486-49.53-4.156-5.167 15.755-4.424 22.677 2.107 37.32l-18.732 10.404-.032 3.094-11.531 5.5-2.406-1.625c-53.602 25.889-106.15 52.834-160.84 77.63 0 0-29.05 48.19-55.627 67.36l-1.034-163.65-78.72-71.09-.375 38.937c0 0 3.776 3.953 5.656 5.938 1.077 273.96.175 543.47.343 792.19l.364 228.96-4.803.285-.248 26.704 5.417 1.213-.761 37.711-2.812.188-.406 23.875 4.293.671-.075 134.77-4.25 5.469.094 38.469 82.19-78.09 1.835-88.82c64.83 12.239 132.59 58.823 132.59 58.823-11.409-74.39-90.26-135.69-135.55-147.94l.143-176.26c0 0-33.664 14.04-50.3 16.195-8.236 1.167-11.407-.083-15.344-6.03-2.865-4.33-2.935-8.287-.344-17.25 1.21-4.188 1.167-5.286-.344-9.5-2.12-5.915-2.136-8.589-.062-19.03 2.173-6.135 1.217-9.408-1.063-15.09-2.448-6.082-2.639-7.217-1.594-10.719 2.754-9.228 2.915-10.725 1.469-14.844-2.828-8.05-2.921-13.87-.313-19.09 12.12-20.339 39.29-15.322 54.03-14.593 7.471 8.314 11.934 12.951 12.625.906 5.231-14.38 25.518.34 34.991 6.452 80.65-108.07 120.43-254.37 19.259-437.48l-56.28 45.04.13-56.37c74.63-47.957 158.59-157 194.95-242.98 12.09 14.169 25.974 28.09 39.06 42.37l-8.551 14.31-2.523-1.43c-23.15 44.17-86.02 127.71-87.04 126.87 23.274 43.13 43.996 86.68 61.62 130.74l4.615-2.072 4.126 13.275-8.14 2.436c27.535 90.32 28.437 173.96 7.718 251.08l4.86 20.495c0 0 29.13 28.22 36.996 36.515 20.527 19.869 43.41 42.06 43.41 42.06l26.594-26.03-1.544-2.214 233.11-231.44 14.538 13.897c-142.77 143.79-390.76 392.04-390.76 392.04l-8.594 1.25c-4.886.724-12.11 1.04-16.719.719-7.581-.528-8.512-.358-14.594 2.531-6.855 3.258-12.514 8.08-20.09 17.16-3.466 4.148-5.845 5.934-9.688 7.312-48.604 28.985-4.663 87.34 36.677 56.626 30.3 57.884 55.955 125.31 70.1 192 0 .487-5.438 2.344-5.438 2.344l-108.94 161.53h41.906l4.375-7.437h-31.406l100.22-144.75c127.5 34.73 244.52 39.669 363.28 19l103.37 125.75h-41l5.844 7.437 53.06.844-121.51-143.39c-43.506 11.626-158.26 20.978-230.24 8.796-11.02-53.47-29.17-111.59-42.598-157.84 68.7-53.771 17.12-124.75-25.278-134.65-2.058-3.888 85.975-57.4 148.69-53.692 17.959 43.13 57.28 36.745 71.4 4.65 26.01 9.549 59.759 19.08 86.55 40.39-35.731-7.831-77.13-12.11-111.2-12.631 64.812 25.13 82.994 78.08 90.98 128.03 1.404 8.283 5.844 18.977 5.844 18.977 5.521-18.03 10.03-36.664 20.906-52.1 4.994 17.663 23.392 31.38 41.938 20.875 10.755-7.79 14.501-21.17 11.09-39.656-.947-5.138-1.423-7.957-1.423-7.957l14.399-7.794 1.876 1.596c0 0 15.78-6.737 23.615-10.548 1.23-.598-1.441-3.05-1.441-3.05l145.61-68.66c-.552-.306 36.709-51.17 58.1-70.79.643 60.949.491 85.998.457 158.36l8.219 8.03c7.293 7.12 23.19 21.89 59.03 54.813 8.07 7.412 13.705 11.08 13.705 11.08l-1.104-1065.91h-1.195l-.02-20.506 1.681-.088.029-53.33-1.507-.875-.013-16.805 2-1.465.138-143.98-2.311-.397-.139-34.534-81.16 85.84.611 80.946c-36.22-4.684-81.03-27.859-111.87-46.563-9.969-6.078-15.532-7.697-15.219-4.219 4.336 48.19 74.1 121.9 127.72 141.19l.092 181.31c0 .097 12.661-6.327 20.392-9.578l1.161 3.223 17.285-7.155 1.403-3.727 14.983-1.894c.165 3.06.68 2.641.68 2.641 13.351 3.731 19.258 12.835 13.88 23.06-1.88 3.426-2.244 8.287-.688 9.563 5.785 9.13 7.301 17.17.313 25.813-2.691 4.414-2.672 6.906.094 11.594 7.222 14.566 3.118 13.605-2.312 22.281-1.227 6.557 5.96 10.831 3.594 17-1.105 4.072-5.4 8.842-8.313 11-3.414 2.473-6.219-2.125-6.219-2.125 0 0-10.817 4.639-18.594 6.125-7.648 2.48-20.814 6.922-25.375-3.375-2.613-5.899-.513-11.285-.687-17.875l-11.219-1.219-.406 29.938c-6.42 3.414-31.938-9.625-31.938-9.625-109.49 141.92-106.43 299.32-25.22 431.19.791 2.116 57.22-38.594 57.22-38.594 0 0-.115 33.373.375 51.47-71.74 59.32-141.03 139.15-190.56 237.56l-30.688-36.37c5.281-4.667 5.482-12.07 5.375-17.656l22.281-33.22.187-8.625 57.936-80.928c.907 4.841-59.777-108.64-67.859-145.59l4.02-1.091c-27.23-103.03-21.648-175.19-1.978-259.22l-5.615-5.419-76.44-76.33c-6.206 5.734-12.395 11.49-18.568 17.267-.948.887-5.607.36-6.554 1.247-40.23 37.714-78.896 75.58-117.18 114.91-.987 1.014.678 5.211-.308 6.226-38.34 39.486-78.09 76.964-116.89 116.38l-14.165-13.511c137.39-137.35 396.22-392.47 396.22-392.47 0 0 1.122-2.024 2.909-2.092 7.201-.274 13.638-1.911 20.75-3.969 8.532-1.981 9.908-2.607 13.5-6.313 2.2-2.269 5.8-5.447 8-7.06 3.744-2.751 12.32-9.959 25.719-21.625 8.189-7.132 13.24-17.511 13.06-26.781-.316-16.502-11.239-30.574-25.313-32.594-5.848-.84-17.316 2.204-23.12 6.125-4.429 2.989-6.513 4.354-8.414 3.02-28.04-56.862-55.33-128.38-66.898-187.39-.62-3.722-.285-4.821 2.75-9.5 1.888-2.91 5.994-9.331 9.156-14.281 25.06-36.24 54.13-80.27 81.41-120 4.529-6.6 13.313-19.313 13.313-19.313l6.654-10.919h-43.23l-5.335 8.5h35.585l-105.86 152.36c-195.07-63.766-354.93-23.347-358.77-22.476l-105.46-129.88h48.23l-5.843-8.5zm94.94 0l5.368 8.5h50.594l-2.869-8.5zm84.37 8.5h31.19l-1.791-8.5h-31.995zm55.817-8.5l1.979 8.5h126.82l2.252-8.5zm155.06 8.5h31.77l2.392-8.5h-31.957zm62.883-8.5l-2.724 8.5h72.04l5.398-8.5zm308.08 58.794l1.124 23.617-51.936 54.739.065 76.43-15.12-3.509-.601-78.983zm-14.563 50.34c.441 23.41-3.351 45.85 2.844 69.72 3.048 11.745 9.224 25.52 10 39.41l-17.14-.405c-2.167-7.01-3.02-14.742-5.584-23.376-6.328-21.278-11.457-43.695-6.781-66.25zm-373.91 38.18c.623 1.163 2.672 11.05 4.563 20.227 8.993 50.36 21.05 87.72 33.34 125.75 15.628 47.913 38.762 108.23 61.25 136.19 2.981 3.485 4.446 7.456 3.375 9.187-1.813 2.933-10.994-1.163-17.16-7.656-2.523-2.659-7.372-10.11-10.938-16.781-7.857-14.711-18.417-36.12-19.469-39.5-.427-1.375-4.57-11.95-9.219-23.5-8.131-20.2-12.953-34.03-19.75-56.5-5.392-17.823-10.358-36.474-16.375-55.25-9.837-30.713-15.529-55.13-21-83.37-.803-4.148-2.184-8.988-1.677-9.977 3.104-2.243 11.558-1.346 13.05 1.188m5.5 1.914c-.971-.813 8.926-.966 12.09 1.687.939.939 2.619 6.847 4.063 14.438 8.952 46.33 22.429 94.2 38.09 139.56 12.515 36.24 26.19 71.13 43.22 99.37 5.343 9.412 12.571 19.472 21.781 30.344 5.159 6.089 5.58 6.946 4.188 8.625-1.706 2.055-4.686 1.793-10.438-.938-5.361-2.543-11.169-8.119-16.625-16-1.865-2.694-4.698-6.744-6.313-9-25.12-43.43-40.37-84.69-54.19-126.59-14.168-42.968-26.905-86.42-35.563-136.5-.104-1.667-.208-3.334-.313-5m31.555 6.528c2.204 2.239 3.462 6.522 5.383 15.472 10.456 42.955 19.02 81.34 31.375 116.59 6.646 18.966 12.403 37.915 19.531 55.781 11.388 28.539 25.318 54.54 42.44 76.19 5.644 7.127 15.895 15.92 24.5 21.03 5.964 3.543 6.861 4.447 6.469 6.5-.522 1.842-6.34 2.612-8.25 2.469-9.417-1.607-23.338-8.907-27.313-14.312-28.798-31.12-49.39-82.04-64.39-123.82-25.772-71.932-46.563-161.79-42.609-158.99-.261-2.089 10.314.31 12.863 3.096m12.383 2.597c.933.017 1.984.18 3.156.5 5.38 1.469 6.079 2.222 7.375 8.156 9.207 41.08 18.964 77.3 29.844 111.75 11.07 35.06 22.466 68.13 40.22 102.81 13.02 25.313 29.498 42.803 47.22 51.656 5.089 2.542 9.63 4.983 10.09 5.437.464.456.339 1.778-.281 2.938-.937 1.75-2.01 2.105-6.344 2.031-8.04-.139-13.677-2.64-22.312-8.438-22.633-15.608-42.42-50.952-51.16-71-10.656-24.461-20.447-49.879-29.28-77.59-15.851-49.73-25.73-82.63-32.969-124.59 0-2.411 1.638-3.707 4.438-3.656m339.19 67.12l-.156 14.563c-56.99 3.782-115.42-20.314-162.39-41.998 35.386 46.93 73.15 88.57 162.39 97.17l.16 15.03c-116.23-1.646-198.1-119.35-193.79-148.69 47.805 30.881 134.17 66.59 193.79 63.919m-320.78-61.66c2.794.125 6.559 1.309 8.03 2.781 9.5 35.46 16.421 74.83 32.12 114.34 19.297 48.553 30 91.41 65.781 131.41 11.128 11.435 32.937 11.09 32.937 11.09 0 0-2.755 6.188-6.469 7.219-7.665 1.16-13.222 1.504-18.815-.299-20.723-8.755-36.564-30.89-44.748-45.888-7.664-11.241-26.365-57.56-41.781-104.78-16.783-51.41-30.611-104.87-29.03-115.62.591-.227 1.038-.292 1.969-.25m19.16 5.969c1.369.002 3.187.519 5.375 1.563 2.335 1.113 3.349 1.803 4.563 6.188.791 2.861.659 7.28 2.063 14.469 8.08 37.02 19.221 67.09 30.28 96.37 10.509 27.827 21.785 55.14 35.687 79.84 7.02 12.44 13.982 24.08 18.375 28.469 11.973 11.974 32.29 12.567 38.28.688 3.318-6.756 2.64-17.454-3.932-22.996-5.094-4.862-16.635-2.806-16.943 3.059 0 1.56 2.872.868 7.03.375 11.616-1.344 15.256 19.225.312 22.656-18.918 4.342-32.04-21.232-15.344-36.906 28.3-19.19 49.907 7.03 43.22 32.25-6.462 14.907-17.292 22.5-31.594 23.03-18.46.592-26.1-5.115-45.03-32.625-21.697-34.829-31.11-68.821-46.41-106.91-14.464-36.02-24.09-74.43-28.625-107.97.399-1.039 1.318-1.564 2.688-1.563m17.95 5.948c1.669.056 5.187.938 6.737 1.896.928.574 2.264 1.851 2.264 1.851 25.449 92.86 46.67 148.49 68.27 187.75 0 0-.352 7.22-1.788 9.27-2.575 3.676-3.834 2.772-7.188-3.03-13.593-26.311-26.532-55.36-38.594-85.31-14.194-35.24-26.785-71.73-32.12-106.44.28-4.471-.724-5.728 2.419-5.989m171.67 53.08c3.6 0 6.531 2.9 6.531 6.5 0 3.6-2.932 6.531-6.531 6.531-3.6 0-6.531-2.932-6.531-6.531 0-3.6 2.932-6.5 6.531-6.5m-528.81-1.188c-7.546 10.275-13.731 47.09-21.583 47.53-8.634-.135-19.14-5.089-25.917 2.72-8.231 9.488-3.181 19.973 6.969 25.75 4.664 2.309 14.594 2.855 20.625 1.125 24.696-8.282 34.08-48.35 19.906-77.12m553.5 9.656c5.202 0 9.406 4.235 9.406 9.438 0 5.202-4.204 9.406-9.406 9.406-5.202 0-9.406-4.204-9.406-9.406 0-5.202 4.204-9.438 9.406-9.438m-553.06 4.469c8.443 21.22-.9 46.607-11.188 55.16-9.466 7.867-24.33 8.88-32.813 1.219-7.07-6.643-3.924-22.595 9.25-21.406 4.437.143 9.712 4.174 12.688 8.438 8.584.884 18.468-42.636 22.06-43.41m585.87 5.188c5.868 0 10.625 4.757 10.625 10.625 0 5.868-4.757 10.625-10.625 10.625-5.868 0-10.625-4.757-10.625-10.625 0-5.868 4.757-10.625 10.625-10.625m37.625 7.5c5.991 0 10.844 4.852 10.844 10.844 0 5.991-4.852 10.844-10.844 10.844-5.991 0-10.844-4.852-10.844-10.844 0-5.991 4.852-10.844 10.844-10.844m-350.16 49.31c1.619-.011 2.752 1.544 3.813 4.656 2.205 6.47 2.154 7.225-1.281 11.563-33.35 46.17-2.948 93.38 45.37 98.5 4.077.289 6.123 4.874 8.281 10.219-.294 2.524-.317 2.52-11.281 2.719-7.169.131-12.915-.317-16.5-1.281-16.933-4.561-37.676-19.856-46.16-34.03-9.772-16.335-11.403-33.22-5.375-55.75 3.869-14.456 8.779-24 16.375-31.875 3.03-3.141 5.131-4.708 6.75-4.719m316.19 5.125l.562 158.41-16.875 6.156.688-168.47zm31.928 6.114c21.02 52.19 21.95 100.02 2.97 143.55l-19.17 2.773c26.293-61.31 15.11-105.2.252-147.58zm-1008.24 8.698l68.25 64.41 2.375 717.53-10.875-3.844-4.343-705.76-55.41-50.807zm666.5 2.063c.114 0 .23.017.344.031 1.826.221 3.497 2.52 5.03 6.875 1.807 5.131 1.778 5.282-.25 10.375-9.366 22.954-1.722 44.796 21.406 51.688 5.49 1.736 6.403 2.63 9.625 9.437 2.093 4.423 3.03 6.02 2.219 7-1.202.876-4.143 1.284-12.844-.594-34.412-11.742-46.901-49.38-31.25-79.25 1.953-3.413 3.738-5.271 5.375-5.531.117-.019.23-.034.344-.031m-274-2.844c0 0 7.192 25.395 6.5 31.16-1.822 11.13-17.638 28.914-31.469 35.406-12.832 4.913-32.21 2.443-40.31-6.094-29.453-34.467 25.493-69.07 39.31-33.19 8.301 23.544-25.47 29.11-26.969 11.03-.001-4.664 1.5-6.123 5.844-9.156 3.863-2.698 3.418-5.094.094-5.094-12.753 4.648-13.04 16.408-7.309 23.817 11.49 12.01 25.711 5.02 35.507-3.801 13.195-11.877 15.783-28.925 18.802-44.08m284.95 26.2c.662 0 14.162 32.26 15.948 36.851-.448 3.237-3.974 2.999-9.995-1.204-6.115-4.269-7.941-7.285-10.531-17.188-.774-3.52-2.089-16.331 4.578-18.46m-273.98 13.616c2.968 0 6.06 10.913 4.656 16.5-2.428 9.675-27.782 26.03-45.594 29.406-3.575.678-7.4 1.396-8.5 1.594-3.684.659-7.987-1.403-12.469-5.969-3.16-3.22-4.666-6.424-3.905-7.185.619-.619 8.787.801 15.714.695 19.41.225 34.39-13.696 45.91-30.29 1.755-2.613 3.639-4.75 4.188-4.75m-385.78 8.08c0 0 13.14 11.891 20.06 18.703-.742 31.638-12.42 65.938-12.406 94.22.28 24.604 16.199 45.09 17.813 66.5.96 13.849-3.112 34.418-9.938 50-6.355 14.507-9.697 29.977-9.688 45 .808 34.954 25.914 73.17 17.09 107.75-8.286 32.484-17.719 51.24-15.219 68.5 4.823 33.28 22.52 62.782 17.813 90.47-4.383 25.781-16.03 51.53-14.781 74.78 1.438 26.846 11.477 49.29 14.312 73.78 1.846 15.948-2.658 40.762-2.658 40.762l-18.413 1.519c10.124-37.711-4.961-71.81-10.741-108.06-4.92-30.864 8.909-55.42 13.03-81.75 2.56-16.35-.336-31.924-8.438-52.75-16.01-38.454-10.255-63.52 1.281-97 14.262-35.66-5.354-63.896-10.25-98.06-2.518-29.442-.559-50.26 10.5-76.44 8.243-25.2 10.571-39.815-1.719-64-7.767-15.286-9.8-24.313-9.813-44.44 4.01-39.928 14.788-62.32 12.158-109.48m394.56 15.922c2.862 0 4.281 2.02 4.281 6.094 0 7.45-11.11 16.887-30.75 26.12-10.187 4.792-16.1 5.506-22.06 2.688-5.564-2.632-5.29-4.938.813-6.719 15.354-4.48 26.25-10.612 38.656-21.75 3.945-3.54 8.03-6.438 9.06-6.437m-88.88 5.138c50.669 54.23 100.36 82.15 138.34 95.19l-5.976 14.175c-49.91-19.331-100.83-46.23-143.96-104.03zm97.63 8.862c1.366 0 6.531 6.54 6.531 8.281 0 1.018-1.88 4.294-4.188 7.25-3.356 4.296-6.311 6.508-14.688 11.09-11.346 6.211-18.203 7.727-23.12 5.125-4.892-2.587-3.247-4.757 8.969-11.938 6.306-3.707 14.72-9.689 18.688-13.281 3.967-3.593 7.467-6.531 7.812-6.531m-134.22 8c41.511 56.798 94.96 94.54 157.81 114.67l-9.877 13.354c-57.41-19.778-113.56-55.56-164.85-118.57zm144.97 7c2.087 0 6.781 5.292 6.781 7.656 0 1.133-.919 3.21-2.031 4.625-2.221 2.823-13.808 11.538-18.75 14.09-3.863 1.997-6.763 1.967-10.969-.125-4.998-2.488-4.145-4.572 4-9.813 3.988-2.565 10.02-7.327 13.406-10.562 3.39-3.237 6.793-5.875 7.562-5.875m-166.99 4.139c-1.182 1.487-61.12 138.76-188.1 236.1l-.598-22.798c70.34-55.78 121.47-132.16 160.04-198.84zm179.05 9.861c1.921-.054 3.274 1.25 4.625 3.812 1.614 3.064-.147 5.793-7.25 11.156-4.437 3.351-6.084 4-9.75 3.938-9.449-.169-9.213-2.447 1.156-11.719 5.381-4.811 8.749-7.12 11.219-7.187m245.22 6.781l26.469 2.031c7.13 4.96-103.46 77.34-180.12 70.844l2.031-17.344c67.31 1.918 153.47-52.4 151.62-55.53m-227.05 6.775c6.079 3.409 13.655 7.442 11.768 8.756-2.817 1.76-20.772.619-24.906-1.594-3.096-1.657-2.922-2.523 1.344-7.313 5.225-5.868 6.131-2.998 11.795.15m-235.95-4.307c-41.946 73.998-91.9 141.54-149.73 185.55l-.771-39.14c55.04-42.37 96.7-119.76 96.8-120.03zm525.36 4.717l12.827 7.493c-79.982 74.03-166.37 105.94-249.38 97.94l6.678-14.997c134.71 10.643 224.16-89.01 229.87-90.44m19.44 2.625c0 0 4.3-.542 3.843.336-26.558 26.02-63.02 53.806-86.9 69.31-113.09 116.14-209.9 207.78-308.41 311.24l-15.747-16.478 14.258-15.09c.045-29.804 36.547-63.23 58.19-88.969 9.03-10.176 25.987-36.35 24.06-47.34-.659-2.517-.75-3.469-.75-3.469 34.23-6.834 42.42-34.588 43.16-59.12 1.598-16.403 3.785-31.3 9.312-44.78 154.91 12.411 254.72-101.63 258.98-105.63m-269.95 17.13c17.572-.059 30.852 13.844 30.813 33.563-.145 8.245-3.049 14.503-14.229 36.31-10.826 18.638-12.239 29.987-16.493 51.52l-11.01-9.893-20.03 18.05.279-26.298c0 0 6.91-8.778 18.08-21.322 14.158-15.717 26.972-35.956 26.385-47.32-.378-11.372-12.39-20.629-24.675-13.196-10.675 7.46-15.6 20.958-21.885 61.31-1.113 7.149-2.157 15.567-2.74 17.404-1.576 4.967-17.02 19.571-17.02 19.571-1.31 0-7.409-29.62-7.409-29.62l-15.597 2.577c18.08-19.62 32.1-43.28 41.21-68.06 8.375-15.287 19.04-24.432 34.31-24.594m-339.41 6.281c0 0-31.06 64.51-85.58 106.48l-.353-25.26c31.679-24.568 55.817-66.902 55.781-66.813zm747.52 1.636c-107.81 111.63-248.51 317.18-73.892 605.96l23.07-26.618c-140.61-261.17-40.961-396.53 51.593-532.36zm-582.95 9.208c31.563 22.441 64.52 44.724 107.12 58.885-2.27 7.59-60.842 56.878-18.812 102.45 1.756 2.385-2.713 8.191-9.556 16.416-20.08 27.443-40.13 46.984-56.906 77.877l-.687 58.03-16.781-14.813zm578.81 5.344l.719 33.09c-160.18 194.68-142.15 369.97-51.601 531.42l-17.345 17.595c-148.41-255.43-55.817-447.99 68.23-582.11m-395.18 19.576c-7.06 18.656-37.959 50.614-37.959 50.614 0 0 4.093-31.12 6.668-40.941 1.965-7.495 6.404-17.621 10.782-22.468 12.471-13.712 24.917 1.854 20.509 12.795m-212.53-17.499l3 260.83-22.514-22.698-3.313-199.45zm-30.411 51.04l4.478 177.1c-22.473-53.06-54.06-111.14-54.695-110.57 0 0 25.85-34.3 50.22-66.52m177.83 55.41c0 0 3.434-2.881 8.82-9.06 11.678-11.803 12.735-11.882 11.656 4.03-.415 6.12-.062 13.969-.062 13.969 6.834-3.966 22.951-23 27.503-19.57 3.521 3.307 6.363 10.202 6.435 20.913-.398 20.97-12.262 40.22-31.06 46.5-51.902 16.07-86.71-43.787-50.671-81.74 3.581-3.771 13.788-10.757 18.693-9.374 6.07 11.09 5.858 23.4 8.688 34.33m514.99-18.812c3.02 8.257 6.881 16.431 17.395 20.12-1.614 253.6-.406 702.58-.406 702.58l51 47.857-.335 20.909-67.59-61.873c0 0-3.628-529.48-.065-729.6m50.646 11.751c1.816 24.531-2.338 50.36 1.874 75.56 4.158 17.425 10.453 33.13 10.969 50.28.471 15.68-.547 24.602-7.25 46.5-4.678 15.282-5.144 17.718-6.219 33-2.524 21.273 4.351 40.551 9.625 57.5 7.01 22.475 5.056 49.653-6.156 85.5-4.04 12.9-4.807 18.341-4.219 30.03 1.548 24.543 10.32 47.876 14.781 71.969 2.416 13.806-.056 31.866-8.563 62.5-3.165 11.397-6.5 31.25-6.5 38.75 0 8.05 2.572 23.2 5.063 29.75 11.794 30.998 12.371 36.548 12.979 55.18.085 13.987-3.953 28.14-8.916 40.449-8.265 19.67-2.834 39.865 0 61.969l-20.33-17.369c-5.997-18.921-3.888-36.615 1.674-50.725 7.909-22.1 9.889-24.14 9.78-36.854-.145-16.856-9.808-36.786-13.811-48.646-7.097-21.05-7.119-41.681-.062-63.938 3.465-10.928 8.469-32.362 9.594-41.06 2.162-16.727.525-29.93-7.875-63.5-4.098-16.375-4.965-22.697-5.25-39-.264-15.1 1.928-30.799 6.781-49 6.983-28.927 6.903-46.29-2.188-73.12-7.35-22.18-9.407-37.22-7.531-54.875 1.088-10.244 3.888-19.851 8.594-29.438 8.708-21.748 10.04-42.551 3.563-63.31-11.144-42.495-10.959-64.09-9.861-102.44zm-57.13 13.906c-1.771 173.79.029 372.76.029 372.76 0 0-51.49 36.05-51.28 34.17-66.34-109.39-91.62-270.53 24.25-415.87 0 0 18.65 7.958 27 8.937m-783.02 41.43c93.89 175.31 106.11 352.41-49.13 534.11 4.999 16.06 4.179 31.03 1.691 45.682 30.27-23.562 272.98-265.98 68.57-603.52zm478.46-14.27l46.12 2.707 3.104 39.668-14.906 14.781c0 0-.274-8.199-.469-15.531-.238-8.965-1.507-16.807-2.344-16.531-.775.255-1.617 10.719-2.281 22.12l-.688 17.03-5.156 5.156c-6.878 6.868-8.266 6.331-8.531-3.344-.576-21.03-.526-22.474-2.063-20.938-.866.866-1.353 8.07-1.563 18.938-.166 8.634-.775 16.908-1.344 18.375-1.169 3.01-9.938 10.844-12.156 10.844-2.137 0-2.02-3.043-2.031-16.12-.013-11.04-1.164-17.1-2.938-13.03-.419.963-1.157 11.932-1.312 20.844-.156 8.912-.74 17.05-1.281 18.06-1.914 3.576-10.972 11.235-12.563 10.625-2.287-.878-2.856-7.426-2.781-18.375.037-5.363.876-9.889-1.188-11.344-2.063-1.455-2.433 4.748-1.875 20.5l-.156 17.12-5.781 6.313c-9.162 9.437-9.793 8.985-9.813-7.313.406-12.896-.05-18.554-2.594-17.531-2.544 1.023-1.532 7.257-1.031 19.969.448 11.362.306 17.05-.469 18.5-.615 1.15-3.587 4.502-6.594 7.438-3.01 2.934-6.714 7-7.156 7-.7-13.69-1.875-43.16-1.875-43.16l-48.09-2.125c0 0 9.847-11.69 14.03-13.938 2.172-1.166 5.568-1.304 17.625-.781 8.219.355 19.27-.342 20.25-.719 3.615-1.387-3.915-2.627-14.531-3.312-7.084-.508-8.919-.321-16.781-1.469l7-7.219 5.25-5.219 15.344.5c9.285.313 16.181.254 17.25-.344 9.08-1.79.576-3.859-9.781-3.875-10.1-.017-15.813-.035-15.813-2.25 0-2.256 11.307-12.518 14.531-13.188 1.662-.344 9.887-.683 18.281-.75 14.421-.113 19.654-.325 18.844-2.719-.811-2.394-10.361-1.688-16.719-1.969-17.654-.024-18.471-.693-6.406-11.25l5.844-5.125 11.06.312c16.697.469 24.781-.199 24.781-1.781 0-1.429-10.868-2.813-20.09-2.813-5.517 0-10 .094-10 .094 4.123-5.369 8.544-9.722 13.375-14.5l14.906-.281c10.882.163 17.566.578 17.75-1.406.184-1.985-3.899-1.968-8.906-2-6.771-.043-14.812-.625-15.875-1.688-1.142-1.142.991-4.326 5.719-8.562l4.875-4.406m-456.56.517c129 210.73 82.44 438.44-61.4 580.17l-4.22-27.652c135.79-165.13 159.5-335.63 49.65-536.25zm239.91 28.3c-23.16 34.825-58.57 69.18-71.936 97.62-2.738 3.197-3.628 10.413-7.876 11.854-2.119 0-2.813-4.02-2.281-13.313.4-7 1.053-9.352 4.438-16.187 18.277-33.368 39.46-57.34 62.844-89.03zm5.427 3.371l21.407 1.361c-4.757 15.14-11.177 25.95-18.752 35.779-9.713 12.603-21.398 25.307-35.01 40.809-19.715 22.452-29.595 45.32-28.676 55.37-4.934 5.201-8.355 8.782-14.62 14.11l-12.486-11.481c9.255-47.49 54.09-91.12 88.14-135.94m261.92 19.285l6.937.406c23.744 1.392 38.551 2.845 39.41 3.875.529.639 1.223 4.285 1.563 8.094.516 5.791.021 9.642-3.03 23.438-2.01 9.07-4.259 17.12-5 17.875-2.735 2.775-3.822.001-5.094-12.875-.768-7.776-1.073-13.443-2.094-12.813-.488.303-1.556 8.651-1.25 14.875.798 16.208.692 20.18-4.344 25.06-8.819 8.558-9.306 7.693-9.969-7.5-.275-6.301-1.776-15.494-2.219-15.938-1.91-1.909-2.548 6.825-2.563 21.594v15.75l-4.188 4.563c-5.461 5.925-7.238 6.824-9.25 4.813-1.242-1.243-.781-3.94-.781-12.938 0-10.547-1.843-16.618-3.844-14.594-.376.38-.473 10.582-.5 19.469-.028 8.888-.14 16.749-.25 17.469-.326 2.133-10.326 12.188-12.12 12.188-2.101 0-3.781-11.606-3.781-21.09 0-6.335-1.352-7.451-2.688-3.969-.334.87-.594 9.765-.594 17.75v14.5l-5.875 6.06c-7.858 8.13-9.138 7.655-9.156-3.469-.016-9.585-.658-14.656-2.594-14.656-1.109 0-1.375 4.541-1.375 15.312 0 7.389-.481 14.702-1.063 16.25-.581 1.549-3.158 4.95-5.719 7.563-2.561 2.612-5.189 4.75-5.844 4.75-1.084 0-2.631-9.08-2.219-13 .086-.825.087-6.544 0-12.719-.207-14.733.794-14.11-22.719-14.844-27.592-.866-27.993-1.032-19.688-9.06 7.887-7.627 6.774-7.344 25.06-6.125 14.685.978 16.46.915 17.938-.563.902-.901 1.405-1.877 1.125-2.156-.28-.281-5.875-.794-12.438-1.156-18.17-1.01-19.75-2.313-12.06-10l4.344-4.375h18.594c12.548 0 21.08-.551 21.548-1.302 1.204-1.949-3.771-2.437-15.704-3.136-6.409-.374-12.444-.904-13.406-1.187-3.037-.896-1.904-3.958 3.219-8.75l4.938-4.625h16.406c15.235 0 22.688-.993 22.688-3 0-1.42-3.03-1.993-10.844-2.094-11.06-.143-18.44-1.211-18.938-2.719 2.696-5.22 6.425-8.144 10.781-12.5l16.688.594c16.795.595 22.06-.001 22.06-2.938 0-1.526-7.19-2.626-16.5-2.063-5.993.363-13.25-1.071-13.25-3.188 0-.909 2.408-4.07 5.375-7l5.406-5.313 16.344.656c9.117.368 18.84.276 19.563-.219 2.718-1.857-3.577-3.31-13.844-3.906-15.831-.919-16.866-2.151-8.5-10.06zm-569.87 8.75c84.67 151.62 71.986 294.47-18.19 416.03-10.355-6.03-21.386-9.316-33.19-10.563l-2.281-366.09zm605.59 59.25c1.695-.263 1.665 2.527 1.188 8.406-.383 4.726-1.09 9.676-1.594 11-.973 2.558-1.743 2.675-9.969 1.5-9.363-1.336-9.229-3.03 1.063-13.156 4.983-4.903 7.816-7.517 9.313-7.75m-454.59 6.813c0 0 11.155-.072 16.729.129 0 0 .865 28.368 3.145 44.734l36.29 1.745-14.09 14.653-27.523-.877c0 0-8.365-40.27-14.552-60.38m432.47 17.16c5.11-.087 18.527 2.214 20.09 3.781 1.227 1.227 1.267 4.255.188 22.563-.39 6.6-.788 20.774-.875 31.5-.159 19.417-.161 19.494-2.406 19.812-2.959.42-3.296-.617-4.094-13.406-.449-7.201-1.443-13.504-2.281-13.781-.967-.321-.875 6.03-.875 19.16v16.969c-2.89 2.398-5.564 5.569-8.875 7.25-2.032 0-3.12-3.188-4.125-12.06-.999-8.816-1.975-15.03-3.156-13.06-.277.46-.163 10.06.406 17.937l1.031 14.344-6.375 6.406c-6.538 6.597-7.359 7.131-8.406 5.438-2.435-6.532 1.014-36.46-4.875-40.25-.944-.497-8.769-.712-17.844-1.094-15.324-.647-24.02-.9-26.16-2.75-1.294-1.12 5.939-9.508 9.656-11.188 2.679-1.209 5.709-1.284 18.344-.438 14.626.978 22 .871 20.06-1-.505-.487-7.952-1.579-13.781-2.156-11.759-1.166-15.906-2.35-15.906-4.531 2.738-4.857 6.092-7.718 10.125-11.875l5.688.594c3.127.314 10.525 1.105 16.438 1.781 5.913.676 17.848.787 13.03.375 1.564-1.564-4.537-3.171-13-4.219-15.955-1.976-17.401-3.781-9.375-11.688l4.937-4.844c8.38.636 16.845.849 25.16 2.125 6.082.964 9.375.621 9.375-1.438 0-1.441-3.03-1.385-10.375-2.844-2.664-.529-16.397-.327-16.625-4.375 3.24-4.488 9.04-12.668 14.875-13.03m-371.87 34.406c2.437-.135 2.557 5.798 2.813 21.469.28 17.16.557 20.12 2.031 21.594 1.409 1.406 4.927 1.891 20 2.656 23.08 1.171 23.669 1.507 15.531 9.344-5.661 5.45-5.901 4.763-10.563 4.219-12.192-1.424-30.02-1.099-30.719.031-1.204 1.949.101 2.339 11.25 3.187 13.569 1.034 17.281 1.511 17.281 3.813 0 1.014-2.311 3.993-5.125 6.625l-5.125 4.781-14.281-.563c-15.03-.608-22.75-.82-22.75 1.219 0 1.235 8.581 2.597 22.19 3.938 3.532.348 7.149.408 7.344 1 .486 1.478-6.386 9.995-10.625 13.156-3.451 2.572-4.613 1.138-19.688.813-15.389-.332-16.716.25-13.844 3.094.685.679 3.227.755 8.969 1.156 9.418.661 13.938 2.07 13.938 4.406 0 2.229-8.491 11.02-12.469 12.906-3.507 1.664-5.01 1.74-12.781.656-6.122-.853-7.284-2.134-7.125-7.875.072-2.588.525-19.353 1-37.28.916-34.61 1.204-36.37 5.781-35.719 1.955.28 2.414 2.636 2.937 14.375.557 12.492 1.08 14.969 3.156 14.969.775 0 .895-4.956.406-17-.758-18.685-.788-21.462 4.906-26.875 2.535-2.41 4.552-4.341 5.75-2.594 2.412 7.371 1.724 15.42 2.438 22.813-.068 7.443 2.828 9 3.5 1.906-.339-11.242-.426-21.331-.5-33.34l6.938-6.875c3.662-3.633 5.975-5.918 7.438-6m-44.969 14c2.755-.455 18.202-.197 20.437.313-3.885 6.142-12.16 14.13-17.812 17.656-1.424.078-2.894-14.896-2.625-17.969m437.41 33.969l3.281 23.09-25.22-1.719zm-339.81 3.75c.166-.017.323.021.438.062 1.82.698 2.338 5.154 3.063 26.594.341 10.1 1.033 18 1.656 18.75.73.88 3.872 1.313 9.719 1.313 4.745 0 13.688.299 19.875.656 13.493.777 13.849 1.345 5.813 9.281l-5.438 5.375-16.906-.687c-17.333-.704-20.22-.417-20.22 1.969 0 1.621 2.959 2.395 8.5 2.25 2.2-.057 7.713.233 12.25.656 10.123.943 10.329 1.711 2.781 9.844l-5.438 5.844-5.281-.719c-8.492-1.168-30.804-.884-32.09.406-2.081 2.081.624 2.975 10.781 3.594 15.754.961 18.5 1.427 18.5 3.219 0 .87-2.229 3.823-4.938 6.531l-4.906 4.906-20-1.031c-14.02-.238-18.813.0001-19.12.906-.543 1.576 1.756 2.067 16.219 3.562 13.883 1.436 15.904 2.868 10.625 9.438-5.796 7.212-7.976 8.03-18.906 6.969-12.03-1.163-24.316-1.19-26.09-.062-2.769 1.754.075 2.927 8.625 3.563 12.945.964 20.5 2.352 20.5 4.25 0 2.142-4.286 7.646-8.438 10.813l-3.406 2.594-14.781-1.563c-14.722-1.568-22.255-.787-20.16 1.313.61.611 6.09 1.468 12.156 1.906 11.11.803 16.625 2.241 16.625 4.531 0 .685-2.829 4.046-6.281 7.469-3.501 3.47-7.435 5.772-7.435 5.772l-45.499-4.084c0 0-2.324-8.119 2.247-30.19 4.119-19.891 5.807-24.355 7.781-20.656.548 1.026 1.058 5.856 1.438 9.156.919 7.982 2.882 13 4.063 13 1.32 0 1.314-4.744-.406-15.906-2.398-15.558-2.673-16.17 3.25-22.438 5.076-5.367 7.949-6.632 9.531-4.187.445.687 1.054 7.737 1.656 13.656 1.059 10.405 1.677 12.792 3.03 11.438.873-.873 1.52-3.852.563-19.281l-1.219-15 6.656-6.781c6.086-6.198 6.779-6.628 8-5.03.837 1.094 1.775 7.541 2.219 15.219.657 11.354 1.565 15.09 3.219 13.438.784-.784.398-26.564-.438-32.531-.546-3.898-.274-4.469 4.656-10 5.872-6.589 8.957-9.311 10.562-9.344 2.114-.043 3.267 6.428 3.281 15.03.014 9.18.734 12.815 1.594 13.969 2.203 2.958 2.458-7.409 1.938-17.656l-.594-18.688 6.06-6.06c5.737-5.737 6.2-5.988 7.813-4.375 1.332 1.332 1.244 4.504 1.781 13.937.806 13.04 3.36 19.399 4.094 10.344.384-2.048.328-6.04-.125-8.875-.453-2.838-.825-9.274-.813-14.281.02-7.635.388-9.674 2.25-12.688 2.695-4.361 10.628-11.156 13.12-11.406m262.84 14.219c0 0 10.156 8.68 10.156 11.156 0 1.103-4.02 5.873-9.469 11.219-10.04 9.853-10.99 11.545-12.156 22.12-.435 3.946-2.422 9.172-7.06 18.5-3.557 7.149-8.688 15.5-8.688 15.5-16.03 19.15-31.15 36.695-59.26 77.13-1.604 3.715-1.688 7.439-3.327 10.519-1.267 2.289-4.104 4.17-5.352 4.691-1.85.774-5.562 3.073-8.25 5.125-10.495 8.01-17.26 18.565-20.313 31.688-1.651 7.094-2.631 13.47-5.5 35.34-1.18 8.991-5.125 24.656-5.125 24.656-60.38-.857-116.91 9.603-167.31 38.04zm80.69 9.281l13.437 61.03-13.844-.281-1.375-44.31-43.19-4.125 15.438-14.938zm-65.53 5.594c3.7 3.77 8.307 7.905 11.656 12-11.547 38.603-48.12 88.69-84.44 138.37l-26.625-2.906c-.468-1.092 36.879-53.17 54.75-72.906 6.811-8.242 11.439-16.06 17.512-28.21 2.196-4.392 6.04-15.773 8.988-27.636 6.279-7.57 18.19-18.604 18.16-18.719m14.344 13.531l20.12 20.406 4.915 288.95c-31.04-24.364-67.62-42.41-106.63-56.14l6.807-15.531 7.506-8.06c26.53-28.708 20.618-59.62.438-81.47 24.585-35.853 46.859-62.56 65.59-97.56l-.25-24c-.22-22.12 1.5-26.594 1.5-26.594m-240.78 12.06c2.105-.211 2.373 5.128 2.906 20.281.499 14.163 1.093 20.872 2.031 22.344 1.258 1.975 2.471 2.146 19.19 2.656 17.644.538 21.313 1.046 21.313 2.937 0 .537-2.269 3.255-5.03 6.03l-5.03 5.03-15.719-.25c-8.375.267-18.272.103-18.531.344-1.389 1.288 3.841 3.049 11.5 3.063 4.767.001 12.349.854 13.219 1.188 2.977 1.143 1.581 4.082-4.906 10.313l-6.469 6.25-14.281-.281c-7.843-.14-17.387.088-18.625.5-4.341 1.443-2.182 2.621 5 2.719 12.01.165 20.3 1.163 20.656 3.03.173.909-2.054 4.241-5 7.406l-5.344 5.719-21-.875c-19.854.147-22.534 1.625-5.969 3.281 6.325.631 16.303 2.194 16.656 2.25.354.055.922.802 1.25 1.656.697 1.817-7.298 10.827-11.563 13.03-2.194 1.135-3.722 1.209-7.531.344-4.473-1.014-23.711-.83-25.781.406-1.739 1.04 2.034 2.236 7.375 2.344 8.04.163 17.625 2.49 17.625 4.406 0 1.573-4.073 6.62-8.406 10.406-2.01 1.755-6.773.186-20.06.625-9.1.3-15.16 1.149-15.16 1.75 0 .555 4.512 2.335 10.313 2.75 5.745.41 13.624 1.782 14.156 2.312 1.352 1.352-8.874 13.424-8.874 13.424l-43.665-.612-4.02-46.25 3.719-4.281c8.356-9.653 10.176-8.25 11.844 9.06 1.222 12.685 2.13 16.559 3.969 14.719.671-.67.398-7.909-.281-18.563-.559-8.761-1.031-16.755-1.031-17.75 0-2.41 9.93-12.842 11.875-12.469 1.908.368 2.972 4.686 4 16.531.845 9.733 1.299 12.388 3.219 10.469.897-.898 1.022-5.992.125-18.313l-1.187-16.09 4.219-5c8.463-10.04 10.126-8.918 11.156 7.375.696 10.993 1.756 16.781 3.781 16.781.678 0 .699-8.215.281-20.625l-.625-18.625 5.281-5.375c2.909-2.945 5.876-5.344 6.563-5.344 2.055 0 3.235 4.675 4.531 15.719 1.453 12.373 1.934 14.503 3.125 13.313.506-.506.398-7.994-.281-17.625l-1.469-18.438 6.438-6.531c3.547-3.579 7.104-6.372 7.906-6.219 1.937.373 3.193 5.951 3.344 13.844.14 7.368 1.395 13.709 3.03 15.344.81.811 1.048-3.724.844-16.875-.315-20.246-.832-21.791 8.281-31.28 2.434-2.535 4.02-4.17 5.125-4.281m235.74 8.272l.195 28.26c-11.327 24.24-37.501 59.755-64.03 97.87l-13.844-7.5c33.19-43.507 60.943-84.06 77.68-118.63m-378.99 8.885c.622-.001 1.316.018 2.094.062 7.162.418 7.354 2.889.687 9.125-2.793 2.613-5.97 4.688-7.187 4.688-2.064 0-2.164-.309-1.531-5.688.778-6.617 1.581-8.153 5.938-8.187m432.53 20.375l19.563 19.25 4.906 206.94-20.593 33.58zm24.503 27.28c17.634 41.498 35.958 80.41 56.24 111.96l-52.3 73.838zm-175.94 64.51c24.05-.335 46.18 18.694 48.969 38.03 5.257 22.2-6.181 46.12-24.948 53.47-6.541 2.345-10.372 2.505-10.372 2.505-2.28-13.391-1.294-26.289-4.337-39.881 0 0-11.251 14.842-17.589 20.04-3.282 1.814-4.754 2.302-4.326-1.997.218-7.516.79-24.2.79-24.2l-27.781 28.75c0 0-2.26-3.124-4.938-10.281-8.722-23.363 2.604-47.758 20.5-58.969 7.8-5.122 16.02-7.357 24.03-7.469m369.62-1.75l.531 25.298c-43.602 33.801-105.8 105.03-159.09 197.87l-23.472 9.896c36.16-86.41 112.49-174.4 182.03-233.06m.475 33.27l.463 37.703c-38.474 36.986-71.902 75.19-100.99 124.38-16.984 8.156-48.44 23.651-48.44 23.651-3.939-.956 85.7-140.51 148.97-185.73m-388.09 32.29c1.756-.023 1.666 3.377 1.115 8.29-1.247 11.131-2.551 15.173-6.625 20.594-14.09 16.636-36.481 39.26-39.531 60.31-1.541 11.243 7.236 21.765 15.857 20.688 26.788-3.35 29.667-50.945 31.926-74.43.941-5.821 1.372-10.703 2.341-12.538 5.646-7.206 11.714-14.225 19.329-19.917l3.282 36.38 15.09-5.04c-42.563 57.842-30.331 61.47-52.782 85.16-20.864 22.02-61.34-3.064-50.979-36.543 9-22.524 22.932-45.13 26.691-69.26 1.021-7.168 1.617-12.141 1.617-12.141l9.677 20.19c4.923-4.86 19.291-20.905 22.988-21.757m389.68 12.478l-.095 25.973c-19.845 22.347-36.972 39.51-57.24 70.4l-32.2 14.683c21.02-40.05 55.51-77.51 89.54-111.05m-393.46 22.917c0 0 2.136 12.13-2.572 34.15-2.233 10.441-12.282 40.924-28.17 33.739-13.489-11.915 2.949-34.02 11.228-44.46 6.406-7.501 13.356-15.607 19.51-23.427m-42.38 3.114l-8.781 18.781c-78.896.287-155.52 28.505-223.72 86.12l-17.25-5.656c72.25-68.34 161.82-101.56 249.75-99.25m82.938 14.438c88.91 29.768 129.97 73.21 163.6 118.77l-14.06 7.204c-35.24-45.608-78.74-87.34-159.73-111.48zm-101.87 28.09l-3.781 16.09c-49.794 1.494-102.34 19.16-153.47 54.656l-18.438-2.938c51.46-40.38 110.23-63.43 175.69-67.812m227.56 108.72l-15.791 7.454c-47.12-61.14-89.73-78.54-138.15-94.11l5.219-13.563c65.06 17.264 112.79 50.29 148.72 100.22m-657.1-72.09l1.365 163.14-11.361-2.271-1.617-157.77zm-26.31 8.846c-21.657 81.15-4.864 102.16 2.968 149.52l-17.934-2.87c-17.462-47.969-19.25-91.62-4.526-142.55zm544.98 12.459c1.355 1.293-1.097 5.277-4.438 7.25-3.232 1.91-2.517 1.618-7.688-.25-5.03-1.816-11.438-6.569-11.438-8.375 3.666.068 20.346-.113 23.563 1.375m15.281 1.156c2.965.36 11.548.196 12.09 2.879.198 1.601-3.169 4.199-10.05 8.902-10.463 7.146-14.02 8.552-17.09 5.156-2.909-3.214-2.057-6.545 2.844-11.06 4.773-4.399 7.535-5.895 12.219-5.875m-357.16 1.781c5.989 0 16.719 7.409 23.19 16 6.554 10.266 14.1 20.806 20.19 31.19 13.841 23.601 24.527 47.545 33.469 72.06 23.428 58.29 37.17 114.81 48.594 170.97-.215 4.731-4.319 4.644-7.688 3.531-1.756-.564-3.49-1.733-3.844-2.625-4.843-13.756-6.522-27.82-10.219-41.625-9.248-34.531-12.56-54.31-30.375-103-9.244-25.27-22.63-60.44-37.25-87.47-9.372-17.327-20.22-33.34-34.28-47.5-3.721-3.701-8.344-7.085-8.344-7.813 0-2.394 2.338-3.719 6.563-3.719m379.97 1.875c5.553 1.362 18.96 2.935 13.875 7.375-18.845 7.248-24.951 15.1-34.938 23.09-1.509 0-7.469-7.383-7.469-9.188 8.104-9.96 18.316-14.211 28.531-21.281m-352.72.062c7.876-.282 15.582 9.897 19.219 16.313 24.23 35.649 44.966 86.49 62.03 136.31 18.368 53.629 30.03 105.2 35.09 141.78-.435 1.134-2.71 1.558-5.317 1.537-4.96-.04-5.664-1.187-6.933-5.13-12.634-60.52-29.597-123-50.12-176.03-11.03-28.26-23.536-56.639-41.12-85.12-11.995-17.585-18.809-26.814-18.281-28.19.359-.935 2.339-1.406 4.656-1.406.254-.032.527-.053.781-.063m-54.16 1.063c10.629-.031 28.22 12.58 40.16 28.781 25.317 34.704 39.807 75.25 54.844 114.59 17.264 45.08 29.717 95.19 37.16 134.62 1.266 5.654 3.336 8.13-2 9.906-8.08-2.307-7.899-2.08-10.188-11.906-3.147-10.562-4.11-21.232-7.094-31.969-17.07-61.41-36.19-129.57-67.938-185.03-38.14-61.06-49.24-44.07-55.37-54.844.468-2.433 4.721-4.141 10.438-4.156m91.78 14.906c32.781 57.03 47.23 92.05 57.2 126.5 15.11 52.2 33 93.89 40.862 154.84 0 0-8.611.159-12.06-1.25-1.428-1.419-2.945-7.509-3.844-12.5-7.87-43.04-20.683-93.97-34.31-134.09-14.68-44.666-32.15-87.15-57.969-128.19-6.767-11.05-8.05-15.404-3.906-15.594 7.394.505 10.649 6.195 14.03 10.281m341.5-6.094c1.523.001 2.13-.206 4.906.75 4.34 1.495 5.724 2.438 5.969 4.156.355 2.502-2.332 3.319-10.719 5.281-6.592 1.542-19.458 8.404-28.406 15.844-4.151 3.451-7.724 7.156-8.719 7.156-2.057 0-6.969-5.406-6.969-7.656 6.849-10.467 28.653-24.831 43.938-25.531m-451.66 1.406c27.748.848 49.46 33.07 60.844 54.813 4.434 8.505 10.185 17.754 14.531 27.469 22.523 50.35 41.632 113.5 50.969 153.84 4.492 19.409 9.678 33.644 7.844 37.438-2.283 1.446-7.118.344-9.344-1.531-1.423-1.198-2.195-5.644-4.719-13.75-6.471-20.787-17.189-80.21-45.12-142.66-.624-1.395-14.14-40.9-37.5-78.37-9.509-15.257-24.887-24.842-38.906-27.969-7.06-1.151-9.154-.316-8.719-4.125.277-2.425 1.036-3.086 4.812-4.281 1.679-.531 3.446-.827 5.313-.875m173.44 128.78c-1.902 0-3.576-3.622-4.844-9.563-.623-2.923-1.473-5 4-8.437 34.425-36.607 4.825-90.35-38.438-95.03-4.01-.611-9.18-.624-10.688-1.188-2.196-1.24-6.222-9.02-7.977-12.152 59.795-14.492 123.25 71.1 57.945 126.37m297.84-119.59c3.562.894 11.31 8.091 10.344 9.656-1.162 1.88-7.867 1.944-17.531 3.656-20.561 3.642-29.376 17.04-38.938 27-2.124.647-4.01-.827-5.906-4.063-1.398-2.386-2.531-5.249-2.531-6.375 10.686-15.563 39.31-31.3 54.56-29.875m-485.34 4.594c17.482 0 34.946 8.475 44.781 22.281 35.885 53.707 76.2 173.09 85.81 231.97-.975 1.896-3.526 2.096-8.5.656-2.777-.804-2.436-1.691-4.188-7.156-11.271-42.899-23.624-84.55-38.16-122.75-7.49-19.69-16.299-38.932-24.594-56.22-5.252-10.933-15.807-30.397-19.813-36.34-9.434-17.728-28.501-22.923-40.519-17.197-12.434 6.727-13.998 22.793-4.532 29.924 7.857 5.486 20.254 4.582 24.802-3.914 1.56-3.01 1.068-6.742.062-7.688-.971-.912-2.731-.65-3.094.344.644 10.438-12.667 11.11-18.477 6.999-9.285-6.939-3.105-28.903 22.2-20.06 9.762 5.132 13.03 14.847 8.406 25.16-4.736 10.552-12.07 15.348-23.406 15.281-13.756-.248-29.351-9.898-29.469-27.25.037-12.953 6.04-23.721 17.281-30.938 4.165-2.672 5.797-3.094 11.406-3.094m148.03 8.06c42.42 1.95 61.904 51.878 39.594 82-5.69 7.199-9.287 5.887-11.719-3.406-1.194-3.818-2.518-4.39.906-7.344 19.864-19.03 3.549-56.04-29.19-57.53 0 0-6.11-8.897-6.719-13.625 2.188-.793 5.131-.097 7.125-.094m353.72 3.438c3.218.789 10.03 7.326 10.03 9.625 0 2.713-1.335 2.199-8.875.906-17.839-3.191-35.709 7.133-50.625 29.656-7.236 13.524-8.133 12.243-11.938.594-1.952-5.978-1.987-5.842 5.594-16.875 14.161-18.16 35.06-26.454 55.812-23.906m16.594 22.906c14.921 13.557 7.961 43.42-12.211 46.508-17.788 2.051-33.589-17.17-22.383-30.26 7.284-7.902 16.396-8.705 22-1.906 5.796 7.01 3.343 16.573-4.906 17.562-.963.34-1.75 1.089-1.75 1.656 0 1.75 7.319 1.27 9.813-.75 5.02-5.536 5.106-13.992.625-20.03-3.968-5.346-12.433-9.601-19.219-6.844-11.966 4.284-24.15 20.504-31.12 40.937-1.96 5.746-3.108 11.14-3.938 12.406-1.704 2.601-1.579 2.535-3.156 1.531-1.383-.88-3.938-13.389-3.938-18.16 0-3.616 3.122-13.178 7.25-21.375 12.953-24.08 42.09-40.23 62.938-21.281m-363.73-6.06c17.37 1.047 31.12 25.647 23.559 42.781-2.337 3.152-5.704 5.293-7.269 3.312-.563-.714-3.239-8.756-6.938-17.281-3.698-8.525-7.105-16.857-8.156-18.938-2.763-5.911-4.757-9.932-1.197-9.874m-118.02 14.28c19.79 35.05 36.34 75.24 50.06 114.47 10.696 30.569 19.457 60.55 24.5 87.06.478 2.676 1.141 4.079-.031 5.25-1.942 1.942-11.391-2.89-11.391-2.89-16.549-57.02-29.912-114.18-69.31-186.79 0 0-1.709-2.88-2.165-4.763-.529-4.546.796-10.298 3.568-13.519 1.115-1.19 2.621-1.275 4.766 1.184m-222.03 66.2c93.58 6.288 165.96 45.715 204.62 149.87-13.736-7.747-83.42-61.21-203.56-68.3l-.196-14.44c86.13-.702 170.14 44.12 168.39 43.47-32.04-66.06-112.55-92.82-169.51-94.57zm649.22 21.05c-5.9 9.245-5.64 8.867-8.469 16.844.328 2.585.799 18.737 1.187 28.16.495 12.01.836 17.236 1.781 18.375 1.605 1.934 4.862 2.241 6.281.5.561-.688 1.532-3.275 2.187-5.75 7.725-29.18 11.358-40.1 14.469-43.719 2.051-2.639 2.748-2.398 11.219-1.438 19.07 1.691 25.556-21.04 13.09-30.19-16.68-9.279-34.375 6.275-41.75 17.219m20.13 6.199c-13.627 11.214-14.03 27.366-18.16 42.24-2.218 10.01-5.343 15.276-6.594.188-2.323-20.936.598-36.568 9.676-48.862 5.613-9.04 14.844-15.13 23.13-15.711 17.851-1.252 19.677 12.895 14.715 20.488-3.605 5.516-13.607 7.921-22.768 1.659m-644.6 6.738c6.729 0 12.187 5.457 12.187 12.188 0 6.729-5.458 12.187-12.187 12.187-6.729 0-12.188-5.458-12.188-12.187 0-6.73 5.458-12.188 12.188-12.188m38.844 8.344c6.01 0 10.906 4.86 10.906 10.875 0 6.01-4.892 10.906-10.906 10.906-6.01 0-10.875-4.892-10.875-10.906 0-6.01 4.86-10.875 10.875-10.875m35.406 11.938c4.898 0 8.844 3.976 8.844 8.875 0 4.899-3.945 8.875-8.844 8.875-4.899 0-8.875-3.976-8.875-8.875 0-4.899 3.976-8.875 8.875-8.875m25.12 15.906c3.783 0 6.844 3.091 6.844 6.875 0 3.783-3.061 6.844-6.844 6.844-3.784 0-6.875-3.061-6.875-6.844 0-3.784 3.091-6.875 6.875-6.875m-88.03 21.871c-2.606 13.213-.565 26.798 2.469 36.16 6.934 20.18 3.78 56.29 3.78 56.29l-20.312 20.336c1.454-18.953 3.707-38.855 2.661-54.772-.723-10.563-5.501-20.438-6.743-31.04-1.15-9.811.587-29.454.587-29.454zm32.916 6.085l.709 86.14-69.53 67.37-.094-17.781 59.28-58.781-1.254-79.81zm171.46 196.42l-4.563 7.437h78.44l1.656-7.437zm101.53 0l-1.844 7.437h36.31l1.211-7.437c0 0-19.09.016-35.68 0m59.5 0l-1.156 7.437h134.81l-2-7.437zm157.56 0l2.156 7.437h35.906l-2.969-7.437zm60.03 0l2.625 7.437h61.719l-5.125-7.437z" transform="translate(-4650.83-1012.23)"/>
  </g>
 </g>
</svg>
