<svg xmlns="http://www.w3.org/2000/svg" viewBox="0 0 744.09 1052.36">
 <g transform="translate(-289.24-136.72)">
  <rect rx="10.63" width="223.23" height="311.81" x="549.68" y="507" fill="#fff" stroke="#000" stroke-width=".997"/>
  <g transform="matrix(.15516.00092-.00092.15516 605.19 620.78)">
   <path d="m2152.5-307.07l-74.28 48.42-1.031 56.47c-44.05-21.14-63.2-55.755-70.13-96.31-12.461 15.716-9.988 95.06-9.988 95.06-11.32 5.874-15.46 13.544-22.693 20.44 7.108 11.733 27.22 31.705 27.22 31.705-.141-.353-9.221 82.61 1.762 85.92 10.04-35.36 23.405-66.21 72.61-98.56 0 0 .745 131.72-2.406 258.97-20.819-14.329-64.839-40.07-93.28-66.41 36.879-47.559-.72-109.55-55.75-68.37-35.668-19.304-41.15-110.49-49.969-158.25-1.697-9.581-9.999-37.672-9.999-37.672 0 0-117.53-32.505-168-29.859 42.39 110.46 34.16 245.07-153.44 270.28-89.89 41.1-193.73 86.92-294.66 172.52-18.594 127.45-84.33 190.2-130.75 224.92.334 51.649-.345 102.78 1.781 154.91-.045.316 42.37-27.841 49.03-22.656 35.439 230.35 165.23 276.02 152.25 282.41-2.092 1.029-42.531 42.594-42.531 42.594l-158.41-104.34c-5.429 159.27-2.283 321.68 0 481.22 27.968-15.809 79.37-53.625 79.37-53.625l.781-54.19c-.238-5.149 72.03 45.14 72.21 105.05 5.627 3.827 17.957-86.21 6.729-95.95l29.625-30.563-31.906-30.719c0 0 8.098-50.984-8.439-80.35-10.716 67.23-66.53 88.2-66.53 88.2 0 0-1.087-245.75-2.531-245.97l99.56 63.03c-7.411 1.526-26.372 36.766-6.594 65.31 12.05 17.389 55.35 16.235 58.688-3.781 61.23 57.06 37.659 125.27 64.44 206.22l173.75 31.875c-71.61-132.85 6.096-284.23 146.72-273.41 26.341-10.973 50.19-26.813 50.19-26.813 0 0-17.485-28.577-39.562-55.09l-300.97-4.969 140.3-263.05-92.28-2.969c0 0 74.991-159.04 58.789-171.86-5.689-4.499-3.313-55.781-3.313-55.781l82.42 3.064c3.261-36.71-39.862-176.59-100.7-268.06l338.28 3.03-190.44 265.59 102.28 2.938-61.03 125.37 9.781 97.78-90.75 2.938c15.645 135.56 116.35 278.39 151.75 322.5 58.52-13.872 167.79-97.5 235.6-149.49 8.788-90.97 40.11-168.41 122-226.18l.25-149.76c0 0-46.739 30.17-46.727 28.09.191-32.415-16.707-99.89-47.875-160.03-33.444-64.54-88.35-122.99-100.98-126.65 29.04-43.937 41.43-47.874 41.02-48.57l158.18 101.44zm-797.28 319.32c0 0-30.764 11.709-57.5 11.344-47.906 2.469-84.44 6.333-103.87 45.625-3.948 11.961 4.703 16.369 11.06 19.5 36.11-44.836 132.08 14.388 150.31-76.47m-212.66 205.75c0 6.332 7.078 16.681 10.625 5.938 3.077-7.666 3.702-20.1.25-27.75-9.619-5.416-10.759 15.611-10.875 21.813m518.78 216.94l-46.781.219-.281 54.906 47.656 2.25zm459.53 273.34c-1.027 5.455-6.073 29.984 5.344 25.719 13.472-10.372 2-58.06-5.344-25.719m-44.04 137.84c-5.525-8.05-22.615 11.961-36.639 12.712-62.33 3.335-108.25-5-116.01 60.2 35.945-22.947 86.31-12.486 118.75-19.906 23.454-7.784 50.36-29.02 33.901-53.01" transform="matrix(.99998-.0059.0059.99998-1273.45-185.64)" fill="#e2cf00"/>
   <path d="m-154.19 1118.65c-10.369-571.63-10.352-1135.93-11.729-1701.22l1055.17-.313c-.447 564.18 2.177 1130.07 13.04 1699.82zm38.624-1100.09c.809-16.362-5.958-23.1-11.726-11.81-1.364 2.668-5.726 31.12 5.04 32 7.07.58 6.342-13.172 6.689-20.19m-16.961 19.292c-.086-3.859-2.478-5.524 2.587-39.16-10.08-3.818-18.876-20.08-11.615-30.442 2.832-4.04 1.994-4.923.806-8.295-2.934-8.334-1.449-15.15 6.274-20.523 4.936-3.433 5.147-4.339 3.533-8.809-4.158-11.519-.39-22.811 10.63-26.715 7.633-2.704 6.156-3.075 6.933-7.932 1.738-10.866 7.699-17.469 18.599-16.435 10.135.961 10.802.963 11.643-3.992 2.325-13.707 18.835-28.757 40.445-39.05 10.729-5.109 28.548-8.791 62.727-8.9 19.575-.456 43.968-3.214 57.59-15.327 2.246-2.123 5.352-7.684 6.451-6.936 2.563 1.743 2.02 15.379-2.906 27.838-14.359 36.31-34.03 46.4-89.79 46.4-16.629-.694-41.11 1.7-51.43 12.334-3.072 3.294-5.116 6.4-3.946 8.08 23.12 3.139 46.9 13.423 60.972 58.922 41.715-29.943 108.21-75.82 190.77-117.42-10.265-54.41 36.921-63.09 63.48-52.41 0 0 .653-3.556-.397-7.672-1.023-4.01-2.522-9.246-7.45-15.985-1.245-2.456-8.711-7.096-7.267-10.808 2.365-6.08 1.286-7.741-3.823-13.297-3.315-3.605-1.174-11.375-.392-14.507 1.01-5.843 4.802-14.189 1.388-17.309-5.276-4.822-23.19-12.935-32.435-19.411-10.218-7.34-10.455-13.998 4.313-38.42 6.707-14.187 13.04-29.418 18.388-39.614 8.101-15.418 8.888-25.555 3.871-34.34-6.552-11.472-5.557-25.13-5.406-24.779 0 0-61.705-86.7-87.12-120.78l-286.28.756 1.046 654.52 50.757-47.37-13.476-15.753c-1.837 9.203-.068 18.19-11.403 18.775-3.862.15-7.444-1.441-8.08-5.242m175.27 871.67c1.479-25.889-11.162-68.19-29.993-97.43.937 22.283 2.7 49.53-1.646 71.35zm452.15 64.873c-2.259-.713-21.05-1.75-32.861-2.307-39.14-1.846-64.66-20.462-81.77-46.32-4.207-6.357-2.478-6.081 6.809 1.088 26.09 20.14 50.49 32.13 71.816 28.966 30.24-4.493 46.634 6.504 42.517 19.458-.719 2.266-.976.862-6.514-.885m-102.84-57.13c-6.088-5.216-6.552-7.571.663-2.83 22.05 14.489 48.719 38.2 81.41 24.03 6.772-4.4.522-3.787-10.849-2.51-17.382 1.953-38.624-6.755-64.8-24.598-12.781-8.713-7.218-16.16 7.154-9.364 4.439 2.1 8.935 3.638 11.795 3.804 14.05-9.45 43.707-9.517 43.02-9.46 3.362-2.923-7.745-7.48-24.271-13.609-10.732-3.981-13.332-5.627-5.362-5.984 6.961-.312 17.94 3.094 25.874 8.164 13.237 8.396 19.905 13.05 23.843 13.581 6.471.472 13.08 1.364 2 6.578-5.03 2.369-4.582 2.965-3.969 8.625.959 8.847 1.488 8.745 5.602 13.724 6.932 7.549 10.02 21.661.14 12.877-2.123-.967-2.33.914-8.102 3.284-33.914 9.786-59.31-5.02-84.15-26.31m62.716 2.155c1.879-2.505 4.69-8.896 5.065-10.675-.679-4.125-4.342-2.811-6.185-.475-3.147 3.91-7.55 9.66-3.891 11.591 1.73.917 3.42 1.681 5.01-.44m-11.615-2.612l7.472-13.502c-1.872-.86-27.416 4.572-23.385 8.219 3.569 3.228 15.913 5.283 15.913 5.283m28.529-45.33c-11.685-6.16-15.16-19.574-6.51-28.543 7.271-7.538 19.679-6.974 34.571 2.073 5.242 3.184 8.457 4.796 12.02 3.459 5.973-2.24 8.281 1.103 7.816 5.797-1.023 10.332-17.09 12.954-27.303 1.23-13.505-15.499-28.02-4.544-23.678 6.695 2.211 5.723 6.44 6.591 11.305 8.716 0 1.126-4.826 2.365-8.225.574m-53.52-69.09c19.271-5.316 48.09 14.926 63.63 12.05 6.738-1.48 5.844 8.237-1.14 11.8-8.163 4.164-19.816 1.463-44.578-11.264-20.4-10.863-36.745 7.441-23.07 20.944 2.932 2.73 7.192 4.358 12.401 4.083 6.872-.363 8.905 1.502.054 3.833-5.088 1.34-14.576-.671-19.19-5.284-11.01-11.02-8.445-32.35 11.896-36.17m-408.79-57.21c-.708-22.936 11.473-35.752 11.783-35.849l-87.09-58.33 2.678 235.02c42.819-27.539 56.722-62.01 58.926-106.42 85.41 94.54 59.61 210.39 7 276.58-2.417-40.31-14.734-87.88-63.876-112.02l.197 48.1-80.966 58.13.805 53.14 191.29-.531 91.72-135.63c-17.1-61.17-14.883-112.17-26.369-140.13-8.627-22.994-24.937-52.67-35.33-47.991-35.09 28.11-69.907-4.242-70.771-34.08m73.15 26.692c30.17 21.459 38.4 56.765 44.745 88.15.208.266 16.401 106.43 16.903 107.86 2.049 5.818 1.413 11.635-3.714 16.09-27.52 38.22-81.28 120.16-81.28 120.16l531.65-.012c-28.61-41.09-51-81.76-78.15-115.52 1.122-1.816-2.251-24.966-6.787-32.431-4.672-7.688-5.761-11.727-2.668-18.803 7.67-17.43 15.536-36.33 22.631-52.32 13.572-30.648 15.15-30.914-3.696-40.728-22.337-12.832-26.331-17.02-21.749-31.848 1.67-5.395 1.873-7.548-5.03-8.915-3.195-.633-10.972-2.444-16.192-3.858-15.06-4.65-10.687-1.733-16.16 2.188-4.175 2.091-7.824-5.823-12.787-15.172-5.704-10.744-7.134-10.99 2.232-5.496 17.347 10.177 48.01 6 37.13-5.835-5.307-5.773-10.21-8.722-9.733-21.864.474-13.04.653-16.867-8.213-18.628-17.736-3.523-36.984-1.894-53.45 2.32-50.1 12.821-90.1 56.59-105.18 89.02-3.402 5.659 4.492 5.323 7.896 5.323 16.438-1.562 28.26 24.574 17.568 36.39-4.947 5.27-9.929 2.082-4.658-4.758 5.99-11.304-3.127-26.15-16.347-22.276-16.637 4.872-16.981 26.419-18.957 41.44-5.423 43.29 16.894 100.98 22.338 112.75 0 0 1.185 1.75.784 1.75-.402 0-3.03 2.455-4.157 1.187-3.881-4.357-13.828-39.684-19.259-64.935-10.645-69.856 7.06-134.25 65.02-171.11 51.31-37.479 77.31-29.628 106.56-31.517 9.967-3.655 23.798-9.188 34.27-14.396 51.37-28.456 92.98-52.7 136.63-76.8 42.36-23.392 70.67-56.6 109.41-77.47 1.762-.949 3.574-3.144 5.382-4.046 48.09-42.28 95.6-83.8 124.26-112.71 3.474-3.535 6.337-8.299 6.337-8.299l-6.317-242.31c0 0-4.885-4.01-4.885-7.866 0-8.41-3.11-6.785-20.324 5.478-21.638 15.415-23.12 14.658-23.12 14.658-12.154-111.11-72.922-220.09-146.18-283.59l2.971-4.111c0 0 24.472 15.951 36.687 23.538l-.091-15.503-29.458-18.208c0 0-2.624-2.107.209-6.01 1.558-2.144 5.583-.585 5.583-.585l23.622 17.201-.083-14.157-19.08-12.01 6.04-7.707 10.222 6.548c-4.386-11.177 1.725-10.819 8.04-3.43 2.628 3.385 6.02 7.727 7.469 11.844.554 1.572 2.201 5.426 2.201 5.426l16.746 12.305c0 0-.676-6.04-.094-7.897 2.759-8.805 23.05 19.44 20.527 20.12l17.15 12.207c4.01-6.189 19.292 6 19.953 12.05 1.358 2.626 59.08 39.28 59.08 39.28l.507-20.436 6.151-8.105.005-472.04-76.07 49.26-.5 57.15c-36.14-11.453-67.69-63.52-72.45-96.08-2.356-1.267-12.416 64.35-6.721 93.01-9.495 7.156-25.455 23.844-25.327 23.928l29.11 31.478c0 0-5.494 48.5-4 72.57 1.241 11.418 1.476 12.576 4.893 12.576 2.771 0 5.244-3.01 5.244-5.624 6.626-28.867 28.676-73.98 67.2-89.53 2.554-.093 1.31 257.16 1.31 257.16l-96.21-64.805c-4.799-4.072 6.235-3.875 12.839-25.687 17.03-56.25-43.32-75.74-66.39-43.09-3.828 0-19.935-19.664-22.376-27.904-17.933-35.605-21.566-76.06-25.2-108.5-2.165-14.75-7.726-38.918-12.301-53.46-2.444-7.767-2.721-13.384 2.413-20.661 23.548-32.2 46.33-66.02 66.13-99 18.11-24.09 14.541-25.27 14.541-25.27l-533.04 1.422 85.87 111.75 8.649 3.309c-14.733 1.987-9.646 14.848-3.84 28.678 7.136 16.997 6.379 20.522-11.269 55.731-25.873 51.618-27.308 47.11-1.1 62.882 16.188 10.228 19.13 12.467 16.844 26.501-2.288 14.03-2.974 9.701 10.348 10.768 7.124.57 12.805 1.823 16.02 3.256 3.651 1.627 6.373 3.909 11.05 2.346 7.87-2.631 8.07-.726 8.423 5.05.149 2.462 3.901 7.518 5.066 9.403 3.066 4.962 1.65 5.799-3.935 2.327-17.203-10.694-45.833-5.913-35.22 5.76 4.37 4.806 8.832 20.86 9.253 28.85.752 14.291 10.07 19.306 29.552 16.247 37.442-3.01 121.62-50 140.99-102.34-43.17 14.987-34.595-38.16-19.17-36.572 0 0-4.089 9.437-4.191 14.811-.357 18.99 15.555 20.365 26.43 6.854 4.724-7.09 10.353-33.367 7.333-62.969-3.658-35.852-18.432-75.893-21.12-85.84 62.735 147.3 6.308 212.57-80.37 255.46-33.21 14.1-37.78 14.04-57.39 15.07-13.421 1.164-25.491 7.909-38.35 12.219-74.17 35.939-165.32 80.75-246.69 147.27-58.41 43.812-104.79 83.16-150.82 133.63l1.346 260.55c13.922-2.248 36.457-15.949 49.805-23.837 15.916 97.22 66.63 209.62 149.92 276.53-.045-.03-1.935 3.688-1.98 3.658-11.852-7.771-23.696-15.501-35.17-21.446l-.524 12.404 28.01 19.02c.756 2.973-4.739 7.167-4.739 7.167l-23.12-15.773-.103 12.628 17.894 11.261c4.847 4.796-5.793 7.374-5.793 7.374l-10.603-7.592c0 0 .792 6.13.477 7.218-2.703 9.337-18.08-11.16-20.891-21.41l-15.06-8.801c2.165 6.06-3.203 6.946-7.462 5.45-11.308-5.65-10.74-15.259-13.12-20.938l-20.04-12.547c-3.322 19.04-23.776-7.629-20.607-14.06l-25.712-17.277c1.415.521-9.749 2.898-13.546.451-4.373-2.818-5.971-14.42-5.971-14.42l-15.409-9.415.098 16.64 158.58 109.33-2.251 4.296-165.4-111.74 9.56 489.13 79.988-56.03c-1.649-18.297 1.634-34.666-.005-55.52 41.42 25.439 55.41 42.83 73.927 96.66 11.598-30.773 9.353-60.22 3.904-87.45 10.5-8.695 20.722-17.14 25.947-30.19-10.01-13.604-19.736-17.38-30.26-29.994-.911-15.448 7.865-61.52-4.364-76.63 0 0-21.794 66.99-69.47 87.37-1.868-70.59-1.268-248.08-1.268-248.08 0 0 49.32 33.612 74.45 47.24 11.809 6.215 20.04 10.11 20.22 14.579.092 2.275-4.618 5.204-6.675 8.419-1.277 1.996-6.604 21.12-4.4 36.05 1.027 11 6.255 17.932 11.255 23.18 15.855 16.634 44.674 8.575 56.02-4.399m94.34-125.5l187.38-265.4c23.05 97.12 61.52 185.96 111.5 266.41zm91.79-278.34c0 0 13.03-26.21 18.995-40.11l-23.14.137 13.752-15.606 34.453-.203-18.2 39.38 14.624-.086 19.989-39.39 53.685-.317-18.545 39.38 12.366-.073 19.854-39.39 49.916-.295-17.324 39.38 11.695-.069 10.137-19.88 2.716 36.05-49.587.293 19.365-40.11-15.981.094-21.908 40.13-46.45.274 19.908-40.12-17.656.104-21.892 40.13zm152.16-141.64l19.779-42.43-15.848.094-21.913 41.562-49.51.292 19.242-41.07-12.336.113c-8.286 12.963-21.475 39.28-21.475 39.28l-52.51.31c0 0 14.687-27.912 20.463-41.553l-12.952.076-10.446 16.874c-3.75-6.253-1.402-22.94-2.066-30.01l49.49-.292-19.644 40.728 15.791-.093 21.439-40.739 52.26-.308-21.05 40.737 12.375-.073 20.873-38.51 53.17-.314-18.408 38.495 16.419-.097-7.144 16.725zm-49.35-73.45l-10.01 1.944c-13.476-109.58-74.819-221.02-100.78-267.02l301.96 2.462zm350.79-635.23c0 0-28.576 37.19-30.13 99.32l27.3-22.06c-2.112-63.02 2.838-77.26 2.838-77.26m-29.798 103.98c-.187 46.22 12.11 75.62 27.566 98.59.086-29.772 2.901-59.927 4.624-67.836zm-742.3 888.69l-98.03-66.67.087 14.739 116.51 78.14zm-17.806-35.99c-26.23-12.974-80.36-53.3-80.36-53.3l.079 13.447 86.15 59.766c1.693 1.65 3.956 1.214 4.738-.645-3.41-5.679-7.523-13.411-10.602-19.265m-24.304-58.24l-56.32-38.804.072 12.176c14.456 12.796 61.962 43.17 61.962 43.17zm-56.37-47.707l52.963 33.794-3.369-15.08-37.628-25.23zm945.39-478.36l1.389-243.04c-54.824 26.322-65.28 102.21-63.43 104.55-55.06-56.08-76.4-177.56-.125-259.79 5.926 26.19 8.09 64.23 62.59 98.68l1.092-51.48 75.79-49.04-.977-58.48-182.49-.346c-28.1 36.02-56.15 77-83.923 115.22-10.427 14.327-13.01 21.05-10.955 28.494 18.802 66.05 15.596 147.53 54.47 185.82 51.55-49.05 100.55 24.05 60.52 69.54zm-782.24 1055.53c7.143 22.09 2.582 66.763 2.13 66.766 8.344-4.6 30.725-69.38 24.888-93.64m257.1-1188.42c-12.929-3.585-22.677-9.07-36.3-7.692-10.723 1.175-14.388-2.355-7.882-8.233 8.514-7.3 16.791-10.337 32.697-2.136 47.86 24.677 49.11-11.78 27.616-14.232-6.104-.696-5.841-4.589.241-3.641 33.34 1.131 23.446 45.35-16.375 35.935zm-56-36.07c-6.325-2.265-13.966-6.072-16.769-5.301-7.07 1.945-7.338-1.949-6.521-6.565 1.971-11.145 13.364-9.192 28.466.296 21.634 13.592 29.776-6.182 10.1-16.711-6.62-3.542-4.586-4.545-.732-4.727 10.212-.482 19.914 13.367 17.271 24.758-6.763 18.285-23.484 11.235-31.816 8.25m62.953-34.06c-13.957-2.338-34.27-20.967-43.65-22.2-5.269-.568-11.458.111-13.155-1.997-5.191-6.445 9.4-6.53 10.381-8.886.003-5.462.322-8.883.094-10.747-2.595-3.473-12.823-17.364-12.51-24.12.24-.42 5.343 3.707 7.956 3.706 24.822-13.272 41.876-7.549 62.944 1.601 8.706 3.781 31.22 21.03 31.519 23.778.505 4.66-9.528-4.03-17.361-9.213-19.301-13.249-36.647-22.645-60.729-14.581-3.75 1.314-3.096 2 9.258 1.176 12.07-.806 21.99 2.837 37.479 12.812 3.85 2.479 8.502 6.719 11.27 8.02 19.468 9.137 23.749 18.205 11.38 15.816-2.647-.511-7.789-3.235-12.835-4.986-8.891-3.086-5.746-2.157-14.261 1.871-2.988 1.414-10.186 4.4-16.1 5.136-4.537.782-19.26.748-12.712 6.928 6.954 6.88 18.449 11.916 26.347 15.03 5.689 2.489 1.318 1.968-5.31.857m1.479-30.15c9.07-3.421 1.918-11-9.68-12.614-2.653-.369-8.247 12.183-8.356 14.818-.081 1.962 13.07-.33 18.04-2.204m-25.08 1.497c2.077-1.335 9-11.47 9-13.08 0-6.476-8.286-4.625-10.163 2.131-2.282 8.216-2.452 13.269 1.162 10.946m-29.35-52.04c-7.492-3.26-17.735-17.654-6.104-15.283 2.507.562 15.55 1.162 23.967 1.149 28.652-.044 57.28 12.766 75.55 31.54 10.168 10.446 10.866 18.217.575 11.04-36.524-32.394-58.78-26.2-93.99-28.446m289.61 1122.43l-10.11 5.453c.058 5.621 2.077 4.735 6.593 8.687 0 0-6.216 1.048-10.768.774-7.411-.447-9.108-.315-5.802 4.878 1.528 2.401 3.622 5.946 3.622 5.946 0 0-4.01.891-10.07-.731-9.177-2.46-13.863-1.168-10.369 3.905.964 1.4 2.817 4.03 2.817 4.03-6.695-1.478-19.01-7.38-19.01-7.38l-8.647 2.682c17.482 33.657 78.82 12 61.742-28.24m299.52-49.939c9.453-8.03 4.782-17.778-9.141-24.862-5.794-2.948-5.224-2.993-14.557 2.562-11.503 6.847-12.316 7.201-4.04 15.871 9.986 10.466 20.791 12.332 27.74 6.429m-35.401-22.329c8.718-3.927 5.475-3.253 4.83-12.382-2.611-10.509 3.341-11.277 6.23-21.12 1.187-5.379-3.344-3.369-12.12 4.898-7.243 6.156-9.396 7.662-9.396 4.686.806-2.488-5.05-8.836-10.275-9.672-4.416-.707-4-1.721.272-7.322 7.423-9.722 10.428-21.943 5.346-32.67-6.423-13.556-8.527-15.541-22.478-3.587-7.142 6.65-17.253 11.786-22.11 19.989-3.471 6.04-1.405 11.846 4.213 23.635 14.02 29.422 35.5 42.548 55.49 33.544m49.11-.036c15.372-6.127 9.06-22.722-15.12-39.34-14.574-10.02-18.689-9.89-6.301.986 7.925 6.958 9.172 9.426 5.825 14.484-2.792 4.219-5.723 9.176-2.902 13 4.443 6.03 12.01 13.452 18.497 10.868m-867.64-22.538l-16.856-10.502.086 14.5 16.853 9.931zm839.41 8.152c3.317-2.362 6.142-8.958 6.142-11.87.716-6.75-10.259-5.068-15.461 2.423-5.85 8.424 1.167 15.251 9.319 9.446m37.471-23.05c7.605-8.06 3.831-16.58-11.943-26.664-6.092-3.937-9.195-6.514-8.403 1.359.241 2.402-2.374 5.598-4.059 7.506-5.409 6.126-2.985 7.204 12.596 16.95 7.932 4.962 7.52 5.398 11.81.849m-877.03-10.242l-16.853-10.04.078 13.162 16.86 11.234zm-36.638 13.355l.14-13.201-21.844-14.338-.223 14.717zm855.62-10.385c-2.759 7.572 8.497 4.081 9.142 3.31 1.931-3.834.202-4.183-.761-4.581-1.987-.821-9.653.544-8.381 1.272m4.864-9.572c3.86-1.268 4.316-.786 3.737-7.754-.874-10.52.703-11.37 7.666-16.04 5.566-3.734 5.611-3.176 5.482-9.629-.156-7.79.36-11.146 10.598-12.794 4.191-.675 6.582-1.715 6.911-5.03.553-5.565-8.444-14.905-19.598-20.26-1.638 0-26.365 21.77-33.26 29.28l-4.212 4.589 5.128 9.471c7.995 14.768 6.731 20.232 2.196 39.906-.922 5.267 3.133 4.478 4.157-1.858 1.361-5.92 2.159-8.08 11.197-9.886m37.567-52.643c-1.843 11.947 4.384 19.249 10.186 13.287 3.157-3.244 5.67-29.612 3.439-33.781-12.07-12.764-13.17 17.621-13.625 20.494m-191.94 198.77c44.42-26.358 101.82-5.364 133.97-26.959 14.952-16.675 30.02-27.34 21.423-38.729-6.697-8.87-11.02-10.206-11.02-10.206.476.627-23.395 20.976-58.22 16.505-58.03-1.653-85.34 16.723-86.14 59.39m75.8-62.58c28.392.82 51.44-4.25 61.939-12.543 6.522-5.15 7.507-6.05-2.768-6.821-22.06-1.646-44.529-27.07-51.667-51.823-1.451-5.089-3.166-10.618-3.166-10.618-58.45 47.22-187.3 121.82-187.3 121.82 8.813 39.854-19.954 63.824-59.19 49.885-6.815-.577-5.879 8.184-4.573 11.775 2.17 5.892 6.932 10.81 7.86 11.596 5.858 4.96 6.965 8.252 6.115 13.04-.839 4.73-.754 4.568 2.566 6.321 5.901 3.115 5.624 7.605 2.47 16.882-3.38 13.05-3.599 16.324 5.797 22.468 12.09 7.669 35.791 15.996 32.369 27.659-7.757 26.434-20.613 49.22-31.888 73.974-4.202 6.859-3.226 18.14.148 23.386 4.192 8.04 3.77 17.701 9.18 25.07 29.95 43.894 55.742 82.52 83.03 122.17l283.01 1.01-10.891-652.62c0 0-43.37 43.22-43.22 46.25.184 3.616 10.301 9.208 14.636 9.903.167-1.959-.084-9.691.46-12.406.376-3.934 12.976-2.987 17.16.404 2.935 2.376 2.13 18-.75 30.733-2.356 10.416-2.02 10.554 2.478 16.539 5.479 7.292 7.397 13.495 6.732 21.775-.364 4.537-.307 8.119.996 11.11 3.064 7.04 2.234 16.978-1.065 21.62-4.786 6.736-4.858 7.757-3.786 11.335 4.03 12.402 2.611 22.991-11.211 28.453-1.77.699-3.692 3.777-4.809 6.43-5.923 19.914-17.259 19.956-32.793 14.322-10.717 42.834-55.29 53.845-87.44 52.768-33.504-1.122-67.55 1.589-82.58 23.587 3.242-51.914 26.313-77.07 82.15-75.46m100.57-86.76c5.681-2.16 6.352-8.098 1.547-11.878-7.377-5.803-15.775.195-12.28 8.632 1.959 4.729 5.214 5.344 10.733 3.246m-881.76-13.635l-22.399-15.322.211 13.841 22.315 14.14zm42.14 11.12l-15.895-18.839c-46.7-28.18-87.22-59.769-126.07-85.17l-.191 17.546 11.1 5.512c0 0 .914-3.862 1.658-6.095 1.397-4.19 14.259 7.505 18.391 16.908 1.029 2.341 3.268 7.574 3.268 7.574l14.959 8.145c0 0 .198-4.231.198-5.41 0-8.978 16.02 3.282 23.381 17.918 1.784 3.548 4.115 7.306 4.115 7.306l14.08 8.442c5.493-7.597 19.664 2.673 23.326 11.839 4.646 11.628 12.712 12.59 13.03 12.627zm-84-2.052l-.05-13.445-23.346-15.16-.216 13.632zm957.42-4.551c.586-3.531-2.975-17.24-8.2-17.977-3.267-.461-8.344 4.51-8.344 7.964 0 4.48 15.909 13.839 16.544 10.01m-19.01-16.198c5.05-5.578-1.406-12.771-9.154-10.213-9.206 3.038-5.967 11.374 4.357 11.489 2.305.026 3.691-.053 4.797-1.275m-939.75-4.346l.013-12.817-21.567-14.07-.372 12.531zm-42.27-4.275l.142-12.335-14.174-9.755.087 14.773zm.292-36.962l-14.467-9.31.079 13.374 15.11 8.524zm58.32-41.02c-1.517-3.942-7.679-16.411-7.679-16.411l-65.66-45.25.083 14.05 73.43 48.766zm-31.24-108.27l-.802-5.71-5.803 3.138zm-13.847 1.507l-9.115 5 27.734 17.803-2.299-12.76zm958.4-157.04l7.094-5.201-12.634-8.449-.89 8.652zm12.7-8.28l9.313-7.784-31.438-21.886 2.301 13.717zm22.12-11.683l-.056-9.431-50.971-33.981 3.611 17.213c8.98 5.117 19.96 12.608 31.439 20.576 7.279 5.07 7.315 7.04 15.977 5.623m-.103-17.465l-.088-14.961-58.961-38.647 4.874 17.528zm-.133-22.468l-.067-15.685-71.37-46.552 7.903 20.704zm-.233-39.4l-89.98-59.45 11.603 22.918 78.46 51.768zm-.135-22.912l-112.92-74.15 12.753 20.866 100.25 66.92zm-.144-24.325h-4.208c-.271 10.721-11.934 3.02-16.373-8.75-3.347-7.877-4.096-9.862-4.096-9.862l-22.741-15.174c.491 3.112 1.855 11.986 1.855 11.986l-15.315-9.225c0 0-4.493-14.721-4.637-14.818l-26.17-17.558c.571 3.01 1.04 7.988-.654 8.337 0 0-7.945-3.336-11.603-8.589-3.806-5.467-4.408-10.983-4.408-10.983l-21.354-13.641-5.292.601c0 0-2.878-1.926-5.587-4.093-5.101-8.992-11.01-10.317-18.09-13.947 0 0 15.07 17.388 23.14 27.664 7.401 9.49 16.351 16.241 16.351 16.241l119.29 78.57zm-.144-24.456l-9.215-5.459.758 14.47 8.544 5.732zm-926.51-26.386c.557-.912-1.798-1.944-4.413-7.606-6.477-14.02-7.134-18.919-3.805-33.712 1.588-7.06-4.831-10.04-7.729-2.51-2.255 5.861-5.794 9.172-9.203 8.765-3.216-.384-3.889.969-2.468 5.397 1.743 6.131-1.916 14.155-7.05 16.365-5.195 1.368-6.124 4.669-4.633 9.434 2.474 7.908-6.04 14.661-12.757 14.319-10.384-.529-6.257 8.896 6.307 17.821 4.653 3.305 6.735 5.095 10.367 3.392 9.415-9 26.952-21.908 35.389-31.664m901 23.69l-.603-13.797-26.22-17.482 3.325 18.449zm25.457-5.938l-.082-13.905-10.789-6.839.637 14.772zm-983.06-15.732c2.516 2.516 5 2.731 8.965.316 4.567-2.419 2.793-6.03-2.01-8.357-4.49-2.33-10.721 4.876-6.95 8.04m-7.831-6.05c-.371-2.908 3.153-6.849 5.605-7.01 5.365-.351 4.397-3.209-1.759-6.887-2.888-1.726-8.01-5.767-9.882-7.107-9.213-6.605-18.02 3.725-11.15 12.372 5.748 7.239 14.188 11.507 17.19 8.631m962.71 2.936l-2.115-15.348-23.679-15.535 1.962 16.902zm-857.59-32.373c1.271-2.14 1.65-4.174 1.506-6.745-.541-9.66-5.59-20.989-12.631-30.451-5.239-7.04-11.582-13.05-17.989-16.563-18.1-9.17-42.15-5.03-38.573 6.893 2.541 8.06 2 14.824-4.906 18.926-4.696 2.789-5.272 6.512-.289 6.49 3.616-.017 13.191-3.389 17.16-9.714 5.589-8.914 8.786-14.1 7.605.407-.494 6.07.262 5.61 9.659 5.07 12.745-.732 10.397 1.67 2.978 7.457-10.801 8.425-12.87 22.585-7.322 34.583 3.432 7.422 5.8 11.371 10.212 10.347 9.508-6.324 25.01-19.01 32.593-26.699m815.82 13.11l-23.303-15.14 1.01 16.345 25.15 14.645zm-890.98-9.696c-8.575-10.688-18.479 3.088-11.989 9.05 4.709 4.089 16.509-.196 11.989-9.05m-20.11 1.614c-1.079-3.339 5.04-8.75 5.994-10.892 2.78-6.238-22.516-23.398-30.29-13.09-5.358 7.1-1.573 14.15 13.04 23.733 8.819 5.783 13.03 5.754 11.253.253m908.69-15.724l-21.538-13.237.458 14.12 22.869 13.603zm-37.753 12.854l-.085-14.417-21.703-14.942-.265 14.928zm-840.52-12.08c3.9-3.9 2.566-5.153-5.02-4.719-4.791.274-6.265-.514-6.575 1.683-.687 4.864 7.585 7.04 11.592 3.036m-18.02-5.346c.386-1-2.34-2.959-6.787-6.643-8.486-7.03-9.469-11.428-1.38-16.995 11.531-7.935-.676-19.05-14.09-14.426-10.837 3.739-10.805 14.672-4.313 21.667 8.877 5.836 25.01 22.728 26.566 16.398m858.32-19.478l-21.347-14.449.084 14.195 21.334 12.274zm-854.4 5.972c9.439-4.881 9.875-16.986.419-12.499-3.9 1.851-8.995 6.836-8.995 9.08 0 4.362 3.757 5.913 8.576 3.421m6.789-27.824c12.232-6.667 10.321-12.781-1.956-20.371-14.973-8.467-25.327 8-12.968 19.09 6.469 5.805 7.958 5.074 14.924 1.277m15.848-11.989c19.824-21.551 33.06-20.535 59.4-20.12 67.949.211 88.58-32.386 86.3-55.14-32.925 16.591-62.45 7.961-93.85 12.893-54.16 12.424-60.37 37.965-64.06 52.582zm271.96-74.62c17.511.052 16.728.592 9.443-13.76 17.06 2.232 23.981 10.358 18.254-6.571 9.06 3.169 14.492 5.617 23.847 8.636l5.907-3.47c-36.27-34.882-76.09-4.911-65.35 30.431l13.356-6.483z" fill="#131f67"/>
   <path d="m921.2 1211.15l-.136-23.1 20.838-.123c0 0-.124 8.08-.443-75.06-.278-72.5.283-73.05 2.348-80.1 14.238-48.61 100.55-49.06 106.41 4.772.451 26.21.618 31.71.785 31.736l-23.1.136c0 0-.057-6.567-.061-10.341-.027-26.992-8.476-38.899-29.837-38.934-16.251-.027-25.281 5.868-30.31 19.19-2.822 6.49-3.082 12.535-3.042 18.427.203 29.899.783 130.05.767 130.03l23.23-.137.426 22.953zm-623.37-106.43l8.147-40.682 74.87 3.196c0 0 8.844 25.456 12.431 36.923zm-172.86.034l39.33-65.818 56.48 14.968-12.672 51.35zm109.7.338l16.671-70.11c-32.3-6.911-62.759-11.4-98.42-20.8l-57.26 91.65-34.779-.719c29.723-40.09 83.963-121.02 83.963-121.02 125.76 42.43 252.33 48.975 379.58 25.414 0 0 47.3 61.64 64.32 95.11l-33.11-1.43-41.529-68.62c-28.618 3.275-56.759 7.256-86.63 8.678l20.814 60.58-32.869.194-19-60.42c-35.846-1.175-65.951 1.799-108.94-4.666l-14.757 65.894zm236.84-1.372l-11.572-42.985 40.37-4.955c0 0 18.929 32.716 29.27 47.572zm117.56-129.72c1.795-29.979 7.627-53.54 35.23-93.46 35.29-51.02 99.37-150.4 100.92-155.06 0 0 66.908 99.1 96.84 143.88 25.534 38.37 41.21 81.22 42.2 107 1.894 49.44-29.07 80.56-70.841 85.952-28.671 3.701-58.61-22.11-61.05-52.678-.999-12.521-7.842-16.276-9.611-5.274-2.18 38.13-32.23 60.893-66.862 57.71-51.44-4.727-68.801-55.21-66.833-88.07m360.12-6.641c-13.218-4.122-22.755-17.579-24.519-34.598-2.02-19.453 4.901-39.38 28.451-75.897 11.16-17.745 22.859-36.451 32.04-55.29 14.1 20.444 21.449 36.15 35.679 57.28 32.67 51.687 39.01 79.57 22.642 99.55-11.549 14.09-36.05 14.609-46.26.971-3.064-4.093-3.814-5.969-6-15.01-.976-4.03-3.88-4.541-4.679-.822-4.112 19.14-19.953 29.24-37.35 23.816m-842.53-261.5c49.792-76.66 225.77-323.91 225.77-323.91l25.848 2.314c0 0-156.29 220.71-232.17 332.63zm-256.91-117.28l62.13 44.18 2.492 346.85-62.61 44.621zm253.5-568.96l37.887 73.07c-158.24 151.71-125.98 328.44-39.981 454.13 0 0-10.857 28.29-34.697 58.42-115.79-75.38-152.04-272.85-151.17-274.97 126.44-114.12 143.36-150.32 187.97-310.64m653.45 536.49c7.556-111.67 61.721-184.95 122.63-229.89l3.799 113.52c-39.822 38.672-81.937 78.61-126.43 116.37m-166.82-111.46c138.59-130.97 142.25-315.82 39.929-450.89l41.21-58.27c59.27 62.685 117.41 128.39 142.89 281.74-87.85 70.09-165.15 185.49-185.21 301.65zm-192.93-150.29l-.569-53.19 52.12-.569-1.171 53.11zm-110.2.235l-1.059-53 51.53.068-.485 53.738zm88.4-142.45c0 0 171.31-242.8 238.59-330.47l14.468 10.51-227.83 321.16zm-404.46-166.7c.393 95.4-60.31 171.35-122.48 221.04l.212-108.61zm35.36-173.81c0 0-125.31-165.61-139.01-237.9-4.71-44.01 20.06-90.38 63.24-96.55 33.571-4.301 66.12 19.623 70.38 53.915.789 6.742 2.331 8.567 5.874 6.952 2.574-1.173 2.958-2.528 4.02-14.193 3.03-33.21 33.865-51.771 66.01-49.14 57.6 7.03 78.15 78.83 62.27 115.23-33.517 76.849-139.78 224.53-132.79 221.68m-330.39-190.15c-4.915-19.449 2.28-44.596 16.21-50.994 20.717-9.516 40.745 2.219 44.19 20.652 1.296 6.932 4.225 6.451 5.336-.759 2.735-17.753 23.275-27.88 41.21-18.781 22.24 11.282 26.814 40.753 10.481 73.73-18.299 31.364-55.642 91.43-55.642 91.43-1.171-3.444-53.22-80.82-61.784-115.28m1199.86-101.72l2.862 423.41-58.58-34.806 2.856-355.11zm-278.09 26.715c-131.98-33.485-252.09-43.03-378.14-15.237-16.565-19.52-72.32-100.9-72.32-100.9l31.906.28 45.578 72 85.957-11.748-22.495-58.659 35.465-.055 18.01 57.55c-.184-.452 69.986.281 109.01 4.668 6.074-21.445 17.354-64.05 17.354-64.05l39.07-.254c-4.898 20.474-18.09 69.19-18.09 69.19 32.02 4.26 91.46 18.997 92.01 19.646 20.648-29.551 39.83-59.1 58.49-88.64l38.07-.408c-11.1 19.06-77.76 117.54-79.874 116.61m-921.69-76.43l23.695-.14c-.68 17.286-.3 37.852 15.669 45.15 28.338 9.479 46.992-7.762 48.748-32.602 1.106-28.465-.203-131.41-.203-131.41l-22.501.133-.137-23.275 69.09-.408.137 23.275-22.7.134c0 0 2.131 88.17.65 132.16-.844 43.4-33.898 58.26-61.28 56.843-56.73-1.788-52.25-42.37-51.17-69.863m897.08 25.815l-58.3-13.23 14.899-51.39 81.37-.527zm-334.41-16.587l-27.349-47.46 52.08-.307 17.494 41.835zm118.18-10.398l-8.112-37.869 94.59-.558-9.43 40.446z" fill="#d40000"/>
   <path d="m1415.78-376.97l84.12 121.41c.391-.391 47.14-9.31 93.09-11.563 45.685-2.239 100.16.615 100.62 2 0 0 14.377 43.4 19.25 64.719 6.436 28.478 5.759 61.25-1.031 83-9.951 31.865-15.208 41.43-37.438 63.31-16.485 15.981-39.779 33.367-63.812 42.656-33.3 13.903-36.688 13.831-56.31 14.746-12.973.606-14.297 1.109-21.395 4.791-2.189.764-3.611 3.045-5.559 3.701-1.647.554-4.76-.072-4.76-.072-108.21 47.43-192.91 100.31-256.9 147.53-.745.55-1.224 2.995-1.941 3.582-5.238 4.284-10.06 7.532-15.16 11.446-.702.538-2.275-.425-2.972.112-75.28 58-117.93 105.03-133.62 118.61l1.539 270.06c0 0 34.28-17.609 51.857-28.343 12.343 104.57 64.5 206.14 146.84 276.69l-35.719 49.25-164.62-113.34 2.281 498.28 87.53-60.781v-52.56c26.08 17.564 51.54 24.412 70.06 104.41 14.807-28.1 13.509-69.948 6.875-97.91.107 0 22.22-18.276 29-32.28l-32.531-28.844c0 0 8.428-69.865-6.906-83.938-12.135 31.713-21.812 65.32-67.16 89.78l-.562-242.72c22.598 14.313 43.973 30.44 66.31 45.12l3.079-.621 23.11 15.84c0 0-2.448 4.948-4.688 8.344-28.08 42.594 18.713 94.84 56.781 63.41 14.906-12.309 42.878 38.866 48.16 88.09 5.373 31.803 8.266 71.28 16.906 98.91 2.673 8.06 1.628 12.58-4.063 17.469-29.17 41.05-87.81 123.75-87.81 123.75h42.25l3.055-4.844h-31.15c26.828-35.694 52.42-77.28 80.25-112.12 103.69 39.03 273.55 48.04 376.12 24.375 21.19 29.709 41.783 60.856 62.16 91.12h-29.5l4.063 6.344h39.906l-84.06-123.75c-57.943 17.237-199.2 10.523-196.62 9.09 0 0-.39-.962-5.281-15-24.25-78.29-26.496-147.78 34.34-203.94 32.31-28.735 68.41-47.687 108.72-44.09 18.02-.352 18.364-1.327 25.875-4.719 4.14-1.868 12.719-3.813 12.719-3.813l40.833-22.644 5.385-1.075 11.75-6.188 2.429-2.876 18.976-9.64 2.127.172 25.656-14.761.344-2.083 10.09-6.219 2.406 2.531c2.798.233 100.57-63.926 141.34-99.69l2.531.938c47.615-38.529 112.36-99.27 131.56-122.34l-1.031-115.59-1.625-1.406-.656-128h-3.719l-.156-15.791c-21.05 7.797-44.22 27.354-45.781 26.541-13.407-108.37-63.31-208.2-144.84-281.5l34.719-47.938 161.22 108.47.438-31.688h2c1.978-121.51 3.063-436.47 3.063-436.47l-1.594-.156-.028-25.15-82.41 52.615-1.156 53.16c-36.535-11.934-59.674-55.824-67.34-94.94-10.644 4.269-15.585 45.46-11.656 97.62-11.291 6.739-18.52 14.11-25.438 23.03 8.946 11.266 18.875 20.505 29.819 29.957-2.286 4.921-7.118 74.53-2.319 83.17 2.198 6.369 9.806 5.459 9.846-1.24 11.11-54.29 62.61-89.92 65.5-86.63l-1.258 250.32-91.48-64.12c19.21-21.69 23.25-58.27-.947-76.17-24.26-17.948-48.01-2.724-53.625 8.688-29.701-19.356-39.696-91.08-44.03-119.16-1.082-13.659-4.583-32.2-8.625-48.938-2.532-10.486-5.55-20.515-5.937-29.906-.171-4.423.354-6.337 4.375-11.875l88.94-126.19-45.41-.156-.438.781 35.719.094-80.22 113.91c-120.67-37.911-245.79-47.08-379.66-23.03l-66.12-93 30.06-.125-1.188-2zm69.781 1.063l1.281 2.281 51.969-.156-.781-1.938c0 0-52.36-.187-52.47-.188m77.06.281l1 2.75 35.463.125-1.088-2.688zm181.06.969l-.363 1.25 39.08.063.344-1.25zm-119.75.031l.375 1.594h94.28l.344-1.5zm181.53.844l-.375 1.313 81.37-.063.687-1.25zm343.34 69.41l.25 17.12-54.656 34.75c-1.368 73.25-3.469 355.03-3.469 355.03l-13.09-8.594 2.562-352.84c0 0 48.36-31.08 68.41-45.47m-143.44 13.781h1.844l.562 3.969h-3.187zm3.875 10.344l1.438 5.375-8-.031 1.344-5.188zm137.97 2.781v11.188l-47.16 29.469v-11.09zm-145.56 9.313l12.344.156 2.063 6.188h-15.531zm-302.87 3.313l8.25 1.235c18.896 45.09 23.78 83.82 27.06 124.11 7.535 52.3 22.736 104.72 33.31 127l-12.09-.125c-1.397-.179-26.929-75.892-32.25-120.59-1.426-8.853-.859-17.07-1.313-25.281-2.693-34.566-7.424-60.54-22.969-106.34m15.5 1.822l10.531 1.075c7.356 32.02 18.08 62.25 22.438 94.42 6.965 51.45 10.684 104 35.5 154.72l-9.844-.094c-15.06-34.29-24.376-70.05-30.375-108.72-4.69-22.18-4.735-38.827-7.219-58.875-3.02-24.07-12.294-54.678-21.03-82.52m16 1.49l10.531 1.563c6.927 31.798 18.821 66.79 21.969 95.53 6.413 58.53 15.599 113.08 34.06 151.78l-7.375-.219c-28.523-55.25-28.977-104.48-36.969-156.25-4.706-30.49-14.682-60.988-22.22-92.41m16.781 2.469l9.313 1.438c6.468 31.635 18.08 67.44 20.781 99.53 4.783 56.799 14.856 99.8 36 145.66l-8.719.156c-25.526-44.663-28.957-99.48-36.906-155-4.39-30.666-14.288-61.53-20.469-91.78m400.16.063v13.844l-47.16 30.28v-13.656zm-384.94 2.688l9.719 1.5c6.261 30.51 17.908 63.08 20.656 92.78 4.699 50.77 14.04 102.04 34.969 149.28l-8.969.563c-22.14-47.7-31.778-91.11-35.969-145.94-2.35-30.739-14.18-68.21-20.406-98.19m256.84.156l3.375 8.219-22.594 1.094.281-9.219zm-240.84 2.875l11.563 2.25c12.247 48.669 15.457 94.75 23.801 141.01 10.425 57.48 21.409 86.37 30.387 97.09l-9.562.313c-23.341-49.763-31.609-99.24-37.03-150.5-3.199-30.24-13.12-60.04-19.16-90.16m17.625 3.281l8.813 1.781c10.51 39.777 15.245 76.98 19.868 112.99 8.405 68.38 31.19 120.39 36.04 122.8l-9.719-.438c-21.08-29.13-28.886-78.73-39.25-148.72-4.556-30.768-9.09-59.716-15.75-88.41m14.188 2.844l9.875 2.438c0 0 8.901 34.993 15.625 81.44 5.602 38.704 8.551 114.86 50.625 158.66 21 21.863 58 40.852 83.25 20.22 10.786-9.194 17.738-23.934 11.25-39.688-10.903-26.385-47.818-21.865-35.531 5.813 1.375 6.639-7.299 6.919-13.344.438-6.349-6.924-4.767-14.819-.263-22.08 9.493-15.301 34.908-16.87 49.826-3.203 23.834 23.343 13.524 63.4-16.656 76.09-34.765 14.771-79.57-15.717-97.31-44.813-29.352-50.681-33.898-98.8-40.781-149.97-3.499-27.635-10.236-56.648-16.562-85.34m14.875 4.094l10.03 2.438c.034.135 10.989 49.33 14.625 78.47 4.494 36.02 9.455 78.45 24.875 111.22 9.589 20.375 23.544 37.515 37.656 47.5 12.13 8.584 23.02 14.01 39.16 10.5 18.636-4.057 19.439-32.896 1.656-32.969-9.08-.037-3.168-8.782 4.375-9.03 26.796-.884 27.574 41.36 2.344 50.781-28.892 10.79-60.13-9.548-79.47-35.09-33.842-52.56-32.507-100.49-39.938-142.87-1.984-22.323-14.562-79.887-15.312-80.938m202.78 1.469l6.125 8.188-34.03-.156.156-7.781zm-187.84 2.719l9.594 3.344c.271 0 9.625 38.18 15.438 83.31 6.901 43.511 9.153 79.73 31.688 111.16 9.374 13.07 27.07 30.517 38.22 32.594 6.904 1.492 14.06-.031 15.812-5.281 2.875-8.598 10.248-4.647 10.406 3.156-.034 5.459-4.04 11.126-10.813 13.09-33.12 5.732-63.43-35.851-72.62-56.938-12.455-30.672-17.786-64.95-23.19-107.62-2.286-18.06-13.217-75.66-14.531-76.81m307.31 1.531l-.156 13.781-47 29.625v-13.406zm-292.87 2.688l10.75 2.938c0 0 8.964 33.581 14.312 75.06 5.426 42.07 17.08 90.94 38.844 116.22 1.98 2.422 3.332 4.141 4.188 5.563 1.559 3.437-.296 9.243-1.906 9.25-38.783-20.18-47.951-101.27-51.28-128.69-4.913-42.4-14.906-80.34-14.906-80.34m150.81 6.5l34.22.969 8.156 8.03-45.31-.406c-4.782-4.938-1.803-4.366 2.937-8.594m142.06 11.188v11.438l-47.16 29.875v-11.688zm-140.87 3.625l50.06.875 17.563 10.438-76.5-.625zm140.87 14.5v13.719l-47.16 29.563v-12.875zm-159.41 2.594l85.06.906.219 9.219-92.25-2.375zm-11.09 15.781l96.22.25.25 10.188-87.5-.844zm170.5 1.563v14.313l-47.16 29.22v-13.563zm-152.41 15l73.75.344-8 8.531-55.625-.563zm152.41 5.03v13.5l-47.16 29.656v-13.313zm-96.91 10.313l-8.938 8.688-38.22-.531 1.313-7.906zm96.91 9.469v14.469l-47.16 28.813v-12.531zm-144.59 5.281l31.531.688-4.812 6.625-27.594.125zm-283.56 11.531c4.754 36.4 31.17 109.77 31.16 109.75l-10.406.094c.518.702-18.883-46.22-25.875-90.44-.85-4.219 2.036-18.446 5.125-19.406m281.5 2.094l24.281.438-5.281 9.375-19.781-.031zm146.66 2.219v12.656l-47.16 29v-11.531zm-147.44 12.813l16.09.5-3.813 8.688-12.469-.375zm147.44 6.813v13.5l-47.16 29.25v-13.03zm-438.09 2.875c4.736 26.51 24.845 79.76 26.375 83.25l-8.906.125c-.403 1.215-20.906-47.743-23.09-68.69-1.054-4.387 1.27-13.06 5.625-14.688m290.5 5.625l9.531.438-1.625 4.969-7.719.188zm.844 11.938l4.969.125-1.188 4.719h-3.094zm146.75.25v10.906l-47.16 29.844v-10.344zm-449.91 1.188c7.155 21.25 14.307 42.903 22.781 63.62l-10.563-.25c-6.998-14.942-11.916-31.736-17.375-48.22-1.506-6.878 1.701-12.766 5.156-15.16m-10.531 14.188l17.563 49.06h-9.969c-4.101-9.868-8.717-20.901-11.95-31.06-3.31-10.534-3-10.879 4.356-18m460.44 3.063v12.938l-47.16 29.19v-11.156zm-467.79 18.979l9.629 27.18-12.313-.313c-3.609-8.553-5.815-16.02-6.72-24.349-.336-4.04-1.07-8.07 1.751-9.769 5.559-3.147 4.928-.554 7.653 7.253m-13.08 11.126l5.116 15.926-11.5-.281c-3.382-7.527-4.676-12.944-3.656-20.824 6.918-7.986 7.433-3.81 10.04 5.179m480.87-9.355v13.531l-47.16 28.344v-12.563zm-497.19 9.719l4.813 15.688-10.375-.25c-1.72-3.68-.627-8.159-.688-12.313zm-13.594 8.03c.152.007.283.046.344.125 1.482 6.941.034 7.375.125 7.313l-14.5-.094c0 0 11.757-7.455 14.03-7.344m510.78 4.063v10.813l-47.16 29.406v-10.969zm-560.72 17.12l283.37.813 9.438 13.344c0 0-27.569.75-117.87.188-76.02.98-228.78-1.625-228.78-1.625l14.875-7c20.573-.482 39.26-5.825 38.969-5.719m560.72 1.594v11.906l-47.16 28.563v-11.531zm-797.4 11.425c-22.785 10.1-44.05 12.581-59.939 11.294-34.22-2.773-86.57 11.533-97.09 44.41-3.305 11.609-3.341 11.932 2.938 17.844 3.118 2.933 6.14 5.159 6.719 4.938 5.503-4.884 12.805-13.948 20.625-16.594 10.282-3.11 15.858-3.535 32.719-4.281 36.33-1.608 44.525-3.139 53.56-5.531 19.886-5.265 39.937-24.821 41.14-46.615.138-2.497-.671-5.46-.671-5.46m-.97 2.981c-3.838 45.46-53.09 51.39-74.72 50.09-43.862-2.625-61.14 10.473-68.08 18.601-2.289 2.179-3.621 1.665-3.256-.319 5.091-25.17 45.766-26.12 66.25-25.844 50.18 2.287 62.898-21.909 61.48-22.15-3.806 1.707-6.631 3.211-10.489 5.04-1.66.691-1.307-.32-5.647-2.834-.069.329-5.03 11.58-11.435.907.163.533-4.562 9.478-13.314 1.121.06.9-5.284 8.567-13.841.725-8.05 6.89-11.876 3.097-15.334-1.745-2.536 1.523-9.993 11.585-16.206.753-6.626 4.216-9.387 8.78-15.09 6.02-13.298 2.381-24.811 16.03-29.5 28.531-1.464 4.295-4.423 4.969-4.781.25-1.576-13.04 19.889-35.633 41.44-41.874 16.755-4.853 28.18-8.356 65.01-6.949 20.941.8 47.524-10.333 47.524-10.333m537.59 3.437l13.281 9-231.16 318.72-20.406-.531zm-370.81.219h26.28v43.44h-22.656l-8.094-12.03c2.094 1.232 4.522 1.969 7.125 1.969 7.777 0 14.09-6.318 14.09-14.09 0-7.776-6.316-14.06-14.09-14.06-7.777 0-14.09 6.287-14.09 14.06 0 .691.059 1.367.156 2.031l-8.469-12.562c0 0 3.6-2.142 12.188-5.969 2.221-.99 7.563-2.781 7.563-2.781m81 0h44.531v43.44h-44.531zm97.56 0h46.09v43.719l-46.09-.281zm99.53 0h46.06v43.44h-46.06zm352.81 1.031l.688 13.563-47.16 28.656v-13.406zm-331.47 4.5c-8.229 0-14.938 6.646-14.938 14.875 0 8.229 6.709 14.906 14.938 14.906 8.229 0 14.906-6.677 14.906-14.906 0-8.229-6.677-14.875-14.906-14.875m-196.06.781c-8.229 0-14.906 6.646-14.906 14.875 0 8.229 6.677 14.906 14.906 14.906 8.229 0 14.906-6.677 14.906-14.906 0-8.229-6.677-14.875-14.906-14.875m97.12.281c-8.229 0-14.906 6.646-14.906 14.875 0 8.229 6.677 14.906 14.906 14.906 8.229 0 14.906-6.677 14.906-14.906 0-8.229-6.677-14.875-14.906-14.875m50.19 1.781c6.904 0 12.5 5.596 12.5 12.5 0 6.904-5.596 12.5-12.5 12.5-6.904 0-12.5-5.596-12.5-12.5 0-6.904 5.596-12.5 12.5-12.5m-197.59.188c6.907 0 12.5 5.596 12.5 12.5 0 6.904-5.593 12.5-12.5 12.5-6.905 0-12.5-5.596-12.5-12.5 0-6.904 5.595-12.5 12.5-12.5m296.19.438c2.969 0 5.673 1.13 7.719 2.969l-13.625 18.5c-3.372-2.02-5.625-5.691-5.625-9.906 0-6.381 5.15-11.563 11.531-11.563m-195.69.063c6.907 0 12.5 5.596 12.5 12.5 0 6.904-5.593 12.5-12.5 12.5-6.905 0-12.5-5.596-12.5-12.5 0-6.904 5.595-12.5 12.5-12.5m-150.94.906c5.148 0 9.313 4.166 9.313 9.313 0 5.147-4.165 9.344-9.313 9.344-5.148 0-9.344-4.197-9.344-9.344 0-5.147 4.196-9.313 9.344-9.313m-28.594.5c79.42 101.14 121.62 203.67 140.19 315.41l-13.313-.625c-22.07-121.53-71.75-225.76-139.12-309.87zm325.37.094c5.447 0 9.875 4.397 9.875 9.844 0 5.446-4.428 9.875-9.875 9.875-5.447 0-9.875-4.429-9.875-9.875 0-5.446 4.428-9.844 9.875-9.844m-196.06.781c5.447 0 9.875 4.397 9.875 9.844 0 5.446-4.428 9.875-9.875 9.875-5.447 0-9.875-4.429-9.875-9.875 0-5.446 4.428-9.844 9.875-9.844m97.12.281c5.447 0 9.875 4.397 9.875 9.844 0 5.446-4.428 9.875-9.875 9.875-5.447 0-9.875-4.429-9.875-9.875 0-5.446 4.428-9.844 9.875-9.844m247.12 7.06c5.234 40.03-5.1 65.872-35.625 70.06-38.921 5.343-43.97 8.272-44.19 45.12-.258 43.682-6.716 56.3-37.656 59.75-34.808 3.885-42.903 8.01-39.781 51.28 2.278 31.576-10.167 45.01-36.969 50.875-20.957 4.584-39.1 11.599-46.875 32.719l-19.16.25c4.976-33.26 38.41-49.15 59.844-50.25 23.1-5.48 27.93-13.225 24.19-53.719-2.817-30.487 8.37-39.751 44.19-46.719 28.635-5.644 35.652-13.863 34.09-37.28-3.342-50.21-.04-57.768 28.5-63.875 14.541-3.444 38.22-4.987 47.25-16.09 10.268-12.633 7.651-23.387 6.719-38.906zm183.97 1.344v13.12l-47.16 29.09v-12.781zm-693.09 7.781c-10.09 43.535 24.588 52.997 45.688 60.34 24.545 8.547 30.505 20.932 27.719 64.19-2.108 32.721 1.498 39.952 22.688 51.19 32.411 16.722 41.12 40.49 26.719 75.28-8.876 21.45-4.215 27.465 1.406 46.19l-15.719-.156c-1.148.359-14.419-23.352-3.094-48.875 13.419-30.24 13.04-45.42-16.875-59.03-23.14-10.529-30.25-20.459-31.687-42.12-.606-9.123-.542-13.668 1.594-33.5 2.693-25-6.22-35.76-43.19-49.5-16.473-6.122-27.662-20.369-31.03-42.969-.945-6.326-.094-13.625-.094-13.625zm552.87 4.719l140.59 93.53-.969 20.813-149.16-99.66zm-90.59 2.063c6.801 0 12.313 5.513 12.313 12.313 0 6.799-5.512 12.313-12.313 12.313-6.802 0-12.31-5.513-12.312-12.313 0-6.799 5.511-12.313 12.312-12.313m-442.31 5.375c6.173 0 11.156 4.985 11.156 11.156 0 6.172-4.983 11.188-11.156 11.188-6.175 0-11.185-5.02-11.188-11.188 0-6.172 5.01-11.156 11.188-11.156m672.72 1.313l-.469 12.531-46.28 28.625v-12.531zm-733.69 8.75c42.514 55.41 84.31 112.51 116.53 220.09l-13.75 5.281c-26.604-86.59-67.53-158.53-115.78-218.03zm111.04-.53h320.3l-8.219 11.06-306-3.125zm623.05 10.405v13.719l-35.469 21.594-10.438-6.813zm-752.91 1.469l6.281 8.25c0 0-6.802 5.337-14.5 10.844-20.972 15-23.697 16.704-25.09 26.469-3.318 23.19 20.527 34.627 44.47 21.22 8.585-3.924 27.406-15.844 27.406-15.844l5.406 7.969c0 0-26.978 20.18-42.812 24.781-34.732 10.09-60.667-33.925-35-60.06 3.923-3.995 12.213-9.361 18.812-13.625 6.769-4.373 15.03-10 15.03-10m142.97 5.469l295.12 1.75-188.47 257.59-8.375-.469c-14.61-96.35-50.846-180.52-98.28-258.87m-128.69 10.906l17.25 24.09c0 0-11.248 10.752-29.813 20.906-14.888 8.142-30.991-6.659-21.625-20 9.616-13.248 34.19-25 34.19-25m738.62 2.469v12.563l-20.438 12.531-9.344-5.969zm-740.78 9.656c-8.184.433-21.755 9.713-26.375 17.719-1.986 3.442-1.272 6.327.563 8.688 2.791 3.592 6.093 3.387 15.906-1.844 20.04-10.679 23.796-17.02 14.969-23.281-1.219-.865-2.678-1.25-4.313-1.281-.252-.005-.486-.014-.75 0m-.656 5.156c1.295-.124 2.791.267 4.03.156 3.465 1.425 2.404 5.734-1.219 6.75-.795-1.258-6.808-1.425-6.406 4.688-1.463 3.463-1.403 3.198-5.813 3.688-2.924-.707-4.867 1.315-5.438 2.594-3.04 1.626-6.772 1.118-7.469-.719-.672-1.78 1.824-6.919 3.937-6.906 1.017.081 2.826-1.434 4.688-2.688-.066-3.343 3.861-3.827 5-3.813 1.114.234 4.876.284 6.687-2.781.519-.642 1.224-.894 2-.969m741.44 3v19.375l-14.813-9.469zm-818.87 2.438c53.746 63.47 92.46 131.01 117.09 224.5l-10.781 7.438c-16.283-65.54-41.35-134.81-115.53-224.84zm628.84 1.063c24.333 20.667 124.06 114.53 143.06 281.12l-13.344 8.188c-10.716-87.93-45.31-188.74-138.34-278.09zm-48.09 5.781c6.799 0 12.312 5.513 12.312 12.313 0 6.799-5.513 12.313-12.312 12.313-6.801 0-12.313-5.513-12.313-12.313 0-6.799 5.512-12.313 12.313-12.313m-595.72 4.813c0 0 11.299 11.61 11.281 14.375-.036 5.472-4.386 8.574-30.344 18.03-4.382 1.596-23.559 6.02-23.559 6.02l-.697-9.301c9.784-3.528 36.05-9.821 37.975-15.401.94-2.194-3.739-7.75-2.75-7.75zm179.07 2.364c6.175 0 11.156 5.02 11.156 11.188 0 6.172-4.982 11.188-11.156 11.188-6.172 0-11.188-5.02-11.188-11.188 0-6.172 5.02-11.188 11.188-11.188m452.4 3.198c81.25 79.36 125.96 177.42 136.41 278.69-94.62 76.952-158.9 173.7-184.44 294.72-12.62-21.04-23.359-45.23-35.03-68.875 126.25-110.95 152.82-310.75 43.625-450.81zm-496.87 15.12l5.687 8.813c0 0-1.188 1.083-18.875 12.06-25.872 16.06-30.14 26.534-21.5 42.969 8.831 16.805 18.68 17.702 46.47 4.25 9.814-4.751 18.16-9.75 18.16-9.75l4.438 9.219c0 0-12.441 10.121-36.406 18.906-22.537 8.262-43.842-5.814-47.844-31.844-2.914-18.922 5.342-29.07 38.22-47.719 3.699-1.958 11.656-6.906 11.656-6.906m387.12 4.188c6.802 0 12.31 5.513 12.312 12.313 0 6.799-5.511 12.313-12.312 12.313-6.801 0-12.313-5.513-12.313-12.313 0-6.799 5.512-12.313 12.313-12.313m-502.06.467l7.439 7.01c0 0-3.208 4.717-21.531 15.739-16.47 9.909-18.17 8.304-9.966 15.232 15.288 12.915 36.498 41.513 36.38 48.903-.111 7.118-6.484 13.678-18.71 19.18-6.693 3.01-33.18 12.457-37.07 13.13-7.733.846-9.913 3.947-2.176 10.979 13.14 15.07 24.355 47.33 19.847 57.17-5.079 11.08-11.167 12.954-59.838 15.183-5.545.254-8.192-1.316-5.187 5.781 2.186 5.156 4.475 12.241 8.812 34.12 3.867 19.517 3.203 28.29-4.375 32.31-4.355 2.31-38.2 1.497-52.19-1.25-16.01-3.145-17.747-3.357-15.16 7.06 3.357 14.391 5.448 52.963-5.438 60.41-4.53 2.949-9.405 2.225-29.28-4.469-12.677-4.269-23.656-9.156-23.656-9.156l.219-11.969c10.334 4.254 38.662 16.488 46.719 12.625 9.556-13.687-3.711-61.69-8.781-71.969-6.119-12.275.278-14.955 14.375-7.344 7.399 5.213 71.13 30.345 67.51 7.863-3.886-21.333-10.816-45.616-24.26-60.864-12.433-14.1-6.245-19.869 7.593-13.687 24.487 10.94 75.09 8.26 72.57-3.081-3.333-18.444-20.09-43.45-43.02-62.833-6.377-5.39-6.616-7.7.906-9.03 21.42-1.706 82.72-8 74.15-22.394-7.352-11.78-17.17-24.803-25.537-31.814-13.734-11.514-27.586-16.511-33.727-18.905l.393-8.826c27.918-2.319 42.43-10.724 62.988-25.12m-67.59 8.689c-10.01 104.94-53.913 191.41-144.53 251.72l-.5-11.75c79.67-59.84 117.91-144.89 128.28-227.19zm193.06 6.594c.036 0 .055.017.062.031 0 0 14.58 26.21 14.563 28.594-8.653 8.02-31.366 19.757-40.656 17-14.33-4.567-16.573-19.855-2.813-28.875 11.886-8.655 26.693-16.19 28.688-16.719.066-.018.12-.032.156-.031m-116.12-1.632l7.452 6.678c0 0-1.914 2.91-12.639 11.485-8.345 6.421-5.432 3.888.249 11.529 5.059 6.06 14.06 18.252 14.06 18.252l-2.688 16.219c-9.431-13.432-17.253-23.21-31.25-37.563-7.11-7.328-6.714-7.527 3.438-12.813 7.607-4.206 13.8-9.316 21.375-13.788m203.44 10.45c6.172 0 11.153 4.985 11.156 11.156 0 6.172-4.985 11.188-11.156 11.188-6.172 0-11.188-5.02-11.188-11.188 0-6.172 5.02-11.156 11.188-11.156m-90.37.932c-10.644 2.807-21.08 12.313-26.938 16.5-2.134 1.525-.453 9.18 1.594 11.813 2.63 3.379 7.479 2.816 13.281-.406 2.432-1.351 6.828-3.557 9.75-4.906 8.183-3.778 11.61-6.6 11.313-9.75-1.312-4.238-4.657-13.557-9-13.25m.594 4.844c2.991.124 5.147 3.976 4.188 6.25-5.129 2.773-7.974.427-7.313 4.313 0 0 .51 6.05-7 6.188-1.831-.801-5.02-.656-6.562.906-5.249 2.173-9.833-2.42-4.125-5.03 1.545-.706 5.357-1.899 6.406-4.25.543-2.914 2.954-5.242 5.594-3.625 1.405.101 4.546.321 5.562-1.906-.389-2.503 1.387-2.717 2.656-2.813.206-.026.394-.04.594-.031m-214.79-.778c2.298 11.778-4.808 32.462-8.831 44.12-23.834 31.18-58.39 47.12-91.25 58-7.301 2.424-17.11 1.198-17.11 1.198 45.47-46.772 84.45-81.06 117.19-103.32m-83.05 10.59c.322-2.623-11.662-5.801-12.813-4.156-2.212 2.075-5.734 34.568-3.438 36.906 3.192 3.249 12.01 4.14 12.845.271 2.759-12.748 2.087-22.271 3.405-33.02m203.78-.969l7.781 9.656c-16.485 156.58-128.33 292.04-247.75 345.75l-.344-10.375c136.61-71.75 218.82-191.22 240.31-345.03m540.47.656l14.813 20.375-21.22.656zm-748.2 3.782c-.124 5.356-.735 16.476-2.801 22.687-1.289 4.834-5.03 3.733-6.438-.719-1.466-4.627-.244-17.766 2.527-23.15 2.956-5.077 5.298-4.226 6.711 1.185m113.03 2.844c7.327 0 46.24 23.943 41.04 35.87-4.139 9.492-36.706 10.263-51.636 8.933l2.251-9.148c0 0 4.549 1.586 21.898-.25 18.22-1.217 16.881-7.472-4-20.688-8.987-5.624-11.07-7.01-11.07-7.01zm107.83 12.843c12.06 20.321 23.465 43.22 34.19 68.875-147.11 138.81-135.69 327.86-42.937 451.94l-39.969 53.938c-79.915-76.25-123.43-170.06-138.12-269.69 116.65-83.925 171.46-209.16 186.84-305.06m546.28 6.156l8.781 16.781-21.09-.344zm-91.09 8.406c6.801 0 12.313 5.513 12.313 12.313 0 6.799-5.512 12.281-12.313 12.281-6.802 0-12.31-5.482-12.312-12.281 0-6.799 5.511-12.313 12.312-12.313m-342.28 3.313l4.188 9.531c.196 1.195-29.763 10.653-39.41 22.813-8.906 11.23-8.07 22.947-3.062 31.03 8.54 11.525 14.594 13.14 29 8.719 11.748-3.602 20.377-8.464 32.03-14.406l1.844 4.813c.017-.254-16.727 9.833-29.5 17.03-4.795 2.702-10.562 3.839-15.563 3.719-29.06-.7-44.46-38.2-20.5-60.34 3.511-3.245 15.382-9.749 25.375-14.906 6.651-3.433 15.594-8 15.594-8m384.72 5.906c95.95 138.39 30.26 290.04-31.688 343.69l-1.656-16.281c104.31-118.81 68.03-257.57 24.563-319.25zm61.75 6.219l7.531 17.09-22.281-2.344zm-386.73 5.599c6.172 0 11.188 5.02 11.188 11.188 0 6.172-5.02 11.156-11.188 11.156-6.172 0-11.153-4.985-11.156-11.156 0-6.172 4.985-11.188 11.156-11.188m313.55 2.182c84.1 122.17 37.19 316.97-123.22 376.31l-.813-13.656c163.56-68.38 179.62-250.41 113.91-353.12zm-364.53.75l10.625 28.688c-13.369 8.955-18.616 10.481-33.594 14.12-11.804 2.696-21-17.713-11.937-25.531 10.349-8.924 21.491-12.783 34.906-17.281m-272.75.094c1.977-.093-.111 4.802-5.188 17.09-11.184 27.08-11.929 27.661-40.09 32.12-14.656 2.323-25.583 2.907-36 1.906-15.717-1.51-22.434-5.953-12.25-8.094 29.53-6.491 62.17-21.786 83.41-36.594 5.532-3.969 8.772-6.374 10.125-6.438m534.52 3.334c7.636 0 13.841 6.208 13.844 13.844 0 7.636-6.208 13.813-13.844 13.813-7.636 0-13.813-6.176-13.813-13.813 0-7.636 6.176-13.844 13.813-13.844m-418.05 3.83l-1.183 10.653c0 0-17.06 9.01-25.14 12.411-6.176 2.499-6.6 3.053-4.62 8.772 3.994 11.425 11.688 25.594 11.688 25.594l-7.128 16.15c-4.352-14.525-8.932-29.871-16.934-43.4-7.587-10.585-9-11.9 2.805-14.11 15.251-5.132 27.12-8.849 40.51-16.07m152.34 3.461c-8.346.365-25.774 7.385-27.5 14.09-.979 3.79.105 9.09 3.313 10.281 8.677 3.221 26.09-3.918 30.688-10.438 1.43-2.01-.746-6.179-2.281-8.781-1.172-1.988-.949-5.299-4.219-5.156m.438 5.719c.148-.015.29-.014.438 0 1.414-.123 6.561 6.392.781 5.844-1.991-.189-3.804.554-5.438 2.25-.2 3.128-4.683 4.315-6.844 3.25-1.608-.792-3.864.843-4.094 1.813-3.245 2.339-7.351 2.225-7.875.563-1.099-1.166 2.179-5.958 5.03-5.781.614.038 2.638-1.33 4.531-2.969.907-3.268 4.356-2.703 6.531-2.531 2.465.991 4.72-2.213 6.938-2.438m451.78.5l6.156 17.12-22.03-1.969zm-94.69 19.73c-4.562 5.811-8.761 5.872-15.412 5.563 5.447 6.449 7.849 15.364 2.544 21.21-8.06 8.222-23.622-4.378-22.469-5.531l27.915-37.2c7.405 2.101 11.506 9.02 7.422 15.959m-606.19-9.701c0 0 33.931 29.23 34.17 42.33.095 4.992-1.507 6.612-5.497 7.935-13.33 4.419-50.43-6.947-50.43-6.947l4.765-9.05c5.84 1.61 34.583 9.05 37.05 5.39 2.566-3.8-24.01-29.726-24.07-29.755zm168.41 12.22l4.063 14.12-13.875-3.438zm541.84 2.531l3.625 19.531-22.22-5.188zm-423.56.313l3.312 11.469c-147.39 68.34-190.42 225.29-113.56 354.81l-8.688 11.938c-102.88-166.71 1.318-335.9 118.94-378.22m-132.78 12l2 17.406-17.12-1zm-202.83-.457c2.916.041 3.47 1.612 3.46 3.332-.014 2.347-14.884 21.338-19.704 25.612-10.452 4.222-50.781-12.627-56.803-25.665-1.187-3.818 2.795-2.138 11.726-.322 22.625 6.452 45.551-2.408 61.32-2.957m392.66.224c6.173 0 11.188 4.985 11.188 11.156 0 6.172-5.01 11.188-11.188 11.188-6.174 0-11.156-5.02-11.156-11.188 0-6.172 4.982-11.156 11.156-11.156m-464.26 13.752c11.218 10.08 27.703 18.422 42.32 21.331 9.101 2 6.461 2.941-1.978 11.656-7.894 8.248-7.245 9.293-15.282 5.217-13.411-6.801-27.997-22.256-27.409-30.662.245-3.499.854-7.56 2.349-7.543m837.15 1.887l2.781 18.563-21-7.281zm-583.59 6.688l6.844 16.625-18.625-.531zm473.31 15.875c-.014 2.324-.563 6.25-.563 6.25 10.952-6.971 25.495-1.247 25.06 10.02-.61 15.879-8.372 16.03-21.06 13.921 6.947 11.52-1.297 22.617-14.356 18.371-11.907-3.871-9.614-16.43-4.05-23.871-28.09 4.58-35.595 44.533-3.156 56.41-6.521-10.09-8.14-22.14 6.01-24.17 13.14-1.881 18.703 8.08 13.03 20.07 12.343-4.291 23.977 2.782 20.261 14.804-4.488 14.518-17.395 13.513-25.01 4.67 5.467 13.16-7.189 22.642-16.734 17.543-15.05-8.04-7.611-22.383 2.474-26.2-38.755-3.992-47.748 49.609-19.18 57.25-7.335-4.599-8.164-25.707 8.58-22.816 16.444 3.308 12.532 18.585 1.985 25.531 12.732-2.718 24.655 8.409 16.906 19.656-9.135 13.259-21.729 3.804-26.406-5.219 1.471 12.1-6.23 19.805-16.13 15.267-17-7.791-4.438-27.3 8.854-26.05-26.967-15.933-63.63 17.486-42.03 45.16-.84-12.569 5.421-22.886 14.06-21.462 7.602.857 14.251 9.519 12.11 16.327-1.99 5.806-8.61 10.269-15.544 11.667 20.621 2.288 22.379 16.875 13.834 24.06-14.509 12.207-21.25-1.887-24.615-10.127-2.95 20.481-27.1 13.517-27.938-1.281-.822-16.215 17.884-15.88 21.344-14.969.436-.561-14.477-15.321-30.393-17.42l.099-9.407c62.756-39.35 84.33-108.07 64.42-173.2l3.781-4.344c10.231 7.817 20.498 24.581 39.42 18.432 0 0-4.401-3.099-6.58-5.245-9.743-9.601-4.269-20.907 9.281-21.531 8.781-.405 12.195 6.375 12.25 11.906m-425.72-.031l6.5 9.531c-95.16 111.48-77.81 239.03-23.09 323.47l-7.969 9.625c-48.43-62.09-87.97-212.62 24.562-342.62m81.09 15.406c-.13 2.482.05 4.481.05 4.481 0 0 2.045-2.544 3.706-5.594 8.124-13.585 25.617-5.768 22.744 9.832-1.348 7.316-13.679 10.175-17.04 8.08 3.195 8.718 11.844 10.767 22.379 14.54 3.685.704 10 2.5 10 2.5l.25 5.906c-57.08 35.958-89.39 96.93-68.47 180.31l-6.313 8.531c-11.516-27.695-22.02-27.09-40.947-28.18 0 0 4.706 3.319 7.416 6.519 5.739 6.784 3.195 18.612-4.75 19.844-18.404 2.852-18.59-10.19-16.16-19.03 0 0-3.295 2.765-4.906 3.813-7.301 4.746-16.398-.182-17.25-9.594-.8-8.858 2.227-14.587 11.344-15.688 3.06-.369 7.781.406 7.781.406 0 0-1.815-3.48-2.813-5.438-4.363-8.56 5.21-15.884 14-14.04 13.873 3.344 12.784 15.311 4.748 24.717 21.518 1.617 32.8-12.447 31.21-26.414-1.935-17.04-9.776-26.25-26.703-29.22 0 0 2.729 4.287 3.898 6.36 4.332 7.683-1.893 17.12-11 17.06-9.338-.055-15.316-8.615-11.719-17.06.876-2.058 4.377-4.638 3.844-4.875-.367-.163-5.176 1.325-6.5 1.531-11.22 1.749-18.421-8.114-13.719-17.969 3.331-6.981 13.348-8.861 20.625-5.438 1.156.424 2.561 2.045 2.781 1.688.213-.346-.736-2.636-1.031-4.25-2.305-9.03 2.031-13.847 11.812-13.219 13.691.879 18.792 12.03 9.594 22.09-2.374 2.596-6.03 6.435-6.03 6.435.457 1.979 19.532 3.419 29.28-6.779 11.278-11.802 13.05-36.433 1.719-44.47-1.871-1.326-5.627-3.965-5.627-3.965 5.396 10.824-4.537 23.283-13.3 20.955-17.527-4.227-16.01-18.574-4.485-23.11 0 0-11.693-4.368-15.06-9.07-4.76-6.65-3.154-12.78 2.555-17.455 7.193-5.78 17.418-1.994 22.352 5.142 2.979-9.08 7.178-15.208 19.595-10.268 8.682 4.145 8.61 15.732-.951 22.04-3.064 2.02-8.519 3.904-8.519 3.904 0 0 8.22 4.682 18.222 4.794 19.294.216 34.562-22.524 26.781-39.906-1.58-3.529-5.522-8.08-5.522-8.08 0 0-.428 6.074-1.628 8.408-4.456 8.667-14.706 8.823-20.765 3.357-5.508-4.968-3.897-11.618.374-16.15 3.241-3.437 6.164-4.111 10.689-6.217-5.14-1.736-10.86-2.987-13.358-8.304-2.322-5.068-.691-11.304 5.467-15.167 11.12-5.81 19.837 4.03 19.337 11.681m-382.69-14.03c7.861 4.538 13.1 11.386 20.436 17.37 5.665 4.592 5.604 5.412.917 9.777-10.537 10.162-16.457-4.549-19.863-10.563-4.172-8.06-4.603-16.279-1.489-16.584m842.53 2.808l1.312 19.656-21.906-8.406zm-603.69 1.156l7.875 17.875-20.344-.094zm425.09.031c19.12 70.67-7.767 121.39-58.781 161.12l-5.656-7.406c39.876-33.876 69.72-73.804 56.53-144.94zm-234.37.313l224.28 4.125-6.719 11.813-17.469.094-34.656 61.25-161.19-.031zm-328.16 51.12c-7.823 12.347-54.42-14.23-53.802-15.63l5.841-5.619c7.397 3 30.426 15.704 35.524 13.696 1.782-11.56-11.799-26.529-16.913-36.49l5.701-7.148c0 0 29.543 38.25 23.648 51.19m76.44-44.959l-7.753 14.02c-7.26 2.227-29.17 2.62-30.934 4.074 2.644 7.186 5.55 28.3 5.55 28.3l-8.633 11.04c-2.303-13.581-6.146-30.748-9.542-43.34-2.905-10.68-2.092-8.331 20.656-10.09 10.195-.576 20.704-1.868 30.656-4m46 16.906l9.219 16.375-18.688.188zm-224.59 1.094c1.018-.417 6.803 6.06 7.796 7.934-.426 4.258-7.03 6.585-8.05 5.066-.411-.613-.532-10.165.125-12.813.025-.102.057-.16.125-.188m846.03.219l-.188 20.5-22.22-9.844zm176.41 4.625l-.313 13.281c-80.57 39.35-200.75 145-235.03 334.5l-7.03-7.75c34.26-180.93 152.51-287.91 242.37-340.03m-810.47 18.281l10.03 15.09-18.09 1.969zm634.5 5.781l-1.781 18.16-21.875-12.12zm-420.91 3.781c.085 4.308.455 7.418.719 11.719-49.647 32.14-66.42 82.72-58.16 146.37l-6.875 10.156c-16.16-57.715.154-128.83 64.31-168.25m575.62 3.75c5.062 2.968 21.464 7.805 21.464 7.805l-.183 12.07-33.781-12.12zm-970.61 51.36c-7.268 5.924-24.03-3.936-31.645-7.954l-.219-10.188c0 0 5.807 2.978 11.656 5.313 12.02 5.328 12.05-1.018 5.465-18.806-2.315-6.255-4.606-13.494-4.606-13.494l7.906-7.495c0 0 18.912 42.588 11.441 52.623m169.61-38.2l12.938 13.531-18.03 4.125zm788.59 1.625c11.45.014 33.531 9.313 33.531 9.313l-.146 13.391c-11.212-3.246-24.23-9.477-36.09-11.224-9.363-1.294-8.811 3.95-8.862 17.18-.069 17.921 4.432 34.11 13 52.03 7.097 14.842 3.402 18.814-8.187 12.188-20.86-14.315-65.31-25.12-72.15-16.789-7.04 8.566 6.819 51.22 22.842 71.57 6.509 8.266 6.914 9.59 3.875 12.813-2.463 2.608-6.443 2.767-13.469.531-23.11-7.355-56.56-9.01-66.19-2.78-9.563 6.185 15.329 48.9 36.22 62.687 13.551 9.667 10.935 14.477-10.969 14.969-35.767.168-63.28 8.142-61.75 17.906 2.593 16.596 25.757 39.36 52.34 51.44 16.272 6.646 9.468 9.289-1.348 13.13-18.09 6.109-35.475 15.888-52.5 25.03l-8.188-10.469c0 0 17.13-10.884 35.75-21.344 4.366-2.452 4.146-3.345-1.969-8.469-19.838-16.633-34.397-35.19-37.438-47.688-2.958-12.142 3.102-19.807 21.12-26.656 11.134-4.232 15.236-5.483 25.06-7.688 14.16-3.177 14.397-3.614 8.344-14.5-2.715-4.882-7.162-12.94-9.875-17.906-21.1-36.08-9.971-49.1 39-49.844 12.03-.633 14.315-.668 13.656-4.816-2.606-16.997-10.119-36.515-9.05-50.918 2.242-21.719 24.58-26.97 63.836-17.17 9.09 2.269 9.722 1.808 8.125-5.531-7.598-33.07.316-62.905 21.469-60.37m-144.06 2.313l-3.437 21.06-20.906-13.906zm-781.84 4.969l57.656 3.781-9.156 10.75-34.844-.656-1.313 29.75-11.156 9.563zm373.69 2.281h47.47l-.375 50.19h-47.31zm56.56 0h44.19v50.19l-43.813.469zm52.906 0h47.37l-.438 50.19h-46.906zm413.75 4c-1.117 12.905 1.586 36.23 2.676 46.25-.767 2.982-2.835 2.554-15.24-.254-8.602-2.876-32.452-3.723-32.452-3.723l9.995-10.586c8.169.972 14.62.894 23.08 1.951-.118-8.451.235-24.581.235-24.581zm-767.13 9.935l13.25 13.344-16.969 4.344zm647.47 4.344l-5.281 21.469-19.19-17.25zm181.73 11.408l.075 10.955-18.87-8.488c-.214 12.495 10.844 35.06 10.844 35.06l-8.969 4.219c-7.766-12.691-13.169-24.09-13.613-38.39.098-5.175-.612-13.928 4.05-14.17 9.596-.226 17.623 3.03 26.483 10.814m-835.67 10.842l15.75 9.375-17.469 7.06zm647.91 4.813l-7.719 22.09-16.844-19.12zm-835.25 7.03l42.5 14.406-7.562 8.03-35.31-11.156zm596.28 5.844l3.5 78.28-224.56-1.844 7.813-11.06 14.594-.125 38.438-64.813zm-411.94 6.094l16.688 11.781-17.344 7.656zm839.69 6.906l.031 12.813c-54.22 40.06-112.84 109.09-122.81 231.16l-14.625 12.5c7.138-119.19 56.77-201.36 137.41-256.47m-197.81.469l-7.875 19.875-15.594-18.5zm152.79 27.03l-5.224 5.85c-1.472.491-22.15-10.589-38.41-13.188 5.322 10.526 7.842 18.383 19.625 35.06l-7.594 7.5c-2.288-.509-31.757-44.03-23.957-53.853 12.657-8.525 43.35 9.352 55.56 18.628m-88.18-23.362c-.331 11.815 9.234 48.49 9.234 48.49-14.782.728-29.12-.966-45.07 3.512l7.516-13.407c0 0 6.947-.723 13.03-1.931 12.568-2.497 11.263-.985 8.346-11.913-2.743-10.276-2.898-12.415-2.898-12.415 0 0 8.947-12.397 9.849-12.333m-828.76 12.68c19.4 117.52 65.765 198.22 138.91 270.84l-7.438 9.719c-85.981-78.68-132.92-178.82-145.19-273zm121 4.938l15.812 8.625-16.25 9.469zm840.75.344l-.097 17.243-9.906-9.993c2.673-2.417 5.918-4.833 10-7.25m-208.44 3.531l-10.781 19.781-14.07-18.741zm207.28 44.751c-2.215-3.487-21.959-15.762-30.915-20.911-.571-1.514 13.873-14.415 16.74-15.306 14.34 1.994 18.945 30.641 14.175 36.22m-839.38-21.501l17.875 8.719-16.219 11.438zm594.69-.0001l22.939 2.166-12.188 18.938zm212.35 8.416c2.978.019 6.323 1.268 10.5 3.594 16.16 9 24.645 18.863 23.75 27.625-.411 4.02-2.665 4.832-5.281 1.906-4.714-5.271-20.612-12.13-34.31-14.813-10.382-2.032-11.333-2.918-8.219-7.719 4.72-7.283 8.605-10.625 13.563-10.594m-276.41 8.313c24.85 94.09 68.53 166.49 123.37 226.09l-11.375 9.688c-41.642-47.774-87.44-103.69-124.84-224.56zm49.611 5.03l22.952 3.471-13.438 17.12zm-323.77 1c2.663.09-7.902 40.14-44.37 42.906-23.09 3.832-25.682 7.716-26.03 43.656-.473 48.717-8.335 60.11-48.16 63.12-26.37 1.993-29.839 7.359-25.375 45.22 4.247 36.03-9.375 54.41-42.969 54.37-29.1 2.41-41.12 15.979-41.09 42.938.012 10.922.188 13.563.188 13.563l-18.813 1.469c0 0 .05-17.747 1.469-26.375 5.732-34.877 20.679-48.843 52.16-48.688 24.335-1.851 28.12-5.797 27.28-42.688-.942-37.523-1.448-37.27 8.344-47.09 6.303-6.327 13.502-9.171 26.28-10.375 39.799-3.749 42.942-6.406 42.844-47.22-3.692-33.906 5.681-54.668 27.22-56.37 43.58-3.454 42.549-27.11 40.625-28.09l20.281-.313c.05-.019.083-.033.125-.031m89.12 0c25.564 137.85 106.43 266.95 150.81 314.59l-8.656 4.594c-64.69-80.34-123.48-172.61-152.56-318.97zm-46.16.063l20.22.219-232.91 327.78-12.281-9.25zm28.25.219c21.881 79.46 39.1 157.15 107.91 261.09l-291.88-1.906zm80.59.313c1.7-.787 8.556 40.2-1.666 59.13-9.189 25.613-4.696 40.04 15.291 49.37 34.32 16.02 42.98 32.02 38.625 71.37-3.048 27.552 5.292 40.866 31.16 49.719 30.852 10.56 44.35 27.15 44.19 54.34-.025 4.174-1.594 8.938-1.594 8.938l-17.219 10.125c0 0 .216-3.699.875-8.125 4.487-30.14-1.226-38.32-36.813-52.53-33.61-13.424-41.939-28.948-36.22-67.66 1.869-12.625-.71-25.39-5.938-35-8.796-15.665-28.24-15.508-42.22-29.813-11.549-12.25-12.836-29.359-2.994-58.65 6.101-18.16 7.02-25.04 2.275-40.16-3.122-9.963-4.344-10.844-4.344-10.844zm-405.37 4.375l19.812 5.469-14.906 15.469zm786.36 4.104c6.798-.185 19.938 2.194 30.7 7.553 24.687 12.296 29.17 22.374 7.531 16.938-12.2-3.066-29.737-2.372-46.656 1.813-17.882 4.422-17.502 4.621-11.344-6.188 7.798-13.686 9.831-19.845 19.769-20.12m-44.809 14.52l-4.491 7.72c-9.811-1.626-20.12-6.439-35.07-5.255 6.126 11.724 13.386 17.79 23.13 28.13l-3.628 7.746c-.873 1.048-28.467-21.965-33.997-37.433-2.497-6.986-.233-10.02 9.812-10.281 14.971-.228 30.06 4.054 44.24 9.374m-368.68-7.586c7.393 0 13.375 5.984 13.375 13.375 0 7.391-5.982 13.406-13.375 13.406-7.392 0-13.373-6.02-13.375-13.406 0-7.391 5.983-13.375 13.375-13.375m188.49 3.625l22.599 4.056-15.06 16.875zm-422.58.166c5.348-.425 13.603 9.935 13.579 9.952l-27.39 37.837c-13.03-2.622-10.248-22.363 1.69-22.965 2.758.016 7.793.486 7.793.486 0 0-3.673-2.01-5.789-4.811-8-9.663-.431-19.661 10.117-20.499m511.17-3.384c0 0 21.802 43.13 20.415 44.774-13.514 5.956-28.27 9.03-43.12 14.447l2.853-12.539c0 0 4.944-.352 21.548-6.677 7.951-3.03-8.674-25.13-8.674-25.13zm-150.83 12.743c31.813.265 32.22 39.31 26.12 52.22-4.429 8.861-11.167 13.77-31.531 22.969-17.65 7.973-19.625 7.438-19.625 7.438l-4.219-9.406c0 0 10.278-4.532 21.344-9 22.878-9.238 28.443-16.297 25.938-32.844-3.548-23.428-21.646-27.08-56.656-11.375-4.063 1.822-9.188 3.656-9.188 3.656l-2.406-4.719c.558-.465 28.04-14.865 43.44-18.438 2.407-.346 4.66-.518 6.781-.5m-492.06 4.25l18 5.938-13.12 12.906zm801.84 5.03c15.907-.044 29.01 2.641 28.969 8.313-.018 2.691-.629 2.926-14.915 4.907-21.709 3.01-57.989 21.539-78.4 38.736-12.09 10.185-8.965 7.809-3.872-6.955 5.064-14.687 12.628-32.22 16.722-34.896 10.227-6.683 33.469-10.05 51.5-10.1m-260.09 2.031l15.313 3.344-9.969 9.656zm-51.31 8.313c5.484-.081 8.189 2.505 10.344 7.75 4.659 11.337.056 17.992-17.688 25.594-8.04 3.601-15.223 8.668-24.03 10.281l-11.156-29.938c0 0 3.519-1.294 15.12-6.094 13.227-5.471 21.925-7.513 27.406-7.594m-51.75 3.625c35.417 100.19 78.76 165.26 124.62 219.19l-11.09 6.938c-48.713-57.628-93.54-125.16-125.84-224.56zm49.12 3.563c-4.291.121-10.725 2.719-19.313 6.03-12.489 4.817-13.566 10.641-7.969 17.844 2.442 3.142 4.966 2.443 16.969-2.313 12.255-4.856 17.543-7.01 18.281-11.375 1.071-6.361-2.45-10.343-7.969-10.188m344.32 1.367c-.028 4.202-63.718 64.57-100.14 95.31-16.596 14.01-16.03 13.895-17.446 12.165-.892-10.406 6.162-47.556 10.445-54.03 24.327-25.757 61.86-46.715 98.38-54.59 5.736-1.148 9.297-1.027 8.762 1.152m-343.2 2.01c2.286.073 4.269 2.051 4.25 4.594-.013 1.947-2.828 3.83-5.75 3.813-1.035-.006-3.566.578-5.156 2.219-1.576 2.283-2.598 4.477-5.438 3.938-1.655-.315-4.712-.415-5.906.625-5.594 4.87-11.149.827-8.563-4.063.653-1.232 2.914-1.855 4.75-1.844 1.59.009 5.224-.358 5.75-2.313.63-2.332 4.198-2.983 6.688-2.906 2.708.363 4.891-.994 5.594-2.125 1.01-.9 2.188-1.817 3.313-1.906.155-.012.315-.036.469-.031m-481.66 1.062l20.281 2.75-12.781 16.375zm193.6-.275c7.393 0 13.406 5.984 13.406 13.375 0 7.391-6.01 13.406-13.406 13.406-7.392 0-13.373-6.02-13.375-13.406 0-7.391 5.983-13.375 13.375-13.375m211.23 10.599c7.391 0 13.375 5.984 13.375 13.375 0 7.391-5.984 13.375-13.375 13.375-7.391 0-13.375-5.984-13.375-13.375 0-7.391 5.984-13.375 13.375-13.375m-395.78 15.11l22 1.406-12.594 16.844zm116.16 3.219c7.392 0 13.373 5.984 13.375 13.375 0 7.391-5.983 13.375-13.375 13.375-7.393 0-13.375-5.984-13.375-13.375 0-7.391 5.982-13.375 13.375-13.375m549.62 8.344c9.174-.147 19.813.781 19.813.781l-2.57 10.29c-11.183 1.068-25.556-2.039-37.558 2.98 4.458 7.288 30.578 17.602 33.465 20.17.271 1.083-2.15 10.902-2.15 10.902.701 2.506-44.2-18.227-45.687-35.719.037-5.933 19.396-9.161 34.687-9.406m-154.41 10.688c25.512.235 38.1 35.854 28.19 51.625-3.927 7.128-12.783 15.585-24.469 23.03-5.621 3.582-20.5 10.875-20.5 10.875l-6.688-10.344c0 0 5.938-2.383 11.531-5.438 14.05-7.936 42.563-24.847 28.781-47.875-7.738-12.462-19.323-14.899-43.37-2.688-17.956 9.117-22.03 9.969-22.03 9.969l-4.563-8.25c1.194.683 35.851-20.18 53.12-20.906m-498.06 3.719l20.03.031-8.563 18.06zm580.25-2.375c12.182 23.568 33.02 41.37 38.714 45.651 0 0-20.754 13.329-33.15 21.818l-7.281-8.563 17.803-15.278-20.05-27.972zm195.45 5.679c-2.259 11.641-2.616 23.996-3.572 37.594 4.394 4.01 8.343 6.02 11.794 5.786 3.874-12.228 6.663-26.12 4.814-40.41-3.664-2.862-8.486-2.541-13.04-2.965m10.04 8.851c-.065 7.677.999 17.26-2.287 24.665-1.869 4.214-6.13 2.629-6.277-3.098-.199-7.748 1.377-14.249 1.825-21.307.255-4.02 1.996-6.433 4.394-5.501 2.497 1.209 2.29 2.994 2.345 5.241m-289.21 5.282c13.153.98 18.226 11.978 13.375 19.875-11.885 15.183-24.04 17.936-39.625 26.719l-15.563-29.09c0 0 30.28-17.09 41.813-17.5m-.36 6.496c-8.696 1.016-14.194 5.259-21.505 8.844-8.956 4.384-11.869 11.168-5.792 17.317 6.698 7.467 30.08-10.327 33.948-14.627 2.374-3.691 1.983-7.06-1.354-9.717-1.449-1.151-3.239-1.801-5.297-1.817m-479.73 1.223l19.594.219-10.594 14.969zm481.53 3.063c3.335 2.366 3.045 6.61-1.651 7.812-2.38.609-6.479.623-6.572 3.793-.069 2.364-3.68 3.252-5.739 2.916-2.104-.343-5.668-.523-6.355 2.115-1.803 3.592-3.154 3.653-5.678 1.145-2.708-2.736-1.445-6.202 3.844-6.781 2.256-.247 4.22-1.892 5.03-3.625-.123-2.244 1.45-3.546 3.938-3.03 3.513-.038 5.811-1.336 8.313-4.613 1.751-.82 3.671-.575 4.869.271m-114.64.386c7.391 0 13.375 5.984 13.375 13.375 0 7.391-5.984 13.406-13.375 13.406-7.391 0-13.375-6.02-13.375-13.406 0-7.391 5.984-13.375 13.375-13.375m-285.67 24.613c7.393 0 13.406 6.02 13.406 13.406 0 7.391-6.01 13.375-13.406 13.375-7.392 0-13.373-5.984-13.375-13.375 0-7.391 5.983-13.406 13.375-13.406m-320.09 11.875l153.22 104.78-10.469 15.281-142.31-96.78zm769.28 3.406c9.969.008 17.657 5.745 25.09 17.313 14.767 22.97 7.359 41.08-23.22 59.59-14.207 8.6-14.312 8.688-14.312 8.688l-7.219-8.906c0 0 10.348-6.085 14.625-8.781 25.14-15.878 32.2-29.93 21.16-45.75-10.649-15.245-21.835-14.03-52.875 5.719-6.277 3.992-13.781 7.125-13.781 7.125l-6.813-9.25c0 0 17.576-9.03 23.563-12.844 13.754-8.783 24.982-12.913 33.781-12.906m114.22-3.946l.097 10.07c.34.453-20.829 9.783-33.23 15.4-4.02 2.194-2.449 6.466-2.204 10.859l-5.973 4.04c0 0-8.249-6.02-9.33-9.881-3.02-12.197 35.811-26.798 50.637-30.483m-221.21 10.822c7.391 0 13.405 5.984 13.406 13.375 0 7.391-6.02 13.406-13.406 13.406-7.391 0-13.375-6.02-13.375-13.406 0-7.391 5.984-13.375 13.375-13.375m-415.09 3.755c7.391 0 13.375 5.984 13.375 13.375 0 7.391-5.984 13.375-13.375 13.375-7.391 0-13.375-5.984-13.375-13.375 0-7.391 5.984-13.375 13.375-13.375m521.52 10.681c5.078-.184 8.891 3.131 10.969 8.188 5.318 12.943-1.916 22.521-28.09 37.19-2.198 1.231-6.844 3.75-6.844 3.75l-19.281-26.625c0 0 6.786-4.67 13.187-8.5 14.34-9.38 23.533-13.764 30.06-14m-2.563 6.375c-1.234.033-2.658.511-4.312 1.469-6.72 3.872-17.95 8.08-23.25 15.09-3.098 4.293-1.689 8.558 4.187 14.06 4.978 3.293 30.67-15.628 31.31-21.12-2.174-5.817-4.235-9.599-7.938-9.5m-765.06 1.438l4.281 2.875-4.281 3.375zm769.15 4.662c1.899 2.315.758 6.242-3.271 6.931-2.031.347-5.03.904-6 3.906-.81 1.979-3.583 3.663-6.313 3.594-3.154-.726-4.814 1.18-4.984 2.569-1.553 2.651-5.394 3.079-7.735.588-1.824-1.942 1.44-7.529 3.595-7.446.384.181 2.752.716 5.619-3.115.579-2.785 3.817-4.49 6.168-4.39 2.387.814 3.789-1.829 4.745-3.292 2.194-1.163 6.642-1.156 8.176.656m-758.96 2.025l6.156 4.156-16.344 11.594v-9.344zm11.938 7.813l8.375 5.594-30.5 21.844v-11.844zm15.625 9.969l8.844 5.844-46.594 31.469v-12.12zm16.781 8.5v10.125l-54.53 38.06v-10.25zm6.156 7.281l11.75 8.03 2.938 343.13-73.47 50.47.062-15 61.688-44.594zm886.29 9.275c-16.473 18.812-38.573 20.08-57.847 19.569-51.933.726-84.17 3.496-90.85 65.42 21.16-15.815 43.595-17.857 69.57-17.11 32.896-.045 47.69-2.203 61.06-8.875 21.479-10.717 35.06-29.912 32.468-43.37-2.549-2.907-9.227-14.913-14.401-15.632m-892.44 3.01v11.875l-54.53 36.531v-12.06zm622.67 1.1c7.392 0 13.406 5.984 13.406 13.375 0 7.391-6.01 13.375-13.406 13.375-7.392 0-13.374-5.984-13.375-13.375 0-7.391 5.983-13.375 13.375-13.375m-355.98 1.369c96.35 2.995 300.97 1.844 300.97 1.844l10.906 15.719-321.72-3.375zm625.22 10.313c-11.528 11.304-23.486 16.834-61.38 16.16-40.03-.716-55.641 5.61-66 23.438-3.01 5.182-2.95 7.199 1.407 3.28 3.658-4.347 11.977-12.726 15.42-4.793 6.798-4.451 12.679-11.23 16.236-2.662 1.972-.438 13.508-11.994 16.243-1.756 5.511-6.164 10.235-8.095 12.822.649 7.838-3.716 12-10.752 16.452-1.027 6.314-4.52 11.11-10.166 14.787-1.562 5.386-1.585 10.864-11.464 13.976-3.593.579.193 20.05-11.516 25.564-23.1 4.519-10.217 8.67-3.435 3.531 7-13.195 25.558-35.763 34.889-87.56 34.969-31.444.034-44.45 3.116-54.32 8.874-15.862 9.249-7.321-14.03 3.792-28.16 14.01-17.8 29.976-23.06 73.72-21.469 23.911.14 39.19-3.159 45.656-8.375 5.482-4.424 9.452-7.422 12.401-7.618 2.949-.196 3.345 3.772-2.745 9.743m-707.92-4.329c7.391 0 13.406 6.02 13.406 13.406 0 7.391-6.02 13.375-13.406 13.375-7.393 0-13.375-5.984-13.375-13.375 0-7.391 5.982-13.406 13.375-13.406m-183.98 9.922v12.06l-54.53 37.22v-12.344zm263.66 5.781h42.31v44.656h-42.31zm94.81 0h45.531v44.656h-45.531zm101.34 1.438h43.938v43.22h-43.938zm95.19.875l29.25 1c0 0 16.237 20.66 23.09 30.19l-21.625 11.09-30.719.063zm-271 3.03c-8.229 0-14.906 6.646-14.906 14.875 0 8.229 6.677 14.906 14.906 14.906 8.229 0 14.906-6.677 14.906-14.906 0-8.229-6.677-14.875-14.906-14.875m97.29 1.47c-8.23 0-14.906 6.646-14.906 14.875 0 8.229 6.676 14.906 14.906 14.906 8.232 0 14.906-6.677 14.906-14.906 0-8.229-6.674-14.875-14.906-14.875m99.5.387c-8.23 0-14.906 6.646-14.906 14.875 0 8.229 6.676 14.906 14.906 14.906 8.232 0 14.906-6.677 14.906-14.906 0-8.229-6.674-14.875-14.906-14.875m-237.48 3.02c2.938 2.095 4.875 5.492 4.875 9.375 0 6.381-5.182 11.563-11.563 11.563-2.248 0-4.35-.639-6.125-1.75zm40.688.156c5.447 0 9.875 4.397 9.875 9.844 0 5.446-4.428 9.875-9.875 9.875-5.447 0-9.875-4.429-9.875-9.875 0-5.446 4.428-9.844 9.875-9.844m295.84.406c-8.23 0-14.906 6.646-14.906 14.875 0 8.229 6.676 14.906 14.906 14.906 8.232 0 14.906-6.677 14.906-14.906 0-8.229-6.674-14.875-14.906-14.875m-247.56.438c6.609 0 11.969 5.361 11.969 11.969 0 6.608-5.36 11.969-11.969 11.969-6.611 0-11.937-5.361-11.937-11.969 0-6.608 5.326-11.969 11.937-11.969m197.16-.469c6.608 0 11.969 5.361 11.969 11.969 0 6.608-5.361 11.969-11.969 11.969-6.608 0-11.938-5.361-11.938-11.969 0-6.608 5.33-11.969 11.938-11.969m-529.44 1.281v12l-54.53 38.09v-11.813zm381.29-.187c5.449 0 9.875 4.397 9.875 9.844 0 5.446-4.426 9.875-9.875 9.875-5.448 0-9.875-4.429-9.875-9.875 0-5.446 4.427-9.844 9.875-9.844m99.5.387c5.45 0 9.875 4.397 9.875 9.844 0 5.446-4.425 9.875-9.875 9.875-5.448 0-9.875-4.429-9.875-9.875 0-5.446 4.427-9.844 9.875-9.844m-49.886 1.237c6.609 0 11.969 5.361 11.969 11.969 0 6.608-5.36 11.969-11.969 11.969-6.611 0-11.969-5.361-11.969-11.969 0-6.608 5.358-11.969 11.969-11.969m148.94 2.344c5.45 0 9.875 4.397 9.875 9.844 0 5.446-4.425 9.875-9.875 9.875-5.448 0-9.875-4.429-9.875-9.875 0-5.446 4.427-9.844 9.875-9.844m-424.12 10.344c25.399-.298 52.878 12.601 68.37 34 23.456 31.36 39.13 71.35 46.25 123.84 3.525 26 15.65 104.06 22.531 122.5l-9.469-1.812c-1.279.606-13.436-49.1-21.09-114.75-2.836-24.315-8.01-55.697-22.12-84.34-16.12-32.707-43.49-67.37-80-70.12-21.293-1.606-41.29 11.735-43.44 30.531-3.066 14.848 5.642 28.68 17.06 33.31 11.217 4.55 24.623 1.158 26.12-14.12.261-2.512 0-5.04-.938-7.375 5.192-.843 9.143 1.496 11.25 5.875 1.099.137.048 22.17-17.281 26.5-20.906 6.843-45.03-13.85-46.906-34.938-1.43-17.764 12.09-39.708 29.12-45.656 6.472-2.259 13.419-3.354 20.531-3.438m-155.72 6.844v12.25l-54.53 37.625v-12.344zm156.91 7.781c30.504-.868 60.21 33.13 72.78 55.53 13.12 23.377 23.514 60.5 27.09 95.44 6.089 59.42 17.473 108.01 19.875 110.22l-8.312-1.813c-1.738 1.166-13.207-52.47-20.19-112.19-3.915-33.492-16.341-66.7-31.12-92.28-13.643-23.612-32.04-41.25-53.812-43.813-13.648-1.371-27.685 2.571-30.438 16.938-1.458 8.44 2.955 16.716 12.969 17.438 2.36.17 4.615.364 5.03.438 5.3.944-3.02 9.544-8.5 8.781-19.555-2.724-28.569-28.852-13.156-42.75 9.02-8.131 18.443-11.672 27.781-11.938m65.31 8.719l342.53 3.469c0 0 .285 6.133-21.03 5.125-18.13-.857-29.825 1.675-41.844 5.531l-269.12-.594zm-222.22 3.969v11.375l-54.53 38.16v-12.563zm159.19 4.813c6.581-.09 13.291 1.605 18.344 4.531 42.43 24.572 58.63 85.57 64.22 123.97 7.622 56.868 16.424 109.7 18.875 111l-9.25-2.094c-1.234.045-11.354-49.26-17.656-104.5-5.095-44.66-20.366-89.51-50.656-108.38-19.44-13.227-23.254-14.566-32.25-6.844-7.762 6.662-15.656-3.367-9.156-11.531 4.485-4.192 10.951-6.067 17.531-6.156m-159.19 15.406v9.344l-54.53 37.969v-11.06zm249.31.25c.701-.647 29.469 48.2 38.563 125.19 4.788 40.538 18.49 109.66 20.688 110.22l-9.969-1.063c-10.194-40.766-15.834-79.35-21.281-114.12-6.163-39.34-11.11-74.29-35.625-119.91l7.594-.25c0-.035.02-.052.031-.063m6.532.406l8.906.125c15.235 29.01 31.436 74.06 37.03 119.22 4.833 39.01 9.727 78.69 23.688 120l-9.563-2.625c-11.99-33.534-16.238-74.06-22.687-116.06-7.13-46.43-18.313-86.85-37.37-120.66m54.969.062c15.583 40.36 25.724 59.61 32.844 109.28 5.526 38.551 13.333 86.77 31.09 137.84l-9.02-.387c-13.162-35.25-23.24-82.47-27.854-127.83-6.27-61.6-33.929-119.11-34.19-118.75zm-15.344.156c.841-1.254 29.718 56.51 36.406 120 4.45 42.24 14.334 84.04 27.906 124.41l-9.219-.205c-10.647-12.31-18.62-70.65-27.406-125.11-8.967-55.58-21.601-89.78-35.625-119h7.906c0-.05.018-.074.031-.094m-23.281.062l8.188.031c21.415 46.802 30.31 74.65 36.906 119.91 8.343 57.23 16.357 108.87 25.22 122.31l-10-.656c-13.794-41.25-20.01-82.46-24.906-123.72-5.301-44.672-18.14-82.939-35.406-117.87m45.19.375l9.719.156c16.754 33.937 30.686 75.22 35.594 122.41 2.696 25.59 7.404 64.868 26.625 125.46l-7.781-.494c-15.743-40.639-25.2-88.47-30.844-130.19-5.691-42.07-15.738-76.79-33.31-117.34m59.875.281c9.184 23.536 16.753 46.91 21.719 70.969l-5.5 10.719c-8.618-31.755-18.32-56.48-27.969-81.53zm-44.34.031l11.844.281c20.346 47.22 30.797 97.15 33.656 113.91 0 0 2.816 14.823 3 19.688-.685 41.26 6.455 70.69 21.813 115.06l-7.03-.5c-17.828-51.564-22.63-88.19-27.19-123.19-3.773-43.991-18.08-89.33-36.09-125.25m27.344.375c12.12 30.27 21.369 59.45 29.781 88.66-.38 6.633-1.023 13.889-5.344 19.25-9.886-35.72-18.228-72.84-33.5-107.84zm22.375.25l9.375.156 18.688 53.53-7.313 8.094c-5.49-17.723-11.11-37.21-20.75-61.781m54.719.375l6.844 16.09-7.375 6.25c0 0-7.526-15.06-9.5-22.16zm13.906 0l3.438 9.281-6.188 4.719-4.813-13.813zm-53.688.188l9.656.063c3.896 11.243 14.281 38.781 14.281 38.781l-6.938 7.281c0 0-13.08-34.81-17-46.12m14.969 0l8.563.094c2.577 7.308 10.594 27.531 10.594 27.531l-5.906 5.625zm44.781.375l8.469.406-1 2.094-5.281 2.625zm-277.75 11.906c35.471 18.7 45.25 74.7 49.09 105.5 6.713 53.733 14.248 97.45 15.844 98.62l-7.875-1.25c0 0-5.819-27.605-9.844-53.875-3.351-21.854-5.938-40.16-6.844-48.531-.565-5.232-1.443-11.328-1.938-13.531-4.954-22.07-6.546-27.13-12.938-40.563-6.135-12.896-8.3-16.13-18.5-27.625-3.916-4.413-7.729-7.64-9.06-10.469-1.906-4.04 2.063-8.281 2.063-8.281m-179.56 2.875v10.563l-54.53 38.5v-12.06zm0 18.531v12.156l-54.53 35.969v-10.781zm0 20.719v11.281l-54.53 38v-11.656zm91.06 11.406h4.813l.344 7.906-7.438-.469zm-91.06 9.75v12.06l-54.53 36v-11.25zm85.44 4.594l11.531.125-.125 8.281-14.813-.5zm-6.688 13.281l18.938.344v7.875l-23.469-.375zm-78.75 1.719v12.656l-54.53 36.25v-12.719zm69.09 13.156l27.719.312-.156 6.594-33.09-.219zm-69.09 7.344v12.375l-54.53 34.906v-11.125zm57.53 5.875l38.06.531-.938 6.375-43.41-.188zm-57.53 13.469v11.906l-54.53 35.5v-11.438zm43.25 0l50.09 1.156 10.562 9.594-77.969.469zm-15.16 17.563l86.12 1.062 6 5.563-92.41.344zm-28.09 2.719v12.625l-54.53 35.719v-11.531zm28.19 11.09l95.44.438-6.906 7.656-88.66.25zm-28.19 9.563v11.562l-54.53 37v-13.281zm25.813 6.03l82.5.281-9.688 7.594-57 1.313zm-25.813 14.281v11.03l-54.53 39.06v-12.375zm49.938 1.406l48.44.219.906 6.5-41.656-.094zm13.406 13.406l37.19.375 1.75 8.406-33.09-.438zm-63.34 5.875v10.25l-54.53 38.06v-11.344zm103.09 8.406l.437 8-22.19.844-6.25-8.375zm-.188 14.188l-.187 8.406-15.469.25-3.469-8.094zm-13.75 14.969l12.188.094-1.031 6.469-9.438.125zm3.656 15.531h5.938l-1 5.063h-3.03zm120.62 85.56l-2.844 3.656h85.25l.937-3.656zm109.91 0l-1.5 4.938h38.469l1.063-4.938zm62.844.969l-1.188 4.656h98.34l-1.625-4.656zm117.66 0l2 5.656h33.09l-2.188-5.656zm114.17 0l-58.07.031 2.094 6.313h60.06z" transform="matrix(.99998-.0059.0059.99998-1273.45-185.64)"/>
  </g>
 </g>
</svg>
