<svg xmlns="http://www.w3.org/2000/svg" viewBox="0 0 744.09 1052.36">
 <g transform="translate(-289.24-1384.07)">
  <rect y="1754.35" x="549.68" height="311.81" width="223.23" rx="10.63" fill="#fff" stroke="#000" stroke-width=".997"/>
  <g transform="matrix(.15646.00259-.00259.15646 828.42 1874.14)">
   <path transform="matrix(.99986-.01652.01652.99986-2934.85-683.43)" d="m1327.12 110.53l-.25 1699.09 1052.09 2.281.625-1700.16zm334.16 9.938l476.69 1.75c0 0-54.613 70.65-65.906 102.81-8.775 11.257-12.748 9.215-27.22 6.281-38.749-10.131-104.04-9.941-136.47-10.531-61.23-2.732-116.22 16.248-177.53 19.344-21.18-35.421-51.902-79.887-69.56-119.66m-320.97 3.094l306.56.906 71.875 131.16c2.605 3.647.121 11.172-1.438 15.406-8.87 24.975-16.711 39.45-34.656 69.22-16.997 28.2-23.09 54.02-17.06 71.37.906 2.133 1.688 5.368 1.375 8.094-.993 8.656-8.262 18.674-18.16 25.531-6.723 1.079-20.693 1.94-28.781 9.938-6.932 6.855-12.612 16.885-11.719 35.22.416 6.557 1.25 10.719 1.25 10.719-91.41 38.03-156.92 82.59-154.75 84.22-.86-.396-80.35-36.977-113.44-46.03zm814.66 2.313l210.16.188 1.25 599.69-80.66-52.28c6.615-4.607 10.702-7.34 17.656-12.06 1.237-.374 3.574-.411 5.094-.75 14.05-3.132 23.843-13.64 18.969-24.531-3.309-7.394 1.21-6.943 5.281-12.969 4.583-6.783 3.631-12.824.719-18.531-1.445-2.832-.649-3.953 1.781-9.188 6.434-7.981 1.783-21.481-6.531-25.844-.87-1.285.91-3.271 1.313-5.125 2.345-10.814-1.961-20.307-11.313-22.719-4.814-1.241-6.417-2.078-4.719-6.375 3.01-7.626-.957-10.461-7.219-12.938-10.535-4.167-7.553-4.833 5.469-10.688 26.653-11.983 32.928-47.609 14.594-79.938-2.331-4.11-8.559-13.756-12.781-20.22-4.934-7.553-9.719-14.06-9.719-14.06l35.28-49.19c0 0-24.564-29.1-33.31-45.19 2.062-7.942 26.653-32.882 29.844-57.09 5-37.963-23.826-62.26-51.09-59.41-18.916 1.978-42.19 14.08-40.44 49.22.543 10.916 4.805 22.19 12.531 35.844 5.399 10.215 12.394 21.03 19.09 31.406l-35.5 48.531 35.875 45.44c0 0-.472.731-1.25 1.969-3.571 5.677-13.945 22.392-18.438 32.19-13.231 26.16-17.917 54.88 9.25 75.12 4.751 2.918 8.415 5.4 10.438 7.406 2.666 2.645 1 4.655-3.281 5.656-5.05 1.064-10.186.993-15.5 3.094-17.04 6.215-34.11 16.244-46.25 26.06-6.816 5.511-17.802 22.956-24.5 37.12-7.279 15.399-9.313 18.813-9.313 18.813l-124.78-79.875c0 0-3.169-2.503-4.03-3.469-2.324-2.603-1.488-4.113.125-7 1.366-2.445 1.417-9.635.813-15.09-.17-10.469-.092-10.51 5.938-20.12 2.124-3.388 3.01-6.773 1.781-12-1.956-5.872-2.142-4 1.594-8.03 1.457-1.793 3.215-2.681 3.5-4.625.382-2.603.142-7.144.188-15.625.092-16.995-.138-15.594 9.406-23.06 11.854-9.276 16.274-13.649 18.16-17.844 2.699-6.01 0-10.551-6.656-22.563-3.042-5.487-7.752-12.894-10.03-17.03-4.26-7.438-10.413-17.232-13.344-26.594-4.438-7.189-3.762-19.65.344-26.969 5.154-9.187 6.589-14.74 6.406-33.31-.169-17.214-1.417-15.612 2.969-21.375 32.784-43.39 84.84-124.06 84.84-124.06m133.56 63.47c.702 0 1.419.029 2.125.063 10.322.49 20.576 3.808 30.09 13.03 12.948 12.982 12.07 31.687 7.813 51.16-1.961 5.654-3.421 11.404-7.406 17.313-2.217 3.288-4.03 6.338-4.03 6.75 0 .412-3.192 5.545-7.094 11.438-3.812 5.756-8.187 13.781-8.187 13.781 0 0 6.098 10.938 16.906 24.625 8.157 12.12 13.443 22.682 14.06 22.06 0 0-2.068 5.24-4.906 8.969-8.575 11.263-24.369 34.762-25 37.22-.152.591-1.781 1.194-1.75 1.781.114 2.182 3.248 4.768 7.969 11.25 28.5 39.13 32.53 72.16 11.125 91.56-10.65 9.653-21.16 12.68-32.438 11.469-20.66-2.219-39.73-19.85-37.5-45.563 1.01-11.812.392-15.333 7.344-29.06 3.139-7.73 10.246-20.976 14.969-27.656 4.13-4.795 8.531-11.625 8.531-11.625 0 0-10.139-15.616-28.781-37.563-3.36-4.01-5.438-9.438-5.438-9.438l31.938-47.31c0 0-3.71-9.18-9.938-18.469-12.771-19.05-21.01-39.3-20.93-50.696.192-28.404 18.766-45.04 40.524-45.08m79.53 675.91c-18.86 10.03-37.22 44.28-1.336 20.398l.898 19.695c-18.664 26.489-55.16 7.07-45.876-20.358-25.2 3.265-29.13-22.313-27.848-34.481-33.14-7.221-21.693-42.32-21.693-42.32-19.15-16.01-22.507-32.773-6.996-50.45-15.683-9.754-20.1-16-37.34-23.08 13.214 117.53 76.65 178.57 143.41 232.97 0 0 1.478 37.848-6.156 30.875-95.33-71.23-156.61-152.67-167.15-284.42-.809 2.068-45.2-34.36-52.54-32.427-15.384 213.33 154.46 353.56 225.09 381.2 0 0 1 29.723-.212 29.828-107.05-46.694-226.07-183.74-249-346.78l-63.16 97.81-23.656-10.125 102.12-160.91-69.06-43.28-112.44 178.16c0 0-2.985 14.855 5.155 14.625 157.83 16.887 392.55 206.51 313.91 515.12-6.822-2.698-17.68-7.98-18.219-7.75 12.334-26.595 46.749-198.89-56.781-338.06-47.43-63.763-120.99-131.62-239.03-151.66 9.755 20.13 5.5 65.781 5.5 65.781l27.5 5.563c-9.28-9.809-17.04-17.891-20.719-28.531-5.15-16.576 2.398-26.393 20.75-16.531 7.287 4.089 9.123 3.931 16.219-1.344 14.778-10.984 31.642.326 27.75 18.594-.575 2.699.14 4.4 7.156 5.03 15.896 1.581 31.912 9.46 42.28 21.813 5.082 6.514 6.233 5.548 10.75 1.625 11.09-9.632 29.47 3.716 26.19 18.625-1.876 8.524-.844 10.564 3.094 12.219 21.677 9.112 27 14.862 33.75 33.844 2.472 6.954 4.502 9.24 5.781 8.844.895-.277 4.458-1.469 7.594-2.656 16.185-6.129 25.658 13.441 14.188 28.781-2.35 3.143-.61 6.161 3.563 8.438 13.47 7.349 22.626 24.904 24.22 43.31.606 7 1.342 7.01 8.344 6.719 17.92-.751 26.451 23.444 11.875 32.34-5.077 3.1-4.132 7.103-.188 11.781 10.448 12.393 12.889 21.347 11.969 35.469-1.225 18.802-.027 18.435 5.969 20.719 17.414 6.633 14.165 34.456-2.91 34.36 12.297 28.649-3.895 63.58-3.367 64.23 32.809 18.461 3.183 38.07-6.348 34.626 0 0-4.861 12.871.656 19.5-28.779 38.08-66.46 44.4-108.19 63.31l-1.312-134.06c17.356 13.972 34.557 27.01 51.75 40 0 0 4.359-1.308.39-4.976-7.647-7.07-26.883-19.508-32.27-24.462-11.615-8.813-54.18-49.51-61.75-59.16-3.391-6.425-8.51-2.707-8.375-2.321 5.091 8.793 8.885 19.05 15.477 28.18 14.238 19.733 28.05 41.665 26.616 63.36-.035 12.147-4.861 24.684-7.563 30.781-2 8.33-15.281-1.42-11.938-8.437 5.903-19.229 10.793-34.982-10.313-65.875-10.292-15.06-23.625-42.41-23.625-42.41l-8.531 2.063.312 174.91c-7.156.294-25.301 4.997-21.562 5.125 56.55-11.298 73.851 69.62 19.25 72.25-10.372.368-21.09 18.223-22.19 27.906.468 23.493 3.911 48.27-13.281 70.844-4.519 5.932-6.601 15.348-10.781 22.75-20.991 37.17-30.359 58.47-28.22 68.06.551 2.467 1.063 5.719 1.063 5.719-66.854 16.707-116.99 20.992-184.34 22.563-.659-1.054 22.611-66.5 39.594-100.06 12.552-24.802 19.02-41.755 15.5-46.875-53.41 2.678-43.17-75.63 7.938-72.875 0 0 12.819-45.11 27.16-65.47 13.585-7.563 40.924 2.738 56.25-7.406 36.11-11.07 59.75 31.625 59.75 31.625l9.719-40.625-319.31-1.531c0 0-32.902 12.325-49.719 5.375-10.747-4.441-23.08-17.04-23.09-17.03 0 0 122.01-195.98 139.94-224.25 1.457-2.298-3.178-7.236-3.188-7.281-.672-6.419-142.04 213.94-141.47 223.66 0 0-3.76 5.342-10.562.625-79.957-55.17-271.03-173.78-271.03-173.78l-.25-87.87c66.46-41.882 60.44-58.996-1.063-13.344-.859.725-1.313-33-1.313-33 46.881-41.888 7.894-28.772-1.362-14.257.223-10.443-2.201-24.623 4.487-30.868 20.484-18.885 44.63-1.548 45.843 26.371 26.725 5.239 23.411 28.722 30.3 38.16 27.25 15.382 12.898 38.722 19.659 46.656 28.7 18.1 8.682 47.19 2.607 46.531 3.618 2.434 39.29 26.343 42.34 25.469-3.095-125.36-141.13-245.03-144.97-238.75l2.937-27.03c0 0 172.51 110.35 171 287.41l55 32.688c-4.887-181.67-86.01-304.28-224.72-382.28l-2.938-34.22c116.44 54.2 224.42 163.88 249.56 343.66l64.47-100.06 22.719 11-103.51 166.08 64.63 42.51c50.14-66.01 91.95-146.96 117.44-185.47-.671-3.521-2.063-8.563-2.063-8.563-246.47-40.655-385.3-271.61-319.12-512.94l17.12 7.531c-51.39 178.73 32.418 435.99 300.47 488.59-.534-19.01-3.875-65.75-3.875-65.75 0 0-35.22-10.59-30.04-6.344 8.628 7.374 28.01 39.17 19.82 50.47-5.889.825-15.747-2.473-26.531-10.375-4.068-2.981-4.182-2.346-8.75 2.531-12.669 13.526-31.08 5.777-31.25-12.813-.072-7.851-.364-9.513-11.5-9.594-16.888-.121-24.471-3.02-34.594-16.563-7.181-9.607-6.521-9.65-14.969-6.75-16.188 7.704-29.11-8.475-24.03-21.812 2.502-6.249-.161-8.249-7.531-9.469-14.337-2.372-30.551-20.365-33.531-35.06-.609-3-2.11-3.761-10.563-3.469-16.58.574-25.758-9.481-19.219-23.563 3.536-7.615 4.531-10.689-2.094-15.844-8.122-6.321-12.706-10.713-16.313-18.375-2.86-6.077-3.284-9.967-5.25-22.906-.684-4.501-2.179-5.233-8.06-6-17.14-2.236-23.905-19.779-11.313-31.16 3.844-3.473 3.83-3.389-2-10.938-11.216-14.521-15.419-33.476-10.531-46.09 1.323-3.416.031-7.598-3.969-8.594-15.634-3.893-15.902-21.23-.938-30.969 4.345-2.828 4.567-4.701 1.281-10.406-5.755-9.993-5.468-36.16.094-48.688 3.595-8.097 3.572-8.284-2-11.844-11.881-7.59-8.485-28.468 5.563-31.906 6.823-1.67 7.275-2.559 5.438-10.844-3.274-14.765-3.838-18.603 4.875-24.438 23.963-15.563 85.34-45.31 85.34-45.31l20.281-9.656c0 0 2.026 123.88.719 138.53-.79 6.308 4.876 10.126 11.469 16.688 13.629 13.397 21.1 29.597 39.28 40.844 0 0 11.335-6.302 18.344-10.813l.688-176.53c1.435-4.01 2.44-4.448 7.094-5 3.872-.746 13.59-1.829 16.844-2.781 7.83-2.291 9.06-5.452-1.219-4.406-3.098.315-7.746 1.634-12.937 2.688-32.14 9.644-55.91-40.4-31.438-65.62 4.697-4.208 22.246-11.529 30.22-12.03 2.304.018 9.16-8.425 13.844-16.219 4.707-7.833 6.661-13.655 3.969-21.5-5.668-16.516-.262-41.875 16.689-69.56 18.353-26.13 32.531-55.3 39.968-86.34 65.04-7.842 120.21-24.02 179-20.438 2.296 19.87-64.27 137.01-50.37 143.87 52.38 12.543 34.496 74.65-5.313 72.59-5.963-.032-6.548.496-10.344 13.688-7.227 19.259-11.894 33.954-19.656 51.875-.025 4.608-3.251 4.156-25.03 4-19.908-2.948-33.644 7.902-48.12 8.531-18.462.842-34.22-8.01-40.625-22.688-2.856-6.541-5.51-2.24-5.594 13.281-.067 12.349-.562 19.563-.562 19.563 0 0 76.32.225 163.28.375 175.79.304 158.28 2.998 172.22-3.969 8.143-4.071 13.51-8.481 27.594.719 22.563 14.74 21.823 12.728 15.25 22.22-44.18 65.52-141.84 223.19-141.84 223.19l6.844 6.688c0 0 98.63-155.85 143.56-228.87 2.04-2.371 11.438.625 11.438.625l269.06 175c-2.268 26.445.375 85.71.375 85.71-75.63 40.16-52.52 60.62-.453 11.982zm-456.59-629.69c0 0 78.05.632 117.19 6.906 34.27 5.494 32.51 4.485 32.375 29.375-.096 17.676-.122 17.274-4.656 25.75-8.359 15.624-6.936 31.03 6.281 52.594 12.83 20.937 22.22 36.4 22.22 39.37-.0001 4.621-.791 10.264-11.906 18.03-13.12 9.165-15.618 15.569-15.438 24.875.146 7.534-1.28 9.993-5.781 9.969-1.805-.0001-8.182 2.956-15.03 6.188-12.05 5.685-12.07 5.685-23.313 5.594-5.637-.046-8.368-2.175-9.937-1.563-3.03 1.412-5.776 11.546-5.688 14.5.32 1.045 1.932.417 5.25-.719 18.644-6.381 46.38-3.513 47.16-.719 3.759 3.406 3.766 8.668-1.906 14.12-3.68 5.781-5.35 8.768-3.812 17.719 2.088 12.158.529 16.983-5.688 21.19-18.959 12.822-44.27 14.437-84.75 6.656-42.657-8.2-71.83-24.468-96.09-53.594-10.839-13.01-13.515-17.57-8.156-18.469 6.612-1.023 13.933-2.392 20.719-5.313 29.977-12.903 29.448-67.804-10.938-73.53-16.476-.584 34.02-78.27 51.906-138.94m38.508 37.821c-14.499 8.117-22.07 18.02-22.1 23.398-.012 2.203.482 1.803 7.406-2.75 20.1-13.216 73.04-32.3 91.94-21.281 13.624 8.179 18.912 5.514 11.02-5.486-18.515-25.815-68.45-4.675-88.26 6.12m51.773 8.648c-2.141.018-4.378.264-6.594.719-13.977 3.12-29.353 14.637-42.09 24.781-6.284 5-15.173 14.909-16.563 17.5-3.144 5.865 3.798 12.33 13.25 7.156 5.498-3.01 5.986-2.329 11.281-1.594 12.201 3.678 26.11 9.371 47.625 7.563 2 .459 1.854.929 1.156 2.813-1.276 3.442-8.897 10.02-18.844 17.375-5.129 3.795-9.616 6.905-9.969 7.469-1.583 2.531 5.27 2.729 12.781-1.531 10.657-6.04 22.933-19.413 30.438-30.16.715-1.024 1.706-1.865 2.031-2.969.734-2.486-3.754-1.459-6.156-2.125-1.034-.287-.822-2.893-1.094-4.094-.712-3.151.521-8.364 1.094-12.844.464-3.623 4.352-6.499 6.906-9.156 11.237-11.689 10.358-16.986-4.75-8-2.545 1.514-4.556 2.426-7.03 2.625-22.299.702-35.19-.162-53.781 15.5-8.268 6.662-13.236 7.312-5.875.219 11.22-9.09 25.287-22.02 40.844-25.438 9.389-2.338 18.326 4.853 22.438 3 .028-5.14-7.815-8.89-17.09-8.813m-3.233 32.31c2.554 1.682 5.063 10.407 4.827 13.349-.274 3.418-6.156 2-6.969.375l-3.188-9.688c-1.389-3.271 2.836-5.126 5.33-4.04m-11.361 1.974c2.73 2.693 3.358 8.53 4.906 13.344-.988 3.472-22.94-1.219-25.694-5.102 3.29-4.278 14.604-9.399 20.787-8.241m38.5 62.56c-1.651-.109-3.835.694-5.812 2.719-9.881 10.119-6.698 27.357 5.187 32.938 5.795 2.721 14.563.72 27.469-3.25 6.15-1.892 10.601-2.756 11.75-2.75 5.04.027 7.789-7.791 4.25-11.375-4.09-4.142-13.785-3.532-24.22 4.531-5.277 4.078-9.05 6.05-13.312 6-10.434-.133-15.508-10.875-4.844-22.16 3.55-3.756 2.284-6.474-.469-6.656m-73.14 74.17c12.308 9.931 35.677 4.725 51.39-5.672 14.04-9.29 19.861-12.03 31.12-10.09 13.805 2.377 13.292-3.05 7.313-9.875-6.779-7.738-23.523-5.349-37.531 3.938-31.06 20.591-42.29 24.03-51.31 12.894-9.684-11.967 1.844-27.325 13.243-18.944 9.351 6.365 9.212 1.578 5.348-2.787-22.528-18.986-38.786 15.04-19.579 30.54m-109.18 9.766c15.673 19.876 30.68 36.29 53.22 48.41l.25 3.75-72.875-.156c5.088-8.889 19.554-51.41 19.406-52m-246.75 51.781c-1.543 29.959 3.831 47.556 21.375 68.5 18.648 22.261 17.262 56.962 5.267 78.4-5.308 9.487-16.11-2.179-11.02-8.244 7.238-9.105 7.671-31.33 4.25-45.22-7.68-22.957-25.1-34.2-32.16-58.47-2.376-10.356-1.625-28.969-1.625-28.969zm22.812 2.531c1.276-.201 3.307 1.118 6.313 3.719 10.309 8.921 8.551 34.459-3.25 50.844-3.615 4.97-6.609 3.552-10.06-1.063-4.664-4.609-3.049-5.067.875-13.156 4.092-8.436 5.403-17.935 4.563-29.03-.566-7.472-.302-11.02 1.562-11.313m668.47 8.75c9.1-.136 20.466 1.793 21.5 5.094.985 4.02-1.174 7.232-6.25 9.375-13.312 5.621-30.906-2.243-26.469-11.844 1.109-1.716 5.761-2.543 11.219-2.625m-23.06 2.188c2.615-.059 4.644.585 6.25 1.313 4.362 2.248-2.492 17.611 19.219 17.313 5.19.764 9.02-.429 8.313 1.906-1.08 3.54-10.393 8.849-20.5 10.344-30.25 4.473-28.933 2.964-27.563 24.344.894 13.956-.013 18.661-1.906 27.12-3.283 14.674-4.583 28.852-2.375 24.19 2.951-6.235 10.484-25.928 10.438-37.12-.069-16.514 5.827-19.781 8.188-7.813 1.01 7.922-2.536 12.392 2.781 20.469 3.02 4.539 4.393 4.462 2.375 11.5-1.78 6.209-.543 8.04 1.625 11.188 2.183 3.174 4.381 3.903 2.531 8.344-3.988 9.575 2.267 18.64 11.344 19.406 4.195.354 5.356 2.182 4.094 3.781-2.22 2.762-6.64 4.074-10.313 4.875l-96.09-61.41c0 0 7.128-14.3 9.25-18.12 13.805-30.27 24.754-44.06 65.12-59.906 2.791-1.2 5.185-1.673 7.219-1.719m51.06 19.875c2.65-.1 4.613 1.288 6.844 4.156 5.898 7.582.75 17.06-13.75 25.22-12.395 7.05-16 7.892-18.688-3.188-.621-1.999-2.27-4.455-3.344-5.438-2.87-2.625-2.217-4.812 1.438-6.75 1.749-.927 7.321-3.21 11.781-6.156 7.749-5.119 12.312-7.716 15.719-7.844m-40.906 22c3.034.048 6.164.782 8.469 2.281 3.843 2.5 3.88 8.779 0 11.281-7.716 3.148-19.902-1.07-18.875-8.156.522-3.603 5.35-5.486 10.406-5.406m49.44 7.75c2.737-.073 4.793 1.207 6.5 3.844 4.526 6.989-.789 14.01-16.03 21.469-10.03 4.911-22.846 7.04-22 4.156.681-2.324-2.903-13.794-4.5-15.625-.613-1.942.186-.193 12.844-4.188 4.586-1.447 10.125-3.832 12.687-5.438 4.352-2.727 7.763-4.146 10.5-4.219m-720.91 18.12c-7.05 16.946-8.167 24.431-4.813 42.25 2.792 14.832 6.03 22.271 21.25 44.19 11.585 16.68 15.292 23.17 12.5 28.438-1.968 2.839-6.391 5.487-9.142 2.759-5.659-7.399-9.06-16.39-14.577-24.634-21.273-31.2-22.749-39.14-25.469-63.781-1.243-11.259 5.229-35.23 10.763-38.813 6.197-2.427 11.401 5.701 9.487 9.594m491.5-7.813c-.502.063-1.035.346-1.563.875-2.889 2.896-11.162 16.369-10.875 18.406.63 4.469 4.286 1.548 13.875-12.531 2.303-3.382.738-7.02-1.438-6.75m183.09 7.656c8.513.257 11.531 7.891 7.719 11.875-5.561 5.811-15.563 1.424-15.563-6.719 0-3.451 1.606-5.231 7.844-5.156m47.22 10.875c4.881.209 5.527 5.06 2.938 12.09-3.239 6.53-7.142 7.635-18.844 11.281-14.01 4.367-16.301 3.73-18.406-9.156-.809-4.951-.412-3.852 12.5-7.281 5.541-1.472 12.01-4.098 15.469-5.531 2.607-1.058 4.717-1.476 6.344-1.406m-827.6 5.776l3.442 26.03 5.595-19.494zm782.07 8.755c6.895.028 10.593 6.2 7.094 9.906-1.95 2.065-6.915 2.109-9.313.906-5.475-4-4.485-10.84 2.219-10.813m-210.62 13.594l13.438 8.281-109.16 172.34-13.156-.281-1.25-2.75zm247.69 1.656c8.06-.114 8.755 7.484-1 14.469-4 2.565-8.487 3.189-11.969 3.344-4.853.215-8.124-1.047-8.5-4.406-2.106-8.228-3.307-10.272 4.188-9.781 1.495.098 5.572-.138 8.844-1.531 3.347-1.425 6.181-2.062 8.438-2.094m-33.375 7.531c5.572.03 9.115 6.072 5.375 9.03-4.62 3.656-10.374 1.4-10.344-4.125.019-3.53.98-4.928 4.969-4.906m-785.44 12.188l-29.696 26.305c10.888 12.88 20.02 25.742 29.445 39.25zm600.5 1.688c12.889-.518 17.11 5.718 11 9.906-8.305 5.551-15.419 5.285-24.844 4-12.468-2.317-2.543-12.301 11.125-13.719.936-.097 1.86-.153 2.719-.188m-13.687 18.75c2.603-.07 6.441.662 11.406 2.344 8.432 2.856 18.932 11.694 18.438 16.594-.801 7.932-15.729 3.837-27.75-7.531-7.53-7.122-7.82-11.253-2.094-11.406m-11.406.125c7.309.692 14.603 25.426 8.938 33.03-5.553 7.454-15.341-8.588-13.563-21.19.704-4.987 1.96-11.572 3.906-11.813.235-.029.483-.054.719-.031m-477.31 5.437c4.117.984 9.39 6.678 8.25 11-.83 1.736-2.561 1.232-4.438.781-3.384-1.431-5.997-6.146-5.344-10.06.318-1.059.77-1.657 1.531-1.719m553.87 4.25l21.469 14.563-21.469.844zm-88.969 29.469c16.471.089 19.954 5.418 7.656 11.906-5.112 2.697-17.56 3.204-24 .969-10.221-3.547 2.044-12.953 16.344-12.875m133.25 11.09l1.125 14.938-41.34 3.625-2.125-15.563zm-142.94 7.438c2.863-.181 7.43 1.144 13.406 4.219 11.249 5.788 17.651 15.495 11.844 18.563-5.261 2.779-14.632-.517-21.25-7.469-8.76-9.201-9.467-14.967-4-15.313m-14.06.031c7.511.45 14.01 21.04 9.06 31.22-2.707 5.571-6.138 4.353-11.06-4.813-4.761-8.862-5.02-24.51.469-26.22.507-.158 1.031-.218 1.531-.188m-537.74 5.812l-18.07 36.34 32.745 28.585zm699.83 28l2.906 14.375-39.687 9.781-3.875-15.656zm-173.31 2.813c4.841.086 9.388 1.235 12 3.531 3.621 3.184 2.83 4.613-5.719 8.094-15.224 6.198-33.977 2.447-23.09-6.813 3.844-3.27 10.588-4.923 16.813-4.813m257.81-.842c-15.16 10.161-.561 15.749 10.273 8.07-.811-2.617-7.093-8.03-10.273-8.07m-268.94 20.373c10.841.355 32.11 15.226 27.563 22.344-2.471 3.898-16.693.571-22.344-4.844-7.426-7.116-11.354-16.633-7.25-17.375.619-.112 1.309-.149 2.031-.125m-13.688.688c5.595-1.042 14.539 25.03 7.781 31.719-2.526 2.499-3.228 2.351-7.469-1.406-8.47-7.505-7.02-21.333-1.938-29.06.486-.739 1.046-1.142 1.625-1.25m333.14 13.742c-1.477-2.76-3.316-4.04-5.343-5.559-52.695 20.248-39.19 39.538 5.343 5.559m-124.86 1.789l5.25 14.563-39.969 15.844-5.875-15.938zm-683.66 27.563l-13.531 35.625c14.712.086 27.978 7.03 41.41 13.219zm696.94 10.469l8.469 14.313-37.594 20.344-7.5-15.09zm-873.37 27.875l15.406 10.875-22.625 28.12-2.063-3.969.25-23.344zm893.91 8.844l9.09 13.12-36.19 25.16-8.875-14.281zm-855.09 16.875l16.625 12.813-26.28 31.719-15.906-12.156zm182.94 7.844l-.781 38.16 39.12 1.5zm452.21 17.197l44.47 25.608-6.698-39.08c-11.618 2.263-26.524 9.833-37.773 13.477m244.25-8.01l10.375 12.906-33.437 28.09-10.719-13.438zm-845.47 11.313l15.5 14.406-27.313 29.5-14.344-13.531zm874.03 20.938l12.03 12.219-30.469 31.688-12.03-12.219zm-838.81 15.531l12 14-31.19 24.781-11.563-14.06zm179.72 3.281l8.75 37.37c-.636-2.717 38.827-11.147 43.969-8.312zm459.42 3.16l37.24 39.32 4.187-37.88zm230.33 6.184l13.469 10.531-25 35.625-15.25-11.969zm-842.62 23.75l11.09 16.03-32.688 19.469-9.281-14.156zm877.91 3.781l2.063 2.063-.031 25.437-10.375 15.25-14.156-8.344zm-210.7 28.572l32.948 59.899 9.291-44.67c-12.183-.181-31.468-7.985-42.24-15.229m-641.14 7.991l7.844 17.281-34.531 15.75-7.875-17.188zm18.656 41.25l6.312 17.344-36.719 12.188-5.813-16.719zm-164.16 31.41l11.437 8.01c59.57-31.31 41-40.56-11.437-8.01m336.69-19.91c2.25-.234 4.845 2.878 6.938 9.75 3.163 10.388 1.484 23.269-5.563 23.09-4.746-.576-6.513-12.753-6.531-16.281-.055-10.422 2.263-16.261 5.156-16.562m32.656 6.219l14.188 1.531-.063 4-113 179.41-13.687-8.688zm-60.844 4.156c4.503.04 11.1 3.144 16.938 9.344 3.417 3.704 7.078 8.962 7.969 14.344-.101 1.775-3.129 1.102-6.06.688-7.502-1.06-18.543-6.256-22.06-12.656-4.324-7.864-1.885-11.764 3.219-11.719m519.49 6.387l15.07 73.48c4.666-18.391 14.524-28.995 21.822-43.44-19.2-8.843-27.09-19.323-36.89-30.04m-649.24 14.863l3.531 19-38.06 8.812-3.937-18.437zm141.97 6.594c.539-.0001 1.076 0 1.594.062 13.919 1.557 15.89 4.652 6.531 10.938-5.672 3.81-21.03 4.345-23.562.281-2.7-4.332 7.35-11.203 15.437-11.281m-276.19 11.157l11.812 6.906c20.236-14.625-1.863-17.555-11.812-6.906m256.16 6.406c4.254.052 6.815 7.648 8.313 14.625 1.45 6.755 1.949 12.855-.656 16.25-3.189 4.156-6.311 4.891-8.844.781-7.424-12.05-7.184-31.759 1.188-31.656m-31.375 11.03c1.986-.07 4.489.431 7.406 1.531 9.877 3.727 22.969 18.849 17.438 20.938-8.167 3.083-26.02-5.878-29.375-14.938-1.692-4.566.162-7.378 4.531-7.531m-81.44 12.188l.906 18.781-40.03 1.625-1.188-18.688zm98.06 15.812c3.943-.113 7.884.407 11.06 1.781 5.731 2.477 1.557 6.964-8.281 10.375-6.495 2.252-15.754 2.832-19 .25-7.594-5.988 4.389-12.07 16.219-12.406m-309.56 2.188c27.419 16.652 83.938 53.75 83.938 53.75-2.683.53-5.54 2.632-8.188 4.687-2.043 1.681-4.258 3.241-6.188 4.03-3.038 1.244-5.834 1.416-8.375 1.969-17.673 3.843-26.33 13.844-20.813 26.28 2.167 4.885 2.731 4.1-1.031 8.219-10.54 10.06-9.252 13.07-5.5 25.938.05 1.82-12.547 17.288-1.406 28.937 6.162 5.371 6.456 2.01 4.219 14.219-.78 7.342 1.223 13.367 11.906 15.469 5.94 2.725 5.855 1.776 3.75 6.812-1.44 7.227.622 10.216 5.688 12.844 4.601 2.878 6.471 3.661 3.219 6.188-35.583 18.219-46.527 49.919-12.969 96.62 3.956 5.505 13.912 21.04 13.912 21.04-11.313 16.793-22.11 30.621-33.65 45.619l33.584 46.971c-5.444 8.525-18.16 25.858-25.971 42.96-11.739 25.688-3.988 61.697 29.781 72.47 14.479 4.618 33.6.872 45.65-13.12 9.776-11.355 15.1-33.914 6.181-57.41-11.283-26.322-24.816-39.23-29.19-46.719l35.956-45.14c0 0-24.774-35.639-34.656-48.581 67.43-82.54 12.348-105.62 1.781-112.69-1.641-1.098-1.25-6.375-1.25-6.375 60.56-6.939 81.25-40.22 99.06-82.34 36.13 23.267 87.85 54.56 124.09 79.03 3.493 3.241 5.784 5.245 5.25 7.03-.436 1.459-1.838 8.157-1.906 15.03 1.685 10.948.881 15.902-3.531 20.09-4.153 3.945-3.323 5.737-2.656 10 1.158 7.405 2.28 8.145-1.031 11.875-4.08 4.596-5.446 6.749-4.688 17.906.45 6.625 1.294 11.59-.437 15.5-2.254 5.089-8.428 7.667-16.531 14.03-14.18 11.138-12.267 14.541 7.313 54.969 16.685 34.451 18.591 42.33 12.188 54.56-5.328 10.179-7.334 18.05-6.688 32.75.165 3.75.484 7.804.469 9.781-.039 4.757.024 4.213-2.719 7.188-2.135 2.317-5.684 6.899-7.875 10.188-23.282 34.924-84.53 123.78-84.53 123.78l-205.97-.344zm288.84 16.25c2.413-.173 5.326 4.147 8.625 12.875 1.905 5.04 1.704 13.791-1.375 17.16-6.132 6.702-14.574-9-11.906-21.438 1.205-5.616 2.779-8.459 4.656-8.594m579.26-9.44c.033 31.822-.651 73.12-11.607 103.57l12.425 5.629c-4.01-31.26.963-56.923 29.638-70.45-13.05-8.857-23.02-23.819-30.456-38.752m-610.14 20.06c.995-.026 2.146.221 3.406.625 4.648 1.276 10.308 3.991 13.75 7.5 5.89 6 11.972 13.222 10.438 13.906-9.741 4.275-34.457-8.786-31.22-19 .711-2.163 1.967-2.988 3.625-3.03m-43.31 1.344l.25 15.594-23.938-15.312zm546.66 7.5c3.876.34 9.869 5.413 8.938 8.938-1.667 3.815-3.713 3.46-6.384-.545-3.333-4.999-4.685-8.121-2.554-8.392m-485.03 19.281c5.812-.157 10.828 1.126 11.375 4.156-.016 2.866-4.432 6.573-9.875 8.25-13.609 4.191-23.814 1.487-20.09-5.188 2.333-4.418 11.12-7.02 18.594-7.219m474 17.686c-5.754 10.314-6.465 43.29 3.687 56.752 15.772 17.418 30.336 40.1 28.656 70.28l-15.16 6.781c.837-24.822-.153-40.96-19.531-62.37-23.08-25.08-17.65-68.53-9.686-81.31 6.839-12.614 16.682 5.247 12.03 9.871m-664-13.717c4.848-.286 10.774 2.58 21.5 9.656 27.43 19.417 42.3 26.909 69.5 46.12 3.977 3.725 3.781 3.191 3.094 6.125-10.399 39.795-40.595 71.37-85.34 77.16-5.176.669-2.506-2.573-5.625-8.813-3.211-6.424-9.138-9.221-15.719-9.281-18.478-.171-2.679-10.536 19.875-13.5 7.456-1.146 16.439-2.157 21.19-6.656 1.03.486-3.917-31.13 1.156-42.25 2.588-10.01.14-14.842-2.656-8.688-1.755 3.863-4.211 14.01-5.531 24.406-1.114 8.78-2.964 9.982-5.03 5.719-.944-1.946-.924-6.553.563-10.188 1.681-8.277-8.757-14.517-6.656-22.09 2.797-6.328-.109-13.308-3.625-15.625-1.914-4.103-1.689-7.07-1.437-9.937.588-6.711-3.879-13.161-10.938-15.969-3.12-1.576-2.188-3.284 1.063-4.906 1.517-.757 3.01-1.186 4.625-1.281m-22.438 11.344c1.777-.03 3.541.163 5.219.594 3.633 2.212 6.554 14.787 2.5 15.281-1.494.182-6.161.749-9.781 1.813-12.267 3.605-18.08 3.121-17.844-3.938.244-7.197 10.312-13.585 19.906-13.75m16.313 1.281c4.829.026 8.725 5.682 5.687 8.688-3.142 3.109-9.18.838-9.156-3.656.013-2.423 1.11-5.04 3.469-5.03m3.281 19.594c1.384-.053 2.917.24 4.563 1 4.489 2.075 7.08 9.798 4.219 12.625-2.172 2.149-8.391 1.393-11.719-1.437-5.945-5.058-3.059-11.955 2.938-12.188m-15.219 1.125c2.78.059 4.78.953 5.313 2.875.457 1.653-.309 3.178.437 5.531 1.175 3.704 3.522 6.544 1.469 8.03-9.409-.563-28.942 11.248-34.594 10.687-4.707-.63-5.239-4.967-1.156-12 4.718-8.128 20.19-15.3 28.531-15.12m5.688 22.844c2.05-.13 2.394 1 1.562 4-.591 2.129-.102 7.2 1.344 10.469 1.551 3.506 4.367 5.596 2.906 6.969-2.409.693-10.491 2.309-17.281 4.844-8.765 4.851-33.382 19.461-27.19-3.906 1.974-7.806 11.03-13.223 26.844-18.75 5.998-2.096 9.763-3.495 11.813-3.625m12.906.281c3.804-.277 8.149 1.554 10.09 6.281 5.709 11.367-10.67 12.994-15.906 3.531-3.102-5.605.921-9.457 5.813-9.813m3.125 26.469c8.511.046 15.11 10.599 8.938 14.594-4.579 2.753-10.255 2.235-15.5.937-7.883-3.463-4.245-15.592 6.563-15.531m814.88.219c32.381 16.952 76.42 32.58 119.12 44.19l-1.438 420.06-290.53.187-79.937-138.78c0 0-2.652-4.513-3.5-6.5-1.614-3.78-1.034-6.86.062-10.781 2.648-9.467 10.668-28.02 18.06-41.19 19.307-35.446 46.731-74.32 31.875-108.37-1.699-3.894 15.341-25.01 15.341-25.01 26.25 2.144 47.944-14.966 40.18-55.36 54.785-22.399 99.92-40.608 150.76-78.44m-829.97 2.062c.742-.028-1.491 9.191 3.156 14.844 2.898 4.452 2.428 4.307-7.406 8.188-3.677 1.993-7.363 5.02-9.437 6.875-14.08 12.562-28.01-3.866-14.406-17.06 10.985-9.872 22.47-12.03 27.906-12.719.079-.088.138-.123.187-.125m669.4 8.682c4.723.839 10.842 7.125 8.881 10.551-6.661 11.159-6.962 17.16-7.557 28.705-.664 12.888 1.54 14.787-3.375 12.562-3.203-1.497-9.189-4.068-10.531-7.344-3.094-7.554 4.821-45.854 12.582-44.47m-673.99 32.35c5.23-.091 10.719 1.617 13.813 5.594 2.578 3.314 2.845 6.146.281 7.5-6.094 3.219-26.27 1.544-27.28-2.594-1.566-6.385 5.543-10.367 13.188-10.5m305.56 8.188c24.643.1 53.4 5.341 75.66 15.06 31.596 11.917 59.43 42.29 65.719 55.28 1.91 3.947-1.997 3.948-5.375 4.312-37.633 6.217-50.16 52.52-18.406 74.66 9.957 6.224 18 5.563 18 5.563 8.06-.687-35.795 83.45-53.25 135.87-54.01-2.212-94.82 6.109-147.62-12.06-5.678-9.426-4.326-30.25-.188-41 3.792-9.762 8.788-17.296 6.375-28.531-4.202-19.568-22.03-45.06-28-61.22-5.237-12.335-4.9-16.936 4.219-24 10.746-8.325 13.394-10.07 16.344-14.281 2.748-3.92 1.577-4.822 1.625-13.656.058-10.716-.198-9.05 8.656-10.625 3.088-.549 10.372-2.879 15.938-5.813 11.545-6.085 19.594-5.868 26.375-2.094 2.949.795 2.669-2.262 3.906-6.313.539-1.766 1.788-4.655 1.687-5.531-.209-1.812-4.109-1.289-8.406-.688-17.227 2.412-30.801 2.944-37.781.344-6.05-2.254-6.069-6.331-2.531-13.09 3.155-6.03 5.382-5.932 4.094-18.5-1.617-15.781.576-19.1 7.938-24.281 9.184-6.46 25.864-9.484 45.03-9.406m89.06 13.906h80.09c-7.861 12.68-16.605 32.24-21.562 50.781-.725 1.445-1.58 2.865-3.438 1-10.803-15.471-23.1-32.01-55.09-51.781m-66.41 56.41c-9.572.273-21.546 4.875-36.594 13.5-10.226 5.861-18.579 9.501-29.438 7.5-6.206-1.144-7-.26-7.813 1.75-3.653 9.06 9.902 18.781 23.594 12.406 3.979-1.666 34.503-17.491 36.19-18.844 1.834-1.472 14.474-5.197 17.812-5.156 10.1.125 16.327 8.06 15.09 17.219-1.648 12.232-18.991 12.846-20.12 1.969-.873-8.375-4.366-4.655-4.688-.531-.019 3.516 2.635 11.535 5.531 13.344 14.653 9.151 33.973-8.66 24.719-27-5.664-11.224-13.433-16.466-24.281-16.16m-65.726 42.631c-9.938 1.892-16.403 5.76-27.12 6.65-8.84 1.952-8.185 8.991-2.656 12.656 4.244 2.814 9.595 1.113 25.06-8.719 15.192-9.657 28.22 10.46 16.06 20.762-7.65 6.485-2.398 8.189 2.84 4.281 13.457-10.04 5.736-39.42-14.191-35.631m47.04 51.775c-1.165-.082-3 .34-5.469 1.469-11.385 5.214-20.14 10.708-25.594 18.03-.934 1.59-.425 4.275-.875 6.375-.354 1.653-1.67 3.752-1.437 4.875.203.977 3.419 2.02 3.906 2.937 1.98 3.724.705 13.205-.438 20.06-.547 3.285-5.424 4.299-7.375 6.281-6.416 6.519-4.803 8.513 2.031 5.969 4.774-1.777 2.749-5.072 14.562-2.781 15.303 2.967 27.43-1.188 39.469-7.875 13.369-7.426 18.208-11.544 18.75-10.656.892 1.461.188 2.234-9.344 10.156-23.893 19.859-41.66 24.471-55.06 17.03-4.01-2.729-7.225-3.842-4.188 2 .39.638 3.637 3.163 5.906 4.187 13.768 6.215 31.03.958 53-16.406 4.823-3.812 9.08-8.08 14.656-12.75 18.228-15.256 13.434-22.24-7.156-14.813-6.491 2.341-8.319-.185-17.09-3.594-11.787-4.579-15.656-5.01-29.22-5.25-11.807-.208-13.573.897-13.563-1.094.014-2.528 7.95-11.456 16.875-15.344 8.708-3.793 11.15-8.568 7.656-8.812m21.719 37.656c2.199 2.223-.953 3.644-9.469 7.688-4.823 2.29-9.255 4.169-9.875 4.156-.757 1.373-8.79-16.739-6.594-17.625.939-.379 20.606 1.286 25.938 5.781m-30.906-1.906c1.974 4.107 3.479 8.405 4.25 12.375.178 1.219 1.049 2.984-.875 2.969-1.513.219-4.01.347-4.906-1.063-1.926-3.02-4.064-13.315-3.344-15.313 1.478-2 4.081-.6 4.875 1.031m70.06 32.562c-.713.0001-2.051.538-4.156 1.781-33.886 20.01-74.53 30.435-100.66 20.563-8.814-3.33-10.424-2.156-7.219 3.875 2.224 4.185 6.634 9.09 13.344 10.938 21.349 5.873 55.732-2.677 82.19-20.03 10.768-7.06 19.59-17.15 16.5-17.12m199.44 53.625c0 0 59.887 123.44 71.53 129.25l-487.25-.875 82.09-117.34c.725 6.525 198.02 33.621 333.62-11.03" fill="#131f67"/>
   <path d="m-1336.73 1087.2l76.75-117.49c116.73 20.2 221.22 6.778 335.56-15.58l78.5 127.55zm609.79-443.21l-1.644-68.972 24.18 8.537c-8.87-31.947 11.635-65.821 30.787-67.47-62.04-45.22-11.956-95.5-13.03-96.54-67.59-33.483-34.844-87.15-39.571-91.83-82.01-19.823-51.19-85.17-57.26-78.38-47.3 15.08-74.14-24.325-75.48-56.705-40.75 23.996-104.86-7.988-85.55-45.44 0 0 21.961 9.983 25.776 7.832 33.18-24.974 31.13 10.117 38.24 17.615 24.989-4.04 40.09 14.886 46.49 24.1 36.95-.574 35.28-9.41 36.2 26.42 27.954 6.609 27.09 21.681 43.564 41.98 35.1-.194 29.383 11.325 21.761 30.881 25.63 19.722 27.94 35.454 32.413 53.699 27.763 9.548 32.783 13.537 15.16 37.1 24.958 36.11 13.587 57.45 17.321 59.38 30.729 21.409 15.684 29.592 2.561 38.22 5.088 29.04 8.847 33.26-1.371 63.08 35.32 24.2-4.947 36.04-7.01 35.558l.307 24.546zm-848.22-165.89l-2.118-85.46 299.08 186.33-36.421 59.31zm395.2 119.3l67.52-147.61-27.772-159.32 200.55 1.068c23.382 50.863 37.695 94.2 96.85 178.05l-60.701 20.02 3.819 102.63zm170.81-41.35c-2.114-4.203-3.3-7.08-2.95-8.975.71-2.45 2.573-2.37 4.986-1.098 8.59 3.997 17.17 7.423 23.317-.512 3.077-4.148 2.16-9.974-.566-13.302-4.97-9.707-19.972-2.373-25.05-1.939-4.72.183-6.606-3.757-2.818-9.474 2.273-2.501 3.676-5.238 4-8.444 2.283-22.429-35.739-13.836-22.14 7.652 6.15 7.944 2.721 12.835-6.204 7.896-9.819-5.433-23.261.007-22.619 11.766.487 8.908 11.774 14.232 21.11 8.698 2.155-1.278 3.826-2.652 5.358-3.348 4.344-1.976 7.517-.459 6.144 4.496-3.814 6.225-8.267 15.16-4.321 20.91 3.988 8.43 17.248 7.419 21.712 2.061 3.073-3.69 3.857-9.619.045-16.388m455.04-456.55l-299.68-187.27 9.982-16.416c13.155-7.626 18.47-16.94 17.806-29.782l7.761-17.881 262.97 162.67zm-464.65-57.3l32.932 154.64-206.95 6.368c-12.233-51.903-85.28-168.63-85.05-166.57l52.951-136.56 274.68-4.866zm-78.63-56.48c5.163-4.89 4.689-12.218-1.229-20.374-5.732-7.901-3.332-13.707 5.729-8.443 5.03 3.253 12.928 3.817 18.233 2.033 6.726-2.417 9.447-7.868 8.334-14.67-1.346-8.229-10.53-10.342-20.242-6.579-2.811.642-4.496 2.976-6.913 4.115-5.227 2.406-7.43-3.895-2.746-12.183 5.193-9.188-.514-18.857-10.351-19.554-10.514-.745-16.568 11.299-12.18 17.778 6.299 9.302 1.957 15.923-6.962 9.78-12.835-8.84-29.2 2.905-22.12 16.251 3.436 6.475 14.36 8.01 24.05 3.708 8.103-3.593 10.595.346 5.787 8.788-9.88 17.348 7.06 32.18 20.606 19.35m-302.85-147.37l-.824 82.71c-31.28-18.428-26.68-18.74-27.817-18.436 9.521 24.699-.607 55.58-26.625 71.11 48.07 43.627 23.01 75.27 15.589 96.48 61.05 34.12 31.374 95.29 31.566 92.14 59.63-.649 59.29 51.51 61.37 73.23 73.65-5.848 64.74 53.22 74.55 58.13 35.473-16.587 77.31-11.791 89.17 36.06 7.618 27.13-19.1 1.305-30.529 2.643-40.33 26.05-33.13-12.808-35.513-18.16-33.697 3.76-38.504-12.258-53.48-23.428-36.34 7.617-33.533-4.423-31.751-26.6-28.694-5.32-35.2-23.07-46.891-40.34-39.461 1.925-23.818-26.23-23.758-31.712-4.865-4.21-27.906-26.15-29.443-51.669-40.72-10.785-15.61-31.655-14.262-38.695-15.646-18.852-19.909-32.877-15.175-57.03-36.26-16.233-6.468-32.453-4.078-42.06-12.25-31.16-3.858-40.69.492-57.731-23.605-26.764-9.742-25.487 6.929-42.24 2.096-3.01-4.049-16.541-3.853-24.57zm202.84-309.84l-66.809-115.08 463.48-7.66c0 0-49.28 70.73-68.26 106.22-115.89-16.334-223.91-5.887-328.41 16.52" fill="#d40000"/>
   <path d="m-1496.45 1014.38c-40.802-8.563-48.552-59.55-11.09-102.67 3.03-3.486 5.04-8.84 5.04-8.84 0 0-6.978-11.06-25.19-35.424-3.39-4.534-8.335-11.805-8.335-11.805 9.515-14.231 19.564-26.05 30.23-41.485 1.431-2.084 4.103-4.435 3.692-6.327-.585-2.693-4.591-5.325-9.443-12.224-28.2-40.09-31.496-56.12-17.924-80.46 12.76-22.888 44.09-26.02 63.52-6.358 20.995 21.254 20.364 40.892-5.786 81.28-5.74 8.864-9.856 16.847-9.856 16.847 0 0-.198 2.784 9.713 15.16 13.75 17.16 23.879 31.917 23.879 31.917 0 0-5.999 7.919-11.685 14.828-15.237 18.514-22.02 31.22-22.02 31.22 0 0 1.117 3.624 3.482 6.216 43.39 47.558 40.952 103.04-7.138 108.55-2.472.283-8.497.014-11.09-.413m332.43-621.57c-1.147-1.811-149.24 246.96-149.24 246.96l17.554 10.854 141.8-230.04c2.225 1.63 4.406 3.583 4.01 6.357 0 0-116.67 197.36-136.12 228.92-.523.848 30.04 18.275 31.05 18.309 44.22-22.71 230.51-6.759 353.86-16.365.493.371-1.18 43.41-1.18 43.41 0 0-28.695-32.1-34.388-32.21-28.09-.516-57.42 11.931-78.59 10.937-13.439 4.357-28.05 53.841-30.873 66.23-24.623-2.448-47.936 23.656-41.861 47.51 8.474 26.475 22.244 24.24 37.19 24.432-.889 30.15-52.762 110.42-52.34 149.54 56.17-5.376 117.01-7.407 174.73-25.861 0 0 20.755-63.03 47.568-104.79 8.807-15.949 12.767-39.744 8.84-54.631-2.6-16.334 4.388-20.587 10.5-32.15 3.718-7.227 17.9-7.165 19.701-7.719 36.725-11.298 22.752-58.8 6.912-67.03-19.763-10.264-47.18 6.599-58.18-14.695-11.637-22.534-8.767-69.58-8.767-69.58l-278.58 5.935c0 0 76.25-150.89 74.23-151.95-21.72-11.461-57.56-51.952-57.824-52.38m-184.09 139.24c1.052-15.15-.591-261.02-234.9-379.39l.701-32.34c1.399-1.688 212.87 91.24 253.01 341.05l63.08-102.57 23.979 8.956c-34.32 53.48-102.22 183.03-105.87 164.29m-142.52-86.23c9.101-28.542-6.347-13.226-20.678-14.15-9.871-5.162-19.589-11.878-28.772-17.707 67.29-37.09 26.891-34.684-12.24-8.773-10.345-5.393-23.512-17.355-24.313-16.311 75.78-50.54 47.04-51.06-1.394-14.577 1.136-33.486.151-20.909.622-32.17 41.05-45.47 2.529-20.495-.329-19.912-11.02-44.504 38.33-35.965 43.4-2.265 8.765 6.296 25.92 13.985 31.393 41.609 23.878 14.656 21.604 27.16 20.806 45.2 9.392 8.978 33.564 27.852 6.04 46.11zm-91.48-202.39l1.162-24.739c3.039-10.128 184.29 114.72 174.09 279.17 2.094-1.188-20.01-11.14-26.402-16.676-1.902-120.86-146.18-243.8-148.85-237.75m1029.76 121.66c-120.44-52.809-236.11-182.22-244.89-352.87l-65.64 114.2-24.13-9.752c2.269 1.815 51.855-93.98 103.44-160.48 18.417 215.2 104.56 313.98 233.75 384.64zm-627.28-68.43c-116.06-12.462-286.13-167.39-239.61-381.98 6.738-21.826 120.43 96.6 120.43 96.59.614-5.465 103.05 153.64 100.77 185.09 84.61 22.602 248.62-2.866 248.62-2.866 137.19 28.27 282.54 173.37 234.41 383.8 0 0-36.724-23.259-67.55-50.52-93.72-87.65-124.2-160.44-158.22-240.73-118.28-8.744-228.66 14.275-238.85 10.609m624.15-188.39c2.194 10.614 1.25 32.691 1.647 32.64-30.23 34.03-33.411 34.693 4.996 23.283-4.251 32.22-27.924 37.895-42.22 27.19-5.27-3.945-5.685-26.1-5.685-26.1-23.5-5.477-31.65-12.384-28.748-37.612-27.01-2.772-26.16-15.913-24.401-43.34-24.769-13.401-19.02-35.479-4.655-45.1l12.278 8.163c-3.835 3.547-1.579 25.339 19.666 8.748 0 0 17.438 14 25.798 19.406-61.58 41.05-23.994 31.628 13.908 4.706 7.275 4.788 17.228 12.65 22.4 16.03-49.907 37.05-65.979 67.61 5.02 11.992m5.271 136.03l-1.58 28.885c-124.12-73.16-159.03-171.76-169.91-277.22 0 0 16.694 11.874 24.321 16.791 13.217 136.06 139.49 225.98 147.16 231.54m-679.13-346.37l294.71-2.987-75.68 150.77 42.06 48.06c0 0 99.73-161.24 149.82-245.66l-17.982-10.352-143.1 233.34-5.943-6.377 141.03-233.12c-8.778-5.549-25.369-14.402-25.369-14.402 0 0-250.89 8.178-359.97 9.54 3.289-15.12 3.61-41.816 3.61-41.816 16.464 22.833 34.04 43.17 71.17 19.856 0 0 44.38.765 45.98-1.374 5.277-8.87 14.443-36.634 25.14-67.996 42.744-3.569 38.14-24.19 42.893-31.06-4.281-60.765-37.846-27.452-35.28-49.609 8.988-39.558 56.787-129.56 50.44-137.28-12.855-8.228-138.48 18.678-175.09 23.802-3.418-1.251-20.351 57.58-38.827 82.925-20.1 27.565-26.94 56.884-15.994 84.25-10.375 30.453-31.26 27.694-47.853 36.543-18.639 20.878-12.888 52.28 5.405 64.16 12.74 8.273 32.07 7.512 51.52-8.821zm582.09-221.11l-35.24-45.743 32.619-49.26c-13.537-20.703-35.823-52.36-32.34-77.8 7.684-50.46 75.67-44.2 82.38 3.839 3.582 22.287-12.246 49.955-28.397 73.55 11.241 19.722 15.994 22.891 32.24 45.44-9.158 16.802-31.576 49.758-31.576 49.758 14.714 23.854 35.07 50.07 34.03 74.6-1.166 21.07-23.743 42.773-45.22 38.644-66.779-12.837-30.787-84.62-8.493-113.03" fill="#e2cf00"/>
   <path d="m1241.5 17.375v22.25h22c0 0 .522 21.452.719 67 .191 44.2 1.096 66.14-1.75 78.72-7.74 29.03-50.552 29.17-59.06 8.313-4.956-12.147-3.614-21.574-3.875-33.781h-23.656c0 0 .121 6.146.156 13.656.13 32.663 11.149 48.24 36.906 54.41 26.487 7.02 57.42-3.676 68.44-25.906 6.571-12.665 5.813-13.502 5.969-90.06.104-51.1.906-72.34.906-72.34h20.25v-22.25zm416.31 101.78c18.276 34.34 70.19 126.97 70.19 126.97 123.44-25.602 227.25-32.12 336.34-8.219l77.937-118.19zm16.09 6.969h22.313l43.781 90.09 75.53-15.09-12.875-74.81 21.375.125 10.813 71.938 110.97-2.813 14.375-69.44 20.469.25-14.687 70.56 87.88 11.844 43-82.66h29.531l-65.37 102.06c-116.3-22.667-231.83-15.05-328.53 8.75zm42.09 0h65.16l15.625 60.813c-8 4.178-37.878 11.319-47.875 10.313-11.939-20.911-24.272-51.15-32.906-71.12m125.66 0h99.16l-8.469 51.781-83.16 2.656zm157.19 0h76.41l-30.16 62.875-57.62-7.844zm-488.47 15.75c-15.333 32.992-36.928 65.18-55.03 88.969-53.655 70.14-65.18 90.11-75.78 131.41-16.598 64.65 40.619 116.88 90.25 81.75 11.691-8.275 24.636-31.09 24.688-40.938.038-7.085 4.883-10.909 8.813-6.938.791.8.991 3.971.75 8.5-2.749 29.29-14.5 76.924-37.25 106.81h90.91c-27.514-36.487-36.718-73.26-36.22-107.84.072-14.863 8.867-13.401 10.844 1.813 9.697 74.61 105.92 60.6 110.41-14.03 2.642-39.02-21.993-80.61-54.09-126.69-26.19-37.596-58.05-78.19-78.28-122.81m779.37 47.19c-4.468-.024-8.589.363-12.375 1.156-19.82 4.151-30.21 19.382-30.375 44.25-.075 11.397 8.323 31.546 21.09 50.594 6.228 9.289 10.375 17.844 10.375 17.844l-33.25 48.875 35.37 46.22c0 0-5.51 6.463-8.781 11.09-16.224 22.949-23.726 44.4-22.688 62 1.122 19.01 12.204 33.513 32.969 40.469 11.395 3.817 27.64-.85 38.562-10.75 8.814-7.989 13.25-18.371 13.438-30.563.268-17.416-8.142-38.514-24.906-61.53-4.551-6.249-6.781-11.156-6.781-11.156 0 0 23.461-33.407 32.31-48.688l-32.06-46.06c25.495-38.31 30.633-46.799 31.344-70.34-1.155-23.332-18.08-43.26-44.25-43.41m-3.188 2.813c1.101-.018 2.212.009 3.313.094 29.11 2.243 44.488 23.882 40.625 51.656-3.953 26.487-27.827 51.17-31.656 59.688 11.482 18.66 33.12 45.19 33.12 45.19-9.185 16.698-32.906 49.06-32.906 49.06 0 0 1.368 2.677 2.875 4.813 24.768 35.1 31.579 51.683 29.875 72.72-1.346 16.594-14.442 31.399-30.781 34.406-25.88 4.763-47.11-13.604-49.719-38.41-1.593-21.71 12.402-42.815 23.281-59.28 4.609-6.899 8.562-13.5 8.562-13.5l-35.25-46.28c0 0 2.526-3.978 4.156-6.344 6.198-8.995 14.215-20.13 18.313-25.469 7.414-9.65 11.813-16.313 11.813-16.313 0 0-5.253-8.456-10.125-16.16-19.331-30.537-24.724-46.19-21.75-63.06 3.656-20.758 19.742-32.538 36.25-32.812m2.625 15.656c-10.758.286-21.03 8.219-25.12 19.688-5.911 21.508 16.723 54.07 27.03 62.813 19.305-22.2 31.6-47.1 24.469-64.53-4.693-10.542-15.619-18.255-26.375-17.969m2.656 6.969c19.496.403 26.791 23.548 11.75 49.875-5.194 8.986-12.844 18.375-12.844 18.375 0 0-7.144-8.902-11.438-15.625-17.425-27.28-12.932-48.571 8.469-52.37 1.405-.181 2.763-.277 4.063-.25m-387.97 12.03c-51.03.27-119.22 8.77-179.16 22.375-5.203 32.15-21.34 64.39-38.938 90-16.95 27.687-23.07 51.796-17.406 68.31 5.307 15.464-9.179 38.549-25.09 40-19.778 1.803-32.368 15.576-32.12 35.19-.562 31.422 21.12 50.685 50.563 40 2.958-.37 4.937 1.563 4.937 1.563l-1.719 179.84c-16.568 2.602-27.631 6.207-41.719 13.688l-5.938-6.375c-3.265-3.505-7.392-7.995-9.187-10-1.796-2.01-5.05-4.802-7.219-6.188-2.168-1.386-5.111-4.378-6.531-6.656-3.471-5.565-18.207-19.725-26.25-25.22-1.37-.936-4.843-3.882-7.719-6.531l-5.25-4.813.031-59.719c.017-32.843-.319-60.07-.75-60.5-.431-.434-7.159 2.434-14.969 6.375-26.825 11.74-52.46 27.933-72.12 41.06-8.713 5.834-9.585 9.08-6.313 23.844 1.837 8.285 1.384 9.174-5.438 10.844-14.05 3.438-18.441 25.816-6.563 33.406 5.572 3.56 5.595 3.747 2 11.844-5.56 12.523-5.349 36.476.406 46.47 3.285 5.705 3.064 7.547-1.281 10.375-14.963 9.738-13.947 30.576 1.688 34.469 3.998.996 5.04 2.709 3.719 6.125-4.887 12.618-.435 31.792 10.781 46.31 5.829 7.548 5.813 7.465 1.969 10.938-12.593 11.377-5.769 31.764 11.375 34 5.883.767 5.912.78 6.594 5.281 1.966 12.938 2.859 16.548 5.719 22.625 3.606 7.661 7.94 12.836 16.06 19.16 6.624 5.155 6.63 5.228 3.094 12.844-6.537 14.08 3.858 28.04 20.438 27.469 8.45-.293 8.455-.316 9.06 2.688 2.98 14.698 20.445 31.94 34.781 34.31 7.37 1.22 8.532 2.972 6.03 9.219-4.03 10.06-1.419 16.536 8.75 21.75 6.818 3.498 8.81 3.626 16.281 1.063 8.448-2.9 8.538-2.857 15.719 6.75 10.121 13.542 16.832 16.943 33.719 17.06 11.136.08 11.553.367 11.625 8.219.17 18.589 19.831 26.339 32.5 12.813 4.568-4.877 4.557-4.856 8.625-1.875 17.821 13.06 33.627 16.432 32.16 4.219-3.443-28.59-24.12-46.03-24.12-46.03l25.844 6.75c1.135 30.19 2.211 66.58 8.5 91.75l-115.19 183.47c0 0-6.986-4.27-14.344-9.344-10.829-7.469-24.09-16.254-32.22-21.344-4.162-2.608-9.474-5.788-13.656-9.312-4.01-3.341 2.476-7.75 3.844-11.281 26.524-47.36 68.03-104.29 98.25-159.62l-29.25-11.313c-22.377 35.23-38.856 63.58-59.688 96.06-20.748-152.22-126.98-285.85-255.5-342.12l.438 39.844c134.92 69.02 231.22 211.46 228.66 379.47-.528.632-11.296-5.815-25.844-15.5-7.672-5.108-23.11-15.203-25.03-16.188 6.242-186.06-178.28-296.07-178.59-290.87 0 0-1.16 24.04-1.687 35.19 78.63 52.682 140.4 148.52 146.66 233.81.07.698-36.906-23.06-36.906-23.06 22.01-10.955 15.946-39.34.094-47.03-4.96-2.226-5.252-3.302-2.781-10 5.07-13.746-4.228-34.435-17.03-37.906-5.612-1.522-6.54-2.994-6.813-10.875-.501-14.412-8.472-23.836-22.844-27-3.967-.873-4-.909-4.219-5.875-1.211-27.918-28.516-39.29-49-20.406-2.289 2.111-4.688 6.125-4.688 6.125l-.156 30.28c6.994-3.849 17.61-17.01 21.969-16.469 4.815.562 2.48 3.802-8.344 13.156-7.02 6.069-13.844 12.469-13.844 12.469l.438 39.875c11.666-7.574 23.348-16.14 34.28-23.75 9.423-6.572 14.247-8.71 15.406-6.813 1.301 2.133-.802 4.92-6.156 8.125-14.363 9.568-31.08 20.796-43.16 30.25l-.031 27.469 2.312 3.406.688 24.06-2.156.531.031 30.31 283.78 181.28 144.41-227.81 2.375 2.406-144.44 226.84c0 0 5.94 5.109 11.562 8.06 5.733 3.21 12.899 7.487 19.03 11.562 2.89 4.736 7.95 8.909 13.375 8.313 4.972-5.427 26.666-11.168 28.751-13.671 80.79-1.189 312.72.389 312.72.389l1.313 37.09c-10.423-35.969-44.04-43.39-70.47-27.28l-43.41.062c-.335 0-25.686 46.2-29.406 70.31-18.243-2.48-42.52 15.299-43.75 33.34-2.955 25.675 13.915 44.39 35.969 40.75.401.16-3.461 25.44-15.937 45.19-16.551 34.858-25.08 54.36-35.19 84.09-6.84 18.687-4.505 22-3.344 22.469 64.755-.936 124.33-7.207 185.78-27.03 0 0-1.137-4.378-1.688-6.844-2.22-9.95 6.144-30.31 29.781-72.37 18.255-32.486 23.483-44.885 25.313-60.22.927-7.762.757-9.771-1.938-24.25-.17-1.347-1.223-3.294-.938-4.75 1.914-9.751 16.752-26.884 17.09-26.469 0 0 5.385-1 7.531-1.187 33.479-2.35 43.851-47.851 15.594-68.37-13.769-8.437-21.877-9.07-36.469-5.25l-.25-176.47 20.35.765 22.369-11.05c35.937 30.69 59.38 62.06 98.06 85.69l-.625 1.563-28.75-19.719.063 115.62c33.28-17.324 64.3-33.3 94.22-57.53l-6.03-5.219.25-16.531c28.11 2.217 30.818-33.572 7.719-37.844 0 0 .532-2.883 2.75-7.438 7.088-14.543 7.971-28.25 2.813-43.37-3.15-9.231-3.01-11.55.719-11.531 17.07.093 15.508-30.21-1.906-36.844-5.994-2.284-5.569-.385-4.344-19.19.92-14.12-2.523-23.7-12.969-36.09-3.944-4.677-3.608-6.931 1.469-10.03 14.576-8.9 4.01-34.592-13.906-33.844-7 .293-6.988.285-7.594-6.719-1.593-18.409-11.876-35.964-25.344-43.31-4.173-2.277-4.786-4.14-2.438-7.281 11.471-15.341.746-36.31-15.438-30.19-3.135 1.187-6.449 2.379-7.344 2.656-1.279.396-2.311-1.392-4.781-8.344-6.73-18.93-12.704-24.866-34.12-33.875-4.212-1.772-4.462-3.02-2.563-11.656 3.282-14.909-17.252-28.787-28.344-19.16-4.517 3.923-4.668 3.889-9.75-2.625-10.131-11.656-26.614-19.778-41.28-21.313-7.01-.631-8.07-1.178-7.5-3.875 3.892-18.267-13.878-30.17-28.656-19.19-7.096 5.274-8.931 5.433-16.219 1.344-15.315-8.595-22.03-8.917-23.625-1.156-.492 6.464.935 14.11 2.5 18.875 3.728 12.833 8.555 17.595 19.12 26.625 0 0-17.54-4.864-21.969-5.75.436-.459-1.275-60.899-12.781-95.12l112.16-178.5 64.25 42.37-102.75 162.53 29.906 12.156c0 0 39.938-66.35 60.844-98.87 13.689 161.56 138.58 303.22 251.72 345.25-.382.191.363-23.23.844-34.562-119.36-52.56-232.9-199.42-225.75-375.69l47.937 30.688c13.916 141.28 75.46 224.06 178.03 294.06v-43.28c-70.64-52.28-129.34-120.57-144.91-229.84 0 0 23.952 15.13 34.688 22.313 0 0-3.03 1.729-4.594 3.03-12.816 10.668-8.963 32.55 7.938 44.938 2.744 2.01 2.771 2.02.188 8.906-5.125 13.672 2.777 30.2 16.12 33.656 7.658 1.985 7.611 1.891 7.75 10.656.272 17.02 7.13 24.865 25.313 28.938 2.485.555 2.572.813 2.531 8.438-.102 18.814 17.974 31.468 33.719 23.594 4.929-2.466 20.438-15.438 20.438-15.438v-30.28c0 0-7.02 5.743-12.09 10.469-8.881 8.276-11.682 9.302-11.656 4.25.02-3.665 4.107-8.472 12.625-14.813 4.419-3.288 11.125-10.313 11.125-10.313v-35.28c0 0-3.963-6.284-3.719-13.813.133-4.095 1.281-10.313 1.281-10.313l4.25.094-.062-40.844-5.156-4.03.219-27.06-280.59-181.56-146.16 232.44-3.656-4.281 146.31-230.97-38.875-24.844-23.469 11.563c0 0-162.41-2.562-320.81-.531 0 0-.378-4.37-.313-16.719.084-15.521.8-17.697 3.656-11.156 6.41 14.679 22.319 23.529 40.781 22.688 10.427-.476 11.877-.901 23.469-7.156 4.309-2.325 5.092-2.395 25.406-2.25 21.779.156 25.694-.642 25.719-5.25 7.583-17.248 15.05-37.26 19.375-52.31 2.084-7.294 3.01-10.511 4.719-12 1.323-1.154 2.366-.894 5.531-1.094 13.936-.897 17.811-1.796 27.844-11.594 20.12-20.22 8.582-61.34-20.563-61.5-7.718-.042-2.438-20.583 13.875-53.906 16.876-34.477 19.243-39.765 27.969-62.875 5.704-15.11 8.428-25.936 9.125-32.531-1.609-.008-3.26-.009-4.906 0m-1.531 9.969c4.04 3.387-6.05 28.29-24.22 65.969-14.998 31.11-21.709 46.665-24.906 57.938-.922 3.25-2.239 7.936-2.938 10.406-.983 3.477-2.274 5.193-5.719 7.656-2.449 1.751-5.861 4.329-7.594 5.719-4.914 3.941-6.08 2.689-4.875-5.25 2.235-14.733 8.07-30.626 21.562-58.28 10.689-22.01 21.15-45.598 29.28-69.66 1.828-5.618 2.679-11.325 5.719-13.406 4.369-2.452 8.995-1.967 13.688-1.094m-21.875 1.438c2.781 1.925-10.409 36.03-33.25 83.37-28.499 59.08-30.01 100.47-4.375 110.59 20.21 7.983 40.565-14.287 28.09-30.531-5.997-7.81-18.924-8.469-23.406-.375-2.446 4.416.948 9.507 5.281 3.313 6.303-9.01 18.927 1.393 15.875 12.06-2.091 7.318-12.338 13.205-18.688 11.938-28-5.589-22.726-45.08 6.313-47.25 27.787-2.079 40.42 35.24 20.25 56.59-6.398 6.916-13.891 10.361-26.938 10.344-18.09-.024-34.993-14.964-33.28-28.813 2.391-12.677 2.756-22.92-1.531-32.906-1.378-3.208-3.061-6.397-2.969-10.438.255-11.228 9.502-28.659 30.12-71.72 7.389-15.429 16.457-42.18 20.937-59.06 1.581-4.939.802-6.326 2.658-7.01 4.612-1.015 11.198-2.402 14.905-.115m-23.844.594c4.231.183-5.509 31.25-17.781 57.719-9.319 20.266-22.04 46.3-31.5 70.37-3.03 5.105-5.05 5.502-11.25 2.188-6.832-3.651-4.811-9.461 11.312-41.531 12.157-24.356 23.839-51.91 32.03-79.66.74-3.332 1.863-6.215 4.625-7.813 4.208-1.839 8.309-1.468 12.563-1.281m-22.688 3.5c2.257 2.984-12.52 44.866-35.37 92.09-4.882 10.03-8.184 19.19-13.09 29.438-2.359 2.373-11.449 3.579-16 4.5-4.692-.625-.244-9.43 13.12-36.469 10.898-22.04 13.994-28.28 19.719-41.688 4.171-9.818 10.245-26.686 15.938-42.44.458-1.271.898-4.098 2.125-4.75 4.243-1.791 9.41-2.519 13.563-.688m-22.313 2.625c.37 1.01-.472 3.086-.781 4.688-3.594 16.854-11.811 32.546-17.813 48.656-.718 2.196-7.297 15.912-14.625 30.469-7.328 14.557-14.05 28.458-14.937 30.906-.889 2.449-3.324 8.95-5.406 14.438-13.153 28.21.991 50.45 18.41 52.01 27.17 2.248 29.734-35.84 10.564-39.504-7.23-1.215-15.177 2.75-15.222 11.06-.507 4.349 4.839 9.392 4.762 3.15-.285-11.349 15.572-10.827 17.525-1.187 3.806 18.786-17.54 27.967-30.26 13.219-5.239-6.075-5.193-13-4.219-19.219 2.639-16.811 22.01-28.971 39.969-16.281 24.567 17.362 16.09 55.753-15.656 62-10.851 2.826-24.532-.789-33.09-9.594-5.452-5.607-9.03-13.87-10.406-24.12-.764-5.708-1.065-12.427-.188-18.719 2.572-19.711 16.95-48.5 29.563-72.875 9.734-20.227 17.383-46.943 26.25-68.44 2.502-1.832 15.939-3.526 15.563-.656m-23.969 2.688c1.445.446-5.976 23.799-16.562 49.03-11.65 25.594-26.77 54.877-35.34 80.06-2.699 6.18-4.666 5.995-12.344-1.156-4.053-3.775-1.772-9.401 12.438-38.41 21.859-44.621 29.971-63.66 33.25-74.28 1.541-4.994 2.779-11.12 6.06-13.06 4.199-1.985 8.331-3.445 12.5-2.188m-21.844 5.594c-2.313 7.512-9.888 29.776-22.844 56.16-8.129 16.651-16.07 35.1-24.09 52.28-4.48 10.604-4.61 10.593-12.25 12.188-12.878 2.688-12.88 2.545-1.5-20.531 3.382-6.857 9.883-19.451 14.469-27.969 8.451-15.697 21.511-46.26 26.25-61.5 1.269-4.08 3.034-7.91 5.094-10 1.323-.704 11.464-3.732 14.875-.625m-28.16 2.813c2.302-.083 4.372.329 5.344 1.594.573 5.241-13.582 38.752-22.281 54.28-2.657 4.762-5.292 10.933-8.281 16.438-11.08 17.635-24.408 51.53-27.844 65.59-5.458 22.346 20.08 39.24 33.33 22.994 8.407-9.835-.343-27.528-12.456-22.588-4.231 1.726-2.503 3.615 3.275 4.1 9.539.8 10.261 15.507.153 18.738-11.234 3.44-19.513-6.306-19.471-16.283.086-20.461 22.469-27.979 36.479-16.801 13.977 11.639 16.203 39.31-4.967 50.03-20.637 10.452-46.05-3.716-51.16-28.5-3.896-18.915.326-36.25 18.531-65.41 10.462-16.785 26.714-45.76 35.03-71.19 1.631-4.31 3.068-7.879 4.562-9.688 1.388-1.606 5.913-3.174 9.75-3.313m-497.34 5.125c0 0-8.232 15.784-19.594 34.719-13.862 23.417-34.27 46.536-37.28 72.72-.808 7.456.427 14.939 1.938 19.531 6.336 19.266 33.929 22.17 43.563 5.938 2.892-4.877 3.869-5.779 6.688-4.25 1.21.656 1.718 2.55 1.656 5.219-2.395 17.287-9.06 26.789-18.625 39.781h46.03c-9.691-10.669-17.913-25.386-18.906-40.28-.298-6.101 3.426-6.615 9 .063 17.956 24.817 46.18-3.064 43.875-26.22-2.568-25.768-29.514-59.1-36.937-72.19-11.225-16.611-21.406-35.03-21.406-35.03m1050.63 54.41l-27.719 35.25c7.996 11.553 27 34.28 27 34.28l26.28-33.938zm.25 19.719l11.469 14.875-13.12 15.5-12.312-14.469zm1.031 76.62c0 0-33.51 36.722-25.813 63.969 6.879 24.274 43.39 30.17 52.28-5.344.625-2.828.132-6.652-.25-11.406-.762-14.465-26.22-47.22-26.22-47.22m0 7.25c0 0 9.622 13.953 16.406 26.313 7.592 11.757 9.585 44.615-17.375 43.594-14.613 1.507-28.561-17.756-16.938-41.31 3.163-7.174 17.906-28.594 17.906-28.594m-553.12 5.906c1.863-.29 3.733 3.732 4.906 6.656 1.597 3.975-2.966 15.427-7.781 21.12-.916.959-7.07 1.487-16.219 6.156-.025-4.287 2.593-13.683 4.313-17.844 6.236-6.164 11.53-13.506 14-15.688.262-.233.515-.365.781-.406m-66.781 2.063c4.116 4.662 8.165 8.708 8 11.594-.243 4.223-5.211 9.444-8.969 13.156-4.716 4.659-14.12 1.888-14.09-4.156.012-2.234 13.447-20.603 15.06-20.594m141.84 6.06c3.98 2.133 8.01 9.396 8.531 12.688-5.834 31.404-27.416 69.784-26.688 68.34 0 0-13.229 2.358-18.844-.5 14.539-20.18 24.27-45.853 30.875-66.875 2.834-9.07 4.124-13.63 6.125-13.656m-12.25 4.406c2.224-.128 3.084 1.668 1.219 6.531-8.542 34.727-27.749 71.23-42.844 77.875-19.825 8.728-39.534 1.481-48-13.438-9.164-16.15-7.536-41.638 23-47.22 17.961-1.842 36.37 12.32 26.781 35.09-10.668 16.894-39.34 7.478-30.938-14.313 6.351-7.985 19.655-1.059 15.313 7.969-2.204 4.58-.073 7.394 3.188 4.219 10.457-10.18-6.743-27.649-18.344-18.906-18.92 14.26 4.444 45.605 26.469 32.16 6.713-4.098 18.85-27.09 23.406-43.844 1.961-7.211 3.729-14.06 8.375-18.438 4.42-4.165 9.516-7.523 12.375-7.688m-50.16 1.375c1.08.042 2.351.579 4.094 1.438 2.207 1.087 4.8 3.07 4.5 5.625-.347 2.957-2.034 9.382-5.438 12.5-2.05-.702-7.707-2.962-11.562-4-2.421-.652.802-5.866 2.281-8.75 2.387-4.647 3.703-6.597 5.656-6.781.147-.014.314-.037.469-.031m-62.41 1.187c2.85-.053 7.365 3.106 10.344 3.531.573 4.311-4.913 13.54-13.844 24.438-7.326 8.939-7.289 8.954-12.156-.875-3.171-6.401-3.255-6.224 5.781-17.469 4.857-6.04 7.199-8.812 9.312-9.563.174-.034.373-.059.563-.063m28.344 3.156c.134 2.305-1.042 7.388-2.031 10.344-10.128 30.26-33.791 60.23-53.31 67.59-25.479 8.327-48.813-5.094-49.41-36.03.646-36.453 44.05-46.557 57.16-13.313 5.919 15.01-10.211 37.576-24.16 33.813-14.07-3.798-19.947-25.758-8.344-31.19 7.604-3.558 15.47 2.407 13.812 10.469-.575 2.796-.416 3.181 1.219 2.875 7.231-1.352 3.415-15.877-5.125-19.5-16.14-6.845-28.326 14.888-17.438 31.09 13.03 19.401 33.536 15.682 45.34-8.25 2.01-4.074 5.837-9.92 8.469-12.969 7.151-8.276 9.428-11.53 15.75-22.469 3.483-6.03 5.349-9.836 7.125-11.813 2.831-.192 4.77.593 10.938-.656m57.16 1.594c3.057.024 5.412 2.01 5.344 6.25-.059 3.546-5.132 18.488-7.5 22.06-.91 1.372-3.03 6.175-3.344 5.125-2.979-9.943-8.305-13.02-9.06-15.625-.888-3.059 1.802-5.995 3-8.75 2.547-5.856 7.631-9.09 11.563-9.06m53.875 4.719c3.695-.031 8.922 1.664 10 4.406 3.373 5.919-19.448 61.02-20.281 61.19l-17.03-.75c10.228-21.971 19.272-43.745 25.844-64.719.449-.077.941-.121 1.469-.125m228.5 87.22l21.656 12.875-142.75 226.84-20.75-15.875zm-356.16 4.688c133.33.497 316.97.25 316.97.25l-7.75 14.719c0 0-200.57-1.957-309.22-1.75zm-180 9.281l-.281 74.56c0 0-1-.437-13.719-8.906-15.261-10.162-32.01-20.633-37.41-23.375-7.948-4.04-6.908-5.992 8.375-15.719 15.01-9.03 43.03-26.563 43.03-26.563m570.91 7.406l13.406 8.469-150 238.75-8.344-16.375zm-390.87 3.313h20.875v23.594h-20.875zm47.812 0h25.344v23.594h-25.344zm55.37.25h26.06v23.594h-26.06zm54.34.094h26.344v23.594h-26.344zm54.75.156h26v23.594h-26zm54.781.5h26.594v16.625l-4.03 6.969h-22.563zm143.34 7.688l254.41 164.59-.156 22.719-264.84-171.16zm-16.688 19.25l2.188 1.563-10.781 16.5-2.219-1.25zm-393 2.438h285.56l-8.594 14.469-276.97-.406zm-234.44 7.375c1.923-.123 5.669 1.571 11.5 4.844 14.04 7.879 22.879 24.499 16.813 30.5-5.397 5.338-18.04-6.099-25.875-22.438-4.156-8.661-5.247-12.726-2.438-12.906m505.28 14.25l-92.12 147.25c-20.827-28.542-44.17-53.2-95.16-36.5-26.579-20.552-54.682-23.723-84.59-6.281l.344-103.97zm-474.25.063l7.188 6.219c-2.121 4.055-3.097 9.923-4.469 15.16-.108-7.175-.734-14.317-2.719-21.375m584.03 1.531l283.84 186.75v17.313l-293.75-189.25zm-621.69 4.25c3.672-.07 7.263 1.498 9.969 4.75 4.294 5.159 2.525 14.616-3.5 18.656-11.997 8.04-26.394-7.526-16.875-18.25 2.983-3.361 6.736-5.086 10.406-5.156m47 2.219l15.5 12.406c-26.905 153.43 49.956 308.33 215.5 354.75l1.875 19.656c.312.937-70.33-20.981-101.19-44.06-42.19-28.538-77.83-68.72-102.41-115.47-16.767-30.14-25.966-63.33-31.906-90.16-7.03-46.02-6.826-91.58 2.625-137.12m-17.594 20.813c5.941.243 6.585 4.524 1.813 12.75-6.137 10.577-15.336 17.94-30.25 24.22-8.215 3.459-10.359 1.888-9.406-6.875 1.43-13.176 10.597-22.82 26.469-27.906 3.81-1.057 7.663-2.21 11.375-2.188m45.625 1.656c2.426 2.054 3.186 2.699 6.156 5.219-5.086 1.743-8.75 6.542-8.75 12.219 0 7.145 5.793 12.938 12.938 12.938 6.404 0 11.684-4.641 12.719-10.75 2.317 1.985 4.491 3.841 6.187 5.313-2.985 7.527-10.322 12.844-18.906 12.844-11.227 0-20.344-9.116-20.344-20.344 0-7.443 4.03-13.9 10-17.438m10.344 10.188c.706 0 1.387.125 2.031.313 1.623 1.381 2.93 2.505 4.5 3.844.451.944.719 1.978.719 3.094 0 4-3.247 7.25-7.25 7.25-4 0-7.25-3.247-7.25-7.25 0-4 3.247-7.25 7.25-7.25m-48.844 4.688c-1.685 19.787-1.156 40.476-.531 61.19-3.82-16.413-12.342-28.694-26.531-37.09 9.798-6.77 20.05-15 27.06-24.09m74.59 15.531l13.781 11.906c-11.85 162.42 130.49 224.06 134.31 221.34l6 18.375c-98.29-33.451-166.23-135.04-154.09-251.62m792.84 389.39l-.719 20.455c-111.53-43.28-238.65-202.95-237.03-355.94-28.636 43.903-44.729 73.2-69.31 112.75l-19.568-9.316c32.19-47.942 62.775-99.22 95.05-146.32 3.672-5.319 6.686-7.758 6.852 3.872-.022 52.639 16.306 269.2 224.73 374.5m-906.87-376.7c3.586-.229 8.718 1.508 15.187 5.844 10.203 6.838 21.644 27.973 17.688 32.688-3.559 4.241-18.682-.805-26.19-8.75-14.875-15.745-15.853-29.2-6.687-29.781m86.969 2.125c11.226 0 20.344 9.08 20.344 20.313 0 11.228-9.118 20.344-20.344 20.344-11.228 0-20.344-9.116-20.344-20.344 0-11.228 9.116-20.313 20.344-20.313m45.531 1.938l13.281 15.563c2.596 136.32 110.19 178.35 109.19 178.69l3.25 14.656c-5.998.84-133.12-57.03-125.72-208.91m-45.531 5.438c-7.145 0-12.938 5.792-12.938 12.938 0 7.145 5.792 12.938 12.938 12.938 7.143 0 12.938-5.792 12.938-12.938 0-7.145-5.794-12.938-12.938-12.938m0 5.688c4 0 7.25 3.247 7.25 7.25 0 4-3.249 7.25-7.25 7.25-4 0-7.25-3.247-7.25-7.25 0-4 3.247-7.25 7.25-7.25m68.75 12.344c1.634.009 9.313 11.156 9.313 11.156 0 0-8.429 2.956-12.06-.719-3.61-3.65-1.664-10.461 2.75-10.438m589.16 5.03l19.937 13.625c9.309 91.97 61.99 175.86 141.44 234.06l-.5 22.781c-96.77-65.39-150.49-154.22-160.87-270.47m-747 1.563c.325-.02.653-.005.969 0 12.197.205 17.363 18.942 4.313 24.313-8.205 3.377-17.13-1.5-18-9.844-.612-5.875 3.754-12.164 9.688-13.906 1.049-.308 2.057-.504 3.03-.563m166.37 12.281c3.197.001 6.673 1.845 9.969 5.563 8.744 9.863 8.663 12.726-.563 16.469-12.974 5.264-23.761-2.05-19.438-13.188 2.269-5.85 5.92-8.85 10.03-8.844m-132.84.469c1.054-.022 2.035.117 2.938.469 9.566 3.729-11.168 41.713-24.875 45.563-8.708 2.447-10.532-.953-7.688-14.281 3.164-14.816 19.439-31.539 29.625-31.75m61 .875c11.228 0 20.344 9.08 20.344 20.313 0 11.228-9.116 20.344-20.344 20.344-11.226 0-20.344-9.116-20.344-20.344 0-11.228 9.118-20.313 20.344-20.313m0 7.375c-7.143 0-12.938 5.792-12.938 12.938 0 7.145 5.794 12.938 12.938 12.938 7.145 0 12.938-5.792 12.938-12.938 0-7.145-5.792-12.938-12.938-12.938m-50.844 1.094c1.807 18.811 4.864 36.21 13.219 59.37-7.835-12.527-19.01-18.749-29.719-25.844 7.509-11.177 16.198-22.354 16.5-33.531m50.844 4.594c4 0 7.25 3.247 7.25 7.25 0 4-3.247 7.25-7.25 7.25-4 0-7.25-3.247-7.25-7.25 0-4 3.249-7.25 7.25-7.25m115.12 2.219c21.21-.456 36.21 17.01 35.28 33.75.621 19.437 1.321 31.886-.281 56.03l-17.219-31.531c-.244-8.937 1.278-15.702.594-24.594-1.953-23.912-25.388-20.592-26.5-18.219l-7.406-12.03c5.438-2.242 10.636-3.301 15.531-3.406m74.72 2.406c19.876-.022 31.392 11.173 32 31.09 1.163 38.14-.875 125.22-.875 125.22l-43 .031-23.469-58.19c0 0-.932-5.597-.75-9.656 1.494-18.661.559-39.43 1.188-56.28 2.477-17.865 17.16-32.2 34.906-32.22m-99.5 6.03c2.765-.035 5.331.808 7.281 2.781 9.977 10.09 9.919 16.699-.188 21.25-13.368 6.02-20.315 4.878-24.875-4.063-4.472-8.765 7.904-19.844 17.781-19.969m626.87 2.75l10.906 7.03c0 0-2.292 3.587-3.531 5.719-6.192 10.654 4.331 16.903 18.906 11.25 2.631-1.021 4.875-2.469 4.875-2.469l9 6.125c0 0-6.488 3.505-13.563 6.969-18.19 8.901-31.27 5.124-35.656-10.281-1.743-6.115 0-13.772 3.406-18.25 1.742-2.29 5.656-6.094 5.656-6.094m-461.25 1.281c16.643-.567 32.838 12.435 36.687 29.906 1.595 8.183-.469 116.37-.469 116.37l-66.03-.031 1.156-113.5c-.436-7.177 0-14.279 3.844-19.375 7.258-9.04 16.09-13.08 24.813-13.375m-68.56 4.969c-13.338.614-20.911 22.22-7.187 32.406 5.732 4.256 5.851 5.056 2.781 19.438-3.5 16.407.124 38.885 8.313 51.53 6.28 10.474 4.997 5.12 1.781-4.219-4.133-17.51-2.108-30.374 8-50.719 9.03-17.14 17.783-43.491-10.938-48.25-.936-.155-1.861-.228-2.75-.188m548 4.938l5.969 4.03c0 0-.894.745-2.188 2-2.387 2.313-7.136 2.681-8.594.906-2.414-2.941 4.812-6.938 4.812-6.938m-475.69 8.375c-14.334-.481-23.773 26.11-5.438 32.531 4.166 2.69 4.865 6.212 2.281 11.188-3.473 6.683-6.948 22.559-6.406 29.19.777 9.516 3.209 21.938 5.125 26.25 4.812 11.881 3.848 7.136 2.594-6.594-.483-15.341 2.609-26.405 11.531-41.06 10.599-17.577 25.19-46.16-8.281-51.37-.472-.073-.944-.109-1.406-.125m-246.63.094c11.227 0 20.344 9.08 20.344 20.313 0 11.228-9.116 20.344-20.344 20.344-11.228 0-20.344-9.116-20.344-20.344 0-11.228 9.116-20.313 20.344-20.313m94.28 2.063c3.509-.034 6.149 2.299 9.344 7.06 8.782 13.1 7.773 15.778-9.156 25.09-17.939 9.868-29.938-14.95-12.781-26.438 5.188-3.472 8.863-5.399 11.875-5.688.242-.023.486-.029.719-.031m-186.19.969c18.922.195 48.48 27.21 34.06 31.12-2.06.561-4.65.942-5.75.875-23.77-1.451-51.01-32.23-28.313-32m91.91 4.344c-7.145 0-12.938 5.792-12.938 12.938 0 7.145 5.792 12.938 12.938 12.938 7.145 0 12.937-5.792 12.937-12.938 0-7.145-5.793-12.938-12.937-12.938m749.38 3.813l9.437 6.406c0 0-5.769 2.653-12.562 6.281-18.455 9.856-23.813 17.09-17.438 23.531 2.276 2.301 4.969 3.301 9.813 1.469 12.792-4.967 24.724-13.716 36.656-20.625l7.094 4.875c-.163-.326-28.21 19.944-43.531 28.469-24.05 12.347-37.785-12.895-24.406-29.75 10.321-10.263 21.379-13.628 34.938-20.656m-749.37 1.875c4 0 7.25 3.247 7.25 7.25 0 4-3.247 7.25-7.25 7.25-4 0-7.25-3.247-7.25-7.25 0-4 3.247-7.25 7.25-7.25m764.12 6.781l5.156 3.469c0 0-.557.261-16.313 9.313-17.14 9.849-17.895 10.02-18.844 8.469-.842-.467.329-4.491 5.594-8.03 9.225-6.204 25.543-13.744 24.406-13.219m-446.03.5c11.678-.226 23.578 5.32 30.375 17.188 3.464 9.01 3.76 17.38 3.719 26.844l-.281 63.53h-66.5c0 0-3.086-43.3 0-79.34 3.02-18.11 17.672-27.928 32.688-28.22m-206.53 9.406c4.224-.309 7.333 3.835 11.344 12.813 3.974 8.892.986 13.919-11.5 19.313-1.578.682-3.376 1.184-4 1.125-12.625-1.205-17.789-15.758-8.719-24.594 5.624-5.477 9.59-8.416 12.875-8.656m675.87 6.5l5.781 3.594c0 0-2.962 2.681-24.438 18.344-17.343 12.65-19.841 16.09-16.219 23.19 2.924 5.73 9.267 4.984 18.03-1.75 12.155-9.341 31.28-25.16 31.28-25.16l.625 10.813c-12.589 10.115-27.781 27.37-39.875 33.938-23.337 11.496-40.08-20.07-18.75-35.625 18.385-13.408 43.562-27.344 43.562-27.344m-466.81.031c-17.384-.144-23.848 25.657-5.156 31.12 5.379 2.882 4.931 4.368 1.344 17.219-2.172 7.78-2.872 17.372-1.687 23.469 1.398 7.772 3.122 7.591 2.406-.75.025-4.562 4.719-16.737 9.406-24.375 17.335-24.16 12.789-46.46-6.312-46.688m-405 .313c11.467.078 17.886 16.05 7.937 22.938-7.05 4.879-21.792-1.075-21.75-8.781.036-6.569 5.207-12.824 11.469-13.938.806-.143 1.579-.224 2.344-.219m33 1.344c3.611-.001 5.686 5.279 5.656 15.75-.04 15.02-5.374 28.1-14.563 35.75-13.303 11.07-16.275-19.11-3.844-39.06 5.178-8.313 9.564-12.432 12.75-12.438m851 3.969c3.276-.051 2.765 2.455-1.031 5.094-2.947 2.047-7.95 6.149-23.438 19.219-2.811 2.372-6.842 5.468-8.938 6.875-5.159 3.458-9.53 2.558-7.03-1.438 2.461-3.932 37.491-29.703 40.44-29.75m-779.31.688c11.228 0 20.344 9.09 20.344 20.313 0 11.228-9.116 20.344-20.344 20.344-11.227 0-20.344-9.116-20.344-20.344 0-11.226 9.116-20.313 20.344-20.313m0 7.375c-7.145 0-12.937 5.794-12.937 12.938 0 7.145 5.792 12.938 12.937 12.938 7.145 0 12.938-5.792 12.938-12.938 0-7.144-5.793-12.938-12.938-12.938m-243.28.375c137.59 69.56 223.36 199.71 244.53 347.97l66.844-106.03 18.06 6.813-97.41 158.75-4.219-1.313c-.406-155.09-77.7-301.8-228.12-382.31zm243.28 5.313c4 0 7.25 3.249 7.25 7.25 0 4-3.247 7.25-7.25 7.25-4 0-7.25-3.247-7.25-7.25 0-4 3.247-7.25 7.25-7.25m-56.781.844c6.02 13.305 13.34 27.26 24.656 43.22-11.475-10.778-24.02-10.312-36.437-11.938zm163.59 2.875c2.136-.104 4.267.797 5.937 3.094 5.627 7.734 6.666 14.908 2.75 18.781-5.362 5.305-13.897 3.208-17.75-4.344-4.01-7.856 2.654-17.219 9.06-17.531m674.75 10.75l.219 12.03c0 0-2.565 3.086-5.281 5.625-7.669 7.174-18.16 18.613-18.906 21.531-2.434 9.488 6.946 12.97 16.188 6 3.189-2.406 7.781-6.06 7.781-6.06v14.813c-7.802 6.63-15.575 13.148-26.22 11-6.205-1.893-11.648-6.771-12.781-13-4.444-18.662 13.632-29.08 27.656-41.563 4.523-4.03 11.344-10.375 11.344-10.375m-752.91 10.5c.345-.017.68 0 1.031 0 11.227 0 20.344 9.08 20.344 20.313 0 11.228-9.116 20.344-20.344 20.344-11.228 0-20.344-9.116-20.344-20.344 0-10.877 8.57-19.769 19.313-20.313m408.5 4.563c11.09-.044 16.956 14.887 8.03 23.344-3.508 3.324-11.424 5.685-15.906 2.563-12.36-8.61-3.26-25.339 7.875-25.906m-22.12 11.844c6.416 6.804 11.277 26.575 7.5 30.31-8.363 8.631-32.659-20.08-31.21-38.841 2.581-11.253 21.335 6.01 23.708 8.528m-297.31-10.781c4.645.025 5.519 4.195 4.469 6.656-1 2.343-4.638 2.532-7.531 1.344-4.918-2.02-2.614-8.03 3.063-8m-88.03 1.75c-7.145 0-12.938 5.792-12.938 12.938 0 7.145 5.792 12.938 12.938 12.938 7.145 0 12.937-5.792 12.937-12.938 0-7.145-5.793-12.938-12.937-12.938m-96.84 5.688c24.536.03 50.42 19.355 27.906 23.19-16.711 2.845-27.55-.458-40.562-12.344-6.615-6.04-4.259-9.248 7.781-10.594 1.609-.18 3.241-.252 4.875-.25m96.84 0c4 0 7.25 3.247 7.25 7.25 0 4-3.247 7.25-7.25 7.25-4 0-7.25-3.247-7.25-7.25 0-4 3.247-7.25 7.25-7.25m33.969 18.406c.345-.018.713 0 1.063 0 11.228 0 20.344 9.09 20.344 20.313 0 11.228-9.116 20.344-20.344 20.344-11.226 0-20.344-9.116-20.344-20.344 0-10.875 8.539-19.77 19.281-20.313m399.78 1.031c5.804-.097 10.899.993 13.844 3.688 3.6 3.295-1.809 9.621-12.844 15-12.892 6.285-35.38 5.411-35.34-1.375.049-9.03 19.51-17.06 34.34-17.313m-489.75 5.344c11.277.059 14.328 35.03 4.531 51.781-5.081 8.693-11.925 2.883-16.813-14.281-4.01-14.08 3.683-37.547 12.281-37.5m91.03 1c-7.144 0-12.938 5.794-12.938 12.938 0 7.145 5.794 12.938 12.938 12.938 7.145 0 12.938-5.792 12.938-12.938 0-7.144-5.792-12.938-12.938-12.938m421.53 2.281c.958.016 2.174.494 3.781 1.281 12.31 6.05 21.26 34.26 14.844 46.844-6.756 13.248-21.945-12.253-21.812-36.625.043-7.971.563-11.18 2.781-11.469.126-.015.27-.034.406-.031m-544.53 1.812c.261-.011.524-.001.781 0 11.132.274 19.225 15.662 8.75 23.563-4.585 3.458-11.64 4-15.969 1.25-8.532-5.426-8.07-18.634.813-23.25 1.899-.987 3.8-1.488 5.625-1.563m123 1.594c4 0 7.25 3.248 7.25 7.25 0 4-3.247 7.25-7.25 7.25-4 0-7.25-3.247-7.25-7.25 0-4 3.248-7.25 7.25-7.25m-76 2.438c6.094 9.07 30.772 32.996 34.19 35.06-10.904-3.528-22.13-2.032-33.34-.531 1.264-8.284 2.6-21.875-.844-34.531m396.59 2.063c167.28 39.16 269.4 216.66 229.03 383.19 0 0-14.08-7.863-16.313-11.625 5.917-28.815 9.562-74.45 2.156-120.34-12.562-77.84-75.66-192.07-213.91-231.25-1.528-5.03-.969-19.969-.969-19.969m90.14 1.22c1.892 11.387 3.715 22.862 6.52 33.11-11.784-8.466-25.13-15.742-38.8-21.62 9.76-2.052 18.674-3.78 32.28-11.488m48.23 3.655c6.657-.172 13.43 4.574 13.281 12.781-.063 3.612-3.917 10.1-6.906 11.625-11.12 5.673-22.527-5.131-17.625-16.688 2.199-5.183 6.695-7.6 11.25-7.719m-420.28 4.406c11.226 0 20.344 9.08 20.344 20.313 0 11.228-9.117 20.344-20.344 20.344-11.228 0-20.344-9.116-20.344-20.344 0-11.228 9.116-20.313 20.344-20.313m0 7.375c-7.145 0-12.938 5.792-12.938 12.938 0 7.145 5.792 12.938 12.938 12.938 7.144 0 12.938-5.792 12.938-12.938 0-7.145-5.794-12.938-12.938-12.938m-346.16 1.938c83.12 49.06 157.68 153.39 163.22 271.37l-20.12-13.156c-8.667-79.47-49.35-165.94-143.75-236.81 0 0 .243-7.631.656-21.406m460.28 0h107.44v23.16l32.22-16.594v51.22l-32.22-19.5v22.344h-107.44v-23.5l-32.906 15.906.375-50.969 32.531 18.281zm-114.12 3.75c4 0 7.25 3.247 7.25 7.25 0 4-3.248 7.25-7.25 7.25-4 0-7.25-3.247-7.25-7.25 0-4 3.247-7.25 7.25-7.25m42.25 4.063c.132-.001.273 0 .406 0l1.281 7.375c-.21-.001-.412-.031-.625-.031-7.145 0-12.938 5.792-12.938 12.938 0 7.145 5.793 12.938 12.938 12.938 1.727 0 3.369-.324 4.875-.938l1.25 7.406c-1.938.614-3.985.938-6.125.938-11.227 0-20.344-9.116-20.344-20.344 0-10.877 8.539-19.738 19.281-20.281m242.69 2.563c.355-.014.706 0 1.063 0 11.227 0 20.344 9.08 20.344 20.313 0 9.642-6.74 17.69-15.75 19.781l-1.219-7.313c5.503-1.488 9.563-6.495 9.563-12.469 0-7.145-5.793-12.938-12.938-12.938-.291 0-.589.013-.875.031l-1.25-7.313c.347-.036.707-.079 1.063-.094m142.66 6.875c25.09.136 35.5 14.539 14.938 20.656-9.525 2.835-21.993 1.331-34.31-4.125-10.271-4.547 3.873-16.615 19.375-16.531m-524.41 1.375c6.07-.022 11.944.912 16.281 2.969 10.485 4.97 10.247 8.344-.969 14.813-15.638 9.02-52.47-.111-41.34-10.25 5.23-4.764 15.917-7.495 26.03-7.531m140.12 2.219c.556 0 1.105.069 1.625.188l2.25 13.188c-1.122.713-2.447 1.125-3.875 1.125-4 0-7.25-3.247-7.25-7.25 0-4 3.247-7.25 7.25-7.25m242.75 2.594c3.973.035 7.188 3.269 7.188 7.25 0 3.157-2.026 5.818-4.844 6.813zm44.25 5.188c11.228 0 20.344 9.08 20.344 20.313 0 11.228-9.116 20.344-20.344 20.344-11.226 0-20.344-9.116-20.344-20.344 0-11.228 9.117-20.313 20.344-20.313m-396.03 5.125c1.206-.067 2.572.493 4.03 1.688 12.19 9.968 18.266 31.06 13.469 46.75-4.577 14.966-23.582-11.613-23.469-32.813.053-9.777 2.352-15.425 5.969-15.625m526.72 1.781c1.68.014 3.461 1.293 5.219 4.219 7.572 12.605 7.228 38.642-.625 46.75-4.455 4.6-6.11 3.731-10.75-5.656-7.929-16.05-1.946-45.38 6.156-45.31m-130.69.469c-7.144 0-12.938 5.792-12.938 12.938 0 7.145 5.793 12.938 12.938 12.938 7.145 0 12.938-5.792 12.938-12.938 0-7.145-5.792-12.938-12.938-12.938m-379.87 3.469c15.359 9.694 31.08 18.541 47.44 25.906-15.306-3.62-26.616 1.52-38.28 8.438 2.238-12.797-2.123-23.2-9.156-34.34m461.56 2.738c11.45 1.617 22.784 3.492 36.06.995-2.453 11.256-3.313 22.724-2.231 34.451-9.878-12.784-20.894-24.78-33.831-35.446m-81.69-.52c4 0 7.25 3.247 7.25 7.25 0 4-3.247 7.25-7.25 7.25-4 0-7.25-3.247-7.25-7.25 0-4 3.248-7.25 7.25-7.25m-419.44 5c2.262.043 4.663.683 7.156 1.906 9.412 4.618 9.689 16.03.531 22-11.513 7.501-26.525-5.663-19.344-16.969 2.758-4.341 6.455-6.675 10.688-6.906.317-.018.645-.038.969-.031m460.25 8.5c11.227 0 20.344 9.08 20.344 20.313 0 11.228-9.117 20.344-20.344 20.344-11.228 0-20.344-9.116-20.344-20.344 0-11.228 9.116-20.313 20.344-20.313m119 3.406c1.958-.038 4 .405 6.03 1.469 7.233 3.79 8.75 13.392 3 19-6.368 6.211-15.06 5.14-19.344-2.375-4.888-8.575 1.819-17.932 10.313-18.09m-196.22 3c100.13 34.08 167.19 145.48 151.03 252.72l-12.5-11.813c9.519-60.772-23.858-176.89-135.37-224.56zm77.22.969c-7.145 0-12.938 5.792-12.938 12.938 0 7.145 5.792 12.938 12.938 12.938 7.144 0 12.938-5.792 12.938-12.938 0-7.145-5.793-12.938-12.938-12.938m0 5.688c4 0 7.25 3.247 7.25 7.25 0 4-3.248 7.25-7.25 7.25-4 0-7.25-3.247-7.25-7.25 0-4 3.247-7.25 7.25-7.25m-380.72 1.281c5.109.45 13.729-.471 15.75 4.344 2.275 6.092-10.216 16.621-26.06 18.688-6.452.384-20.274 2.024-23.19-2.625-2.732-5.8 15.919-20.229 33.5-20.406m-317.87 3.563c13.535-.597 28.792 17.511 15.09 32.28-10.965 11.347-33.406 26.813-33.406 26.813v-9.938c0 0 21.985-16.08 22.344-23.313.046-8.403-6.873-13.143-14.594-8.094-1.527.997-7.562 5.906-7.562 5.906l.5-16.656c4.091-4.481 11.315-6.722 17.625-7m345.78 4.25c10.03.383 33.3 36.25 27.375 43.594-4.695 5.816-23.591-7.078-30.688-20.938-3.81-7.439-2.665-20.699 1.938-22.438.425-.16.883-.238 1.375-.219m154.75 4.344c0 0 1.034 83.46-3.656 91.34-18.808 34.04-59.41 16.327-62.875-9.187-2.495-15.387-1-82-1-82zm5.938 0h64.875c0 0-.29 117.48-2.906 124.22-2.129 5.485-11.551 14.945-17.469 17.531-19.05 8.325-39.43-3.484-44.47-25.781-3.637-16.08-.031-115.97-.031-115.97m70.31 0h43.06c0 0 1.478 6.228 3.188 11.344 2.986 8.928 13.14 34.53 14.313 36.09 5.259 7.02 5.518 83.82.313 92.56-18.994 28.479-50.603 20.19-62.16-11.344-2.896-10.11 1.281-128.66 1.281-128.66m50.22 2.906c77.23 36.684 136.34 114.47 128.94 214.28l-14.187-14.156c5.175-68.89-47.27-155-108.47-180.59zm106.34 2.344c11.227 0 20.344 9.08 20.344 20.312 0 11.228-9.117 20.344-20.344 20.344-11.228 0-20.344-9.116-20.344-20.344 0-11.228 9.116-20.313 20.344-20.313m76.19 2.063c7.555.111 16.786 2.719 23.688 8.406 8.249 6.801 9.398 12.183 3 14.156-12.363 3.812-27.21.122-36.531-9.06-8.659-8.533-1.196-13.662 9.844-13.5m-76.19 5.313c-7.145 0-12.938 5.792-12.938 12.938 0 7.145 5.792 12.938 12.938 12.938 7.144 0 12.938-5.792 12.938-12.938 0-7.145-5.793-12.938-12.938-12.938m-406.94 1.625c10.835.059 15.807 15.311 7.5 23.03-3.406 3.165-12.705 3.845-16.75 1.219-11.127-7.224-4.608-24.325 9.25-24.25m143.22 3.875c-3.585 10.313-9.353 21.948-14.12 29.906-12.789 21.324-11.127 35.622 2.375 42.844 19.825 10.604 34.23-17.863 14.687-29.03-6.855-3.916-6.854-3.964-4.375-14.531 3.093-13.185 3.634-28.911 1.438-29.19m263.72.188c4 0 7.25 3.247 7.25 7.25 0 4-3.248 7.25-7.25 7.25-4 0-7.25-3.247-7.25-7.25 0-4 3.247-7.25 7.25-7.25m-194.19 4.188c-.906-.06-.213 5.244-.281 14.656-.111 15.194-1.382 19.816-11.09 40.19-12.401 26.02-10.749 43.797 4.625 49.563 11.941 4.476 23.551-4.656 23.625-18.594.036-6.636-2.925-11.842-7.469-13.188-4.113-.262-8.664-2.183-8.344-4.156 2.518-15.535 15.98-44.799-1.063-68.47m256.56 2.094c10.04 6.316 20.366 12.307 35.31 13.06-6.368 15.267-5.72 26.423-6.781 38.594-6.391-16.393-16.264-34.529-28.531-51.656m-766 2.375c.806-.001 1.612.044 2.406.156 9.598 1.493 17.706 13.783 15.12 22.938-2.253 7.991-2.954 9.34-33.844 29.969-17.14 11.447-18.938 11.937-18.938 11.937l-9.188-6.187c0 0 7.778-5.19 20.09-13.469 23.702-15.933 27.19-19.726 24.75-26.844-2.65-7.736-11.515-6.109-25.531 4.688-20.745 15.977-22.906 17.03-22.906 17.03v-9.531c0 0 9.09-7.236 13.03-10.625 9.619-6.836 22.904-19.938 35-20.06m613.78 4.156c2.33-.024 4.121 2.147 3.312 4.219-.387.993-1.752 1.635-3.562 1.625-3.721-.018-3.919-5.306-.219-5.812.159-.022.313-.03.469-.031m208.28 11.09c4.384 15.04-5.05 40.11-10.823 43.32-6.151 6.087-10 .279-11.333-15.467.034-12.774 14.66-52.694 22.16-27.85m-246.97-8.431c1.884 21.664 2.565 39.656-7.593 57.25-13.173 22.814-9.755 42.37 4.344 46.687 14.04 4.298 26.454-5.75 23.969-19.406-.759-4.181-6.5-11.01-10-11.906-4.319-1.109-4.832-3.788-2.375-12.375 4.764-16.64 3.163-37.712-4.03-52.938-.662-2.273-3.301-7.394-4.313-7.312m47.25 7.219c11.844.064 17.432 15.465 8.563 23.594-4.941 4.529-8.08 2.474-13.25-8.625-4.794-10.295-3.315-15.01 4.687-14.969m110.31 3.156c11.227 0 20.344 9.09 20.344 20.312 0 11.228-9.116 20.344-20.344 20.344-11.228 0-20.344-9.116-20.344-20.344 0-11.227 9.116-20.312 20.344-20.312m0 7.375c-7.145 0-12.938 5.793-12.938 12.937 0 7.145 5.792 12.938 12.938 12.938 7.145 0 12.937-5.792 12.937-12.938 0-7.144-5.793-12.937-12.937-12.937m0 5.687c4 0 7.25 3.248 7.25 7.25 0 4-3.247 7.25-7.25 7.25-4 0-7.25-3.247-7.25-7.25 0-4 3.247-7.25 7.25-7.25m-87.28 5.344c1.66-.069 3.278.21 4.781.938 10.716 5.182 9.544 20.02-2.281 28.875-7.485 5.605-10.648 3.664-17.625-10.813-3.786-7.853 6.151-18.625 15.12-19m-621.12 1.688c1.092.029 2.113.201 3.094.469 11.05 3.039 18.04 15.928 15.281 25.719-6.093 15.1-26.717 20.18-42.37 26.5l-8.125-5.938c0 0 11.479-6.521 22.625-11.656 10.437-4.807 12.12-6.719 11.344-12.781-1.523-11.841-7.244-11.414-33.19 2.563-10.555 5.686-18.313 10.719-18.313 10.719l-5.75-4.719c8.586-5.655 13.742-8.781 23.12-15.188 15.666-10.726 24.604-15.34 31.16-15.656.378-.019.761-.041 1.125-.031m825.17 8.769c3.778 11.48-3.923 21.544-15.528 17.03-6.299-2.448-10.765-10.5-6.856-17.96 5.218-8.184 19.852-6.768 22.384.926m-232.85-3.988l18.281 32.844c0 0 .24 9.139.406 14.219.699 21.324 5.262 28.38 17.75 26.313.893-.148 5.344-1.438 5.344-1.438l7.938 13.375c0 0-8.583 3.751-10.813 4.219-14.705 3.086-35.06-7.957-38.22-22.719-3.062-14.284-.688-66.812-.688-66.812m-598.88 13.5c5.518.403 3.174 4.619.625 6-10.738 5.468-20.884 11.416-32.09 17.875l-7.5-4.656c0 0 5.787-3.232 9.781-5.688 12.284-7.552 24.794-13.354 29.19-13.531m734.69 4.219c11.227 0 20.344 9.08 20.344 20.313 0 11.228-9.117 20.344-20.344 20.344-11.228 0-20.344-9.116-20.344-20.344 0-11.228 9.116-20.313 20.344-20.313m-86.06 2.781c4.68-.135 8.586 1.876 11.125 6.094 5.431 9.02-.323 20.03-13.5 25.906-7.36 3.28-8.589 2.601-16.438-9.03-5.307-7.863-5.274-9.273.594-14.281 6.577-5.611 12.916-8.536 18.219-8.687m-713.97 1.781l291.34 188.66-8.313 14.12-282.47-184.91zm865.69 2.438c17.702.339 40.811 20.84 32.625 28.938-.869.86-2.552 1.508-3.75 1.438-25.27-1.492-53.17-30.84-28.875-30.375m-65.66.375c-7.145 0-12.938 5.792-12.938 12.938 0 7.145 5.792 12.938 12.938 12.938 7.144 0 12.938-5.792 12.938-12.938 0-7.145-5.793-12.938-12.938-12.938m-389.09 3.594l7.719 20.06-145 230.84-14.25-9.156zm389.09 2.094c4 0 7.25 3.247 7.25 7.25 0 4-3.248 7.25-7.25 7.25-4 0-7.25-3.247-7.25-7.25 0-4 3.247-7.25 7.25-7.25m53.25 2.406c7.1 13.202 18.926 21.292 32.375 26.969-12.698 10.479-19.09 24.07-18.594 38.28-3.219-21.333-6.01-42.551-13.781-65.25m-766.53 6.969c3.107.023 5.912.672 8.125 2.188 27.17 18.617 2.22 37.04-.094 35.594l-9.25-5.844c3.181-5.273 10.402-12.425-1.219-19.09-6.593-2.875-13.94.58-20.344 5.03l-9.719-6.656c0 0 19.03-11.318 32.5-11.219m640.81 10.531c1.023-.032 2.025.03 3 .219 15.338 2.964 14.275 19.24-1.75 26.781-9.117 4.292-10.729 3.419-18.688-10.25-3.737-6.416 7.548-16.425 17.438-16.75m-645.72 5.969c1.633.043 3.721 1.473 3.969 2.813.789 4.272-7.125 8.563-7.125 8.563l-9.09-6.03c3.884-2.142 7.947-5.04 12.25-5.344m817.16 3.906c2.222-.172 3.847.875 4.5 3.531 3.107 12.644-10.94 36.1-23.906 39.906-7.57 2.222-9.761-1.337-7.281-11.813 3.484-14.717 18.754-31 26.687-31.625m-469.94.969l23.594 17.12-141.56 223.75-24.5-14.563zm385.22 1.813c11.227 0 20.344 9.08 20.344 20.313 0 11.228-9.117 20.344-20.344 20.344-11.228 0-20.344-9.116-20.344-20.344 0-11.228 9.116-20.313 20.344-20.313m0 7.375c-7.145 0-12.938 5.792-12.938 12.938 0 7.145 5.792 12.938 12.938 12.938 7.145 0 12.938-5.792 12.938-12.938 0-7.145-5.793-12.938-12.938-12.938m0 5.688c4 0 7.25 3.247 7.25 7.25 0 4-3.248 7.25-7.25 7.25-4 0-7.25-3.247-7.25-7.25 0-4 3.247-7.25 7.25-7.25m-325.28.75c15.356 17.32 32.62 56.05 92.87 37.781 20.527 16.726 48.876 26.25 83.81 7.688l.25 104.37-267.53.281zm-488.62 2.656l263.47 173.41-8.25 14.563-255.47-163.28zm739.66.156c.25 0 .468.016.656.062 13.468 3.295 14.986 16.757 2.469 21.906-6.7 2.757-8.07 2.072-14.469-7.344-2.552-3.756-3.993-6.87-3.625-7.813.898-2.304 11.198-6.86 14.969-6.813m169.06 14.251c4.71.032 9.396 2.525 11.594 7.438 3.299 7.373 1.394 13.561-5.406 17.656-11.259 6.781-23.844-5.67-18-17.812 2.347-4.881 7.104-7.313 11.813-7.281m-164.97 14.156c6.213.032 11.427 5.963 8.406 9.562-2 2.389-4.58 1.703-7.875-2.094-3.87-4.456-4.096-7.488-.531-7.469m75.53 2.594c11.227 0 20.344 9.08 20.344 20.313 0 11.228-9.117 20.344-20.344 20.344-11.228 0-20.344-9.116-20.344-20.344 0-11.228 9.116-20.313 20.344-20.313m57.31 1.125c15.333.083 36.577 25.696 32.969 39.75-1.177 4.585-9.777 2.109-20-5.75-13.811-10.618-22.753-34.05-12.969-34m-57.31 6.25c-7.145 0-12.938 5.792-12.938 12.938 0 7.145 5.792 12.938 12.938 12.938 7.145 0 12.938-5.792 12.938-12.938 0-7.145-5.793-12.938-12.938-12.938m49.28 2.625c4.235 12.401 8.57 25.315 27.687 34.28-29.668 13.821-35.33 37.1-30.875 66.937l-6.937-4.25c6.357-26.736 11.17-57.19 10.125-96.97m-49.28 3.062c4 0 7.25 3.247 7.25 7.25 0 4-3.248 7.25-7.25 7.25-4 0-7.25-3.247-7.25-7.25 0-4 3.247-7.25 7.25-7.25m-3.781 32.656c11.228 0 20.344 9.08 20.344 20.313 0 7.097-3.64 13.359-9.156 17l-6.563-4.906c4.857-1.863 8.313-6.582 8.313-12.09 0-7.145-5.793-12.938-12.938-12.938-6.805 0-12.359 5.265-12.875 11.938l-6.594-4.938c2.548-8.319 10.312-14.375 19.469-14.375m92.56 2.594c9.679.053-5.37 26.899-19.19 34.22-10.521 5.572-20.15 6.01-20.12.906.072-13.347 24.53-35.21 39.31-35.12m-92.56 10.469c4 0 7.25 3.247 7.25 7.25 0 4-3.247 7.25-7.25 7.25-3.976-.434-7.205-3.56-7.25-7.25 0-4 3.247-7.25 7.25-7.25m89.44 24.469c4.765.07 9.491 2.132 11.5 6.156 2.598 5.201 1.606 9.852-3.156 14.562-11.699 11.573-27.617-.311-19.969-14.906 2.077-3.965 6.859-5.882 11.625-5.813m-37.41 10.906c16.295.507 28.628 20.782 25.688 32.25-2.585 3.038-20.533-10.576-22.469-11.969-2.294-4.062-2.43-10.633-3.219-20.281m-22.22 12.562l51.06 30.688-50.937 32.719zm-454.69 15.188l274.28 1 .031 11.531-281.81.156 7.5-12.687m-11.187 18.03h18.437v22.469h-25.312v-12.406zm263.56.531h22.19v22.469h-22.19zm-217.72.156h25.25v22.469h-25.25zm52.53.188h27.28v22.469h-27.28zm55.812 0h26.25v22.469h-26.25zm56.06.375h25v22.469h-25zm-228.37 27.688l304.22.719v13.469l-312.91-.719zm259.56 28.375c30.973-.342 49.02 34.23 24.813 58.5-22.254 22.313-59.38-6.184-40.844-31.28 10.349-14.01 35.789-2.721 29.438 12.219-4.181 9.832-17.889 5.248-17.469-5.406.023-4.28-3.136-1.354-3.5 3.187-.461 5.764 5.455 12.141 12.344 12.156 17.975.041 20.667-23.783 3.344-32.531-15.476-7.814-31.771 2.156-35.531 21.938-.409 2.159-2.959 7.559-4.906 11.375-5.723 11.49-7.572 18.13-10.438 31.25-1.318 1.639-5.332 4.26-8.125 5.656-8.829 4.414-8.462 2.553-5.156-11.813 9.52-41.37 25.08-68.02 44.09-73.44 4.139-1.179 8.134-1.77 11.937-1.813m91.59 2.156c19.12-.411 33.525 15.345 36.04 27.512 10.988 37.03-38.17 59.711-55.31 26.16-9.573-19.18 10.256-42.06 28.424-33.14 14.873 7.3 13.913 29.987-1.281 29.907-8.249.388-13.271-7.02-8.719-12.969 2.361-2.343 5.19-.512 6.375-4.438.497-1.645-1.84-2.956-7.469-1.813-9.326 1.893-8.378 20.693 2.438 24.438 16.11 5.577 29.889-11.414 22.22-28.22-9.222-20.2-34.18-20.29-45.594.844-1.657 3.072-4.254 7.461-5.688 9.406-17.03 23.11-18.369 26.565-23.438 39.438-.503 1.283-1.398 2.236-2.938 2.062-4.692 0-9.292 1.017-12.438 2.25-2.122-.562.701-8.666.906-9.281 11.601-35.814 41.39-71.29 66.47-72.16m-148.19 10.06c-4.04 7.03-16.182 29.889-24.594 63.66-2.217-1.379-8.185-3.867-12.5-5.375-1.634-.571-.305-2.458-.406-5.313 3.064-15.232 12.904-41.85 23.75-55.41 2.304-1.693 17.1-2.226 13.75 2.437m17.344 6.75c-10.388 13.263-21.236 48.5-23.5 66.69-.342 2.746-.839 5.789-1.125 6.75-1.619 5.438-11.798-6.241-11.75-13.469.082-12.277 13.688-49.681 23.406-63.969 3.387-4.98 3.792-5.804 11.03-6.06 11.63-.291 6.519 4.213 1.937 10.06m-507.97-8.75c-2.565.062-5.117.397-7.625 1-15.04 3.73-32.977 19.676-34.719 36.594-.825.51-2.876 12.343-1.563 18.344 4.972 22.705 18.22 38.11 34.438 60.62 0 0-20.367 31.575-34.34 46.16l33.06 47.844c-9.145 18.06-25.04 31.718-29.03 54-6.236 29.337 9.126 57.927 41.813 60.56 24.389.733 40.38-15.748 43.41-40.719 1.234-16.597-5.596-37.415-30.16-70.31-1.216-1.629-3.594-5-3.594-5 0 0 2.76-3.237 4.219-5.406 8.633-11.685 31.16-40.25 31.16-40.25l-33.656-47.594c0 0 1.459-3.2 4.062-6.75 27.469-37.465 32.587-56.51 27.719-75.12-1.917-7.336-6.478-12.977-12.656-19.25-9.987-10.139-21.417-14.985-32.531-14.719m-.781 4.594c10.735-.156 21.807 4.143 30.781 13.531 20.639 21.598 18.812 39.866-8 79.81-5.886 8.766-11.656 18.406-11.656 18.406l33.844 46.75c0 0-5.485 8.206-11.188 14.906-15.473 18.18-24.12 31.25-24.12 31.25 5.861 9 15.391 18.62 21.375 29.438 7.228 12.254 11.532 24.471 12.813 35.656 2.697 23.522-12.593 48.58-38.75 49.19-25.385.177-44.711-20.977-44.16-47.531.247-11.84 5.14-22.778 11.09-33.437 6.085-10.847 20.344-31.938 20.344-31.938l-32.75-47.75 34.688-46.31c0 0-25.23-30.889-32.969-53.16-6.29-25.286 5.496-39.702 7.06-41.906 7.687-10.822 19.428-16.73 31.594-16.906m730.19 2.625c19.481 22.2 30.01 53.958 34.531 81.25 1.826 11.206 2.155 30.332.563 32.406-3.065 3.991-9.999 1.838-9.563-2.969 3.512-38.489-37.916-66.06-73.78-49.37-27.662 12.865-42.44 42.772-35.531 79.969 13.04 70.15 71.877 121.55 111.69 191.91 14.09 23.831 17.436 37.25 17.344 36.781 0 0 5.217-13.923 17.06-33.719 28.378-52.11 66.903-85.72 95.56-137.84 13.451-24.47 22.01-48.671 23.437-70.53.271-50.874-49.39-89.22-88.19-62.5-15.357 9.436-28.332 27.665-30.375 42.688-.873 6.416-2 8.328-4.875 8.313-6.621-.036-6.711-2.543-1.375-32.719 8.093-29.976 17.765-58.41 35.34-83.66zm-751.65 64.46c5.03 13.12 13.227 22.883 22.5 32.2 8.596-10.05 18.19-23.266 23.453-35.876 25.348-60.731-72.56-65.68-45.953 3.672m22.13 26.23c-12.423-14.451-21.2-26.466-22.04-45.527-1.365-37.756 47.986-33.516 45.534.239-2.748 18.378-12.401 30-23.49 45.29m611.67-59.35c.95 5.315 6.131 14.315 5.688 16.437-2.401 5.575-5.904 8.351-10.781 17.531-1.024 1.957-.546 2.36-3.281 1.875-2.571-.363-7.089-1.778-9.5-2.469-1.377-.4-2.964-1.151-2.313-2.906 4.682-10.764 9.925-23.597 20.19-30.469m-81.81 16.25l-5.806 15.06c-.551 1.622-.609 1.887-2.313 1.531-3.308-.418-6.207-.677-9.506-.431-7.2-.883 6.361-27.793 8.4-31.869 2.946.496 7.3 11.989 9.225 15.713m5.469 3.469c.122-.016.251-.001.375 0 2.956.382 7.355 1.978 10.625 3.406 1.801.743 1.858.793 1.063 3.03-1.665 3.316-3.709 12.873-5.906 16.213-.067.486-10.261-6.06-13.163-7.319-.113-1.817 3.226-14.822 7.01-15.332m86.47 1.781c3.37.117 7.533 3.182 9.813 4.937 1.07 2.118.094 4.244-3.656 10.719-3.318 5.726-6.783 11.91-7.625 11.25-2.52-1.975-7.191-4.536-9.5-7.719-1.722-2.373 1.554-8.433 3.781-11.75 3.514-5.235 5.205-7.124 7.188-7.437m-55-.763c3.12.699-1.824 16.758-2.75 18.763-2.948 4.412-7.536 10.222-11.188 12.562-1.864 1.195-7.599-2.232-7.469-6.25.092-2.853 5.553-17.244 7.369-21.06.266-.559 10.543-3.951 14.04-4.01m-127.22 6.138c.699-.022 1.397-.001 2.094.031 12.251-.357 24.847 5.687 32.781 19.19 3.752 6.385 3.8 6.66 2.938 12.625-2.026 14.02-1.322 23.44 2.375 32.03 4.211 9.784 3.578 13.14-6.719 34.906-10.334 21.912-22.874 48.601-32.406 73.34-4.228 10.601-8.106 22.607-10.531 32.437-1.595 6.181-9.139 4.323-16.656 4.03-3.819.835 5.514-24.883 19.344-55.625 11.07-24.606 26.13-52.32 32.14-79.86 4.897-22.448 3.33-31.678.644-41.11-10.366-27.431-46.43-20.707-46.34 4.562.774 16.369 19.713 25.14 26.656 9.09 1.157-7.378-2.484-3.084-5.531.5-6.533 7.679-17.73-.859-15.969-12.188 2.314-14.88 21.524-19.772 30.812-8 10.173 12.892 7.94 26.18-6.75 36.16-15.13 11.12-28.914 4.796-36.469-6.75-16.14-25.928 5.93-54.702 27.594-55.37m74.844 10.875c15.02.309 31.33 12.899 33.97 22.867 1.414 6.763-.761 14.726 1.655 21.258 2.01 5.237 3.946 8.253 2.5 12.906-12.363 39.784-41.549 82.21-55.969 129.31-1.664 3.28-3.186 3.69-6.906 4.75-5.763 1.642-8.02 1.471-8.625-1.531-.58-2.869 1.352-8.304 4.719-18.5 4.03-12.213 12.953-33.13 18.19-42.969 12.194-22.908 18.987-38.581 27.844-58.16 1.656-3.657 2.121-5.827 4.719-11.09 11.161-22.63-1.447-44.937-24.563-45.06-18.313-.099-26.502 28.584-10.469 36.969 15.682 8.2 27.382-13.342 13.438-20.969-3.365-1.841-4.229-.083-1.531 3.156 6.208 7.46.637 17.492-8 13.5-13.375-6.18-6.485-28.972 9.125-27.656 24.1 2.031 27.23 37.09 2.656 45.969-33.79 12.211-51.52-42.19-19.719-60.5 5.275-3.038 11.149-4.351 16.969-4.25m71.19 1.094c8.892-.223 18.233 2.944 25.906 10.313 18.898 18.15 13.863 46.15-18.06 100.31-10.456 18.15-20.655 39.949-26.22 55.875-1.382 3.97-2.544 5.984-5.688 7.719-5.537 3.055-11.812 3.433-12.625 1.281-2.076-5.504 13.743-39.718 41.906-93.47 7.403-14.324 16.756-30.954 16.281-48-1.857-13.535-13.11-23.271-28.19-18.844-10.144 2.98-14.29 17.289-6.813 24.5 3.121 3.01 6.961 4.591 9.438 4.344 4.673.15 9.984-4.47.938-4.969-9.565-.052-12.828-12.07-4.75-17.5 11.611-7.799 24.938 1.393 24 16.563-1.94 30.504-46.48 25.952-47.656-5.469-.729-19.441 14.552-32.23 31.531-32.656m441.53 13.188c11.04 7.816 18.983 22.08 20.844 35.719.589 4.218 1.134 8.507-.688 9.469-2.234 1.181-3.805-.556-8.406-6.625-10.719-14.14-31.924-8.113-39.03 11.281-6.769 18.465.234 39.21 28.688 80.47 10.23 15.263 19.224 27.918 27.688 42.875 5.997-14.884 16.16-30.898 24.844-44.12 32.507-49.23 38.462-74.8 20.781-91.28-11.364-10.347-29.349-10.668-35.438 2.563-4.144 5.443-6.606 8.07-8.344 4.781-.757-1.434-.673-5.786-.187-9 3.084-15.631 8.179-25.871 19.437-36.12zm-567.37 35.656c6.731-.517-4.852 35.749-25.09 76.44-11.04 22.533-19.41 46.747-28 70.31-2.33 3.152-16.277 3.73-16.25.469 24.75-79.3 42.23-92.95 50.688-123.16 1.477-5.217 2.549-12.757 2.75-13.406 6.253-1.797 11.525-9.287 15.906-10.656m-458.12 5.344l-26.22 34.19 25.594 36.31 26.594-34.719zm567.75 10.563c-.022 4.096-7.879 23.807-13.75 35.656-25.682 51.829-32.07 65.807-36.5 79.62-.801 2.492-2.098 4.144-3.719 4.75-3.196 1.194-12.1 2.905-12.844 1.687 5.43-30.29 47-99.21 55.06-129.41 3.236-.144 11.48 4.768 11.75 7.688m20.562-3.156c1.737-.127 2.436.586 1.938 2.906-.806 3.755-5.288 12.597-13.09 27.938-21.634 42.52-32.978 67.71-36.594 80.66-.847 3.033-1.367 5.414-2.814 6.186-2.975 1.586-13.376 5.779-13.873 1.252 3.251-19.219 15.914-31.726 48.656-111.87 1.531-2.633 2.871-3.919 4.313-4.156 4.03-.661 7.516-2.576 11.469-2.906m-88.75 13.164c-.824 4.946-6.497 15.315-15.873 34.461-15.598 31.856-25.695 55.59-31.812 76.66-.994 3.421-2.356 7.02-3.688 7.938-2.533 1.754-13.906 1.219-13.906 1.219-1.724-8.71 11.996-41.19 27.28-75.34 8.313-18.576 17.951-37.09 24.418-53.754 4.432.661 12.969 4.914 13.58 8.824m23.15-8.206c4.627-.046 1.035 7.732-10.05 29.637-8.991 17.773-23.332 42.701-32.594 71.34-2.418 6.31-5.26 14.15-6.312 17.437-1.359 4.248-2.627 6.346-4.375 7.219-3.341 1.668-11.423 1.573-12.844-.156-2.256-2.751 9.714-34.99 21.375-59.75 10.294-20.809 17.543-37.515 26.438-56.75 2.434-3.822 2.538-4.085 5.01-4.579 5.142-.41 10.465-3.851 13.353-4.401m-522.27 4.137l13.5 18.06-15.844 19.719-13.188-19.19zm-2.031 77.906c0 0-5.734 6.605-11.625 17.06-17.248 28.716-17.72 49.913 2.625 62.5 8.586 4.373 19.778 3.415 26.844-2.75 23.04-20.1 5.914-47.712-8.969-66.44-3.949-5.498-8.875-10.375-8.875-10.375m.844 7.344c8.638 10.193 14.962 17.845 20.719 30.656 6.622 17.208 2.377 30.738-10.438 37.09-20.252 10.05-38.673-12.514-29.06-36.594 7.121-17.845 18.781-31.16 18.781-31.16m567.09 34c1.898 3.62-192.75 48.645-336.34 10l-87.37 126.44 504.44-.875zm-7.375 8.969c0 0 46.889 81.16 69.906 120.91h-32.34l-46.09-98.69c-24.658 6.874-48.967 11.845-73.62 14.969l16.406 83.72h-24.22l-13.688-80c-35.33 2.726-71.32 3.763-108.06 2.719l-15.844 77.28h-25.344l16.25-76.75c-27.893-3.763-55.659-7.311-84-11.969l-47.531 88.72h-35.781l74.59-111.34c111.36 22.346 214.05 17.09 329.37-9.562m503.87 18.594c-22.04.074-45.3 11.912-51.906 37.31-2.32 8.07-2.326 8.09-2.406 79.969-.064 59.43-.563 73.75-.563 73.75h-20.313v23.737h66.12v-23.737h-21.938c0 0-.308-73.926-.313-120.53-.907-12.08.194-22.723 3.406-30.12 11.695-26.95 52.854-21.05 57.813 1.938 2.956 13.704 1.299 17.293 1.5 29.12h22.906c0 0 .609-20.801-1.625-32.938-3.01-27.09-26.378-39.14-50.563-38.469-.708-.022-1.414-.034-2.125-.031m-521.5 24.968l36.563 77.34h-69.25l-12.75-69zm-296.47 5.625l60.53 7.844-15.625 63.875h-81.75zm197.62 9.531l8.312 62.19h-104.31l11.594-60.969z" transform="matrix(.99986-.01652.01652.99986-2934.85-683.43)"/>
  </g>
 </g>
</svg>
