<svg xmlns="http://www.w3.org/2000/svg" viewBox="0 0 744.09 1052.36">
 <g transform="translate(-735.7-760.44)">
  <rect y="1130.72" x="996.13" height="311.81" width="223.23" rx="10.63" fill="#fff" stroke="#000" stroke-width=".997"/>
  <g transform="matrix(.15087-.00312.00312.15083 1018.48 1257.3)">
   <path transform="matrix(.99957.02064-.02065.99979-3870.09-482.78)" d="m4797.47-237.31l-533.75 2.594 67.781 128.41c138.72-12.477 260.29-1.381 386.94 2.75zm-364.53 451.47c-.556.748-22.21 6.338-20 11.25 56.52 121 81.77 219.46 105.37 343.81 11.931-9.683 31.23-9.293 31.23-9.293-9.521-46.18 48.703-51.939 49.08-3.625 11.177 2.592 22.672 2.631 32.762 13.919 4.534-135.9 53.31-276.5 116.29-373.93-71.78 28.403-177.09 99.2-177.09 99.2 0 0-87.64-36.19-137.65-81.33m436.28 14.469c-95.53 90.66-132.91 342.34-126.06 345.81-123.14-4.107-160.45 131.6-53.719 204.78-4.218 14.193-14.642 25.742-22.719 38.28 11.01 6.302 23.03 7.648 35.03 8.969 9.114 10.796 18.07 23.255 27.969 24.281 10.738-6.763 18.369-16.661 27.312-25.22 11.158-2.838 22.22-5.979 32.813-10.813-9.378-13.08-20.496-26.308-20.781-38.563 92.8-65.4 80.07-154.35-3.594-199.87 24.923-149.78 61.28-245.46 103.47-313.5zm-657.91 115.72c-12.136 5.92-18.756 18.414-27.563 28.22-12.09.55-23.733 4.679-35.25 9.813 0 0 27.682 38.23 25.969 40.28-89.76 58.768-89.03 144.67-2.844 201.25 14.6 122.25-89.32 315.72-94.56 310.09l-.188 40c72.31-79.977 113.23-225.27 120.41-344.59 147.69-9.829 152.92-152.47 51.25-206.12-7.816-7.165 25.563-40.31 25.563-40.31-8.474-8.341-22.649-9.288-35.06-10.313-7.832-9.355-14.66-18.682-27.719-28.313m624.66 98.72c20.886 46.43 97.17-10.144 110.41 14.563 10.743 14.01 34.15 15.448 32.875-8.156-4.396-23.377-19.792-28.559-80.87-18.375-23.17 3.863-32.672 6.151-32.531-4.406-16.03-19.343-29.777 6.968-29.875 16.375m70.851 67.759c-17.13-.016-20.04 66.924-19.789 87.02-49.584 78.28 101.71 69.38 36.28-15.894 2.279-11.143-8.341-29.31-8.05-37.34-5.362-.682-7.716-30.907-8.446-33.784m-872.26 40.24c-26.832.677-56.33 25.304-13.313 60.719 2.87.985-1.446 8.452.031 19.938 12.13 26.16 8.846 64.886 17.875 58.938 10.438-6.877 19.16-35.772 16.906-76.12-.148-2.647-3.655-5.45-3-8.313 24.15-39.823 3.732-55.717-18.5-55.16m274.56 75c-6.891 130.74-38.935 259.02-111.54 370.27 62.5-29.12 123.16-66.7 181.85-98.86l137.17 84.88c7.944-3.446 13.444-5.143 18.709-10.345-63.21-92.42-82.77-225.44-110.31-345.78-10.48 7.426-30.19 11.156-30.19 11.156-1.409 41.739-45.2 55.27-54.15.83zm-331.06 102c-14.631.926-25.634 37.14 15.813 42.5 29.25 4.135 66.7-10.26 85.28-3.594 21.601 34.445 40.993-16.259 12.12-24.531-31.01-8.886-94.17 14.295-101.16-5.406-3.591-6.727-7.966-9.228-12.06-8.969m248.78 566.31l-82.75 146.12 529.06-3.188-69.16-139.37c1.182-1.546-231.07 27.606-377.16-3.563" fill="#e2cf00"/>
   <g transform="matrix(.99977.00612-.00613.99998-3879.51-418.48)">
    <path d="m4351.59-95.11l8.296 20.623c113.84-12.09 232.92-24.585 351.5 7.407 0 0 9.01-18.826 8.891-20.2-110.49-29.816-358.59-26.1-368.69-7.832m110.8 289.54l107.12 71.51c0 0 52.31-35.831 74.61-50.989l-13.11-19.872c-47.19 100.13-126.42 19.25-155.87-28.616 0 0-8.455 18.252-12.741 27.971m289.94 38.05c7.495-.05 11.606 2.897 15.262 10.578 4.128 8.672 5.782 6.573 3.204-4.205-4.065-16.995 14.08-27.753 30.859-16.202 12.12 8.341 11.295 28.09-2.128 31.551-10.841 2.799-11.163 5.627-1.67 5.303 17.03-.581 21.23 22.19 8.955 33.11-14.11 12.561-31.725 3.257-33.11-12.774-.677-4.537-1.635-4.487-3.168-1.946-4.404 7.323-4.94 16.921-4.23 25.626l-24.917-15.961c9.02-4.3 14.511-6.898 21.08-13.524.858-.864 1.503-1.497 1.501-1.88 0-.683-2.803.191-7.934.651-15.214 1.362-26.761-8.653-23.437-22.906 2.828-12.13 9.205-17.34 19.738-17.421m-116.6 392.91c27.804-30.887 62.06-50.47 109.22-46.98 7.903-131 55.06-246.9 129.39-350.86l-79.4-49.31-32.417 18.918c-78.875 108.48-128.37 246.86-126.8 428.23m-595.91-315.03c0 0-54.811 39.819-80.29 59.06l-4.03 361.47 6.969 2.5c.488.778-.534-5.369 2.719-8.125 2.659-2.253 6.861-4.793 9.344-5.656 7.01-2.435 7.384-7.08.938-11.188-5-3.189-6.852-8.03-6.156-16.03.491-5.644.269-6.88-2.031-10.75-2.859-4.81-3.02-10.844-.437-17.06 1.198-2.888 1.099-3.672-.906-7.625-2.553-5.03-2.788-10.421-.75-16.188.779-2.205 1.39-7.04 1.375-10.781-.056-14.4 11.971-23.777 33.969-26.469 8.599-1.052 8.867-1.402 5.03-8.656-21.643-40.926 28.614-61.36 32.26-54.804zm683.78 30.1c20.293 0 36.75 16.425 36.75 36.719 0 20.293-16.457 36.75-36.75 36.75-20.293 0-36.75-16.457-36.75-36.75 0-20.293 16.457-36.719 36.75-36.719m.25 6.563c-16.249 0-29.406 13.158-29.406 29.406 0 16.249 13.158 29.438 29.406 29.438 16.248 0 29.438-13.189 29.437-29.438 0-16.249-13.189-29.406-29.437-29.406m.625 9.344c11.02 0 19.969 8.919 19.969 19.938 0 11.02-8.95 19.969-19.969 19.969-11.02 0-19.938-8.95-19.938-19.969 0-11.02 8.919-19.938 19.938-19.938m-729.53 4.5c1.495-.005 3.082.245 4.688.781 9.113 3.042 12.195 11.15 7.125 18.719-3.982 5.945-3.543 6.466 3.313 4.03 5.392-1.915 8.114-1.247 12.281 3 12.496 12.733-6.682 33.555-18.906 20.594-6.05-6.419-6.666-4.563-2.563 6.375 1.328 3.54 3.529 9.04 3.529 9.04l-18.19-.528c0 0 2.932-7.212 4.287-10.61 3.268-8.198 3.39-9.402-3.25-4.313-14.973 11.477-31.466-8.773-17.656-21.656 2.809-2.621 7.258-2.676 13.406-.156 4.479 1.836 5.04.613 1.719-3.688-7.227-9.354-.243-21.56 10.219-21.594m376.6 37.868c-8.101 48.33-2.632 116.4-3.317 152.72 19.671 4.045 19.697 17.485 22.485 34.23 9.636-3.203 30.395 11.265 33.28 10.06 2.897-49.11-20.586-192.15-52.45-197.01m326.6 53.3c27.971 2.652 22.292 24.2 13.822 32.964-4.02 4.5-3.315 6.559 1.063 4 11.931-6.973 21.242-1.676 24.875 10.688 6.207 21.12-21.699 38.834-33.75 19.781-4.083-6.455-6.663-5.05-5.736 1.66.536 6.458 6.644 19.909 6.644 19.909l-27.442-2.861c0 0 8.597-13.843 10.126-17.581 3.173-7.758 1.588-9.862-4.373-3.658-17.411 15.474-40.929-5-29.531-25.688 5.619-10.198 15.754-13.375 26.531-5.03 7.271 4.9 8.886 2.845 2.406-3.063-12.11-11.04-1.103-32.682 15.366-31.12m-703.29 6.958c.314-.011.619-.011.937 0 2.353.079 4.81.768 7.25 2.188 6.771 3.939 8.532 11.538 4.156 18.06-2.517 3.755-1.836 6.154 1.063 3.719 3.88-3.26 12.307-.933 15.531 4.281 8.281 13.392-8.527 30.514-18.937 19.313-4.595-4.945-6.378-5.168-5.883-1.957 1.433 6.03 5.24 16.347 5.24 16.347l-19.03.054c0 0 4.265-10.725 5.257-16.185.763-4.32-.973-3.715-5.579 1.335-4.48 4.912-8.497 5.369-14.06 1.563-13.735-9.392-2.285-32.826 12.06-24.688 4.942 2.804 5.663 1.235 1.844-3.969-6.82-9.293.428-19.733 10.156-20.06m988.06 5.921c-31.26 31.379-21.331 12.704-7.402 37.17-.181 15.998 8.974 28.653 1.209 53.792-2.444 4.897-2.688 7.242-1.46 12.223-2.664 27.856-24.999 27.18-46.784 31.19 3.604-.185 33.593 57.2-23.966 60.816l-2.707 231.46 91.12-65.15 4.854-361.28zm-678.27 112.37c-25.799 16.1-62.3 56.739-107.33 47.14-7.561 144.32-56.58 255.43-125.57 350.52 23.14 14.14 48.59 31.07 72.31 42.04 20.332-10.116 31.728-14.29 51.77-30.3 83.09-124.36 110.86-261.22 108.83-409.4m211.83 29.493c3.485 74.23 14.532 144.63 52.29 201.54l4.9-157.57c-13.7-3.492-24.833-12.54-28.479-37.797zm-279.45 39.701l25.771.983c0 0-6.02 11.569-8.645 18.05-3.191 7.917-1.755 9.56 4.203 4.112 7.755-7.091 19.959-7.583 26.28-1.063 16.788 17.314-1.433 44.868-21.406 32.375-8.551-5.349-10.02-3.618-3.281 3.875 13.14 12.549-1.028 30.14-16.59 29.991-11.252-.209-18.412-9.311-19.15-19.234-.341-6.241 2.881-12.451 8.336-15.413 5.688-3.088 1.677-5.208-4.5-2-20.17 10.475-33.16-17.369-17.828-32.883 8.839-8.946 18.04-7.967 26.766.821 6.092 6.136 8.313 5.63 6.673-1.546-1.639-8.08-6.627-18.06-6.627-18.06m695.55 31.81l18.469.29c-1.883 4.544-4.297 9.169-5.837 13.665-1.66 4.897-.506 5.542 4.456.854 12.855-8.363 26.311.386 23.353 13.885-2.041 9.314-9.929 13.782-18.906 9.594-7.915-3.693-5.381-2.123-.93 3.393 5.295 6.562 3.815 14.11-3.383 19.01-12.734 8.678-29.16-6.286-20.637-19.01 5.03-7.569 2.761-6.773-1.77-3.143-6.791 4.818-16.847-2.288-16.906-11.938-.574-13.888 13.547-21.494 23.281-11.531 4.646 4.03 5.825 3.562 3.784-2.229-1.886-4.212-2.449-8.702-4.975-12.841m-.476 100.94l19.361.061c0 0-.292 1.476-3.355 7.03-3.6 6.533-3.164 13.351.563 8.781 6.288-7.711 19.371-5.347 23.531 4.25 4.846 11.182-5.092 23.312-15.16 18.5-6.541-3.128-7-2.481-2.719 3.906 4.168 6.214 2.171 13.747-4.813 18.06-13.72 8.479-29.767-9.08-18.281-20 3.075-2.924 2.143-4.382-1.563-2.438-15.13 7.938-25.9-12.501-12.75-24.19 5.599-4.976 9.818-4.566 18.813 1.844 2.799 1.995 3.372-.011 1.406-5-3.35-8.502-5.04-10.814-5.04-10.814m-718.77 1.705c21.549 0 39 17.451 39 39 0 21.549-17.451 39.03-39 39.03-21.549 0-39.03-17.482-39.03-39.03 0-21.549 17.482-39 39.03-39m.344 6.969c-17.703 0-32.06 14.329-32.06 32.03 0 17.703 14.36 32.06 32.06 32.06 17.703 0 32.06-14.36 32.06-32.06 0-17.703-14.36-32.03-32.06-32.03m.188 12.313c10.898 0 19.719 8.821 19.719 19.719 0 10.898-8.821 19.75-19.719 19.75-10.898 0-19.75-8.852-19.75-19.75 0-10.898 8.852-19.719 19.75-19.719m-50.41 93.81l22.361 11.336c0 0-10.775 8.51-15.08 12.913-5.501 5.672-5.164 8.371 2.19 5.726 14.02-5.04 27.878 3.01 27.93 17.495.069 19.325-22.919 28.29-33.68 13.505-3.199-4.397-7.07-6.263-5.594-2.688 3.589 8.701 1.16 19.556-5.375 23.938-5.231 3.507-14.725 4.422-19.469 1.875-16.315-8.76-16.894-27.715-1.063-34.969 7.959-3.647 8.272-7.168.469-5.344-16.247 3.799-25.402-15.93-13.531-29.22 12.6-14.1 32.76-10.857 34.687 10.313.343 3.766 2.945 1.083 4.174-4.66 1.438-4.26 1.977-20.221 1.977-20.221m209.46 34.826c0 0-83.15 45.727-80.67 47.744.483.294 17.909 25.588 17.909 25.588 42.26-92.11 139.13-13.914 154.14 33.645 3.374 2.147 3.963 1.556 7.64 3.268.398-3.336 7.671-36.11 7.671-36.11zm-137.2 338.92c-4.207 5.112-18.243 19.575-16.509 20.15 120.82 27.811 245.84 27.555 373.27 15.593l-9.268-30.701c-126.1 30.19-347.49-5.05-347.49-5.05" fill="#d40000"/>
    <path d="m3951.77-256.57l-17.313 1703.93 1063.64 11.687 18.344-1702.2zm323.29 16.838l530.5 5.538c-25.811 64.23-98.95 165.25-95.56 165.54-110.08-19.836-223.69-30.687-351.29-5.365zm-311.24-.365l297.69 3.938 95.62 177.41c0 0 5.606 11.07 1.995 22.506-3.941 12.484-7.253 18-10.728 24.355.392-3.646-28.19-7.684-26.15 16.862 1.381 16.614 22.244 26.303 38.07 13.621 2.502-.172 2.449 2.146 1.844 6.188-1.581 9.485-12.11 39.503-19.07 41.4-34.827-29.413-48.17 23.18-24.558 34.05 13.669 6.291 34.901 1.564 45.03-14.831 7.748-12.542 6.88-10.464 9.04 4.925.804 5.723 1.96 12.359 2.562 15.344 1.883 9.335-.159 11.11-15.885 15.11-12.676 4.727-25.491 7.252-38.531 9.875-23.813 3.551-36.22 21.294-37.12 43.09-.196 4.712-.063 6.895-1.094 8.281-101.06 36.686-208.64 88.51-322 178.03zm668.84 427.66c-3.717-6.212-15.419-38.715-18.562-52.25-7.774-65.52-8.303-143.16-16.74-204.17l12.259 1.555c0 0 4.362 17.692 8.637 65.38 2.119 23.639 3.977 72.74 5.701 95.33 2.615 33.562 16.982 87.38 26.17 101.04 14.98 22.286 45.943 8.461 36.04-17.887-5.139-13.67-25.838-11.769-23.18 2.378.015 2.516 1.989-1.77 5.05-4.378 8.98-3.252 18.895 6.188 13.489 17.303-6.719 14.194-25.891 7.394-32.02-10.709-7.322-21.625 18.634-37.38 37.685-23.98 21.22 14.928 20.731 51.983 3.297 63.43-29.21 10.174-48.655-11.281-57.826-33.04m71.43 28.3c-1.161-.707.082-2.942 1.596-8.269 5.663-19.919 2.507-35.574-10.219-50.47-7.09-8.299-9.781-9.778-5.984-11.209 8.05-3.03 25.544 10.06 30.22 22.757 4.616 12.465 5.629 25.301-1.327 39.22-4.74 2.938-12.13 8.862-14.288 7.973m22.09-13c.016-2.34 1.696-9.696 2.111-13.301 1.604-13.933-4.717-28.19-16.1-39.438-9.554-9.436-10.429-10.406-1.257-10.427 23.655-.054 38.18 38.4 26.995 57.08-2.854 2.944-11.51 8.928-11.748 6.09m20.21-12.649c7.437-32.494-23.773-54.677-24.423-53.669 1.679-7.281 14.14-2.9 18.362.004 15.782 10.932 24.54 39.03 14.526 54.788-1.092 1.936-2.415 3.037-4.15 4.065-3.319 2.02-5.282 3.65-5.93 2.192-.491-1.104 1.406-5.822 1.615-7.379m-275.83-109.78c3.342-3.185 4.329-3.263 10.625-.781 19.728 7.777 35.776-6.224 31.31-21.25-1.616-5.441-8.964-11.428-13.531-11.969-7.462-.883-7.67 3.06.344 6.188 9.844 3.841 10.692 14.358 1.906 18.969-10.333 6.762-26.841-11.02-39.16-9.719-5.903 1.671-9.745 7.112-6.484 13.875 2.553 4.746 11.354 7.726 14.984 4.688m-21.971-2.462c-6.832-3.293-9.453-3.271-8.03-10.757.938-4.928 8.465-38.07 12-50.875 10.587-38.34 1.475-59.809-26.804-68.824-19.16-6.11-35.78-3.396-55.54 6.749l-3.371-10.933c82.53-20.314 222.78-13.506 222.27-12.68 2.608 11.11 3.503 22.19 4.425 33.27 0 0-26.1-13.278-39.755-17.769-21.03-6.783-54.53-.166-60.62 11.875-3.455 6.827-1.776 11.438 12.531 4 23.416-12.173 70.73-1.951 87.26 11.557 3.809 3.112 3.604 3.777 3.626 7.362.033 5.466.35 5.791-7.199 1.613-39.581-20.966-73.69-19.1-85.84 7.498-2.695-.857-13.01-2.787-13.01-2.787l10.864 16.578 1.861 17.215c0 0 17.996 10.327 27.935 14.734 9.782 4.314 4.181-.208-7.779-8.791-8.781-6.302-1.696-8.177 4.121-5.729 11.996 2.935 29.544 6.697 50.1-5.938 6.384-3.924 20.813-.23 21.01 1.592 0 0 1.71 15.06 3.168 46.44.69 14.846 2.234 34.25 3.156 42.22 2.785 24.08 3.666 25.456-8.813 13.75-4.187-3.928-11.162-10.444-11.25-10.06-1.712 7.428 16.753 20.789 21.03 25.344 6.493 6.913 11.53 24.441 8.875 25.438-1.681.631-19.18-14.656-32.938-28.375-5.152-5.14-12.837-12.04-13.06-11.813-2.912 1.879 8.611 15.269 19.438 25.313 12.634 11.72 14.1 12.774 9.771 14.45-7.993 3.094-15.09-1-34.15-17.231-1.855-1.58-9.08-6.868-9.438-6.5-1.793 2.322 15.76 19.43 19.781 20.938 7.468 2.8 9.525 10.08 3.562 12.844-3.98 1.842-18.591-6.443-30.25-16.844-2.089-1.864-7.917-5.069-8.312-4.656-2.364 1.471 10.672 13.08 23.16 20.844 12.222 7.604 14.17 9.466 10.938 15.594-3.02 6.315-29.869-8.799-43.19-24.16-2.834-3.268-5.089-4.69-4.531-3.594 5.658 16.427 24.889 28.417 39.25 33.29 2.564.881 6.284 1.975 7.947 3.337 4.063 3.325 3.104 6.71-1.378 8.559-15.455 4.095-39.456-14.898-56.54-34.679-1.999-.861-.836 1.712-.319 2.565 14.15 23.321 41.623 41.31 58.37 38.27 9.792-1.777 17.594 1.276 17.623 4.553.024 2.686-5.421 6.886-15.933 7.482-23.781 1.348-60.52-25.18-81.75-58.59-.662-1.041-1.458-1.433-1.52-.808-.691 7.01 12.558 24.409 22.77 34.402 30.339 29.688 59.28 39.993 82.2 23.849 12.934-9.727 25.612-31.22 6.663-38.737-10.03-3.982-16.618 9.816-7.931 5.977 11.359-1.2 13.845 4.851 12.287 10.482-3.03 9.665-12.67 11.07-20.43 6.874-13.504-7.569-10.247-32.792 7.437-36.95 15.934-3.603 29.592 10.06 31.23 22.852 2.539 19.874-20.15 41.01-38.17 46.09-61.47 17.321-108.04-68.42-108.29-70.34-2.985-5.953-6.633-9.135-9.06-2.281-2.651 9.938-16.889 38.988-24.276 38.704 2.45-10.286 12.388-27.49 10.258-42.719-4.267 12.418-13.267 38.918-29.951 52.858-4.327 3.828-16.93 8.228-8.156-1.656 10.628-14.491 24.549-34.31 22-53.16-2.826 4.184-4.487 14.858-7.75 21.875-8.168 17.567-25.757 38.3-37.22 41.531-8.464 2.387-7.635-.446 1.125-9.406 9.391-9.606 26.18-37.967 25.281-50.31-.387-5.452-17.673 46.849-48.938 60.781-8.43 2.945-13.14-.984-13.14-.984 12.311-6.851 46.514-39.602 43.879-77.41 0 0-1.879 5.565-4.655 13.913-11.956 35.879-36.866 59.22-56.04 60.905-15.306 1.345-25.887-4.975-22.06-7.643 19.814.434 36.2-6.179 49.2-25.308 13.216-19.442 18.493-50.913 11.142-84.41-6.629-30.21-7.788-57.3-9.835-86.28 21.603 7.73 43.38 12.982 64.64 5.03-2.246 8.592-5.791 9.612-11.462 16.04-4.115 4.7-2.749 5.852 13.207-5.072 4.643-3.179 6.338-5.756 7.156-4.875 1.327 1.429-.899 10.277-5.75 27.906-7.255 26.362-5.498 28.28 19.781 38.625 4.716 1.929 6.461 3.776 8.094 5.781.764.938 4.827 8.511 5.219 8.781.919.634.796-7.649.313-9.75-1.284-5.579-4.227-9.795-6.832-11.478-4.923-4.668-12.12-5.178-16.702-7.358m474.96 352.14l.653-27.473 26.42 19.325-.459 9.06zm-45.707 5.309l6.401-508.23c0 0 20.686-13.316 31.02-19.91 6.105 20.242 5.435 63.45 2.756 82.65-4.191 12.472-6.79 68.21-2.654 96.65 3.297 22.671 2.087 60.07-1.594 77.926-1.438 6.976-.882 39.777 1.19 70.14 1.584 23.21.725 44.27-2.25 56.3-2.344 9.473-2.074 43.547.252 56.649 3.422 19.276 3.158 81.04 1.451 84.37-4.472 4.918-38.908 5.118-36.577 3.452m48.31-531.25c0 0 20.435 13.929 30.29 20.887l-.18 21.897-29.537-19.901zm-308.53 30.906l12.749.979c4.7 26.537 6.465 56.652 8.05 86.84-.028 46.513 5 95.64 15.454 127.95l-9.527 9.701c-15.439-37.07-15.853-95.2-18.845-134.59-.918-44.26-7.522-90.6-7.884-90.89m310.56-.127l27.479 19.19-.058 23.818-27.691-18.953zm-292.17 2.143l11.189 1.381c2.953 31.469 7.87 52.866 9.356 87.51 1.923 44.805 9.15 81.68 13.466 116.72l-8.433 2.667c-5.657 2.507-14.374-38.952-17.303-122.78-.887-25.369-4.766-53.947-8.276-85.49m16.936 1.427l13.35 2.593c4.763 79.62 13.03 154.45 22.2 197.4l-11.651.6c-13.546-61.38-13.457-132.18-23.903-200.59m19.293 3.1l12.269 2.311c12.155 182.1 21.318 179.89 24.07 187.08l-13.392 5.207c-13.633-52.48-15.467-126.2-22.947-194.6m53.25 179.46c-2.192 6.096-7.171 5.454-12.623 6-5.851-16.804-9.121-36.781-11.393-56.33-4.989-42.933-6.431-83.14-11.665-125.52l14.65 1.715c-.48.316 8.246 149.3 21.03 174.12m-313.37-164.46c19.327 1.215 35.24 10.128 36.605 22.854.306 2.863-1.94 1.441-4.53-.604-16.448-12.988-35.32-17.235-58.29-9.345-5.01 1.72-9.123 4.485-11.344 4.063-1.981-1.306-2.555-4.414-.989-6.947 5.46-8.832 28.987-10.623 38.551-10.02m-45.22 24.86c.123 20.04-4.912 31.01-15.49 35.489-12.767 5.402-28.862-6.798-20.763-20.07 6.123-10.03 16.352-6.833 18.16 3.827l16.64-35.657c0 0 1.487 11.39 1.457 16.408m588.81 5.338l-.476 20.644-29.455-20.311 2.273-19.822zm-527.62-10.354c14.57 6.02 19.846 13.184 20.344 16.344-.88 2.336-2.321.712-12.938-5.219-16.332-10.345-37.786-12.305-56.844.25-4.717.861-5.162-1.813-.375-6.813 14.542-11.05 34.407-10.923 49.813-4.563m111.34-2.25c12.899-.22 28.26 3.28 41.19 10 5.715 2.972 10.855 4.847 14.559 8.222 2.978 1.608 3.114 8.421.91 8.903-1.966.247-5.153-1.328-9.906-4.75-30.641-20.534-52.934-18.385-71-6.281-1 .668-4.087 1.328-5.301 1.219-3.406-.307-3.562-1.705-2.112-3.532 8.413-9.234 20.855-13.566 31.662-13.78m386.33 20.07l29.505 21.262-.313 20.481-31.373-22.494zm-538.19.508l4.35.189c9.788 24.73 22.698 12.244 28.13 2.477l5.288.94c-8.775 32.806-42.29 15.09-37.766-3.606m-7.457 3.17c4.918.664 4.663 6.235 6.147 10.314 3.316 9.116-9.646 1.254-11.854-.986-3.737-4.048 1.728-8.975 5.707-9.328m147.55 1.184c12.566 19.738 20.15 8.271 27.596-.137l3.475 1.166c-1.123 14.02-24.971 28.644-35.764-.753zm39.488 2.784c1.377.042 4.123 1.067 6.645 2.13 6.987 2.944 6.587 5.02-1.248 8.37-12.529 5.355-16.867 6.01-13.03-1.756 2.198-3.546 3.686-8.264 7.629-8.744m-48.874 2.272c3.099 2.348 5.12 4.925 5.421 9.07.212 2.924-9.458-.582-9.373-5.234.352-2.953 1.987-5.327 3.952-3.839m-86.14-.138c6.352 2.458 5.542 5.49 1.054 8.184-8.05 4.337-11.461 3.41-6.194-3.515 2.43-3.195 2.966-4.633 5.14-4.669m491.23 17.442l31.952 23.16-.589 20.828-31.935-22.451c-1.371-8.948.132-14.93.571-21.535m-558.35 24.14c1.53.061 2.061 5.129 2.313 12.531.417 12.307-12.352 29.25-25.09 34.969-15.346 6.884-31.522-3.317-28.576-18.04 2.715-13.572 22.06-13.854 22.607-1.27-1.928 3.28.666 6.087 1.75 5.813 4.992-1.262 16.872-11.641 21.813-23.375 1.925-4.573 3.123-9.29 4.469-10.344.261-.205.5-.29.719-.281m557.06 4.25l31.919 24-.157 20.701-31.671-22.47c-1.13-9.243-.485-15.815-.09-22.23m-391.89 27.09c-2.498 4.061-.604 11.429 4.486 5.25 13.07-14.773 31.413 4.218 21.281 15.969-9.196 10.665-20.267 7.03-43.625-2.281-17.02-6.781-19.745-4.594-24.03.063-3.529 3.834-1.874 11.684 2.625 11.656 13.82 3.348 25.784 6.588 40.09 9.781 30.25 6.664 49.32-32.14 21.813-46.906-6.579-3.531-20.367.733-22.642 6.469m-133.96 2.556c-11.983 10.434-2.686 38.452 14.695 41.19 3.64.574 9.09.503 15.293-1.191 12.239-3.339 25.769-10.353 26.38-14.544 2.778-19.05-25.88-2.347-29.673-.14-9.04 5.307-18.507 4.466-23.19-2.063-10.549-14.712 8.982-31.13 20.438-13.156 2.891 4.537 1.961-3.092-1.188-8.313-4.446-7.371-16.209-7.07-22.757-1.788m527.53 1.651l30.01 21.867-.462 19.928-29.09-21.621zm1.847 29.21l28.415 21.07.19 20.721-29.848-20.273c.698-7.449.942-14.456 1.243-21.518m-161.16 9.56c25.24.781 38.942 38.29 25.403 53.614-4.03 4.56-7.207 5.75-8.975 4-.381-.376.314-4.539.64-9.25 1.039-15.02-2.01-25.362-12.842-36.942-8.127-8.686-11.207-11.383-4.226-11.426m-310.96 1.43c-4.793 1.63-9.887 5-13.781 4.094-3.846-.895-5.72.987-7.274 3.991-5.948 11.489-4.213 15.258 7.337 8.853 5.481-3.04 7.367-1.894 21.875 1.063 10.368 2.113 17.442 2.02 26.625-.219 11.415-2.785 18.2-2.916 23.906.313 5.708 3.229 9.583 7.621 9.781 4.094-.58-4.14-4.03-14.759-4.813-18.281-.375-1.695-3.226-.249-5.906-.094-9.437.547-20.559-8.096-27.906-3.719-5.881 3.503-6.665 4.432-14.594-.375-5.904-3.58-10.06-1.483-15.25.281m304.05 7.01c16.887 14.524 21.08 27.25 19.273 37.621-.958 7.547-1.642 15.889-9.117 20.332-1.374.632-3.418 1.01-5.312 1.256 6.06-21.389-.436-40.717-24.305-61.58 7.081-3.378 14.235-2.111 19.461 2.374m-385.58-5.635c.759.009 1.593.146 2.437.438 2.953 1.02 3.308 8.789.938 11.188-2.37 2.399-4.227.365-6.844-5.844-1.961-3.389.18-5.819 3.469-5.781m-15.875 5.813c6.243-.038 8.526 5.712 9.531 10.281.856 3.894-.463 15.462-3.719 11.375-.76-2.465-4.04-10.435-6.719-12.531-5.975-4.669-5.311-9.09.906-9.125m-17.656 5.5c.913-.012 2.082.116 3.5.375 9.72 1.773 16.957 17.39 14.563 26.16-5.294 9.39-7.11 2.981-8.688-5.625-1.279-3.577-5.189-9.21-7.594-12.12-4.99-6.05-5.736-8.727-1.781-8.781m585.95 4l29.363 21.694-.284 22.761-30.75-21.321c.808-7.955 1.273-15.577 1.671-23.13m-605.29.435c14.533.239 26.693 17.311 21.875 33.531-5.927 16.902-34.16 12.868-29.22-4 1.422-4.852 6.672-8.34 11.594-5.219 7.108 4.508 6.423-2.671 1.906-5.281-6.971-4.03-16.669-1.792-18.938 6.125-7.908 27.6 27.573 37.562 47.37 9.219 7.238-10.359 15.11-21.443 19.438-26.16 3.888-4.234 4.698-3.772 4 1.75-2.844 25.709-21.263 57.62-54.906 55.37-32.676-3.583-42.4-38.441-17.375-59.75 4.205-3.58 8.603-5.312 12.844-5.563.473-.028.937-.039 1.406-.031m173.36 3.921c-12.06 5.624-22.94 7.66-34.651 2.358-8.657-3.919-8.581.201-4.843 3.636 10.811 9.477 30.779 5.549 39.38.428 2.792-1.662 3.775-6.578.112-6.422m460.95 47.856l-.207 20.701-32.801-22.67c-.451-4.96.214-12.479 1.416-20.237zm-32.03 6.45l31.24 21.22.534 20.528-30.369-19.446zm1.784 28.804l29.824 21.273.11 22.401-29.564-20.07zm-735.06 12.875l-19.25 55.44 12.06.906 7.938 14.813 8.594-14.938 12.719-.781zm735.87 18.12l28.749 20.373.14 20.69-29.866-21.29zm-1.547 25.306l29.458 21.932.273 21.981-33.413-22.966zm-666.22 2.76l-19.12 59.37 10.313-1.25 9.406 16.09 9.938-14.188 9.219.656zm-137.5 2.438l-18.25 59.03 11.656.125 9.625 15.09 8.844-14.313 13.219-.156zm799.44 22.528l34.582 25.01-.05 23.336-33.536-23.17zm33.733 55.918l.092 20.44-29.09-21.347-2.859-22.737zm-623.71-5.539l-22.22 59.938 14.313.344 8.469 14.594 7.156-14.438 11.5.281zm596.5 14.671l27 19.09-.514 20.978-26.589-18.375zm-520.41 236.28l-15.321-15.16c-.175-1.221 12.813-7.282 20.698-3.192 10.41 5.4 15.523 24.353 3.638 34.12-9.458 7.771-23.624.987-23.891.053zm-13.471-24.826c.609-23.06-11.453-29.16-21.432-33.978 0 0 .443-146.19.725-150.56 0 .638-2.346-15.867-2.625-16.844 0 .011-2.403-.678-2.402-.652.207 14.827-1.03 166.72-1.28 167.7-18.834 1.897-24.27 14.547-26.22 31.611-14.654-1.313-24.324 7.378-24.639 8.839-5.309-7.518-1.113-18.417-5.277-26.24-13.657 45.26 11.226 72.823 33.32 70.61 2.907 43.69 50.858 52.28 49.993-.679 58.2-2.568 39.28-56.31-.167-49.81m-270.55-187.47l-21.906 58.719 14.781-1.469 5.219 10.969c23.94-20.485 35.407 11.848 23.781-15.906zm798.77 116.65c2.719-.161 6.257 2.338 6.923 5.686.371 9.973-12.992 7.54-13.325 1.241-.236-4.473 3.848-6.775 6.402-6.927m7.81 64.931c5.844-4.654 14.999-1.844 15.04 5.298.039 6.331-7.248 8.31-12.875 4.673-4.363-2.745-4.569-7.754-2.168-9.971m.56 17.574c31.624 2.869 55.49-18.289 45.625-33.87 8.657-10.564 1.809-16.805 4.225-22.9 6.82-6.793 1.414-21.69-.269-21.769-1.09-19.902-6.827-22.534-15.271-33.25-2.538-3.108 6.109-5.985 9.491-11.216-8.797 3.234-17.295-3.381-17.226-4.859l-3.658-4.677c-58.667 1.88-111.37 5.206-110.54 84.72-8.924 33.615 4.93 63.873 45.982 55.18 9.07-7.872 3.342-19.555 2.325-25.14-3.273-15.385.907-25.29 2.137-32.457 3.806-22.17 20.387-42.555 21.652-7.704 2.918-4.33 1.58-4.995 6.318-6.741 11.296-3.887 11.11 7.467 8.746 12.01-1.513 2.333-3.739 2.102-6.02 1.805-3.263-.439-7.514-1.711-7.567-2.911-.932 3.602 5.792 10.427 5.03 13.809-.95 3.207-1.52 2.938 1.493.849 14.249-9.879 22.75 12.784 2.382 9.913 9.975 5.512-5.13 21.01 5.143 29.2m-19.11-121.61c11.127-.404 13.791-.465 13.19 5.361 1.951 10.796 4.578 15.826 18.63 14.902 14.171-1.635 18.672-2.455 4.31 5.887-7.234 3.063-9.579 3.645-18.09 2.754-8.579-.897-7.91-1.752-12.857 1.107-2.765 1.598-5.786 3.548-8.02 3.92-3.31.55-9.149 1.737-9.149 1.737-3.549 16.668-8.704 25.01-15.745 32.855-9.962 10.993-14.961 12.868-2.934 12.209 4.439.34 2.172-1.919 3.851 16.13.588 6.322 1.663 13.657 2.561 16.13 3 8.256 3.364 12.345-8.522 12.755-29.676 1.813-36.18-27.14-32.02-41.821.376-2.314 1.838-9.968 2.219-16.05.208-3.325-.423-6.152-.29-9.554 1.076-27.479 7.699-34.628 32.362-52.14 7.439-5.283 20.671-6.199 30.504-6.172m26.02 1.86c13.689-.084 26.813 6.682 20.16 10.852-4.302 2.695-19.68 1.327-23.911-1.776-5.459-4-3.316-9.03 3.754-9.08m-610.58 14.478l-5.563 9.531-6.313 44.656.875 9.09 10.985 14.837 9.08-15.09 13.932.445zm639.91 4.833c8.837 1.903 9.07 9.998 6.745 14.944-5.112 10.878-38.35 15.693-38.35 15.698-.198-4.706.523-9.228-2.848-14.568 0 0 22.16-5.456 26.896-9.646 3.16-2.798 5.102-6.371 7.554-6.428m6.196 25.01c3.211.09 4.887 2.439 5.688 7.188.376 2.544-.613 4.695-2.719 7.438-8.554 9.02-32.3 15.01-40.813 12.564-.592-.802 1-10.413 1.684-14.688 11.373.509 30.679-9.304 36.16-12.501m-338.08 51.42c-11.07-16.469-36.18-14.443-33.508-13.263.382-13.963-1.729-33.18-22.896-35.526-21.354-1.929-32.75 26.11-24.811 38.17-13.12-5.668-33.1 7.773-33.12 9.06-1.685.031-17.388 39.768 28.338 42.49 3.891 18.924 10.893 28.15 25.406 36.12l-1.875 153.97 5.065 7.06 2.801-161.34c23.432-.697 26.709-27.45 25.06-33.653 10.395.604 19.872-1.35 27.916-7.301l2.356 26.34c0 0 5.628-9.199 4.489-14.14-7.993-151.36 49.08-314.14 122.44-419.12 3.904-4.395 5.152-9.692 7.05-9.704 17.649-9.18 28.804-15.369 28.804-15.369 28.678 14.296 79.76 48.541 79.76 48.541l-2.292 215.48c-.77-2.131 96.24-9.412 94.75-6.815 0 0-8.442-3.445-8.489-9.116l4.801-504.25-41.986-28.3c0 0-35.18 22.266-45.04 29.905l-3.245 296.86-74.44-45.07c0 0 1.354-10.481 1.514-13.887-.612-40.523-20.306-54.4-58.34-42.938-5.097 1.537-8.646 2.896-11.1.785-15.265-46.833-20.658-169.4-20.637-169.4l109.48-179.46 181.28 1.635-6.913 691.64 1.294 362.6-93.5 66.03 2.02-232.24c0 0-13.163-6.528-16.627-7.01-1.302-.12-3.03 2.773-.694 4.309 3.368 2.216 11.69 5.374 11.69 5.374l-1.379 230.19c0 0-36.32 23.684-52.55 33.534-12.1 7.276-50.29 25.821-72.913 36.491-8.777 4.14-17.627 7.435-18.448 8.09-30.785 12.7-58.51 21.505-84.2 34.703-17.702 6.943-16.806-.1-20.469-5.906-36.19-36.84-83.57-39.675-122.22-23.469-5.984 2.12-13.384 3.933-18.406 7.313-1.454 1.041-3.975 2.195-5.625 2.563-3.379.752-7.087 2.191-10.219 4.594-5.584 4.285-9.364 11.352-12.625 18.375-2.02 4.346-8.185 24.672-9.05 30.713-.145 1.012 1.951.816 2.02.917.261.374 6.264-24.634 8.569-29.349 4.922-10.07 11.03-16.05 14.231-16.96 1.457-.225 2.691 2.051.667 5.593-4.02 7.04-7.43 22.08-8.48 28.875-.941 6.266-1.184 11.305-.016 11.539.205.202 6.03-18.924 8.629-25.67 6.767-17.583 10.981-24.848 17.308-28.527 6.488-3.773 8.01-3.208 6.679.884-9.842 18.522-13.993 32.577-16.16 52.43-.344 3.959 1.659 4.102 3.34-2.44 5.545-20.789 13.145-48.907 30.27-57.09 7.302-3.174 10.522-2.969 9.711-.639-20.614 25.27-26.09 53.591-25.981 62.759.035 3.06 1.282 2.47 3.974-4.113 7.222-25.1 17.695-46.38 29.91-56.721 4.727-4 10.395-5.04 15.14-5.558 14.321-1.566 14.731 3.739 2.183 10.804-14.292 8.05-31.12 37.835-33.27 60.35-.743 7.793 2 8.678 4.107-1.696 9.06-44.687 47.906-73.75 78.5-59.58 13.765 6.375 16.15 14.99 4.147 11-24.302-8.08-51.66 8.827-63.19 32.804-10.422 21.676-10.375 33.14-3.694 62.47 4.453 27.06 13.396 61.694 9.896 88.09-3.431 5.091-13.927-2.315-26.424-4.04-7.531-1.523-16.751-2.01-24.68.888-6.912 2.53-10.82 3.13-12.04-.585-.393-1.199 5.404-6.934 7.995-10.116 4.141-5.086 1.822-5.941-3.991-.437-2.846 2.694-8.969 9-10.627 9.314-3.631.68-3.719-3.403-.646-13.747 10.837-40.18 8.103-40.902-9.362-49.33-17.328-6.889-11.767-10.154-19.388-16.866-5.5 4.169 6.757 23.842 20.884 28.31 11.556 3.653 10.06 9.567 4.741 25.455-5.48 22.266-14.706 51.711-9.905 71.63 10.09 41.842 52.43 41.608 85.09 25.23l3.8 10.684c-27.57 10.699-172.18 18.08-220.79 11.783-3.571-13.21-3.898-16.6-5.197-32.11 0 0 29.88 14.02 44.859 16.59 18.7 3.213 47.567 3.77 55.21-13.382 2.337-5.03.075-9.339-6.436-6.501-11.967 5.216-32.35 8.908-48.75 7.656-13.769-1.051-33.33-6.869-41.751-12.11-4-2.489-7.338-7.291-4.089-13.215 2.811-.58 6.45 2.569 8.614 3.719 24.684 12.907 38.29 15.543 54.58 10.966 12.355-3.472 29.12-16.501 25.08-20.325-4.176 1.385-18.13 12.759-27.67 15.15-19.64 4.913-40.38-3.349-60.52-16.806-6.194-5.533-3.271-9.457 4.347-4.996 30.22 15.765 42.767 26.11 72.21 5.03 6.578-4.73 10.198-4.059 13.978-1.082 14.928 13.765 14.991 6.159 4.116-8.07-2.471-3.234-4.686-7.743-6.125-12.531-1.063-3.54-1.262-7.07-3.245-9.417-3.379-3.998-9.536-6-16.563-9.217-10.147-4.64-13.57-2.525-6.089 1.256 13.1 6.623 19.429 13.612 3.092 9.657-14.779-6.869-39.669-3.505-53.862 6.04-11.11 5.218-16.05 10.906-18.481-1.299-5.087-25.475.73-59.852-5.939-104.28-1.271-8.469-2.897-13.851-1.112-14.981 2.291-1.45 7.873 4.101 14.752 14.06 3.135 4.539 9.368 13.277 9.357 11.478.378-9.381-13.962-27.2-25.91-34.32-6.563-3.908-10.804-21.592-3.288-17.605 5.804 2.93 35.83 30.11 41.483 39.721 2.626 4.466 4.94 1.675 2.17-3.571-1.663-3.148-8.681-12.427-15.527-19.308-12.146-12.209-13.585-11.667-11.183-14.1 4.752-4.81 14.684 1.621 32.31 18.04 4.498 5.849 10.481 11.159 9.778 8.275 1.892-4.475-15.711-23.957-26.24-29.26-1.966-1.271-2.217-2.585-1.998-4.971 1.14-9.06 21.475 4.566 38.29 20.381 6.297 5.924 1.166-5.123-6.117-12.685-5.724-5.943-14.984-13.366-21.298-15.958-6.27-2.693-6.584-8.197-1.603-10.433 17.09-.473 34.463 17.233 44.773 31.1 2.846 3.81 5.464 6.752 2.55-.424-9.421-21.621-29.489-34.02-43.476-36.673-11.362-2.158-10.962-12.435-.274-11.12 11.758 1.451 30.889 12.359 46.996 29.05 4.686 4.855 12.53 15.833 10.974 9.434-.011-1.737-4.935-8.61-10.634-15.248-13.18-13.474-28.555-25.438-44.988-29.17-7.674-2.291-30.61 1.788-30.69-2.18-.018-2.929 2.459-4.648 9.779-6.966 28.407-8.996 69.43 15.892 91.53 53.56 1.581 2.696 4.63 3.876 4.826 3.277-10.48-30.67-44.03-58.821-70.967-63.953-18.325-3.213-36.913 1.204-45.897 13.453-10.11 13.783-6.503 32.469 8.396 31.19 7.817-.608 7.261-5.05 7.118-5.192-.523-.533-5.093 1.533-7.89.942-10.145-2.145-8.813-20.527 6.05-18.496 17.1 2.336 19.12 29.377-.099 34.778-17.739 4.985-24.09-3.176-28.788-12.815-6.874-14.12 1.051-36.605 13.654-45.09 35.28-23.744 79.15-2.778 103.76 21.633 12.176 12.08 20.993 26.354 26.439 41.688 1.404 3.566 4.03 3.395 3.148-.42-33.798-90.05-138.41-101.25-154.97-32.781 0 0-.573 2.091-10.438-12.375-15.99-23.448-40.3-28.974-70.57-13.586-30.514 10.959-40.855 18.07-62.06 28.649-3.083 1.042-22.733 14.18-25.813 11.344-29.515-20.2-55.4-27.31-69.34-42 .525-2.652-1.406-42.844-1.406-42.844l3.21-173.13c.236-1.686-15.793.917-42.47 4.705-70.982 13.1-64.25-24.03-73.58-26.786-4.933-1.062-4.599 1.065-4.01-132.44.172-38.777.393-106.95.469-151.5.076-44.551.467-81.66.875-82.44.408-.779 4.434-4.133 9.06-7.313 17.423-11.97 27.22-19.224 65.37-47.47 8.641-6.396 10.813-7.469 10.813-7.469 3.168 80.26-1.942 164.43-.813 233.41l3.188.063 2.125-231.53c-6.485-1.801 150.16-90.43 235.7-118.68 1.604-.53 5.559 1.301 5.559 1.301 47.984 60.58 176.79 44.32 188.21-28.417 20.653 44.741 112.97 132.44 157.23 28.989 0 0 15.06 30.12 28.325 32.29 29.821 4.4 33.2-.267 99.43-31.21-76.85 112.98-120.07 233.16-127.5 379.36m-39.554-29.02c1.571 5.062 2.034 11.582.547 16.703-1.978 3.99-4.838 3.893-4.838 3.893l-14.382-12.658-14.438 13c0 0-8.588-8.907-3.625-21.01 9.357-16.875 30.18-13.502 36.735.073m376.3 3.457c9.331-.454 4.358 10.202-9.54 17.268-8.722 4.434-15.917 5.619-19 3.924-1.629-5.061-.121-9.633.972-11.66 5.929-2.934 22.17-8 27.569-9.532m-602.15 11.464c10.355-.102 19.218 7.403 19.361 20.467.058 5.323-2.75 10.559-2.75 10.559l-17.11-12.998-13.418 13.894c-2.264.755-10.21-9.456-4.487-20.358 4.161-7.925 11.319-11.495 18.404-11.565m249.99 9.628c14.453 6.807 16.681 27.18 2.418 34.815-6.779 3.627-17.391 5.548-22.23-2.059l14.526-15.383-16.216-14.05c-.632-.651 12.686-7.479 21.507-3.325m349.3-.275c2.507.032 3.131 1 3.817 3.353 1.947 6.673-3.339 13.283-12.326 15.268-8.306 1.834-7.532 2.813-11.344-4.638-2.987-5.839-3.811-5.607 1.022-7.371 5.837-1.802 12.08-3.911 18.83-6.612m-413.94 3.968c0 0-10.477 10.34-15.06 14.661l15.302 16.433c.72 1.981-18.07 10.159-27.708-2.73-6.257-8.368-2.437-24.06 6.693-29.326 9.326-5.383 22.513-.607 20.77.963m22.279-1.509c9.172 0 16.594 7.422 16.594 16.594 0 9.172-7.422 16.625-16.594 16.625-9.172 0-16.625-7.453-16.625-16.625 0-9.172 7.453-16.594 16.625-16.594m-227.41 24.647l-15.12 15.377 15.856 17.764c0 0-12.776 1.897-17.291.984-21.869-4.422-19.351-30.11-2.292-36.661 7.194-2.407 12.504-1.489 18.849 2.536m-292.46 1.05c0 0 2.451 33.08 4.966 44.4-1.951 12.85-10.404 21.493-14.344 34.656-2.082 5.853-9.703 13.65-11.03 5.344-5.268-10.315.093-22.895-4.281-30.25-2.168-6.834-1.433-10.754-2.844-17.906-3.22-5.842-5.836-8.619-5.312-13.875-.549-23.366-6.45-18.821-16.844-17.06-8.583 2.692-20.14 3.66-26.969 8.563-14.831 10.12-6.928 16.16-12.687 31.688.774 6.851 2.408 9.34 1.125 15.219-6.068 27.796 4.417 25.635 4.094 26.06-4.447 6.344.719 20.832 2.813 20.12 12.71 3.313 7.954 12.56 12.03 17.563 4.094 4.839 3.842 7.247 21.313 7.938 31.537 2.925 81.78-1.038 93.18-39.37 7.551-54.18 18.13-101.85-45.21-93.09m313.97-.76c8.857 0 16.03 7.175 16.03 16.03 0 8.857-7.175 16.03-16.03 16.03-8.856 0-16.03-7.175-16.03-16.03 0-8.857 7.175-16.03 16.03-16.03m-300.19 4.063c5.969.014 12.984 1.371 18.687 7 12.22 12.06 12.6 22.836 6.438 68.47-1.736 12.855-6.427 23.555-12.5 28.16-12.201 9.244-27.06 15.745-39.28 18.563-6.444 1.486-12.03 1.44-16.375 1.344-4.691-.104-7.397-2.312-7.688-6.25 1.187-10.629-9.667-11.823-15.969-11.313-11.228.282-12.391 1.446-5.312-3.875 8.08-6.072 26.494-5.894 29.937-2.219 7.285-7.085 14.789-7.815 23.969-8.75-1.329-2.01-4.497-10.04-2.25-15.12 4.868-8.275 13.07-22.882 21.531-28.28 8.45-10.722 1.336-5.923-3.812-5.813-2.941.063-2.677-.901-3.125-2.875-1.925-8.479-4.644-24.314-4.531-33.719.054-4.532 4.312-5.327 10.281-5.313m-53 10.938c3.198 2.928 3.1 6.948-.349 9.892-3.944 3.367-11.648 1.366-11.745-5.08.61-6.494 8.217-8.22 12.09-4.813m559.16 31.01c-13.465.475-24.334-14.08-19.05-28.349 2.833-3.843 4.02-3.268 4.02-3.268l15.12 13.905 14.917-15.16c11.894 14.78 1.253 32.01-15.01 32.868m-575.56-30.644c-1.163 4.181.225 8.386.377 10.429-2.693 1.86-14.1 5.01-20.233 7.923-4.253 1.393-7.26-2.628-6.621-6.249 1.702-6.738 11.713-11.01 18.969-13 2.237-.514 5.914-.665 7.508.897m2.211 19.384c4.102-.434 2.77 8.468 1.166 13.01-1.574 3.239-6.084 3.037-10.143 3.215-7.172.314-16.32 8.446-20.18 7.06-1.275-.613-2.145-4.02-2.25-6.188 1.014-11.897 20.86-15.977 31.406-17.09m21.469 12.719c-1.397 1.975-5.803 2.876-9.469 1.813-5.993-1.738-6.792-10.391-1.469-13.281 9.372-2.95 14.85 5.882 10.938 11.469m594.87-11.03l-8.344 12.313-12.406-.406 19.16 61.813 9.625-23.906c1.408-11.04 3.03-22.05 4.344-33.09zm-264.02 1.353l15.678 13.172 13.809-13.713c9.795 22.714-2.02 32.875-14.426 32.422-13.686-.5-28.09-13.684-15.06-31.88m-348.64 18.272c5.04-.882 2.692 12.673 1.986 13.05-3.225 1.138-17.09 2.745-22.986 7.572-12.551 9.542-17.761 3.532-11.844-8.03 5.541-6.693 25.635-12.569 32.844-12.594m15.781.875c5.54-.437 9.327 5.737 5.866 11.517-4.645 4.194-12.642.953-12.523-5.079.026-3.792 3.197-6.288 6.656-6.438m-8.656 34.34c.712 3.182-.383 2.185-6.219 3.813-3.215.897-8.282 2.961-13.563 5.531-7.744 3.769-9.932 5.826-12.656 5.344-2.162-.505-4.648-1.478-5.286-3.685-2.55-8.817 4.729-17.661 21.474-23.565 3.482-1.228 9.691-2.171 11.815-2.375 5.653.098-.515 8.69 4.435 14.937m10.03-13.06c8.05 0 9.406 10.708 3.355 12.499-14.155 3.441-12.728-12.646-3.355-12.499m-10.5 39.22c2.234 2.206 2.502 5.775-.062 7.594-4.684 2.227-22.515.014-22.563-5-.02-3.308 5.968-4.34 11.518-4.368 5.55-.028 9.32.0001 11.11 1.774m806.22 17.188l-15 19.469 19.03 49.719 18.906-59.59-14.25 5.406zm-833.31 38.696c1.195 152.29-4.448 501.14-4.448 501.14l42.9 30.08 46.1-32.12c1.127-109.81 1.787-185.56 2.829-287.23l66.31 37.687c0 0 2.01 2.988 1.5 16.719-5.17 37.87 31.16 63.03 55.719 48.41 9.449-3.81 10.224-4.5 12.17-1.505 5.355 8.242 11.02 43.28 11.723 65.59 1.066 33.617 8.912 102.24 11.04 102.73l-111.48 182.77-169.62-1.639 8.02-685.62c8.661 10.511 12.583 17.378 27.24 22.995m631.53-5.509l-8.344 12.344-9.844-.156 16.344 63.969 21.812-62-11.5-1.594zm-552.16 500.19c0 0-21.392 14.886-28.22 19.16-3.574 1.282-5.3 1.505-6.094-1.906-.976-4.192.805-12.08 2.469-25.12 1.539-12.07 1.541-12.746-.219-30-1.838-18.02-2.078-18.778-.031-42.5 2.282-26.458 3.02-52.17 1.156-68.12-1.774-15.166-1.244-49.689.562-68.937 2.212-23.567 1.903-44.28-.937-61.44-5.065-30.599-5.823-41.12.25-64 2.273-8.561 3.407-13.12 3.169-27.51-.265-16-.487-21.232-5.7-56.74-3-20.441-3.213-23.24.344-55.47.718-6.502.993-10.855 3.504-12.885 2.932-2.371 33.16-3.689 33.16-3.689zm-72.25-494l32.896.121c-2.688 10.261-3.371 18.09-3.74 25.536l-28.938-19.625zm.291 13.168l28.647 19.301c-.083 7.968-.789 15.556.253 23.535l-29.03-19.879zm-.382 29.959l30.649 21.609c1.088 8.259 3.487 16.628 4.347 24.05l-34.748-24.25zm1000.83 22.875l-7.207 607.9-308.13-3.094-94.94-189.05c0 0 1.245-17.244 3.788-26.02 3.074-10.603 3.887-12.912 7.99-13.356 10.88 5.836 23.21-1.536 27.07-9.79 4.754-10.164-4.347-25.784-18.61-29.347-6.29-1.593-13.225 1.143-20.274 6.36-4.099 3.322-5.01 3.688-5.771.737-1.722-6.648 4.421-24.564 15.16-39.863 5.972-8.51 7.59-10.956 9.434-7.66 7.46 13.333 23.912 10.833 30.25 3.454 7.666-8.93 6.391-29.563-10.598-35.27-33.24-11.171-49.06 22.12-48.638 22.04l-6.566-40.28c40.34-9.266 63.6-12.41 76.55-24.412 10.188-9.446 15.218-25.964 14.192-40.732 0 0 112.34-43.74 165.01-71.15 90.69-47.19 171.3-110.48 171.3-110.48m-170.11 1.935l-8.469 14.406-11.719-.156 22.812 61.688 19.03-63.781-11.313.844zm-829.7 5.563l35.11 24.969c.66 7.95 1.576 15.04.382 24.02l-36.976-25.24zm692.05 2.531l-9 11.594-10.156-1.219 19.06 61.03c6.321-17.468 12.187-41.23 18.438-58.719l-9.438.313zm-693.12 28.688l36.34 24.839c.032 7.508.284 14.584-2.406 19.849l-34.31-22.719zm761.28 14.563l-9.156 17-11.844-1.781 20.375 58.53 24.03-57.34-14.375.563zm-761.62 13.75l31.479 23.826c.452.342-1.932 10.633-1.51 16.486l-30-19.09zm.438 28.906l29.375 20.813c-.046 7.728.376 15 1.5 21.594l-31.906-21.375zm-.938 29.438l33.945 24.914 1.529 19.649-36.01-23.376zm282.25 12.281c32.74 12.75 62.696 75.79 60.57 156.82-1.475 56.25 14.357 136.8 14.05 135.87 0 0-9.565 1.14-12.237-1.018-11.798-41.489-15.296-85.2-16.73-121.23-1.17-30.05-2.469-59.54-4.271-66.44-5.059-24.291-10.508-52.623-25.716-71.25-11.857-14.05-25.569-16.667-34.01-1.204-6.915 12.666 6.947 33.993 18.813 27.14 2.866-1.556 4.603-4.237.875-4.214-12.236 1.633-20.19-15.375-12.348-23.312 13.813-13.978 37.16 17.952 25.866 35.17-4.974 7.447-17.715 8.589-27.857 5.67-22.484-11.276-27.775-38.16-19.94-55.712 5.975-13.384 18.779-21.244 32.931-16.288m-39.937 7.469c2.673.163.779 5.069-1.804 12.726-6.093 18.355 4.416 47.16 19.46 53.09 4.495 3.155 4.233 4.324 1.179 5.982-9.957 5.406-27.639-11.497-32.1-30.11-3.229-13.463-2.155-29.28 4.391-35.908 3.579-3.623 6.408-5.514 8.312-5.75.198-.025.384-.042.563-.031m-243.06 7.344l36.28 24.469c1.595 7.495.731 15.445-.531 23.469l-36.29-26.08zm221.03 2.906c2.718-.046 1.639 4.49.762 12.786-2.031 19.212 3.729 33.29 17.15 45.1 5.661 4.982 7.21 6.541 4.705 9.08-3.555 3.598-13.524-1.438-21.279-9.76-14.199-15.237-18.564-43.676-7.181-53.793 2.498-2.22 4.42-3.382 5.844-3.406m407.35 9.254c15.66-.381 28.784 5.881 29.96 25.03 1.722 28.03-24.594 42.965-42.563 26.625-16.08-16.377.823-41.4 19.561-29.29 9.42 6.135-2.125 19.641-9.714 12.462-3.423-3.238-4.975-1.279-2.563 2.438 7.282 11.22 22.07 2.192 21.17-7.61-1.784-19.272-25.432-19.367-34.445-11.962-12.334 10.134-23.287 25.16-31.454 36.11-6.696 9.504-8.099 9.228-6.959-2.617 3.01-31.3 32.578-50.589 57.01-51.18m-426.32-.067c2.494-.054 1.452 3.506 1.509 12.723.662 23.67 10.421 38.543 22.95 46.969 4.17 4.743-1.303 7.982-9.247 5.602-18.09-5.861-36.08-45.17-20.431-61.732 2.196-2.324 3.912-3.534 5.219-3.562m-17.781 7.5c2.52-.123 1.022 5.083 1.116 14.955.198 20.777 6.48 30.845 21.741 43.745 4.973 4.204 5.606 3.749 3.585 6.01-5.378 6.02-23.17-2.869-30.634-15.42-8.878-14.936-9.891-37.29-1.308-45.603 2.4-2.325 4.18-3.623 5.5-3.687m-17.719 9.75c2.085.041.867 3.776 1.058 12.75.463 21.76 5.274 32.596 18.929 42.857 8.58 6.447 10.714 4.583 8.03 7.04-4.708 4.313-17.359.366-26.772-7.817-14.11-12.266-17.689-42.07-5.929-52.08 2.097-1.786 3.595-2.771 4.688-2.75m-166.38.656l34.844 24.906-1.294 20.583-34.674-24.21zm614.84 47.563c-14.289-3.143-19.558-13.562-17.646-25.25.639-3.907 2.959-6.111 5.341-.962 1.99 8.151 7.244 19.487 14.62 21.781 2.97.924.418 5.03-2.315 4.432m-307.79-28.794c15.569 40.907 14.635 85.35 16.705 127.39 2.751 55.872 12.08 93.61 15.215 99.99 0 0-15.782-.048-16.548-2.344 0 0-13.815-74.24-11.04-110.82.756-40.963-6.696-77.09-11.335-93.34-4.942-14.413-5.303-4.944 7-20.879m-307.69 11.419l33.538 22.625c-.588 7.568-.767 15.14-.781 22.719l-32.851-23.969zm455.35 4.719c.0001 1.233 4.862 2.341 12.525.607 8.506-1.925 16.947-1.44 23.432.443 6.898 2 7.692-.219 1.469-3.044-3.034-1.377-7.849-4.481-15.13-4.457-7.278.024-22.315 3.767-22.299 6.452m137.17 1.138c.804 1.531 3.332 4.985 5.594 7.688 4.283 5.118 5.509 5.17 3.497 7.206-4.634 4.69-14.12-2.344-15.02-11.151-.801-6.434 2.462-10.444 5.934-3.743m-303.22-2.674c15.484 22.766 17.05 75.66 16.829 113.23-.199 33.838 10.348 95.99 11.275 95.74-3.285 1.872-7.659 1.136-11.75-.51-3.989-5.357-6.266-20.242-10.404-60.52-1.068-10.391-2.977-43.43-3.13-70-.134-23.448-12.492-74.37-12.492-74.37 0 0 5.137-3.541 9.671-3.569m-17.685 5.38c13.947 32.369 15.827 64.34 15.913 103.09.081 36.662 7.598 79.72 10.403 98.71-4.873.434-10.01.764-12.02-1.456-1.272-1.796-2.26-4.594-2.845-8.194-6.096-31.796-7.162-66.29-8.62-95.47-2.163-45.22-2.725-56.42-8.805-79.03-3.448-12.828-4.727-12.58-1.95-14.997 2.112-1.839 6.109-2.719 7.927-2.656m161.94 9.75c.18 14.972 2.194 8.902 7.513 6.594 3.985-.281 7.205 1.942 14.564 4.765 9.371 3.595 8.504 4.743 15.173 1.591 4.113-1.944 7.38-2.589 9.31-.974 7.651 6.401 17.695 3 23.39-2.01 4.421-2.227 9.194-.909 12.903-.514 5.351.57 4-2.865 4.764-9.624.674-6-1.613-6.562-7.859-4.625-6.391 1.981-12.711 2.187-18.208.421-14.06-4.514-24.43-1.865-31.446-.867-16.568 2.359-17.426.678-21.14-1.744-2.77-1.807-7.335-5.129-8.931-5.05-1.596.074-1.146 5.501-.033 12.04m146.75-4.745c1.584-.781 2.278 1.367 4.426 4.25 3.592 4.821 4.627 7.083 1.553 7.482-8.135 1.057-10.142.179-9.783-4.862.286-4.02 1.193-5.583 3.805-6.871m-325.79 2.371c11.743 12.179 13.788 79.57 14.933 94.09 3.155 78.63 10.449 90.02 6.531 95.86-4.51-.141-6.107 1.506-8.995-2.48-9.782-28.928-8.76-58.5-9.974-88.54-1.754-39.799-5.389-61.39-10.698-81.18-3.53-13.157-3.481-13.373 3.281-16.875 1.2-.621 3.85-.928 4.922-.875m-16.191 9.235c4.057 9.605 11.86 53.1 12.461 90.56.477 29.746 6.735 87.984 8.05 88.32-4.341.331-9.532-.625-11.591-3.94-12.167-57.5-7.218-113-21.409-170.85.935-2.781 5.756-7.319 12.494-4.092m-238.26 3.609l34.75 25.687.438 21.5-35.469-25.949zm521.98 4.87c-19.937 7.406-25.16 13.645-22.12 19.239 2.559 4.711 10.471 3.185 31.718-5.32 15.88-6.357 20.79-3.41 23.85 6.578-.37 14.68-14.635 16.181-22.642 14.05-3.453-.182-2.944.145.67 4.798 16.16 13.06 36.57-11.722 26.81-27.766-7.609-14.638-21.08-18.969-38.28-11.575m-124.54 4.15c-16.543 12.6-11.04 35.811 2.527 39.479 3.761 1.979 9.421 1.154 11.656-.281 2.062-1.323 2.076-3.526-2.094-4.281-12.608-2.285-19.651-11.658-13.406-20.969 6.06-9.04 17.02-7.124 38 2.281 18.14 8.131 26.18 5.818 28.469-3.594 1.01-4.156-.091-8.08-8.844-8.534-24.346-1.257-40.28-16.308-56.31-4.102m218.43 38.584c-.989-6.672-11.91 0-19.253 11.69-7.223 11.501-7.979 13.149-9.24 1.08-1.88-17.996 16.971-31.778 28.611-32.06 14.03-1.412 23.12 6.557 23.348 15.592.447 17.785-20.77 17.654-23.467 3.696m-617.06-19.574l36.819 26.08c0 0 1.057 13.707.15 21.05l-37-24.438zm446.41 15.06c-16.332 10.733-7.118 30.888 4.162 33.3 11.892 2.548 12.851-5.763 1.031-8.391-6.303-2.582-7.838-8.639-5.298-13.263 5.789-9.169 16.16-3.03 22.2-.057 13.403 6.617 20.361 9.07 24.687 4.688 7.688-7.781 1.137-21.941-8.937-17.12-2.719 1.3-4.768 2.541-10.488 1.035-8.688-1.951-19.12-4.048-27.356-.191m-446.53 15.303l36.22 25.572-1.438 22.12-33.981-25.695zm.312 30.447l34.05 25.02c-.644 9.349-.463 13.08-.176 19.04l-34.469-22.969zm608.38 13.554c27.554 3.097 17.948 34.656-1.192 25.821-5.083-3.939-6.634-3.65-12.544 10.17-7.559 17.676-9.32 16.204-8.02-4.326 1.027-20.1 10.439-31.673 21.755-31.665m-217.45 1.667c.651.026 1.177.142 1.5.406 1.833 2.118-3.882 10.31-8.696 15.09-3.531 2.244-11.939-4.076-9.831-7.07 2.453-2.906 12.573-8.05 17.03-8.435m36.578 16.856l-4.94.635c-7.207-16.696-22.734-13.12-27.734 2.212l-6.789-.872c7.144-18.785 31.81-30.01 39.463-1.976m138.86 5.806l-8.351.379c-7.225-18.11-17.789-20.95-27.03-3.301l-6.438-1.961c11.452-22.563 30.08-24.12 41.821 4.883m-41.42-21.13c4.274-.196 3.693 1.763-.84 7.773-3.94 5.226-4.892 6.04-8.732 3.103-6.299-4.82 4.368-10.601 9.572-10.876m39.534 1.104c.815.061 1.766.154 2.844.437 8.571 2.251 12.459 6.382 8.164 11.549-2.677 3.221-5.257 4.461-6.957 2.254-5.664-9.653-8.808-14.596-4.05-14.24m-130.03 3.777c.849 3.575-2.01 6.06-5.109 3.057-1.263-1.225-2.345-3.302-2.165-4.814 1.996-1.824 6.677-.218 7.273 1.757m-435.2 5.919l35.01 25.919c1.032 8.966 1.172 15.766 1.029 21.877l-36.07-24.659zm515.54 15.187c20.17 14.257 44.07 14.417 59.19 2.372 3.381-2.692 6.297-2.767 6.314-.132-2.27 9.756-28.438 21.93-48.63 14.522-11.09-4.07-20.2-8.08-27.362-18.596-4.25-6.845 4.634-2.34 10.484 1.835m-8.723 6.678c29.41 26.12 53.19 19.332 71.32 6.638 2.659-.623 2.668 1.762 3.194 6.206.674 5.694-4.086 8.431-17.04 12.11-25.05 7.107-54.2-1.498-59.23-18.304-.569-3.298-1.773-7.588 1.759-6.647m-507.38 8.02l35.509 25.12-1.416 18.784-34.594-24.12zm.156 28.813l33.523 23.439-.336 15.561-32.594-23.938zm245.81 10.875c143.97 34.775 246.56 20.743 347.28 4.5l86.47 175.84-536.36-7.07c35.85-56.22 65.891-117.82 102.61-173.27" fill="#131f67"/>
   </g>
   <path transform="matrix(.99957.02064-.02065.99979-3870.09-482.78)" d="m3780.37-345.31v19.03h19.469v165.56h-19.469v20.5h56.56v-20.5h-15v-46.969l22.719-31.469 34.06 78.44h-21.75v20.5h61.687v-20.5h-14.75l-45.16-100.84 42.906-65.03 15.906.313v-19.03h-61.25v19.03h17.656l-52.03 79.84v-79.84h15.438v-19.03zm475.5 102.22l26.73 49.966.058 2.35 14.775 28.855 2.228 1.43 3.333 6.286.371 3.057 8.25 13.194-.053 2.833 34.995 65.09c28.864-10.775 265.96-30.17 353.75 1.563l12.786-21.67 3.059-.021 22.548-39.554-.359-3.327 7.588-8.651 1.102-3.94 24.88-38.935.088-6.277 31.12-51.875zm536.84 7.469c0 0-16.23 31.2-24.594 43.813-6.768-5.338-26.39-1.714-25.22 18.969-31.987-12.12-39.7 26.04-14.969 34.625-12.691 11.08-24.82-1.452-34.443-9.95-9.412 2.331-28.952 9.247-40.02-11.1 0 0 4.625 2.497 9.241 5.209 26.16 7.954 28.27-27.346 8.812-33.12-2.45-.644-7.06-.906-7.06-.906 6.542-27.15-35.455-36.622-36.25-4 0 0-4.993-.815-8.781-.125-22.263 4.058-17.16 36.884 5.594 35.31 3.136-.217 5.938.344 5.938.344-.371 5.257-27.911 15.303-47.75-2.781-9.409 7.166-24.302 16.15-43.719-1.719 12.77-.519 25.01-4.153 24.875-18.625-.091-9.423-8.565-17.833-20.781-18.281-.693-10.528-8.533-20.573-18.719-21.344-12.431.725-18.788 10.754-18.875 21.344-10.571 1.092-20.461 10.408-18.19 21.09 3.101 14.578 14.334 16.372 27.16 13.594-15.596 25.07-40.988 11.992-48.813 4-9.323 8.696-25.576 20.472-45.594 4.375 10.669-1.825 22.533-8.08 20.531-22.969-1.578-11.731-14.747-15.214-20.469-14.594-.013-7.751-5.868-20.54-19.688-19.219-15.08 1.441-14.178 20.506-14 20.656-12.453-1.026-21.489 13.619-17.938 22.969 4.322 11.378 13.372 14.915 30 11.844-19.401 18.204-31.723 11.138-42.31 7.313-9.373 9.822-21.888 12.99-34.719 4.281 28.7 1.368 24.13-49.37-9.906-30.969-2.943-9.517-7.329-21.234-25.16-18.5l-20.312-39.22zm-657.19 32.438c-1.474.017-2.959.091-4.469.188-54.978 3.514-75.28 41.725-72.69 75.56 1.747 22.836 14.207 42.33 32.31 52.906 7.766 5.916 9.396 8.136 8.03 10.906-1.611 3.269-3.787 2.954-8.188-1.094-62.894-60.17-151.46 10.514-112.28 88.53 31.15 62.04 118.57 47.682 137.31-22.12 1.49-5.549 3.889-7.959 6.469-6.438 1.832 1.08.382 8.274-1.094 19.219.106 39.519-41.02 101.71-43.34 103.81l107.84-.094c-24.737-33.777-39.25-66.908-42.25-115.12-.301-14.59 5.162-11.482 9.781 5.063 21.08 75.48 117.07 74.78 138.84 1.25 20.313-68.6-56.08-125.93-106.72-79.75-7.282 6.641-12.213 7.873-12.313 3.03-.045-2.061 6.757-9.697 13-14.563 12.635-9.849 23.17-28.29 23.281-46.969.227-37.749-27.85-74.839-73.53-74.31m-57.937 321.47h-.125c-.019.08.043.074.125 0m447.66-303.91c1.388-.058 2.864.23 4.313.969 4.489 2.284 5.33 6.269 2.594 12.156-.962 2.068-2.351 4.44-2.125 6.625 31.604 58.28 101.29 32.23 107.84 5.156.416-1.717-.382-3.597-1.281-5.438-2.678-4.455-2.325-8.103 1.156-11.156 7.416-6.505 18.05 1.173 13.75 9.938-1.136 2.312-2.332 4.845-1.469 7.938 17.891 40.617 53.51 43.668 83.41 27.594-13.771 24.653-67.15 39.768-89.56-19.594-35.774 48.36-92.55 47.45-118.31-7.156-23.17 55.852-93.08 57.17-118.53 10.781-23.16 53.07-76.879 41.03-92.09 7.813 49.9 36.11 82.78-1.586 88.69-17.656 0 0-1.159-1.876-2.75-3.438-6.385-6.266-6.209-13.637.406-16.563 8.475-3.748 16.413 4.388 12.06 12.375-1.219 2.237-2.3 2.728-1.5 4.656 15.53 36.19 92.01 46.705 107.5-4.063.525-2.901.225-5.581-1.094-7.781-3.635-6.06.985-12.906 7-13.156m-223.25 20.5c12.06.685 8.698 11.06 6.281 11.844zm447.94 6.469c.082.195-7.438 13.438-7.438 13.438-3.982-6.358-2.949-14.274 7.438-13.438m-40.781 66.906c0 0-7.703 17.04-10.25 18.469-142.89-36.6-342.25-4.776-347.16-1.25l-8.781-16.531c125.28-25.03 250.2-19.683 366.19-.688m-864.56-5.781c-4.425.053-9.09 1.065-13.906 3.25-24.845 11.275-26.975 39.771-4.656 62.28 3.556 3.586 6.488 6.992 6.5 7.563.053 2.54-2.474 2.079-8.562-1.594-34.14-20.585-67.47 4.12-53.594 39.75 11.208 28.777 55.48 24.412 62.34-6.156.913-4.078 3.862-6.579 5.156-4.375 1.104 1.88-2.144 17.446-5.438 26.09-4.325 11.356-6.893 17.301-9.5 21.938-3.177 5.65-3.394 7.506-.938 8.094 3.536.846 42.24-.216 42.22-1.156-.0001-.519-1.635-4.3-3.625-8.438-7.778-16.17-13.708-44.16-10.03-47.34 2.07-1.791 2.759-.878 5.563 7.406 13.849 40.954 65.33 31.07 64.34-12.344-.671-29.537-27.697-42.509-52.06-25-5.542 3.982-7.182 4.203-7.687 1.125-.204-1.229.761-2.645 2.719-3.969 30.855-20.86 12.13-67.5-18.844-67.12m623.19 258.97c-13.794 53.21-47.19 58.62-87.53 65.09-49.963 8.02-82.52-10.187-97.75-38 0 0-71.46 27-97.53 42.688 54.22 24.838 125.84 79.83 166.56 142.28 14.506 19.04 13.774 14.733 13.75 56.5-.057 90.57.156 124.25.156 124.25 22.369 3.351 23.594 18.733 22.375 36.01 17.954-7.928 35.23 1.774 35.15 18.716-.141 31.14-30.738 22.68-37.09 19.248 9.951 27.447-1.73 38.812-13.654 40.16-14.701 1.662-31.564-5.406-26.648-36.82-16.03 6.226-36.32-5.087-39.13-24l-.781-32.03c39.639-74.58-10.121-135.22-56.844-155.16 0 0 13.218-27.328 30.31-35 1.739-.524-10.365-18.275-30.719-14.406-9.367.193-7.188.129-16-11.313-17.42-22.618-25.621-24.17-42.594.031-7.471 10.652-9.257 10.943-18.09 11.125-9.735.201-24.675 7.192-27.875 13.438-.733 1.429 3.085 2.888 8.156 8.813 7.297 8.525 18.557 20.234 16.781 32.16-38.476 15.653-102.3 84.34-35.19 172.28l-48.531.625-2.313-313.06-33.75 18.781 1.5 245.22-9.625-3.188c.739-78.22-.441-156.38-2.906-234.56l-89 64.844 3.969 367.69 9.469 2c7.02 50.1 106.27 15.06 112.06 19.406l1.187 204.31-4.344 10.125 78.969 43.16 72.44-37.563c0 0 9.777-1.759 13.437-3.688 30.04-15.826 52.42-12.276 68.75 10.938 10.07 14.321 11.781 16.438 11.781 16.438 6.106-41.32 42.745-56.55 78.28-45.75 26.14 7.941 61.852 33.985 72.78 65.781 0 0 1.965 4.785 3.906 6.938l1.5.656c-.093-.829-1.725-4.791-2.344-6.719-36.653-84.17-139.94-97.08-155.87-28.313l-14.625-20.5 76.906-47.16 105.09 69.16c0 0-4.94 24.311-5.5 34.813l1.813.844c.512-1.325 1.259-6.37 1.719-9.531 1.669-11.483 4.713-21.13 8.844-28.5 2.488-4.442 5.369-8.06 8.594-10.75 6.277-3.645 12.1-3.272 18.469-9.25l-15.344-11.469-.344-36.813 30.844 43.19c9.698-2.243 47.47-13.514 69.875-1.031 2.53.783 35.387-8.583 55.844 37.25l98.5-40.906c0 0 6.28-3.536 6.344-4.469-98.22-36.24-197.39-164.56-187.84-166.62 0 0-.291-13.167.469-45.47.795-36.01.362-72.76.969-108.89-33.426-10.671-25.12-37.61-25.12-37.61-20.09 4.407-23.296.506-28.384-3.03l-3.469-34.09c12.05-10.251 19.278-11.206 34.19-7.938 0 0-7.229-14.813-.656-27 5.534-9.64 20.268-15.724 32.03-8.938 15.206 10.359 10.358 32.06 8.188 35.09 15.804-7.079 35.13.81 39.875 16.438 2.367-46.21 6.383-97.94 15.656-138.25 17.1-72.75 45.09-148.93 80.16-208.84 5.735-10.01 13.06-20.04 18.969-29.406 5.485-8.346 8.094-13.75 8.094-13.75 0 0-7.499 4.13-15.438 6.344-11.415 3.095-20.01 6.04-21.312 7.344-8.35 7.03-19.304 12.236-28.25 16.12-31.547 12.276-52.754-6.03-65.851-33.993-7.291 35.512-39.836 65.56-87.83 46.887-27.12-14.392-35.644-23.594-61-61.14-2.13-3.838-7.625-8.25-7.625-8.25m1.045 5.804c17.947 35.479 44.812 60.62 70.926 70.67 46.626 15.284 77.38-14.566 86.06-41.991l8.998 15.236-70.6 50.12-106.53-67.72c1.782-1.632 11.308-25.493 11.144-26.311m320.58 2.446l-31.625 18.625c0 0-21.01 33.893-28.06 46.656-36.895 65.16-64.59 136.05-79.03 206.37-5.835 25.753-12.03 72.79-14.09 95.41-3.293 36.07-3.136 50.887-2.188 83.969l2.469 2.688c0 0-3.876 6.801-6.656 12.531-7.553 15.573-9.398 24.381-8.938 42.44 1.053 41.55 26.313 81.32 62 97.53 2.01.913 4.688 2.094 4.688 2.094 0 0-6.117 16.54-17.219 28.19-7.406 7.769-8.993 8.148-6.375 11.969 3.641 5.317 15.397 9.933 30 9.719 5.168-.076 5.136-.089 14.688 10.313 18.646 20.307 24.25 19.89 41.22-3.125 5.04-6.841 7.914-8.48 15.281-8.656 10.838-.259 30.618-9 30.531-13.09-13.344-5.909-28.802-36.37-26.344-36.688 72.965-38.606 88.43-118.63 35.13-177.47l50.896-.813 1.875 319.22c9.966-6.615 32.5-20.844 32.5-20.844l-.745-248.4c3.5.664 7.07 3.171 13.87 4.278l2 234.87c0 0 6.62-2.685 12.375-6.438 28.441-18.734 84.12-62.06 84.12-62.06l-1.906-361.97h-7.438l1.188 361.78-86.41 63.09-.563-224.84c0 0 6.826-1.018 9.375-1.375 25.29-3.539 37-35.786 20.22-56.844-5.958-7.475-1.731-6.945 10.938-9.375 22.467-1.98 34.908-18.961 28.375-31.06-2.803-5.191.846-4.63 3.219-9.563 1.556-3.879 1.264-8.69.594-12.5-.88-5 1.171-7.214 2.438-10.406 1.984-5 .059-10.648-3.25-15.344-3.493-4.956-2.529-10.275-2.563-13.563-.152-7.351-2.811-8.401-10.594-15.5-5.888-5.371-1.162-6.542 7.5-11 13.629-7.01 14.567-31.835-3.562-42.41-9.691-5.651-27.32-5.19-65.53.844-14.487 2.287-31.5 3.813-31.5 3.813 0 0-.127-141.52-1.125-214.47zm0 5c0 0 77.58 45.39 76.969 46.656-26.06 35.685-123.24 177.87-123.94 349.81-71.26-8.943-100.44 46.774-103.91 46.563-9.366-210.46 76.05-361.03 119.81-424.94zm-48.937 27.688l-.25 5.156-15.375 22.969-.406-22.969zm-23.75 8l.562 37-31.5 24.06-1.844-38.594zm-291.97 8.469l16.188 11.188-.563 36.719-24.375-44.34zm443.12 12.375l.125 26.563c-62.11 87.6-94.69 187.66-104.66 314.37l-15.12-.5c4-126 46.42-240.97 119.66-340.44m-420.62 2.719l38.31 25.03-1.656 41.875-34.781-22.313-3.25-8.563zm231.94 1.781l-.156 38.938-29.594 21.969-1.375-38.656zm-358.69 10.188c4.39.053 7.897 3.25 8.719 9.313 3.249 25.879 22.941 18.41 27.625 26.19 1.772 2.654-2.428 4.959-15.906 3.875-24.712-1.848-42.726-21.836-30.09-35 3.247-2.983 6.653-4.411 9.656-4.375m170.78 16.688l32.719 20.844-.094 43-32.06-19.563zm149.28.125l2.531 38.03-35.813 23.813-1.281-37.781zm68.16.156l-20.563 43.781-119.97 86.31-99.56-64.47-18.469-42.25 116.16 75.78zm-323.53 17.375c31.88-.391 56.35 33.446 64.719 63.09 6.088 19.604 7.01 26.659 7.656 57.781.657 31.703 1.652 37.18 7.594 41.656 3.661 2.759 4.725 2.01 5.188-3.594 1.033-12.457 15.925-4.781 16.187 8.344.289 14.578-15.76 19.262-27.625 8.06-6.318-5.963-6.4-5.906-8.375 5.813-1.316 7.849-10.464 56.99 12.906 69.22 4.4.416 5.454-3.112 2.188-7.219-6.558-8.238 6.541-17.744 17.219-12.5 12.905 6.339 11.598 27.14-2.188 34.531-15.769 8.459-36.16-1.154-45.687-21.531-6.991-14.958-6.96-35.697.125-66.5 3.266-14.197 4.702-23.24 5.437-34.12.241-3.574.665-7.467.938-8.656.761-3.318-.877-3.475-6.531-.625-15.43 7.779-32.26 2.25-36.406-11.969-4.957-17 13.991-34.564 25.688-23.813 4.44 4.081 3.901 8.134-1.406 10.75-9.198 4.532-6.06 16.453 3.719 14.09 32.23-9.645 2.763-100.08-33.531-106.34-23.996-4.14-42.834 23.19-25.469 37.813 6.803 5.728 13.707 2.654 12.219-5.438-2.072-11.287 12.922-10.07 18.469 1.5 9.02 18.824-14.273 34.14-36.03 23.719-39.05-23.19-12.355-73.35 23-74.06m144.53 7.188l32.16 21.594.281 41.969-31.937-18.938zm70.844 3.625l.156 38.531-31.03 22.563v-41zm83.59 25.25l-15.875 44.22-100.16 68.5-82.62-51.813-14.219-40.906 97.34 63.06zm-650.03 3.219l-.031 223.84c-32.454 1.381-51.09 33.481-26.781 63.813 0 0-4.235.571-9.188 1.25-21.954 3.01-36.661 14.647-33.75 28.75.892 4.321-.011 8.686-1.25 10.844-1.954 5.796-1.438 10.223 1.188 15.219 2.061 3.924 1.718 5.501.563 8.406-2.49 6.256-1.895 11.08 1.031 15.844 3.615 3.537 2.611 6.393 2.125 12.06-.579 8.01.86 11.228 5.906 14.344 6.506 4.02 8.93 10.604 1.531 10.06-3.672-.269-16.594 12.188-16.594 12.188l-1.219-359.22zm175.97 28.719c5.808-.015 11.788 7.281 20.375 19.594 5.191 8.819 5.281 7.622 17.16 7.156 12.13.884 19.516 4.087 22.688 7.75 1.198 1.387-1.983 1.749-9.656 9.531-7.955 8.07-9.06 11.28-14.344 20.313-1.903 3.257-6.06 3.564-8 .594-1.571-2.404 2.453-10.221 10-19.438 10.647-10.276 8.41-11.312-7.06-9.688-10.869 1.141-12.03.598-16.16-6-12.306-24.464-18.843-23.638-30.625.75-3.214 6.825-1.936 6.387-15.875 5.313-10.976-.846-13.691 1.923-7.5 7.688 9.67 7.938 13.437 26.665 12.906 26.438l-7.469.688c0 0-2.282-4.217-3.281-6.875-2.025-5.38-7.467-13.464-13.375-19.844-8.368-9.04-3.771-13.984 14.906-16 10.409-1.123 10.647-1.267 15.438-8.281 8.437-12.356 14.07-19.673 19.875-19.688m454.31 22.281l-10.781 38.19-85.44 59.906-69.5-46.37-9.219-35.906 79.84 50.563zm-294.56 30.25c0 0 24.696 48.11 33.656 79.28 7.794 27.12 18.632 105.64 15.781 110.47-6.07-8.331-26.13-6.452-26.406-6.375 1.699-9.198-5.735-27.737-22.844-31.406zm281.09 17.594l-8.531 37.594-72.75 52.594-60.03-41-7.875-36.34 66.44 44.37zm-422.94 2.094l9.438 3.281 1.781 67.906 72.78 12.09 1.656 11.625-84.28-13.594c-.884-28.959-1.375-81.31-1.375-81.31m-36.938 2.031l2.031 78.969c-.787-.262-60.673 8.273-83.59 14.281l1.344-10.813c0 0 41.629-9.05 71.78-12.531 0-22.08-.173-45.31-.219-67.813zm677.12 14.531c0 0 9.904.921 31.09-2.813 54.627-9.558 69.42-5.685 76.41 11.156 7.63 26.11-21 26.745-26.1 10.168-3.246-10.744-14.978-8.391-54.15.894-33.501 7.941-54.728 1.584-54.32-17.394.42-19.513 22.648-21.238 27.07-2.01m-448.94-14.281c6.755-.098 12.339 5.308 12.438 12.06.098 6.755-5.308 12.308-12.06 12.406-6.755.098-12.308-5.276-12.406-12.03-.099-6.755 5.276-12.339 12.03-12.438m-177.47 2.156l8.625 2.594c0 0 1.271 51.51 1.531 51.594 18.561 4.091 57.53 11.406 57.53 11.406l2.062 10.188c-16.313-3.829-68.31-12.344-68.31-12.344-1.623-22.339-1.438-63.44-1.438-63.44m-62.969.969c0 0 .033 41.1-.656 63.19.29-.193-44.13 7.07-66.69 11.75l1.75-8.25c17.84-4.03 37.26-8.07 56.906-12.188-.39-16.17-.375-51.625-.375-51.625zm31.719 8.844c5.424-.079 9.921 4.295 10 9.719.079 5.424-4.295 9.859-9.719 9.938-5.424.079-9.859-4.233-9.938-9.656-.079-5.424 4.233-9.921 9.656-10m739.12 25.656c6.04 8.953 11.11 8.686 17.06 7.813-1.5.441-8.527 4.596-8.125 5.969.201.686-2.965 12 1.844 12.469 18.13 1.75 8.955 20.575 11.125 23.469 4.901 5.585 8.486 9.128 5.125 16.09-2.981 6.183-7.263 5.987-3.938 11.281 7.223 10.858-2.756 13.11-1.875 20.5.607 4.462 2.177 10.559.531 14.03-4.962 10.466-22.488 16.434-41.969 17.25-2.776.124-.67-4.412-1.969-7.281-4.816-3.045-2.18-8.175-.563-11.531 1.598-4.456 1.612-4.46-1.375-6.719-8.313-5.166-7.886-7.548-7.219-11.281 1.822-11.04.108-12.12-3.219-13.75-4.262-2.093-3.679-6.749-1.781-12.719 1.31-4.127.383-5.161-1.625-8.906-1.181-2.202-1.533-3.399-1.563-4.813.599-5.699-4.508-5.679-11.656-.094-6.06 10.445-8.142 24.15-11.938 32.813-2.936 6.652-3.402 13.602.094 28.938 6.71 23.441 1.727 27.349-24.656 22.344-19.841-4.88-25.702-26.05-20.19-51.969.892-4.192.648-8.246.25-11.531-2.159-17.841 2.453-34.978 14.906-46.688 20.786-19.545 31.06-22.522 74.03-19.781 16.816 1.189 18.09 2.25 18.09 2.25 0 0 .073-8.092.594-8.156m-309.47 5.375l-5 36.34-40.34 28.469c-18.995-14.998-33.664-10-47.03 6.06-10.589-5.369-31.75-20-31.75-20l-5.406-41.22 58.656 40.688zm-428.78 8.625c5.422-.079 9.859 4.264 9.938 9.688.079 5.424-4.234 9.89-9.656 9.969-5.424.079-9.921-4.233-10-9.656-.079-5.424 4.295-9.921 9.719-10m422.03 37.22l-2.219 35-14.344 10.781-14.438-1.469-3.406-21.688zm-422.28.281c5.424-.079 9.921 4.295 10 9.719.079 5.424-4.295 9.859-9.719 9.938-5.424.079-9.859-4.233-9.938-9.656-.079-5.424 4.233-9.921 9.656-10m39.563 1.094c5.422-.079 9.859 4.233 9.937 9.656.079 5.424-4.234 9.89-9.656 9.969-5.424.079-9.889-4.264-9.969-9.688-.079-5.424 4.264-9.859 9.688-9.938m-78.66 1.875c5.424-.079 9.89 4.264 9.969 9.688.079 5.424-4.233 9.89-9.656 9.969-5.424.079-9.921-4.264-10-9.688-.08-5.424 4.264-9.89 9.688-9.969m730.59 1.594c2.768-.223 6.866 3.881 4.875 10.03-2.667 7.02-.793 9.405 3.656 15.09 3.765 4.813 3.1 5.481 2.531 8.563-.866 20.21 12.151 11.473 6.5 26.16-1.23 3.195.4 7.757.969 11.531-1.271-3.456-25.22-3.139-27.25.375-3.407-.508-7.723-23-4.281-25.969.443-.009 2.937 3.857 4.219 6.03 3.216 5.455 3.908 5.255 2.906-1.063-3.977-25.08-1.595-50.596 5.875-50.75m-612.28 1.75c5.424-.079 9.89 4.264 9.969 9.688.079 5.424-4.264 9.859-9.688 9.938-5.424.079-9.859-4.233-9.937-9.656-.079-5.424 4.233-9.89 9.656-9.969m-159.13 1.813c5.424-.079 9.858 4.264 9.938 9.688.079 5.424-4.233 9.859-9.656 9.938-5.423.079-9.921-4.233-10-9.656-.079-5.424 4.296-9.89 9.719-9.969m385.25 2.844l29.438 19.09c.487 6.02-.291 14.637 1.688 17.563-19.212-1.791-28.937 9.156-28.938 9.156zm-302.12 15.781c32.23.235 63.44 5.372 92.44 14.75l-2.281 10.375c-58-14.928-122.83-15.715-184.78.688l-4.813-10.906c31.21-9.719 62.54-14.479 93-14.875 2.157-.028 4.289-.047 6.438-.031m-182.19 14.09c8.446-.147 17.08 3 23.16 9.813 11.42 12.794 5.924 36.521-10.219 44.06-24.16 11.286-49.32-12.847-39.06-37.719 4.259-10.327 15.265-15.968 26.12-16.16m597.84 3.03l-.375 10.406-7.344-6.125zm-153.72.469c10.65-.155 19.408 8.381 19.563 19.03.155 10.65-8.35 19.408-19 19.563-10.649.155-19.408-8.35-19.563-19-.155-10.65 8.351-19.439 19-19.594m-443.59.625c-2.595.037-6.914 1.097-8.875 2.906-5.14 4.743.023 4.878 6.812 6.125 12.06 2.215 15.378 12.597 14.281 23.813-.997 10.193 2.428 10.03 5.188 6.25 11.236-15.403 1.644-37.849-17.406-39.09m559.59 5.125c-.247.129-.531.313-.531.313.135.114.319-.03.531-.313m-381.06 6.06c14.429-.298 15.942 23.429 3.188 49.938-3.835 7.97-5.792 6.978-10-5.063-10.373-29.678-8.12-44.567 6.813-44.875m33.375.688c2.783-.141 5.479.921 7.688 3.438 7.757 8.843 1.791 23.16-18.875 45.19-5.02 5.356-7.625 7.399-9.469 7.438-5.174.107-5.151-.753.719-19.875 2.589-8.433 5.148-17.691 5.688-20.563 1.723-9.188 8.129-15.316 14.25-15.625m-52.22 21.22c1.41 6.572 3.882 15.706 5.469 20.313 1.584 4.607 2.636 8.989 2.375 9.719-1.275 3.537-10.485-1.272-17.06-8.906-13.244-15.376-18.525-28.75-15.787-35.931 4.02-5.75 14.29-8.303 19.02-3.275 4.887 5.19 5.615 16.315 5.98 18.08m91.28-15.312c13.961 8.233-2.123 27.03-33.406 42.625-13.385 6.673-12.429 3.667-2.281-9.5 3.884-5.04 9.09-13.24 11.625-18.25 5.615-11.08 11.237-22.16 24.06-14.875m-139.37.063c4.432-.036 8.967 4.705 17.375 16.875 3.747 5.424 9.829 13.14 13.531 17.16 3.7 4.02 6.614 8.02 6.469 8.875-1.443 8.533-44.993-18.499-48.12-29.875-1.076-6.938 4.383-13.14 10.75-13.03m623.31 24.75c7.854 16.15 8.53 26.19 2.031 29.844-9.231 5.189-21.1-2.724-21.344-14.219-.08-3.862-4.052-17.338-7.688-26.09-2.994-7.205-3.402-11.652-.941-12.01 9.627 1.541 23.876 14.889 27.941 22.477m-52.12-12.25c-3.039 9.233-6.256 23.646-6.219 27.844.014 1.65-.989 5.03-2.187 7.5-7.975 16.419-26.845 3.03-19.906-14.12 6.259-15.465 22.19-31.564 28.461-32.1 4.293-.365.283 9.525-.149 10.878m12.712-8.863c3.146-.31 5.785 6.566 9.851 18.14 5.492 15.64 5.263 27.839-.656 33.03-12.687 11.131-26-5.03-20.875-25.344 4.099-16.235 8.115-25.48 11.681-25.832m-425.71 2.863c15.794 232.46-103.37 411.3-111.86 416.18l-40.548 22.17-71.13-38.745c73.71-101.06 117.76-216.9 121.1-351.42 68.19 6.62 103.26-47.945 102.44-48.19m390.76.738c4.974-1.364 1.503 2.981-3.431 10.09-5.265 7.592-12.1 28.23-17.52 31.538-12.16 5.845-25.919-5.294-18.542-14.973 6.793-8.913 26.753-23.17 39.493-26.659m72.34 1.574c1.909-.008 5.474 1.251 10.656 3.781 25.318 12.364 37.804 28.672 26.97 36.472-7.607 5.477-15.741 1.228-23.345-13.191-2.581-4.898-7.296-12.167-10.438-16.188-5.698-7.286-7.02-10.862-3.844-10.875m142.34 8.281c16.271-.236 29.639 12.729 29.875 29 .236 16.271-12.761 29.67-29.03 29.906-16.271.236-29.638-12.792-29.875-29.06-.236-16.271 12.76-29.607 29.03-29.844m-8.965 7.648c-19.15 8.482-13.379 38.541 3.121 42.884 6.968 1.95 15.447-.95 11.953-4.302-21.798-6.84-21.939-22.909-13.157-34.669 1.411-1.89-.481-4.548-1.916-3.913m-797.51 41.35c-.744 16.989 2.935 36.689-5.181 55.13-12.297 28.344-51.803 41.3-72.906 38.781-4.396-1.805-9.517-3.516-13.851-1.677-2.622 1.112-5.856.97-8.653-.331-2.698-1.255-5.288.389-7.902-.554-3.059-2.066-8.06-6.758-7.469-10.25.955-4.923.574-8.572-5.188-10.188-7.984-2.238-9.6-6.551-7.25-19.19.508-2.73 1.12-3.966-.656-5.156-5.881-3.941-8.112-11.229-4.25-18.906 2.518-4.423 4.465-7.547-.062-11.06-1.789-4.045-1.475-5.583 2.375-10.75 4.103-4.904 4.819-5.465 2.187-9.656-5.913-9.42.787-16.37 8.75-20.25 10.669-4.376 19.991-6.634 31.25-7.938 4.188.236 4.01 3.919 6.531 7.469 3.708 5.766-1.52 14.11 1.5 17.06 4.362 2.01 6.345 6.03 6 9.469-.152 8 .332 10.743 2.5 14.09 2.401 3.711 3.305 10.527 1.063 15.16-1.997 4.124-1.779 3.845.844 6.277 2.596 2.407 3.874 14.475 2.952 14.244l10.95-1c-1.143 1.219 4.118-22.565 16.599-40.952-.688-14.405-6.176-27.651-5.688-46.674 27.05-9.685 46.587 13.312 45.556 36.847m420.16-32.369c3.906 3.066 23.291 8.462 24 7.844-.607 9.283 5.04 27.318 25.25 33.34.243 25.875.031 145.34.031 145.34-28.15-47.16-45.591-108.04-49.28-186.53m-470.81 4.219c0 0 1.073 3.442 2.063 10.09 1.728 13.59-.136 15.446-3.75 6.156-4.232-10.878-4.451-2.403.313 22.5 1.153 6.03 1.109 7.431-.375 11.5-.928 2.55-2.583 8.478-3.875 13.12-3.807 13.671-6.03 17.6-9.938 6.719-1.992-5.548-3.659-6.413-2.237-10.756 1.778-5.438 1.35-9.514-2.232-14.806-.585-.865-1.871-2.846-2.094-8.469 1.101-12.624-4.519-12.743-5.624-16.01.188-4.939-2.119-16.909 1.28-16.587 2.799.265 12.925.545 17.719-1.219 2.124-.782 8.75-2.25 8.75-2.25m419.56 1.563c10.453-.152 19.04 8.203 19.19 18.656.152 10.453-8.203 19.04-18.656 19.19-10.453.152-19.07-8.172-19.219-18.625-.152-10.453 8.235-19.07 18.688-19.219m-292.25 11.531l14.344 2.719c3.196 1.065.866 198.83-113.94 341.56l-1-33.06c54.628-79.06 93.97-176.02 100.59-311.22m243.22 4.156l2.625 47.25c-8.08-6.868-28.589-19.725-28.438-20l.094-17.469c.019.036 17.63 1.351 25.719-9.781m-110.56.656c3.459 1.456 6.475 4.803 9.438 7.219l-9.375 6.313zm328.62 2.375c61.931 18.369 122.92 17.838 183.22 4.406l4.125 11.563c-65.43 17.736-130.45 16.712-195.06-3.906zm-299.94 8.844l3.312 20.375-34.949 22.622 1.699-30.934 18.219-11.813zm309.41 16.969c5.646-.082 10.293 4.446 10.375 10.09.082 5.648-4.448 10.293-10.09 10.375-5.648.082-10.262-4.446-10.344-10.09-.082-5.648 4.414-10.293 10.06-10.375m159.12.844c5.648-.082 10.293 4.446 10.375 10.09.083 5.648-4.446 10.293-10.09 10.375-5.648.082-10.262-4.446-10.344-10.09-.083-5.648 4.414-10.293 10.06-10.375m-298.03 31.789c4.58 16.14 3.582 52.623-2.313 77.37-1.77 7.43-2.844 33.805-2.844 33.805-1.094 1.38 35.08-29.935 46.71 11.132 3.999 14.12-12.253 27.506-23.13 23.588-2.118-.763-1.479-7.755.546-11.869 6.03-12.28-11.168-18.664-20.969-7.781-22.644 25.15.655 88.82 36.16 95 29.472 5.134 53.1-24.2 33.438-41.688-8.601-7.646-22.36 2.893-16.06 12.625 6.727 10.398-5.66 14.545-15.03 4.906-16.34-16.806 2.01-42.1 26.687-36.25 39.456 8.971 31.34 70.65-10.03 74.12-31.635 2.656-52.934-11.125-66.31-35.563-12.567-23.482-13.501-42.2-7.75-83.37 3.416-24.447.606-45.05-6.188-44.906-3.726.077-6.63 1.873-7.219 6.25-1.204 8.955-2.233 10.628-7.844 7.375-7.125-4.13-11.08-17.435.563-26.438 11.94-9.229 27.413 5.174 26.781 7.656.288-.457 1.49-2.797 3.094-13.281 5.217-34.11-6.372-70.15-20.688-64.37-3.142 1.267-2.764 2.688 1.344 5 9.537 5.364 1.133 19.11-10.844 17.719-16.96-1.969-20.815-25.629-5.875-36.09 23.533-12.687 42.705 7.178 47.781 25.07m-115.78-28.414c0 0 30.09 18.35 31.688 23.06 1.025 3.02 2.25 29.344 2.25 29.344l-52.22-32.688-74.863 46.28c1.225-10.159 6.613-36.31 6.613-36.31l39.813-25.19c.197 1.517 27.539 19.564 46.719-4.5m373.84 1.75c5.648-.082 10.293 4.446 10.375 10.09.082 5.648-4.414 10.293-10.06 10.375-5.646.082-10.293-4.414-10.375-10.06-.082-5.648 4.416-10.324 10.06-10.406m-79.69.156c5.646-.082 10.322 4.414 10.406 10.06.082 5.648-4.479 10.324-10.125 10.406-5.648.082-10.262-4.446-10.344-10.09-.082-5.648 4.414-10.293 10.06-10.375m40.06 2.313c5.648-.082 10.324 4.446 10.406 10.09.082 5.648-4.446 10.293-10.09 10.375-5.648.082-10.291-4.446-10.375-10.09-.082-5.648 4.414-10.293 10.06-10.375m-100.31 14.5c27.11 5.642 54.29 11.44 80.28 14.281l1.063 79.78-7.594-.438-1.094-71.28c-25.11-1.797-48.791-7.186-71.03-12.938zm201.59 2.594l-1.406 9.375c0 0-46.907 8.119-71.41 11.281-.391 16.06-.344 69.72-.344 69.72l-9.375 1.719-.031-81.22c27.816-3.02 55.6-6.151 82.56-10.875m-453.88 4.5l55.22 36.5 6.5 38.688-64.37-42.781c0 0-58.35 39.28-80.19 53.844l6.656-36.469zm254.91 7.219c22.23 4.704 44.46 9.592 66.69 11.5l.938 64.19-10.219-2.719-.813-52.09c-17.361-1.503-35.19-4.867-53.12-8.656zm196.66 1.906l-1.875 8.719c0 0-35.58 5.363-53.938 8.656-1.625.373-1.031 56.5-1.031 56.5l-8.781 1.344-1.031-65.53zm-99.66 7.188c5.648-.082 10.26 4.446 10.344 10.09.082 5.648-4.414 10.293-10.06 10.375-5.648.082-10.291-4.414-10.375-10.06-.082-5.648 4.446-10.324 10.09-10.406m-352.75 23.16l65.28 44.06c0 0 7.568 22.948 9.188 35.656l-75.12-48.5-94 62.31 10.875-38.5zm-395.69 1.344c3.872.052 7.737 2.642 9.75 8.594 2.834 8.376 8.12 10.851 22.03 10.594 27.312-1.457 55.94-14.29 81.72-4.656 12.529 4.616 16.991 23.09 6.5 27.906-11.387 5.222-16.24 1.941-20.19-7-3.648-3.801-8.181-3.206-32.656 1-10.797 1.751-23.484 3.324-34.16 4.188-27.29 2.205-42.35-6.392-45.75-22.625-2.17-10.38 6.297-18.09 12.75-18m747.87 14.906c5.648-.082 10.291 4.414 10.375 10.06.082 5.648-4.446 10.324-10.09 10.406-5.648.082-10.293-4.446-10.375-10.09-.082-5.648 4.446-10.293 10.09-10.375m-200 12.469c7.346-.107 13.393 5.778 13.5 13.12.107 7.347-5.779 13.393-13.12 13.5-7.347.107-13.362-5.778-13.469-13.12-.107-7.347 5.747-13.393 13.09-13.5m-152.09 9.313c0 0 53.723 35.891 78.59 52.47l13.75 39.5-91.5-59.5-111.96 72.841 13.43-40.623zm387.87 12.344c4.874 13.13 13.713 23.12 23.06 33.28 0 0-5.207 9.865-23.781 9.281-10.147-.319-10.69 1.274-14.156 8.156-5.691 8.72-10.322 14.418-14 17.25-6.505 5.01-18.699-2.474-28.75-17.688-3.662-5.543-5.179-6.853-16.219-6.625-16.951.35-23.09-4.351-14.281-11.969 7.677-9.353 13.194-19.637 20.06-29.469l7.625.875c.323 1.132-5.927 20.01-14.719 27.688-4.462 5.04 1.785 6.864 12.688 4.563 6.916-2.082 8.689-1.266 13.812 9.313 10.673 20.18 16.22 19.2 28.875-1.25 4.42-9.13 4.252-10.04 16.406-7.406 13.05 1.314 16.985-.325 11.625-4.875-10.835-9.194-16.813-30.875-16.813-30.875zm-387.41 27.03c0 0 97.16 63.63 96.91 62.25l19.469 45.875-114.03-75.844-139.31 90.59 20.844-45.41zm3.75 41.781l33.875 22.281-.094 40.09-34.594-23.25zm-8.687 1.156l.625 39.563-30.375 18.09-1.688-37.12zm-38.531 25.5l-.281 1.531.719.375.25.031 1.094 35.656-34.938 24.22.125-40.28zm89.47.438l31.844 21.25 1.313 42.44-34.563-22.625zm39.31 25.906l31.937 22.19 1.125 42.37-32.625-21.969zm-169.03.156l-.156 39.16-31.781 22.19-1.5-40zm336.12 50.53c-6.307 6.574-8.635 5.759-14.03-5.094-5.602-11.261-14.01-16.525-26.19-16.313-15.365.268-5.32-9.808 10.969-11 28.16-1.24 42.46 17.655 29.25 32.406m-376.72-22.969l.844 39.28-31.625 16.438-.969-18.625 16.281-28.469zm-40.781 52.5l1.094 7.156-5.844 2.25zm545.31 98.37c-.083-.0001-.118.022-.125.125h.375c-.096-.064-.191-.118-.25-.125m.25.125c4.083 2.692 40.461 55.44 43 112.44 1.411 15.1-5.119 17.977-8.375 3.625-5.297-23.362-19.971-43.792-39.03-54.41-96.28-35.678-137.4 85.15-73.938 134 22.594 16.351 66.15 14.495 81.47-8.094 4.761-7.02 9.578-6.343 10.188-1.906.302 2.207-.806 3.724-6.688 9-23.802 21.354-38.02 51.577-30.469 73.69 10.03 29.351 37.428 49.67 69.03 54.31 33.914 4.982 69.17-18.89 79.56-49.906 9.525-28.439 1.144-52.43-25.25-76.37-12.411-11.259-13.04-12.164-10.469-14.844 2.501-2.606 4.133-1.965 10.281 3.969 18.968 18.317 54.33 28.18 77.62 17.406 37.3-17.232 53.34-75.32 27.813-113.34-15.438-30.919-57.53-42.43-92.72-25.344-18.741 9.101-35.24 30.368-40.16 51.687-2.207 9.583-7.714 11.315-8.531 2.688 2.59-34.689 7.467-57.39 45.531-118.5zm320.44 59.53c0 0 13.872 28.64 15.938 43.719 1.52 11.09 1.747 15.593-1.281 15.656-.965.024-3.363-5.341-4.281-9.531-7.442-34.35-57.33-33.81-64.56.531-7.351 34.898 24.22 59.62 51.781 37.906 11.334-7.791 11.882-4.212.656 7.156-21.608 21.623-12.09 51.876 15.09 59.937 36.957 10.961 59.702-34.09 28.344-62.719-4.01-4.129-7.636-8.219-7.656-9.09-.045-2.2 2.687-2.382 4.844-.094 17.985 18.876 54.22 13.05 59.781-11.156 10.423-45.39-48.18-64.775-64.31-24.22-3.944 10.114-3.343 11.51-5.375 9.563-1.136-1.091-.815-5.286.438-10.969 2.535-11.495 18.937-46.34 18.937-46.34zm-485.41 125.09c-133.09 28.474-260.68 18.414-352.25 1.469l-41.844 71.5-2.875-.125-10.781 18.5 1.156 2.125c0 0-34.766 66.71-49.41 87.75 171.04-1.648 546.47-2.469 546.47-2.469l-22.875-46 1.25-1.25-22.594-48.03-7.344-8.313c0 0-4.485-8.68-7.844-18-3.089-8.578-16.344-32.06-16.344-32.06l-1.875.156zm-347.44 10.06c1.764 1.399 170.47 33.19 345.34.531l9.563 16c-153.05 35.22-374.49 1.577-365.75-1.688zm2.906 31.469c15.427-.551 31.06 7.737 41.594 21.563 3.353 4.399 8.844 17.375 8.844 17.375 0 0 7.383-12.225 14.625-18.344 10.953-9.255 25.16-16.982 45.719-16.25 18.925.674 39.762 10.919 58.56 40.531 4.745-17.09 66.933-75.14 118.16-2.75 5.858-19.236 33.27-57.658 77.66-30.812 3.03 6.488 6.156 13.625 6.156 13.625-26.2-18.345-69.38-6.04-79.59 22.594-.916 3.487.243 5.301 1.594 8.688 13.499 19.294-21.625 18.831-11.219 3.219 1.946-3.549 2.106-6.471-1-11.125-8.237-12.343-33.03-27.706-51.22-27.313-21.01.457-44.29 14.397-52.06 27.06-2.869 4.673-3.522 9.352-1 13.437 1.831 4.119 1.204 7.567-1.875 10.09-7.236 5.936-16.324-.911-12.844-9.688 2.29-3.867 1.937-8.607-2.75-15.188-9.414-13.217-31.382-27.14-50.5-26.75-27.362.632-55 20.337-53.25 36.563.77 7.132-1.181 9.79-7 8.969-7.08-.998-7.88-7.681-2.875-13.12.742-1.744 1.941-5.972-.344-9.06-28.892-39.07-72.15-27.685-82.06-18.938 9.629-16.509 23.08-23.889 36.688-24.375m-25.719 27.13c10.842.089 22.519 8.286 26.22 14.688 2.679-2.774 27.2-14.472 39.12 2.25-31.22-2.351-31.603 30.778-8.531 33.969-10.521 31.962 36.645 33.893 33.656 3.875 35.24 5.208 30.893-39.465-2.281-34.75 17.379-12.656 29.21-8.57 50.09 5.938 7.02-9.141 35.654-17.686 42.688-1.719-32.819-2.025-27.23 35.982-2.719 36.31-7.282 26.339 40.935 36.03 33.5-3.313 30.605 2.145 26.17-39.2-3.156-35.781 2.173-7.523 31.94-10.775 45.09 3.594 12.09-11.03 25.43-18.589 49.53-2.813-32.862-5.477-33.27 37.18-2.75 34.625-2.848 28.25 40.3 28.727 33.09-3.906 32.853-8.867 14.788-44.03-9.344-34.34 10.742-12.769 28.983-6.747 36.22-4.156 22.361-25.593 41.844-4.188 41.844-4.188-38.916-4.064-30.452 51.4 7.469 31.28-.038 11.411 4.861 21.292 20.344 22.906l18.406 38.09-521.59 3.437 28.779-50.616c2.909.916 19.541 2.428 23.12-17.07 34.28 10.873 36.575-29.04 10.969-35.34 3.103-2.142 6.605-2.998 10.219-2.969m807.53 4.719v19.344h15.281l43.531 97.69-41.688 68.22h-16.06v17.313h60.813v-17.313h-20.25l55.75-80.44v80.44h-16.75v17.313h55.53v-16.875h-18.25v-166.34h18.25v-19.344h-55.53v19.344h16.75v49.12l-23.688 30.5-35.5-79.62h23.688v-19.344zm-827.87 9.719c3.408 5.475.554 9.04-5.313 9.187 0 0 3.816-5.543 5.313-9.187m429.09 7.06l3.375 7.094c-3.652-1.48-4.101-3.045-3.375-7.094"/>
  </g>
 </g>
</svg>
