<svg xmlns="http://www.w3.org/2000/svg" viewBox="0 0 744.09 1052.36">
 <g transform="translate(-735.7 486.83)">
  <rect y="-116.56" x="996.13" height="311.81" width="223.23" rx="10.63" fill="#fff" stroke="#000" stroke-width=".997"/>
  <g transform="matrix(.15443.00273-.00273.15443 761.15-103.54)">
   <path d="m1122 32.375c.55 512.28 5.999 1141.83 6.375 1699.78l1059.94-.25-7.06-1697.06zm313.31 10.875c182.87 4.963 366.87-.404 551.09 1.031 0 0-66.932 116.59-87.22 153.28-4.441 8.07-4.893 13.779-2.5 17.12 3.703 5.177 3.398 13.935-.75 19-1.777 2.17-2.584 3.576-2.719 4.875-.134 1.296 1.029 2.716 1.969 5.063 3.276 11.177-5.179 18.912-14.03 22.5-5.937 2.406-19.15 3.994-28.906 3.531-61.13-2.901-181.03-54.57-230.44-58.59-34.28-9.571-78.58-6.225-115.09-4.156-6.894.414-5.688-15.656-5.688-15.656-5.754-53.08-43.35-99.29-65.719-148m561.03 4.844l172.81.188.781 27.906-72.72 74.53c-6.847 6.971-12.25 12.75-12.25 12.75l-.438 67.25c-49.57-26.635-59.45-58.46-68.5-93.47-82.86 61.13-86.74 194.91 3.719 263.78.74-29.916 23.537-88.7 63.938-93.06l.563 233.03-49.688-48.531-108.03 1.406c17.808-28.898 18.212-51.849 6.688-78.938-19.424-44.26-49.39-145.28-47.09-144.94 0 0 .86-2.172 3.313-2.719 8.955-1.996 14.65-10.64 12.09-21.03-.485-3.346-.468-2.56 1.813-6.906 8.79-14.999-1.688-31.28-1.688-31.28zm-573.16 1.406l64.844 117.22c0 0-.846 5.375-.5 8.531.509 4.54 2.027 8.58 4.625 12.813 1.719 2.8 2.986 6.624 3.375 10.156.64 5.818.643 5.822 9.156 13.5 1.789 1.613 2.132 2.606 1.469 4.281-2.818 7.121-1.167 21.679 4.406 39.06 7.04 21.954 8.857 21.667-4.25 51.03-2.734 6.133-6.04 14.318-9.594 21.844-16.184 33.24-18.68 42.25 9.09 59.969 7.82 4.988 10.11 9.314 8.156 19.25-1.537 7.816-1.85 12.811 1.906 17.219 2.435 2.857 4.642 3.327 4.03 5.531-.416 1.5-2.232 8-1.625 13.469 1.635 14.73-15.38 36.428-30.906 44.03-3.106 2.203-3.993-.486-5.75-3.563-16.08-28.17-56.12-16.754-58.781 16.844-.703 8.884-.427 12.736-2.719 14.625-.777.64-3.125 1.969-3.125 1.969 0 0-59.918 38.969-98.03 59-2.485 1.306-4.715 3.46-6.469 3.813-2.025.407-3.529.042-4.781-1.219-14.07-26.756-6.269-58.36-5.063-69.56-.303-3.969-3.696-4.69-8.812-4.75-8.664-.101-21.13 8.687-23.844 16.875-2.305 6.962-3.784 11.468-5.875 11.438-2.101-.031-3.125-2.839-8.344-12.875-10.859-20.882-12.536-23.528-22.687-35.656-8.097-9.674-15-10.957-22.938-3.75-5.517 5.01-5.335.656-10.03-1.875-8.106-5.517-20.293-.578-20.594 7.188-.252 6.516-.308 11.414-6.906 11.844-7.349.479-10.538 9.968-8.469 23.5 1.089 7.122 1.303 8.266-.875 10.875-7.107 8.513-8.04 14.394-4.125 26.28 11.146 33.882 27.29 56.69 42.469 87.5 0 0-38.554 21.878-61.44 34.594l-.594-630.41zm749.22 33.5l.906 547.62-82.75-81.34c0 0-1.612-104.94-1.531-147.84.082-42.903.704-85.8.531-93.78-.173-7.978.429-41.928.688-76.78.542-73.02-6.139-63.991 7.438-78zm-161.72 65.66l4.563 13.219c-34.678 19.879-77.1 130.59.781 211.87l-1.562 16.75c-81.63-74.04-66.53-180.23-3.781-241.84m5.938 15.625c11.901 24.562 25.444 46.31 43.906 59.62-9.942 23.732-14.219 49.912 2.625 85.22-11.814 6.483-28.23 23.688-45.22 58.938-61.46-62.08-47.778-152.1-1.313-203.78m-457.22 46.41c34.08.056 69.63 5.617 102.22 15.438 20.554 103.9 56.652 173.75 56.5 214.44 0 0-2.845-.477-8.906-4.844-14.847-10.719-34.34-4.738-44.781 8.906-9.896 12.934.07 30.924-5 38.469-9.599 14.07-34.3 40.08-38.438 39.22-3.01-.626-2.525-1.942 8.06-18.19 11.03-16.92 19.482-32.25 15.844-36-1.544-1.59-2.364 1.77-10.594 16.06-19.316 33.547-36.3 54.29-43.03 51.594-3.149-1.262-1.521-4.04 12.781-22.938 16.15-21.34 20.635-34.688 19.03-40.594-1.233-4.538-3.732 2.796-10.438 15.906-7.144 13.876-20.06 29.339-30.5 44.19-3.311 5.374-7.559 8.486-13 10.938-4.03 1.747-10.459 4.603-14.187 4.125-1.916-.245-.594-1.372 2.031-3.938 20.605-21.22 38.32-44.881 48.37-67.59 1.553-2.979-.673-7.22-3.219-4.094-15.417 27.13-36.881 60.974-60.19 75.906-5 3.2-12.527 5.914-19.313 5.344-11.472-.329-7.416-2.882 3.03-9.594 22.363-14.367 53.744-55.671 58.813-70.28 1.198-3.453-.136-5.426-2.344-5.188-18.4 29.435-42.709 61.824-70.969 75.37-15.229 7.304-34.431 8.743-43.875 4.125-6.92-3.384-5.185-4.549 7.094-5.344 29.549-2.914 64.17-30.65 81.31-60 10.04-16.25 2.994-12.518-8.469 3.156-19.565 26.754-58.41 52.4-82.5 50.37-24.361-1.442-38.38-20.32-35.25-36.5 1.894-9.789 8.845-19.766 22.469-22.625 23.332-4.897 38.604 32.06 17.25 39.03-7.273 2.374-10.04.574-7.406-2.344 15.84-6.932 8.799-25.962-4.563-27.906-8.407-1.223-18.15 4.438-18.563 17.469.244 9.714 8.24 19.211 24.281 19.438 19.02.269 48.2-13.421 65.906-38.625 12.566-19.263.993-12.759-8.375.094-8.266 11.341-34.965 27.21-37 26.625l.906-13.06c.407 2.257 41.1-25.606 38.719-46.34-1.526-15.05.673-19.656 16.344-19.469 11.715.14 26.61 4.25 30.937 9.625 4.463 5.317 9.463 6.996 7.25-1.969-3.591-14.549.71-16.947-7.719-14.188-5.816 1.904-10.98-2.765-16.813-6.906-6.417-4.555-14.533-6.504-24.22-6.156-7.235.26-10.499-.175-9.344-7 .815-4.814 1.738-9.189.344-12.344-2.267-5.13-11.327-10.43-21.562-17.969-12.09-8.901-9.848-9.425 15.906-68.781 10.813-24.922 10.859-30.04 4.375-48.44-10.246-29.08-11.856-40.721 7.344-44.781 10.869-1.247 22.08-1.863 33.437-1.844m109.03 16.844l9.969 2.844c.075.009 31.13 106.27 48.906 158.16 5.425 15.83 9.557 37.22 10.594 57.31-.488 27.665-16.07 47.52-35.06 49.688-13.448 1.537-28.04-5.439-34.719-20.406-5.636-14.233-1.388-31.02 14.844-36.813 28.1-10.03 48.678 25.835 21.12 36.875-14.252 5.711-27.796-4.582-21.375-16.563 4.501-8.399 17.16-7.488 20.16 1.188 2.44 9.234 6.478 4.879 4.75-1.375-5.225-19.922-30.821-15.228-32.875 3.125 0 22.74 24.898 28.08 39.75 15.313 11.507-10.207 12.717-28.652 9.844-44.656-3.951-33.24-22.768-76.36-36.12-125.56-6.669-24.569-16.331-53.862-19.781-79.12m396.66 1.188l18.719 7.406-.438 61.688-15.875 5.469c-20.773-31.739-3.497-74.53-2.406-74.56m-379.41 4l13.719 5.281c7.514 43.544 42.937 126.78 55.44 188.91 3.483 37.34 4.04 48.29-21.25 68.19v-.281h-13.688c0 0-.049-.835 5.938-5.313 33.12-24.771 13.353-79.36.844-121.31-21.795-67-41.27-135.55-41-135.47m-128.22 4.344c-1.738.021-3.502.092-5.281.188-20.692 1.111-24.09 2.437-24.16 6.938-.124 8.476 3.349 12.236 22.594 10.156 16.656-1.8 40.783.784 57.41 7.938 18.963 8.16 23.466 10.09 30.28 13.594 17.11 8.808 14.12.045-1.344-10.125-31.593-20.776-53.43-29-79.5-28.688m149.28 3l12.875 4.906c0 0 3.404 10.04 4.625 15.781 12.529 55.59 46.606 118.1 50.594 183.12.9 21.308-2.754 41.17-18.375 50.781h-11.781c12.595-12.527 20.989-16.15 17.469-59.688-5.574-55.921-42.46-125.8-55.41-194.91m22.844 9.03l11.875 4.375c13.674 75.07 81.47 187.23 38.31 241.34h-10.781c9.628-15.02 13.6-28.21 12.156-48.47-4.196-68.21-38.991-134.41-51.562-197.25m19.906 6.906l12.781 3.906c17.352 76.05 84.03 200.69 36.5 235.16l-9.375-.25c35.815-66.949-18.478-136.23-39.906-238.81m22.281 7.094c3.925 2.183 9.535 3.228 13.813 4.469 13.45 57.51 38.03 114.06 49.22 167.62 3.766 29.324-2.669 51.28-21.09 59.62h-3.938c16.534-24.961 13.416-56.45 4.594-90.47-11.864-45.756-34.912-96.1-42.594-141.25m-201.37 1c-5.938-.056-12.149.845-18.719 2.938-6.728 2.543-5.901 7.847.344 6.75 2.117-.372 5.862-1.036 8.344-1.469 15.332-2.673 34.23 2.852 57.12 16.719 5.53 3.349 11.54 6.575 13.03 7.688 4.207 3.139 8.696 3.126 7.156-.875-.616-1.602-9.443-8.442-17.25-12.813-16.697-10.09-32.22-18.769-50.03-18.938m223.09 5l12.875 1.969c24.22 111.3 77.38 180.45 31.906 221.75h-11.375c12.441-12.708 18.06-32.605 13.938-56.12-4.21-24.01-16.617-62.12-26.906-95.62-11.928-38.846-21.531-71.7-20.438-71.969m18.469 3.125l10.906 2.031c12.777 45.24 34.471 101.32 47.531 148.03 8.03 28.726 4.805 64.11-13.12 70.62l-9.219.156c15.218-20.334 17.389-41.515 10.438-68.906-14.269-56.22-35.868-105.29-46.531-151.94m67.31.063c11.02 46.9 37.465 118.45 46.969 143.16 12.643 25.23 8.851 62.59-10.156 77.37l-9 .188c10.872-10.166 14.606-27.29 12.875-45.03-4.892-50.15-40.39-119.7-53.25-173.12zm-47.844 2.219l11.25 1.031c11.266 49.06 33.18 96.74 47.41 145.81 2.65 11.08 4.959 24.605 4.03 34.563-1.945 20.877-10.593 37.34-18.19 37.34h-7.75c15.829-18.861 15.06-44.577 8.281-72.22-11.198-45.684-38.28-100.77-45.03-146.53m-292.91.25c-4.688.024-4.77 4.316 2.719 10.875 4.582 4.01 4.229 2.674 3.969 5.219-1.114 10.865.595 20.81 5.062 9.625 1.193-2.987 2.939-6.356 4.688-5.938 3.302 1.019 1.625 7.087 3.219 10.156 2.694 5.413-.169 6.737-6.719 5.063-4.714-1.205-4.981 1.347-7.906 4.594-5.122 5.685-4.287 9.08 3.594 7.313 1.3-.291 2.399.081 3.406.313 2.458.565 4.706 2.124 10.563 6.594 7.524 5.742 18.18 13.393 25.09 14.563 11.07 1.873 8.602-3.431-.469-6.906-7.771-2.977-17.409-11.244-17.375-13.531.021-1.757 2.466-.715 16.469-4.563 6.075-1.669 14.619-5.404 18.219-7.06 5.944-2.738 6.225-2.715 15.531-2.438 15.85.473 18.269-.068 7.156-8.313-22.457-16.661-52.42-27.507-68.31-20.594-4.818 2.096-4.705.812-8.188-1.188-4.551-2.613-8.263-3.794-10.719-3.781m321.44 1.5c15.566 59.962 45.676 113.69 53 170.56 1.657 16.269-1.073 32.16-14.594 45.906l-9.125.156c-1.337.022 12.739-21.745 11.531-40.37.366-9.939-.731-20.6-3.562-31.12-17.687-50.567-35.1-96.4-48.625-144.59zm-281.09 19.688c.088-.011.169-.013.25 0 4.246.666 4.391 2.355 3.156 4.563-1.831 3.273-5.062 9.563-5.062 9.563 0 0-4.305.846-5.188-.25-1.551-2.253 4.126-13.543 6.844-13.875m10.781 1.938c.472-.007 1.054.234 1.969.594 4.076 1.61 11.15 4.914 8.094 7.469-3.621 3.03-17.651 4.387-16.969 3.125l4.688-8.656c.994-1.84 1.433-2.52 2.219-2.531m-42.969 52.41c-.363.021-.669.108-.906.25-.814.487 1.029 3.746 3.719 7.438 12.413 16.748-4.771 21.714-16.938 12.75-11.551-8.982-29.386-8.136-26.813 1.281.907 3.32.022 4.936 6.469 5.03 5.73.084 7.209.404 12.375 3.938 19.755 13.512 45.28-4.576 32.812-23.969-2.354-3.661-8.178-6.863-10.719-6.719m48.75 26.16c-7.174 0-11.702 5.351-2.718 6.953 32.09 5.762 10.569 39.03-12.06 21.891-20.395-18.409-47.674-18.281-48-5.219-.048 3.288.104 3.399 4.938 4.313 11.367 2.147 28.344 7.317 34.844 10.594 3.822 1.927 7.842 3.727 8.938 4 13.592 4.939 31.02-1.48 34.473-12.927 3.157-10.476.607-29.604-20.411-29.604m-402.53 107.06c4.297.051 8.865 3.81 12.12 9.313 7.533 12.714 16.689 34.09 22.531 45.875 1.473 2.97 1.53 5.621 1.438 7.03.459 6.907 2.776 9.517 6.875 6.406 4.03-3.059 9.625-8.178 3.063-9-6.597-4.971-10.273-12.273-6.188-16.719 3.01-3.272 1.831-5.398-.594-5.531-9.246-.136-23.03-27.638-16.531-33.563 8.764-7.994 18.46 1.908 39.09 42.844 9.09 18.08 9.514 37.863 1.719 28.06-2.649-2.47-2.112-1.191-5.219 6.594-2.335 5.852-4.253 8.627-13.156 17.188-10.842 10.425-17.413 18.663-17.656 20.469-.465 3.453 5.857.231 10.469-5.781 10.302-10.06 10.687-12.746 10.594.594-.084 12.06-.705 14.269 1.469 14.188 3.387-.127 5.199-9.672 6.781-21.19 1.889-10.373 7.278-15.605 16.25-21.375 2.463-1.584 2.505-2.677 2.031-7.25-1.657-14.653 6.676-41.975 10.469-35.22.535 1.521 2.182 5.074 3.062 7.563.709 3.856 3.137 8.208 6.844 8.5 4.607 3.448 4.591 5.312 6.188 17.938.522 4.122 2.345 10.306 3.625 13.594 2.383 6.12 4.513 9.705 3.188 11.531-.842.899-2.625 2.594-2.625 2.594l-75.12 44.531c0 0-5.898 3.261-8.03 4.156-5.954 2.688-9.572.701-12.5-3.75-15.919-23.708-26.847-50.34-38.03-74.906-6.715-14.581-.143-24.22 8.531-12.469 3.371 4.569 1.647 7.482-.031 16.313-.304 1.597 1.181.987 3.969 1.438 4.388-.471 6.505 3.446 6.344 10.09-2.771 9.525 1.061 4.381 2.875 3.906 3.472.051 4.242 2.138 6.188 6.094 1.215 5.578 3.668 3.962 7.25.281 2.96-3.042 2.97-2.968-3-10.09-10.312-11.172-24.611-36.39-28.313-51.75-1.021-4.236-.649-7.62.125-9.875 4.659-10.49 11.146-10.526 18.219 4.125 1.204 2.493 3.572 6.511 5.25 8.938 2.72 3.932 4.405 7.308 4.312 13.563-2.091 5.24-2.431 5.346-.625 6.06 4.484 1.773 12.454 9.875 12.813 17.12.364 7.365 1.611 11.276 7.406 6.906 6.608-4.982 3.794-6.986-2.719-13.375-6.826-8.124-7.237-15.168-3.187-21.03.662-1.968.382-2.524-2.125-2.281-7.928.767-15.636-9.272-10.125-16.906 2.536-4.473 2.239-5.626-1.344-5.75-1.867-.065-4.949.292-6.469-.563-2.343-4.394-7.238-10.535-7.187-15.563 2.312-7.07 5.896-9.92 9.687-9.875m470.84.375c13.03 7.987 25.924 16.302 40.563 20.09-33.913 61.08-88.45 93.81-134.09 106.59 1.553 7.818 2.655 15.609 10.219 20.406-.257-1.181-3.61-15.05-2.875-17.906 62.874-16.05 118.22-77.65 132.37-109.41l276.31-3c-204.84 196.5-213 473.05-45.875 704.84l-19.219 11.219c-128.78-192.9-127.47-378.76-88.84-503.22 27.387-88.25 76.53-155.66 113.87-194.19 0 0-149.81-2.059-224.37.688-10.832 16.572-20.907 30.11-35.469 45.75 0 0 37.885-36.586 36.906-42.938 69.1-.037 140.36-4.03 209.37.781-80.76 96.65-120.56 196.42-127.47 290.28-.257 12.208-.994 5.387-5.03 9.875l-12.75 19.781-10.219-20.563c-6.946-2.244-20.608 1.376-26.406-.719-28.411 126.75.3 279.73 37.688 379.56 0 0-9.387 5.258-20.938 4.375-12.643-2.807-15.734.682-26.688 2.906-12.595 2.396-16.991 2.38-19.781 5.562-1.551 1.77-4.356 4.242-7.531 5.969-30.683 11.146-66.69 52.938-66.69 52.34l-33.781-15.16c31.13-61.13 67.66-83.12 131.87-110.25l-5.969-27.313c-68.4 25.479-111.92 55.982-146.25 115.25-41.65-.591-210.36-1.778-210.53-1.25 68.815-78.25 123.07-196.29 129-288.31 1.455-17.924-1.052-9.308 6.875-14.656l12.469-14.844 9.781 14.625c0 0 7.083 9.02 11.563 1.5 12.55-128.33-.726-274.66-62.56-376.66 10.971-.724 21.898-1.028 32.406 5.188 24.19 54.771 38.439 122.44 44.625 173.16 7.829 64.2 6.724 136.61-1.25 198.09l4.125.563c12.05-79.911 7.969-164.9-3.094-239.19-5.678-38.754-23.962-99.36-36.531-127.34-3.473-7.731-6.168-9.73-2.875-10.875 75.36-6.341 109.99-31.484 137.06-71.62m-208.94 6.75c5.764 0 10.438 4.673 10.438 10.438 0 5.764-4.673 10.438-10.438 10.438-5.764 0-10.438-4.673-10.438-10.438 0-5.764 4.673-10.438 10.438-10.438m566.37 5.313c-22.06 19.969-39.786 40.663-58.41 62.719 55.11 75.78 116.35 157.93 167.84 223.56 0 0 17.823-10.56 17.75-11.875-.038-.693-1.425-4.183-1.75-3.406-.764 1.823-14.438 9.469-14.438 9.469l-162.97-213.87c0 0 8.832-10.577 11.562-13.906 12.664-4.163 47.897-47.804 49.625-46.906 27.608 21.15 110.87 110.8 142.94 138.28l.406 248.84c-3.319 9.956-92.09 48.32-154.78 191.47-31.526 17.665-66.46 27.17-98.94 42.531 0 0 8.268 13 12.313 16.562-4.963-10.723-5.84-12.77 5.406-17.344l234.59-95.62-.438 19.313-3.812 33.34c-63.843 39.37-117.72 55.869-205.59 115.25-6.276 1.46-11.328 7.487-17.938 7.812-224.47-330.58-80.975-579.65 49.844-704.78zm-730.97 16.906c6.125.101 4.577 14.308 2.312 19.219-4.523 3.554-9.04.397-8.937-6.25.028-2.167-.393-4.215-.938-4.563-3.394-2.167 2.286-8.484 7.563-8.406m137.09 8.875c5.157 3.914 7.07 9.128 8.969 14.344-6.958-1.093-25.582-6.433-16.844-10.594zm-33.906 18.469c161.89 244.84 154.65 504.88-26.03 702l228.59-.344c29.1-57.42 77.57-92.41 139.59-113.97l5.406 18.03c-71.28 22.884-107.35 60.817-136.03 113.37h-272.62c104.74-112.7 152.73-207.9 160.28-336.69 7.192-122.65-24.01-234.66-118.78-369.44zm45.625 2.813l38.19 18.03-5.656 39.19-40-18.438zm-68.844 11c204.18 308.87 116.61 526.13-46.41 706.94l-30.03.5-70-65.03 1.281 395.16c0 0-68.25 66.859-76.09 74.875-7.748 7.459-13.563-4-13.563-4l.188-523.84 3.03-20.531.937-112.87 43.5-22.938 163.12 213.81c0 0-6.553 9.659-9.594 11.375-1.978 1.117-.53 3.03 1.125 2.813 4.58-.601 17.652-15.215 14.906-17.563-59.17-73.31-169.19-216.84-169.19-216.84l-45.812 23.906c0 0 1.327-93.71.5-129.69 1.759-8.486 8.121-6.212 12.406-10 52.755-33.906 89.93-75.29 112.87-115.44 1.686-3 11.841-21.02 12.844-22.656 3.578-5.833 12.456-24.07 17.625-35.719 2.889-6.511 5.961-14.398 7.125-15.344 31.742-10.335 65.06-25.01 96.94-38.19l-45.906-68.906zm-125.12 3.938c-1.723-.025-6.104 1.966-12.03 7.344-10.942 9.928-25.361 26.24-25.406 29.344 2.935 1.059 5.533-.628 7.875-3 9.152-13.509 23.302-18.792 31.594-30.625 1.289-2.188-.07-3.09-2.031-3.063m102.84 14.344c0 0 31.677 46.15 39.781 58.41-83.47 33.05-170.82 76.7-248.19 104.94v-18.5l12.219-33.22zm124.19 30.5l31.22 16.12-8.812 35.22-31.5-17.625zm25.75 58.59l25.656 18.688-11.719 29.875-25.844-17.781zm-209.34 21.906c0 0-3.954 13.851-10.594 26.25-31.75 55.16-62.815 104.18-127 146.75-2.443-2.173-9.437-14.406-9.437-14.406l-.625-16.344c34.03-27.336 63.4-47.4 108.47-127.62l13.06-5.313 11.125 4.813 7.531-13.438zm133.53.125c-29.58 62.752-58.686 127.48-105.81 176.37l128.97 180.03c42.44-127.11 26.682-246.24-23.16-356.41m-162.28 13.688l-6.188 10.719 10.719 6.188 6.188-10.719zm-17.5 1.156c-23.366 52.24-58.44 92.44-104.47 121.34l-1.781-76.66zm8.219 15.594l-6.188 10.719 10.719 6.188 6.188-10.719zm263.59 2.25l23.25 22.06-13.813 24.344-23.844-19.719zm356.19 10.844c-.026.011-.048.036-.062.063-40.861 127-28.591 248.31 27.469 353.91 27.504-68.45 50.08-114.25 103.78-187.12-33.07-43.29-127.86-168.21-131.19-166.84m-628.91 2.031l-6.5 10.531 10.531 6.5 6.5-10.531zm178.28 14.813c36.835 88.05 33.587 167.45 14 236.25l-92-116.22c33.705-41.837 56.09-81.45 78-120.03m-187.78.313l-6.969 10.219 10.219 7 6.969-10.25zm-10.281 14.625l-7.625 9.781 9.75 7.625 7.625-9.781zm303.09 10.406l20.844 19.781-13.156 25.656-21.16-19.344zm-315.12 4.813l-8 9.406 9.406 8 8-9.406zm672 2.781l92.81 119.75c-31.04 36.949-56.843 80.48-79.906 127.41-25.859-81.03-37.531-160.64-12.906-247.16m-685.03 12.12l-8.563 8.938 8.938 8.563 8.563-8.938zm216.81 11.969l-42.469 61.41 48.687 62.16c5.239-33.647 6.416-72.7-6.219-123.56m-230.66 2l-9.125 8.375 8.375 9.125 9.125-8.375zm-13.406 11.969l-9.625 7.813 7.813 9.625 9.594-7.813zm362.72 6.344l17.437 20.375-17.687 20.969-16.563-18.625zm221.69 3.656l11.844.438c-19.426 191.6 18.754 288.54 52.53 372.84 0 0-.081 3.38-1.219 4.375-5.502 1.895-16.635 3.942-25.563-3.906-45.44-116.8-55.36-260.68-37.594-373.75m-600 2.469l-10.03 7.25 7.25 10.03 10.03-7.25zm742.31 6.813c-3.01 0-5.632 78.83 5.719 117.31l42.719-57.875zm-110.44 13l14.281 19.19-15.16 20.656-15.5-19.563zm-643.47 5.219c.716-.113 1.891 1.883 4.188 3.469 2.134 2.232 1.827 2.065-.563 3.969-3.736 2.978-4.85 2.498-4.781-2.156.321-3.829.599-5.193 1.156-5.281m390.75 14.406l15.781 22.594-17.469 22.469-14.938-23.656zm251.47 28.625l16.625 20.25-14.281 22.22-18.16-21.22zm384.94 4.281l1.469 23.344-5.75-8.531-10.563 8.094 7.375 9.781 9.219-7.188.562 9.406c-58.55 42.31-83.81 90.92-107.56 127.37l-10.563 4.469-12.03-3.813-5.875 10.406-10.219 2.406c-.312-.063 20.516-44.68 56.16-90.09 31.736-40.44 87.62-86.03 87.78-85.66m6.781 36.531l.5 83-104.78 40.477c27.19-46.34 59.26-89.34 104.28-123.48m-26.03-10.09l-9.563 7.844 8.25 9.469 9.531-7.844zm-14.719 12.5l-9.219 8.219 8.594 9.156 9.219-8.281zm-349.91 4.594l19.75 21.03-14.469 24.844-20.563-19.719zm335.03 8.844l-8.656 8.844 9.469 9.09 8.656-8.844zm-13.625 13.969l-8.313 9.188 10.06 8.719 8.313-9.188zm-13.688 15.656l-7.719 9.688 10.469 8.094 7.719-9.719zm-300.94 14.875l24.688 16.03-12.06 29.375-24.656-18.781zm289 .125l-7.25 10.06 11.156 7.625 7.344-10.406zm-11.156 15.875l-6.719 10.406 11.281 7.25 6.688-10.75zm-9.969 15.719l-6.188 10.719 11.688 6.656 6.188-10.844zm-9 16.25l-6.188 10.719 12.938 5.594 5.125-10.219zm-245.5 6.625l25.281 17.12-11.187 30.781-26.688-18.875zm366.59 30.28l1.25 633.37-278.34.969c0 0-13.01-22.901-40.25-75.81-11.532-22.4-21.281-31.917-22.281-49.656 1.042-10.418-3.773-22.24-12.313-27-2.868-1.599-7.666.333-6.06-4.125 1.764-4.906-3.648-12.458-5.125-14.06-1.684-2.838-.634-3.53-.813-14.09-.172-10.21-.718-14.48-2.906-22.19-5.531-19.478-6.759-29.21-3.594-39.31 8.221-25.62 16.791-45.27 27.875-69.16 6.446-13.98 5.462-19.442-14.312-29.594-14.806-7.601-16.773-7.522-14.906-18.625.875-5.202 1.688-8.483.594-11-.666-1.533-3.124-3.677-4.562-4.906-1.932-1.652-1.352-5.059.625-7.594 1.939-2.487 1.955-6.04.031-11.969-4.045-12.469 5.109-28.991 22.406-40.41 7.645-5.05 7.432-4 15.406 4.375 23.305 24.477 57.933 9.1 58-25.406.021-10.755-3.643-10.115 6.531-15.187 34.48-21.939 105.25-61.841 104.78-60.75 4.609 9.392 6.148 17.414 9.06 27.531 2.518 8.674 2.189 9.338 1.25 26.22-.849 15.257-1.307 18.803 2.281 19.781 20.425 2.247 25.09-4.975 29-18.16 1.692-5.824 4.952-4.641 6.969-2.188 7.772 14.14 17.604 28.851 24.06 38.906 8.07 12.837 21.665 19.222 28.781 13.156 1.497-4.989 2.731-5.144 11.75-3.094 10.936 2.486 17.17-3.641 18.219-11.688.419-3.21-1.919-3.078 3.938-6.25 14.529-10.754 8.99-25.438 6.813-34.28.189.467 6.21-3.661 6.344-11.937.694-42.981-36.556-104.88-35.719-103.28zm-351.44 24.75l29.563 14.281-6.969 35.31-30.375-13.656zm287.66 13.12c17.02 19.742 29.338 52.653 35.688 74.09 3.135 10.68 3.517 22.868.719 24.563-2.763 1.673-4.053-.119-3.531-6.5.434-5.316.589-9.434-1.688-9.375-6.606 1.706-6.864-8.304-6.188-10.656.452-1.572 1.266-2.677 1.625-3.531 1.628-3.878-2.625-3.354-7.03-3.406-3.898.094-4.905-2.275-4.719-5.969-.112-4.098-5.538-3.297-8.625-.188-2.821 2.842-2.229 6.19 1.594 8.531 5.491 3.362 10.679 11.627 23.469 40.12 7.425 16.545 5.224 28.29-3.625 28.16-6.136-.182-13.285-16.99-19.06-29.375-1.493-3.199 2.249-6.777 3.563-8.5 3.396-4.455 2.881-5.863-2.156-5.938-4.716-.069-6.719.349-9.563-5.469-1.071-2.19-1.846-5.53-1.469-7.656 2.431-6.416-2.562-7.966-7.406-5.5-6.106 2.545-6.06 7.992 3.25 16.906 5.997 9.838 4.43 9.155-1.25 15.781-1.188 2.339-.473 3.776 2.031 3.813 7.204-2.199 15.05 10.774 12.906 15.219-2.207 1.91-8.241 8.83-2.406 7.5 11.861-3.225 19.08 14.14 12.09 20.03-10.42 5.227-12.889 3.593-28.937-28.469-4.984-9.956-10.982-20.655-11.719-21.75-.737-1.096-1.063-4.04-1.031-6.406.699-5.801-1.776-7.117-6.813-4.813-3.784.906-7.198 4.02-2.406 6.969 5.595 9.653 7.575 11.208 4.5 13.656-6.997 5.572-3.962 5.347 3.875 6.906 3.836 1.153 5.788 3.129 6.844 5.5 4.05 9.09 11.227 21.918 11.937 24.531 2.374 6.669-1.913 9.664-7.781 9.375-6.141.147-8.952-4.703-11.938-8.844-11.164-15.513-19.2-30.881-30.594-48.5l1.531-16.469c0 0 2.985.647 4.656-.156 3.279-1.576 5.225-6.721 7.094-13.562 2.995-5.948 20.673-19.479 27.438-26.75 1.25-.822 2.298-2.179 2.313-3-.043-2.664-7.669-.883-12.688 4.875-7.372 6.545-10.516 4.3-10.281-4.063-.725-10.327-7.03-5.15-7.344 4.938-.811 7.969-3.579 12.822-9.156 17.281-10.525 8.415-8.771 6.284-8.281 17.969.853 20.378-7.01 37.14-12.156 26.03-1.827-3.945-3.967-8.425-8.563-8.625-3.255-.142-4.864-3.333-6.656-11.219-2.664-12.757-6.384-20.969-9.781-32.719zm-262.03 43.906l34.06 13.563-6.375 35.625-33.75-12.906zm259.72 3.281c-.229.015-.495.069-.781.188-9.596 7.252-18.448 15.387-28.906 21.625-3.922 2.316-8.503 8.305-8.531 9.906-.028 1.561 4.656 1.524 9.219-.469 4.331-1.89 29.03-25.09 29.06-27.22 1.704-1.877 1.538-4.134-.062-4.03m-312.78 43.25c8.05-.019 3.355 2.371-14.219 14.563-17.16 11.902-45.44 49.54-48.719 63.5-1.491 6.341 2.532 6.833 7.06-1.875 20.831-40.04 60.24-76.63 96.31-75 17.674.796 27.22 5.565 12.594 7.656-40.1 4.922-70.08 27.792-96.31 73.37-.018 1.022 2.378.971 5.125-.781 24.01-29.358 51.07-68.24 98.59-65.09 34.28 2.065 44.02 42.833 15.563 56.75-24.81 12.13-47.688-17.412-27.12-34.938 6.676-5.691 10.85-3.193 4.437 2.625-13.76 12.486 3.108 34.724 19.875 26.28 10.204-4.276 14.337-18.88 5.344-29.906-20.01-24.528-63.1-5.878-93.12 33.75-3.148 4.17-5.875 13.225-3.219 12.25 4.661-1.92 7.476-5.575 10.219-9.688 10.719-14.863 18.954-22.322 33.469-30.31 11.213-6.173 11.904-5.02 7.719 5.688-1.763 4.51-3.177 6.01-7.531 8.813-18.284 12.487-29.641 29.22-30.09 39.875-.331 7.782 5.365 17.946-.813 20.03-10.473 4.947-39.04.912-46.75-8.938-5.545-7.084-7.696-2.982-3.531 8.531 2.75 7.603 2.632 11.901 6.781 11.125 5.248-2.777 8.852-2.127 19.03 3.438 4.907 2.682 13.607 5.184 18.906 6.406 9.662 2.229 11.681 1.287 11.469 5.469-.065 1.282.376 4.887.094 7.156-1.568 12.595 8.947 16.878 23.281 25.16 8.377 4.837 5.07 9.815-4.625 33.781-5.04 10.842-9.343 25.428-15.562 36.437-5.812 12.369-6.308 25.909-2.563 41.34 6.952 28.644 11.958 43.2-.437 45.781-31.896 4.826-102.35 4.629-140.81-10.156-9.839-73.827-61.968-183.37-55.28-211.69 13.341 20.11 69.29 14.793 52.44-41.44 0 0 4.583-6.858 13.688-16.09 23.481-23.819 29.28-27.758 18.12-6.781-8.572 16.13-19.505 37.17-19.75 41.25-.195 3.249 2.338 4 4.313 1.406 1.464-1.925 3.201-6.602 4.719-10.156 13.993-32.762 37.918-62.3 54.41-69.41 4.246-1.831 4.03.12 1.094 3.719-19.4 24.14-34.22 46.46-44.75 75.59-.469 3 3.795 4.259 5.156 1.406 18.2-38.14 23.638-46.79 46-73.66 8.79-10.561 16.966-15.89 23.5-15.312 5.651.499 3.978 1.428-1.25 7-3.993 4.256-9.893 10.176-19.438 22.19-16.833 21.18-33.764 55.647-27.531 53.844 1.074 2.87 6.385-6.288 10.875-15.03 12.302-20.655 25.367-47.948 54.58-65.896 6.103-2.525 12.772-3.976 18.665-4.04m-565.06 6.656l52.03 52 104.66-1.344c-17.259 26.819-8.04 68.39 1.469 92.69 18.646 47.628 45.975 126.26 43.969 127.41 0 0-15.218 3.912-16.594 13.563-2.039 14.304 4.162 13.241-4.781 26.16-2.01 2.905-.717 8.39 1.438 12.75 1.419 3.196 2.775 8.01.125 11.75l-92.31 164.69-175.19.844v-32.938l87.72-88.81-1.063-65.34c47.844 14.222 64.27 63.59 68.37 100.16 86.42-78.868 84.29-197.6 2.625-272.09-15.919 78.73-72.936 95.09-71.69 93.53zm650.84 9.344c5.598.404 13.154 1.304 18.281 4.063-3.472 2.078-5.94 4.551-8.25 7.094-2.803-4.974-6.581-7.691-10.03-11.156m145.06.563c4.66-.016 10.38 13.622 7.094 16.812-1.851 1.798-7.856 2.479-10 1.125-2.748-2.037-1.346-17.923 2.906-17.937m-165.06 23.656c6.01 0 10.875 4.869 10.875 10.875 0 6.01-4.869 10.875-10.875 10.875-6.01 0-10.875-4.869-10.875-10.875 0-6.01 4.869-10.875 10.875-10.875m-460.28 15.5l7.844.188c-14.258 19.06-16.18 35.471-11.125 59.25 5.685 26.758 49.04 127.33 51.844 155.03.127 1.252.25 4.781.25 4.781l-10.656.719c0 0-.796-2.864-1.125-3.969-14.913-50.15-29.755-88.39-40.12-117.62-10.334-31.524-26.15-78.26 3.094-98.37m57.31.188c.074-.001.135.001.188.031l7.531.062c-.278.167-11.243 23.676-12.03 37.938-.894 16.17 3.02 33.776 8.375 51.16 12.654 37.6 31.18 79.48 41.469 126.94.12.553 1.25 5.156 1.25 5.156l-11.156-1.5c0 0-1.095-4.859-1.219-5.531-7.703-41.744-29.19-85.1-42-126.19-6.565-18.678-11.129-41.636-8.781-59.19 1.656-12.381 14.08-28.633 16.375-28.875m91.09.095c-7.977 12.351-15.239 27.83-15.75 39.969-.46 22.582 6.118 41.643 12.688 61.59 20.226 61.42 30.04 93.83 40.16 143.09l-10.75-4.594c0 0-.418-2.767-.656-3.563-5.743-30.848-6.105-28.16-39.844-131.91-7.907-24.902-15.441-46.736-13.969-67.47.334-11.81 10.639-35.2 21.5-37.06zm12.906 0h10.03c0 0-5.524 5.848-7.125 8.03-17.523 24.304-12.452 50.38-3.75 81.47 11.973 42.775 34.11 90.61 45.688 155.81.214 1.207 0 7.5 0 7.5l-11.938-4.813c-10.846-59.781-37.605-121.76-50.5-175.53-7.583-31.571-5.425-51.52 12.09-68.72 4.39-3.391 5.5-3.75 5.5-3.75m-122.41.343h7.5c0 0-12.541 20.596-12.531 32.719-2.096 21.704 5.761 45.683 14.781 70.812 13.863 38.622 32.19 85.32 37.813 109.91.221.966.969 5.375.969 5.375l-13.09-.688c0 0-.686-5.951-1.469-8.688-15.11-52.861-29.831-87.05-47.19-135.31-2.627-7.304-6.821-36.19-1.875-54.906 3.882-14.693 15.09-19.219 15.09-19.219m-20.09.031l8.094.219c0 0-1.216 2.198-4.313 7.5-14.768 26.739-8.15 51.15 1 78.34 12.209 36.29 31.377 80.6 43.34 122.53.675 2.365 1.594 9.5 1.594 9.5l-11.688-.156c0 0-2.374-8.542-2.531-9.469-6.575-38.87-42.1-103.66-51.34-152.97-5.068-26.45-.713-42.833 15.844-55.5m108.41 0c0 0-12.771 22.14-13.938 34.469-2.288 24.18 5.382 44.2 14.156 71.47 15.14 47.05 36.5 102.26 38.41 127.5.063.832.375 3.906.375 3.906l-13.156-4.688c0 0-.59-2.633-.844-3.563-11.468-45.665-25.03-91.14-43.25-142.41-4.495-17.294-10.394-34.696-9.875-49.563 2.67-19.853 6.05-25.21 17.875-36.969zm57.875.031l10.594.219c0 0-3.165 1.698-10.719 9.75-41.793 38.19 26.01 146.01 41.656 244.19.171 1.052.656 4.75.656 4.75l-11.656-4.188c-1.103-4.89-1.932-10.842-3.281-16.187-12.671-50.19-29.578-101.79-45.09-148.59-8.705-34.11-11.886-64.14 3.75-80.938 4.898-5.802 14.09-9 14.09-9m-108.97.062l11.281.313c-8.153 10.222-12.937 26.15-13.375 40.31-.435 16.755 4.046 33.05 9.563 50.28 11.314 35.35 27.47 73.77 38.563 121.47.626 3.158 1.149 5.184 1.438 6.563.458 2.187 1.719 5.656 1.719 5.656l-11.906-2.375c0 0-1.229-3.091-2.031-4.719-1.204-2.442-2.302-5.556-3.281-9.281-5.765-24.882-26.986-81.34-39.906-120.94-10.246-24.951-13.04-68.56 7.938-87.28m140.84.437c14.43-.53 27.477 11.713 30.563 23.22 2.995 12.216-.838 26-14.281 32.813-21.798 11.04-45.27-18.332-28.06-34.5 13.04-12.254 32.32-3.185 28.12 12.5-2.708 10.211-18.19 10.869-20.75.562-.701-3.43-2.422-6.855-3.656-4.969-8.02 18.825 18.933 27.642 30.12 10.125 6.637-14.04-5.998-32.12-24.594-28.688-25.497 4.713-28.431 37.07-17.844 74.81 14.769 59.656 49.999 139.89 49.938 176.72 0 .486.125 2 .125 2l-11.188-3.344c0 0-.077-.62-.156-1.156-6.708-51.44-44.916-136.6-55.875-202.06-4.75-29.849 6.878-51.51 33.03-57.44 1.513-.343 3.01-.539 4.5-.594m-110.63.469c-7.847 10.487-12.976 26.25-13.219 37.5-.237 16.481 5.677 32.528 10.562 49.688 12.363 42.38 41.24 120.63 40.19 135.28.3 1.573 1.094 6.438 1.094 6.438l-11.156-3.313c0 0-.444-.704-1.281-2.719-3.718-14.545-21.405-76.869-41.22-130.75-7.623-21.665-11.333-38.542-10.812-52.906 1.611-19.818 7.284-28.09 15.969-39.12zm212.44 70.25c-28.918 1.649-26.13 36.902-8.219 42.875 6.411 1.767 10.17.24 11.188-1.156 1.157-1.588-.139-4.02-4.344-4.625-12.158-3.992-16.501-18.302-5.523-24.305 5.994-3.142 15.568-1.122 27.12 7.43 20.633 15.28 45.924 16.24 42.625.781-.801-3.75-2.418-4.255-17.531-6.312-12.273-1.671-17.805-5.552-23.16-8.438-8.433-4.548-15.864-6.436-22.16-6.25m-414 32.781c74.71 72.961 63.64 187.31-.188 244.56-1.313-4.622-4.102-15.946-4.406-15.625 47.997-49.94 70.6-131.81 1.125-215.72.36.321 1.545-6.06 3.469-13.219m468.22 1.939c-.706.016-1.324.093-1.875.281-19.347 5.292-23.358 24.413-10.813 32.28 7.691 4.824 13.599 1.867 4.03-3.969-8.202-5-4.156-18.15 5.781-18 4.344.065 7.301 1.951 18.344 10.09 9.09 6.702 17.651 7.236 19.594-1.844 1.159-5.417-.653-7.824-6.437-6.406-2.559.627-4.061-.871-7.531-3.281-7.719-5.361-16.15-9.266-21.09-9.156m-475.94 14.313c67.34 78.16 45.723 159.68.313 207.44-12.468-36.793-43.03-59.75-43.03-59.75 11.517-25.552 18.384-52.24-3.156-85.938 20.04-18.11 36.646-38 45.875-61.75m437.53 28.531c-3.16-.056-2.133 2.989 5.313 8.187 17.748 12.07 19.266 14.252 2.063 13.969-4.36-.257-11.193 2.834-15.06 4.125-22.454 7.49-23.539 6.894-34.28 4.375-3.581-.835-7.212-2.336-8.781-.906-2.426 2.211-5.147 3.672-2.094 6.969 2.226 2.403 6.369 4.239 11.406 7.125 26.07 14.936 28.441 18.513 59.09 19.313 3.51.092 5.314-1.726 7.375-1.75 5.01-.057 7.628 1.164 12.687 5.781 9.264 8.454 9.698 2.31 4.188-8.781-2.89-5.816-5.417-7.202-4-11.625 3.231-10.09-1.373-12.09-7.406-3.156-4.522 6.995-5.03 6.833-9.313-2.156-5.672-11.226-3.01-16.408 5.594-9.09 6.519 5.543 8.183 1.421 10.719-2.969 3.334-5.771 2.829-10.95-3.125-10.5-3.424.259-6.623-1.316-9.313-4.25-5.272-5.75-15.379-12.965-25.06-14.656m7.375 30.375c.708.039 1.199.328 1.438 1.062.059 3.697-2.481 11.253-4.563 15.219-.666 1.766-1.807 1.987-3.406 2.313-5.374.993-5.748-.67-4.781-4 1.97-5.14 3.599-12.453 10.531-14.563.288-.031.545-.044.781-.031m-13.656 2.562c2.175-.16 2.246.745 1.375 2.719-1.551 3.331-4.282 6.483-6.312 9.09-4.307 2.785-11.32-5.731-8.219-7.938 4.328-1.711 7.582-3.472 12.09-3.75.4-.067.752-.102 1.062-.125m-482.41 5.563c1.159 0 2.343.231 3.563.75 16.296 21.997 15.186 55.48 2.531 74-.944 1.384-1.906 1.632-3.5 1.094-5.446-3.224-12.364-4.419-17.531-6.281v-64.41c5.322-1.127 9.913-5.169 14.938-5.156m429.44 5.25c-1.244.056-1.763.903-.188 2.531 23.763 17.195 56.46 37.13 86.62 29.406 2.769-.601 5-2.114 4.469-4.969-.332-1.779-3.397-3.314-6.719-2.438-6.917 1.825-20.18 2.061-25.625 1.188-20.742-3.404-39.06-16.669-55-24.438-1.182-.903-2.595-1.325-3.563-1.281m-6.938 16.406c-1.062-.049-.98 1.01-.313 3 3.345 9.96 36.972 33.17 63.53 40.844 22.803 6.588 55.56.11 53.656-10.719-.994-5.648-5.14-6.998-19.688-5.156-32.04 6.226-62.88-6.875-86.28-21.438-6.308-3.973-9.541-6.468-10.906-6.531m-209.81 13.625c13.993-.167 27.867.969 42.875 3.469 29.19 4.981 63.03 14.02 91.66 27.28 48.648 18.26 109.81 32.35 161.72 30.438 12.669.352 35.567-.727 40-2.188 11.571-2.595 14.769-.136 17.531 14.219.486 3.123 1.451 4.03 5.469 6.75 6.147 4.162 5.121 8.278 4.375 17.469-.628 7.732 4.04 12.07 22.781 46.656 21.325 39.36 42.12 85.09 42.12 85.09-186.93-.128-365.27-7.06-556.53-1.125 17.201-40.784 64.1-114.33 93.49-173.37-7.108-18.17 1.67-21.253-2.01-25.56-5.953-10.1-1.657-24.26 10.925-27.449 8.767-1.01 17.198-1.587 25.594-1.688" transform="matrix(.99984-.01764.01764.99984 588.42 33.795)" fill="#131f67"/>
   <path d="m1950.02 1727.99c0 0 59.06-124.9 84.21-162.45 36.3-47.72 205.07 16.844 288.71 32.24 33.989 5.933 112.46 1.485 112.46 1.485l67.72 117.14zm-129.66-138.44l-9.399-385.41 19.388 11.627 11.227 387.11-81.48 80.82-.866-23.24zm49.39-44.869c19.04-40.08-3.855-88.21-3.851-88.2 11.499 2.622 42.34-58.49 45.21-56.795 49.891 59.03 59.931 148.11 1.24 204.47-15.74-38.18-42.4-59.48-42.596-59.48m31.64-273.26c36.436-38.575 65.34-68.63 94-111.58 2.348-3.494-160.18-202.6-157.77-206.18 24.04-27.534 56.56-48.03 81.56-81.2 0 0 133.37 168.35 136.35 166.8 12.266-53.637 21.09-102.16 17.579-157.93-10.564-142.68-73.14-229.03-73.58-227.3-18.321 131.58-217.64 333.91-257.83 320.46l-1.843-91.69c2.496 4.546 127.06-83.39 158.31-197.25 2.245-8.18 99.52-41.21 98.82-42.4-4.326-10.56-48.19-70.35-48.19-70.35 0 0 17.15-8.358 19.07-8.363 56.696 68 100.16 158.14 115.93 244.42 18.928 92.9 33.2 267.92-150.33 462.58zm556.04-251.01c-30.848-90.26-31.708-184.25-19.418-250.1 18.421-119.26 92.06-205.72 151.19-271.7l26.14-.449c0 0-30.688 32.899-41.855 44.87-19.12 22.738-46.576 69.95-46.576 69.95l159.57 201.12 88.56-20.784c0 0-1.072 91.25 1.684 91.2-68.09 58.41-116.83 111.05-151 195-21.705 8.465-93.58 40.969-93.58 40.969-34.581-7.809 98.52-224.84 72.42-228.01-10.879-8.656-132.44-166.73-134.75-166.36-51.778 168.54 4.723 343.58 103.19 464.79-10.806 7.274-20.601 12.962-19.724 11.285-42.26-56.49-79.6-124.18-95.85-181.77m-286.42-78.99c6.339 9.444 30.31-205.11-45.645-375.17 6.847-5.382 66.811-17.953 66.811-17.953l17.1 51.02-40.738 18.1 8 23.915c31.589-16.02 100.19-40.05 141.39-111.3 0 0 206.21-5.41 210.6-5.119 4.285.283-41.27 45.51-83.64 136.19-19.351 41.42-34.385 94.83-36.612 157.23-.44 12.33-48.21-57.08-48.21-57.08 10.551-59.54 40.536-118.51 70.41-177.47 0 0-47.47-1.859-80.59-.305-50.53 57.22-82.32 87.46-159.53 115.72 29.934 90.25 204 130.81 165.32 123.2-7.905-1.716-16.379 83.75-6.344 179.7 2.965 76.81 46.57 204.17 48.01 203.11 0 0-27.448 6.692-29.736 2.312 4.627-1.198-40.817 11.162-40.817 11.162l-17.17-47.45 43.818-21.11-7.62-26.819c-.173.019-96.96 31.17-143.13 116.89l-213.14 4.01c80.63-90.65 112.6-179.46 128.4-296.41 17.495 2.82 53.06-6.371 53.06-6.371m510.62-779.31c26.405-22.899 79.16-82.25 79.16-82.25l1.229 29.91-59.927 64.56 7.537 391.96-21-19.428zm-25.682 143.96c-10.902 5.431-32.36 31.581-42.3 60.713-71.839-61.938-44.763-178.57-6.473-203.43 11.681 25.16 44.807 58.2 44.04 57.5-7.01 26.681-12.262 53.714 4.727 85.21m-630.83-252.08l545.47-8.669c-30.03 61.81-57.704 111.83-89.71 172.73-16.84 21.06-390.88-60.15-392.47-51.38z" fill="#e2cf00"/>
   <path d="m2825.26 1818.97l-.318-17.997 17.916-.316 41.645-65.7-46.14-101.7-17.279.305-.356-20.15 64.29-1.135.356 20.15-22.658.4 35.18 79.32 21.934-32.438-1.351-47.862-15.786.279-.356-20.15 58.681-1.036.356 20.15-20.97.37 3.985 167.41 17.777-.314.318 17.997-55.741.984-.318-17.997 15.343-.271-2.886-78.7-49.837 79.64 18.13-.32.318 17.997zm-206.25-113.18c-36.969-68.988-83.974-131.28-137.58-184.87 51.4-58.16 94.05-118.22 130.25-183.64 39.611 63.79 82.951 123.91 143.03 181.73-57.49 58.63-100.33 122.24-135.7 186.79m-860.62-52.46l-12.722-514.61 63.07 59.13 10.657 395.17zm1071.54-162.06c22.16-24.323 42.2-51.22 58.63-80.15 21.85 31.16 45.01 63.03 63.97 78.79-20.77 24.502-40.32 52.831-59.13 81.994-17.301-26.58-36.06-53.35-63.46-80.63m-788.8 57.31c-12.798 2.184-5.744-9.823-3.599-21.16 1.195-6.315-4.997-12.13-5-14.05-.033-11.175 8.253-16.04 46.19-16.267 89.53 4.626 136.26 32.434 187.78 44.836 49.34 11.877 98.03 10.76 152.21 8.555 4.01 2.217 19.2 39.38 16.565 43.18-122.19 26.325-280.23-60.93-394.14-45.09m216.28-270.4c-13.08-9.132-25.24-10.652-37.26-12.473 20.375-37.36 45.24-71.51 87.4-93.36l20.656 48.614c-24.788 13.301-49.07 29.04-70.801 57.21m-260.55-122.6c0 0-17.822 30.32-34.884 45.22-52.711-68.13-170.45-213.1-170.45-213.1l-48.42 25.601c0 0-.695-28.455.374-30.466 130.77-70.33 219.05-200.45 256.8-321.51 0 0 21.629 21.305 18.997 30.527-34.01 95.56-93.34 191.84-181.81 264.83zm162.12-142.96l166.6-2.704 8.399 57.784c-63.42 22.502-115.3 67.1-163.63 118.48l-79.05.018c24.906-57.22 59.883-115.44 67.67-173.58m612.5-254.88c5.678 16.233.561 33.942 2.616 33.17-197.81 102.21-251.02 319.83-251.02 319.83 0 0-19.475-29.659-18.692-34.31 99.24-231.39 168.22-239.45 181.06-264.61l-160.68-200.53 34.683-48.955 172.37 216.29c16.612-8.01 26.05-14.639 39.669-20.866m-93.15 298.73c32.766-61.45 67.05-97.45 101.4-122.4l-.272 80.35zm-937.18-222.39l-.507-77.934 102.01-46.05c-27.328 62.45-65.32 96.33-101.5 123.98m456.71-78.14l-7.05-54.697c61.92-28.319 116.41-65.69 160.03-116.3 47.771-3.14 80.48-.477 80.21-1.122.082-.098-44.3 67.53-72.61 173.27zm506.84-584.81l55.785-58.39 10.829 512.13-58.01-53.28zm-491.82 425.84l-18.918-50.46c28.16-11.123 49.21-34.642 68.8-57.91 13.768 11.892 31.33 15.854 37.448 18.08 8.345 1.795-56.04 81.934-87.33 90.29m-445.53-342.93c59.782-60.44 98.2-123.74 135.31-186.66 34.714 67.898 84.27 126.96 137.29 183.97-52.57 59.2-92.19 122.31-130.18 185.8-39.598-65.52-81.15-126.86-142.43-183.1m-138.41 104.77c-18.03-27.688-36.17-54.33-62.1-80.916 24.315-26.962 44.901-53.624 58.58-79.73 20.01 28.05 39.06 57.38 63.41 79.65-22.872 26.09-41.14 53.621-59.898 80.998m470.67-144.52c0 0-7.16-3.977-6.484-9.77 2.214-7.528-8-24.303-8.01-24.302 120.31-38.83 298.26 61.32 402.42 37.759-.744 7.315.612 15.999-2.229 22.933 3.551 14.57 5.885 15-8.241 24.18-73.08 22.08-151.26-20.868-223.37-40.785-58.85-17.399-106.3-11.864-154.09-10.02m-540.81-54.727l-.386-21.878 20.532-.362-2.902-164.43-20.532.362-.335-18.991 56.942-1 .335 18.991-14.847.262 2.77 79.03 50.26-79.971-20.14.355-.103-18.995 64.44-1.137.335 18.991-18.382.324-39.98 65.775 42.882 98.66 18.382-.324.386 21.878-64.42 1.137-.362-20.497 24.16-.807-35.611-76.8-22.5 32.17.794 45.02 16.791-.296.379 21.497z" fill="#d40000"/>
   <path d="m2018.74 46.868l22.828 41.22-3.775 2.658c6.192 9.916 11.503 21.1 17.83 30.934l4.429-.589c7.503 13.777 10.533 18.869 20.317 35.18l-4.287.057c2.336 7.284 8.08 12.05 8.292 17.303.172 6.538-1.392 13.205 2.703 17.561 4.851 5.159 5.447 6.602 4.523 9.691-2.452 8.206 5.101 17.11 12.59 16.17 52.753-8 106.74-2.954 160.89 12.372 38.954 11.532 73.58 24.607 106.31 33.652 10.318 2.884 31.15 7.35 49.03 8.343 49.597 2.754 77.22-7.828 68.51-28.28-.69-1.638-2.199-2.821-2.345-3.667-.269-1.563-.056-3.263 2.715-5.617 7.981-8.443 3.335-14.404-1.781-23.505 0 0 61.61-114.76 92.38-171.94zm550.93.492l-45.01 80.969c-24.896-4.058-30.361 16.915-30.685 19.857-32.376-7.694-26.689 34.01-10.471 36.548 1.153 6.04-26.25 14.06-41.02.116 22.354 2.594 29.733-27.05 2.376-33.13 35.442-27.331-32.642-66.11-32.469-10.872-31.781-5.02-26.924 36.773-6.771 39.673-10.08 11.515-40.3 12.363-56.52-11.247 27.12 13.483 41.03-22.797 12.931-32.389 33.921-30.822-34.04-57.49-31.596-8.694-25.697-14.622-42.505 24.11-8.451 29.404-1.814 6.948-46.27 7.787-57.871-9.887 31.65 6.637 32.424-31.766 4.55-34.398 27.3-35.929-43.898-52.6-31.15-4.451-27.576-10.347-37.32 23.977-10.456 34.471 1.576 5.407-43.01 10.818-58.99-8.506 34.24-5.758 21.639-38.816-.55-35.762 0 0 .302-.963 1.499-4.222 9.91-33.583-46.588-35.38-38.14-.101 1.309 3.238 2.769 7.556 2.769 7.556-15.617-2.895-25.01 3.611-23.63 18.19 4.217 19.317 14.431 17.704 27.463 13.611 5.596 5.645-31.16 25.492-54.758 8.766 28.38-8.7 13.34-41.873-10.449-36.939-1.175-10.652-13.04-25.413-28.03-17.845l-16.553-31.18zm54.51 444.45l-33.503 1.085c-23.11 24.446-190.79 184.46-157.9 421.11 14.07 101.22 43.943 188.48 121.5 290.81l20.03-12.235 3.133 2.02 207.74-124.43-.537-36.663-241.8 106.5c-4.925-5.057-7.868-10.743-12.05-17l96.89-43.21c0 0 2.237-5.972 2.942-8.714 30.662-81.77 94.82-141.7 150.78-188.12-1.712-79.941-5.04-247.31-5.04-247.31l-149.36-143.58c-18.518 17.541-34.896 35.537-51.25 55.04l172.43 218.84-14.768 9.986-170.64-217.72c19.327-24.1 40.4-45.18 61.4-66.39m152.26 141.58c0 0-7.532-380.82-11.885-564.7l-85.88 91.27 7.152 386.02zm-16.763-528.35l-60.668 64.848 7.617 392.37-16.16-15.373-6.734-381.82 75.77-82.24zm-601.52 1.168c1.905 3.224 1.185 7.751-1.719 11.486-12.361 15.899 27.814 42.44 56.29 37.2 21.674-3.987 39.976-17.368 31.807-27.16-6.653-7.974-2.546-16.231 5.275-16.314 8.04-.086 14.615 6.198 7.799 15.08-15.16 19.766 8.889 42.22 45.06 42.06 25.579-.117 33.987-6.566 32.29-24.761-.796-8.521.837-10.909 6.753-12.309 9.448-2.236 14.424 8.548 6.707 16.978-16.666 18.203 3.097 44.19 35.24 45.32 11.762.414 14.07-.252 27.05-7.885 10.146-5.965 13.608-14.765 8.466-21.465-6.617-8.623 1.912-19.212 12.05-15.09 7.245 2.946 10.884 8.399 3.095 17.887-10.232 12.465-5.104 22.507 15.14 28.986 15.77 5.05 26.613 4.195 33.834-2.629 2.247-2.124 7.251-6.564 7.2-5.234-4.783 8.606-9.01 16.59-9.01 16.59-32.576 15.228-58.69-11.733-57.864-12.771-33.482 20.12-63.55 16.527-89.47-15.814-6.526 3.768-53.55 13.198-88.27-23.581-34.06 17.85-66.14 11.182-94.87-7.601-20.63 20.18-42.691 23.698-65.838 14.592l-7.05-13.57c1.705-.674 9.366 13.567 45.21 6.234 12.03-2.462 32.451-23.12 20.643-32.807-5.46-7.44-5.678-10.833-1.055-15.484 4.548-4.582 12.493-2.404 15.242 2.059m-87.78 19.506c2.075 3.85 2.457 10.306.177 6.467-1.203-2.026-7.453-11.06-7.17-11.344 2.829-.286 5.691 2.588 6.993 4.877m689.53-9.05l9.34 506.35-53.54-51.28-9.529-396.63zm-608.96 35.27l16.755 10.126-29.674.346zm93.3 7.07l14.15 13.268-29.359-5.617zm260.77 2.413l-5.993 12.858c-3.657-3.946-4.85-12.438 5.993-12.858m108.86 208.65c10.143-23.896 23.74-54.34 46.44-64.35-17.624-33.531-16.01-67.39-4.256-86.15-17.558-15.775-35.628-34.725-47.12-62.23-53.731 49.15-60.756 148.3 4.936 212.72m-5.225-203.46l3.92 9.19c-47.56 60.35-31.17 138.17 4.769 179.23l-4.872 10.586c-43.829-44.622-64.36-140.21-3.817-199m-289.99 38.78c56.62 15.532 102.18 40.498 166.9 16.398l.528 12.671c-40.977 27.337-124.04.684-180.19-18.919-90.25-31.512-159.99-28.351-209.78-23.69-4.403-.782-8.095-12.18-1.066-12.382 93.21-2.673 77.94-14.04 223.61 25.922m12.331-22.649l18.843 19.296c-13.969-4.113-27.56-8.715-40.23-14.511zm282.4-.141l3.713 4.935c1.608 2.137-10.171 3.468-8.235.895zm-317.18 41.52c67.68 24.06 142.16 47.949 190.34 24.495 0 0 .476 9.615-5.03 12.438 0 0-5.05 4.234-22.16 6.896-78.5 7.839-130.1-23.805-193.89-41.918-24.2-6.871-63.02-15.03-102.75-15.972-23.596-.657-59.61 3.365-59.61 3.365-7.868-.516-7.837-5.157-7.985-9.704 68.19-10.32 131.16-4.629 201.08 20.401m324.7-29.942c.867-.056 1.752-.009 2.627.11l7.03 8.659-7.926 13.11c0 0-7.31-6.495-11.07-12.932-2.085-4.174 3.278-8.558 9.343-8.947m-198.05 5.966l21.576 15.694c-15.993 1.068-34 1.983-51.956-4.785zm180.48 5c1.676-.07 3.468 1.671 5.592 5.152 4.083 6.693 3.583 7.998-4.064 10.605-10.04 3.424-10.847 2.725-7.739-6.396 2.117-6.211 4.055-9.271 6.211-9.361m32.414 3.575l14.606 11.826c-7.584 20.822-12.322 47.16 4.307 84.56-1.769.149-11.934 10.54-15.15 12.34-9.186-3.661-30.574-77.973-3.762-108.73m-16.09 16.11l-3.252 22.936c-.267 1.881-16.12-10.548-14.77-16.93 2.65-7.597 12.191-6.155 18.02-6.01m-25.688 8.485c1.89-.019 4.937 4.499 8.685 10.411 2.924 4.612 2.373 6.384-3.817 12.163-9.1 9.527-10.971 6.503-9.2-9.464.875-7.889 2.191-13.09 4.332-13.11m19.519 20.388c1.257.004 2.362.287 3.173.913l1.455 22.259c.131 2.01-17.401-.485-19.848-8.932-2.999-5.383 8.431-14.259 15.22-14.24m-22.746 19.237c1.249-.2 5.214 2.336 8.955 4.468 6.505 3.706 6.673 5.383 1.254 12.605-6.367 8.484-9.626 7.199-10.881-7.34-.461-5.338-.934-9.474.672-9.732m25.811 8.07c.563-.0001 1.071.143 1.509.505 3.144 2.594 8.276 24.84 6.325 27.21-2.779 3.369-17.78-.781-21.2-5.971-3.256-4.938 7.926-21.64 13.369-21.739m-17.803 26.61c1.713-.147 4.82.978 9.526 3.145 2.83 1.303 7.559 3.765 8.633 5.917 1.89 3.787-1.039 9.501-4.87 14.27-2.534 3.155-4.998.885-10.2-9.447-4.183-8.309-5.944-13.64-3.089-13.885m30.31 9.455c.344-.014.656.051.941.202 5.132 2.727 4.427 11.11-1.474 17.404-7.084 7.556-13.451 2.07-8.633-7.443 3.052-6.03 6.761-10.06 9.166-10.163m-415.64 215.14c-4.392.276-11.18 4.377-14.11 8.281-3.697 4.934-7.01 4.356-11.211 4.073-4.992.015-12.568 1.252-22.771 6.121-5.781 2.759-8.429 3.405-16.964 3.987-5.57.38-11.146 1.233-12.375 1.906-1.229.673-5.218 2.148-8.85 3.282-7.425 2.317-4.731 4.389-.28 13.933 22.765 55.46 39.521 120.25 46.14 173.14 7.458 60.686 6.827 134.45-.682 190.9-20.846.508-33.959-.329-55.911.428-12.827 122.02-51.762 219.43-131.44 307.81l219.57-3.316c23.971-67.53 137.86-120.73 141.7-117.02l6.48 24.378c0 0-82.37 13.257-136.14 119.03 5.627-3.541 26.382-1.52 40.31 12.433 26.699-35.11 71.1-58.53 71.4-58l1.426-4.203c0 0 8.164-2.937 15.362-4.438 2.309-.482 7.04-1.459 10.174-2.618 4.843-1.792 7.228-3.649 14.76-3.136 15.68 1.22 31.31-3.6 30.977-3.677-48.874-127.71-61.937-243.55-46.11-378.66 17.17-.169 54.835-.187 54.835-.187 3.12-37.937 7.246-75.914 18.248-111.88 14.13-46.17 31.384-89.16 59.696-128.7 15.943-24.796 29.935-42.487 46.46-65.755l-214.91 4.29c-27.6 48.31-81.7 89.2-125.45 106.61-14.891 5.896-17.02 5.101-19.63-1.904-4.66-12.515-4.438-11.986 7.227-15.536 3.896-1.186 16.308-8 35.697-17.508 41.12-21.793 68.968-60.854 85.29-87.17 6.495-10.397 2.053-7.997-9.36-7.899-10.466-.633-15.299-3.78-24.847-12.376-3.519-3.168-5.05-5.443-6.625-5.228-11.956 17.833-32.14 41.44-48.09 48.606m49.721-41.586c9.842 10.172 21.413 16.02 36.534 17.723-23.444 38.26-52.37 68.37-85.91 86.949l-18.06-48.1c41.839-20.386 52.769-40.26 67.43-56.57m350.59 9.215c-223.59 214.15-205.55 478.85-42.575 691.23l-16.501 10.323c-153.03-197.69-185.31-493.56 39.501-702.1zm-142.85 28.16l55.72-1.098-37.07 49.838-50.901.711zm-8.724.562l-30.13 49.41-83.57 2.551c-48.93 62.55-102.13 93.58-156.46 115.07l-11.603-52.47c0 0 86.23-22.41 140.74-112.74zm-84.87 5.54l-18.994 21.776 20.483 20.11 18.01-21.1zm43.859-1.274l-19.262 20.749 15.672 20.258 19.989-20.293zm-96.7 5.426l-2.777 32.15 25.392 7.834 3.203-27.498zm153.6-1.514l-17.816 28.966 27.597-.049 18.787-28.858zm-288.29 12.409l18.756 49.25-15.566 7.849-16.842-51.48zm-21.02 8.325l19.34 50.948-15.345 5.365-17.877-53.07zm25.663 202.05c3.315 71.27 5.096 114.24-5.719 177.13-.565 3.287-13.422.611-13.422.611 1.63.511 5.965-70.958 4.729-115.78-2.353-85.36-18.319-169.56-53.32-253.57 6.318-4.02 22.04-6.291 22.04-6.291 22.277 63.786 42.24 132.47 45.693 197.91m-226.66-193.77c75.1 96.06 129.88 227.22 123.4 357.69-5.73 151.69-61.64 240.03-160.69 346.75l-26.02 1.064c117.42-116.63 168.54-215.57 170.42-344.95 2.167-148.8-44.997-246.91-123.36-350.97zm-232.35 137.97l.882 35.459 248.11-111.63-36.994-52.48zm583.87-126.5l-27.19 1.855 1.391 27.448 28.358-1.188zm242.5-9.499l165.76 209.58-39.562 30.484-157.97-196.9zm-126.72 16.75l48.51-.106-18.201 31.439-46.874.452zm-8.941.924c-21.564 41.858-51.48 89.68-67.41 166.4l-159.63 2.952c-.603-17.44-3.171-34.845-6.079-52.24 68.34-26.389 120.96-64.959 159.27-115.39zm29.557 1.669l-20.597 12.365 12.975 14.398 22.779-9.185zm-189.74 18.633l-6.396 27.18 26.05 9.511 4.213-32.24zm149.21 17.589l46.529-.54-18.9 39.465-46.1.126zm110.68-7.08l156.81 196.02-14.172 11.624-153.25-191.6zm-92.97 9.92l-20.657 17.836 16.1 17.937 19.07-15.776c.402-.333-14.511-19.997-14.511-19.997m-203.44 5.03l-5.972 26.422 27.03 6.68 4.314-28.3zm-36.904 18.15l-5.01 25.999 25.461 6.395 4.902-25.06zm-209.26 1.094c1.295-.283-3.692 30.903-11.742 36.651-3.847 2.746-5.874 2.191-9.315-1.396-2.37-2.47-13.215-19.477-13.215-19.477l8.924-4.684c11.235 17.279 11.08 8.828 14.949-6.135zm-41.7 18.648c3.568-.089 7.97 4.269 13.01 12.772 7.286 12.297 7.07 13.11-4.484 16.894-20.806 5.9-28.556 7.363-22.369-6.544 6.661-14.973 9.256-23.01 13.844-23.12m62.18-3.562l14.737 24.23c-54.782 147.06-145.45 253.46-271.68 319.11l-.72-24.26c148.64-88.11 208.42-190.15 257.67-319.08m390.19 3.675l45.16.016-11.451 34.739-47.999.503zm-465.82 6.712c-35.2 88.22-84.07 165.52-183.33 231.79l-.812-23.257c111.55-69.937 158.04-198.07 158.03-198.11zm570.65-10.219c26.745.261 55.37 28.908 52.943 52.98-1.71 16.965 1.755 29.468 6.241 22.456 9.913-15.495 40.1-5.844 40.15 12.551.029 9.79-6.483 11.514-10.391 2.746-5.775-12.955-21.357-13-23.415.718-1.929 12.861 9.111 22.09 38.35 32.08 34.19 7.386 55.23 37.544 43.43 55.3-4.124 4.712-6.636 5.898-7.47 3.507-.24-.686-1.138-4.29-1.985-7.998-4.186-18.319-13.13-25.888-23.731-19.385-5.311 3.259-4.555 7.437-1.327 12.908 4.298 7.285 1.739 10.189-5.791 6.572-11.887-5.712-16.03-19.672-4.72-26.345 13.489-5.672 8.869-6.76-8.594-12.319-37.17-11.972-53.43-34.846-56.15-78.928.355-20.12-2.523-27.24-12.03-29.824-8.704-2.362-18.314 8.811-11.996 14.495 3.432 3.088 6.24 5.902 4.48 7.672-5.644 5.677-20.17-3.121-20.2-12.833-.019-6.35 2.362-7.702 11.731-15.334 2.599-2.117.284-5.98-3.575-5.969-14.441 4.936-13.755-14.29-5.954-15.05m-83.61 6.568l-22.342 13.37 12.04 16.218 24.785-12.179zm-438.93 20.498c2.593-.046 4.755 2.01 4.801 4.604.046 2.593-2.042 4.756-4.635 4.801-2.593.046-4.724-2.042-4.77-4.635-.046-2.593 2.01-4.724 4.604-4.769m46.3 1.216c49.47 103.12 62.899 221.81 31.847 341.2l-131.6-165.1c48.37-56.44 80.43-120.64 99.75-176.1m-173.85 10.705l-113.94 50.25.884 86.08c63.36-44.899 89.77-90.19 113.05-136.33m110.32-2.665c11.305-.551 6.263 30.08-8.241 40.759-5.314 4.233-8.955 3.79-10.877-4.454-.996-4.272-5.672-13.27-11.491-20.476-6.768-8.383-6.696-8.593 2.96-9.366 10.677-.027 19.336-5.306 27.648-6.462m-10.951 13.173c-8.346.024-10.777 3.973-5.713 9.227 4.264 4.424 7.567 3.402 10.259-3.15 1.64-3.993.071-6.09-4.546-6.077m-205.07 115.3l-1.01-73.06 97.44-43.07c-18.94 43.03-54.646 85.992-96.43 116.12m873.11 43.625l-12.847 13.377-129.64-162.96 7.573-20.994zm-697.47-154.85c4.252-.012 14.15 14.55 17.04 25.08 2.144 7.811.048 9.506-14.791 11.982-6.136 1.797-22.817.46-21.543-3.996 2.304-6.442 17.795-33.06 19.295-33.06m459.14-6.416l46.25-.316-9.923 38.12-48.44.136zm20.475 1.952l-21.265 15.284 17.325 16.478 22.56-14.494zm72.831 15.04l131.14 164.12c-37.39 49.32-74.55 105.88-98.33 180.2-47.528-105.95-66.07-209.58-32.808-344.31m-520.42 23.344c2.593-.046 4.755 2.01 4.801 4.604.046 2.593-2.042 4.756-4.635 4.801-2.593.046-4.724-2.042-4.77-4.635-.046-2.593 2.01-4.724 4.604-4.769m-14.635 6.603c8.01.426.91 26.05-10.973 35.556-9.367 7.495-13.509 4.168-15.941-9.202-.879-4.832-6.118-12.976-10.716-19.396-5.138-7.173-3.094-8.366 9.651-5.671 8.892 1.562 19.794-.734 27.979-1.287m428.56-1.333l48.49-.563-6.449 57.732zm-472.36 11c7.766 6.987 17.858 31.806 12.939 33.692-5.721 2.194-31.844-.371-34.814-3.324-2.046-2.034-2.052-2.045 2.112-7.82 2.29-3.176 6.643-9.508 9.69-14.08 2.758-3.348 5.72-12.345 10.07-8.469m27.01.376c-7.38.378-7.854 1.398-4.212 9.295 2.972 6.441 4.964 6.985 9.798 2.64 6.727-6.05 3.746-12.412-5.586-11.935m851.12-10.02l2.251 28.371c-184.75 95.73-250.69 315.23-251.7 315.24l-13.974-24.945c81.8-212.25 194.47-275.28 263.42-318.67m-877.65 49.09c11.09-.427 14.322-1.241 14.334 2.873.324 11.06-9.737 26.94-22.264 33.09-8.433 4.137-8.622 4.234-9.76-5.766-.875-7.694-3.563-17.57-7.699-25.399-1.306-2.907-6.242-9.539-.153-7.735 6.09 1.804 18.624 3.209 25.541 2.943m24.85-3.01c2.593-.046 4.724 2.01 4.77 4.604.046 2.593-2.01 4.724-4.604 4.769-2.593.046-4.724-2.01-4.769-4.604-.046-2.593 2.01-4.724 4.604-4.769m-59.28 7.522c2.01-.095 4 4.01 6.397 10.04 5.211 13.13 6.863 20.272 5.445 23.408-2.185 4.833-32.828 2.278-38.12-2.984-.976.758 22.02-27.736 26.28-30.468m22.09 2.892c-4.379.377-2.01 2.977 1.374 10.571 2.344 5.258 5.405 6.06 8.823 2.282 4.572-5.05 5.13-9.01 2.153-11.08-4.348-1.658-7.541-1.84-12.35-1.778m892.52 12.988l.33 9.511c-7.297-2.038-11.848-5.03-20.17-7.639-5.103-1.613-8.122-2.772-3.736-8.193 6.872-8.493 14.31-13.86 22.774-19.2l.238 10.777c-13.57 6.302-12.144 11.871.566 14.74m-538.92-.163l51.49-.909.6 33.995 40.27-.711-2.441 38.799-37.15.656.6 33.995-51.49.909-.6-33.995-36.776.649 2.285-38.796 33.807-.597zm116.3-1.935c-23.796 129.66 2.545 266.4 44.746 377.44l-20.261 2.593c-32.934-88.81-60.11-215.61-37.641-379.73 0 0 9.08-.324 13.156-.305m382.23-4.237c2.593-.046 4.724 2.01 4.769 4.604.046 2.593-2.01 4.724-4.604 4.769-2.593.046-4.724-2.01-4.769-4.604-.046-2.593 2.01-4.724 4.604-4.769m-905.64 26.828c1.706-.081 6.983 2.085 11.654 3.295 7.02 1.82 12.55 2.562 18.923 2.573 12.803.021 14.478-.124 9.155 10.496-3.834 7.651-12.591 17.828-18.789 20.991-8.768 4.882-12.172 4.301-11.799-4.418-.041-5.907-2.787-16.13-6.257-23.393-2.698-5.647-5.73-9.409-2.888-9.544m54.22 3.194c2.593-.046 4.755 2.01 4.801 4.604.046 2.593-2.042 4.755-4.635 4.801-2.593.046-4.724-2.042-4.77-4.635-.046-2.593 2.01-4.724 4.604-4.769m866.38-15.908c3.628-.142 9.89 1.973 15.615 4.631 15.18 7.05 14.806 8.735-5.335 23.567-14.611 11.499-18.09 12.82-18.933-4.885-.797-14.92.671-23 8.652-23.313m-928.19 20.662c5.976-.019 13.14 30.969 7.817 33.836-8.284 4.465-34.33-3.49-34.35-10.583-.0001-2.307 23.895-23.25 26.531-23.25m910.24-17.345c3.568-.22 4.092 2.572 3.94 12.495-.08 5.254.972 13.804 1.408 17.79.905 8.277.201 8.86-6.408 5.27-4.235-2.302-12.824-6.04-22.06-6.674-7.566-.521-8.174-3.618-5.921-8.641 6.478-11.155 18.425-19.12 29.04-20.24m-888 20.359c-5.214.054-3.873 2.804-.502 10.542 2.389 5.483 6.368 5.94 10.366 1.161 5.597-6.692 4.412-10.159-3.918-11.276-1.762-.235-4.743-.439-5.946-.426m881.31-8.145c-2.165.24-5.101 2.01-6.511 2.959-4.846 3.158-6.797 5.404.355 7.714 6.365 2.055 9.743 2.939 9.145-2.505-.36-3.279-.187-8.05-2.988-8.167m-483.23 12.56l.598 33.87 40.994-.723-.598-33.87zm446.73-4.946c2.593-.046 4.724 2.01 4.769 4.604.046 2.593-2.01 4.724-4.604 4.769-2.593.046-4.724-2.01-4.769-4.604-.046-2.593 2.01-4.724 4.604-4.769m-767.29 18.823l132.25 163.7-8.209 21.792-136.29-172.87zm855.26-15.875l.666 21.686c-14.423 10.948-106.02 79.82-152.02 193.83l-24.939 11.142c33.656-98.02 107.84-182.77 176.29-226.66m-983.62 26.548c8.464 2.412 16.605 8.124 24.569 9.04 9.155.951 12.295.314 9.904 5.076-5.353 10.664-15.612 21.913-26.582 25.723-7.842 2.725-11.585 1.824-10.431-3.098 2.161-9.214 2.425-16.75 1.964-25.1 1.169-4.577-2.835-10.89.576-11.637m-9.839 2.111c5.448 4.495 4.895 33.518-.984 39.867-3.074 3.319-12.211.5-25.971-6.98-8.995-4.889-10.711-7.939-6.322-11.11 7.452-4.706 29.2-22.792 33.28-21.778m923.93-15.68c2.79-.109 6.252.313 10.429 1.191 16.18 3.336 19.838 6.953 6.289 18.11-5.01 4.125-10.304 9.232-11.836 11.179-7.232 9.194-12.492 2.712-14.4-13.717-1.336-11.5.286-18.09 9.518-16.764m-20.16 1.918c2.618-.046 4.321 1.291 4.331 4.549.012 4.163 3.317 22.11 5.072 27.04 3.054 8.38.981 10.32-6.069 6.764-5.136-2.653-18.64-4.495-25.915-3.793-8.279.797-8.08-1.426-5.775-8.431 4.083-12.414 20.501-25.985 28.356-26.13m-885.88 21.635c-3.15.046-3.206 4.295-.878 13.986.74 3.084 3.399 2.846 8.363-.773 5.872-4.28 5.582-6.897-1.191-10.793-2.79-1.605-4.862-2.442-6.294-2.421m36.669.416c2.593-.046 4.724 2.01 4.77 4.604.046 2.593-2.01 4.724-4.604 4.769-2.593.046-4.724-2.01-4.77-4.604-.046-2.593 2.01-4.724 4.604-4.769m834.35 3.497c2.29 2.153 10.602 1.916 12.01.569 2.161-2.064.973-11.452-.878-12.549-4.713-1.512-14 8.559-11.134 11.98m-775.88 31.601c3.064 13.361 21.911 12.287 19.536-1.657-1.386-8.142-1.673-7.967 2.424-7.856 19.49.61 16.657 31.366-5.826 29.389-4.672.642-5.262 2.57-1.271 4.148 3.965 1.569 19.11 5.171 21.438 5.123 24.415-.514 60.3 36.403 60.02 69.73-.182 21.798 7.481 37.35 15.07 38.99 6.03 1.306 14.65-4.306 13.777-10.964-1.204-9.185 6.33-6.444 10.753.091 6.734 9.02-1.513 22.345-17.18 21.588-6.638 1.417 4.991 5.441 13.598 7.764 7.775.307 1.38 9.988-.033 11.718-4.3 5.176-18.754 1.535-30.2-7.375-14.05-10.94-20.262-25.824-22.416-55.24-1.385-18.909-2.864-22.73-8.232-14.826-9.592 17.585-33.441 9.484-36.725-8.853-1.829-9.707 6.621-16.885 9.546-8.107 7.67 18.213 25.574 13.489 22.327-4.676-2.142-11.984-14.284-18.403-38.16-24.674-28.702-7.539-37.37-17.17-43.35-40.491-2.647-10.325-2.353-15.757 3.03-21.276 2.66-2.727 6.06-5.514 6.06-5.514 0 0 4.09 15.692 5.813 22.964m746.82-28.05c2.593-.046 4.724 2.01 4.769 4.604.046 2.593-2.01 4.724-4.604 4.769-2.593.046-4.724-2.01-4.769-4.604-.046-2.593 2.01-4.724 4.604-4.769m-896.36 20.274c8.558 2.93 15.947 7.362 24.767 10.191 5.723 1.834 4.249 6.415-1.531 12.985-6.434 7.873-12.823 11.803-21.854 16.286l-.136-13.11c11-4.059 17.883-13.406-.765-16.03zm918.69-8.892c3.221-.028 7.785.009 13.155 1.019 13.602 2.561 15.211 3.738 7.238 13.406-2.956 3.584-7.353 8.987-9.758 12.02-7.816 11.305-12.2 7.551-16.185-6.809-4.897-14.981-6.06-20.739 5.551-19.633m-875.98 20.835c2.593-.046 4.724 2.01 4.769 4.604.046 2.593-2.01 4.724-4.604 4.769-2.593.046-4.724-2.01-4.77-4.604-.046-2.593 2.01-4.724 4.604-4.769m862.59-5.01c1.376 4.736 3.445 10.761 5.02 15.03 7.641 16.09 2.878 9.9-10.326 8.702-8.875-.805-22.949.922-26.481-1.465-1.556-1.949-.245-7.183 2.493-13.11 3.854-8.342 10.999-15.521 16.367-18.815 13.626-6.587 10.567 1.536 12.929 9.659m-791.88 8.204l151.16 192.7-11.291 16.717-155.48-198.13zm925.76-15.607c-75.81 56.844-104.11 124.71-109.94 133.61l111.81-45.42zm-146.5 8.951c-4.189 1.231-10.1 9.145-7.443 12.164 1.582 1.572 7.779 1.672 10.73.53 4.541-1.758 1.224-12.796-3.287-12.694m-643.61 222.64l-30.764 40.21-167.69-209.17 40.841-30.6zm782.12-219.97l2.446 72.867-95.58 41.843c31.28-55.04 62.27-89.27 93.14-114.71m-658.29 17.8l39.451 49.53-47.14-.24zm487.72-4.497c2.593-.046 4.724 2.01 4.769 4.604.046 2.593-2.01 4.724-4.604 4.769-2.593.046-4.724-2.01-4.769-4.604-.046-2.593 2.01-4.724 4.604-4.769m28.472 11.38c17.643-.069 23.545.782 18.571 9.541-6.695 8.582-10.595 16.692-17.923 24.649-4.231 4.462-9.778-4.488-14.536-18.879-3.842-11.622-2.052-14.598 4.852-14.817 6.904-.219 8.07-.489 9.04-.493m-20.09 16.17c1.524 4.591 5.03 12.12 7.796 16.709 2.764 4.586 5.862 9.682 5.691 10.582-.414 2.182-2.469 2.386-7.145.72-10.131-4.354-33.669.853-34.33-1.371-3.597-4.937 1.425-18.664 11.178-28.28 4.764-4.698 9.147-7.776 11.711-7.867 2.564-.09 3.091 3.451 5.102 9.508m-824.03 10.952l170.64 213.69-11.296 14.254-172.59-217.84c0 0-26.408 13.518-34.17 18.01l3.034 112.03-4.566-.138 10.698 567.51 91.45-94.46-8.01-385.06c20.08 18.232 37.33 37.752 60.26 55.56l38.707-.987c99.25-104.57 153.04-193.52 162.41-351.25 6.267-105.53-31.09-237.43-126.22-364.22l-22.434 14.171 45.997 66.73-94.17 43.736c-36.39 80.36-79.908 154.7-161.13 198.26l1.361 103.15-1.395 2.158 1.655 32.367zm815.74-6.996c-4.424.41-11.184 10.09-7.954 13.299 3.771 1.708 9.535 1.481 11.891-1.762 1.595-3.164 1.058-9.791-3.937-11.537m-497.24 31.09l48.997-.583-12.07 42.25-47.727-.061zm465.38-8.399c2.593-.046 4.724 2.01 4.769 4.604.046 2.593-2.01 4.724-4.604 4.769-2.593.046-4.724-2.01-4.769-4.604-.046-2.593 2.01-4.724 4.604-4.769m-249.57 5.685l7.296 54.46c-53.09 20.372-110.13 54.35-159.45 115.84-8.62-.414-77.31 1.958-77.31 1.958 1.723.215 61.61-117.77 67.847-168.63zm-193.94 8.508l-22.19 15.832 17.89 18.406 22.968-16.16zm467.56-8.02c4.776-.107 11.191.362 16.339 1.179 8.309 1.459 9.531 1.594 6.861 8.478-3.566 9.134-11.677 25.631-13.776 26.971-7.508 4.836-24.963-28.594-19.316-34.527 1.5-1.222 4.712-1.985 9.892-2.102m-21.298 10.751c2.167-.228 5.135 3.94 6.06 7.562 1.117 4.398 8.962 15.395 13.875 20.646 6.178 6.603 5.878 7.547-2.79 8.394-10.323 1.01-20.384 3.218-26.17 5.436-8.964 3.437-10.204 2.735-9.233-7.834 1.46-15.906 11.757-33.525 18.258-34.2m-7.341 32.98c1.182 3.054 15.08-2.838 15.79-6.541-.162-1.652-5.821-11.13-9.133-11.507-5.583.974-7.705 13.715-6.656 18.05m-472.78 6.187l46.31-.38-14.512 38.42-45.776.683zm20.819 4.748l-21.936 14.42 17.573 16.411 20.988-15.03zm471-1.394c3.931-.106 8.099.197 8.999 1.623 2.53 4.01-7.09 26.822-7.09 26.822l-16.207 6.759c-3.637-7.161-9.77-14.561-11.363-22.361-.639-3.409 1.068-4.689 4.809-6.876 5.576-3.26 14.3-5.788 20.852-5.967m-43.686 2.621c2.593-.046 4.724 2.01 4.769 4.604.046 2.593-2.01 4.724-4.604 4.77-2.593.046-4.724-2.01-4.769-4.604-.046-2.593 2.01-4.724 4.604-4.769m-211.15 4.378c0 0 11 56.36 11.436 50.12-76.71 30.445-121.12 74.16-141.79 116.41l-144.89 2.451 31.453-50.75 85.77-1.947c40.571-51.04 91.01-92.07 158.02-116.28m-18.314 13.636l-6.752 22.966 21.896 13.428 7.722-24.671zm237.34-3.747c1.833-.203 3.704 2.858 7.542 9.4 2.837 4.835 6.583 11.869 6.583 11.869l-6.437 2.525c-5.539-17.763-10.215-11.04-10.497 4.73l-8.816 3.694c0 0 .697-15.208 5.61-24.17 2.825-5.152 4.398-7.867 6.02-8.05m-471.99 23.953l44.909-.23-18.09 39.23-45.671-.444zm195.9-.332l-3.052 28.933 24.274 4.697 2.828-27.492zm-176.75 3.463l-21.931 14.733 14.898 18.896 21.09-14.718zm142.52 22.77l-4.124 26.671 22.775 4.755 4.684-26.837zm-492.96 10.262l57.764 55.27 10.05 392.54-55.46 57.61zm309.13 8.922c-.197.318 45.31.502 45.31.502l-17.627 33.18-15.563-.423 20.22-14.328-13.419-16.547-20.786 14.09 12.02 16.759-30.726-.114zm293.03 4.553l16.315 50.667-18.476 3.546-14.771-47.681c5.629-3.04 11.284-4.592 16.932-6.532m-145.59 5.754l.852 30.552 24.783 1.657.463-28.669zm123.1 2.707l14.956 48.15-11.703 3.556-17.661-45.644c4.562-2.809 9.346-4.892 14.408-6.06m-21.295 10.367l18.959 47.07c-24.858 10.593-50.44 32.78-69.6 54.813-14.675-10.389-23.22-11.355-32.2-13.604 23.837-46.35 52.52-70.974 82.84-88.27m-273.33 16.707l47.643.597-32.25 50.05-53.868.888zm141.78-.658l-2.583 28.988 25.762 14.61 3.35-29.782zm-30.642 4.604l-17.784 19.473 19.635 21.626 17.249-23.25zm-40.508 1.715l-21.18 20.13 17.517 22.04 19.288-22.813zm-273.96 23.261l8.877 383.5-77.75 78.05-.955-20.62 61.724-66.773c-2.219-129.73-4.919-259.46-7.644-389.18zm210.23-16.1l-21.315 30.16 25.903-.394 18.269-29.17zm-131.42 187.97c-8.07 31.14-47.18 65.45-47.897 64.898 20.15 27.825 20.2 68.01 3.215 88.1.073-.446 32.06 25.16 36.719 38.671 2.59 5.367 3.707 11.939 6.962 17.255.861 1.407 3.589 4.895 3.589 4.895 75.62-79.43 37.34-170.28-2.588-213.82m1.297 8.08c76.39 91.43 28.607 177.19 2.942 201.33l-5.127-8.14c54.41-65.54 29.469-144.44-3.562-181.41zm-7.772 18.19c.525 1.497 3.513 5.814 1.349 5.571l-3.763-.684zm-.38 10.352c1.624-.029 2.991.453 3.747 1.559 1.567 2.505-5.782 23.967-10.643 19.08-1.489-2.79-3.226-5.202-4.602-8.095-1.618-3.452-.624-5.149 2.878-8.673 2.414-2.429 5.914-3.821 8.621-3.871m10.85 5.591c3.785.227 9.37 12.03 10.02 20.514.249.877-12.797-1.773-16.322-5.682.356-3.489 3.46-12.399 6.302-14.832m-29.07 10.223c23.307 44.859 22.522 80.23 3.277 113.08l-15.759-13.01c10-24.897 14.705-51.37-3.466-84.65zm15.382 11.05c1.556-.163 6.376.464 10.658 1.75 15.15 4.549 15.886 14.395 1.511 21.883-5.954 3.101-7.85 1.809-11.578-13.204-1.844-7.424-3.184-10.156-.591-10.429m29.395 16.828c2.904-.066 4.336 5.399 4.857 14.854.494 8.98-1.403 9.72-8.753 3.436-7.946-6.792-9.322-8.415-2.252-14.244 2.07-1.707 4.829-4.02 6.148-4.047m-20.266 15.204c1.428-.15 5.635 2.429 9.754 5.454 10.438 7.665 8.248 13.09-3.386 17.09-8.06 2.773-7.653 3.098-7.694-10.928-.02-6.936-.51-11.427 1.326-11.619m136.58 10.36c-12.515 3.412-17.597 14.719-13.247 24.741 1.976 4.553 4.859 4.54 1.529 7.405-3.698 4.422-5.525 14.541-1.308 18.14 4.949 2.721 6.123-2.142 1.13 7.428l-91.63 175.62 568.43-11.09-70.58-126.75c.154-.186 5.091-21.21-5.883-23.538-3.526-.748-5.592-3.973-6.359-7.084.734-8.918-3.376-12.634-6.861-17.17-53.903 8.585-100.91 5.612-139.84-2.426-56.07-11.578-96.38-32.623-122.46-38.997-35.962-8.79-79.24-12.12-112.93-6.28m30.641.66c44.04-1.041 93.58 11.57 128.35 25.895 36.06 14.155 74.18 24.506 112.6 29.486 31.696 3.42 63.2.865 93.41-2.069 3.297-.554 6.731-.162 9.24 2.414 6.39 6.855 2.199 11.293-13.46 13.02-25.15 2.523-56.39 2.185-84.16-1.484-43.952-4.266-90.68-16.707-131.1-32.629-50.47-17.928-96.63-23.413-132.92-17.22-19.929 3.401-22.857 3.93-22.873-1.44-.031-10.475 8.55-15.411 40.912-15.974m-143.79 32.913c-1.855 4.47-15.811-9.809-15.745-13.909.258-1.811 11.22-9.243 15.569-12.262 2.099-1.671 1.976-.819 2.037 1.098.174 5.471-.013 19.614-1.861 25.07m-21.278-10.34c6.336.739 17.03 17.621 7.924 20.426-8.06 2.484-15.408 4.12-16.492-1.3 3.938-13.423 5.413-18.734 7.818-19.08.245-.037.505-.044.749-.044m368.62 51.792c40.473 6.265 93.51 9.508 128.08 6.191 19.81-2.347 24-1.781 24.02 6.495.015 5.185.58 5.05-25.03 5.474-21.259 1.795-40.463-.15-61.09-.851-42.672-1.365-81.53-7.986-117.55-19.782-39.895-9.6-74.65-28.788-113.59-32.19-35.703-2.866-67.65 4.01-74.31 7.862-2.244.0001-3.476-3.296-3.397-6.366.077-3 1.153-5.429 3.623-7.387 101.7-27.572 157.37 26.657 239.24 40.552m-354.85-27.875c3.405-.022 2.411 5.03-2.972 15.805-4.576 9.157-6.442 9.143-9.285-.117-3.036-9.892-2.78-10.997 2.873-12.553 3.329-.862 6.125-2.659 9.383-3.135m-23.751 5.483c3.992-.011 9.976 17.958 7.129 21.409-2.25 2.727-10.591 1.051-13.07-2.08-3.986-5.04.747-19.312 5.939-19.328m178.67 1.731c15.843-.44 31.666.976 46.23 3.217-8.305 3.237-16.574 6.235-25.17 11.404-6.085-5.05-12.985-9.942-21.06-14.62m20.978 21.567c55.45-32.21 79.85 10.478 88.07 17.285 48.767-11.699 58.45-6.531 86.28 22.495 48.6-24.834 72.73-4.877 93.41 7.651 23.611-22.857 54.04-24.01 70.1-13.03 3.057 4.911 7.29 11.136 7.661 13.01.289 1.459-1.983-.206-7.571-4.057-29.15-20.09-76.48 6.405-63.23 33.34 3.566 7.256 3.075 10.418-2.01 13.444-7.215 5.069-16.33-2.969-11.391-11.426 8.246-14.12 1.647-25.699-19.2-36.14-29.385-14.709-76.65 3.184-66.47 25.458 6.391 7.06.67 12.216-7.6 12.1-9.365-.126-12.648-6.332-6.764-13.13 7.338-8.681 5.218-17.311-3.679-27.03-26.801-36.78-79.44-21.08-71.86 11.429 3.215 8.05-5.469 11.479-14.609 8.03-5.816-2.191-5.11-11.135 1.152-14.398 7.26-.864 8.105-11.414 7.118-18.16-1.436-9.814-16.12-19.254-30.558-24.14-10.452-3.538-20.11-4.166-27.717-3.335-16.05 1.754-24.831 12.828-21.896 29.14 1.732 9.624-.791 19.677-12.213 14.57-6.25-2.794-4.817-9.836 1.398-16.411 21.874-22.13-23.41-47.788-50.15-29.09-4.52 3.851-7.855 4.567-7.855 4.567 16.223-42.539 70.05-3.918 69.59-2.182m73.65-6.991l34.04 12.137c-7.771 1.677-13.224 3.972-18.709 6.259zm-88.07 15.293c-31.31-5.362-32.393 29.537-11.957 34.867-27.3 38.93 46.23 52.56 31.95 5.365 37.24 6.03 29.78-36.09 2.182-35.22 6.179-15.852 57.35-4.825 55.36 6.907-34.387 4.262-20.07 35.404-5.16 35.18-35.424 34.741 37.22 64.91 34.399 13.532 29.03 5.569 31.755-32.883 3.909-34.918 9.93-14.505 46.45-6.115 56.826 10.09-28.634 4.313-26.395 29.49-3.863 33.16-27.826 36.746 42.468 48.906 34.443 6.9 25.26 8.188 38.443-25.547 5.749-34.548 32.966-20.434 69.66 8.511 65.756 9.183-38.06-1.578-29.818 36.38-2.341 33.832-16.806 39.869 52.598 40.846 34.28.129 31.21.022 27.834-36.08-2.099-37.969 18.58-14.05 39.782-15.632 53.662-3.034-28.315 7.985-15.912 40.84 12.543 31.18 3.136 27.62 25.528 21.354 26.01 20.509l20.79 37.2-545.4 10.5 45.03-86.74c27.541.925 26.09-25.543 24.872-26.17 18.527 12.74 37.632-20.08 10.697-28.911 21.464-23.269 54.27-2.706 52.36-1.028m-177.6.738c-1.119 1.186-1.401 1.888-3.31.184-4.851-5.357 8.07-6.04 3.31-.184m113.04 12.4c2.438 1.925.88 7.339-1.038 9.215-4.823 5.351-6.489 4.961-2.322-4.204 1.227-2.773 2.398-5.03 3.36-5.01m239-1.781l28.479 6.355-13.332 7.831c-5.068-5.314-9.94-9.896-15.15-14.187m88.83 9.855l30.874 1.424c-4.03 2.845-7.979 5.495-12.877 10.635-3.955-4.056-11.383-8.05-17.997-12.06m103.3 29.637c1.778 3.546 8.806 15.866 8.17 16.203-9.944 1.914-12.877-12.882-8.17-16.203" fill="#100f08"/>
  </g>
 </g>
</svg>
