<svg xmlns="http://www.w3.org/2000/svg" viewBox="0 0 744.09 1052.36">
 <g transform="translate(-735.7-136.72)">
  <rect y="507" x="996.13" height="311.81" width="223.23" rx="10.63" fill="#fff" stroke="#000" stroke-width=".997"/>
  <g transform="matrix(.15184 0 0 .15184 863.03 565.96)">
   <path d="m5296.81 1126.3l351.79 7.506c31.16 42.774 93.73 129.99 93.73 129.99l-568.37 7.475zm-147.22 29.777c15.199-30.474 18.14-59.843 15.248-102.17-2.285-32.479 18.16-57.777 39.26-48.08 16.313 7.497 8.783 38.23-8.08 31.723-6.452-2.488-12.11-.23-11.257 14.367 1.507 35.973 11.147 76.49 2.858 110.98-5.778 33.507-52.13 18.07-38.02-6.813m-142.43-46.989c-17.909-26.704 14.184-51.726 34.28-39.4 9.529 4.429 8.181 14.07-3.829 8.931-16.757-7.171-34.8 18.205-20.22 28.398 6.717 4.695 9.275 4.065 4.167-1.809-13.591-15.711 21.18-22.655 20.17-12.306-2.376 12.605-2.673 17.91-3.83 20.389-7.081 11-20.688 5.385-30.735-4.201m49.948-112.29c-19.343-24 2.838-42.873 2.544-42.19 5.739-6.181-46.09-102.21-39.541-102.84 65.46-6.925 131.62-1.698 197.21.334.019.005-34.976 62.52-48.918 93.46-5.618 12.466 7.514 27.14 2.08 36.398-16.886 18.345-6.387 38.665-16.915 39.579-29.534-3.771-58.723-8.644-91.47-2.122-2.414 0-2.668-13.701-4.99-22.623m283.35-667.22c33.1 167.46-15.699 344.98-127.57 462.09-15.792-15.08-27.899-43.705-43.648-62.38-43.722-13.05-75.18 2.31-105.83 17.35-27.24-15.602-57.92-24.782-87.82-24.388l-.967-25.899c30.26-.65 62.22 2.13 89.16 18.704l42.16-17.01-131.46-135.56 1.786-23.17 159.52 159.99 20.542.727c-45.15-119.3-5.652-308.78 184.14-370.46m222.43 210.06l23.06 109.36c0 0-121.93 130.56-197.31 192.53l-56.802-5.139c0 0 77.59-137.19 63.36-126.7zm458.36 149.99c-54.15 60.27-118.84 98.6-190.7 140.82-28.726-31.901-63.59-66.987-83.72-98.44 62.68-33.3 122.44-59.09 183.81-117.38-3.362 3.764-78.3 29.05-78.05 26.13-2.703 12.44-1.078 20.11-13.269 23.388-14.434-20.04-28.393-36.31-51.15-45.27-9.547.855-22.22-5.413-22.22-5.414 6.376-1.3 3.566-78.21.021-79.09 0 0 1.867-2.281 18.538-1.947 29.776-2.034 49.02-37.84 67.49-50.1 57.73-4.721 108.87.934 165.74-.595-.435 68.46 3.535 139.43 3.515 207.89m-366.59-173.38c-1.452-2.903-16.02-116.33-2.179-187.47 2.549-16.685 28.993-22.345 34.06-34.771 8.409-27.02-4.225-60.38 2.441-90.66 6.785-30.821 21.43-48.16 34.25-71.07 13.882-24.816 33.756-55.781 55.787-74.29 6.465-6.289 29.05 13.981 45.926 49.02 49.02 30.71 111.88-8.919 111.88-8.919 0 0 24.397 19.802 79.57 30.625l-.945 21.309c-.275 6.198-62.05-6.597-75.35-18.964 0 0-46.09 15.339-46.08 18.14.012 11.94 121.67 124.08 121.67 124.08l.685 27.652c-18.24-25.26-160.94-146.68-160.94-146.68 31.638 184.73-43.931 299.77-200.77 361.99m-204.14-36.15l-2.738-108.79 103.97 1.23 4.276 109.92zm-475.76-117.59c2.777-3.86-4.047-202.76-3.614-202.76 66.17-65.5 130.89-102.11 195.78-141.93 29.341 28.916 54.28 53.31 75.893 88.34l-89.52 54.863c3.4 13.371-5.428 18.19 52.28 70.25.972-3.564 19.985-14.16 23.305 1.692-7.815 33.46 3.469 61.906 4.954 79.893-7.883 10.54-25.497-.775-25.497-.775-11.402-11.824-56.07 46.552-68.826 53.08-55.646-2.066-167.87 1.691-164.75-2.65m626.34-354.67c.728-.71 56.59.428 55.844 2.423-10.176 27.15-35.443 75.35-58.56 130.97-26.641 47.4-63.6 75.32-95.15 106.39-25.23 24.835-47.712 63.967-64.944 53.812-10.52-33.642-12.95-63.48-24.549-100.75-5.313-22.08 26.939-36.472 187.36-192.83m244.46-186.49c20.463 8.688 77.954 4.141 87.08.233 11.693 7.896 4.392 18.427 2.915 24.272 12 15.12 18.576 20.487 4.944 44.868-3.112 0 41.902 100.89 43.11 100.96 0 0-47.572-22.474-64.35-37.654l-32.814 43.43-38.12-49.04c-.137 4.426-73.45 52.851-74.34 50.51-2.304-2.304 66.954-76.52 53.21-120.1-3.311-10.502 4.269-21.17 9.447-30.425 3.554-6.35-1.226-18.624 8.922-27.06m-38.06-9.04c3.105-3.549-17.78-94.78 4.859-131.6 9.589-13.39 26.933-14.07 34.18-3.113 5.543 15.245-10.963 36.466-14.275 46.83-10.736 28.877 5.206 66.969-2.576 94.26-23.301 59.61-64.57-5.865-22.19-6.376m155.12-40.515c-12.283.534-3.708-36.01-1.683-46.47-.054-2.073 22.481-7.307 30.602 7.06 13.11 21.479-2.65 48.571-28.919 39.41m-146.47-184.23l-115.7 140.09c-116.99-13.408-234.39-21.923-354.01-3.696l-96.21-133.62z" transform="translate(-3885.24 204.78)" fill="#e2cf00"/>
   <path d="m2140.87-217.94l-1070.44 3.313 11.75 1699.25 1068-6.313zm-246.28 10.406c11.74.003 23.481.032 35.22.063l-128.16 156.97-3.152 1.051c8.541 24.907 20.73 55.96 32.371 79.54 18.54 38.11 65.13 108.16 36.06 164.19-2.849 4.802-5.497 7.142-9.06 7.125-4.939-.023-4.847-2.911-1.906-8.531 6.476-12.379 10.866-41.722 8.281-57.25-1.65-9.911-7.18-25.19-17.688-48.28-48.701-89.55-63.919-137.28-61.16-137.28-.637-.404-1.725-.954-3.5-1.375l-4.783-1.583c16.876 56.61 44.3 104.2 66 148.27 17.802 40.955 19.713 56.845 10.406 86.66-3.603 11.544-10.122 18.937-16.531 18.906-4.801-.023-4.526-.987-1.25-6.844 17.06-30.496 13.11-63.78-8.094-102.5-30.798-63.952-49.28-104.41-60.25-145.44-.275-.016-5.62-1.803-7.543-2.261 9.135 42.705 34.661 91.96 58.42 142.35 19.644 38.81 25.303 67.1 18.219 89.44-2.32 9.684-9.728 24.11-19.09 24.531-3.661-.017-4.24-1.921-.781-6.906 14.557-24.858 17.14-47.781-8.906-99.97-23.949-47.983-47.978-101.68-56.19-148.59-.52-3.849-10.931-8.41-8.687-2.031 12.853 55.41 38.463 112.15 65.66 167.47 15.311 34.34 16.895 56.32 5.406 75.53-6.423 10.743-8.06 13.187-12.875 13.29-5.691.122-5.59.334-2.448-6.198 13.89-28.881 11.609-54.32-6.958-96.06-25.461-57.23-46.905-104.6-56.06-154.97-1.644-.47-10.265-3.802-9.03-1.281 12.733 47.985 29.03 92.52 50.03 137.56 7.314 15.626 19.17 46.02 23 61.25 7.259 28.994-9.111 68.805-30.531 70.813-7.987.749-6.992-3.218 1.906-11.469 15.323-14.208 18.293-36.866 13.09-63.16-3.905-20.241-10.631-41.961-19.875-64.03-18.694-44.633-39.04-91.33-45.47-132.53.209-3.691-8.354-3.702-5.938.156 4.622 28.967 15.663 61.957 27.75 92.59 13.226 33.522 32.908 71.08 39.35 112.22 5.274 33.661-15.799 65.44-41.37 67.34-30.796 2.287-36.861-28.1-29.453-42.34 12.08-21.263 47.18-9.118 36.75 12.625-6.01 12.516-24.344 9.229-23.562-4.5-.212-1.249 1.758-5.01 1.406-5.219-.637-.369-3.326 2.089-4.188 3.625-6.232 11.11 12.489 26.03 25.5 17.09 43.603-23.547 14.157-95.35-4.844-139.22-18.403-40.869-31.896-77.8-37.75-115.62-1.591-1.102-8.789-2.923-7.781-1.625 5.279 20.19 7.716 37.22 12.969 54.19 8.237 26.607 23.01 56.39 35.06 86.22 10.95 29.358 21.945 54.3 16.937 84.91-.468 2.826-1.627 6.22-3.562 8.281-1.959 2.048-3.576 1.732-4.156-6.06-.199-1.062-1.575-2.461-1.781-3.813 1.071-11.499.289-22.9-2.687-33.719-2.549-9.06-7.406-18.307-17.656-35.906-4.04-6.554-14.62-26.59-10.91-12.744 2.132 7.831 9.39 25.23 16.942 37.838 4.687 7.824 9.616 29.19 8.156 33.31-1.54 4.04-5.115 4.265-6.781 2.875-1.499-1.25-1.49-6.967-1.875-10.5-1.583-14.513-16.479-39.84-26.813-49.781-7.422-8.262 17.486 35.13 19.313 46.688.773 4.897 2.301 8.879.625 11.281-1.104 1.582-3.342 1.592-5.531 1.031-2.107-.539-2.02-1.99-4.25-9.438-3.821-12.746-8.544-19.17-18.344-30.656-3.358-3.937-5.601.988-.25 7.375 7.4 11.653 12.96 19.1 14.844 34.09-4.795 6.791-7.155 5.471-17.188-11.719-6.627-11.355-10.605-14.271-12.344-14.188-4.397.211-.246 5.635 12.09 25.03 6.391 10.351 6.546 16.784-.719 16.75-2.463-.012-16.262-15.15-19.719-21.719-2.868-5.447-6.426-9.624-6.438-2.969 0 2.644 8.545 16.576 14.406 23.344 9.239 10.667 11.886 12.808 13.06 17.531.561 2.253 1.678 6.188 2.469 8.75 2.369 7.677 1.167 9.869-3.625 5.813-2.166-5.687-3.926-6.277-9.875-10.656-5.01-3.692-11.973-13.254-16.531-20-1.721-2.546-3.203-5.777-4.961-8.373-4.477-8.342-10.424-9.06-6.12-.649 2.037 3.902 5.336 10.306 8.8 15.05 5.805 8.238 4.604 12.533-2.281 12.5-2.946-.014-11.192-10.791-16.344-19.219-3.36-5.495-8.612-9.383-7.969-3.938.16 1.353 4.22 11.01 10.313 18.563 6.618 8.203 7.485 12.562 1.062 12.531-4.384-.021-8.159-4.19-13.75-12.688-5.311-8.07-8.624-10.917-10.125-10-1.904 1.164 7.617 17.17 15.438 25.906 7.397 8.266 1.972 12.973-6.531 5.625-4.613-3.987-13.848-15.88-16.438-21.531-4.631-10.11-7.615-7.347-4.625.656 3.297 8.826 8.44 18.478 14.656 24.75 3.257 3.285 9.973 5.861 13.25 8.688 9.284 8.01 15.16 15.397 14.406 16.719-26.474 1.49-48.21-26.67-54.16-43.719-4.224-11.21-9.04-12.861-4.469 2.969 12.908 39.33 53.15 59.751 80.969 42.12 16.79-10.637 1.958-38.33-11.781-29.406-3.733 2.425-3.902 9.302.844 5.625 8.923-6.914 17.896 10.141 8.156 15.188-13.69 7.093-28.878-6.792-19.563-23.625 9.203-17.285 46.09-7.39 38.875 20.531-4.374 12.532-23.525 28.19-39.938 28.5-30.504.573-51.569-22.736-63.31-45.75-1.504-2.962-4.202-8.781-6.433-13.53-1.928-4.104-3.454-7.15-3.61-7.119 3.394 27.947 30.18 62.5 54.17 68.21 39.859 9.338 50.763-14.34 76.844-38.813 0 0 19.05 2.47 19.719 2.063 1.756-1.074 37.07-2.647 38.12-1.656-142.69 257.84-131.83 563.94-9.125 796.28 8.113 17 9.53 13.779-3.906 10.312-13.882-3.608-26.472 1.938-37.75-.656-23.325-4.749-28.3 11.12-46.22 19.594-22.358 8.417-17.298 23.906-22.625 38.875-1.679 2.319-2.897 4.216-1.98 3.91 1.479-.494 6.246-4.887 6.605-8.754.918-9.908 4.463-17.743 8.5-21.688 3.848-3.759 6.538-5.656 7.469-4.03.726 1.27.181 5.703-1.719 9.281-5.422 10.213 1.77 44.36 2.219 20.06.356-19.289 12.09-40.802 28.5-49.603 13.14-6.409 17.211-5.755 6.518 4.111-12.155 12.911-20.417 27.954-20.905 46.677-.202 7.766 2.894 14.241 4 7.281-.467-35.653 35.28-75.36 73.6-55.625 1.91 1.373 3.524 3.961 2.958 5.416-37.12-6.204-69.42 14.01-64.66 61.863 0 0 3.331-9.376 5.2-18.738 5.849-29.3 39.11-42.13 62.44-34.09 4.387 1.839 7.834 8.01 7.219 8.844-28.527-8.924-59.841 17.948-61.66 47.06-.59 9.469-.366 17.585 4.5.5 18.422-64.69 75.26-35.37 68.27-30.06-43.987-5.231-59.909 24.267-58.896 58.38.631 3.116 2.237 4.159 3.563 7.06 5.863 12.851 8.529 23.867 9 47.19-.446 6.01 4.535 44.25-.488 42.639-15.977-5.887-28.12-12.841-55.804-.432-2.492.133-3.308-1.237-2.454-3.39 1.149-2.895 5.479-8.616 13.03-17.07 17.01-18.07 7.237-13.224-6.745-.693-9.03 8.092-7.07 2.561 1.437-25.07 3.447-11.205 1.301-12.561-13.536-20.07-15.27-7.73-25.836-8.91-12.875-.812 5.082 3.096 10.504 6.347 16.27 8.64 6.76 3.681 5.988 5.226 1 21.375-9.691 31.367-13.06 42.826-12.551 63.922 1.234 51.31 50.3 46.22 78.23 34.683l1.161 33.784 105.2 147.66c0 0-367.73-.379-564.47 2.843 11.237-26.885 130.17-140.76 137.25-161.12.678.097-13.185-41.63-20.469-59.781-34.397-85.72-79.61-121.75-53.43-178.07 5.634-11.161 6.612-14.924 10.896-14.903 5.809.026 7.67 3.873 1.134 14.793-28.11 46.981 31.869 128.04 52.13 179.75 3.247 8.284 16.823 47.08 19.21 60.15.228 3.993 9.749 5.353 7.084.688-7.47-26.419-16.851-55.27-21.21-65.66-16.02-38.17-32.866-64.22-48.48-101.53-8.726-23.576-13.367-50.809.165-75.25 4.927-8.899 6.334-13.847 9.585-14.312 2.8.013 4.444.961 4.625 3.25.198 2.499-1.349 6.598-5.03 12.844-23.635 40.09 18.373 104.87 39.19 151.06 13.569 30.11 25.636 61.782 29.906 90.34.061 1.973 2.675 7.201 7.884 3.635-9-53.35-35.466-105.09-58.646-154.94-19.8-38.941-27.23-72.887-.769-104.95 2.303-2.214 7.241-1.847 7.594 1.438.187 2.228-1.519 6.453-5.656 15-23.315 48.584 12.783 88.05 29.719 134.37 16.522 38.73 31.888 71.26 38.06 112.53 4.673 1.767 6.986 3.981 7.487-1.864-12.08-58.32-38.14-110.73-60.737-161.23-10.442-21.94-14.14-32.461-14.844-47.16-.974-20.21 9.231-45.778 18.384-52.52 2.373-1.748 3.855-2.059 6.02-.886 2.97 1.608 2.373 2.679-3.5 13.75-11.219 21.15-12.184 44.905-1.781 70.03 17.966 38.587 33.1 70.26 43.827 98.63 11.733 31.03 18.33 57.977 20.993 82.3 0 0 7.992 3.539 6.804-1.752-4.986-34.03-16.262-69.34-28.437-99.22-11.491-28.2-25.89-55.34-37.562-83.3-14.15-33.53-2.431-70.18 26.592-88.49l13.353.292c-.777-.35-30.453 11.395-32.01 53.667-1.482 40.28 17.659 65.04 31.5 99.16 16.874 41.15 31.973 77.24 35.563 121.22 1.322 1.532 8.632 1.858 8.509 1.21-3.593-29.583-12.257-57.704-24.634-92.27-13.152-36.734-26.23-53.02-38.438-91.59-8.258-26.1-7.145-61.44 11.25-77.59 27.528-27.723 65.94-7.982 56.31 23.75-7.425 22.335-38.11 17.894-37.949-3.03-.039-13.514 16.648-17.17 22.17-6.968 1.286 1.986 2.147 10.676 2.719 11 .573.324 2.303-6.837 2.313-8.438.052-11.1-15.06-20.448-26.313-14.812-15.409 7.717-25.42 25.463-24.406 49.22 1.077 25.27 5.672 41.613 26.414 81.24 24.17 46.16 32.19 96.16 37.34 129.84 2.228-.932 4.907.262 5.773 0-3.522-45.924-18.659-93.09-37.542-132.31-22.872-47.49-29.28-76.56-21.646-97.83 1.122-3.129 2.184-5.481 3.563-5.688 2.557-.382 3.348 3.696 5.719 12.219.727 2.615-.191 6.732-.719 9.906-1.992 19.482 11.703 59.993 24.438 78 3.728 5.133 8.492 4.959 4.375-4.156-13.12-23.54-21.11-44.88-22.16-73.5-.308-8.413 9.519-4.634 9.739-.415.713 13.668 2.082 29.769 8.636 41.23 13.302 22.675 20.706 23.663 7.094-1.656-3.02-5.876-11.671-30.712-8.188-39.25 1.941-1.74 4.302-2.052 5.469-.313 3.849 14.04 9.176 27.938 18.594 38.75 4.939 5.628 5.752 3.086 3.156-3.938-4.336-8.129-17.904-35.31-11.656-41.44 2.02-1.658.833-.758 6.313 8.156 7.63 12.413 11.791 17.278 15.5 20.906 4.933 4.827 6.13 1.58 1.031-6.906-10.182-16.946-15.976-31.03-12.397-34.572 3.534-3.5 4.389-1.879 12.429 11.76 3.578 6.07 8.759 15.01 10.531 17.12 1.759 2.096 3.37 2.642 3.406.906-1.877-16.457-16.07-35.24-21.781-38.5-.822-1.53-.531-14.531-.531-14.531 21.321 10.939 22.19 23.277 36.31 42.28 1.452 1.414 3.525-.313 2.906-2.938-.496-3.559-8.854-19.368-14.09-26.313-4.123-5.453-4.309-8.583-.813-10.156 5.649-2.542 13.535 5.819 21.938 20.75 3.899 6.929 9.108 10.947 9.125 7.312.001-2-7.243-19.867-12.25-25.03-8.338-8.599-4.216-14.613 5.438-6.656 4.382 3.612 10.319 6.326 16.438 19.469 3.573 7.676 6.641 8.657 6.656 2.531.018-6.88-11.601-23.693-19.406-28.344-6.05-3.605-9.482-7.628-7.781-10.313 5.299-7.757 26.742 12.03 34.06 30.438 2.161 5.433 5.945 8.204 6.875 5.813 1.645-1.216-2.698-14.481-7.156-20.625-7.361-14.04-24.755-27.606-35.06-25.969-1.993.316-7.469-11.188-7.469-11.188 26.293-4.227 51.832 27.12 56.37 38.844 8.622 22.257 13.01 19.645 5.469.125-14.732-38.15-60.51-59.52-85.91-41.06-14.466 10.51-5.814 35.645 9.06 31.381 5.916-2.207 11.645-8.208 1.243-6.229-11.571 1.153-15.261-16.386-3.463-19.902 18.982-5.657 23.332 24.45 8 31.16-15.908 6.789-31.74-3.337-30.25-20.719 2.817-32.859 43.37-42.36 83.41-15.781 11.259 7.475 25.11 31.845 29.875 47.28 1.575 5.104 6.877 6.888 7.526 6.245 1.521-1.507-11.12-28.631-15.276-35.526-17.433-39.732-80.46-41.696-80.46-39.641 0 0-24.685 15.461-46.611 40.942l-56.33-5.163c143.52-229.41 154.8-566.7 7.591-805.48 1.883 1.21 28.3 8.01 37.41.875 6.718-3.202 8.645-4.311 16.06-1.656 8.352 2.989 17.15.344 26.25-7.938 6.854-6.24 6.99-8.163 11.406-7.594 13.07 1.686 21.745-5.927 24.437-24.688 1.058-7.37 1.784-15.03.719-13.906-.618.65-2.133 7.03-3.094 11.03-2.643 11.02-5.092 15.06-9.406 18.656-7.108 5.924-11.216 2.61-8.25-6.375 2.807-5.799 5.144-20.716 1.281-27.5-.675-1.219-.837 3.398-1.812 7.094-7.76 29.396-15.888 44.32-29.95 47.764-6.6 1.616-9.653.616-7.518-3.169 24.808-26.309 23.15-55.46 21.281-52.971-5.271 16.869-15.07 42.01-31.16 52.34-13.892 8.924-34.24 9.775-45.563 2.281-6.426-4.254 3.284-5.514 17.833-5.709 24.506-.329 47.41-32.897 43.604-60.35-.895-5.074-2.291.372-4.281 8.719-9.04 29.732-24.548 50.604-59.969 44.37-2.768-.487-4.617-2.303-6.125-3.344-5.767-3.98-3.642-6.707 7.813-5.219 25.623 3.33 47.918-20.576 47.781-49.47-.066-13.863-2.063-13.7-4.281-3.375-3.117 14.557-14.499 59.21-55.938 44.625-7.462-4.03-11.533-9.179-8.875-9.938 24.17 4.851 46.31-.436 54.922-32.03 3.716-13.642 2.823-26.962-.953-38.12-1.201-7.581-3.762-13.361-4.625-21.06-2.312-20.633-5.62-43.42-4.625-66 1.983-1.964 2.327-1.535 9.281 3.063 13.657 9.03 23.989 6.948 37.875 1.594 17.867-6.423 16.246-5.262-2.438 15.75-3.896 4.382-7.834 9.73-8.281 10.563-4.757 8.867 4.162 2.357 10.844-6 9.285-11.613 11.231-14.29 13.06-14.281.619 12.553-3.926 27.809-6.281 38.09-3.087 11.409-3.047 14.04 4.25 16.969 3.163 1.269 9.265 3.762 12.656 5.375 15.281 7.267 13.873 1.353 1.688-5.5-16.454-9.252-16.588-8.787-11.875-24.16 5.516-18.02 8.23-33.63 11.219-51.47 7.389-44.11-26.04-68.37-70.44-52.969-2.539 1.272-5.477-23.19-5.062-29.656.39-2.335-6.713-1.824-12.531-8.938 1.776-1.579-65.47-85.45-96.78-136.31 175.58-.217 351.96-3.165 528.06-3.125zm-109.19 157.59c.431.274.688.5.688.5-.289-.34-.523-.5-.688-.5m152.19-153.59h188.31l2.719 405.62-16.688.406c0 0-31.436-53.844-39.719-79.28-2.069-6.354-5.686-15.1-7.094-18.531-3.197-7.782-5.434-8.745-1.188-13.5 8.506-9.522 6.829-28.782-1.438-38.06-2.557-3.01-3.88-1.993-3.75-9.313.111-6.294.703-10.317-.969-13.563-2.794-5.423-4.686-5.808-.687-11.781 4.187-6.254 9.748-16.405 12.09-24.375 3.788-12.869 1.122-15.276 9.563-12.25 21.19 6.718 38.932-8.336 38.38-29.616-.465-17.908-17.287-33.873-36.849-28.978-4.51 1.128-5.401.744-12.344-3.594-1.99-1.243-5.02-3.869-7.594-4.844-3.222-1.221-5.882-1.116-7.219-3.406-2.625-4.498-10.809-11.646-20.781-11.188-6.089.28-13.997-1.909-16.09-3-3.472-1.807-13.228-.337-25.625-2.188-5.511-.823-9.954 1.312-12.625 1.344-7.632.091-4.519-.849-5.969-6.625-9.566-30.12-37.508-26.526-50.31-3.875-4.699 8.887-8.102 22.07-9.875 35.688l-75.25-1.125zm-582.37.875c28.11 35.609 55.01 75.52 83.34 111.87 34.872 44.03 36.02 49.09 26.656 93.41-5.238 25.05-7.482 30.83-18.09 28.938-9.962-1.777-18.392 6.03-19.75 15.906-2.55 18.548 15.401 29.966 33.438 20.688 9.51-4.892 9.825-5.421 6.656 10.75-4.541 23.17-13.643 43.12-19.5 42.469-15.12-31.96-51.905-9.22-39.69 24.01-3.824 5.8 1.201 13.152 3.123 19.227 0 0 .079.72-20.933 7.642-103.17 30.415-230.95 109.81-300.72 184.34l-4.75-557.72zm592 76.09c4.327-.11 8.498 1.266 11.937 4.344 8.995 8.05 6.882 19.294-5.562 40.469-13.06 29.5-9.491 52.742-6.5 83.72-.085 17.988-6.185 35.08-15.906 42.469-15.752 11.974-35.17-4.062-27-20.313 4.183-8.07 13.07-3.366 15.16-11 .747-4.566.664-11.752 1.156-15.16-1.876-13.581-5.766-55-5.781-69.37.166-12.386 4.24-27.938 9.875-39.594 5.505-9.715 14.363-15.353 22.625-15.563m24.807 48.13c-3.571 2.963-9.527 3.03-10.223-.677.018-3.878 3.061-16.248 5.166-17.613 12.901-3.01 8.792 15.09 5.057 18.29m19.287-19.29c10.658-.416 17.685 26.757 8.438 42.656-1.759.329-14.686.245-14.75.5-.217-2.844.629-8.511 1.594-13.938.825-4.644 1.307-8.169-.094-13.156-3.498-12.448-5.776-14.787 4.813-16.06m20.313.375c.388-.011.809-.002 1.25 0 10.825.051 16.988 20.89 13.594 43.656-.487 3.269-.768 6.7-1.969 7.469-4.524-1.222-17.09 3.243-17.308 3.208-1.185-1.204-.703-7.679.902-13.521 2.968-10.801 3.796-17.99.312-29.16-2.502-9.655-2.594-11.493 3.219-11.656m26.969 6c11.895 1.992 12.667 34.834 7.781 45.5-1.166 1.574-5.651 1.194-7.25 1.781-10.112 2.888-7.861 4.392-6.688-11.656.806-11.01.998-19.564-.656-28.656-.805-3.989-1.128-6.767 1.781-7.03 1.688-.338 3.487-.282 5.03.063m-59.34 12.844c4.735 6.472.925 21.449-2.688 27.01-4.127 6.136-5.783 6.645-3.53 9.334.954 1.138 2.943 6.939 1.719 9.375-2.267 4.509 3.553 5.318 8.844 8.06 8.579 4.477 12.742 12.729 19.15 27.75 2.231 5.233 6.811 3.583 4.591-2.05-1.901-4.825-2.642-11.927-3.957-16.669-1.371-4.867.131-7.304 5.764-5.876 8.467 2.147 7.298.136 10.392-.999 6.794-3.751 11.354 1.559 7.25 4.5-2.356 1.689-7.379 2.713-12.943 4.238-4.721 1.294-3.625 5.832 1.125 5.812 4.384-.018 16.958-3.541 25.16-6.02 23.505-7.101 24.295-10.878 22.09 2.469-2.899 17.654-12.551 30.895-28.5 35.37-13.884 3.9-45.938 3.151-60.22-1.406-13.561-6.133-14.46-10.42-18.563-22.344-5.614-16.318-8.921-43.943-2.469-60 5.681-13.556 5.111-12.133 10.562-11.45 4.847 1.689 11.366-.189 12.813-3.156.731-1.414 2.577-4 3.406-3.956m90.03 9.781c1.339 7.26 1.463 14.724-1.062 20.344-1.461 2.636-9.695 2.494-12.875 2.531-1.883.44-1.738-24.533.281-27.25 4.788-7.172 10.975-1.408 13.656 4.375m-238.53-4.313l23.281.281v5.656l-27.469-.188zm81.47.969l.031 7.344-35.06.063v46l39.22.125.219 9.563-52.5-.188.156-62.875 47.938-.031m178.22-1.469c35.945 7.891 19.909 47.595 6.438 50-16.795 2.998-31.03 1.108-26.375-13.656 4.671-10.01 1.43-22.468 2.75-31.563 3.241-2.999 11.7-5.986 17.188-4.781m-271 13.938l34.594.344v7.594l-39.531-.094zm76.844 7c5.523 0 10 4.477 10 10 0 5.523-4.477 10-10 10-5.523 0-10-4.477-10-10 0-5.523 4.477-10 10-10m97.59 3.969c6.435.703 6.987 10.544 4.369 13.421-3.373 3.341-9.669 1.915-11.588-3.203-1.731-4.619 2.143-10.419 7.219-10.219m-184.09 4.281l44.25.125v6.156l-44.687.375-1.188-3.969zm249.09 2.656c6.136-.145 9.897 5.01 6.06 9.406-5.778 6.412-17.562-3.4-6.06-9.406m-471.52 13.447c-9.9 8.355-1.968 16.569 11.188 8.656 28.3-17.02 70.03-3.531 97.24 10.646 5.33 2.729 6.06-3.633.813-8.03-25.13-22.12-78.7-34.806-109.24-11.271m428.78-11.63c6.91.033 6.812 8.642 2.375 11.719-4.437 1.924-5.208 1.386-8.155.239-4.04-1.573-1.024-11.923 5.78-11.958m24.479.13c8.191.404 7.281 16.881-5.094 10.938-4.484-4.818-1.576-10.969 5.094-10.938m-228.71 8.49l43 .375v7l-40.22-.406zm-277.91 16.469c11.751 9.321 8.107 9.889-11.375 3.03-12.73-2.837-25.403-1.026-33.375 2.125-9.43 3.728-11.614 2.652-7.531-3.656 10.968-12.304 41.19-9.82 52.28-1.5m56.5 15.438c-1.182 2.908-5.205-2.328-10.656-1.313-7.778 1.449-5.529 1.815 2.687 11.156 8.223 9.348 10.908 11.559 10.406 15.16-.738 5.299.752 8.21 6.03 7.625 2.538-.281 5.552 2.655 9.437 6.188 13.452 12.225 20.252 18.3 24.625 20.19 17.815 7.688 9.793-.986-1.594-8.844-18.981-13.1-25.579-21.829-12.09-17.16 14.329 4.965 37.12 2.149 48.34-4.616 5.525-3.331 9.02-8.438 16.813-5.946 10.941 3.5 15.13-2.949 12.09-6.563-4.965-3.184-16.304-6.983-27.06-14.219-23.03-11.683-47.24-11.338-63.37-1.938-9.508 5.541-12.818 1.646-3.5-3.844 37.39-20.15 66.969-.85 90.91 13.625 4.147 2.518 7.05 2.313 7.06.531-.633-5.849-11.284-9.44-15.594-12.06-33.35-20.293-68.4-26.764-94.53 2.031m227.03-17.844l37.37.031v7.375l-34.625-.156zm-304.09 9.406c10.351-.049 32.873 9.241 32.5 16.938-.433 2.923-6.072.303-10.969-2.688-9.469-5.782-24-7.331-37.688-4.781-10.505 1.958-13.847 3.692-15.344 2.438-3.632-8.155 21.891-11.861 31.5-11.906m404.12 5.5l.062 13.219c-20.29 1.48-24.464 24.02-11.448 36.573 10.673 10.294 28.31 6.234 37.17-8.354 1.55-2.595 1.734-4.161 2.684-2.875.595.806 1.108 3.262 1.594 5.656 1.406 6.937-.59 8.715-5.188 14.656-7.429 9.603-8.44 21.708-3.781 30.719 1.283 2.481 3.964 6.02 3.5 7.656 2.598-.079-23.04 71.65-60.48 107.8-6.268 4.167-10.812-.732-7.579-7.457 30.503-69.71-27.855-134.46-50.5-196.75l93.97-.844m-271.16 12.03l5.344.469c-4.3 32.11-35.46 26.943-36.688.781l4.5-.156c6.073 24.335 26.912 14.37 26.844-1.094m-176.03.656c0 0 2.249 3.586 2.25 5.594 0 7.473-.121 18.284-.313 21.563-1.804 30.901-41.01 36.628-38.03 10.188 2.334-11.226 16.514-12.467 20-2.313 5.089 12.775 5.997-3.076 6.06-8.03 4.153-7.785 7.196-17.237 10.03-27m188.94 2.188c1.607.041 4.488 1.445 6.75 3.875 2.58 2.772 1.618 4.152-4.406 7.25-6.519 3.353-9.472 3.064-7.125-3.719 1.457-4.212 2.715-7.459 4.781-7.406m293.31 1.625c.886.038 3.155 1.208 2.625 4.563-.886 5.605-5.733 8.791-7 7.469.809-2.957 1.781-10.861 4.375-12.03m-340.12 10.844c-.77 2.268-2.109 1.282-5.531-1.625-3.774-3.206-3.577-5.255.312-7.563 5.586-3.367 5.929 7.097 5.219 9.188m-118.72-8.375c6.542 20.676 19.88 18.05 25.844 1l5.719-.094c-1.26 26.621-34.959 26.15-35.25.406zm-11.812 2.563c1.994-.315.562 6.594.562 6.594 0 0-5.533-2.855-2.281-5.875.407-.377 1.434-.674 1.719-.719m49.5 1.75c.683-.042 1.976.48 3.375 1.406 3.276 2.169 2.712 3.443-1.031 6.563-5.762 4.802-8.361 2.134-5.25-4.313 1.159-2.4 2.027-3.602 2.906-3.656m430.41 4.5c2.433-.151 5.853.952 13.09 2.875 19.943 5.297 46.634 5.104 69.34-1.156 7.173-1.977 12.497 10.605 8.625 19.75-1.71 4.04-1.408 4.542 3.813 9.969 7.405 7.699 8.594 20.1 2.969 31.406-4.094 8.225-3.822 7.489 1.031 21.531 2.22 6.425 5.082 12.98 5.594 14.75 6.132 20.694 21.26 45.14 30.5 65.59 9.216 14.379-16.531.156-16.531.156 0 0 6.919 9.274 16.12 16.219 8.925 6.778 26.466 2.191 34.5 10.438 1.879 2.594-1.827 57.48-3.719 59-79.28-3.687-211.53-.781-211.53-.781l24.781 38.625c38.983 15.574 76.26 11.675 111.91-10.75-.88 3.226 43.38 24.865 79.72 27.22l.219 26c-26.965-3.02-54.29-3.646-79.34-19.406 0 0-23.03 9.629-46.09 16.844l129.19 133.63.057 22.335c0 0-55.15-51.47-111.91-109.5l1.219 285.34 111.78 2.188c-3.513 74.26-2.095 121.48-1.344 206.53-52.821 54.19-125.5 108.41-192.66 140.97-31.69-30.559-57.872-63.67-80.78-99.06-.485-.749 2.312-2.177 1.829-2.927-.701-1.088-4.671-1.499-5.392-2.573-13.968-20.797-46.42-78.46-41.28-79.81 9.931.687 55.96-5.01 65.12-32.594.075-1.75-.998-6.668.25-12.438 3.234-14.957 4.895-37.659-.594-52.09-9.892-26.02 19.867-17.679 20.875-15.938l-.031-98.28c-38.721 31.04-77.79 61.6-129.56 74.37-32.2-162.3 18.863-364.15 164.44-501.03l-7.982-.682c-149.57 154.75-188.79 324.93-163.27 504.15 0 0 .947 5.603 1.094 7.495.348 4.459-.721 6.16-4.688 9.38-3.78 2.484-7.217 5.156-6.875 8.219.642 5.754-4.891 5.94-12.12 5.906-3.333-2.919-7.818.761-10.5 2.094-3.751.556-5.618-14.761-10.406-3.531-1.826 7.089-5.285 7.619-13.281 4.094-5.03-1.467-5.138 1.026-.313 6.844 6.672 7.176 12.311 17.907 11.219 21.12-2.45 7.217-1.386 14.487 8.812 18.625-.58.048-6.157 22.01 9.656 21.375 5.03.05 17.781 2.625 17.781 2.625.828 4.197-.52 6.581-2.5 8.438l-11-5.5-2.875 13.09-14.656-1.031 35.656 44.03 4.156-34.34 41.688 5.281c6.693 17.364 48.808 113.95 129.31 185.81 0 0-44.01 19.15-56.34 25.16l-7.656-27.375-6.906 9.938-12.313-3.156-1.437 11.25-10.969 3.531 19.12 14.438-49.16 14.946c-140.43-226.5-203.98-541.11-29.09-873.82l44.19.563-8.625 14.75 12.563-2 3.55 10.747 9.221-4.353 9.278 11.624 10.553-31.05c0 0 31.31.708 35.21.313 3.063-.346 66.17-53.29 64.813-55.31-.978-1.458-68.72 48.05-71 46.16 0 0-6.8 1.619-1.5-4.719 9.514-11.377 16.221-20.03 25.875-36.37 15.95-21.706 23.12-48.19 26.875-66.12.061-1.259.407-4.141-.656-6.25-6.084-12.07-4.74-19.949 6.187-34.19 3.825-4.984 4.059-6.219 2.969-9.281-2.463-6.913-.097-12.826 4.938-17.469 2-1.845 3.295-2.727 5.188-2.844m-372.33 48.19c27.731 11.388 5.461 36.611-15.13 14.624-10.793-11.522-19.317-10.789-25.19-2.375-2.647 3.794 1.204 10.458 4.625 8.344 3.174-1.961 6.438-4.289 11.06-.031 35.07 32.29 60.26-12.912 30.03-24.16-3.739-1.721-9.05 2.093-5.396 3.595m-114.23-1.095c.262-.014.568.124.969.375 1.314.82 1.41 12.231.094 17.03-4.38 24.314-21.716 80.81-57.28 53.16-14.12-10.981-1.276-38.556 15.625-29.19 13.198 7.316 4.29 24.771-10 14.75-6.936-4.864-4.736 5.167 1.125 8.03 9.932 5.196 27.913-3.703 36.34-19.563 3.362-6.325 6.516-17.499 10.06-33.594 1.783-8.094 1.928-10.94 3.063-11m3 42.09c2.929 17.578-10.453 48.36-29.5 52.906-14.581 3.478-32.607-6.02-31.31-14.813.376-2.553 1.417.818 14.625 3 18.448 3.047 30.19-6.909 40.813-29.844 3.353-7.239 4.787-11.09 5.375-11.25m45.906 8.406c-.001 1.985-.954 7.219-1.781 10.687-1.965 8.239-3.199 11.364 5.813 7.281 5.957-2.746 14.669-5.47 23.688-.469 9.945 5.514 19.44 4.493 31.16-.469 10.174-3.385 15.13-3.422 20.812-.156 10.369 5.962 6.807 2.156 5.469-12.875-.925-10.582-3.812-9.189-7.531-5.188-2.441 2.627-7.377 3.203-12.875.25-6.551-3.519-15.67-1.85-18.75.656-3.07 2.498-7.514 2.841-13.531-1.219-3.986-2.689-6.208-1.282-11.09.906-8.05 3.604-11.134 1.659-15.5-1.719-3.968-2.896-5.829-1.984-5.875 2.312m-39.938 12.625c1.05-.001 1.167 4.049.438 12.219-3.354 30.14-26.961 46.934-54.75 32.34-12.171-6.945-10.519-11.845 1.469-7.5 19.11 6.927 38.41-2.758 47.844-27.531 2.42-6.351 4.074-9.523 5-9.531m67.813 21.5c13.737 5.683 28.976 3.878 32.851-1.159 4.349-5.653-2.328-4.723-5.82-3.872-12.03 2.878-20.286 1.828-25.16-.344-14.243-5.499-13.343.463-1.875 5.375m-143.34 16.906c17.812 21.803 20.16 26.06 35.5 50.844 112.17 190.39 148.09 431.02 74.34 649.47-20.236 60.28-48.779 121.71-80.78 171.06l-38.41.406 13.188-15.03-17.875 1.313-1.094-9.938-13.563 4.375-6.531-15-12.281 34.34-71.19.187c166.73-162.02 199.57-358.37 168.47-516 0 0 13.936-8.715 15.875-13.813.471-1.237 1.509-6.5 2.469-7.281 6.196-4.054 10.317-7.993 13.375-7.219 1.759.445 2.663 1.257 3.938 3.125 5.874 8.606 7.14 9.951 10.344 1.281 2.303-6.221 1.313-8.472 8.875-7.281 4.426 2.35 10.318 2.285 9.781 1.406-.399-.653-6.678-8.03-9.656-12.219-7.04-9.904-9.05-11.693-8.406-16.03.988-6.609-4.275-13.74-7.563-15.531.948-17.804-5.89-19.582-25.25-23.563-.099-3.072.424-5.565 1.781-8.313l11.375 9.06 4.125-16.813 15.437.844-44.75-43.31c.224 12.218.802 24.572-.312 36.34-20.979-1.145-41.675-7.908-41.99-6.625-30.801-72.53-77.74-133.86-127.29-181.72l49.5-23.781 14.03 26.75 3.437-15.16 12.281 2.156 2.063-9.719 13.563-1.906-14.969-14.219zm294.78 31.28c1.892 2.382 3.409 2.549 5.938 4.719l-5.063 3.594c.239-3.4-.059-5.146-.875-8.313m-329.34 8.938c-4.198 0-7.625 3.427-7.625 7.625 0 4.198 3.427 7.594 7.625 7.594 4.198 0 7.594-3.396 7.594-7.594 0-4.198-3.396-7.625-7.594-7.625m41.3 1.208c-4.211 0-7.625 3.414-7.625 7.625 0 4.211 3.414 7.625 7.625 7.625 4.211 0 7.625-3.414 7.625-7.625 0-4.211-3.414-7.625-7.625-7.625m-133.05 5.573c24.512 20.371 47.04 46.915 74.37 88.44l-.563 5.594 8.344 3.094c0 0 45.46 59.843 43.06 86.44-15.61 3.259-27.686-2.505-55.59 23.594l-17.938-3.906-18.875 4.594c0 0 .243 5.916 4.938 7.906 2.04.865 5.42-7.41 7.625-7.156 9.171 1.056 18.417 1.207 16.719 4.094-1.924.825-6.853 60.28 2.719 72.938 5.34 12.889 1.511 12.784-3.281 15.16-5.205 3.405-21.594-3.781-21.594-3.781l3.781 94.41c43.24-49.33 134.58-82.23 128.09-78.66 45.844 242.13-63.14 403.66-177.22 522.06l59.781.344c0 0-51.54 82.67-55.37 105.53 2.927 7.595 11.03 23.332-2.656 34.375-4.633 5.08-5.125 28.12-5.125 28.12-31.438 1.083-58.69-9.832-94.94 2.875-3.748 1.262-4.568-19.735-4.75-23.531-11.137-10.421-12.901-31.619-3.281-42.625 3.567-4.055 2.053-1.903-.938-15.625-4.774-21.894-20.675-51.918-32.781-71.19-3.967-6.314-7.942-13.689-8.906-15.969-8.652-10.26-31.392-5.518-34.16-8.219-2.515-2.109-4.143-58.09-1.594-59.44 89.6 7.106 229.81-1.031 229.81-1.031l-37.625-52.56c-46.34-18.07-110.03 12.782-106.96 14.411.153.181-50.898-27.839-86.31-23.856l1.162-27.453c31.456-.125 60.48 5.733 85.81 20.677l43.05-16.03-131.94-138.41 1.531-22.813c0 0 33.7 36.08 70.34 74.62 31.434 33.06 43.19 38.625 43.19 38.625l.094-287.06-113.44-.281-3.03-58.656-2.938-5.125-1.344-42.09 3.156-4.281-1.094-18-1.062-2.563-1.438-43 2.438-3.625.375-27.06c54.817-53.656 196.34-143.91 196.34-143.91m96.91 8.156l13.219 57.938 8.875-11 13.625 4.281.938-13.344 12.406-4.313zm450.79 9.635c-4.211 0-7.625 3.414-7.625 7.625 0 4.211 3.414 7.625 7.625 7.625 4.211 0 7.625-3.414 7.625-7.625 0-4.211-3.414-7.625-7.625-7.625m-35.688 4.771c-4.211 0-7.625 3.414-7.625 7.625 0 4.211 3.414 7.625 7.625 7.625 4.211 0 7.625-3.414 7.625-7.625 0-4.211-3.414-7.625-7.625-7.625m-437.1 6.75c-4.211 0-7.625 3.414-7.625 7.625 0 4.211 3.414 7.625 7.625 7.625 4.211 0 7.625-3.414 7.625-7.625 0-4.211-3.414-7.625-7.625-7.625m464.47 4.594l-53.06 49.906 14.875-.625 2.663 14.562 13.313-6.095 10.773 9.939zm22.582 16.771c-4.211 0-7.625 3.414-7.625 7.625 0 4.211 3.414 7.625 7.625 7.625 4.211 0 7.625-3.414 7.625-7.625 0-4.211-3.414-7.625-7.625-7.625m-421.99 9.823c-4.211 0-7.625 3.414-7.625 7.625 0 4.211 3.414 7.625 7.625 7.625 4.211 0 7.625-3.414 7.625-7.625 0-4.211-3.414-7.625-7.625-7.625m33 6.375c-4.211 0-7.625 3.414-7.625 7.625 0 4.211 3.414 7.625 7.625 7.625 4.211 0 7.625-3.414 7.625-7.625 0-4.211-3.414-7.625-7.625-7.625m-29.937 11.344c1.459 20.39 3.841 44.571 4.375 65l10.06-9.906 11.625 4.719 4.125-12.531 12.656-.625zm326.72 17.01c-4.211 0-7.625 3.414-7.625 7.625 0 4.211 3.414 7.625 7.625 7.625 4.211 0 7.625-3.414 7.625-7.625 0-4.211-3.414-7.625-7.625-7.625m-348.59 1.335c-4.211 0-7.625 3.414-7.625 7.625 0 4.211 3.414 7.625 7.625 7.625 4.211 0 7.625-3.414 7.625-7.625 0-4.211-3.414-7.625-7.625-7.625m378.82 1.853c-4.211 0-7.625 3.414-7.625 7.625 0 4.211 4.03 7.625 7.625 7.625 3.594 0 7.625-3.414 7.625-7.625 0-4.211-3.414-7.625-7.625-7.625m-4.521 16.469l-43.987 45.24 14.406 1.344 4.529 12.842 9.221-7.811 11.188 8.188zm24.16 9.698c-4.211 0-7.625 3.414-7.625 7.625 0 4.211 3.414 7.625 7.625 7.625 4.211 0 7.625-3.414 7.625-7.625 0-4.211-3.414-7.625-7.625-7.625m-346.83 14.11c-4.211 0-7.625 3.414-7.625 7.625 0 4.211 3.414 7.625 7.625 7.625 4.211 0 7.625-4.03 7.625-7.625 0-3.594-3.414-7.625-7.625-7.625m-186.84 4.656l-14.313 10.969 3.531-.531c0 0 8.656 10.07 8.656 10.781 0 .707 5.313-.188 5.313-.188zm222.91 6.656c-4.211 0-7.625 3.414-7.625 7.625 0 4.211 3.414 7.625 7.625 7.625 4.211 0 7.625-3.414 7.625-7.625 0-4.211-3.414-7.625-7.625-7.625m-54.625 10.875c-4.211 0-7.625 3.414-7.625 7.625 0 4.211 3.414 7.625 7.625 7.625 4.211 0 7.625-3.414 7.625-7.625 0-4.211-3.414-7.625-7.625-7.625m315 15.363c-4.211 0-7.625 3.414-7.625 7.625 0 4.211 3.414 7.625 7.625 7.625 4.211 0 7.625-3.414 7.625-7.625 0-4.211-3.414-7.625-7.625-7.625m-30.09 11.188c-4.211 0-7.625 3.414-7.625 7.625 0 4.211 3.414 7.625 7.625 7.625 4.211 0 7.625-3.414 7.625-7.625 0-4.211-3.414-7.625-7.625-7.625m307.19 1.886l15.844 17.219v251.94l-15.469.313zm-616.78 1.781c12.909.016 27.3 1.877 31.875 9.719 7.125 8.798-8.03 5.394-20.781 7.313-11.783 1.439-4.947 3.843 11.688 4.813 22.93 1.354 31.937 1.952 35.35 7.238 1.937 4.923.519 8.244.929 13.543l-26.03-1.219c-13.502.017-21.432-.24-25.438.781-3.19.813-2.274 3.372-1.188 4.469.568.574 10.929.713 23.03 1.031 32.576.856 39.781 1.955 42.09 12.438 1.745 9.61-6.091 8.148-39.563 4.5-14.893-1.215-22.909 2.287-25.06 3.344-3.67 1.801 10.638 3.574 15.313 2.813 2.924-.46 24.407 1.864 32.31 3.344 6.65 1.01.795.825-2.563 4.875-2.223 3.354-1.52 7.205-5 9.09-4.27 2.258-12.729 2.215-27.906 2.219-17.354.004-25.446 4.214-1.625 5.25 15.387.669 16.255.403 17.563 4.844 3.476 10.953-3.932 12.88-19.625 15.375-7.5 1.287-18.626.566-27.03-.031-33.2-2.361-44.701-10.275-49.19-24.906-16.742-54.58 3.923-87.91 52.28-90.59 2.685-.142 5.583-.254 8.563-.25m335.54 2.436l-37.488 54.53 14.447-5.622 6.875 14.781 11.562-8.25 11.551 7.122zm-280.48 6.627c1.943 2.375 1.09 4.154-2.125 5.906-2.713 1.478-7.35.384-10.406-.938-4.03-1.743-4.438-8.943-1.125-9.719 4.762-.952 10.674 1.264 13.656 4.75m-271.53-2.781l-20.5 19.625.625.75 27-10.625zm575.38 8.375c-4.211 0-7.625 3.414-7.625 7.625 0 4.211 3.414 7.625 7.625 7.625 4.211 0 7.625-3.414 7.625-7.625 0-4.211-3.414-7.625-7.625-7.625m279.12 6.594c0 0 19.1 18.863 26.938 26.781l-7.094-.031.187 14.875 22.594.25 12.406 12.156-34.5-.156v15.188l42.719.031-.219-6.5 16.875 15.281 2 168.94-81.41-.25c-.305-83.18-.07-163.38-.5-246.56m-558.47 18.313c-1.17 3.653-3.786 3.661-8.25 1.844-6.607-2.689-5.666-9.979-.656-10.75 9.45-1.076 11.196 3.278 8.906 8.906m25.625 3.188c-4.211 0-7.625 3.414-7.625 7.625 0 4.211 3.414 7.625 7.625 7.625 4.211 0 7.625-3.414 7.625-7.625 0-4.211-3.414-7.625-7.625-7.625m-26.844 5.844c2.979.184 5.937 1.714 7.625 3.375 4.169 4.209 2.694 8.136-1.969 10.563-5.23 2.721-8.912-.988-10.438-7.188-1.028-4.182 1.416-6.613 4.781-6.75m239.36 19.997c-4.229 0-7.656 3.428-7.656 7.656 0 4.228 3.428 7.656 7.656 7.656 4.228 0 7.656-3.428 7.656-7.656 0-4.228-3.428-7.656-7.656-7.656m-251.99 9.284c6.57.222 8.552 6.933 5.125 10.531-4.922 4.876-12.57 2.788-13.656-1.875-.345-5.245 3.928-8.656 8.531-8.656m224.67 3.093c-4.211 0-7.625 3.414-7.625 7.625 0 4.211 3.414 7.625 7.625 7.625 4.211 0 7.625-3.414 7.625-7.625 0-4.211-3.414-7.625-7.625-7.625m27.08 5.062l-34.12 57.25 13.813-5.469 8.375 11.03 8.625-7.531 13.03 6.375zm-267.78 9.564c6.104.029 7.813 4.822 3.375 9.219-3.01 2.985-6.424 3.078-9.906.313-5.276-4.191-1.23-9.568 6.531-9.531m291.69.707c-4.211 0-7.625 3.414-7.625 7.625 0 4.211 3.414 7.625 7.625 7.625 4.211 0 7.625-3.414 7.625-7.625 0-4.211-3.414-7.625-7.625-7.625m-248.44 6.01c-4.211 0-7.312 3.414-7.312 7.625 0 4.211 3.414 7.625 7.625 7.625 4.211 0 7.625-3.414 7.625-7.625 0-4.211-3.726-7.625-7.938-7.625m565.34 1.688v16.188l43 .031v-16.188zm-564.78 14.375l-16.469 60.16 13.781-7.844 8.594 8.781 8-9.844 14.375 3.75zm29.28 6.531c-4.211 0-7.625 3.414-7.625 7.625 0 4.211 3.414 7.625 7.625 7.625 4.211 0 7.625-3.414 7.625-7.625 0-4.211-3.414-7.625-7.625-7.625m-53.688 3.063c-4.211 0-7.625 3.414-7.625 7.625 0 4.211 3.414 7.625 7.625 7.625 4.211 0 7.625-3.414 7.625-7.625 0-4.211-3.414-7.625-7.625-7.625m589.16 4.75l.031 14.531h43l-.031-14.438zm-353.85 18.998c-4.211 0-7.625 3.414-7.625 7.625 0 4.211 3.414 7.625 7.625 7.625 4.211 0 7.625-3.414 7.625-7.625 0-4.211-3.414-7.625-7.625-7.625m353.89 8.127v15.656h43v-15.656zm-886.62 1.906l15.12.281.25 272.91-14.75-15.594zm-6.313.531l-.75 249.44-28.656-30.12 7.625-.094v-17l-24.812-.188-10.594-10.313 35.37.031v-16.688l-41.969-.156v10.09l-20.625-22 .344-162.87zm540.18 7.621l-22.957 59.35 14.438-8.219 7.469 7.344 7.719-6.969 13.12 6.406zm-603.86 2.847l-.219 15.969h42.37v-15.969zm629.86 3.217c-4.211 0-7.625 3.414-7.625 7.625 0 4.211 3.414 7.625 7.625 7.625 4.211 0 7.625-3.414 7.625-7.625 0-4.211-3.414-7.625-7.625-7.625m-51.897.854c-4.211 0-7.625 3.414-7.625 7.625 0 4.211 3.414 7.625 7.625 7.625 4.211 0 7.625-3.414 7.625-7.625 0-4.211-3.414-7.625-7.625-7.625m-179.44 2.836c-4.211 0-7.625 3.414-7.625 7.625 0 4.211 3.414 7.625 7.625 7.625 4.211 0 7.625-3.414 7.625-7.625 0-4.211-3.414-7.625-7.625-7.625m558.09 6.156v16.781h43v-16.781zm-559.03 9.469l-6.375 9.844-14.594-4.969 19.906 60.22 24.969-62.813-14.344 8.188zm-397.59 4.375v15.938h42.16v-15.938zm956.62 14.281v16.625h42.969l.031-16.625h-43m-956.62 13.906v15.969h42.16v-15.969zm603.31 3c-4.228 0-7.656 3.428-7.656 7.656 0 4.228 3.428 7.656 7.656 7.656 4.229 0 7.656-3.428 7.656-7.656 0-4.228-3.428-7.656-7.656-7.656m-229.56 7.969c-4.229 0-7.656 3.428-7.656 7.656 0 4.228 3.428 7.656 7.656 7.656 4.228 0 7.656-3.428 7.656-7.656 0-4.228-3.428-7.656-7.656-7.656m48.938 1.438c-4.228 0-7.656 3.428-7.656 7.656 0 4.228 3.428 7.656 7.656 7.656 4.229 0 7.656-3.428 7.656-7.656 0-4.228-3.428-7.656-7.656-7.656m533.94 1.063v15h42.969l.031-15h-43m-353.37 7l-9.125 9.594-13.09-3.719 29.688 55.37 15-59.56-13.09 8.344zm-603.25 5.625v18.12h42.16v-18.12zm397.87 8.219c-4.229 0-7.656 3.428-7.656 7.656 0 4.228 3.428 7.656 7.656 7.656 4.228 0 7.656-3.428 7.656-7.656 0-4.228-3.428-7.656-7.656-7.656m-.5 15.781c-3.263 2.315-4.687 6.376-8.094 8.469l-13.937-5.938 8.375 75.41 38.687-71.25-17.687 2.969zm-397.37 2.469v18.844h42.16v-18.844zm633.17 8.739c-4.229 0-7.656 3.428-7.656 7.656 0 4.228 3.428 7.656 7.656 7.656 4.228 0 7.656-3.428 7.656-7.656 0-4.228-3.428-7.656-7.656-7.656m-49.5.875c-4.229 0-7.656 3.428-7.656 7.656 0 4.228 3.428 7.656 7.656 7.656 4.228 0 7.656-3.428 7.656-7.656 0-4.228-3.428-7.656-7.656-7.656m-583.67 17.729v18.875h42.16v-18.875zm611.28 4.208c-4.229 0-7.656 3.428-7.656 7.656 0 4.228 3.428 7.656 7.656 7.656 4.228 0 7.656-3.428 7.656-7.656 0-4.228-3.428-7.656-7.656-7.656m108.08.604c40.998 1.308 47 14.5 47.24 60.03.193 36.34-10.632 50.54-37.09 57.55-9.637 2.552-45.686.188-55.899-3.084-.17-3.116-5.266-10.335-6.416-15.889 2.6-.741 10.832.409 26.426 1.892 12.648 1.202 15.902-.825 11.906-3.313-23.791-5.612-39.986-4.085-62.844-8.469-.323-6.833-5.845-14.793-5.845-14.793 1.241-.496 35.23 3.164 53.17 2.597 7.898-.327 3.142-4.04-.047-4.719-20.915-2.993-34.499-2.514-56.619-5.304.605-5.656-2.276-10.8-5.844-15.12 0 0 11.19-.102 34.25.25 12.139.185 22.702.691 28.01.509 8.912-.012 8.1-4.17.373-4.736-9.422-1.05-46.507-1.273-46.507-1.273 2.759-1.278 6.361-17.885 4.938-18.06 0 0 9.611.197 15.719-.031 29.719-1.111 34.848-.642 35.406-1.75 3.906-3.569-6.64-4.966-17.625-4.938-4.736.012-11.645 1.047-11.594-1.531.047-2.369-.066-7.231-2.479-12.235 18.23-7.02 34.997-8.1 51.37-7.578m-353.49 9.344c-4.229 0-7.656 3.428-7.656 7.656 0 4.228 3.428 7.656 7.656 7.656 4.228 0 7.656-3.428 7.656-7.656 0-4.228-3.428-7.656-7.656-7.656m292.47 1.594c5.05.024 6.647 9.115 1.906 10.531-7.279 2.174-11.257.463-11-3.844.146-2.44 5.819-6.703 9.09-6.688m-242.47 7.906c-4.229 0-7.656 3.428-7.656 7.656 0 4.228 3.428 7.656 7.656 7.656 4.228 0 7.656-3.428 7.656-7.656 0-4.228-3.428-7.656-7.656-7.656m218.03 8.594c17.329-.155 8.358 23.405-4.969 14.906-6.608-4.214-1.959-14.855 4.969-14.906m-274 18.844c-.355-.033-.545.322-.5 1.188l4 71.62 41.688-66.906-16.563 6.156-7.125-10.813-8.937 7.03c-3.681 2.896-10.646-8.105-12.563-8.281m257.94 7.332c7.774 1.08 12.957 8.865 7.562 12.605-12.153 5.323-18.654-12.08-7.562-12.605m-18.668 15.72c-4.229 0-7.656 3.428-7.656 7.656 0 4.228 3.428 7.656 7.656 7.656 4.228 0 7.656-3.428 7.656-7.656 0-4.228-3.428-7.656-7.656-7.656m29.449 6.479c6.62-.099 9.735 9.509 3.188 12.531-1.397.645-5.538 1.105-7.375-.25-7.731-5.702-3.724-11.677 4.188-12.281m-286.67 11.812c-4.229 0-7.656 3.428-7.656 7.656 0 4.228 3.428 7.656 7.656 7.656 4.228 0 7.656-3.428 7.656-7.656 0-4.228-3.428-7.656-7.656-7.656m584.82 9.595l-28.375 9.531v13.418c12.387-3.941 19.466-14 28.378-22.95zm-265.91 6.478c4.92 2.065 6.259 8.731 2.026 10.971-3.335 1.765-12.368 1.484-14.578-1.421-5.728-9.188 6.592-11.795 12.552-9.549m-267.5 2.647c-4.229 0-7.656 3.428-7.656 7.656 0 4.228 3.428 7.656 7.656 7.656 4.228 0 7.656-3.428 7.656-7.656 0-4.228-3.428-7.656-7.656-7.656m-31.365 13.229c-3.728 0-6.75 3.02-6.75 6.75 0 3.728 3.02 6.75 6.75 6.75 3.728 0 6.75-3.02 6.75-6.75 0-3.728-3.02-6.75-6.75-6.75m318.26 11.386c-4.229 0-7.656 3.428-7.656 7.656 0 4.228 3.428 7.656 7.656 7.656 4.228 0 7.656-3.428 7.656-7.656 0-4.228-3.428-7.656-7.656-7.656m-342.93.417l-.375 67.66 45.12-55.37-15.656 3.406-6.688-13.719-9.656 6.281zm286.43 15.583c-4.229 0-7.656 3.428-7.656 7.656 0 4.228 3.428 7.656 7.656 7.656 4.228 0 7.656-3.428 7.656-7.656 0-4.228-3.428-7.656-7.656-7.656m225.82.261l-7.406 12.625 21-11.656zm-195.26 8.989c-4.229 0-7.656 3.428-7.656 7.656 0 4.228 3.428 7.656 7.656 7.656 4.228 0 7.656-3.428 7.656-7.656 0-4.228-3.428-7.656-7.656-7.656m25.793 8.261l-9.156 13.06-12.06-3.875-3.562 12.438-14.469-.531 47.03 40.938zm-366.57 5.229c-4.229 0-7.656 3.428-7.656 7.656 0 4.228 3.428 7.656 7.656 7.656 4.228 0 7.656-3.428 7.656-7.656 0-4.228-3.428-7.656-7.656-7.656m705.23 10.99l3.813 561-267.41.562-110.09-150.33c-2.269-24.489-.95-49.631 9.359-82.5 10.765 7.457 34.35 3.386 33.547-25.517-.524-18.929-29.701-28.612-44.24-14.373.752-18.294 8.179-45.787 18.875-53.898 7.351 6.674 8.973 16.552 25.582 13.791 11.802-1.961 21.14-15.15 16.03-30.518-1.31-3.898-2.01-8.64-2-11.813.015-3.172.306-8.811-.313-11.969-.817-4.169-1.125-8.688-1.125-8.688 142.46-44.707 244.33-116.24 317.97-185.75m-651.63 9.635c-4.229 0-7.656 3.428-7.656 7.656 0 4.228 3.428 7.656 7.656 7.656 4.228 0 7.656-3.428 7.656-7.656 0-4.228-3.428-7.656-7.656-7.656m-36.1 7.479c-4.229 0-7.656 3.428-7.656 7.656 0 4.228 3.428 7.656 7.656 7.656 4.228 0 7.656-3.428 7.656-7.656 0-4.228-3.428-7.656-7.656-7.656m378.85 3.688c-4.229 0-7.656 3.428-7.656 7.656 0 4.228 3.428 7.656 7.656 7.656 4.228 0 7.656-3.428 7.656-7.656 0-4.228-3.428-7.656-7.656-7.656m-406.31 8.168l-11.938 71.28 52.12-53.28-14.156-.313-2.813-12.156-13.25 4.281zm354.41 15.207c-4.229 0-7.656 3.428-7.656 7.656 0 4.228 3.427 7.656 7.656 7.656 4.228 0 7.656-3.428 7.656-7.656 0-4.228-3.428-7.656-7.656-7.656m33.781 8.313c-4.229 0-7.656 3.428-7.656 7.656 0 4.228 3.428 7.656 7.656 7.656 4.228 0 7.656-3.428 7.656-7.656 0-4.228-3.428-7.656-7.656-7.656m-420.66 9.293c-4.229 0-7.656 3.428-7.656 7.656 0 4.228 3.428 7.656 7.656 7.656 4.228 0 7.656-3.428 7.656-7.656 0-4.228-3.428-7.656-7.656-7.656m451.12 5.781l-12.469 9.469-11.47-7.01-2.687 15.14-9.781 5.125 41.03 28.75zm30.32 20.385c-4.229 0-7.656 3.428-7.656 7.656 0 4.229 3.428 7.656 7.656 7.656 4.228 0 7.656-3.428 7.656-7.656 0-4.228-3.428-7.656-7.656-7.656m-432.95 2.584c-4.229 0-7.656 3.428-7.656 7.656 0 4.229 3.428 7.656 7.656 7.656 4.228 0 7.656-3.428 7.656-7.656 0-4.228-3.428-7.656-7.656-7.656m-34 10c-4.229 0-7.656 3.428-7.656 7.656 0 4.229 3.428 7.656 7.656 7.656 4.228 0 7.656-3.428 7.656-7.656 0-4.228-3.428-7.656-7.656-7.656m447.33 20.239c-4.229 0-7.656 3.428-7.656 7.656 0 4.229 3.428 7.656 7.656 7.656 4.228 0 7.656-3.428 7.656-7.656 0-4.228-3.428-7.656-7.656-7.656m-32.09 6.853c-4.228 0-7.656 3.428-7.656 7.656 0 4.229 3.428 7.656 7.656 7.656 4.228 0 7.656-3.428 7.656-7.656 0-4.228-3.428-7.656-7.656-7.656m-296.41 10.898c.048 0 .096.034.125.062.865.925 3.521 7.889 1.156 11.438-1.218-.576-6.721-5.697-5.312-7.438.648-.801 3.319-4.068 4.03-4.063m-173.74 12.01c0 0 7.409.384 9.03 1.094 0 1.889-1.781 6.02-3.781 10.656-9.996 23.13-11.527 49.07-1.375 74.06 15.928 33.926 60.903 114.19 57.56 121.53l-99.37.406.43-15.11c27.922-1.096 32.31-18.17 25.348-32.28-4.825-9.776-18.354-15.37-30.722-10.238-17.859 7.411-18.959 16.235-25.337 29.917l-2.843-3.611c5.367-7.128 7.159-13.975 6.717-21.784-.434-7.662-.661-5.543 2.02-9.748 15.551-16.709 5.369-38.461 5.369-38.461-1.856-13.362 46.54-98.6 56.959-106.43m-227.25 2.187c28.26 22.489 52.726 98.24 51.25 99.41-1.314-1.064-22.773 24.333.344 48 0 0-1.412 14.223 3.03 21.531-10.208 21.18-12.01 22.783-12.875 40.19-.193-.067-1.773-.205-11.25-.25-46.831-.221-49.01 59.32-2.219 62.59 6.408.448 8.608-1 12.469 2.813 3.918 4.86 7.433 9.745 14.12 7.219 1.589.001 4.16 1.503 6.844 4 4.501 6.087 11.03 10.419 20.344 8.75 3.304.32 6.681 1.27 10.25 2.563 4.098 3.232 11.215 5.679 16.781 3.25 1.656-.723 4.842-.964 7.438.219 6.764 3.082 13.652 1.153 16.188-.781 6.279-3.257 7.672 1.968 7.375 6.781-3.203 11.02 3.836 21.355 14.5 25.406 22.484 6.949 33.82-6.88 38.656-34.31 1.197-6.01 2.25-13.156 2.25-13.156l75.28 1.969-108.09 125.28-184 2.25-.969-413.91c8.089-.476 14.188.189 22.281.188m676.91 22.344c13.728 5.293 14.825 14.99 1.156 10.781-22.21-6.838-46.1 6.732-51.09 26.12-.92 3.577-1.903 6.284-2.469 6.969-3.106 3.759-2.956.33-2.031-10.437 1.795-20.898 16.573-36.03 35.844-36.656 6.313.001 13.12 1.321 18.594 3.219m-6.813 14.781c5.742 0 11.822 1.682 16.363 5.63 5.15 5.65 3.615 9.398-.338 9.204-18.602-7.766-42.26 1.635-51.52 25.12-5.686 14.411-6.71 6.687-4.194-4.469 4.66-20.2 20.03-35.12 39.688-35.484m-129.37 5.562c-8.116.033-15.824 1.633-19.75 5.344-7.456 7.04-1.253 7.157 12.25 2.469 6.566-2.28 19.2-1.231 27.28 1.563 6.772 2.342 9.161 3.329 8.781 1.219-.353-6.336-15.04-10.649-28.563-10.594m151.65 23.573c3.425 7.833 1.208 21.638-10.75 23.04-14.1 1.648-21.383-21.988 4.363-17.854-3.334-9.452-14.887-6.837-20.58-4.443-11.619 5.074-19.535 16.494-26.656 37.469-2.112 6.219-3.659 9.47-4.469 8.844-1.345-1.041-1.981-10.707 1.125-22.344 5.6-20.982 19.256-33.658 33.719-34.06 9.369-1.434 20.281 2.568 23.25 9.355m-201.71-9.105c-1.252.284.948 4.689 4.375 11.531 1.897 3.788 3.188 8.692 3.188 9.656-.018 3.717 2.84 4.637 7.03 2.25 4.841-2.755 5.616-4.835 12.469-1.781 6.453 3.394 12.823 5.534 18.719 2.094 3.196-1.866 5.313-1.787 11.5-.156 7.384 1.946 8.361 2.244 13.875-.062 7.04-2.946 15.409-.928 17.19 1.053 1.693 1.887.708-.726 4.537-9.6 1.774-4.113 4.319-9.113 3.621-10.515-.945-1.898-7.359.197-14.344 2.031-3.776.99-7.383.698-14.625-1.344-15.278-4.308-24.9-3.071-34.469 1.469-5.345 2.535-18.747-.965-32.28-6.469-.325-.132-.603-.197-.781-.156m30.05 40.906c-6.891-.103-13.14 4.231-16 10.188-3.321 8.267 2.33 23.19 10.938 24.469 7.656 1.14 7.366-3.542 3.513-4.805-5.836-1.914-12.706-10.272-8.265-17.533 3.053-4.992 12.278-4.962 18.694 1.192 12.925 12.397 27.731 13.216 30.536 2.457.849-4.301-2.425-10.03-7.478-8.468-3.907 1.208-12.94 1.573-20.5-3.563-3.919-2.662-7.827-3.884-11.438-3.938m136.47 39.37c32.988-1.977 18.801 43.08-.24 31.511-6.8-4.131-3.785-19.31 14.292-19.03-17.733-13.809-29.815 3.01-25.48 21.876-3.981 6.157-5.086 17.892-7.694 24.533-4.01 7.585-7.165-12.276-3.114-31.468 3.921-18.577 10.556-26.722 22.24-27.422m-186.59 1.563c-6.811.079.192 7.41 1.25 8.281 20.548 16.12 30.59 26.09 14.06 20.781-26.851-6.391-33.771 1.203-54.22 10.219-3.756 1.802-4.818.682-9.344-.656-17.966-5.315-16.651 5.956 2.125 16.12 28.348 15.353 51.754 18.819 73.78 7.313 14.159-7.396 14.882-2.554 1.719 5.625-22.539 13.14-46.26 11.146-82.69-11.531-11.767-7.326-13.412-2.427-1.375 5.281 27.507 16.611 64.54 31.674 94.78 7.156 5.95-5.287 7.144-8.03 11.719-5.75 12.09 6.03 8.116-4.476-.125-14.375-2.913-3.498-5.065-6.326-4.875-8.719.682-8.591-4.068-8.557-8.406-8.344-5.186.254-4.612-1.484-10.969-8.469-9.283-10.199-20.617-21.12-27.438-22.938m-274.53 45.688c-11.417.903-14.04 1.417-11.25 24.813.525 4.403 2.484 17.578 3.03 22.531 6.77 61.27 1.288 88.37-15.781 95.87-6.139 2.701-12.183 1.71-16.687-.094-10.806-4.321-15.254-17.441-7.406-33.06 2.114-4.207 4.666-10.716 5.688-14.469 1.021-3.754 3.325-11.995 5.094-18.313 4.299-15.36 6.628-38.736 4.094-61.06-1.72-15.16-1.342-16.431 2.438-26.656 8.293-15.11 13.651-22.845 31.11-23.03 19.529 2.049 24.996 31.6-.333 33.472m419.78-1.344l-5.344.25c-6.435-21.418-19.874-14.486-22.11.546l-4.537-.047c.781-28.596 36.554-20.844 31.991-.749m-501.78-15.991c36.465 3.608 43.11 12.668 45.985 56.71.263 21.314-1.145 34.18-4.417 39.03-5.462 2.622-10.689-2.285-18.474 2.653-4.277 2.616-3.46 2.886-5.304.046-1.731-2.67.295-13.917 3.092-22.895 2.667-8.561-1.905-13.543-13.976-24.527-3.27-2.976-6.132-7.103-9.06-13-6.28-16.852-9.469-9.436-4.238 5.094 2.587 6.264 3.191 9.354-4.668 6.656-4.625-1.597-8.662.29-12.228 2.186-10.01 2.545-18.632-2.923-9.951-6.209 5.282-1.999 14.754-4.898 17.686-4.884 2.126.001 3.156-.472 3.156-1.469.02-4.216-19.286-3.756-34.01 1.313-18.08 8.322-19.12 6.841-17.45-6.105 4.233-32.834 34.795-36.842 63.856-34.604m356.62 2.866c9.323-.418 17.885 10.271 16.188 19.344l-4.438-.281c-2.085-17.08-18.232-17.807-22.531 1.312l-6.406.156c4.073-14.756 10.809-20.245 17.187-20.531m108.42.344c3.682 2.181 1.127 8.091-2.797 9.28-1.482.369-6.178-2.902-5.05-4.894 2.115-2.402 5.327-3.661 7.847-4.386m41.792 2.896c2.572 0 5.89 1.307 6.342 4.761.145 5.05-3.694 4.01-4.967 3.553-2.546-2.362-3.508-8.126-1.375-8.314m-127.83 4.04c6.832.804 9.312 9.392 1.563 9.938-3.46.713-3.622-7.877-1.563-9.938m-41.594.938c.817.001-.448 7.06-2.156 8.094-3.378 2.052-7.69-.187-7.531-2.313.38-5.083 6.54-5.814 9.688-5.781m119.28 17.12c13.02 4.932 29.95 9.718 45.875 4.156 5.81-2.193 10.459-4.804 10.446-2.333-.012 2.582-4.614 6.498-12.937 8.832-17.15 4.805-29.564 2.947-41.34-5.896-3.329-2.5-4.488-4.797-2.04-4.759m-5.376 7.354c21.12 12.322 40.19 13.547 57.35 4.564 6.949-2.41 7.174-.202 7.153 4.255-30.923 27.17-69.57-1.035-64.5-8.82m-518.44 18.771c-5.237 10.56-8.05 36.579-16.6 44.29-58.36-3.353-20.821-80.32 16.6-44.29m361.62-8.625c-3.301 1.733-.382 10.01 4.813 12.25 44.631 19.21 67.52 21.49 92.91 12.656 10.516-3.66 16.262-12.261 16.781-16.437.619-4.97-6.169-5.455-18.06-.188-36.19 14.19-58.895 3.125-88.12-7.869-2.709-1.019-5.469-1.373-8.321-.412m-170.91.594l-.156 65.06-42.5-.75.5-9.625 31.812.938-.5-46.47-36.906-.344-.062-8.625 47.813-.187m9.874.156l42.41.062 2.125 6.625h-44.531v-6.688m-171.09 20.661c-2.787 2.497-7.654 3.052-9.656 1.031-4.49-4.532.045-12.864 7.219-12.809 7.174.055 7.784 6.984 2.437 11.778m19.537-10.578c6.414.03 8.533 6.01 3.656 10.844-3.304 3.01-4.994 3.204-7.969 1-3.747-3.292-1.79-11.63 4.313-11.844m-41.848 1.61c1.687-.062 3.163.105 4.25 1.781 3.9 7.978-8.893 13.499-11.563 7.563-1.967-4.815 3-9.186 7.313-9.344m239.81.871l2.469 8.375-48.875.219v-8.375zm-174.95 2.41c7.287.873 6.165 8.205 2.781 11.469-5.809 5.375-11.45 3.633-9.969-3.594.926-4.52 3.853-7.787 7.187-7.875m-39.3 23.995c-2.571 9.161 2.915 27.697 1.278 29.638-3.564 4.223-9.297 2.056-11.839.613-8.828-5.669-9.386-38.919-.844-40.906 5.49 2.754 9.18-2.173 11.689-2.891 2.51-.718.83 3.811-.284 13.546m129.19-13.655c4.814 0 8.719 3.905 8.719 8.719 0 4.814-3.905 8.719-8.719 8.719-4.815 0-8.719-3.904-8.719-8.719 0-4.814 3.904-8.719 8.719-8.719m38.656 1.125h50c2.994 4.168 2.688 6.986 1.844 9.875l-51.844.062v-9.938m-146.83 1.134c2.283-.026 3.423 4.86 1.897 10.441-2.754 10.08-2.609 23.792-.72 29.738 1.27 4.107 2.522 6.924 1.781 8.094-2.587 4.087-10.508 1.295-13.875-4.094-8.211-15.228-6.902-43.641 2.906-41.44 3.686 1.848 5.796-1.045 8.01-2.741m-44.07 3.835c-2.418 3.855-.694 25.495-.938 27.28-.308 2.254-6.493 1.09-9.937-.469-8.487-3.98-6.181-14.09-4.531-22.25 1.852-6.41 5.935-6.889 10.97-7.472 2.783-.313 6.451-.072 4.436 2.909m68.01 1.191c2.699-.096 3.075 1.893 2.458 9.903-.483 6.273-.715 11.618.308 17.531 2.177 12.569 2.443 15.978-.714 18.438-3.749 2.92-8.805 2.037-12.719-1.406-8.02-6.36-8.555-37.552-2.25-40.25 5.86 1.459 9.549-3.173 12.917-4.215m172.68 9.434l-7.187 9.875h-42.625l.031-9.844 49.781-.031m-152 13.212c6.652.073 5.553 11.838 1.974 19.22-3.036 4.46-5.258 4.913-9.813.728-5.175-4.753.971-19.982 7.839-19.948m139.56 3.287l-6 5.5-31.25.031v-5.469l37.25-.063" fill="#131f67"/>
   <path d="m6057.99 1369.83v-19.5h19.934l42.17-64.7-45.43-100.55h-16.672v-21.25h64.25v21.25h-20.664l31.756 78.52 23.13-30.434v-48.09h-16.977v-21.25h57.5v21.25h-20v165.25h20v19.5h-57.5v-19.5h16.25v-76.43l-53.801 76.43h20.301v19.5zm-280.94-151.5c-47.23-17.04-66.5-75.927-39.705-134.08 35.89-77.9 89.45-127.93 125.12-201.42-.42 0 69.995 103.44 98.12 141.81 60.33 87.07 57.29 158.73-1.136 187-41.968 20.305-84.99-3.02-89.94-46.921-.773-6.85-1.23-7.758-4.419-7.773-3.511-.017-4.167 2.427-5.04 12.566-3.371 39.06-45.737 62.26-83 48.815m290.58-151.67c18.296-43.05 39.596-66.1 61.935-111.76 18.01 35.31 51.32 73.44 62.52 109.13 8.393 27.58 1.869 50.02-16.14 56.712-20.924 7.776-36.613-1.018-40.779-20.639-1.669-7.862-5.638-7.084-5.854-1.153-.7 19.245-22.868 27.655-40.608 22.567-10.19-2.923-28.469-23.729-21.07-54.852m-989.66-175.67l-51.815-40.629c61.63-1.348 123.23.077 184.85 1.128l-61.54 43.847c-12.596-13.768-20.04-32.26-37.92-41.18-13.311 5.496-22.416 24.448-33.574 36.836m454.48-14.15c-1.05-.166-1.901-.25-2.525-.642-1.417-.888-2.332-2.873-3.37-9.401-15.379-71.73-90.98-66.65-90.48-64.54-.566-2.829 93.96-88.18 149.52-155.14 16.792 51.17 67.7 168.09 65.58 167.66 0 0-14.729.121-52.918-.828-34.759 15.693-58.939 30.974-57.803 53.1-.194 7.791-2.073 11.03-4.669 10.362-.367-.084-1.871-.343-3.342-.575m169.74-230.87c49.17-.77 58.45-24.789 64.05-27.685 32.3-5.311 52.26 15.711 66.41 38.21 18.07 10.881 15.815.834 19.561-16.12l45.01-13.19-.05 14.337c-13.895 7.482-34.518 26.654-34.518 26.654l-13.697-.807-7.854 10.466c-31.27 16.914-61.924 37.07-94.9 50.14 0 0-39.499-51.08-44.01-82m-612.7 4.498l-.509-283.58c20.342-1.435 57.791-1.25 57.791-1.25 15.657-27.637 37.01-40.63 59.02-56.684 3.087 34.959 4.268 68.35 3.562 103.32-58.28 71.13-90.65 158.68-54.711 289.52l-21.564-2.392zm322.03 15.894c16.595-59.15 29.485-119.17 34.827-181.13l110.95-1.646 2.214 37.992zm377.78-129.13l-2.061-106.1c80.966-96.73 85.76-181.09 55.729-287.74 26.744 6.155 40.515 27 66 55.744l.017 276.68c-17.713 2.637-61.62 5.219-61.62 5.219-1.329 12.962-38.43 43.96-58.07 56.21m-342.84-167.22l-4.939-46.783 144.17-137.7c-11.899 59.666-26.295 120.93-30.492 184.45zm-239.19-146.14c-10.289 6.747-48.22-32.664-54.42-59.16 9.51-12.85 92.98-53.741 92.98-53.741 0 0 48.781 62.61 46.787 88.72-21.665 5.76-40.457 7.401-56.908 25.06-9.41.838-12.715-9.747-28.436-.885m-65.836-52.941c11.61 1.867 4.163 17.532 2.383 29l-61.34 18.18c21.09-17.992 36.04-33.31 58.961-47.19m199.74-138.43c12.61-.38 25.757 4.818 35.477.901 3.637-1.415 10.902-3.608 18.862-2.103 18.339 5.669 24.769-14.53 36.457-14.617 15.13.04 23.517-10.546 23.617-31.735.043-9.166.81-10.197 2.535-11.11 5.157-2.728 10.668 1.097 11.356 6.129 10.847 39.03 38.24 74.13 81.44 71.33-34.398 35.06-139.03 142.83-139.03 142.83-18.85-57.42-43.885-110.86-70.71-161.63m445.12-33.635l63.02-45.738 37.722 45.909 32.615-43.705c19.17 13.729 62.761 44.34 62.761 44.34 0 0-130.71 1.93-196.12-.806m-657.16-23.346c13.258 9.381-126.29-159.98-142.39-219.85-12.07-35.28-2.986-78.41 23.289-96.88 44.505-31.3 96.71-18.792 106.61 33.899 2.809 14.947 7.476 13.169 9.119.042 5.947-67.12 88.37-72.03 120.09-25.21 21.711 32.05 21.871 83.01-9.559 134.04-7.597 16.209-107.83 169.32-107.16 173.96m-266.45-64.55c-18.697-36.469-46.47-73.23-61.18-107.27-11.04-27.842-1.692-56.672 18.888-62 20.283-5.254 35 3.11 38.85 22.08 1.303 6.423 3.86 6.901 5.124.957 7.63-35.869 58.21-28.12 61.696 9.457 2.218 23.936-4.02 39.748-33.558 85.04-7.138 14.699-26.433 35.966-29.822 51.738m9.853-230.33h21.06l-30.947-75.929-23.667 32.07.144 43.863h16.617v22.627h-58.51v-22.627h19.269v-163.34l-19.269.04v-19.75h59.4v20.418h-16.407l-.354 79.62 51.851-80.29h-18.296v-19.75h63.19v19.75h-16.668l-42.688 65.63 41.777 97.67h18.562l.086 22.627h-64.963z" transform="translate(-3885.24 204.78)" fill="#d40000"/>
   <path d="m1936.81-211l-579.37 3.719 112.59 150.37c119.62-24.351 223.74-8.529 331.81 10.344zm-14.813 7.625l-38.563 47.906c-10.667-9.647-34.485-6.164-31.12 14.943-29.554-15.364-35.818 26.819-10.729 25.09-3.148 8.283-28.48 10.468-35.625-4.563-26.01 14.576-33.957.436-40.844-8.75 33.05 22.44 49.14-23.683 12.75-26.28 14.295-28.916-36.691-42.04-33.688-4.406-33.629-7.623-25.917 39.698-1.219 30-16.04 24.12-42.36 7.916-47.688 3.219-13.53 10.149-39.12 10.472-46.28-5.75 37.426 7.526 33.33-41.755.094-30.406 17.716-37.849-41.22-32.755-26.906-1.75-33.53-1.279-26.11 40.07 3.344 33.03-26.17 24.661-45.767 1.68-49.906 1.188-15.491 17.09-42.699 7.726-46.44-2.375 26.693 10.543 35.442-34.3 1.792-31.604 8.621-28.886-39.796-32.389-29.11.42-26.677-6.04-28.13 36.678 1.757 30.03 1.851 11.698-21.662 22.902-36.12 11.594-10.61 5.808-22.22 14.848-36.03 1.469 21.03-3.387 24.489-38.931-9.469-31.25 1.617-21.82-10.91-23.01-26.388-17.47l-24.8-33.593zm-399.69 53.594c-1.842 4.064-4.954 6.836-4.225 9.932.598 2.543 3.207 6.069 6.85 10.849 28.989 37.783 87.76 36.518 105.44-2.438 3.604-7.235 2.869-8.878-1.469-15.03-5.239-7.431.678-15.355 7.094-14.688 9.578.996 11.234 9.343 6.625 15.281-10 12.593 17.472 41.08 44.906 45.563 35.16 5.74 68.51-18.992 63.869-41.15-.266-1.272-.914-2.457-1.181-3.784-3.742-18.557 25.686-9.667 15.09 2.156-3.979 4.276-6.128 5.55-5.594 10.25 8.545 39.27 56.29 43.39 79.03 31.28-29.339 47.851-75.82 10.972-84-22.469-41.2 59.48-90.7 47.12-118.28-5.156 3.261 3.261-54.34 93.7-119.72.969-27.675 74.64-78.14 24.19-74.69 21.12 23.18 12.915 65.28 8.238 69.34-31.688.558-4.93-3.181-5.233-5.344-9.125-10.961-19.732 24.405-19.872 16.25-1.875m-108.94 4.906c5.242.49 6.121 2.671 5.25 8zm449.59 14.03l-7.594 9.531c-1.809-4.663-1.859-8.943 7.594-9.531m82.59 3.156c-18.02.763-31.943 25.665-31.03 58.875.442 16.1 3.274 56.52 4.375 62.53 1.539 8.403-.135 19.798-3.094 21-7.8 3.17-10.737 5.213-12.844 8.938-5.475 9.679-.946 20.603 10.594 25.5 8.241 3.497 18.682-1.331 25.75-11.875 3.926-5.856 4.849-8.462 8.313-23.19 1.594-6.779 1.451-18.02-.375-28.344-4.151-23.461-1.066-52.682 7-66.41 14.464-24.61 14.196-40.728-.75-45.813-2.711-.922-5.362-1.328-7.938-1.219m-.938 3.75c20.975.076 20.409 21 8.781 27.438-4.509 2.01-10.02 2.488-15.531-1.125-6.191-3.578-5.349.504 1.063 5.156 7.528 5.462 10.737 5.126 6.688 17.938-3.771 11.931-5.75 37.723-3.688 52.37 5.643 40.09.873 60.07-16 67.03-8.316 3.429-17.292-1.404-19.6-8.08-3.612-10.454 2.819-19.427 18.698-16.916 0 0 1.121-3.331-3-38.12-5.739-48.4-3.48-82.19 5.406-94 4.747-6.308 10.879-11.71 17.188-11.688m142.28 49.906c-4.902.041-10.18 1.372-15.562 4.406 0 0-.581 21.765-1.219 25.06-3.564 18.413-2.521 20.605 6.06 23.22 20.82 6.338 37.917-7.471 37.16-29.12-.427-12.171-11.731-23.685-26.438-23.563m2.813 2.906c11.38-.343 21.712 12.961 20.594 25.5-.599 15-14.948 23.18-27.813 20.563-3.807-.576-7.744-1.297-8.969-4.156-2.577-3.975 1.569-5.416 10.219-5.375 9.473.045 11.23-1.255 14.375-6.563 6.229-10.514-1.741-23.844-11.906-21.344-3.467.853-3.974 2.422.094 3.563 12.456 5.614 7.82 13.448 3.5 16.625-5.138 3.778-13.638-1.401-15.09-4.531l.875-20.313c0 0 4.115-3.855 14.12-3.969m-128.31 94.12c0 0-4.745 2.267-7.03 4.375-5.03 4.643-6.088 11.681-3.625 18.594 1.09 3.062.919 3.579-2.906 8.563-10.897 14.197-12.3 21.291-6.719 34.09 2.534 5.814 2.552 5.813.156 13.5-10.274 32.971-30.548 70.34-52.19 96.22-3.346 4-4.688 8.094-4.688 8.094 0 0 5.066-.258 7.875-1.656 22.361-11.126 45.981-32.679 67.938-46.813-34.724 28.17-71.72 53.37-71.72 53.37l47.25 2.531c-11.864 12.165-219.05 187.72-164.03 502.59 64.68-16.08 94.77-42.766 129.25-73.62.323 25.373.876 93.66 1.094 93.66.658-1.123-29.929-11.52-22.656 13.656 4.326 13.812 6.516 48.768-1.156 68.5-.325.835 3.298 2.16 2.938 2.938-.414.893-4.906.906-4.906.906-11.744 21.902-41.989 26.702-56.896 26.04-5.5-.52-3.277 7.02-2.552 9.741 2.772 11.279 15.767 35.431 40.04 74.22l6.375.844-3.688 3.406c2.861 5.221 10.522 15.04 10.522 15.04l.333 3.331c0 0 13.318 18.535 20.461 27.24.488.595 1.602-.813 2.093-.223 3.963 4.764 8.72 10.1 12.752 14.855.312.367-.624 1.725-.306 2.072 7.591 8.272 22.511 24.994 22.511 24.994l2.966-.713 11.73 13.219c97.34-44.26 199.06-142.18 198-141.97l.835-210.74-115.25-.344-.491-279.17 115.13 113.81-.75-32.656c-26.11-24.828-131.06-130.72-131.06-130.72 15.276-2.127 30.07-7.091 44.41-14.875 25.03 13.772 51.8 22.05 82.47 17.969l-.125-30.969c-34.818-.062-56.41-11.601-72.03-25.531l-21.5-.719c-39.715 30.2-67.795 16.187-98 10.25l-20.875-30.06 213.84-1.094-1.531-72.969-32.469.719-21.09-15.594 24.469 10.344c0 0-.386-4.02-5.281-11.656-13.181-21.538-29.909-53.23-39.938-80.87-4.852-14.04-4.844-13.462-.75-21.688 5.625-11.302 4.406-24.988-3-32.688-5.219-5.426-5.05-6.585-3.344-10.625 6.941-16.01-9.806-21.903-9.875-20.875-35.815 13.805-83.86-.414-83-.844m83.31 5.812c7.15-.062 7.931 3.079 7.906 8.406-.608 9.764-13.32 13.299-19.06 14.656-27.478 6.293-75.38 2.567-78.5-10.25-2.291-9.42 3.582-14.641 23.09-9.969 31.361 6.738 50.767-.509 66.56-2.844m-88.69 27.19c2.852-.02 6.272 2.883 7.25 7.625.835 4.049-3.379 15.971-6.906 18.719-8.73 6.801-16.616-3.776-10.781-15.281 3.364-6.634 6.772-11.04 10.437-11.06m93.75 1.344c1.305.033 3.64.302 5.156 1.375 6.919 4.895 7.562 21.834 1.094 24.281-6.592 2.494-12.707-4.377-12.656-15.16.031-6.603 2.491-10.599 6.406-10.5m-21.969 3.5c1.408-.071 2.902.23 4.438.938 5.765 2.66 8.562 20.425 2.844 26.09-4.433 4.395-13.967 4.155-16.75-4.969-3.326-10.905 1.867-21.681 9.469-22.06m-48.719.5c8.439.057 10.359 18.831 2.094 26.563-6.911 6.465-17.465.1-14.156-12.719 1.654-6.408 5.449-13.395 12.06-13.844m24 3c12.355 2.109 11.311 32.364-4.875 29.344-9.216-6.429-8.967-28.893 4.875-29.344m-54.03 32.406l17.469 1.625c0 0-22.612 48.929-43.28 67.62-7.731 7.835-12.186 8.167-6.313-.188 12.96-16.01 32.12-69.06 32.12-69.06m104.72.313c10.201 27.2 20.672 54.812 34.594 82.62-21.16-20.395-39.904-51.753-57.19-81.19zm-82.12 2.625l11.563.125c3.849 17.618 10.511 28.849 18.344 38.5 6.775-11.448 11.06-24.03 15.219-37.438l9.188-.125c3.517 2.096-10.811 55.2-24.844 61.66-14.863-12.07-27.392-44.689-29.469-62.719m-4.875 12.563c-.97 1.269 17.959 46.754 33.969 61.34 15.09-14.644 24.72-33.94 31.19-56.938l49.656 69.69-48.41-33.12c-9.67 16.06-19.932 31.376-32.25 44.12-13.285-14.369-24.785-31.416-36.844-47.625-18.68 13.839-31.781 28.621-56.03 41.531.108.541 47.51-51.13 58.719-79m-4.656 49.53l33.781 41.28-89.94-1.281zm73.16.656l56.75 39.06-84.56.875zm-452.16 19.219c0 0 .476 2.478 1.031 3.969 10.07 41.09 37.856 75.25 79.66 71.19l-137.41 137.34c0 0-22.688-76.987-68.66-155.91 0 0 8.388 1.725 14.938 3 6.14.937 10.804.644 15.406-.563 3.516-.519 6.204-2.821 9.344-3.5 5.297-1.11 11.949.798 15.469 2.031 9.441 1.786 15.868-3.497 27.688-13.938 3.146-2.779 4.351-2.104 8.312-2.094 14.81.04 24.26-12.668 22.594-32.375l-.75-8.75-1.875 9.844c-3.534 18.556-6 26.557-24.375 27.344-4.448.19-6.123 3.181-13.156 9.219-9.85 8.455-16.803 9.182-23.781 5.875-7.119-3.373-7.782-1.39-14.5 1.813-7.694 3.667-18.899 3.237-29 .344-14.1-4.04-12.375-2.688-12.375-2.688 81.65 145.33 110.34 284.72 108.53 408.53-2.576 176.42-64.29 318.81-118.44 404.66 0 0 9.292-.943 17.563-2.156 3.99-1.109 7.06-.041 11 1.344 3.679 1.293 6.458 1.229 10.06.813 2.817-.322 9.696.052 14.12.688 10.05 1.441 10.715.125 21.656-10.5 31.05-30.16 29.03-29.04 51.53-28.313 33.755 1.095 60.751 23.361 72 59.47 1.422 4.563 3.284 10.969 3.537 10.969l-2.193-9.563c-9.882-48.41-51.28-66.12-85.84-65.47l145.87-146.25c-.745.138 33.811 111.28 63.906 160.81.049.341-9.13-3.953-25.911-1.777-9.123 1.183-19.332-.022-25.06-1-7.377-.184-11.869 1.989-21.06 9.559-3.817 3.268-7.255 6.848-14.719 10-17.742 7.492-24.814 15.238-24.906 34.688-.017 3.536-.556 8.06-.5 9.813.015.465-.022 1.298.094 1.3.298 0 .714-.728 1.063-1.237.886-1.294 2.674-4.817 4.051-12.963 2.458-14.545 5.519-19.634 19.294-26.08 4.134-1.937 12.838-7.204 16.702-10.286 12.695-10.123 16.926-12.437 27.24-10.04 5.866 1.368 10.848 2.072 18.717 1.119 9.358-1.132 9.906-1.612 19.917.969 6.792 1.751 15.196 3.45 15.196 3.45-141.38-283.91-136.72-547.1 2.825-814.14 0 0-41.31.488-43.06 1.563-.667.407-5.687-.044-11.156-1.031-11.241-2.029-8.78-.667-35.31 26-32.798 32.966-85.26 6.67-101.06-48.656-.826-2.893-1.537-4.637-2.781-6.688-.397-.653-1.438-1.75-1.438-1.75m133.66 32.468c6.074.644 10.599 2.246 9.844 7.933l-194.72 190.66-3.03-12.281zm41.06 1.157c-2.398 4.734-8.899 10.661-11.75 15.12l10.594 13.188-5.875 10.625-16.281-13.688-31 30.594 25.844 29-24.469 24.688-8.156-9.219 12.938-13.531-20.09-18.813-35.406 34.406 28.844 29.31-21.16 20.281-8.438-8 11.09-12.25-18.812-19.438-32.969 33.625 26.09 29.03-20.16 20-8.938-9.06 9.688-10.09-18.656-19.531-33.594 33.12 27.25 29.563-20.03 17.906-7.06-7.469 9.687-10.406-18.312-19.594-20.844 18.906-3.469-12.969 206.19-204.81zm11.875 3.03l-8.688 17.438-6.719-7.375 8.75-9zm-486.31 1.125c-5.345 1.303-128.11 69.69-198 144.75l-.219 27.969-2.594 3.344 1.25 43.28 1.75 2.313.594 17.656-2.781 4.656-.031 48.47 3.719.625.594 59.31 114.81.313-.125 283.37c0 0-67.42-74.1-115.97-117.84l.188 33.12 128.44 132.69c-8.834 1.241-20.327 3.376-37.656 12.938-41.673-26.03-89.84-18.06-89.84-18.06l.188 33.75c30.63-2.956 58.28 1.231 90.47 22.906 26.505-17.965 58.44-28.893 106.06-14.625 10.479 16.594 20.957 33.713 31.436 44.842l-227.4 1.689.281 68.34c10.09.203 35.31 0 35.31 0 12.793 25.06 37.931 59.27 48.37 102.31-14.33 17.21-13.185 31.06.754 48.39-.122 7.817-2.477 16.453 6.309 25.16 28.931-14.14 61.6-7.867 85.91-.644 8.237 2.447 11.352-6.937 11.06-18.747-.733-6.761-.696-9.654 4.499-14.158 12.371-10.725 4.689-32.758 2.751-33.25-.716-19.318 61.21-116.11 61.25-114.33l-12.339 4.467-52.939.24c139.24-134.25 197.43-287.39 185.25-460.31-2.718-43.57-9.5-63.53-9.5-63.53-49.04 21.79-89.35 37.634-128.5 79.56l-2.594-90.12c2.179 4.268 16.712 8.204 23.22 2.75 4.454-2.914 4.902-6.03.781-16.969-5.981-15.878-7.399-49.931-2.937-61.5.521-1.351.966-4.944 1.344-8.469.509-4.744-.533-5.02-.969-4.938 1.14-.278 5.926.693 6.5.188 16.728-14.716 34.673-23.914 56.687-24.875l.563-10.75c-16.326-41.23-30.15-57.39-44.938-80.44 0 0-4.193-1.391-6.844-.844l3.406-3.594c-20.746-32.916-50.27-62.872-77.41-91.31.078-.1.016-.136-.156-.094m-.906 5.594l14.719 13.594c-70.24 33.759-139.54 83.22-207.78 150.31l.938-24.656c77.13-72.54 135.32-107.38 192.12-139.25m451.09 24.656l8.844 8.813-12.25 14.219 7.969 8.125-4.437 10.844-20.375-21.16zm-438.5 1.125c4.625 0 8.375 3.75 8.375 8.375 0 4.625-3.75 8.375-8.375 8.375-4.625 0-8.375-3.75-8.375-8.375 0-4.625 3.75-8.375 8.375-8.375m601.06 11.563c143.18 159.36 69.66 390.96-121.47 446.59l-2.125-13.09c192.83-64.95 238.06-282.24 112.94-418.84zm-576.25 1.063l9.125 10.563c-81.63 38.966-161.25 97.38-238.22 181.66l-.75-21.281c72.29-75.978 149.56-130.95 229.84-170.94m-52.656 3.25c4.625 0 8.375 3.75 8.375 8.375 0 4.625-3.75 8.375-8.375 8.375-4.625 0-8.375-3.75-8.375-8.375 0-4.625 3.75-8.375 8.375-8.375m-25.5 15.75c4.625 0 8.375 3.75 8.375 8.375 0 4.625-3.75 8.375-8.375 8.375-4.625 0-8.375-3.75-8.375-8.375 0-4.625 3.75-8.375 8.375-8.375m84.91 5.5c4.625 0 8.375 3.75 8.375 8.375 0 4.625-3.75 8.375-8.375 8.375-4.625 0-8.375-3.75-8.375-8.375 0-4.625 3.75-8.375 8.375-8.375m363.72 5.781l8.375 8.844-13.281 13.313 18.906 19.75 18.19-17.5-9.125 26.06-160.34 160.25-3.344-16.813 12.625-12.688-19.344-19.313-3.406-12.875 19.03-17.813 7.969 8.188-11.125 12.844 17.906 17.625 32.531-29.938-26.844-29.469 22.16-21.438 7.656 7.469-10.594 10.906 18.656 20.22 33.375-31.969-27.406-28.969 22.03-21.719 8.344 7.969-11.09 13.313 18.969 18.344 32.688-32.28-26.875-28.25zm-473.62 5.625c4.625 0 8.375 3.75 8.375 8.375 0 4.625-3.75 8.375-8.375 8.375-4.625 0-8.375-3.75-8.375-8.375 0-4.625 3.75-8.375 8.375-8.375m132.06 1.625l6.375 10.594c-97.18 49.09-164.39 98.26-263.84 211.25v-14.219c76.78-94.27 156.61-155.04 257.47-207.62m-48.813 1.25c4.625 0 8.375 3.75 8.375 8.375 0 4.625-3.75 8.375-8.375 8.375-4.625 0-8.375-3.75-8.375-8.375 0-4.625 3.75-8.375 8.375-8.375m751.91 3.219c17.14 15.253 53.14 30.457 76.34 28.844l.625 18.344c-40.468 3.842-75.81-22.06-75.81-22.06-31.17 19-62.895 21.399-95.97 13.156l-12.719-27.25c49.05 22.736 95.05 1.04 107.53-11.03m-193.66 4.969c1.799 3.317 7.844 7.156 7.844 7.156 37.753-9.827 49.51 29.08 31.906 51.31l5.03 16.313c6.736 1.221 12.646 3.586 17.438 6.906 9.185 6.366 14.24 17.396 13.09 28.969 1.281 12.54-17.482 24.22-18.5 23.344l-.25 17.938c5.279 4.397 11.638 8.652 15.688 14.875 9.02 15.14 5.444 30.404-8.469 40-8.284 5.595-17.266 6.332-17.625 5.75l-8.719 20.375c7.677 4.332 9.829 11.702 11.03 16.969 2.607 11.419-5.409 26.291-15.469 31.781-12.701 6.931-30.02.773-30 .781l-12.375 12.375c3.185 10.721 4.06 17.12 2.375 23.406-4.17 15.565-20.487 21.668-33.594 20.5-10.292-.917-18.03-8.438-18.03-8.438l-13.719 5.25c.385 0 .203 17.372-6.719 22.688-2.178 2.252-9.906 7.25-9.906 7.25l-1.812-11.969c5.435-3.914 8.815-13.4 7.719-20.344l29.625-14.5c0 1.073 8.111 8.933 13.656 10.06 11.373 2.317 23.257-6.558 23.281-17 .014-6.091-3.501-10.239-4.5-15.16l25.16-26.03c10.41 3.578 17.718 4.187 22.375 1.5 8.793-5.073 11.162-15.545 9.469-21.844-2-7.447-8.643-12.264-9.09-12.969l14.03-35.469c6.54-.034 10.587-1.06 15.688-4.375 10.402-6.831 9.06-20.1 4.625-26.406-5.394-7.668-13.23-9.09-13.844-8.906l1.031-36.844c0 .3 14.193-6.817 15.719-15.03 2.249-12.1-2.853-19.795-17.719-23.22-8.246-1.899-7.813-.313-7.813-.313l-11.75-33.34c18.622-11.354 12.719-29.411 3.281-35.469-9.952-6.388-24-.469-24-.469 0 0-6.4-6.351-11.25-11.469zm-498.31 6.75c12.235 16.453 32.952 49.41 44.531 78.906.505 1.287.25 7.813.25 7.813-33.04 2.873-44.39 15.824-56.12 24.938-9.104-4.673-12.941-10.149-29.406.156-.053.485-41.978-25.358-50-60.44 29.972-18.47 58.53-36.05 90.75-51.37m-167.72.219c4.625 0 8.375 3.75 8.375 8.375 0 4.625-3.75 8.375-8.375 8.375-4.625 0-8.375-3.75-8.375-8.375 0-4.625 3.75-8.375 8.375-8.375m79.41 1.656c4.625 0 8.375 3.75 8.375 8.375 0 4.625-3.75 8.375-8.375 8.375-4.625 0-8.375-3.75-8.375-8.375 0-4.625 3.75-8.375 8.375-8.375m573.12 10.281c14.44 18.999 36.2 54.929 41.37 86.75 7.279 44.754 2.432 91.7-18.09 124.53-37.23 70.13-101.8 85.06-101.84 87.5l-.656-14.375c.607 3.234 49.35-17.302 82.53-63.66 20.483-31.414 32.12-76.31 28.16-111.34-2.464-50.49-38.29-97.05-38.594-97.22zm-678.66 6.844c4.625 0 8.375 3.75 8.375 8.375 0 4.625-3.75 8.375-8.375 8.375-4.625 0-8.375-3.75-8.375-8.375 0-4.625 3.75-8.375 8.375-8.375m79.31.125c4.625 0 8.375 3.75 8.375 8.375 0 4.625-3.75 8.375-8.375 8.375-4.625 0-8.375-3.75-8.375-8.375 0-4.625 3.75-8.375 8.375-8.375m715.06 14.12c18.587 2.01 41.31 35.707 62 54.938l.219 274.69-61.781 1.25c-8.05 19.327-26.708 38.425-56.44 57.28l-.031-102.94c101.38-108.61 73.8-227.48 56.03-285.22m-817.13 3.125c4.625 0 8.375 3.75 8.375 8.375 0 4.625-3.75 8.375-8.375 8.375-4.625 0-8.375-3.75-8.375-8.375 0-4.625 3.75-8.375 8.375-8.375m76.34 1.5c4.625 0 8.375 3.75 8.375 8.375 0 4.625-3.75 8.375-8.375 8.375-4.625 0-8.375-3.75-8.375-8.375 0-4.625 3.75-8.375 8.375-8.375m784.34.656l126.31 127.34-.438 18.688-142.34-144.62zm-738.03 11.969l3.344 16c-4.082-6.412-4.236-8.784-11.313-9.906zm-68.37 4.656c4.625 0 8.375 3.75 8.375 8.375 0 4.625-3.75 8.375-8.375 8.375-4.625 0-8.375-3.75-8.375-8.375 0-4.625 3.75-8.375 8.375-8.375m-75.66 2.344c4.625 0 8.375 3.75 8.375 8.375 0 4.625-3.75 8.375-8.375 8.375-4.625 0-8.375-3.75-8.375-8.375 0-4.625 3.75-8.375 8.375-8.375m710.66 0l24.938 17.656-8.125 31.844-25.531-22.938zm-576.28 2.594l4.437 2.625-5.156 21.781-57.41 20.719c18.458-15.759 37.434-32.94 58.12-45.12m9.406 10.125c4.082 16.14 12.933 40.02 23.787 60.23-7.367 3.808-33.856 18.795-33.787 25.766 3.738 12.63 31.719 24.22 31.719 24.22-10.613 17.194-20.681 37.46-28.938 60.781-4.78-8.141-5.333-40.24 4.969-53.594-10.161-4-24.06-13.159-34.625-22.625 6.814-24.11 35.853-38.506 37.12-38.688-.509 1.214-8.576-50.36-.25-56.09m-93.19 4.063c4.625 0 8.375 3.75 8.375 8.375 0 4.625-3.75 8.375-8.375 8.375-4.625 0-8.375-3.75-8.375-8.375 0-4.625 3.75-8.375 8.375-8.375m639.37.688c37.26 69.42 15.1 129.72-44.34 172.94l1.375-16.375c41.01-29.755 67.58-88.33 37.625-144.19zm-710.12 2c4.625 0 8.375 3.75 8.375 8.375 0 4.625-3.75 8.375-8.375 8.375-4.625 0-8.375-3.75-8.375-8.375 0-4.625 3.75-8.375 8.375-8.375m596.09.438c-27.348 101.93-26.667 148.65-29.844 176.28l-106.16.906-4.125-36.75zm-424.09 2.813c0 0 23.03 21.372 43.688 40.03l-2.469 4.875-20.09 2.688c-15.373-30.27-21.12-47.594-21.12-47.594m-19.06 11.188l.156.031 1.281 15.188c-6.899-.258-81.55 30.927-138.91 80.72 8.549-15.06 22.966-29.499 36.906-41.813 29.655-29.11 100.56-54.12 100.56-54.12m-106.12 3.469c4.625 0 8.375 3.75 8.375 8.375 0 4.625-3.75 8.375-8.375 8.375-4.625 0-8.375-3.75-8.375-8.375 0-4.625 3.75-8.375 8.375-8.375m47 9.531l4.25 4.375-19.813 10.25zm138.12 4.469c.27-.001.562-.004.844.031 3.066.386 4.339 1.839 6.094 3.313-3.878-.805-7.684-1.259-11.313-1.063.914-1.092 2.482-2.208 4.375-2.281m-75.81 3.156l1.813 11.344c-42.955 24.42-94.05 47.5-168.41 117.79v-23.382c46.664-43.23 101.09-79.48 166.59-105.75m57.781 1.063c2.68.657 5.065.694 7.5.094 0 0-1.559 3.086-3.406 3.156-1.95.075-4.094-3.25-4.094-3.25m18.219.656c5.399-.335 9.09 4.607 8 10.969-4.148 21.561-3.986 43.4.469 58.656 3.472 11.894 4.35 16.08 1.469 18.06-25.321 17.463-39.2-61.26-18.06-83.59 2.866-2.695 5.671-3.942 8.125-4.094m-206.78 2.75c4.625 0 8.375 3.75 8.375 8.375 0 4.625-3.75 8.375-8.375 8.375-4.625 0-8.375-3.75-8.375-8.375 0-4.625 3.75-8.375 8.375-8.375m727.72 1.938l15.75 26.406-21.938 24.563-13.344-28.531zm-542 14.344l-.818 9.119c-11.31 3.432-21.17 8.304-29.651 15.506-1.64 1.406 26.2 13.967 29.12 11.06l-.062 9.719c-.388 3.194-46.04-11.305-49.12-22.12 5.176-7.196 34.06-23.93 50.53-23.281m-207.75 4.844c4.625 0 8.375 3.75 8.375 8.375 0 4.625-3.75 8.375-8.375 8.375-4.625 0-8.375-3.75-8.375-8.375 0-4.625 3.75-8.375 8.375-8.375m124.51 9.617c-3.24 6.154-8.04 14.331-8.958 23.269-31.32 18.992-63.44 36.73-102.52 80.3l-21.06-.125-.469-5.531c42.713-40.717 88.96-75.848 133.01-97.91m80.68 2.633l.219 11.469c-7.282.092-11.26-2.283-16.687-5.03 4.575-2.888 8.116-5.754 16.469-6.438m235.66 1.219l5.875 6.156-3.656 3.438zm-317.31 23.844l11.594 7.219c-29.851 15.575-61.28 38.591-88.47 68.66h-22.969c29.01-31.441 60.25-59.65 99.84-75.875m618.5 8.281l2.313 31.19-29.12 15.969.562-32.906zm-553.87.125l20.03 2.188 2.063 8.469c-16.806 10.688-31.407 23.22-45.41 36.25 5.361-16.735 13.729-33.35 23.312-46.906m-48.03 3.344l8.594 3.969-3.406 14.656c-24.54 10.908-44.09 25.642-65.03 45.5h-23.562c20.635-22.11 54.947-49.947 83.41-64.12m74.53 13.781c.071-.008.1-.008.094.031l3.125 96.12c-86.52 101.29-81.82 199.24-56.59 288.06l-16.5-.75c-19.18-23.826-44.688-48.09-44.688-48.09l-.063-279.62 59.656.219c14.07-32.546 52.758-55.707 54.969-55.969m-70.44 13.5l.719 12.813c-12.336 7.32-22.809 15.378-31.813 24.03h-22.406c15.489-14.414 30.864-28.926 53.5-36.844m203.41 6.281l3.281 15.12c-200.82 72.64-237.11 283.82-118.59 428.78l-8.06 9c-136.09-146.14-76.36-384.87 123.37-452.91m-201.81 15.12c0 0 1.096 11.586 1.438 15.438h-22.5c5.062-5.932 9.554-12.08 21.06-15.438m565.12 4.844l-12.938 30.16-34.531.531 15.687-30.16zm-218.59 20.656h31.469v30.06h-31.469zm-136.19 2.969l.531 13.219c-13.98 7.116-10.453 18.429-13.969 18.25-8.592 2.174-31.25 14.188-31.25 14.188-8.04-7.285-18.871-5.45-23.906-1.906-6.985 4.57-8.524 15.211-6.531 24.22l-24.03 28.09c-11.607-4.96-22.924-4.65-28.563 3.094-6.36 8.735-3.951 19.572 6.563 31.719l-13.09 33.594c-1.508-2.01-23.42 4.422-23.719 17.438-.316 13.775 18.12 22.76 18.09 23.813l-.875 37.06c-.83-1.782-18.811 5.557-16.375 23.313 2.244 16.352 24.505 14.358 24.969 15.719l12.09 35.469c-.812-1.082-16.391 14.169-6.844 28.594 7.957 12.02 31.07 4.245 30.875 3.469l6.406 9.03-7.094 7.688c0 0-3.065-3.672-4.781-3.344-13.454 2.571-28.479-.512-35.687-11.25-9.813-15.15 1.141-38.821 4.625-38.625l-8.313-20.438c-15.15-.299-27.972-13.823-28.656-25.16-1.432-23.729 18.05-33.656 18.09-33.5l.562-22.12c-1.191 1.323-19.244-11.486-18.812-26.19.315-10.745 9.364-23.384 20.5-28.469 3.224-1.516 8.25-3.906 8.25-3.906l7.531-18.12c0 0-10.665-15.405-7.906-30.938 5.131-23.517 35.782-21.904 40.625-19.625l14.219-17.813c-7-16.253 5.094-35.11 20.906-38.19 7.03-1.127 26.719 3.531 26.719 3.531l18.219-9.406c-.312-9.956 10.552-16.438 20.625-22.5m103.59 32.906h26.969v30.06h-26.969zm71.844 0h30.406v30.06h-30.406zm-173.25 7.531l-.344 11.5c-174.1 84.42-102.9 259.2-78.06 279.53l-5.594 12.344c-30.551-18.578-109.31-220.26 84-303.37m134 30.438h32.719l.281 30.906h-32.719zm-141.56 15.03l-10.375 28.16-31.969 2.688 11.813-28.09zm653.25 20.594l21.875.125c-40.897 47.832-85.03 80.43-128.59 98.28 0 0-.151-4.259 1.188-7.625 1.061-2.668-.656-9.406-.656-9.406 48.42-23.847 81.69-51.55 106.19-81.37m-112.1.406c-5.625 6.765-12.05 12.728-20.03 17.14l-3.155-17.423c6.689-.078 23.18.281 23.18.281m38.504-.375c2.212 5.567-57.41 37.761-57.62 35.02l.155-10.705 32.17-23.875zm12.875 0h.125l16.781.094c-15.16 23.908-95.32 67.32-91.99 61.21l3.234-17.485c25.84-11.366 49.3-26.82 71.851-43.815m28.28 0l22.08.094c-33.22 42.19-66.921 57.59-99.25 75.74-1.943-.283-1.066-1.012-7.118-.834l-11.06-8.623c2.067 1.895 74.29-40.449 95.34-66.37m-617.84 1.5l-.75 12.75c-46.47 39.965-65.12 91.04-40.938 150.31l-5.75 12.656c-26-63.25-18.327-124.71 47.44-175.72m211.62 2l2.469 34.406-144.28 140.44c21.963-78.46 28.04-125.82 33.938-174.66zm462.03 8.094l.063 19.09c-56.883 62.66-114.21 90.74-163.75 102.09l-1.125-7.344 22.937-14.12c73.908-32.19 106.28-64.61 141.87-99.72m-172.64.513c1 13.799-11.287 39.85-25.331 54.55l-24.06-.063-2.656-10.438c19.947-10.757 38.425-25.32 52.05-44.05m7.263 4.112c8.837 14.221-4.422 51.02-4.969 49.563-1.06 2.537 75.59 18.74-3.156 56.656 1.715 11.14 9.1 34.928 3.406 49.625-1.775-5.629-15.477-43.794-26.06-53.56 24.584-7.01 42.29-22.05 40.37-27-3.999-7.05-15.01-15.714-33.531-22.06 15.766-21.881 20.456-38.31 23.937-53.22m-562.97 6.969l2.469 29-28 16.844-2.156-31.844zm487.12 26.938c2.186.028 4.243.594 5.25 1.688 13.831 5.598 14.832 73.07 2.281 79.938-9.121 5.733-15.538-3.485-15.219-5.125 6.05-31.04 2.267-50.23-.25-71.938.267-3.156 4.294-4.61 7.938-4.563m241.22 1v24c-81.32 84.29-168.93 150.72-258.37 188.03l-8.156-13.844c108.63-50.23 199.47-121.9 266.53-198.19m-14.281 2.188c-37.664 52.42-83.55 86.65-146.41 102.19l-1.188-14.875c78.29-17.784 149.63-87.31 147.59-87.31m-1025 8.5c49.05 50.14 99.31 99.84 149.25 151.31l-19.844 1.031-130-134.87zm583.94 2.5l1.75 12.375-14.281 15.656 22.563 24.25 1.156 5.719-19.375 20.25-8.75-8.656 10.719-12.03-18.19-19.12-33.719 32.438 27.781 30.16-20.969 19.938-8.25-8.531 10.719-12.375-18.625-19.656-34.375 34.19 26 28.719-17.344 19.19-8.219-8.656 8.906-10.219-18.844-19.406-33.03 31.813 27.19 30.06-22.09 22-8.562-8.313 12.406-13.5-20.375-19.406-16.344 15.438c0 0 6.166-15.317 7.06-17.906 1.317-3.806 6.729-6.817 41.09-40.719 41.01-40.825 83.08-79.08 124-123.69m235.25 8.25c11.988.201 32.382 3.092 42.28 8.313 18.369 9.688 12.593 17.313.656 23-14.267 6.798-25.974 10.122-42.09 10.594l.469-7.906c9.36-2.263 19.07-4.548 27.344-9.125 5.69-3.148 7.156-5.688 7.156-5.688 0 0-5.546-5.639-14.375-8.844-6.462-2.345-15.696-2.328-20.719-3.156zm-536.5 10.438l15.09 22.625-17.875 29.969-17.16-25.844zm304.47 2.438c.533 4.264 5.925 20.837 3.094 17.625l-10.03-11.281zm232.97 2.219c8.345.704 17.12.952 23.22 3.906-7.07 5.481-15.08 6.707-23.06 8.06zm209.41 11.313c5.04 0 9.125 4.085 9.125 9.125 0 5.04-4.085 9.125-9.125 9.125-5.04 0-9.125-4.085-9.125-9.125 0-5.04 4.085-9.125 9.125-9.125m-470.94 15.813l7.781 7.531-10.06 11.719 18.25 19.219 22.594-21.16 3 13.438-211.69 208.28-11.75-.844 13.469-15.906-15.313-15.656 6.281-11.25 18.06 16.06 33.09-31.656-26.813-28.22 22.938-23.531 8.656 7.469-13.156 14.25 19.16 19.563 34.625-34.06-27.09-29.469 21.625-20.625 7.938 7.531-10.06 10.656 19.75 20.563 29.19-30.375-26.563-29.25 23.594-22.969 7.25 7.25-10.875 12.12 19.844 20.531 31.844-32.719-26.22-28.438zm449.75 5.438c5.04 0 9.125 4.085 9.125 9.125 0 5.04-4.085 9.125-9.125 9.125-5.04 0-9.125-4.085-9.125-9.125 0-5.04 4.085-9.125 9.125-9.125m-172.06.406c14.375 16.882 23.03 35.664 24.75 55.875-11.484-17.428-26.1-32.884-45.25-46.31l3.281-8.469zm203 1.374v20.376c-64.13 72.65-141.98 127.42-221.91 165.53l-13.594-16.531c94.53-42.2 162.94-94.61 235.5-169.38m-94.34 14.22l-26 20.19-.031-8.75 26.03-11.438m-134 1.5c22.13 10.806 40.69 29.07 51.75 56.12-30.23 18.97-63.39 34.33-95 49.625-15.175-24.441-30.45-47.34-42.43-78.8 48.748-.362 62.12-26.992 62.46-27.2 11.748 4.442 14.209 4.971 23.22.25m175.16 3.969c4.544.088 9.09 3.566 9.25 8.781 0 5.04-4.085 9.125-9.125 9.125-5.04 0-9.125-4.085-9.125-9.125.985-6.296 4.991-8.859 9-8.781m-67.47 6l.062 8.813c-12.444 10.907-36.625 28.563-36.625 28.563l-10-.531 3.25-25c15.14-3.05 29.816-7.476 43.31-11.844m-636.78 1.031l23.875 19.625-7.313 30.438-23.5-17.844zm320.62 5.75l2.219 8.813-196.16 193.91-11.156-1.813zm361.87 7.5c5.04 0 9.125 4.085 9.125 9.125 0 5.04-4.085 9.125-9.125 9.125-5.04 0-9.125-4.085-9.125-9.125 0-5.04 4.085-9.125 9.125-9.125m72.44-.063c1.073 0 2.344-.077 2.344.938v16.781c-.956.34-1.99.531-3.063.531-5.04 0-8.406-4.085-8.406-9.125 0-5.04 4.085-9.125 9.125-9.125m-22.14 20.343c5.04 0 9.125 4.085 9.125 9.125 0 5.04-4.085 9.125-9.125 9.125-5.04 0-9.125-4.085-9.125-9.125 0-5.04 4.085-9.125 9.125-9.125m-76.68.095c5.04 0 9.125 4.085 9.125 9.125 0 5.04-4.085 9.125-9.125 9.125-5.04 0-9.125-4.085-9.125-9.125 0-5.04 4.085-9.125 9.125-9.125m-65.969 2.813l9.375.313-17.438 10.375c3.201-4.01 6.191-7.07 8.06-10.688m167.25 4.269l.125 18.763c-44.869 44.848-101.53 91.38-188.16 136.22l-11.04-11.178c70.64-33.688 136.92-80.889 199.07-143.8m-127.41 10.231c5.04 0 9.125 4.085 9.125 9.125 0 5.04-4.085 9.125-9.125 9.125-5.04 0-9.125-4.085-9.125-9.125 0-5.04 4.085-9.125 9.125-9.125m81.12.688c5.04 0 9.125 4.085 9.125 9.125 0 5.04-4.085 9.125-9.125 9.125-5.04 0-9.125-4.085-9.125-9.125 0-5.04 4.085-9.125 9.125-9.125m-908.75 36.625c30.958-17.968 55.845-20.08 91.31-14.656l10.594 20.906c-34.535-6.121-70.919-5.574-102.03 18.437-32.24-20.371-56.734-26.25-83.21-22.938l-.479-22.04c34.505-4.821 65.47 7 83.81 20.29m802.47-19.875c5.04 0 9.125 4.085 9.125 9.125 0 5.04-4.085 9.125-9.125 9.125-5.04 0-9.125-4.085-9.125-9.125 0-5.04 4.085-9.125 9.125-9.125m83.44 3.75c5.04 0 9.125 4.085 9.125 9.125 0 5.04-4.085 9.125-9.125 9.125-5.04 0-9.125-4.085-9.125-9.125 0-5.04 4.085-9.125 9.125-9.125m-110.87 13.625c5.04 0 9.125 4.085 9.125 9.125 0 5.04-4.085 9.125-9.125 9.125-5.04 0-9.125-4.085-9.125-9.125 0-5.04 4.085-9.125 9.125-9.125m85.07 5.291c5.04 0 9.125 4.085 9.125 9.125 0 5.04-4.085 9.125-9.125 9.125-5.04 0-9.125-4.085-9.125-9.125 0-5.04 4.085-9.125 9.125-9.125m-113.2 10.834c5.109 0 9.25 4.141 9.25 9.25 0 5.109-4.141 9.25-9.25 9.25-5.109 0-9.25-4.141-9.25-9.25 0-5.109 4.141-9.25 9.25-9.25m88.81 7.655c5.04 0 9.125 4.085 9.125 9.125 0 5.04-4.085 9.125-9.125 9.125-5.04 0-9.125-4.085-9.125-9.125 0-5.04 4.085-9.125 9.125-9.125m-115.84 6.313c5.04 0 9.125 4.085 9.125 9.125 0 5.04-4.085 9.125-9.125 9.125-5.04 0-9.125-4.085-9.125-9.125 0-5.04 4.085-9.125 9.125-9.125m-403.41 8.25l22.688 20.781-23.469 23.563-8.594-8.25 13.06-13.656-8.844-11.906zm494.07 2.02c5.04 0 9.125 4.085 9.125 9.125 0 5.04-4.085 9.125-9.125 9.125-5.04 0-9.125-4.085-9.125-9.125 0-5.04 4.085-9.125 9.125-9.125m-26.27 15.448c5.04 0 9.125 4.085 9.125 9.125 0 5.04-4.085 9.125-9.125 9.125-5.04 0-9.125-4.085-9.125-9.125 0-5.04 4.085-9.125 9.125-9.125m-28.552 15.5c5.04 0 9.125 4.086 9.125 9.125 0 5.04-4.085 9.125-9.125 9.125-5.04 0-9.125-4.085-9.125-9.125 0-5.04 4.085-9.125 9.125-9.125m-469.28 25.813l7.406 6.03-11.625 14-8.875-.125zm-143.34 37.75c-25.863 12.798-38.15 20.901-56.19 36.594l-25.844-35.844zm-175.97.25l68.875.969-22.906 32.406c-15.11-15.921-30.418-26.734-45.969-33.375m82.03 3.531c7.465 2.375 26.995 30.21 36.19 45.41 19.587-15.577 38.768-32.983 59.688-42.34-24.875 26.27-46.713 53.44-62.25 79.72-4.408-11.847-16.67-45.762-32.19-60.5-24.483 22.853-34.16 50.44-34.16 50.44-13.17-22.434-29.03-44.915-47.37-65.938-3.038-4.097 22.326 11.665 47.44 36.09 7.07-17.812 25.994-42.17 32.656-42.875m-82.72 17.5c11.826 9.393 43.99 50.653 47.688 75.47l-15.406.969c-8.191-25.485-21.954-50.953-32.28-76.44m171.28 4.219c-11.648 23.885-26.1 48.28-36.469 74.72l-15.219-.656c16.671-36.43 22.743-43.1 51.688-74.06m-87.28 10.625c.146-.015.281.021.375.094 14.463 19.74 21.288 38.929 25.594 62.28l-11.188-.438c0 0-7.805-23.441-13.156-31.719-3.467-5.058-6.244-4.412-8.687-.219-5.521 9.909-7.588 19.837-10.688 30.625l-12.875-.938c-2.381-17.697 26.11-59.23 30.625-59.688m-2.031 68.03c5.233.072 10.702 5.737 10.655 15.697.409 4.668-3.224 15.02-7.155 15.553-7.296 3.864-15.922-8.162-13.752-18.19 1.851-8.55 5.634-13.12 10.252-13.06m-25.336 1.885c10.34.918 12.563 24.1 8.375 28.844-4.812 4.769-17.533 1.385-18.738-6.875-4.151-10.518 3.417-21.863 10.363-21.969m50.961-.135c11.257 1.578 8.423 27.03 2.603 30.77-9.06 4.789-15.951-3.216-12.896-15.178 2.462-9.638 6.13-15.367 10.293-15.592m26.03 4.219c12.896 1.441 5.445 23.852-.188 28.415-8.18 6.372-16.08-3.156-12.155-14.54 3.043-8.823 8.099-13.939 12.344-13.875m-104.08.688c9.379 1.499 14.816 22.727 9.23 28.79-2.913 3.476-11.396-1.596-15.271-7.415-4.65-6.984-.292-21.405 6.04-21.375m99.85 46.23c1.115 11.145-7.291 11.141-31.519 5.708-12.235-2.744-33.917-1.01-45 1-18.649 3.383-21.286 2.091-21.25-5.5.042-8.807 10.494-13.806 34.686-14.553 17.31-.534 60.4-.703 63.08 13.345m37.669-6.542c-28.85 2.714-36.523 38.865-33.34 52.22 2.534 22.323 1.455 45.703-2.844 61.06-3.08 11.03-5.819 22.785-10.781 32.781-7.59 15.11-5.632 26.322 5.625 32.34 9.242 4.946 20.621 3.255 27.75-4.406 12.889-13.85 14.427-43.24 6.531-109.94-2.786-23.535-1.292-28.23 10.125-26.906 23.965-.186 23.01-37.12-3.062-37.16m-3.469 30.375c-6.452-2.492-10.825 3.367-9.969 17.969.225 6.479 1.368 13.762 2.188 19.562 9.329 63.989 5.839 106.86-13.813 108.97-17.11 2.744-28.691-9.848-20.344-22.875 4.727-7.377 8.802-8.374 18-4.5 12.644 7.84 9.474-3.578-1.906-12-7.301-5.164-7.855-5.164-3.937-21.313 5.284-21.783 7.06-37.32 5.125-64.875-2.727-19.487 3.784-45.34 28.595-46.865 25.09-.755 17.519 34.869-3.939 25.928m-177.09 84.28c8.165 3.941 16.11 3.269 23.875.063 3.03-13.6 3.215-24.922 12.372-43.42-15.253-15.262-40.92-9.265-48.15 6.733-7.227 15.998-.497 30.642 11.9 36.626m24.469-47.23c9.244 1.965 7.857 11.675-.844 8.509-20.738-9.765-37.649 19.624-20.906 30.688 8.541 4.777 12.313 2.035 3.844-4.531-3.472-3.993-2.596-5.619-.5-9.625 4.349-8.08 20.15-6.769 19.03-.906-3.598 18.614-5.971 23.987-11.563 24.03-32.21 1.659-38.27-58.63 10.938-48.17m273.59 33.478c0 0-95.94 108.47-142.16 164.03l579.22-2.688-110.22-152.06c-94.55 21.826-205.65 15.523-326.84-9.281m-2.875 34.656c14.467.157 30.926 10.667 45.16 45.688.771.33 63.703-95.56 118.19 3.719 8.893-22.286 60.21-80.42 119.53-5.813 21.07-49.93 69.66-33.04 74.22-15.625-1.023-3.749-46.3-14.499-65.906 18.594-3.625 7.01-3.808 13.654.344 17.594 9.791 9.286-.87 22.597-12.02 15.03-4.35-2.948-4.901-9.144-1.568-13.609 9.846-7.34-10.324-30.17-26.91-38.39-22.762-11.275-54.51-6.3-69.771 9.879-8.21 8.702-13.225 16.515-14.428 22.761-.635 2.901-.246 4.415 1.477 6.351 6.621 7.99 2.255 18.921-6.705 17.595-11.734-1.737-10.165-12.712-2.318-18.707 2.407-1.182 1.495-2.594.77-4.642-21.427-60.34-101.28-48.84-109.91-7.06-.314 1.518-1 3.109-.654 4.669.895 3.996 3.233 7.367 2.335 10.51-3.665 12.831-19.716 9.149-20.442-1.479-.33-4.834 4.89-6.291 7.442-10.705 1.531-2.765 2.233-6.151.766-9.224-21.642-45.33-58.785-35.846-77.22-25.604-.388.216 16.48-21.761 37.625-21.531m-24 26.28c7.912-.283 15.12 3.609 21.844 11.406 22.678-11.992 38.804 8.772 36.12 10.781-32.12-20.844-42.541 27.724-10.897 25.885-13.91 28.76 35.759 41.09 30.18 4.325 30.649 10.698 35.706-31.386 4.658-30.753 10.03-17.366 36.07-12.589 47.09-1.707 12.951-15.812 44.749-.734 47.906 12.781-35.662-18.269-39.26 37.57-4.719 25.688-10.227 35.541 44.682 30.483 29.5-.156 34.2 11.243 29.543-39.865-4.062-29.5-2.038-2.649 26.57-32.2 47.37-4.438 2.815-4.889 35.29-20.904 53.06 4.25-38.507-13.02-31.22 38.807-3.625 28.5-7.38 34.34 42.4 28.765 29.688-.5 38.577 9.754 21.495-49.01-5.616-27.313 4.422-23.62 36.843-13.829 36.491-10.187 0-.017 17.221-18.619 36.5-5-30.13 2.534-19.876 43.16 8.59 31.595-.306 13.788 11.155 22.926 26.66 18.249l24.344 34.03-555.25 3.5 44.35-52.87c14.838 12.263 30.22 6.465 32.11-12.763 32.29 19.801 40.678-27.24 10.378-29.27 6.154-4.191 11.899-6.338 17.313-6.531m-31.03 15.281c1.92 1.355-.688 7.895-4.938 6zm432.94 13.656c1.65 2.361 2.822 3.886 4.469 6.25.794 2.109-8.656-1.119-4.469-6.25"/>
  </g>
 </g>
</svg>
