<svg xmlns="http://www.w3.org/2000/svg" viewBox="0 0 744.09 1052.36">
 <g transform="translate(-735.7-1384.08)">
  <rect y="1754.35" x="996.13" height="311.81" width="223.23" rx="10.63" fill="#fff" stroke="#000" stroke-width=".997"/>
  <g transform="matrix(.15359.00171-.00171.15359 1013.46 1809.37)">
   <path d="m78.18-191.2l1064.59-11.82 20.835 1701.46-1067.44 9.01c0 0-12.368-1110.3-17.984-1698.66m774.94 1680.84c-40.43-71.08-104.39-186.89-106.25-187.8-23.04 12.535-258.91 46.629-372.88 17.415-38.21 58.53-75.73 116.48-108.93 174.44zm-365.18-209.9c-5.941.198-12.53 3.876-11.342.726.687-1.822 2.162-20.18 2.822-26.749 1.745-2.938 4.333 4.685 4.126 11.792-.119 4.079 1.818 1.146 15.279 1.699 14.56.598 26.513 3.179 31.462 4.187 17.251 3.512 50.51.484 64.67-9.999 7.661-5.675 10.65.328 2.754 6.415-35.654 27.486-64.28 17.474-95.56 13.282-4.663-.625-9.385-1.514-14.206-1.353m15-25.87c-2.252-1.422-3.723-1.556-6.568-.197-10.977 5.243-8.173-2.134-.306-9.621 3.593-3.419 3.469-5.14.673-8.66-1.416-1.782-3.747-1.978-3.223-4.678 2.258-11.635 18.458-29.377 36.695-37.426 7.586-3.348 8.832.207-.745 5.945-14.727 8.824-19.439 16.267-11.09 13.167 16.191-6.01 31.07-2.06 51.98 8.02 5.975 2.881 8.703 3.427 13.753 2.834 3.701-3.122 7.089.545 9.426 2.454 1.467 1.146 1.785 1.7 3.437 1.295 11.807-2.895 4.797 4.682-11.251 16.595-28.748 20.676-60.25 30.625-82.78 10.267m44.635 4.511c11.802-3.677 26.16-11.246 34.934-19.07 10.661-9.511 4.588-8.02-7.717-1.958-17.81 8.766-30.32 11.382-50.47 11.145-16.864-.198-16.342-.881-16.933 1.213-2.075 7.351 21.21 14.582 40.18 8.671m-33.03-28.25c.927-3.166 1.616-7.38.74-8.738-1.586-2.459-4.918-.592-9.121 4.804-2.604 3.343-2.236 3.789.375 6.374 1.308.861 2.311 1.503 3.099 1.942 3.615 1.485 4.157-1.838 4.907-4.382m7.418 4.243c4.992-17.59 16.603-17.378 25.07-.692l5.841-.033c-12.37-32.51-35.434-15.721-36.03.526 2.748.872 5.119.198 5.119.198m43.34-3.434c5.447-3.096 4.62-5.152-2.402-8.652-4.989-2.487-7.622-2.971-8.505-1.321.108 3.617.312 8.79 2.451 11.634 2.201 1.296 5.197-.039 8.456-1.662m-77.38-49.08c-1.022-1.636-.879-4.651 2.914-6.447 23.389-11.07 6.01-33.694-11.953-16.382-5.704 4.755-14.24 7.03-20.881 4.308-6.248-2.621-6.448-10.168 1.794-11.871 2.704-.559 9.643-2.103 12.19-3.901 31.366-17.12 48.53 19.15 26.28 31.535-4.572 2.719-9.437 4.263-10.34 2.757m-88.76-32.12c-12.87-5.618-14.846-25.604-2.932-33.528 7.582-5.271 15.377-6.771 36.533 3.333 14.944 7.137 23.364-.82 23.07 7.681-.176 5.169-.429 10.383-9.06 11.723-14.02 2.179-23.82-16.636-41.84-14.652-13 1.432-11.181 16.872-1.741 19.909 12.579 4.047 5.04 9.09-4.04 5.534m235.49.292c-2.34 1.121-3.499-3.973-2.513-6.708 6.235-15.14 11.988-27.19 17.632-41.37 4.503-11.301 7.554-16.17 9.631-16.181 2.121-.0001 3.124 1.625-.35 8.591-5.21 14.03-24.359 56.865-24.4 55.669m-105.18-2.737c-5.708-3.943-4.819-9.895 1.677-5.467 8.348 5.69 21.81-5.04 18.93-14.998-3.48-12.03-19.662-14.774-33.06-3.816-21.14 17.288-44.531 18.413-44.678 5.086-.006-3.812-.55-4.671 8.318-5.364 10.312-.806 21.899-5.629 27.645-9.194 25.772-15.99 53.49-5.456 48.07 20.805-2.442 12.386-17.629 18.541-26.901 12.948m-95.56-37.609c-2.105-.04-5.933 2.109-7.04 1.303-2.178-1.579-1.917-6.228-3.748-11.186-3.251-8.799-.147-6.072 5.428-3.746 7.567 2.809 14.7 2.171 21.03-.09 6.529-2.332 15.14-1.911 28.921-.28 11.09 1.312 17.305.826 27.325-2.139 10.87-3.514 7.996-2.262 6.251 4.44-1.135 4.396-2.562 10.291-3.933 11.719-7.587-4.112-13.295-2.423-18.22.486-8.104 3.651-13.871 4.331-20.561 2.421-6.313-3.477-10.03-3.143-15.04-.026-8.637 4.273-12.566-2.589-20.41-2.901m162.46-20.17c1.499-2.683 3.678-6.378 5.719-10.518 16.483-33.431 17.531-42.689 5.511-53.757-16.15-14.875-29.704-8.193-44.686 22.03-3.637 7.337-5.799 12.844-7.276 15.11-1.702 2.614-3.747.636-4.756-.363-1.91-1.891 14.732-33.985 21.317-41.02 17.233-18.419 49.793-4.199 48.01 20.615-.9 12.498-3.214 19.366-14.456 42.39-2.783 5.698-5.199 10.527-6.68 12.856-5.353 3.648-4.212-4.597-2.699-7.339m-158.86.441c2.53-11.87 40.683-17.774 50.927-2.359 1 1.506.424 1.451-3.912.32-19.501-6.162-23.351-5.771-41.885 1.743-2.787 1.103-4.773 1.566-5.13.295m145.78-3.868c-.005-1.112 1.36-5.504 3.472-9.765 12.465-25.15 15.911-31.23 11.972-35.862-7.674-9.03-17.757-.996-26.814 25.23-3.385 9.803-5.789 7.746-7.51 6.224-3.297-2.916 10.816-33.467 17.733-38.08 15.685-10.154 28.25 1.257 21.493 21.745-5.344 9.276-9.685 23.504-14.688 31.02-2.377 3.373-5.644 2.418-5.658-.514m-57.59-39.993c-.782-1.253.69-2.965 6.03-14.675 7.346-16.1 9.614-22.06 6.455-31.17-5.629-16.233-26.21-19.998-38.572-9.167-4.04 3.495-6.76 8.303-8.636 12.613-4.398 9.981-8.01 22.865-10.655 25.589-2.309 2.365-5.564 2.876-5.396-1.206 2.869-8.679 4.196-15.399 11.07-28.15 17.06-37.931 67.65-21.02 56.3 18.838-4.225 14.469-9.148 25.447-12.09 29.03-1.638 1.992-4.41.308-4.501-1.702m-11.772-6.802c-.006-1.241 1.844-4.802 3.796-9.755 8.29-21.04 8.275-27.454-4.151-27.585-7.418 1.032-8.489 4.069-14.828 20.663-2.059 5.39-3.185 9.225-4.425 10.876-1.332 1.772-3.878.758-4.93-.284-2.694-2.668 8.636-29.891 14.727-35.07 14-12.381 32.511 4.773 24.1 20.451-3.901 10.939-7.284 18.368-9.606 21.762-2.054 3-4.669 2.611-4.687-1.062m-303.66-240.8l-42.974-2.452c8.115 45.574 9.06 95.83 1.77 131.56-6.233 30.546-6.06 52.994-3.804 79.39 2.623 30.715 16 56.635 19.661 89.23 2.65 23.616-2.338 48.35-6.777 71.908-7.418 39.37-5.754 43.45-4.086 89.54 1.547 42.726-2.479 41.24-4.973 38.769-.378-.374-.807-7.928-.85-16.916-.044-8.989-.846-30.965-1.531-46.22-1.368-30.473 1.742-57.45 4.089-68.57 4.776-22.62 10.167-45.799 6.412-70.73-7.418-31.442-17.731-62.809-21.563-93.15-4.725-37.414 5.451-75.12 8.651-102.36 3.09-26.307-.998-71.71-8.129-90.55-1.262-6.278-7.01-14.42-7.01-14.42-6.485-.848-12.996-1.686-22.08-1.528 1.496 180.41 4 360.88 6.148 541.3l40.453 36.525 40.711-39.38zm5.188 206.91c0 0 61.49 34.32 129.24 67.972-6.852-39.28 13.428-45.44 32.479-50.22-5.42-75.977 64.755-61.16 76.21 4.78l6.898-.049c11.764-33.07 23.507-55.931 51.06-61.66 21.355-4.441 42.615 8.812 48.32 40.52-.968-2.223 70.5-42.786 73.41 41.2 32.431-20.535 55.927-3.368 65.63 22.14 13.556-21.06 48.06-22.363 59.07-24.01 3.793-4.453 10.544-7.05 22.864-7.104 10.555-.653 24.657-8.679 32.06.826 11.123 1.62 19.561-.47 29.13 6.72 7.617 5.628 16.181 18.27 28.655 9.349 23.842-11.755 50.723-17.233 72-31.32 0 0-5.764-7.221-4.094-6.192.611.377 3.318 3.787 7.357 5.347 1.446.558 14.529-7.439 14.529-7.439-90.41-101.36-166.07-300.37-119.63-485.78 1.309-3.162-4.094-4.311-6.757-5.397.799-1.427 13.924.331 8.492 12.146-5.211 35.483-11.133 73.937-12.219 103.32.017 3.579.376 6.775.376 6.775 201.2 89.66 178.86 288.95 128.21 358.8l8.225 10.657c3.614 2.352 156.51-88.66 151.4-92.27l28.959-14.751-9.05-390.2-115.26-7.485c0 0 1.192-3.291 2.639-4.157.789-23.835-1.743-59.05-.923-88.56-.487-84.29.046-112.97-1.077-115.28-35.78-22.882-89.12-56.33-133.88-72.34 1.835.5-.338 34.935-1.672 36.913-41.558 13.706-22.01 30.418-37.22 48.769-10.228 11.44-34.439 13.865-46.29.408-14.13-13.309-21.03-44.12-21.03-44.12-21.8 23.722-16.956 52.03-46.38 63.04-47.23 23.97-63.08-45.948-60.3-44.35-18.01 17.659-68.908 32.424-75.24-41.23-22.723 21.29-48.574 11.133-59.779-14.629-14.01.649-29.602 11.751-43.722 17.815-13.1 5.944-29.898 9.537-42.4 9.417-15.612 2.055-28.488 2.126-42.623-1.892-6.593 2.211-21.588-4.02-26.295-13.13-7.136-8.16-13.283-8.573-19.963-7.01-22.68 12.212-47.11 15.371-73.9 28.19-1.669 1.181 2.403 3.325 1.037 2.911-.575-.175-14.07 6.787-14.07 6.787 138.39 176.97 147.82 357.08 120.64 485.12-1.072 4.438-1.656 7.659 1.332 11.11-4.335-.693-4.391.567-5.229-2.183l12.994-107.36c.274-12.953 1.912-12.01-9.574-16.716-10.623-4.349-20.668-8.542-29.452-13.785-33.534-24.16-71.46-53.932-90.2-91.4-53.17-80.39-36.998-177.19 1.306-254.17l-9.851-9.958c-113.7 58.28-180.53 120.5-180.53 120.5l4.743 382.94 117.64 12.18zm-59.52-255.09c-3.813-4.103-13.415-4.724-17.379-1.528-.914.785-2.84 4.867-3.425 4.725-5.339-1.301-9.03-2.361-9.793-6.823l5.555-8.56c4.396-6.775 10.818-9.233 21.651-11.88 3.845-.94 9.654-1.825 11.7-2.716 8.123-3.601 10.881-11.231 2.652-7.734-6.02 1.717-14.461 1.265-15.642-4.216-.97-4.504-4.853-6.23-9.155-5.652-7.938 1.992-15.16 6.21-22.16 10.452-3.105 1.909-8.984 6.221-8.984 6.221-.918 1.469-4.485-9.133-1.305-12.278 3.998.437 7.434.436 11.311-1.151 9.671-3.96 18.971-8.712 28.733-12.551 6.216-2.508 6.791-2.308 5.097-6.7-.829-1.617-1.608-7.01-.564-9.852 1.109-3.02.965-4.529-.988-5.793-4.444-2.876-14.993-.034-29.793 7.244-4.507 2.22-7.485 3.122-10.324 5.456 1.796-4.707.71-5.56.607-10.466 6.083.691 11.523-1.77 16.344-4.367 3.977-2.126 8.44-4.231 19.417-5.751 2.998-.415 1.511-11.337-1.944-14.469-3.267-2.961-10.07-2.95-18.259-.438-7.326 1.76-16.438 3.561-21.402 11.467-6.306 6.074.044-9.954 11.593-16.45 5.094-.165 16.303-2.689 18.941-3.3 4.473-1.036 5.075-11.517-1.492-15.931-4.119-3.499 14.786-3.801 14.433-2.716-.234.619-.36 5.097 1.098 6.222 8.17 2.348 8.17 8.975 8.915 11.759 9.521 15.172 14.02 5.538 20.394.203-.987 33.28 10.744 36.937 12.313 39.03-15.725 29.985-3.608 30.583 11.521 37.27 0 0-5.696 2.374-9.507 2.183-5.994-.301-17.381 6.895-22.348 11.11-2.74 2.328-2.846.413-13.908.216-10.421-.186-11.178.597-15.905 2.744-9.327 4.236-9.235 8.138-.095 6.5 9.735-1.75 19.356 4.04 20.568 12.06.79 1.51.129 4.201-.026 4.113-2.036-.358-6.621.455-6.562-.513.059-.968-.053-4.604-1.879-7.138m13.786-40.472c2.626-1.71 3.03-6.501.704-8.411-2.115-1.738-11.01-.698-13.497 1.579-5.637 4.519 4.839 11.856 12.793 6.832m5.478-20.09c3.244-2.577 3.576-8.689.702-12.204-4.874-5.961-17.4-2.221-17.996 5.373-.635 8.09 10.51 12.221 17.294 6.831m-4.394-27.43c.518-6.641-6.127-10.769-12.162-7.556-7.516 4-2.834 12.211 6.628 11.62 5.242-.327 5.242-.327 5.533-4.065m-22.427-26.673c-3.512 1.763-3.644 5.9-.272 8.526 13.343 7.141 9.09-12.334.272-8.526m926.68 29.371c-6.06-21.293-21.874.06-21.893.356-.812-21.881 3.241-31.668-13.327-38.962 16.266-25.13 12.778-28.534-4.869-37.912 1.618.121 23.23-4.954 26.805-17.318.83.567 34.11 8.337 38.05-9.739-9.962 4.654-29.65 5.55-30.09-13.836 1.857-.578 6.536.326 6.153.948-2.482 12.464 20.306 15.287 23.918 5.424 0 0 7.699 5.01 11.07 5.764.377.246-10.18 15.171-19.935 17.513-17.565 6.01-23.627 7.641-23.61 11.129.0001 1.355 2.895 1.539 8.144 2.547 10.956.629 10.753 2.974 12.229 6.569 1.306 3.18 2.548 3.805 6.195 3.441 12.459-4.276 18.689-6.518 27.307-15.291 1.057-.217 2.394 9.09 3.072 9.407.086-1.488-8.836 1.207-22.493 9.368-11.147 6.66-15.528 7.659-16.935 9.44-1.043 1.321 1.727 5.414 2.065 9.888.284 3.762-2.239 5.616-.356 6.77 2.175 1.333 5.518 1.048 9.901-.138 9.673-2.436 16.771-6.311 25.427-11.772-1.814 3.511 1.389 12.334 1.389 12.334 0 0-4.336-2.966-7.86-1.363-6.79 3.055-17.775 7.242-20.746 7.973-2.877.708-4.125 1.096-5.242 2.06-1.374 1.187-1.111 4-1.091 8.141.014 2.904-.79 5.593 1.053 6.449 4.088 1.261 12.303.756 20.642-2.244 3.55-1.591 11.08-5.777 11.08-5.777l-2.236 12.273c-3.216-3.528-12.303-.802-18.378 1.66-3.068.998-3.968 2.936-4.72 5.617-1.312 4.587 1.639 7.702 5.02 9.166 2.25.975 5.694.527 5.694.527-15.742 6.167-12.572 8.34-21.848 3.898-4.04-4.255-7.995-8.75-9.577-14.309m16.547-.179c-2.656-2.989-7.245-4.668-9.891-3.447-2.356 1.279-1.475 3.891-.697 5.884 2.063 5.522 15.935 3.578 10.588-2.437m-9.396-15.16c3.653-4.879-.498-11.341-7.345-11.308-4.76.023-7.264 3-7.172 6.711.174 7.02 11.467 8.671 14.517 4.597m-7.813-18.35c6.844-1.937 8.878-8.586 4.079-13.339-3.411-3.379-14.01-3.686-16.806-.565-7.144 7.971 1.063 17.204 12.727 13.904m5.44-24.31c4.01-2.097 4.749-5.527 1.143-9.377-6.527-5.407-17.764-1.01-14.03 6.94 1.829 3.893 8 4.993 12.886 2.437m-828.42-174.86c6.04-2.264 10.365-6.998 16.707-10.664 4.279-2.388 2.987-2-2.558-5.147-4.355-1.935-13.13-10.593-13.923-8.496-1.926 3.754-1.418 24.15-.226 24.307m155.68 211.97c.204-4.166.637-10.444.469-15.04.724-8.774-.831-6.196-5.563-3.279-3.5 2.303-9.116 5.806-11.321 6.932-8.694 4.438-7.645 4.654 4.726 10.414 10.382 4.492 11.539 4.03 11.688.975m-12.223-20.382c8.296-5.334 11.04-8.07 11.378-13.957-.033-6.768-.851-9.221-6.758-4.469-20.15 16.212-41.43-14.921-23.01-32.553 3.756-3.595 8.515-9.21 8.542-10.622.192-10.11-11.124-.169-20.307 13.812-10.196 12.732-16.461 28.594-7.223 43.653 7.378 11.01 23.551 13.03 37.38 4.135m-46.43-19.899c-.422-4.943.915-10.486 1.545-12.138 2.216-5.815 2.113-6.534-8.194-1.599-4.116 1.404-9.04 2.56-10.935 2.569-8.462.041-6.321 2.667 5.919 12.599 12.301 9.982 12.717 10.892 11.665-1.431m28.28-48.772c1.259-3.06-1.441-4.201-4-3.599-.201.047-4.604 3.392-9.771 7.536-15.665 12.562-27.24 14.14-35.18 4.788-8.06-9.48-4.859-20.865 12.764-34.05 7.775-5.819 9.652-6.229 5.854-8.691-2.889-1.873-3.058-1.58-14.242 6.138-22.537 15.556-29.22 26.08-26.775 41.29.535 6.249 3.864 9.489 7.08 11.887 21.862 18.857 51.604-7.807 64.28-25.291m23.02 8.78l-1.602-21.06c-23.308-19.557-45.575-53.16-53.46-81.1-7.99-24.84-2.42-76.906-1.218-73.06l-12.735-23.381c-10.579 25.08-14.898 63.2-2.657 101.85 10.391 32.809 30.905 72.46 71.67 96.75m-97.37-11.196c7.18-14.1 7.424-12.59-6.748-12.554-16.17.041-14.389-1.94-5.121 11.709 7.442 10.961 6.221 11.937 11.869.845m9.502-19.323c9.283-3.08 7.164-2.373 19.439-10.515 14.09-9.345 14.627-14.376.459-7.138-18.19 9.293-34.28 7.148-40.37-4.65-5.431-10.515 5.514-23.822 23.719-29.18 6.221-1.832 9.492-3.357 9.479-6.078-.04-8.293-31 3.115-43.675 15.779-24.459 24.445-2.502 52.884 30.954 41.784m-40.39-37.19c.82-1.27 3.01-4.317 5.02-7.472 8.644-10.227 1.316-7.118-6.489-9.8-4.123-1.465-8.351-2.917-10.756-2.527-4.644.754 1.673 9.626 3.233 15.38 4.328 12.807 3.842 12.418 8.988 4.419m32.843-23.531c15.658-1.7 17.24-3.226 17.224-6.459-.016-3.207-1.945-2.572-9.802-1.397-20.804 3.112-34.661-2.01-37.762-13.04-3.202-11.382 10.791-22.344 29.605-21.915 10.191.233 16.935-3.347 10.694-6.649-3.249-1.719-31.3-1.029-37.625.881-18.583 5.611-26.06 16.02-24.21 30.29 2.774 17.616 12.51 22.566 36.09 21.05 4.519-.29 10.26-2.164 15.779-2.763m11.49-57.61c-.014-2.753-4.493-3.104-19.308-5.125-19.733-2.692-28.736-20.741-16.982-31.791 4.456-4.189 15.16-6.084 21.15-5.066 13.01 2.211 20.985 4.782 21.06.394-.018-3.913-3.79-4.151-28.23-9.01-36.921-7.345-56.744 28.871-27.1 46.15 11.263 6.563 49.43 9.942 49.4 4.449m8.561-51.599c-.006-1.379-1.214-2.425-4.02-3.481-4.072-1.534-6.799-1.795-16.01-7.826-12.249-8.02-16.12-23.888-8.104-32.843 7.785-8.363-6.494-17.975-17.683-8.511-11.625 9.832-10.469 25.05 3.176 36.962 12.564 10.965 42.666 22.18 42.635 15.699m-59.708-1.489c12.737-6.121 21.971-2.782 12.08-10.925-5.557-5.01-10.41-19.381-14.1-7.106-2.845 7.323-4.852 20.21-4.917 21.473.868.86.657-.63 6.932-3.441m452.52-36.06c-14.623-3.453-24.772-20.2-21.24-36.439 1.996-9.176 10.411-30.844 12.1-32.2 6.381-5.151 5.571 1.617-.203 13.422-5.252 12.04-9.342 21.725-7.596 28.837 2.485 10.123 6.695 17.824 17.326 20.281 7.473 1.728 14.461-1.441 19.18-4.839 6.242-4.493 12.07-15.904 19-31.693 2.223-4.443 5.123-18.05 9-9.809 1.873 4.265-12.984 32.938-18.575 40.22-7.03 9.167-19.03 14.632-28.995 12.218m87.81-10.513c7.179 6.695 19.223 9.969 27.03 7.454 19.16-6.959 27.697-25.14 20.09-54.14-3.867-16.258-7.132-26.36-10.344-28.34-1.561-.962-3.236.882-4.717 3.168-1.322 2.04.765 4.862 3.03 12.509 9.55 32.21 7.308 46.845-3.84 53.14-16.17 9.14-30.23-1.023-35.21-24.02-.796-3.554-3.106-10.793-3.106-10.793-1.282-3.191-11.354-2.37-7.57 8.321 1.195 8.288 9.101 28.01 14.631 32.698m81.57-85.54c-.381-11.365-24.95-60.42-26.527-55.17 0 0 .024 11.53 1.016 16.06.375 1.708 1.638 3.281 2.686 5.093 21.286 36.816 18.353 62.961.316 68.881-6.135 2.854-7.445 5.611-4.657 8.453 5.646 5.975 19.504-6.119 22.18-10.484 6.741-9.798 5.592-27.524 4.987-32.83m-349.67-4.504c7.771-8.831 24.689-39.2 29.834-55.09 15.841-47.3 32.443-101.7 36.639-151.85.456-6.327.681-15.952.987-16.778-1.302-1.369-9.408-.553-12.12.862-1.287 1.706-.372 5.448-.783 10.342-6.697 56.41-19.647 107.87-39.12 160.32-8.518 22.788-16.494 37.816-26.883 53.714-1.813 2.775-4.128 5.639-5.03 7.251-2.628 3.867-.636 6.352 2.44 4.695 5.459-3.156 10.132-9.151 14.03-13.468m-26.674 14c24.717-34.661 42.1-76.13 55.42-125 8.413-31.629 15.771-63.62 20.03-96.18.872-6.95 1.586-11.605.203-13.666-3.398-.871-9.717-.237-11.891 1.473-1.32 2.037-.38 6.073-1.517 15.445-2.942 24.23-7.48 48.58-15.241 80.48-20.639 70.63-39.885 110.26-65.36 145.03-2.057 2.924-3.897 4.83-3.697 6.06.295 1.802 2.801 1.626 6.883-.975 5.323-4.262 11.422-7.998 15.16-12.656m-38.03 18.696c12.199-7.08 33.482-37.504 48.4-70.19 16.71-38.574 30.571-82.09 39.544-119.74 3.892-16.5 9.23-57.657 8.372-60.35-1.019-3.202-12.988-.393-11.298 1.807 0 0-11.188 66.19-23.611 102.74-23.06 67.859-43.15 113.95-65.07 136.24-2.873 2.923-8.531 8.64-8.531 8.64 0 0 .147 2.521 2 2.885 4.429.764 7.359-.543 10.193-2.034m-18.821-2.485c27.532-15.747 59.18-88.22 84.66-179.06 4.36-15.541 12.07-67.5 12.07-67.5 0 0-11.03.531-13.14 2.867-2.107 3.158-1.675 11.133-4.556 30.12-11.275 57.4-28.661 109.84-55.09 161.78-11.425 23.01-30.59 44.77-42.772 51.04-6.811 3.507-8.772 7.31-3.755 7.527 8.45.207 9.221 1.961 15.32-1.392zm388.58 802.25c-20.775.157-38.2 20.224-53.647 45.37-32.875 51.54-54.4 137.31-59.37 182.82l12.591-2.514c-1.884.888 22.243-121.23 60.48-173.82 20.62-33.15 19.731-33.635 31.477-36.784 14.852-3.982 26.979 11.953 19.695 21.715-2.638 3.306-5.598.932-4.822-3.746 2.476-14.928-19.359-17.551-25.287-2.845-6.819 16.916 11.976 31.728 30.1 24.904 16.201-5.908 22.762-28.656 11.158-45.28-5.934-5.6-14.479-10.534-22.379-9.817m-109.39-.874c-24.532 31.426-36.5 63.57-51.29 107.44-14.778 43.836-25.27 86.67-29.476 135.73l13.402-1.873c-.842-31.502 32.12-181.9 80.16-238.64 2.677-3.588 4.826-6.568 4.614-7.392-2.784-7.555-14.219 1.709-17.406 4.727m54.832-12.241c-31.949 26.701-57.07 84.53-73.46 137.92-17.721 57.707-25.373 110.49-23.994 110.48l12.79-2.02c-.991-3.328 33.704-206.36 101.85-244.01 5.912-3.02 7.126-6.02 2.099-7.254-7.728-.994-13.908 1.603-19.285 4.884m36.1-.267c-70.3 10.03-113.92 225.92-115.25 243.82-.021.276-.239 1.668-.239 1.668l13.984-3.036c0 0 .113-.69.169-1.034 9.04-55.14 18.02-93.82 39.41-143.81 16.696-37.05 39.767-84.45 74.973-89.41 2.86-.403 5.589.713 4.549-2.602-2.206-5.258-12.752-5.814-17.593-5.599m-420.34-63.17c-25.373 6.806-25.863 37.24-8.484 75.921 1.313 2.922 1.101 4.53 2.41 5.647 2.925 2.496 5.159-1.055 5.456-3.386.45-3.539-1.116-8.277-3.884-15.15-10.783-26.79-8.442-42.32 1.868-49.29 26.464-13.975 33.938 14.03 38.11 26.913 1.021 3.139 1.407 7.462 3.146 7.68 5.318.667 7.829-1.241 7.75-1.24 0 0-7.319-24.11-11.718-33.15-7.119-14.629-23.695-17.521-34.648-13.936m-184.29 30.77l3.296 320.65-48.2 46.19c-21.1-17.649-48.875-45.35-48.875-45.35l-5.154-542.07-15.686-1.079c-1.249 232.94 4.107 469.27 6.515 702.63l144.04-.538 117.14-187.12c0 0 1.483-2.23 1.946-3.403 1.423-3.605 1.194-8.951.257-28.701-.381-8.03.454-14.203-.753-16.07-1.222-1.893-3.751-.502-6.112.587-2.405 1.11-3.848.742-2.578-2.117.72-1.621 3.067-5.188 5.091-8.586 6.571-11.04 8.169-14.568 5.772-26.7-.589-2.982-3.365-5.481-5.795-8.977-20.39-29.336-29.05-73.06-19.442-105.26 3.02-14.222 1.843-17.08-5.138-28.06zm626.65-351.77c-13.169-6.568-12.914-6.422-12.853 6.283.177 9.5.383 11.796 3.939 10.476 5.136-2.677 11.422-5.15 16.16-7.223 9.06-3.221-2.535-7.09-7.249-9.536m52.21 32.449c-10.253-7.986-6.49-7.097-9.165 11.197-1.615 11.05-3.854 11.36 7.535 7.585 6.464-2.313 19.819-1.049 13.752-8.586.04.134-10.11-8.529-12.12-10.195m-405.24 284.88c-15.485 9.591-30.903 55.41-30.903 55.41-54.41 7.087-76.62 60.846-78.56 105.49-1.532 35.24-3.467 76.39.132 79.956 35.545-16.437 49.51 1.923 52.84-3.106 1.522-2.196-8.03-9.315-19.99-15.664-2.778-1.474-7.087-4.135-8.723-5.458-4.378-3.542 8.653-.599 16.927 4.893 10.556 7.01 12.301 5.502 7.522-15.258-5.195-22.568-6.03-25.332 11.277-34.492 6.927-3.666 10.853-6.756 15.779-12.394 3.941-4.512 4.951-5.612 3.553.97-2.42 11.402-12.493 16.473-21.562 21.19-4.512 2.373-6.337 7.07-6.317 11.08.019 4.094 4.973 26.15 7.231 33.19 2.094 6.69 2.911 13.409 4.547 20.234 4.289 17.713 4.59 21.19 2.666 34.1-1.129 7.572-1.696 11.887-1.225 16.448.429 4.146 1.067 9.785 1.067 9.785.021-.197-9.837-9.872-31.08-1.247-15.312 6.217-27.533.049-36.2-4.33-1.906 7.01-1.372 14.605-1.044 22.628 88.87 15.215 164.6 12.2 228.3 4.823 1.443-18.856 8.82-78.84 25.11-133.03 6.778-22.551 14.463-46.33 23.25-62.24 5.991-10.848 12.146-18.18 14.336-19.46.682-.423.743-.644.722-.935-.017-.601 0-1.108-.036-1.686-.263-3.499-1.17-8.912-4.212-11.281-7.425-5.783-19.08 1.899-22.8 15.02-3.296 7.873-18.357 41.942-19.465 41.38-.915-.56-3.057-.581-2.311-3.207 5.758-13.805 13.715-28.42 18.15-40.804 6.118-17.827 19.748-27.354 30.14-16.27 3.561 3.799 5.01 7.322 6.64 8.524 1.228.907 2.859.259 3.85-1.27 3.805-5.869-5.312-18.992-14.967-21.542-13.935-3.68-24.18 6.559-39.567 39.563-8.887 19.06-10.461 23.834-11.917 22.391-.317.132-2.733.155-1.901-3.527 1.789-7.913 13.606-30.98 22.19-45.625 12.703-21.677 36.714-23.689 47.03-5.112 1.573 2.53 1.688 5.861 3.429 8.114 3.146 3.972 8.239 3.119 9.43-3.473-1.425-4.34-10.05-19.976-15.945-22.651-13.618-9.13-30-7.127-43.665 5.339-3.1 2.828-6.302 8.541-15.251 27.21-13.155 29.921-13.513 30.04-17.25 25.284 5.26-14.543 19.266-38.23 24.864-52.742 1.073-2.165 1.269-4.48 1.159-6.702-.45-10.495 1.058-29.07-21.311-42.01-19.06-9.993-43.965 1.019-52.26 21.2-6.354 15.455-11 26.08-14.269 28.29-4.587 3.114-3.772-1.162-3.331-2.716 6.412-13.993 15.494-28.16 16.801-42.19.536-37.918-38.08-51.5-62.87-32.1m-206.42-708.16c29.854-14.275 50.32-21.519 80.8-30.869 4.111-1.856 4.764-2.278.283-10.905-19.8-38.12 33.02-69.26 51.51-31.837 2.464 4.99 3.054 7.758 5.402 5.332 4.376-5.872 9.566-14.197 14.949-23.692 19.983-31.719 28.788-67.748 39.28-99.58 4.29-18.677 10.353-38.22 11.908-58.22-41.12-69.75-69.972-136.97-113.49-198.99l-282.42 2.932 5.204 564.28c78.23-66.73 131.73-91.15 186.58-118.45m317.67-24.26c3.386-3.654 6.283-9.687 18.286-35.01 2.142-4.519 5.564-11.526 6.953-14.785 1.777-5.948 8.637-9.732 5.393.92-.738 2.299-2.02 5.404-4.058 9.536-4 7.386-7.784 16.42-10.627 22.325-15.355 31.633-14.406 49.955 3.293 63.41 13.246 12.38 40.787 13.488 55.21-6.898 2.157-3.282 4.066-7.494 4.683-9.04 6.194-15.514 10.806-23.288 11.994-24.83 6.425-8.339 7.583 1.892-1.977 17.77-10.956 18.19-10.932 37.78-1.136 51.45 14.52 20.264 41.677 20.543 58.54 3.969 8.744-10.476 15.638-23.756 21.12-40.695 1.215-3.754 2.483-6.547 3.378-8.75 1.381-3.396 3.41-4.677 8.69-5.749 36.2-7.346 66.23-44.897 70.1-85.58.507-5.503 1.963-15.244 2.47-21.02 1.01-11.527.371-71.17-.802-74.71-.633-1.912-1.727-2.916-4.087-2.863-1.812.041-4.371.705-8.04 2.06-11.911 4.399-17.465 5.542-29 1.564-3.811-1.314-6.442-1.748-7.998-1.596-5.063.494 1.752 7.686 16.618 15.55 6.37 3.37 11.424 7.95 6.29 7.664-1.492-.083-19.429-9.09-21.908-10.576-8.179-4.888-5.99 1.356-1.621 17.803 5.866 22.09 2.698 28.341-14.706 37.21-3.245 1.654-7.536 5.078-9.715 7.277-9.121 13.799-6.839 3.682-2.246-3.665 7.886-8.439 2.96-11.233-13.337-5.264-18.589 6.809-27.08 2.083-32.413-8.229-6.03-11.66 4.905-26.865 14.17-26.672 2.999.062 2.472 1.147-1.913 4.211-5.299 3.701-7.788 7.242-8.274 13.469-.991 12.693 8.146 17.977 20.736 9.331 5.945-4.083 10.629-6.909 15.15-7.989 4.484-1.07 11.254.524 11.271 4.117.007 1.481-.157 5.118.171 5.92 1.234 4 7.596-1.753 10.37-3.802 9.473-7.244 9.147-8.647 6.409-20.19-4.445-16.15-6.763-30.945-11.01-47.32-2.268-8.58-2.744-18.299-1.519-27.08.614-4.403 2.225-13.456 2.503-19.645.278-6.189-.205-15.02.023-15.02 9.566 7.149 13.437 8.375 22.654 4.759 14.259-6.03 23.313-5.516 35.445.12 4.489 2.085 8.574 3.545 8.574 3.545l.342-18.605c0 0-11.196-2.176-31.873-4.658-62.24-7.471-189.8-7.778-194.46-.225-1.186 1.92-2.243 15.219-5.425 33.73-7.095 38.468-15.1 76.82-25.961 114.4-2.229 7.657-4.403 10.755-3.221 10.97.487.088 2.76-2.893 3.819-4.142 5.969-7.04 1.521 9.572-7.385 29.62-.804 1.81-1.46 3.79-1.457 4.399.005 1.204-5.573 15.17-9.434 23.62-2.4 5.251-4.419 6.847-4.435 3.507 2.645-11.524 9.813-26.47 10.756-36.722-6.321 9.344-15.506 24.758-22.483 33.97-1.278 2.475.115 3.22 1.288 6.249 4.381 11.308 14.695 12.21 20.537 1.862 3.257-5.77 13.331-27.483 16.815-36.977 3.583-9.765 6.12-14.922 7.341-15.57 2.455-1.303 2.991 4.22-1.284 13.467-12.972 28.06-18.488 43.767-24.928 49.609-4.997 4.533-13.731 4.345-18.671-3.571-8.374-13.42-15.344-8.868-7.644 4.903 7.954 14.227 25.782 15.368 34.941 2.372 3.02-4.29 17.17-32.02 21.589-43.28 2.467-6.287 5.121-11.191 6.02-11.549 4.833-1.92-.547 12.432-14.164 41.2-4.393 11.1-11.516 22.772-21.294 26.469-23.794 5.486-27.16-7.085-35.618-21.36-4.073-3.528-7.662 2.227-6.05 8.527 2.618 10.22 7.343 14.179 14.629 19.241 15.204 9.437 36.12 2.594 43.606-8.439m107.08 58.683c-2.216-4.761-1.959-9.623-.905-14.167 2.388-10.242 6.417-20.2 11.159-28.877 7.793-3.79 1.972 11.01 1.017 13.208-9.23 19.79-10.04 27.417-1.196 29.59 7.576 1.863 11.586-2.801 18.532-20.529 3.564-9.1 4.984-13.13 6.276-13.661 2.738-1.135 4.074-.041 3.942 2.724-4.595 11.641-8.155 23.867-15.803 33.576-7.521 6.437-18.956 6.598-23.02-1.863m-71.02-14.339c-3.296-.604-8.978-4.784-12.934-8.323-13.484-12.06-11.468-28.975 4.731-60.903 1.258-2.48 5.966-12.13 7.478-15.302 2.708-5.676 5.459-3.496 5.477.24.005 1.05-4.03 9.862-8.119 18.04-17.881 35.907-17.09 50.46.763 58.761 17.427 8.098 25.14 3.241 38.661-24.17 7.77-20.549 11.709-20.932 11.356-13.151.014 2.902-9.446 22.626-15.589 31.813-8.908 13.322-16.721 15.758-31.825 12.987m1.121-17.243c-6.852-4.132-9.744-14.57-5.817-23.18 3.58-7.107 12.652-34.3 17.04-35.87 7.08-.321 3.366 5.648-5.225 22.401-10.135 22.18-9.697 28.08-1.647 31.364 7.45 3.044 10.896-3.402 21.546-29.331 1.672-4.071 4.02-8.306 5.438-7.441 1.737-.151 4.771 1.124-.849 12.882-1.333 2.811-3.584 8.702-6.082 14.193-7.299 16.05-15.736 20.21-24.406 14.985m122.33-48.2c-3.01-1.504-17.11-6.858-15.08-11.447.251-.432 1.071-.104 1.489.169 12.947 8.458 28.956 10.465 45.49-1.66 2.777-2.5 4.891-.854 3.36 2.264-4.939 10.06-27.361 14.586-35.26 10.673m-41.45-14.05c.377-.964 1.502-3.836 2.485-7.691 1.477-5.794 1.069-10.04 2.443-9.322 5.858 3.078 16.272 3.038 21.334-.126 5.55-3.469 16.874-4.635 21.03-1.997 5.945 3.769 8.929 1.952 13.03-1.314 4.629-3.686 4.73-2.134 13.195.695 6.251 2.089 8.715 3.539 11.355 3.03 1.012-.195 3.046-2.526 3.703-2.415 2.031.341 2.322 6.079 4.26 12.612 1.715 5.779.79 7.188-4.451 3.772-3.896-2.539-15.03-3.634-26.554.035-8.539 2.719-10.522 1.685-16.82.693-15.697-2.471-27.03-4.388-38.626 2.493-6.196 3.676-8.44 5.574-6.388-.465m-39.29-28.2c-7.762-15.13 9.477-35.459 24.905-28.518 5.116 2.301 9.742 11.183 2.166 7.169-34.988-6.65-25.7 44.31 11.488 16.924 24.732-16.794 42.33-19.544 43.976-3.579-.63 5.878-5.863 4.999-9.815 5.58-10.311 1.553-14.11 3.272-26.02 8.524-18.14 5.932-35.883 10.81-46.702-6.1m136.67 5.512c-8.542-2.091-15.978-5.367-24.877-6.876-8.815-1.433-12.835-5.975-11.313-12.164 1.581-6.43 10.383-7.205 23.709.719 14.776 8.785 25.442 10.835 30.773 7.402 10.785-6.945 4.803-17.987-5.591-20.714-7.804-2.076-2.114-5.16 6.277-2.762 13.551 4.959 14.11 29.31.286 34.519-4.623 1.743-12.81 1.376-19.264-.124m-119.8-79.29c9.844-6.227 19.356-11.8 22.725-15.49 1.767-1.936 6.669-8.424 2.83-6.417-20.08 12.35-43.655 2.539-60.749-5.569-8.207-3.723-6.18-2.057-12.445-1.57-4.249.33-7.653 1.259-8.448-1.767-.351-1.336-2.723-.749-4.247-.882-6.288-.55-2.411-8.898 10.684-18.2 15.443-10.967 28.942-18.16 42.39-21.22 13.966-3.175 28.26-1.626 38.843 8.325 4.066 3.823 3.74 6.406 7.39 3.99 8.329-5.514 8.482 1.68 1.479 8.415-4.809 4.626-3.02 5.848 2.974 10.132 2.861 2.046.557 4.048-.994 7.09-.581 1.855-.085 3.879-.356 5.283-1.254 6.514-30.633 29.816-41.32 33.858-7.365 1.456-3.557-4.141-.755-5.98m20.11-42.44l-4.92.121c-5.411 17.14-15.686 23.07-24.517 2.694l-3.915.438c.018 17.342 30.01 27.9 33.35-3.253m-32.18 16.373c-2.069-3.378-4.438-11.156-6.562-11.245-5.78-.18-13.754.948-11.82 4.5 3.046 5.626 20.781 10.661 18.383 6.746m39.562-3.485c5.291-3.261 6.401-5.482 2.887-8.962-4.538-4.494-6.854-2.149-8.182 5.124-1.141 6.25-.255 7.259 5.295 3.839m-72.34-11.206c35.497-16.514 49-18.747 63.54-14.919 3.367.886 6.362 2.727 8.238 2.594 6.935-.491 2.422-8.205-10.09-12.513-14.285-4.921-23.284-2.512-50.48 12.03-15.922 8.514-28.795 20.986-11.22 12.81m103.18-20.71c-.518-.96-2.75-7.347-3.389-9.682-.639-2.334-1.22-4.744-1.887-4.748-16.524 2.824-31.11-.103-35.03-.991-25.1-5.685-49.28-4.207-67.26 3.054-4.392 1.774-9.829 4.627-10.349 5.123-1.414 1.348-3.539-.143-3.547-1.807-.0001-1.953 10.976-10.833 17.924-14.366 21.13-10.745 43.533-12.792 68.23-6.449 16.11 5.961 26.436 4.853 36.639.257 5.01-2.256 1.499 3.226-.014 10.464-1.048 5.01.211 9.281.45 12.11.706 6.822-.034 10.253-1.766 7.04m388.95 1437.4l-6.277-565.4c-93.1 70.17-269.82 144.25-269.82 144.25 22.859 45.23-25.957 84.69-54.716 38.827-28.707 32.908-67.48 147.48-68.48 185.39 0 0 78.82 133.94 117.29 200.06zm-519.06-180.43c2.265-28.416 7.809-76.61 26.12-132.83 7.681-23.581 16.962-50.648 30.23-74.928 5.308-8.495 5.647-11.763-.077-8.664-3.602 1.95-19.94 20.759-22.14 25.487-24.786 53.741-35.817 118.1-44.559 167.24-1.983 11.05-2.453 24.758-2.453 24.758zm18.54-2.537c5.273-69.03 29.654-162.41 67.16-223.52 3.525-5.822 7.892-10.888 7.701-12.888-.564-5.895-15.15 4.466-26.365 22-12.45 25.35-24.913 52.38-34.34 82.27-13.313 42.18-22.94 81.12-26.27 133.86zm36.63-6.166c3.386-39.78 15.337-76.37 25.288-113.01 12.169-44.799 28.71-77.854 48.08-107.67 6.213-9.562 13.57-18.53 20.558-27.66.892-1.097 1.779-3.064 1.564-3.881-4.56-.744-8.166.706-11.663 2.712-4.884 2.802-11.719 9.81-15.698 14.995-27.663 36.04-42.3 77.916-55.842 120.21-13.01 40.62-22.266 79.65-23.756 116.32zm-252.36-27.662c5.639-.503 9.286.518 10.907-.998 1.609-1.505 1.035-5.501 1.49-10.621.973-10.948-.155-10.336-6.921-3.195-11.203 11.824-31.831 16.563-44.21 9.628-6.246-3.5-10.588-5.923-11.14-2.949-.644 3.468.328 6.106 3 7.925 14.976 6.617 29.07 1.798 46.871.209m-13.413-8.229c7.819-2.689 15.751-6.96 20.17-13.395 4.214-6.142 4.133-7.01.905-5.817-15.865 8.01-26.301 12.1-40.581 10.1-19.338-2.716-20.11-.249-7.262 7.585 8.407 5.126 15.336 5.203 26.772 1.53m-28.613-24.12c2.967-2.233 3.631-11.205 1.217-11.689-2.444-.489-5.948 4-6.779 7.632-.922 4.818 2.663 6.01 5.562 4.056m29.883-.717l5.127-.52c-2.873-22.45-27.335-23.15-31.562 2.601l3.88.533c4.821-20.545 19.611-20.15 22.555-2.614m16.08-3.8c7.435-4.245 4.791-9.375-5.321-11.235-6.641-1.48-6.214 3.922-2.7 11.214 1.746 3.623 2.932 2.927 8.02.02m-57.889-26.911c-.094-2.503-1.166-6.532-2.384-8.954-8.815-17.529-13.806-38.3-13.11-64.18.495-18.557.664-24.295-3.199-24.276-5.367 2.651-8.172 37.2-.984 65.858 5.071 20.222 20.19 45.22 19.682 31.555m-.522-28.09c-.633-9.685 1.262-31.427.145-36.15-1.469-6.214-5.227-11.797-7.33-13.272-3.263-2.289-4.02 2.177-2.774 13.808 2.931 27.29 7.557 47.922 9.959 35.619m2.175-49.754c2.089-3.854 1.211-7.909-3.583-16.993-18.883-35.777-21.554-60.34-2.346-69.49 2.151-1.024 3.511-1.23 4.942-2.042 6.05-3.436 3.665-9.522-5.412-6.898-25.08 7.251-29.774 30.799-8.089 74.04 11.04 21.574 12.749 24.59 14.487 21.383m4.352-20.455c.313-1.514.9-7.401 1.137-8.605.238-1.211-2.334-4.644-5.135-11.554-7.311-18.04-7.543-25.555.134-30.892 2.492-1.494 5.078-1.596 5.448-3.29.577-2.636.484-6.957-1.111-8.191-11.09.202-16.15 6.713-18.02 12.877-2.823 9.746.39 23.94 9.296 41.474 4.281 5.451 6.601 15.479 8.252 8.181m8.22-23.539c5.8-12.01 0-27.434-8.106-22.06-5.258 3.484-5.487 7.111-2.127 17.02 4.093 12.07 6.444 12.889 10.233 5.04m20.45-32.2c2.349-2.372.204-5.717-4.332-18.868-3.885-11.264-2.251-19.01 4.886-21.321 10.244-2.64 14.06 14.08 16.302 21.12 1.176 5.441 4.787 6.907 7.933 3.079.881-1.073 1.128-1.958-.457-7.893-6.918-25.905-15.681-34.07-29.569-27.448-12.876 6.144-11.03 19.544-1.333 47.658 1.297 3.761 2.165 6.553 3.075 6.935.745.313 2.192-1.945 3.495-3.261m11.366-8.951c3.03-3.062 2.867-1.692-.764-12.493-4.139-12.314-6.273-14.868-10.527-10.572-2.613 2.639-1.247 5.493 1.881 15.573 3.634 11.711 4.578 12.371 9.41 7.492m536.06-48.27c20.269-14.278 11.567-39.41-15.421-48.46-3.186-1.069-6.695-2.364-7.797-2.878-12.417-5.789-22.05-7.515-22.02-2.88.013 2.721 3.738 4.055 15.643 9.678 17.612 8.318 21.678 18.11 13.17 30.604-6.132 9.01 5.655 19.11 16.429 13.935m18.19-30.899c1.694-7.231 4.261-13.446 5.477-17.662 1.659-6.597-.557-5.04-4.912-3.969-11.196 5.95-19.286 2.875-13.727 10.824 6.19 10.59 11.299 18.76 13.161 10.807m-1.676-25.19c13.937-8.535 16.805-30.402 3.633-40.661-3.151-2.454-8.586-5.674-15.15-7.592-13.331-3.893-32.528-5.515-39.535-3.313-1.489 1.793-1.521 4.585.002 5.381 1.966.703 5.508 1.143 10.622 1.604 19.547 1.762 29.24 7.45 28.461 21.28-.806 14.249-12.162 19.849-32.822 15.577-11.11-2.297-16.259-1.072-11.782 1.465 5.317 3.01 16.739 6.922 27.966 8.997 9.601 1.573 20.534 2.095 28.609-2.737m-67.38-2.846c15.4-35.517 22.689-128.31-68.29-194.33l3.191 18.51c53.684 45.865 67.11 104.88 56.699 159.27zm79.86-64.26c-5.607 3.715-10.29 7.559-17.508 10.868-4.319 1.987-4.425 2.462 1.51 5.606 2.871 1.521 7.603 4.322 9.423 6.238 3.159 3.324 6.856 4.571 8.221 3.335-.205-5.258 1.407-22.67-1.646-26.05m-26.632 6.997c18.213-5.96 27.896-14.837 25.65-29.483-3.295-21.485-21.397-25.834-55.11-17.05-16.218 4.226-17.586 11.856-2.193 7.759 19.437-5.173 34.821 2.148 32.909 16.397-1.072 12.287-10.891 19.545-28.27 19.739-9.177.102-12 .949-10.725 4.234.867 2.228 30.23.859 37.741-1.597m-30.745-50.786c29.765-10.54 43.481-26.564 36.459-44.27-8.269-20.847-34.35-20.768-60.33-.991-12.14 9.07-10.229 12.356 1.58 7.677 15.297-7.211 25.18-8.409 31.532-2.881 11.482 9.984 4.01 27.702-13.163 34.22-8.313 3.553-10.974 5.492-10.962 7.99.019 3.954 1.532 2.984 14.886-1.745m50.4-.887c.702-6.203-6.56-27.614-9.539-22.634-.789 1.319-3.512 7.418-7 10.607-10.176 9.295-8.273 5.797 1.966 8.492 5.691 1.498 13.75 5.392 14.575 3.535m-79.53-45.04c30.01-17.787 41.26-42.823 25.428-59.2-14.238-14.728-37.467-5.804-58.834 21.496-9.796 12.516-2.35 10.875 10.911-1.074 15.447-13.918 35.36-7.504 35.446 9.656.035 7.328-10.229 19.769-20 25.606-3.034 1.812-3.449 4.544-2.35 6.305 1.188 1.901 3.623.64 9.401-2.784m52.748-18.793c-1.628-4.672-13.218-24.679-15.65-23.963-2.521 5.191-2.634 11.986-5.665 17.493-4.118 8.278-3.599 6.981 9.814 6.79 9.985-.142 11.208 1.238 11.501-.32m-89.03-21.776c25.08-26.535 26.986-57.3 3.128-64.11-13.212-3.772-34.16 5.953-34.12 15.755.03 6.103 1.188 7.198 6.5 4.948 22.333-8.565 40.35 12.732 20.02 37.666-4.933 7.21-5.584 9.01-4.107 10.475 1.728 1.712 3.112 1.048 8.576-4.732m270.85-227.53l-7.725-695.82-148.52 1.649-115.93 185.01.328 45.47c.011 1.571 2.708 2.517 4.421.522 6.646-5.241 4.119.212-3.46 11.998-7.663 11.915-5.17 21.636 3.494 34.17 18.364 26.567 28.328 75.6 20.928 101.66-2.794 9.84-3.396 13.808-1.441 19.275 2.235 6.249 3.605 9.587 9.919 13.56 5.496 3.728 50.554 20.671 123.34 66.19l-3.983-326.9 45.05-44.02 48.616 45.35 7.677 539.69c.081 5.706 11.294 8.181 17.273 2.201m-32.05-540.27l-40.695-36.949-39.41 37.28c1.744 175.8 6.968 536.6 6.968 536.6l39.603 2.396c0 0 2.814-8.263-1.127-29.501-5.914-31.868-6-70.868 2.273-130.28 5.163-36.451-.716-67.942-9.526-101.07-7.573-22.06-8.06-42.541-6.951-62.36 2.465-31.61 10.919-55.55 11.482-101 .321-25.906-1.201-51.25-.607-83.21.344-4.286 2.163-3.778 2.534.636 1.532 28.901 2.963 56.36 3.539 84.59-.461 36.729-9.05 74.62-9.663 108.24-.485 23.293-.773 31.351 9.404 59.59 15.994 44.38 6.554 112.94 6.385 114.16-6.08 43.924-10.246 100.07 12.398 141.79l21.512 1.675zm-273.43 334.71c11.825-5.576 14.07-15.214 7.413-38.29-1.188-4.119-2.544-9.02-3.01-10.882-1.434-5.699-4.02-6.297-7.405-1.714-2.023 2.737-.122 3.348 3.174 16.04 4.982 19.19 2.282 25.579-4.893 25.614-6.36.031-11.37-5.14-13.326-17.603-.668-4.256-1.606-7.152-2.657-8.846-1.761-2.84-3.837-2.301-5.481.876-2.127 4.111 2.142 20.9 7.656 29 5.974 8.163 10.05 9.807 18.531 5.806m-3.428-17.239c2.477-4.767-.786-16.393-2.509-24.01-1.556-4.245-3.284-5.266-6.103-4.543-4.201 1.076-3.945 5.667-2.336 13.213 3.276 15.367 4.977 17.293 10.949 15.341m35.817-28.19c13.509-7.878 14.661-21.22 5.258-45.36-3.855-9.898-8.598-16.841-11.171-16.888-.938 6.333-1.834 9.713-.679 12.182 1.088 2.292 2.912 5.797 4.22 8.732 7.934 17.795 5.966 28.12-1.444 33.796-6.917 5.294-2.455 9.631 3.815 7.539m-445.12-4.378c31.817-7.155 60.01-58.57 77.62-104.33 15.993-46.09 32.975-96.72 35.29-138.81 0 0-12.06.69-13.508 3.191-1.338 2.462-1.878 7.747-3.075 15.275-7.886 38.787-14.167 68.24-28.27 104.78-9.789 25.358-20.459 54.06-47.3 92.74-8.84 10.827-19.01 17.591-31.872 19.523-3.273.492-8.799-.058-10.178.935-2.424 1.747-.177 5.623 6.142 7.125 5.663 1.347 11.387.364 15.15-.421m439.35-10.853c4.809-5.212 5.22-11.345-.381-24.24-1.569-3.613-2.294-5.664-4.105-5.139-3.834 1.112-8.212 11.241-5.462 19.74 3.585 11.08 5.64 14.306 9.947 9.638m-450.63-3.114c9.329-1.346 21.08-8.88 29.5-20.583 17.319-23.11 29.15-49.31 37.922-69.68 7.02-16.41 19.629-51.806 23.02-64.61 7.2-27.2 11.11-44.746 14.316-64.2.294-1.788.559-4.642.018-5.559-3.712-.967-11.815-.275-14.278 2.239-4.132 31.19-14.194 62.54-21.514 88.58-12.341 44.31-48.13 115.36-68.04 118.92-10.704 1.911-23.09-7.244-21.22-16.8 1.148-5.867 1.928-8.106 4.791-9.604 6.924-2.514 11.02 2.155 3.43 5.319-8.75 7.753 7.285 19.282 16.958 10.997 16.403-14.05-8.217-40.33-27.991-27.909-21.908 13.766-15.981 37.12-1.986 48.1 7.06 5.534 15.167 6.233 25.08 4.795m155.85-33.44c13.474-14.09 23.508-32.25 30.703-54.899 15.572-50.852 28.3-109.09 32.647-154.65 0 0-11.654-1.067-14.217 1.414-1.81 1.752-.042 3.379-4.625 36.69-7.773 48.569-19.361 96.85-36.433 138.72-6.998 16.932-9.01 19.02-13.989 27.829-6.944 12.441-4.286 15.56 5.914 4.893m301.18-108.99c-1.269-.638-1.157-.212-1.689.164-1.844 1.301-.558 7.763 3.77 17.709 11.308 17.749 12.991 52.42 12.412 65.47-.179 3.917-.56 6.166.671 9.635 1.218 3.4 3.33 7.344 6.586.657 3.368-25.723.2-52.577-9.919-74.24-3.571-7.705-7.06-15.232-11.831-19.391m9.396 75.64c1.869-6.929-2.031-34.29-6.598-43.873-1.841-3.862-5.094-4.126-4.655.281.14 9.494-.687 27.563.397 32.898 4.977 11.11 8.837 18.18 10.856 10.694m-26.384-110.42l-5.244.064c.38 17.919-15.511 23.08-21.631 1.62l-4.708 1.142c6.613 30.31 34.819 16.06 31.583-2.826m-31.728 13.864c-2.813-7.922-1.718-10.841-8.591-7.189-5.251 2.79-8.383 5.734-.908 9.219 6.647 2.719 11.278 2.981 9.499-2.03m39.89-5.02c2.14-4.435 1.835-8.412-1.464-8.396-2.546.012-3.23 2.042-3.905 6.33-1.205 7.658 2.01 9.03 5.369 2.066m2.443-29.808c2.01-.663 1.408-3.495.825-7.098-8.774-11.877-30.11-7.974-37.765-5.509-8.836 2.965-11.07 1.922-17.14-.767-4.998-.868-5.686.348-6.872 2.735-1.044 2.102-1.19 6.079-1.46 13-.228 5.852.012 8.568 2.033 6.718 7.836-7.171 16.898-16.12 30.26-16.821 16.194-.847 30.13 8 30.11 7.737m-58.675 16.862c.012 2.413 2.06.886 7.297-2.471 19.06-11.573 30.19-10.09 46.676-4.855 3.671 1.165 5.892-2.675 1.892-5.878-19.686-15.764-43.601-5.31-55.864 13.204m68.7-74.37l102.17-172.74-579.86 6.01 100.48 181.08c80.08-19.416 211.98-44.537 377.21-14.352" fill="#131f67"/>
   <path d="m367.41 1334.01c12.08-18.403 73.26 13.467 76.62 26.324 35.682-28.651 79.37-31.19 114.94 3.779 35.73-39.82 74.47-37.554 115.01-15.171-4.599-8.854 50.963-48.806 85.28-24.19l93.86 162.42-589.65 8.44c34.25-52.52 64.42-115.13 103.95-161.61m-267.03-849.63c-3.3-8.812-17.245-99.46 15.548-102.09 53.32 22.863 121.98 106 153.93 156.92 39.595 63.1 80.51 208.74 58.742 202.6-3.144-.887 67.738 68.32 72.65 75.1 8.07 11.148-115.73 221.98-136.65 214.7-6.323-2.201-48.602-26.736-48.602-26.736l.428-69.893c0 0 64.56-130.66 67.74-174.12 1.2-16.422-45.91-43.981-48.11-49.627-5.49-14.06-5.44-66.55-32.962-89.16-15.13-8.952-29.29-5.884-44.523-3.777-62-9.615-31.09-113.97-58.18-133.92m1035.55 35.15l.658 25.774c-40.647 9.309-113.04-24.305-134.23 31.376 3.369 59.848 17.12 86.55 26.713 104.53 7.242 16.16 56.59-2.917 74.22 13.271 50.751 60.901 39.844 142.86 41.1 216.59l-21.603 11.182c-151.09-86.62-269.41-359.59-286.25-437.5-1.576-50.11 135.37-212.75 135.37-212.75.311-.353 50.886 29.934 50.886 29.934 1.219.472 1.282 211.43 1.278 210.45 39.694 1.595 78.19 5.03 111.85 7.138m-307.12-189.41c-75.79 110.98-100.02 275.87-93.79 390.62 11.886 171.3 136.07 322.76 128.04 337.29-1.402-.988-4.618.751-5.861-.327-28.488-24.707-48.15-20.11-62.58-20.17-27.581-.128-35.11 8.158-50.916 9.897-40.36 4.443-37.07 5.428-71.48-7.07-43.639-34.686-101.86-61.01-148.11-74.68-36.916 3.728-93.07 21.763-114.53 7.901 145.2-274.45 121.06-448.85-35.57-733.08 12.765 3.599 14.875 15.424 24.432 18.24 31.678 11.801 75.09 6.711 101.01-4.912 28.14-13.02 55.05 5.286 54.68 4.675 56.12 38.589 123.79 63.14 159.06 80.23 10.425 5.221 23.431-3.348 34.85-5.786 23.398-4.995 43.38-15.222 60.943-9.558 5.634 1.817 14.03 4.02 19.825 6.725m-350.01-353.16c-7.701-13.919-86.51-159.5-86.51-159.5l574.16-2.925-84.56 142.23c-8.04 7.759-48.27 29.583-90.07-18.358-.698 6.963-60.686 50.646-113.24-.572-30.965 28.693-62.686 45.47-115.67 14.14-1.07 8.911-41.673 49.28-84.1 24.976" fill="#e2cf00"/>
   <path d="m556.99 1360.86c-56.2-51.4-113.59-3.802-112.23-.846-22.263-22.08-43.996-40.12-72.919-30.82 0 0-.083-7.832.132-8.01 86.7 14.845 219.27 17.47 373.82-16.603l8.136 16.509c-41.709-14.274-62.899 5.842-81.05 29.26-67.14-40.782-83-4.174-115.88 10.516m123.02-606.38l39.35-1.205c8.681 114.22 106.24 288.07 108.54 288.04-6.762-9.159-69.807-1.177-69.33-.017-35.736-92.1-74.874-184.07-78.56-286.82m-226.51 273.71c0 0-13.02-32.626-20.757-46.561 40.533-70.924 73.61-144.23 90.1-225.53l28.14-.062c-7.095 112.06-94.94 283.1-97.49 272.15m506.09-20.613c60.743-112.39 48.26-273.27-128.57-360.29 0 0 3.273-118.06 16.346-118.48 2.961.882 79.58-1.868 79.58-1.868 19.532-49.44 51.18-109.31 95.89-150l2.595 131.9c-33.377 3.662-53.637 14.537-63.47 40.75l-46.18 10.809c4.873 132.48 56.16 254.36 205.45 362.68-35.05 30.764-155.31 93.77-154.85 92.68zm-742.86-75.02l-.209-137.38c22.401-5.096 40.17 1.21 58.26-39.19 0 0 31.28 14.405 41.673 19.727-28.503 52.29-52.993 108.11-99.73 156.84m292.09-246.47l.751-69.75 66.32 1.173c-5.365 23.709-6.862 47.38.919 70.939zm151.23-2.524c4.274-22.87 7.252-45.854-2.407-69.961l71.797.424-.921 69.47zm-138.03-134.85c-13.461-136.65-109.02-290.42-110.3-287.11 11.07 1.646 30.605 6.901 41.27 1.713 12.997 2.01 24.22.416 24.818-.789.812-4.793 89.44 197.63 78.882 285.49-1.341 2.982-31.824 3.519-34.67.7m165.93-.643c9.428-63.3 34.29-179.18 95.01-273.59 7.205 16.565 13.285 33.613 23.09 49.06-45.812 68.18-73.65 145.84-90.18 224.98zm-429.61-29.3c-28.895-57.26-147.45-146.59-141.33-137.5 48.17-44.11 102.14-72.38 156-100.93 0 0 9.731 9.02 8.297 11.337-32.72 52.797-47.633 164.05-14.682 227.36 31.74 67.65 87.15 107.24 143.54 138.18-3.864 42.565-5.641 73.32-15.641 115.7 0 0-35.419-18.11-64.41-29.693-5.482-80.23-22.914-151.86-71.77-224.44m305.06-567.63c41.709 24.769 78.79 21.698 114.38-12.939 45.614 40.43 94.24 20.825 114.67 2.143 19.335 21.279 44.35 32.926 80.65 25.421l-8.803 18.996c2.043-10.06-251.24-23.644-373.31 11.962 0 0-7.317-14.178-6.522-14.308 10.651-.764 46.27 11.967 78.932-31.27" fill="#d40000"/>
   <path d="m1001.25 153.37v19.25l18.5-1v166.16l-20 .094v19.75h55.5v-19.75h-14.5v-47.781l24.22-31.5 31.781 79.28h-20v19.75h60.75v-19.75h-16.844l-42.41-101.53 43.41-64.719h13.594v-18.25h-58.5v18.25h18.375l-54.37 79.34v-79.34h14.5v-18.25zm462.56 103.89l102.31 190.39c0 0 2.997-.55 4.5-.844 141.81-27.688 254.12-31.476 374.75-10.281l107.24-177.25c-195.17-2.219-588.8-2.02-588.8-2.02m11.405 8.11l568.94.625-32 52.44c-19.17-5.906-29.847 2.873-32.531 21.22 0 0-2.369-1.02-6.813-1.5-28.04-3.03-31.579 33.887-5.406 38.34 6.683 1.138 7.813-.188 7.813-.188-23.347 19.596-36.608 6.375-47.594-.094-.297 2.288-20.925 17.772-40.37-.75 27.855 2.779 32.19-25.11 18.875-35.719-2.786-2.736-5.625-4.875-5.625-4.875 6.554-5.704 7.983-13.288 3.781-21.969-8.447-17.457-34.922-16.438-38.969 2.625-1.575 7.417-1.625 8.719-1.625 8.719-21.38 1.395-25.723 21.56-18.375 32.75 4.177 6.361 13.361 7.741 21.844 7.313-11.432 16.181-37.597 10.673-49.25-2.656-18.519 21.743-39.624 19.1-50.16 7.438 7.155-.077 12.09-.18 18.656-6.25 11.233-10.379 5.714-28.786-10.156-33.938-3.079-.999-5.298-1.205-5.469-1.219.113-.158.412-1.176 1.094-6.719 3.948-32.1-44.18-28.93-39.531 2.656.539 3.661 1.531 5.625 1.531 5.625 0 0-5.106-.285-8.03 1.063-26.728 12.313-8.313 46.22 12.344 37.5 1.96-.828 7.289-3.444 8.06-3.406-25.585 31.697-47.06 9.229-52.719 5.781-17.278 25.611-47.29 8.138-47.906 6.344 1.869.519 7.496-.641 12.844-3.375 16.91-8.807 12.13-31.471-1.063-36.406-4.04-1.409-8.92-1.557-14.406-1.125 0 0 .417-5.706-.125-7.719-8.313-30.865-46.729-15.455-37.28 10.625.829 2.288 3.062 4.594 3.062 4.594 0 0-5.208 3.162-7.531 5.25-18.34 16.487.323 43.686 21.75 32.375 2.766-1.46 5.446-4.527 6.219-4.344-10.08 18.404-25.375 24.83-47.19 9.594-13.453 21.312-35.405 12.459-41.594 1.781 20.508 1.877 33.83-37.41-5.594-38.688-3.066-10.668-2.913-26.924-27.906-24.12zm-133.12 22.906c-21.403 56.741-81.82 108.09-116.81 172-39.532 64.69-27.12 130.85 26.688 142.28 28.21 5.995 64.998-21.12 68.28-50.31.671-5.963 2.868-9.11 6.875-8.625 3.128.379 2.837 8.07 1.656 17.313-4.32 30.35-20.77 78.52-42.06 100.72l99 .063c-3.978-2.247-40.94-48.43-37.34-104.44.063-10.02.059-13.34 4.5-13.313 3.564.022 3.602 1.672 4.656 11.5 6.671 62.17 83.974 68.92 108.25 9.469 12.254-30-.587-83.4-32.906-129.06-24.546-40.18-66.31-86.89-90.78-147.59m43.625 373.44c.215.122.363.141.375 0zm367.34-328.94c4.515 0 8.155 3.672 8.156 8.188 0 4.515-3.641 8.188-8.156 8.188-4.515 0-8.188-3.672-8.188-8.188 0-4.515 3.672-8.188 8.188-8.188m127.12.969c4.784 0 8.656 3.904 8.656 8.688 0 4.784-3.872 8.656-8.656 8.656-4.784 0-8.656-3.872-8.656-8.656 0-4.784 3.872-8.688 8.656-8.688m-249.19 9.469c4.613 0 8.343 3.731 8.344 8.344 0 4.613-3.731 8.375-8.344 8.375-4.613 0-8.375-3.762-8.375-8.375 0-4.613 3.762-8.344 8.375-8.344m356.97 10.281l-7.25 12.875c-7.997-7.01-2.484-16.2 7.25-12.875m-456.5 17.75l-7.207-13.313c12.904.871 9.1 10.11 7.207 13.313m220.53-7.25c48.826 55.632 92.61 39.18 121.25 2.188 12.281 31.526 39.651 53.32 86.75 32.12-2.849 5.04-10 13.938-10 13.938-41.624 11.212-62.28-8.376-78.34-27.03-42.35 35.15-82.22 26.632-115.12-4.375-28.08 35.36-73.56 42.953-115.66 14.09-19.244 28.401-46.851 39.87-81.56 25.656 0 0-7.365-11.577-8-12.313 5.03 4.22 68.957 30.756 84.56-33.06 22.255 37.766 95.22 39.77 116.12-11.219m4.906 22.875c54.923 51.36 112.56 6.947 114.03 3.813.862 2.855 32.21 40.28 77.41 26.22l-7.344 12.594c-85.05-14.388-163.27-23.631-342.44 2.719 0 0 28.596-8.469 43.06-31.28 8.05 5.23 70.2 39.921 115.28-14.06m-694.37 14.563c-4.999 12.1-13.168 24.623-20 35.813-32.14 49.867-33.971 54.651-36.531 72.25-7.151 34.451 33.529 48.39 46.5 24.875 5.812-9.937 9.471-3.469 6.875 5.938-1.656 16.524-18.476 35.671-18.531 35.31l49.28.375c0 0-21.14-21.531-20.813-38.813.028-7.899 4.234-8.129 9.375-1.031 14.709 20.303 42.13 3.972 42.31-24.906.111-17.693-5.257-27.617-37.28-75.25-6.981-10.424-14.675-23.548-21.19-34.563m501.87 28c0 0 23.907 2.805 25.781 3.281 2.098 1.628-20.13 7.73-20.22 7.281zm48.47 245.03c-1.447.048-3.253 1.674-6.25 4.625-6.485 6.384-7.958 7.222-14.25 8.125-4.745.681-14.766 6.447-20.844 12-1.643 1.501-4.78 2.754-8.531 3.406-3.259.567-7.745 1.339-9.969 1.719-2.223.38-4.639 1.083-5.375 1.531-3.191 1.945-8.389 2.242-14.219.844-5.622-1.349-6.523-1.314-12.719.594-9.03 2.778-14.934 2.784-19.375 0-4.44-2.782-11.495-3.82-15.969-2.375-6.618 2.138-23.756-8.122-23.719-14.188.0001-1.376-9.74-8.672-12.187-8.688-8.687-1.288-85.01 28.847-84.62 30.594 93.72 115.76 172.62 292.12 113.19 507.94l-10.5-5.03c8.823-39.23 12.317-78.71 15.03-118.81-175.92-75.948-191.06-252.56-122.78-364.06l-11.594-12.344c-41.38 22.08-83.42 34.614-185.69 120.41l.281 138.87c.252 125.55.188 247.87.188 247.87 37.01 4.098 77.77 7.446 117.97 10.906 0 0-.516 124.16-1.438 172.72-.779 41.07.75 38.5.75 38.5l133.12 70.19c-9.356-36.971 13.734-51.653 33.06-50.12-8.544-35.642 12.662-51.958 36.875-47.38 16.354 3.091 22.08 12.11 31.438 41.906 1.521 4.842 3.612 11.321 3.612 11.321l9.331-.344c11.677-25.08 19.479-56.992 46.959-61.13 35.963-5.415 49.36 19.294 49.34 44 34.847-30.705 76.59-6.939 73.874 38.931 17.533-11.27 47.24-21.459 65.958 22 7.04-1.482 10.622-9.324 20.52-11.779 3.701-.773 12.09-5.281 12.09-5.281l.104-1.506c0 0 7.779-2.692 18.209-4.401 8.95 3.34 6.339 3.224 11.161-2.723 5.372-2.752 14.08-4.568 20.807-3.964 7.05.631 10.182 1.14 14.312-.656 6.431-2.81 12.441-3.525 16.25.719 2.735 3.047 6.693 1.577 10.938 1.406 8.495-.341 19.812 3.149 23.344 10.781 5.205 5.307 16.594 10.687 16.594 10.687l9.219-2.125 1.063-3.406 75.41-28.781c-153.76-168.36-149.75-391.72-113.53-504.78l13.906 6.688c-7.376 33.508-15.746 67.922-14.656 117.88 138.46 61.736 207.35 221.31 123.41 360.59l8.875 11.469c34.922-14.658 122.77-63.978 153.12-90.78l6.469.531c0 0 18.41-11.921 26.531-18.281l1.094-369.62-6.438 1.688-1.156-21.594-114.16-9.06c1.451-1.085 2.545-1.526 2.875-3.688l-.656-204.62c-4.24-6.484-99.85-62.49-135.41-75.59-1.424-.009-.444 2.397.062 8.25 1.746 20.07-11.805 37.936-27.5 37.969-5.65.012-6.626 2.412-6.344 13.938.399 16.389-5.524 27.398-22.781 33.625-20.458 7.382-34.3-3.321-45.688-45.41-2.99-11.05-8.837-8.288-14.438 6.813-2.78 7.496-11.781 25.689-17.16 35.28-4.141 7.37-10.691 10.642-19.594 14.563-6.941 3.433-21.965 2.838-30.625-1.563-15.697-7.976-21.788-17.552-26.313-41.28-.591-3.101-2.629-2.833-7.719 1-27.717 20.883-66.7-.706-66.47-36.813.066-10.6-.367-11.02-6.594-5.938-18.796 15.348-44.34 7.564-54.56-16.625-2.393-5.663-3.67-8.187-5.531-8.125m-159.31 12.812c1.959-.086 8.06 8.03 8.06 8.03 5.629 6.225 13.192 9.376 21.06 14 .732-1.098 91.77 121.08 107.25 289.53l42.34.219c-7.896-163.68-53.04-242.36-73.75-292.84l15.188-4.813c34.06 65.25 75.57 197.68 74.19 313.62h-69.937c-9.873-116.13-55.03-229.35-118.19-315.25-4.396-6.598-7.84-11.2-6.562-12.375.091-.083.213-.119.344-.125m-26.781 17.281l7.094 22.25c0 0 .852-5.192 3.03-7.156 13.818-12.453 27.04 3.941 20.813 26.19-1.422 6.849-4.188 20.344-4.188 20.344 0 0-13.885-7.121-20.875-9.406-19.271-8.186-25.691-24.324-10.969-26.16 2.465-.307 7.531-.531 7.531-.531-6.122-4.81-19.625-15.813-19.625-15.813zm64.69 2.5c5.821 3.303 20.842 6.868 29.469 3.625 6.972-2.621 12.279-1.182 19.531-.563 4.158.356 12.437-1.469 12.437-1.469 41.4 87.1 69.883 190.45 74.62 284.97l-32.562.188c-12.293-100.41-51.16-202.41-100.47-278.06-2.182-3.297-5.083-8.564-3.03-8.688m136.03 1.5c12.607.151 25.798 12.719 32.969 33.28 3.992 11.451 5.552 10.758 10.906 8.906 13.755-4.712 28.4 10.389 9.969 12.906-18.09 2.99-7.768 38.38-9.313 41.5-7.332 1.281-21.11-28.8-20.75-37.75.881-21.938-19.726-40.28-32.531-31.06-6.068 4.368-5.408 7.449-7.281 5.875-5.764-4.84-6.931-18.19-.188-25.75 4.874-5.466 10.488-7.975 16.219-7.906m374.56 7.563c0 0 .713 28.85-.375 35.22-2.149 19.231-27.27 21.253-28.25 5.875-4.104 6.145-6.925 13.788-8.563 20.656l-17.813-12.25c6.764-4.856 13.215-9.117 18.219-15.12-13.207 1-20.587-10.429-11.75-20.16 9.812-11.143 36.955-12.344 48.531-14.219m-654.94 9.125l7.875 8.875c-70.19 124.41-45.44 283.44 123.97 367-1.121 38.17-6.01 76.77-15.12 112.59l-62.5-30.31c.421-140.66-79.23-274.76-206.37-362.91 46.14-37.07 97.18-69.63 152.16-95.25m511.75 1.062c2.98 16.424 18.533 46.17 19.656 44.47-.163-.977-64.722 82.69-92.78 222.62l-23.969.094c15.713-93.24 47.07-181.23 97.09-267.19m198.97 3.906l12.75 7.719c-66.899 56.01-110.95 127.02-143.31 203.59l-16.906-8c50.17-111.08 99.74-160.41 147.47-203.31m17.844 12.406c3.5.223 7.653 4.655 14.09 8.188 6.297 3.454 4.729 5.289-7.125 14.375-14.02 10.746-15.339 10.27-15.219-5.063.08-10.171 2.649-16.953 7.563-17.469.228-.024.454-.046.688-.031m-15.406 15.812c.737-.039 1.332.204 1.719.813 1.025 4.057.92 13.356-.719 22.531-1.325 6.04-19.303 21.22-25.719 27.22-2.57 1.688-3.747 1.071-4.219-1.938.203-4.764.664-11.11.75-17.563.025-1.988-.392-4.071 1.406-5.594 8.811-10.4 21.635-25.19 26.781-25.469m33.406 4.938c.108.004.177.019.25.063 1.659.996 1.387 21.844.219 23.22-5.216 1.348-19.243-.861-22.844-2.781-.787-2.422 19.01-20.637 22.375-20.5m-626.66 6.75l4.875 20.438c0 0 1.397-2.741 1.75-3.281 9.687-14.815 21.473-6.13 21.281 14.438-.063 6.496-5.969 32.469-5.969 32.469 0 0-36.36-17.463-39.22-25.12-2.812-7.539 1.182-14.173 7.875-14.781 2.502-.286 5.128-.49 8 0l-15.625-15.969zm416.31 2.719l16.5 6.094c-34.41 55.972-69.918 111.26-95.78 237.34h-69.16c9.672-77.06 29.27-152.81 64.25-226.53 0 0 13.582-4.171 21.25-6.656 0 0-57.16 130.79-63.812 214.87l33.406.719c17.825-81.94 51.19-166.87 93.34-225.84m-130.94 2.031c9.292-.346 16.15 6.189 15.625 17.781-.117 10.602-1.088 12.143-8.594 7.906-9.852-5.562-17.644-5.683-26.469.625-4.858 3.472-9.625 6.344-9.625 6.344 0 0 4.257-18.416 10.781-24.22 6.249-5.558 12.706-8.23 18.281-8.438m-35.469 27.25c-.671 6.231-2.508 9.09-4.156 14.406 0 0 5.411-2.105 8-3.313 12.289-5.73 25.1 4.882 24.906 17.313.552 8.293-8.458 18.226-19.19 18.313-3.743.03-7.706-1.149-11.531-4 2.775 15.192 3.328 22.22-7.781 29.844-9.295 6.186-28.881-.885-27.781-17.875l.688-10.469-9.406 1.219c-26.27 1.076-26.732-31.26-5.531-36.34 8.466-2 17.656 4.938 17.656 4.938-4.03-7.928-4.109-21.573 1.313-27.875 13.342-15.51 34.454-1.41 32.813 13.844m229.41-20.19c1.436 12.1 6.243 25.299 4.875 36.594-2.047 14.436-14.32 22.986-23.969 13.625-1.19-1.155-3.344-3.563-3.344-3.563-4.348 5.508-7.06 21.09-7.06 21.09l-17.03-10.5c0 0 11.827-8.301 15.09-13.03.91-1.316 1.344-3.813 1.344-3.813-9.478 2.963-17.521-6.729-14.938-15.281 5.132-14.01 30.62-19.2 45.03-25.12m119.03 8.75c6.375-.199 16.244 1.609 24.03 2.438 5.996 1.045 2.671 4.425-10.75 17.5-12.326 12.01-11.938 10.879-21.437 10.719-22.18-.374-26.07.125-13.156-13.813 6.767-7.303 12.675-13.899 17.531-16.344 1.03-.297 2.31-.454 3.781-.5m-40 2.531c.282.013.508.117.719.313 1.468 1.371.973 7.626.812 16.875-.17 9.844-.063 9.849-4.187 15-5.25 6.579-9.613 13.293-15.09 19.625-4.746 5.15-4.598 4.599-7.438-7.781-2.754-12.01-1.219-15.746 14.25-33.16 5.234-6.717 8.966-10.963 10.938-10.875m69.28 6.844l.188 24.344c-45.777 44.763-76.883 95.11-98.03 150.59l-15.938-6.344c27.612-70.894 68.943-126.18 113.78-168.59m-396.81 14.719c-7.567 0-13.688 6.121-13.688 13.688 0 7.566 6.121 13.719 13.688 13.719 7.566 0 13.719-6.152 13.719-13.719 0-7.566-6.152-13.688-13.719-13.688m-.094 4.313c5.223 0 9.468 4.245 9.469 9.469 0 5.223-4.245 9.469-9.469 9.469-5.223 0-9.438-4.245-9.438-9.469 0-5.223 4.214-9.469 9.438-9.469m-508.56 5.781c142.79 91.61 206.82 233.62 206.53 355.62l-8.06-3.625c-8.356-172.39-102.06-278.38-203.34-346.97zm845.37 1.313c3.233.012 7.631.514 14 1.25 11.821.631 13.27 1.377 5.125 10.719-2.231 2.558-6.511 7.909-9.531 11.938-3.02 4.03-6.694 8.233-8.375 8.813-2.485.857-23.24-.122-29.16-.938-1.94-.267.607-2.247 10.719-16.688 7.749-11.07 8.572-14.733 15.906-15.06.417-.019.851-.033 1.313-.031m59.47 4.687c0 0 2.834 78.58.781 128.69-32.573-1.205-51.705 11.159-59.656 34.563l-34.22-16.938c25.11-64.49 58.684-109.36 93.09-146.31m-100.81 1.813c1.85.028 2.908 3.857 3.437 11.406 2.154 13.507 1.918 15.08-3.719 23.75-2.806 4.317-6.657 10.412-8.531 13.563-3.268 5.497-5.591 7.133-6.406 4.469-4.458-14.573-5.865-23.592-4.281-26.531 2.601-4.831 14.753-22.1 16.469-24.344 1.19-1.557 2.189-2.325 3.03-2.313m-814.53 1.469c114.78 71.06 198.75 192.43 202.22 339.06 0 0-24.461-11.48-39.562-19.875l-.781-14.25 7.969-.25 2.563 16.06 17.531-.562-4.656-40.09-27.438 2.594-5.531-22.719 8.313-1.781 4.594 14.656 17.844-4.719-9.5-35.719-27.563 7.531-8.813-24.12 9.156-3.281 7.406 14.438 16.781-5.844-15.844-35.812-25.344 11.969-12.875-23.375 9.906-5.281 7.969 13.906 15.688-8.125-19.406-32.938-24.06 13.438-12.09-18.12 7.469-5.219 8.25 9.531 13.781-9.75-21.12-28.406-23.03 18.03-17.03-19.719 7.844-6.656 11.719 10.5 13.09-11.438-25.09-27.375-21.937 20-16.344-14.188 8-8.844 10.188 7.781 10.844-12.844-27.312-22.5-20.469 20.25-19.625-12.969v-9.656c6.372 2.459 13.12 5.322 19.16 8.531l10.156-15.375-29.31-19.781zm319.66 6.06l4.344 25.06c4.12-6.816 7.4-11.509 16.313-8.875 10.704 4.361 10.852 20.48 1.781 45.16-1.68 4.572-3.75 8.531-3.75 8.531 0 0-4.692-1.947-7.812-4.094-6.55-4.477-17.581-9.547-23.22-18.438-5.904-9.31-6.03-22.332 4.813-21.22 2.155.014 6.406 1.031 6.406 1.031l-16.281-20.75zm-325.97 7.469l19.875 12.813-4.125 7.5-15.75-7.094zm498.28 5.906c5.758 8.05-14.506 31.773 12 41.25 0 0 .651 5.46-4.875 8.781-12.967 9.429-31.591-7.785-25.812-25.5 3.695-11.331 14.375-24.466 18.687-24.531m55 .75c0 0 7.992 5.839 9.594 7.375 14.756 14.15 14.899 34.439 1.531 41.531-8.893 4.719-18.947.917-22.437-5.938-1.617-3.172 1.042-6.49 4.437-6.469 6.367.04 11.227-12.158 9.344-25-.746-5.089-2.469-11.5-2.469-11.5m174.12 4.719c0 0 1.757 17.343 4.281 25.03 7.75 21.56-2.15 34.689-16.625 27.469-2.067-1.031-5.719-5.719-5.719-5.719l-1.438 24.781-20.594-6c4.455-7.161 10.866-12.253 15.656-20.313 0 0-3.083-.108-5.781-.125-12.301.424-16.837-13.212-3.938-24.438 9.61-8.288 34.16-20.688 34.16-20.688m107.66 5.75c2.492-.018 5.599.184 9.875.188 13.06.012 16.416-1.758 10.656 6.375-2.246 3.17-7.722 11.996-9.344 15-3.293 6.099-3.952 8.02-9.438 9.219-7.944 1.573-16.95.486-26.03.906-1.972-.097 2.083-6.862 4.344-11.06 5.543-10.298 8.926-17.367 13.688-19.531 1.871-.85 3.758-1.076 6.25-1.094m-40.37 7.969c1.579-.084 2.748 2.745 4.25 8.594 3.506 13.647 4.411 13.988-1.25 25.19-2.856 5.651-7.718 15.226-9.719 19.19-5.133 10.161-5.423 10.06-8.656.969-6.203-17.446-6.742-15.651 3.5-35.25 6.397-12.241 9.567-18.565 11.875-18.688m-753.19 4.781l18.469 14.813-5.25 5.094-10.219-7.531-15.09 16.16 24.813 22.625 21-20.688 18 18.813-5.5 4.656-10.563-10.188-15.812 13.5 23.594 27.875 23.781-18.12 14.906 19.531-6.094 3.813-9.719-9.438-15.469 10.719 19.25 27.12 24.25-13.906 13.781 22.656-7.656 3.688-7.813-12.438-17.406 10.03 16.438 31.719 26.19-10.938 10.531 24.22-8 3.25-6.719-14.563-17.625 6.969 11.813 33.31 26.563-7.625 6.438 24.75-8.188 2.281-4.03-13.719-16.906 4.063 7.06 33.438 27.03-1.719 3.219 27.03-8.406.375-2.094-16.12-17.219.219c.092 5.684.75 17.281.75 17.281l-10.406-4.813c-15.461-102.79-70.6-188.45-152.75-248.09l-.438-12.281 20 12.688c0 0 18.34-16.337 21.5-20.5m789.03 23.969c5.732-.044 3.197 4.4-3.781 17.688-7.786 14.824-9.17 15.13-23.75 18.688-17.733 4.325-17.216 5.292-7.625-15.16 3.698-7.885 6.395-14.785 9.781-17.406 4.445-3.439 13.05-2.12 22.406-3.531 1.166-.176 2.15-.275 2.969-.281m-829.56 4.375c85.31 55.04 139.24 168.88 145.94 237.91 0 0-2.309-1.548-6.969-3.688-6.467-2.969-8.06-4.911-9.938-14.313-16.899-84.4-64.54-156.03-128.66-206.59zm769.34 14.09c3.61-.751 10.184 25.16 8.219 30.594-1.412 3.907-14.1-5.317-18.719-7.281-2.308-.982 8.06-22.805 10.5-23.313m-411.41 1.188l-.406 26.875c0 0 3.238-3.845 4.906-5.063 6.346-4.629 16.04 1.786 16.406 9.719.508 11-1.154 15.467-9.969 30.75-2.729 4.728-6.844 10.75-6.844 10.75 0 0-10.406-7.418-21.781-18.75-12.295-12.247-9.947-28.602.812-28.656 3.22-.027 6.09 1.07 8.906 1.969-2.323-7.916-10.969-23.281-10.969-23.281zm333.47 20.12c0 0 5.57 7.333 11.969 26.625 6.11 18.422-3.296 32.29-16.06 25.344-2.288-1.245-4.687-3.938-4.687-3.938-.895 8.93.694 24.996.906 25.13l-20.594-3.594c0 0 11.312-17.963 12.12-22.406 0 0-1.277 1-6.937 1-20.691-.011-16.4-24.625 7.5-38.28 3.588-2.05 15.781-9.875 15.781-9.875m118.63.313c4.477-.2 2.363 4.134-2.594 14.25-5.479 11.187-4.107 10.217-15.687 4.313-16.195-7.911-15.238-9.147 5.281-14.688 6.487-2.398 10.655-3.77 13-3.875m-293.69 3.281c16.219.098 28.18 16.1 25.781 38.844-4.12 39.04-1.752 36.636 2.5 40.531 7.745 7.099-2.74 11.36-11.969 4.594-6.425-4.71-8.518-9.362-8.219-30.906.345-24.764-.991-31.07-9.844-28.906-5.525 1.35-7.266 6.05-6.656 22.75.857 23.439-.692 29.342-9.594 36.844-9.597 7.428-19.953.805-11.188-4.094 4.01-4.509 4.763-10.242 3.219-24.406-1.69-12.07-8.728-55.46 25.969-55.25m400.97 19.688c2.04-.039 4.088-.015 6.156.063 31.21 1.171 110.12 7.594 110.12 7.594l.688 23.313c-3.524 2.169-62.42-6.812-105.75-6-10.129.19-17.3 4.663-24.625.906 7.03 2.916 6.388 38.08-24.594 29.562-26.27-9.447-13.47-44.972 20.12-53.937 5.777-.783 11.758-1.384 17.875-1.5m-173.66 15.625l67.44 33.25c9.44 126.6 53.15 260.36 202 361.75-24.11 17.254-84.61 59.63-153.75 88.66l-5.656-6.06c82.09-139.61 20.07-293.27-123.69-362.81.388-38.748 5.256-76.976 13.656-114.78m237.22 21.22c12.933-.504 16.297.98 17.406 6.844 1.047 5.537 5.158 6.839 10.03 5.063 11.868-4.326 19.11 16.724 9.281 26.06-6.105 5.799-5.04 8.03-.031 8.06 12.394.078 12.03 16.301-.562 25.5-5.227 3.816-5.155 5.55.312 8.25 9.159 4.52 7.314 13.457-4.312 20.812-6.326 4-6.533 4.985-1.313 6.406 13.153 3.581-.269 22.324-14.656 19-5.903-1.364-11.52-.089-17.16 3.594-15.413 6.42-17.992 7.693-34.625 5.625-14.608-2.68-21.14-7.488-24.906-20.312-8.569-26.08-17.808-54.965-17.906-83.44-1.291-17.48 28.01-33.28 41.885-33.968 11.303-1.702 24.268 2.386 36.552 2.499m-922.41.438c15.498 0 28.06 12.564 28.06 28.06 0 15.498-12.564 28.06-28.06 28.06-15.498 0-28.06-12.564-28.06-28.06 0-15.499 12.564-28.06 28.06-28.06m311.87 8.25l-2.531 24.531c0 0 4.123-3.22 5.094-4.03 7.3-6.101 18.839.722 16.219 10.219-.853 8.37-15.304 33.25-21.06 38.469 0 0-23.18-25.25-25.656-30.19-5.509-10.975 2.02-22.415 12.03-17.563 1.428.691 5.563 3.75 5.563 3.75l-7.344-23.281zm-310 1.969c-9.918.336-19.334 6.426-18.06 14.531.847 3.463 6.132-1.535 11.344-4.813 3.991-2.51 8.796-2.906 13.344-.938 4.03 1.437 5.76 5.152 8.094 8.03 1.983 2.425 4.149 4.412 5.375 3.219 1.042-1.286.62-2.898.344-4.344-2.138-11.05-11.278-15.963-20.438-15.687m755.72 3.812l10.03 5.125c13.501 178.92 103.97 284.1 199.03 346.75l-7.563 4.563c-116.66-74.74-197.65-208.63-201.5-356.44m15.188 7.344c0 0 25.19 12.891 38.37 18.844l.5 16.187-8.813.313-3-15.219-18.312 1.313 5.719 37.438 29.531-3.625 4.125 22.625-10 2.094-5.125-13.906-16.938 4.125 10.969 36.37 26.625-8.594 8.344 23.781-8.938 3.25-5.719-13.938-17.531 6.125 13.563 35.5 27.719-8.906 11.188 22.22-8.406 3.719-8.03-13.781-16.625 8.5 19.5 33.16 25.03-13.12 11.687 17.719-9.187 6.156-8.344-10.844-13.469 8.875 21.563 29.438 21.562-16.16 16.12 18.594-7.125 6.313-11-11.156-13.03 11.625 25.688 28.19 22.313-19.375 15.844 14.75-4.688 4.937-10.656-6.656-14.12 15 26.969 23.469 21.406-23.469 18.16 13.375v9.875l-16.219-8.219-10.875 16.375 27.09 20.5-.187 8.06c-154.67-92.28-195.37-235.39-203.25-341.84m-316.66 1.781c6.687-.201 13.744 6.085 25.406 19.594 32.593 37.756 23.891 96.16-18.719 126.62-6.209 4.438-8.703 4.04-16.281-2.469-43.706-37.552-46.23-87.77-7.313-131.87 6.727-7.622 11.706-11.717 16.906-11.875m156.22 5.188c8.04 12.321 18.18 24.998 19.344 39.969-.577 14.796-10.551 17.522-20.875 8.906-1.307 7.77 3.125 22.906 3.125 22.906l-18.688-2c0 0 7.33-12.805 7.625-20.813-12.974 9.04-22.887-2.748-21.12-12.25 3.71-16.16 16.995-27.07 30.594-36.719m-155.66 9.656c-1.532.122-3.124 1.17-5.563 3.125-11.384 9.13-20.327 20.488-24.969 32.28-9.799 24.891-3.404 52.949 18.687 74.72 11.223 11.06 15.172 10.301 32.375-12.563 14.411-19.15 17.406-43.887 8.531-65.37-4.33-10.485-12.18-20.707-21.594-28.12-3.617-2.849-5.5-4.22-7.469-4.063m359.5 4.594l14.5 7.125c18.497 122.01 78.46 196.45 145.66 247.78l-.125 11.313-18.03-13.969-21.594 22.594-17.5-14.344 6.563-6.375 9.969 6.344 12.75-14.281-25.09-22.375-21.875 18.969-18.219-18.75 5.531-4.625 12.594 11 14.09-12.5-24.375-27.344-21.813 16.531-15.219-20.19 6.625-3.938 7.969 10.938 16.813-10.469-17.781-27.344-25.344 13-12.969-23.375 7.375-3.531 8.406 13.12 15.781-7.594-15.875-32.25-25.906 8.563-9.531-25.375 7.406-2.719 6.531 15 17.531-5.625-11.906-34.719-26.781 7.563-6.625-25.531 8.281-1.781 4.344 13.781 18.406-3.688-6.75-33.06-27.406 3.469c-.91-5.617-4.953-20.749-4.875-26.469l8.438-.688 2.656 14.563 18.438-.625zm-358.53 2.656c10.05 1.378 22.319 20.723 25.09 27.75 5.293 13.893 5.739 29.991.906 42.469-3.954 10.205-15.775 28.3-23.281 33.406-6.06 3.28-11.131.848-19.781-10.906-17.09-23.23-20.399-51.17-6.906-70.31 10.305-14.618 17.948-22.419 23.969-22.406m377.97 6.03l7.281 3.438c8.942 70.7 50.843 167.73 133.31 225.78v8.875c-64.14-46.03-123.02-125.43-140.59-238.09m-379.25 4.814c-28.72 21.648-24.13 55.54-2.371 78.37 23.436-15.51 31.725-57.4 2.371-78.37m-438.28 1.436c16.201-.374 26.472 5.271 31.406 16.5 7.663 17.442 8.706 20.754 10.281 29.906.899 5.231 2.289 13.12 3.062 17.531 8.411 47.4 2.221 65.26-26.562 72.66-8.588 2.206-20.568 2.92-28.938.906-2.197-.528-10.239-.577-16.562-.781-12.55-.406-16.387-1.734-22.688-6.844-2.272-1.843-4.457-3.316-7.187-3.75-14.361-2.275-18.649-15.43-7.75-25.16 6.207-5.54 6.825-6.273 6.25-7.219-.326-.532-2.975-.982-5.906-1-14.476-.091-14.329-14.983.25-25.625 6.929-5.057 10.05-9.824 5.469-8.656-13.201 3.114-17.859-16.181-4.061-22.17 7.346-4.108 12.62-7.544 5.53-7.929-5.95.515-10.795-3.876-8.974-9.06 2.206-6.274 14.288-11.986 21.255-9.851 5.445 1.668 10.753 3.196 14.156.75 8.258-5.935 11.954-8.611 19.06-9.563 4.121-.552 8.44-.67 11.906-.656m481.47 3.625l66.56 1.281-1.969 65.28-62.688-1.188c0 0 13.743-29.16-1.906-65.37m-149.16 1.5l63.75.781c-10.503 24.602-6.582 49.882-2.719 64.12l-62.41-.969zm106.47.095c17.13 9.98 21.842 46.32-1.953 65.01-22.647-23.273-18.11-51.606 1.953-65.01m-157.28 28.374l17.09 1.594-6.094 24.469c0 0 2.753-2.904 3.656-3.188 21.958-10.312 23.535 13.06 1.188 34.16-4.94 4.651-12.875 11.03-12.875 11.03 0 0-6.218-9.405-11.156-17.906-5.614-8.549-9.429-17.704-8.469-22.562 1.394-7.05 9.875-11.714 15.281-7.406 2.663 2.121 5.75 5.344 5.75 5.344zm305.19 17.938c0 0 7.17 7.354 11.531 12.12 15.09 16.511 17.685 31.96 10.03 36.656-6.571 3.01-10.648.946-15.937-3.344 1.098 10.235 9.228 25.343 9.03 25.375l-22.531 3.625c0 0 5.561-20.505 5.094-28.25 0 0-4.628 3.557-6.688 4.438-14.709 5.371-22-11.341-9.906-28 10.145-13.976 19.375-22.625 19.375-22.625m307.78 30.938c15.12 0 27.375 12.256 27.375 27.375 0 15.12-12.256 27.375-27.375 27.375-15.12 0-27.375-12.256-27.375-27.375 0-15.12 12.256-27.375 27.375-27.375m13.5 12.531c-1.18.266-2.145 2.982-2.281 8.969-1.363 12.281-11.579 17.223-22.75 11.531-4.516-2.3-8.36-5.71-8.375-3.094-.0001 1.401 3.615 8.721 6.187 11.219 9.468 8.514 32.527 6.496 32-13.344-.247-9.339-2.814-15.722-4.781-15.281m-497.03 10.281c2.972-.202 6.741 1.03 9.156 3.531 7.484 5.112 8.903 11.641 9.375 36.28.417 21.735-.028 22.266 3.563 24.906 8.78 6.457 14.07-3.385 11.563-25.406-2.417-21.2 5.222-36.612 18.03-36.531 6.303.039 7.475 3.741 2.688 8.469-5.05 4.987-6.272 11.08-4.688 23.344 4.061 31.419.551 46.841-12.656 53.22-13.774 6.651-31.489-.989-34.594-18.375-1.99-11.599-1.973-25.35-.594-38.31.247-13.629-.063-15.185-4.813-23-3.36-5.245-.854-7.866 2.969-8.125m-346.37 10.188c7.614-.017 15.523 4.398 20.25 14.156 11.405 23.549-13.303 42.919-35.969 44.44-39.34.586-86.1-5.088-125.59-10.344l.625-22.25c36.24 2.094 77.1 5.04 121.12 7.094-5.01-20.688 6.871-33.07 19.563-33.09m206.94 4.563l21.906 4.844-13.938 22.781c4.135-1.791 6.992-3.039 11.125-1.531 8.924 3.22 9.04 14.527 2.5 25.09-5.173 7.673-19.729 16.84-29.656 22.469-5.579-11.977-17.904-32.949-13-44.41 2.603-6.083 9.815-9.04 16.531-5.719 2.222 1.33 6.469 3.5 6.469 3.5zm51.781.625l66.75.781c-9.702 67.49-28.685 157.61-66.09 231.06l-15.719 4.063c32.989-72.99 54.933-141.44 65.19-217.97h-33.375c-19.2 82.13-47.603 158.25-91.28 224.37l-19.406-6.313c46.668-73.99 83.65-156.57 93.94-236m152.25 1.188h74.41c13.687 137.41 60.11 231.2 129.22 323.97 0 0-4.363.977-6.938-.125-7.165-8.941-13.73-14.408-24.469-17.16-58.08-83.62-97.04-200.51-106.44-289.94h-44.25c5.04 112.32 36.15 204.41 77.56 293.59l-22.469 4.125c-33.25-79.82-69.71-149.28-76.62-314.47m115.78 16.969c6.122 4.736 12.738 9.39 18.969 13.906 16.754 11.755 16.534 33.977.25 33.875-1.729-.011-5.75-.25-5.75-.25 0 0 6.652 14.567 10.844 21.938-6.786 1.81-20.969 4.469-20.969 4.469 0 0 2.03-14.304 1.625-26.16 0 0-2.721 3.038-4.969 4.094-10.806 4.514-19.943-4.914-18.594-16.06 1.821-15.04 18.594-35.812 18.594-35.812m-497.09 2.687l36.625 18.19c-24.959 56.812-53.54 110-94.87 150.44l1.063-131.28c22.564-.656 45.711-.861 57.19-37.34m250.44 2.063h22.531c-9.998 104.81-79.25 246.59-92.25 263.69l-4.281 3.219c.258-.139-8.869-32.14-19.25-43.656 39.07-52.699 80.01-153.96 93.25-223.25m158.44 0h34.03c10.601 83.51 36.418 173.73 101.84 283.31 0 0-6.558.659-11.625-2.375-11.15-6.912-18.898 2.241-25.559 1.882-10.418-.561-12.13-1.181-22.878 1.368-53.989-113.87-69.31-203.51-75.81-284.19m-367.59 18.75l12.156 5.719c-26.14 60.46-49.55 108.49-111.47 167.47l-.219-17.562c43.499-42.13 72.809-97.65 99.53-155.62m17.688 8.437c5.755 2.166 12.286 5.726 17.719 8.656 1.818.727 1.329 2.356 1.344 4.063-2.299 5.742-12.443 8.261-16.281 9.375-4.634 1.32-9.205 2.244-10.03 2.438-5.298 1.243-3.621-4.065 2.125-15.688 2.587-5.234 3.606-8.727 5.125-8.844m24.281 12.813c3.639-.224 18.332 7.895 21.469 10.812 1.114 3.444-2.047 8.872-6.688 18.906-7.133 15.429-8.553 15.772-10.687 3.094-.369-2.183-2.496-9.397-3.781-14.187-2.981-11.11-3.263-17.501-.313-18.625m26.594 12.469c0 0 8.537 4.149 11.312 5.969-38.13 114.19-139.67 208.58-139.12 206.41l-15.844-9.313c67.57-61.05 117.1-133.15 143.66-203.06m-40.31 1.625c3.688.076.477 4.613-4.5 15.594-4.721 10.754-6.27 14.569-10.687 16.281-6.333 2.293-15.428 2.365-23.5 3.781-3.454.598-2.01-2.041 3.312-12.844 6.241-12.675 6.59-15.306 16.375-17.938 5.656-.882 13.269-4.921 19-4.875m13.375 22.688c3.931 14.14 3.848 16.932 1.219 21.844-4.932 9.211-11.38 19.962-13.156 22.875-4.443 7.279-5.706 5.764-8.344-11.938-1.636-10.981-3.07-15.917-1.858-20.696 2.217-5.407 8.828-18.16 12.566-25.618 5.352-15.913 8.219 12.13 9.572 13.534m70.19-12.344l20 6.563-15.688 18.937c0 0 6.581-1.185 7.344-.875 15.738 1.045 13.12 16.689.938 26.16-5.05 4.623-29.938 15.938-29.938 15.938-2.666-13.999-8.158-22.943-6.844-37.31.924-7.738 1.613-14.719 11.09-14.938 4.987-.267 7.01 4.835 10.25 8.938zm362.56 16.969c0 0 12.05 6.216 23.22 14.813 14.568 11.211 17.06 24.389 2.5 29.469-1.683.589-6.469.344-6.469.344 4.01 6.981 13.531 17.375 13.531 17.375-4.771 3.339-11.504 5.953-18.969 8.281 0 0-1.85-17.383-3.625-24.09 0 0-1.926 3.796-4.313 5.281-14.03 8.729-25.04-7.722-17.5-28.531 4.579-12.636 11.625-22.938 11.625-22.938m-154.22 2.906c35.03-.852 14.509 56.51-3 52.813-.298-.521 14.457-33.934-5.406-39.25-9.113-2.439-1.258-13.678 8.406-13.563m-57.44 4.063c10.884-.066 18.803 7.609 8.406 12.437-16.363 7.601-6.621 25.808-6.25 36.12.227 6.309-14.574-5.5-17.719-18.312-4.065-16.566-2.184-28.831 15.563-30.25m-259.09 6.03c2.415-.0001 4.231.184 4.844.656 1.023 2.705-3.866 11.166-11 22-3.796 5.766-5.425 7.386-7.75 8.75-5.517 3.101-13.264 2.295-19.719 2.75-9.625.122-7.933-.07 2.719-16.656 4.759-7.41 7.764-13.471 10.594-15.406.568-.363 13.07-2.071 20.312-2.094m12.625 11.969c0 20.748 7.05 27.548 1.875 34.09-6.328 10.194-14.409 21.348-17.344 24.875-4.944 5.941-4.393 4.818-5.688-10.719-.938-11.266-1.964-18.797-.5-22.313 4.233-10.168 9.263-15.03 14.5-25.844 4.105-8.712 7.156-7.257 7.156-.094m276.5 10.406c10.176.138 16.458 10.951 16 20.875l-.437 9.5c13.146-5.04 29.465-.141 30.19 12.75 1.226 21.86-14.878 19.326-28.5 18.406 1.374.516 3.382 19.763-4.719 27.12-12.716 14.233-36.426-.31-30.469-21.19 1.237-4.337 1.5-7.06 1.5-7.06 0 0-8.504 3.066-11.5 2.938-25.794-1.103-23.819-37.571 2.094-33.28 5.293.876 8.875 2.156 8.875 2.156 0 0-.563-2.304-1.438-5.563-3.769-14.04 4.147-26.85 18.406-26.656m515.97 6.5l13.906 8v15.5l-19.781-14.625zm-833.59 10.375c5.481-.053 9.786.375 8.938 1.688-.017 2.766-12 19.444-19.09 27.06-6.05 6.494-6.901 5.569-21.688 4.844-5.801-.286-9.593-.329-9.438-1.875 6.813-8.932 16.199-20.43 22.688-30.03 2.549-.778 11.549-1.619 18.594-1.688m13.531 7.281c1.023-.015 1.337 2.204 1.313 7.03-.018 3.645.502 14.92 1.031 19.813.964 8.895.966 8.882-2.844 14.188-4.646 4.988-9.385 12.342-15.375 18.06-8.997 9.968-8.07 10.536-7.938-10.781.104-16.654-1.149-16.652 2.219-20.563 1.852-2.15 7.573-9.147 11.344-14.625 5.725-8.315 8.755-13.1 10.25-13.12m85.75 2.938l18.5 9.875-18.531 18.781c0 0 4.634-.02 6.188.281 11.905 2.312 11.01 14.926-.969 24.344-7.357 4.647-32.625 13.844-32.625 13.844-.867-10.61-3.111-20.367-2.688-31.75.179-5.251.659-10.96 4.688-15.5 2.785-3.081 7.44-4.874 13.969-.656 3.429 3.049 5.219 6.5 5.219 6.5zm218.31 6.406c-7.249 0-13.12 5.876-13.12 13.12 0 7.249 5.876 13.12 13.12 13.12 7.249 0 13.12-5.876 13.12-13.12 0-7.249-5.876-13.12-13.12-13.12m206.81 3.094c0 0 24.22 9.1 35.12 19.09 10.187 8.496 5.395 22.492-4.719 22.781-.735 0-5.03-.625-5.03-.625 3.427 5.211 14.906 18 14.906 18l-18.719 7.594c0 0-2.996-14.409-5.313-22.5-6.524 15.06-22.621 5.264-23.688-4.125-2.596-13.759 3.253-27.2 7.438-40.22m-206.81 1.156c5.04 0 9.125 4.085 9.125 9.125 0 5.04-4.085 9.125-9.125 9.125-5.04 0-9.125-4.085-9.125-9.125 0-5.04 4.085-9.125 9.125-9.125m-357.37 18.656c6.525-.061 14.666.241 18.313.469 2.777 2.131-3.03 8.754-14.25 20.531-8.997 9.445-10.323 8.132-21.22 8.219-18.282.145-18.738.267-10.344-9.281 9.195-10.461 14.56-17.196 18.813-19.375 1.428-.371 4.772-.525 8.688-.563m22.281 9.188c1.934-.386 1.407 4.549 1.094 15.719l-.531 18.938-14.219 13.688c-16.458 14.727-14.492 15.649-14.375 1.875.093-10.947-.024-18.642 2.344-23.5 7.186-8.66 14.671-16.327 22.844-24.594 1.288-1.273 2.199-1.997 2.844-2.125m361.47 4.719c3.959-.33 14.06 16.954 16.594 31.438 5.777 33.07 25.588 48.75 39.531 35.469 5.67-7.807 6.307.713 6.03 4.781-2.926 41.9-50.41 24.459-55.812-17.16-16.665 10.815-32.21-11.03-22.281-10.688 23.49-7.466 17.07-29.03 15.938-43.844m-55 .312c2.325 14.494-23.803 39.32-38.5 21.906-7.478-8.858-.664-27.13 8.844-15.875 10.51 7.777 20.698-1.246 29.656-6.03m-359 19.875c5.372-.115 13.14.903 16.531.438 4.795.484 1.368 2.795-9 12.25-8.929 8.144-11.479 11.769-12.5 8.219-.497-5.505-.281-12.05-.25-19.812.822-.764 2.777-1.042 5.219-1.094m121.81 9.625l15.938 11.625-15.813 14.563c14.179-.701 15.443 12.593 10.06 20-3.485 5.195-16.93 10.665-30.375 12.844-8.092 1.313-14.688 2.281-14.688 2.281 0 0-.304-6.235-.531-16.594-.462-21.19.98-29.526 9.125-33.656 5.831-2.956 15.701 1.684 18.12 7.094.802 1.787 2.906 4.906 2.906 4.906zm-102.56 1.156c.063-.013.104 0 .125.031.9 1.214-2.344 35.688-2.344 35.688l-23.09-13c0 0 23.373-22.309 25.313-22.719m611.19 4.063c16.449 7.749 28.777 6.242 39.844 15.844 9.636 5.04 6.779 18.931-.25 22.03-3.183.97-8.437.437-8.437.437 5.818 7.181 18.562 16.25 18.562 16.25l-20.25 8.469c0 0-2.768-13.655-5.344-21.09-3.685 11.07-16.17 10.797-23.281 5.594-5.04-3.859-7.121-16.79-4.719-28 .634-2.959 3.875-19.531 3.875-19.531m74 112.34c20.897 29.401 32.534 54.13 35.781 91.03 1.92 22.753 1.265 27-4.125 26.969-3.467-.022-4.959-1.735-4.938-5.625.365-61.784-75.74-76.31-104.06-22.938-16.607 31.29-8.417 72.76 27.28 129.25 32.842 53.49 75.14 94.14 99.22 151.69 23.858-57.14 71.73-105.23 105.94-160.31 49.42-70.825 32.28-145.49-28.687-153.34-27.978-3.603-58.64 24.432-62.19 53.44-.792 6.468-2.164 8.372-5.719 7.844-4.756-.707-2.977-13.484-.906-30.531 5.644-32.59 17.16-59.774 35.813-87.47zm295.22 81.66c.55-.139 15.505 20.702 17.625 28.5 1.73 6.357 3.061 12.929 1.969 15.687-1.313 3.318-4.433.78-8.313-4.375-10.665-14.168-31.636-9.641-40.19 8.781-6.163 13.276-2.736 30.378 8.719 49.781 13.695 25.31 47.18 70.823 48.19 74.969.896-3.567 22.23-42.22 39.41-67.844 9.06-15.467 15.836-28.562 16.25-49-2.09-25.447-32.537-35.935-46.12-16.188-4.395 6.388-7.01 8.333-8.469 3.125-.986-3.514 2.096-11.11 3.719-19.219 1.355-6.776 14.525-24.379 14.844-24.22zm-477.37 126.91c-199.68 47.32-361.88 18.06-377.97 12.469l-12.719 18.969c-1.551 3.225-2.502 12.856-11.125 15.469l-12.938 19.313 2.531 2.687-11.469 10 2.781 3.344-8.344 12.12-3.281-.344-19.313 29.344 2.938 3.281-44.34 69.41 599.91.188c-34.869-65.774-72.18-130.27-106.66-196.25m-3.625 8.531l3.563 9.906c-9.92-1.22-21.505-1.819-33.28-2.344 10.35-2.136 20.717-4.752 29.719-7.563m-34.844 8.625c-19.08 8.755-30.513 19.276-39.28 30.375-10.916-8.478-24.802-14.485-41.37-18.25zm-337.12 4.813l8.5.969c0 0-2.848 2.21-4.875 1.75-1.554-.353-3.625-2.719-3.625-2.719m382.16 4.938l5.406 10.688c-12.994-6.888-68.57-22.657-84.34 32.594-16.594-22.433-85.02-54.954-119.72 14.188-9.869-18.731-67.32-72.63-119.72-3.938-20.648-42.689-37.905-46.27-75.81-40.44 26.94-25.889 64.846 1.059 80.906 23.09 45.21-37.493 83.01-26.22 116.03 4.281 42.612-46.4 85.11-35.22 115-11.938 21-30.898 41.515-40.22 82.25-28.531m-349.03.281c26.865 3.626 53.729 5.273 80.59 6.594-15.549 5.705-31.492 10.62-44.16 22.09-9.591-13.394-22.925-21.17-36.438-28.688m193.81 4.281c-14.662 6.905-30.462 17.284-43.12 28.19-13.67-11.132-27.737-20.755-43.06-25.594 28.12 1.382 59.27.143 86.19-2.594m654.03 15.03c-.023.106-.02.157 0 .188.03-.037.016-.093 0-.188m-482.03 6.906c0 0-5.418.913-7.156 1.375-23.722 6.304-18.556 39.722 5.844 39.719 2.319 0 8.094-.906 8.094-.906-.461 22.628 6.413 28.15 29.531 26.875l39.19 70.06-579.69-2.5 36.813-58.875c18.513 2.171 30.15-8.127 26.03-23.844 0 0 11.402 3.48 14.594 3.5 20.956.132 26.373-32.03 6.281-37.594-2.235-.62-7.845-1.238-8.531-1.438 9.188-22.949 34.427-9.403 41.656.125 16.272-13.378 34.26-7.389 41.969 9.938 0 0-3.034-1.693-3.969-2.375-19.06-13.94-36.785 14.934-18.12 28.25 1.836 1.31 5.719 2.437 5.719 2.437 0 0-2.268 1.853-4.344 5.344-9.687 16.293 5.911 36.14 24.75 31.03 14.461-5.661 14.669-16.536 14.656-28.5 0 0 4.996.384 9.469.438 17.354.207 22.327-22.02 11.706-32.353-5.738-5.583-13.242-5.147-16.956-5.866 20.01-19.643 33.569-6.086 47.688 2.969 2.136-.051 24.502-26.912 51.09-.531-12.905-3.38-26.12 4.988-26.299 18.425.256 8.645 6.437 16.287 19.806 16.898-1.439 4.339-2.398 7.582-2.476 11.803-.26 14.11 10.702 22.884 24.625 20.719 11.634-1.486 20.237-14.788 16.09-25.844-1.87-4.989-4.438-6.813-4.438-6.813 31.33 3.921 30.785-35.767 6.426-38.17-5.776-.571-10.226 1.934-16.05 7.268 14.328-29.3 40.531-23.419 50.34-11.438 13.46-9.779 32.02-23.13 54.22.656-3.658-.772-8.813-.953-13.283.234-17.573 4.664-17.651 27.01-3.718 33.811 3.919 1.913 8.729 3.02 13.907 2.831-4.635 18.779 16.216 32.19 30.974 23.2 10.575-6.444 13.343-21.659 1.901-35.543 19.259-.862 21.16-24.864 10.03-33.28-8.723-6.599-18.992-3.463-26.438 5.25-2.394-6.891 16.643-30.851 43.531-13.594 14.242-11.94 28.37-15.614 44.531-3.688m8.406 18.75l7.531 13.688c-5.02.497-12.192-4.873-7.531-13.688m-97.19 13.906c4.712 0 8.531 3.82 8.531 8.531 0 4.712-3.82 8.531-8.531 8.531-4.712 0-8.531-3.82-8.531-8.531 0-4.712 3.82-8.531 8.531-8.531m-351.84.5c1.137 4.579 1.635 9.148-6.688 10.03zm852.22 3.969v19.09h15.625l44.12 101.62-42.34 65.969h-17.406v16.969h60.62v-16.969h-17.719l53.875-82.25v82.25h-15.469v16.969h54.813v-16.969h-20v-167.59h20v-19.09h-54.813v19.09h15.469c.376 16.438.472 30.588 0 47.03-7.702 10.277-15.693 22.825-24.16 32.5l-34.06-79.53h22.06v-19.09zm-754.22 4.281c4.315 0 7.813 3.498 7.813 7.813 0 4.315-3.498 7.813-7.813 7.813-4.315 0-7.813-3.498-7.813-7.813 0-4.315 3.498-7.813 7.813-7.813m130.03 2.438c4.574 0 8.281 3.708 8.281 8.281 0 4.574-3.707 8.281-8.281 8.281-4.574 0-8.281-3.707-8.281-8.281 0-4.574 3.708-8.281 8.281-8.281" transform="matrix(.99994-.0111.0111.99994-1082.76-427.97)"/>
  </g>
 </g>
</svg>
