<svg xmlns="http://www.w3.org/2000/svg" viewBox="0 0 744.09 1052.36">
 <g transform="translate(-512.47-760.44)">
  <rect y="1130.72" x="772.9" height="311.81" width="223.23" rx="10.63" fill="#fff" stroke="#000" stroke-width=".997"/>
  <g transform="matrix(.15135-.00169.00169.15135 833.29 1245.65)">
   <path d="m376.57 1111.81c4.138-52.34 1.713-108.61 4.576-151.21-1.589-3.03 4.342-11.231 4.649-11.228-3.397-6.373-4.384-22.612.158-36.957 35.737-130.24 98.96-231.2 163.96-325.29 50.26 157.24-114.26 265.34-150.12 401.85-11.981 47.28-10.635 80.39-15.503 123.16zm-271.51-1.029l-190.92-302.25 42.41-20.06 196.11 321.79zm257.46-553.12c1.62 8.634 8.344 13.336 15.583 9.474 7.089-3.782 7.906-4.03 3.446 2.711-9.848 14.891 9.599 29.625 22.326 16.897 4.524-4.524 5.354-11.96 1.335-15.785-4.54-4.32-5.513-6.543 1.218-3.215 16.922 7.07 26.559-17.412 10.181-25.865-4.221-2.178-12.513-.38-15.663 2.831-3.804 3.878-4.318 2.495-3.282-.534.613-1.792 1.066-4.707 2.521-8.171 1.141-2.718 1.981-6.429 1.981-6.429h-17.369c0 0 1.36 3.994 2.743 7.358 1.302 3.166 1.782 5.528 2.417 6.845 2.288 4.745-.504 2.967-5.156-.575-6.576-5.01-14.905-3.715-19.706 2.722-1.785 3.795-3.289 7.748-2.575 11.747m27.797-243.86l37.35-.693 39.803 113.78c-33.473 54.2-43.02 115.64-5.475 178.44l-118.42-1.129c28.823-93.68 34.22-193.33 46.741-290.4m37.4 147.88c5.062-4.425 5.794-12.544 1.287-18.01-5.667-6.878-4.346-7.211 3.307-2.675 11.04 6.545 21.83-7.225 15.408-19.579-4.079-7.847-17.531-9.723-22.758-2.846-4.357 5.733-3.821.446-.433-7.201 1.245-2.811 3.047-8.097 3.047-8.097l-18.1.17c0 0 2.279 5.149 3.488 8.454 3.206 8.766 3.309 11.531-1.719 5.861-10.942-9.406-23.97-2.823-24.24 10.505 0 10.248 9.213 16.93 17.399 12.231 4.974-2.855 7.199-3.528 1.559 3.093-3.911 6.327-2.624 14.461 2.403 18.327 6.895 4.274 14.331 4.119 19.353-.228m-250.55 32.527c1.465-1.055 1.994-.345 1.087 1.089-.773 1.222-2.741 2.951-4.428 4.786-8.55 9.3 2.245 21.36 15.879 19.665 9.281-1.154 14.882-15.669 8.098-21.501-2.201-1.506-3.937-1.808-5.596-3.854-.125-.811.259-1.354 1.077-1.026 1.203.519 3.648 2.54 4.89 2.892 8.585 2.434 15.13-1.053 17.38-7.108 1.461-7.01.213-14.581-5.488-18.592-5.299-3.642-13.207-2.703-17.879 3.358-4.781 6.203-5.364.243-1.415-8.347 1.48-3.219 2.524-7.812 2.524-7.812l-16.645.698c0 0 .845 3.59 2.263 7.722 3.592 9.437 6.21 12.161 1.543 7.254-20.19-12.196-27.12 4.01-27.526 10.474-.765 12.179 16.901 19.288 24.24 10.303m83.4-182.88l30.02.438c-23.977 120.1-71.48 220.39-150.3 288.9l-146.86-2.087-70.22-50.27 27.726-35.19c186.24 21.286 266.67-70.27 309.63-201.79m-138.23 277.49c8.83-3.778 12.598-13.688 6.859-20.431-5.188-6.096-5.704-7.988 2.317-3.194 10.733 6.414 21.315-6.03 16.16-18.381-3.212-7.687-13.575-10.168-21.11-5.05-6.627 4.832-6.477 2.642-2.956-5.063 1.743-3.813 3.118-9.939 3.118-9.939l-18.404.053c0 0 1.281 4.387 2.587 7.406 2.994 6.919 4.07 10.09 2.644 10.09-.689 0-2.94-2.124-4.257-3.362-3.627-3.407-13.635-4.155-17.393-.644-11.132 10.383-5.134 28.831 8.916 25.596 9.07-2.089 11.18-5.505 3.59 2.92-9.355 10.384 4.788 25.626 17.936 20m-116.03-4.943c7.65-3.503 10.292-12.249 6.096-17.961-4.225-5.75-6.303-9.449 1.267-4.227 10.08 5.213 19.02-1.463 19.02-12.994 0-12.08-13.499-17.862-23.555-10.7-1.699 1.21-3.784 2.293-4.156 2.293-1.218 0 1.068-6.508 3.541-10.757 1.073-1.844 2.969-5.604 2.969-5.604l-18.396-.909c0 0 .974 5.03 2.374 8.898 2.845 7.867 3.534 10.486-1.555 5.981-13.695-13.09-28.64 3.219-22.973 17.503 2.994 8.04 12.437 8.143 18.06 4.204 5.1-3.863 2.457 1.306-1.056 5.404-9.58 11.173 4.124 25.339 18.373 18.87m843.73-292.39l.72 22.272-240.01 195.52-9.802-15.386zm-884.93 31.827c34.509-23.981 73.08-67.3 110.93-89.68 26.757 63.42-38.35 124.58-110.93 89.68m628.54-8.972c-33.12-118.61 129.45-108.93 108.75-84.05zm-772.15-85.84l237.54-189.29 10.517 16.254-250.61 200.68zm647.02-186.41c.641 2.01 7.677 9.74 7.682 10.435-2.02-1.54-14.03-8.449-20.01-1.93-2.089 2.388-4.774 8.123-4.559 14.1 2.354 10.717 14.481 14.624 23.21 7.401 2.512-2.08 4.677-4.611 5.173-3.706.431.787-.969 4.446-2.109 7.342-1.311 2.975-6.122 9.201-2.682 9.233l16.717.156c0 0-.573-3.923-2.525-8.278-3.647-8.138-3.443-12.534 1-6.649 8.655 11.456 25.783 2.174 24.16-11.462-1.175-9.846-11.07-15.58-18.439-10.975-.807.504-3.181 2.806-3.516 2.817-.896.031 1.597-3.693 3.255-6.786 5.51-10.28-2.436-19.942-14.768-19.05-3.983.288-8.368 2.747-8.395 3.103-4.67 3.681-5.503 10.121-4.187 14.253m204.32-94.01c23.311 21.925 46.687 38.07 70.09 52.2l-22.615 34.842c-150.48-15.623-260.68 42.712-308.18 203.65l-24.884 4.501c10.463-100.61 45.32-200.11 146.19-296.59zm-144.63 22.49c-.014 4.775 8.692 10.552 6.727 11.845-.902.468-6.073-4.135-8.469-4.417-17.371-2.042-21.277 24.959-4.077 28.19 3.384.635 10.405-1.393 12.501-3.076 2.784-2.235 4.717-4.078 5.282-3.865 1.051.395-1.408 5.192-3.339 8.742-1.794 3.298-4.318 9.771-4.318 9.771 6.88 1.322 13.532 1.684 19.77.309 0 0-1.728-5.668-3.46-9.993-2.213-5.529-2.655-9.02-1.131-8.637.657.167 1.381 1.894 2.753 3.099 8.483 7.448 21.08 4.446 24.514-7 3.225-10.763-9.576-22.02-18.644-16.08-3.168 2.076-3.155.49.035-4.21 2.914-4.293 2.284-10.852-.271-14.774-9.339-10.134-28.16-3.172-27.875 10.1m141.61 33.604c-.447-2.413.157-1.72 2.66.945 7.836 8.341 21.502 7.214 25.1-3.686 3.59-10.877-6.868-23.485-16.15-19.299-4.829 2.177-4.904 1.387-2.117-2.156 7.185-9.134-.489-21.364-12.64-21.364-11.1 0-17.769 10.616-12.466 19.854 2.172 3.784 1.443 4.578-2.428 2.647-11.297-5.636-22.09 12.221-13.889 22.975 4.82 6.319 16.13 7.105 22.678.957 3.483-3.272 3.436-1.689.857 5.134-2.246 5.943-4.717 10.742-4.717 10.742l19.651.393c0 0-5.137-10.03-6.537-17.14m-423.56 236.81c0 0-28.27-81.52-37.827-120.56 22.2-51.54 52.35-101.39 3.432-176.5l120.89 1.01c-38.29 84.27-41.467 297.97-50.25 298.39zm11.663-94.92c0 0-5.877-8.277-6.168-14.932-.671-4.274.432-4.523 2.603-.149 10.636 12.02 25.339.693 25.523-9.847 1.345-9.63-9.845-18.02-17.14-13.288-5.114 3.317-6.483 2.334-1.886-3.897 6.475-8.776-.345-20.366-11.751-20.366-14.839 0-20.674 13.8-10.15 23.811 7.774 7.395.5 2.996-5.709.313-12.09-5.225-20.19 7.06-14.884 19.604 3.665 8.659 14.683 11.03 21.237 4.124 3.59-3.782 6.894-5.985 4.906-.229-1.058 4.661-6.597 14.505-6.597 14.505zm20.16-129.94c0 0-7.06-9.05-8.218-15.817-.392-2.49 1.362-1.841 5.388 1.694 12.883 11.311 30.974-8.509 18.99-20.874-4.119-4.249-8.34-5.515-13.234-3.03-6.107 3.103-5.603 1.57-2.536-1.676 4.496-4.759 4.264-13.537-.471-17.852-13.09-11.931-34.22 5.395-22.07 18.13 5.289 5.543 2.76 4.802-3.088 1.215-11.06-6.788-23.597 11.331-15.35 22.14 9.823 8.493 17.301 4.452 24.22-.738 1.497-.77 2.791-1.112 2.791-.464 0 1.211-7.04 17.29-7.04 17.29zm-157.99-52.36c-7.369-.574-11.874-69.55-2.615-91.28 20.248-91.84 79.66-158.24 116.81-214.21 59.51-83.32 53.784-222.87 56.21-217.28l8.298 1.059c0 0-7.339 81.69-4.116 118.67 3.419 32.523 2.568 34.534.206 37.728-.648 3.02.163 11.884-.53 14.917-27.41 119.98-91.01 242.94-156.3 335.59zm604.67-203.39l-194.36-314.14 47.588-3.749c17.332 28.15 186.22 296.6 186.22 296.6z" fill="#d40000"/>
   <path d="m-105 1114.01c23.415-82.22-35.398-274.71-73.21-300.19 44.691-1.387 98.41.016 96.76-4.183 0 0 186.63 300.88 185.06 302.45-1.48 1.48-208.61 1.929-208.61 1.929m775.1-459.32c-45.962-7.05-27.382-45.06 2.261-48.7-3.862.599 3.382-18.963 27.342-26.64 5.531-9.77 9.97-26.512 15.02-34.25-14.361 4.491-31.884 16.387-96.78 6.132 6-30.741 68.24-35.3 90.62-30.29 12.916 3.153 25.483 22.588 29.414 23.04 39.987-6.205 90.36 30.468 74.59 66.951-2.439 5.2-8.382-6.3-21.765-11.322-43.25-16.23-46.03-39.765-55.9-50.4-3.623-.722-23.25 37.07-23.25 37.07l5.71 25.879c10.426-.838 56.4 28.28-1.445 47.02-16.544 54.742-46.12 15.649-45.81-4.48m111.82-244.01c-2.433-2.528 2.157-19.576 8.111-29.346 3.216-5.277 10.549-8.761 14.818-7.962 7.606 1.422 6.293 12.487-4.165 44.811-.474 4.675-10.783 5.05-18.764-7.502m-914.2-237.34c-12.633-.184-.921-34.41 6.97-45.23 2.589-3.356 12.591 3.971 13.05 8.953.831 8.925-13.21 39.893-20.03 36.28m-6.363-233.67c15.377 3.891 39.54 19.682 51.08 28.329 14.341 10.952 10.159 32.1 21.706 34.11 7.859-3.777 22.575-38.32 22.575-38.32 0 0 3.795-17.786-6.336-23.389-25.21-13.941-24.592-28.693-22.965-29.987 7.739-19.411 22.671-15.775 30.774-16.77.292-10.672.188-33.21 22.253-30.636 19.3 2.041 20.896 29.665 12.768 29.83-.15-.469 36.593-4.858 35.965 19.341-.341 13.12-22.29 29.664-28.999 23.492 0 0 3.341 26.2-29.637 34.796-7.765 7.732-14.407 40.912-14.375 37.959 20.02-17.671 51.12-21.522 100.03-14.551-30.975 55.92-114.58 28.657-121.02 17.698-42.07-13.206-81.49-30.23-73.812-71.902m362.92-130.81c44.608 4.552 93.61-8.918 130.67-1.083 4.223.624 8.749 6.933 11.281 8.351 19.08 10.686 39.2 7.654 70.23-3.693 7.661-2.802 149.23-.123 149.23-.123 31.719 47.997 88.06 138.25 89.34 135.23 0 0-78.47-1.764-114.65-.026-25.442 1.222-10.532 4.854-28.2 5.422-124.76 91.54-150.54 292.07-150.54 292.07 0 0 39.435-9.909 49.588 1.059 50.22-141.73 143.29-205.67 271.91-191.52 59.44 6.542 129.79 65.848 129.79 65.848l-128.5 102.21c-98.09-50.863-141.99 95.34-112.07 96.04l258.77-206.76c0 0 4.198 17.16 3.752 17.733-18.543 23.759-327.02 268.51-327.02 268.51l-13.257-14.977c0 0-8.516 7.391-13.01 12.326-.529 8.124 2.257 15.05 8.352 21.476-61.1 47.927-64.1 137.07-19.995 186.25 0 0-19.814 1.182-21.899 1.515-25.21 4.03-49.846-120.32.668-177.49-24.611-49.62-39.37-116.92-42.483-120.07.584 7.916-39.776 4.838-39.776 4.838-4.198 100.23-15.757 198.43-40.904 292.9l185.49 6.06-80.51 136.19c0 0-88.6-3.204-126.76-6.298-39.606-23.641-62.786-6.261-100.3 1.91-53.26.97-131.61-2.379-131.61-1.655-25.995-53.09-54.13-92.22-92.45-137.91-4.842-8.274 157.63-1.387 157.63-1.387 0 0 82.61-121.99 97.8-156.54 11.852-26.96 38.859-125.3 38.859-125.3 1.139 5.153-14.468-25.811-51.63-25.528-32.997 203.89-276.45 269.98-421.02 136.91l-1.096-23.765 324.72-257.44 14.11 16.686c-3.048-2.494-199.33 157.18-196.09 156.19 57.31 30.811 124.27 7.133 117.62-91.99 46.04-32.506 86.9-70.51 127.1-109.33.87-1.526 43.28 98.11 41.993 117.18 25.12-8.126 39.741 9.661 39.3 6.645-8.36-57.44 44.28-274.29 45.51-299.28-27.866-2.556-64.859-1.94-122.83-4.887 45.58 90.69 28.718 151.59-37.02 206.42l-13.429-17.263c5.495 3.141 95.95-73.39 25.1-190.02-3.305.24-37.985-3.561-37.985-3.561 0 0 72.43-112.13 76.21-128.07m349.92-368.81c0 0 203.16-2.618 203.16 3.336-7.698 109.05 16.626 208.86 76.983 301.6 0 0-89.92-4.19-88.29-3.041z" fill="#e2cf00"/>
   <path transform="matrix(.99994.01113-.01113.99994-3049.72-712)" d="m3920.83 104.59l-1055.94-1.295 6.552 1694.8h1054.64zm-96.58 6.719c-.085-.092-13.613 179.29 79.984 296.78-57.18-8.662-89.91.101-123.2 23.621l4.557 4.691c45.851-28.17 84.69-20.759 124.49-16.371l-1.084 230.78c-.284 11.206-46.517 6.202-75.75-15.781-13.882-8.195-31.786-25.402-39.813-38.31-2.441-3.927-5.01-7.808-5.719-8.625-2.684-3.092-19.361-34.16-49.969-92.97-15.562-29.903-36.14-70.7-52.844-102.31-10.816-20.468-30.926-59.14-32.34-62.22-2.958-6.428-24.853-49.14-33.375-64.69-22.511-41.06-58.857-112.69-71.822-138.37-2.865-6.663-7.226-9.734.581-9.517 1.734.042 3.464.149 4.461.386 1.375.686 3.045-2.359 3.045-2.359zm-940.25 970.44l-.668-18.15 306.87-253.09 9.792 12.599zm296.5-443.31c-1.231.454-2.58.918-4.058 1.387-7.887-35.14-3.39-82.1 5.903-117.4 13.536-49 38.813-88.31 66.954-127.8 64.33-90.19 92.82-158.18 91.67-279.34l9.195.979c-.388 19.14-2.919 33.531-3.659 58.995-1.152 27.29-.696 48.03 2.206 74.67 1.426 13.09 2.282 21.578.078 23.281-1.05.854-2 5.384-1.038 7.05-.154 3.634-.648 10.89-.648 10.89-14.734 72.14-93.74 257.1-166.6 347.28m38.37 163.99l-16.258-19.951c0 0-12.508-10.08-1.267-21.48 32.488-32.944 32.705-74.819 1.297-112.48-2.111-4.782 9.758-28.939 9.758-28.939l24.726.407c38.566 46.924 49.09 129.83-18.255 182.44m22.723-186.21c.77-3.211-36.641-1.971-36.641-1.971 23.24-34.637 43-70.27 62.42-105.99 30.13-54.07 71.904-148.81 84.998-217.48 9.751 80.31 23.932 199.52 92.66 204.22 22.535 1.542 48.631-13.899 52.885-11.346l142.78-1.131c29.28 59.37 60.742 97.62 97.99 138.23 26.769 15.264 59.42 27.347 90.97 35.19 17.924 4.453 19.645 1.489 55 6.531 9.332 1.331 23.549-2.612 23.406-2.612-28.25 22.282-60.834 15.969-96.72 6.428-2.01-.534-4.115-1.155-6.213-1.897l-27.1 40.768c-60.32-14.295-253.97-4.175-305.02 206.37 0 0 5.248 2.677 4.02 1.225 40.547-182.75 211.81-219.18 293.46-200.98l-7.02 10.717c-135.48-16.569-245.78 68.16-272.05 188.32l2.615 2.372c50.838-181.67 264.55-248.89 397.04-122.96l24.303-17.208-.785 23.292-325.75 272.92-13.03-13.473c0 0-2.294 1.737-4.891 3.9-8.404 6.996-11.722 8.705-9.366 12.611 2.356 3.905 11.494 12.702 11.893 13.687-54.03 44.03-71.17 128.93-19.835 188.39 5.729 6.301 4.688 7.994 3.639.897-46.06-50.12-40.22-138.76 17.202-180.76l11.572 15.16c-25.28 55.51-38.765 142.09 27.712 149.58 23.817 63.822-3.584 139.44-34.17 190.14-32.413 58.4-71.69 106.94-96.22 170.55-11.916 26.541-30.88 105.26-29.88 165.42l-7.145-.073c-.0001-24.548 1.631-53.655 1.832-72.26 1-90.72.869-85.34 2.91-87.64.675-.764 2.578-1.57 2.758-2.207.271-.955-1.485-2.835-2.175-5.05-.708-2.273-1.91-6.267-1.79-9.627.12-3.361 3.272-8.262 2.671-9.355-14.299-50.06-15.474-140.04-61.63-181.37-22.633-19.437-52.698-20.221-91.63-4.274-85.92.153-73.18 4.569-142.57.608-28.707-52.55-63.52-103.74-101.18-141.7-17.606-19.633-42.08-30.388-65.1-44.616 9.231-17.511 19.705-30.32 31.15-38.627 2.378-3.386 3.992-7.04 7.06-9.908 233.97 22.479 284.71-204.11 274.03-198.35l-2.073 1.796c-63.967 233.46-291.61 224.96-406.04 124.03 0 0-16.17 14.04-16.221-1.368-.048-14.01 5.066-18.07 5.066-18.07l321.17-261.9c5.869 3.738 12.195 16.184 14.828 14.789 5.917-3.144 14.634-9.458 14.365-13.221-.206-2.892-11.743-21.07-11.743-21.07 85.92-88.95 47.16-128.69 19.585-189.65m121.75-499.94c1.547-.011 3.01.722 4.094 2.438 1.958 3.091-5.838 21.13-10.656 24.313-4.559 3.01-4.892-.488-1.594-17.938.967-5.116 4.751-8.788 8.156-8.813m471.25.313h74.4l.547 285.71c-55.59-78.14-83.75-168.12-74.95-285.71m-451.28.688c1.857-.083 3.494.432 4.03 1.781 1.908 4.812-9 25.623-22.5 42.875-7 8.948-10.535 11.542-12.719 9.406-1.845-4.073-1.79-8.809 4.656-16.25 5.315-6.134 14.367-20.477 18.1-28.508 1.609-4.708 3.213-8.967 8.433-9.304m76.39 1.021c2.167.019 4.394-.016 5.02 1.01 12.983 26.485 37.443 50.39 62.47 63.16 3.649 2.071 1.927 7.268 3.156 10.916-28.11-4.177-65.01-44-74.875-73.07-.053-2.106 2.06-2.03 4.229-2.01m43.958-.021c5.594 5.68 14.394 12.545 16.375 19.03 1.217 3.977 2.106 8.542 1.25 10.688-4.884 3.053-29.16-25.1-28.22-28.396 3.085-2.028 6.962-2.458 10.594-1.323m-105.25-.406c2.386.092 6.03-.043 6.563 1.75 3.03 12.282-25.01 60.13-45.47 73.69-7.27 4.818-7.738 3.552-7.156-4.531.39-5.433.912-5 8.375-12.12 10.654-10.174 22.287-25.868 28.687-39.781 8.208-17.839 6.201-18.959 9-19m19.03.187c2.669.004 5.157.907 5.844 2.094.932 1.606-.317 4.214-1.187 7.438-9.239 26.15-32.21 63.781-59.19 85.16-10.49 8.089-12.269 8.04-13.03-.313-.443-4.855 1.787-6.27 6.719-9.688 22.888-15.868 43.45-43.41 52.16-71.53 1.695-5.478 1.05-10.396 4.03-12.06 1.381-.771 3.055-1.096 4.656-1.094m142.03 45.31c1.095 1.878 8.947 14.155 2.531 9.531-2.633-2.16-7.415-7.601-15.03-16.25-18.01-20.451-18.553-19.18-18.2-24.271.177-6.628-4.565-17.506 5.679-14.684 10.07 11.832 16.4 30.912 25.02 45.674m-82-44.906c2.04-.036 4.457.344 6.469.75 11.86 22.296 40.811 41.871 40.698 41.771 0 0 .73 9.701-.323 11.416-.603 2.99-45.983-31.489-51.03-52.12.483-1.33 2.145-1.777 4.188-1.813m-32.3.407c10.655 19.573 32.64 63.993 84.3 81.937 3.714.809 7.672 11.38 4.826 14.29-28.324-8.212-79.7-35.943-97.15-95.96 1.699-1.596 6.216-1.35 8.03-.27m-13.872 3.802c-1.772.03 24.391 75.53 98.92 98.04 6.445 2.02 10.223 4.81 9.812 8.625-.515 4.808-.36 5.406-7.531 1.813-20.331-10.62-49.31-15.592-73.51-3.294-3.776 1.919-7.608 7.154-4.567 10.452 1.736 1.676 6.01.43 11.455-1.69 28.17-10.963 71.29-4.515 78.906 12.719 5.408 12.233 6.328 21.249 3.375 22.75-2.254 1.146-6.078-2.966-12.812-8.875-21.435-18.805-47.06-24.04-67.44-5.969-4.409 3.91-8.774 3.234-10.312 4.844-1.494 1.562.279 5.073 1.531 8.5 1.31 3.586 1.366 4.565.062 7.594-1.785 4.147-1.852 9.456-1.656 13.406.48 9.63 6.854 17.924 25.19 30.625 14.281 9.894 25.446 15.455 8.06 1.375-30-24.303-35.447-34.2-16-25.781 19.417 7.804 46.34-.019 65.41-14.563 6.491-.109 10.352-1.242 13.771 1.25 14.22 33.383 25.847 77.81 44.751 120.87-22.573 25.507-101.18 87.971-157.22 85.74-48.39-1.924-65.48-81.12-76.18-124.89-3.601-18.521-7.716-37.37-7.219-63.53 0 0 .877-.704 2.125-.469 8.114 1.532 22.07 2.594 29.16.938 12.878-3.01 15.465-5.303 16.219-3.406.887 2.238-4.474 7.273-13.844 13.688-4.075 2.79-15.938 8.507-14.688 9.344 2.835 1.896 17.188-5.741 19.594-7.781 3.754-3.181 6.329-3.381 8.125-1.625 2.104 2.056 2.537-.134-4.406 17.09-7.651 18.986-6.918 20.708 8 32.406 5.188 4.068 9.928 8.131 11.06 9.906 1.431 2.333 2.4 5.084 3.063 5.969 2.523 3.372.975-2.058-.531-10.688-1.741-6.386-8-12.728-12.438-15.813-8.142-5.662-6.881-11.216-.138-30.5 19.886-56.872 14.815-82.24-7.08-94.59-9.872-5.571-37.516-4.084-46.23 3.198-4.292 3.587-3.706-3.456-3.02-3.926 52.52-36.1 64.842-70.54 78.24-103.75m101.38 27.866c14.907 14.795 33.46 34.888 44.634 49.18 6.136 7.619 9.368 15.435 14.25 23.438.928 1.45 1.847 3.106 1.188 3.781-.247.287-2.381-.953-3.563-1.844-10.926-8.234-56.03-59.6-56.03-59.6-2.082-8.433-3.528-11.308-.478-14.954m8.915 34.863c0 0 39.08 42.67 61.47 63.66 4.406 9.247 12.839 22.567 12.625 24.813-.094.991-4.781-2.625-4.781-2.625-24.74-22.792-47.595-48.41-71.34-72.69.225.128-1.879-10.05-1.906-14.156.54-2.01 2.913.207 3.938 1m84.78 109.37c5.258 8.557 9.09 16.219 11.625 21.25 4.175 7.967 2.778 8.193-.906 5.25-27.963-22.886-51.38-50.749-77.72-76.28-3.421-3.521-10.25-11.344-10.25-11.344.243.283-8.582-18.4-3.041-18.02 4.332 1.686 7.181 6.395 9.978 9.39 13.811 14.791 40.12 40.21 70.31 69.76m-243.94-60.99c11.53-.346 22.894 2.635 28.625 9.708 5.215 6.435 7.321 16.616 4.429 19.574-1.805 1.846-8.21-3.355-8.21-3.355-27.16-15.238-36.513-7.898-51.25-3.427-2.102.638-4.336-5.03-1.646-10.633 5.408-9.316 19.12-11.598 28.05-11.867m170.91 14.427c29.05 29.13 58.56 61.48 90 86.53 4.405 3.755 7.43 6.166 9.437 8.188 4.15 8.226 13.697 27.808 13.697 27.808-33.689-23.553-109.58-104.76-108.74-104.22.76.38-6.353-14.858-4.393-18.31m-56.864 4.823c5.305-.05 11.12 1.616 15.707 3.435 14.638 5.807 23.85 11.993 8.688 9.93-21.1-2.87-28.31-3.02-36.03-1.781-14.347 2.305-15.466 3.903-16.719 1.625-3.291-5.982 12.439-13.06 28.355-13.209m-119.76 1.709c5.287-.033 11.03 1.135 16.656 3.594 17.895 7.824 21.05 12.919 5.813 10.469-7.905-1.272-22.404-1.142-32.781 1.531-3.291.848-6.93 2.76-7.781 3.03-3.681 1.176-4.699-1.573-3.125-6.188 2.72-7.972 11.123-12.375 21.22-12.438m129.55 22.831l3.693.27c-4.614 26.14-30.716 23.586-37.744 1.139l3.693-.082c13.749 21.466 24.03 8.84 30.358-1.327m14.543 1.356c12.06-.134 11.282 7.109-1.281 11.969-9.629 3.725-10.715 3.053-7.187-4.156 3.389-6.931 3.042-7.752 8.469-7.813m-124.28.941c1.177 23.548-31.634 27.864-33.648 2.184l3.12-.153c10.752 20.19 23.17 8 27.05-2.03zm14.594 3.215c3.713 2.536 1.408 6.02-6.656 10.938-7.275 4.526-9.148-.946-3.151-8.535 2.518-2.448 6.652-4.471 9.807-2.402m56.906-.031c1.435-.453 4.837 5.915 1.938 7.438-1.725.905-4.275-1.7-4.563-3.625-.226-1.523.736-3.216 2.625-3.813m98.25 1.469c21.896 24.12 43.94 48.34 108.41 100.84 0 0 9.108 16.199 11.09 22.531-1.566 1.931-2.386 1.71-6.906-.531-42.04-32.458-81.13-71.934-111.75-108.62-1.454-5.18-4.698-10.176-.844-14.219m-208.75 2.406c2.486-.084 5.995 5.472 4.063 8.813-1.6 1.255-4.078-.692-5.156-2.219-1.071-1.516-1.039-4.301-.375-5.531.388-.72.896-1.043 1.469-1.063m217.91 33.406c-.172-.841 101.83 102.54 114.91 100.56 6.095 3.585 21.25 32.969 21.25 32.969.435.931.366 2.655-2.094 1.438-17.241-8.531-89.33-68.35-126.19-112.87-2.695-6.485-5.959-14.725-7.875-22.09m-121.24 15.181c17.785 8.594 10.133 26.21-8.636 15.01-14.793-8.99-26.524-9.806-26.438-2.031.037 3.288 4.066 7.512 7.969 7.469 7.313.47 13.938 3.147 21.12 4.719 11.21 2.406 19.593-.57 22.399-7.373 4.763-11.547-6.561-24.15-14.02-23.478-7.462.67-5.584 4.245-2.396 5.688m140.83 28.26c-1.246-1.09 50.718 55.845 121.56 102.87 2.749 3.174 9.594 19.598 10.687 21.813-.282 1.547-1.844.031-1.844.031-35.778-20.684-83.01-61.701-127.75-108.25 0 0-4.304-10.319-5.625-17.03.971-.448 2.029.138 2.969.563m-118.03 20.5c-1.616.223-3.771 2.657-6.438 4.125-5.449 3-7.172 3.798-20.563-.219-7.264-2.179-8.441-2.026-12.781 1.188-3.792 2.807-5.895 3.271-10.125 1.375-7.612-3.412-11.139-.931-18.19 1.531-6.713 2.428-9.02-.53-15.06-1.906-.798.009-1.141 24.377-.344 25.16.277.271 6.284-3.674 9.688-5.406 5.855-2.98 5.02-2.507 13.563-2.156 12.618 2.177 25.11 1.443 33.563-1.875 10.518-2.974 18.737-2.42 26 3.531 4.411 3.614 10.263 3.02 6.844-3.625-1.181-2.297-3.853-10.759-3.531-13.906.481-4.706-.564-7.718-2.313-7.813-.103-.006-.205-.015-.313 0m134.75 19c23.916 22.935 53.41 57.939 122.78 98.5 3.615 6.333 8.5 14.747 11.594 21.313.283 1.819-.164 3.439-1.938 2.811-42.869-27.17-66.7-40.37-126.12-98.94-3.694-5.938-7.629-16.04-10.688-24.281.646-2.324 3.393.003 4.375.594m-10.09 8.75l26.531 49.813-89.34-.188c22.705-13.532 44.38-31.569 62.812-49.625m-148.09 1.125c-14.67 5.831-16.887 7.04-31.438 3.5-8.478-2.065-6.152 2.849-1.813 4.882 10.978 5.142 26.88 1.512 32.774-2.553 3.889-2.506 6.55-8.243.476-5.828m-15.06 15.375c-15.364.216-29.858 5.571-30.938 11.813-.209 1.206 1.048 2.563 3.438 1.125 10.411-6.268 36.26-8.312 55.813-1.25 3.167 1.144 3.715-.825.438-3.531-7.316-6.04-18.238-8.304-28.75-8.156m195 21.281c28.919 26.69 56.829 51.24 119.07 86.972 4.48 9.776 10.963 21.471 12.1 22.488-58.33-28.312-121.9-84.19-121.9-84.19 0 0-10.01-17.823-12.302-25.46-.208-2.576 2.216-.456 3.03.188m19.916 41.581c0 0 53.25 45.04 113.96 75.61 2.46 2.362 8.57 16.852 10.563 18.406 2.01 1.569-2.409 1.564-6.781-.688-31.771-14.634-99.91-61.47-99.91-61.47-6.538-10.71-15.893-21.854-17.834-31.857m-637.28 188.19c4.87-10.415 9.838-22 13.06-31.457 14.497.152 21.624-5.283 26.768-11.826 7.345-.201 12.966-.172 22.971-.46-.327-9.893.125-23.893.125-23.893 10.144-10.442 17.02-22.503 1.299-40.958 0 0-.633-8.601-.862-23.273-7.246-1.154-23.495-.407-23.495-.407-13.13-18.485-36.433-13.826-43.497-.008 0 0-10.469.575-17.653.603-.148 3.91-1.386 21.236-1.386 21.236 0 0-30.621 20.883 1.147 45.49l-.429 20.677c5.945.478 10.206.078 17.961 1.566 0 0-12.152 28.22-20.14 41.611-2.732.718-2.081-.853-5.386-10.209-3.974-11.03-12.963-23.09-20.589-29.03-10.337-7.974-24.479-10.449-34.34-17.375-9.51-6.677-16.226-15.291-19.25-13.688-.984 3.353-2.077 22.619 1.5 35 5.04 20.365 34.34 33.35 58.813 43.09 1.882 1.216 3.555 3.055 3.563 3.719.037 3.369-3.219 2.332-11.25 1.531-12.133-1.209-17.15 2.108-21.406 12.469-1.273 2.555-4.295 6.958-6.75 9.875-2.453 2.917-5.02 5.761-5.375 7-.356 1.239-2.878 7.528-5.375 12.781-1.536 3.235-4.095 6.625-4.281 11.406-.57 14.596-.787 34.2 1.406 46.563 1.613 9.08 13.08 14.294 17.03 15.03 6.06 1.132 7.169 7.28 6.219 12.313-4.673 24.81-18.957 39.995-23.531 31.844-1.203-2.144-2.476-12.283-2.813-12.156-.219.082-2.393 8.622-1.563 12.09.894 3.736 5.668 6.487 10.375 4.781 6.981-2.53 12.476-9.448 16.813-25.19 1.774-6.439 3.453-10.03 6.469-10.5 5.518.38 14.12 11.75 14.12 11.75-28.658 23.878-83.82 67.23-83.82 67.23l-2.057-782.23 454.05.882c2.528 62.01-4.999 114.18-27.27 169.43-26.39 59.51-67.34 103.74-98.68 158.51-37.836 66.13-49.95 134.72-37.06 203.72-38.657 50.6-71.22 74.889-102.14 98.4 0 0-23.18-24.369-36.06-38.01 0 0 5.433-.45 11.787-.707 29.372-3.294 61.16-7.456 73.44-38.03 1.749-3.399 1.014-4.906-1.063-5.375-22.997 3.188-42.979-.047-56.02.875-31.893 2.254-45.37 13.306-45.37 13.306m3.503 22.51c0 0-36.903-17.539-39.641-18.03-16.09-2.916-54.884-23.13-61.44-36.875-.855-1.793-3-26.866-3.688-32 .235-1.636.891-1.58 2.5-.406 4.144 2.857 20.221 13.335 26.16 16.219 24.512 11.909 33.999 20.391 40 38.31 1.506 4.49 3.078 9.162 3.969 10.125 1.963 2.121 2.791 1.943 5.25.063 10.502-13.591 15.418-24.911 20.282-39.5.631-1.626 1.998-3.289 1.192-5.643-1.918-6.441-6.628-14.783-1.811-21.09-15.358.703-30.06-10.519-28.18-21.761 4.09-20.83 12.932-17.07 29.491-20.11-1.914-48.17 43.18-36.473 43.06-2.921 49.53 4.17 26.13 49.976-2.648 42.97 11.412 26.03-22.87 35.791-27.687 31.364-1.936 8.41-14.989 35.495-17.769 43.546 36.703-26.01 95.76-14.466 104.31-16.14-21.325 44.595-91.04 33.74-93.35 31.874m660.89-164.19c9.321 7.176 88.35 56.6 102.94 57.719 0 0 6.983 7.839 12.75 14.969 5.372 6.644 7.349 7.689 7.969 9.03.616 1.334-2.026 1.268-2.469 1.219-35.554-15.455-71.73-31.717-102.47-57.41-4.151-3.521-5.082-5.126-7.125-7.813-2.709-3.586-10.75-16.383-11.594-17.719m26.19 39.87c36.15 20.313 66.87 40.01 99.81 50.599 4.697 1.761 7.096 1.88 9.438 3.531 2.339 1.652 12.378 7.86 14.75 9.25 15.03 8.814 16.569 8.397 12.844 9.875-4.127 1.637-30.517-6.07-52.813-14.313-39.551-14.621-53.54-22.915-67.844-35.813-3.222-3.336-18.249-21.305-16.183-23.13m-720.63 113.29c3.049-.069 7.921 1.826 13 5.719 5.432 4.164 18.773 12.886 24.281 15.25 2.818 1.209 3.697 1.519 3.697 1.519l35.547 40.35-91.52 74.4c0 0-7.429-7.601-9.795-10.143-2.235-2.401-1.592-4.403 1.196-7.125 2.237-2.184 2.407-6.925 2.031-9.25-.557-3.449-.469-7.342 3.906-10.563 3.527-2.597 4.075-7.146 3.906-8.406-.135-1.01 1.91-4.332 4.969-6.563 6.423-4.684 8.358-10.382 6.188-17.09-.909-2.81-1.399-3.545 2.281-6 6.535-4.358 8.163-8.477 8.656-14.844.078-1.01-.192-2.078-.344-2.875-1.289-6.77 4.686-5.056 9.594 3.438 2.676 4.631 3.439 12.23 4.781 20.875 1.581 10.193 2.663 12.971 3.219 11.531 3.173-8.226-.571-39.12-9.969-43.31-13.739-6.129-25.22-18.625-21.781-23.531 1.193-1.7 1.402-1.117 9.781 2.75 4.905 2.264 9.445 4.104 10.125 4.125 9.695.307 3.813-3.844.656-4.281-3.794-.526-15.14-7.424-16.469-9.844-2.212-4.02-.989-6.06 2.063-6.125m-23.406 5.313c8.941-.1 10.657 2.298 10.75 10 .055 4.544 1.751 8.04 8.875 17.09 2.904 3.69 4.845 6.521 4.656 7.969-.314 2.388-1.177-.087-11.03-1.25-3.498-.413-5.276-.471-6.5 1.344-3.394 5.03-10.579-.21-15-7.625-10.541-17.679-6.824-27.364 8.25-27.531m170.39 10.657l97.3 119.08-10.976 8.522-97.66-117.46zm-16.268 7.311l10.421 17.596c0 0-30.15 25.759-38.08 33.03-64.05 51.87-208.65 169.62-208.65 169.62l-1.945-23.68zm-175.62 3.188c1.9.048 4.074 2.453 7.156 7.156 2.67 4.077 8.395 12.253 14.5 17.875 11.856 10.922 13 9.931 3.375 10.969-3.825.412-5.073-.045-7.406 5.781-7.06 8.807-27.918-22.741-23.03-34.813 1.91-4.713 3.506-7.02 5.406-6.969m33.938 17.03c1.759-.085 4.075.578 6.781 2.219 5.165 2.118 5.507 3.352 4.656 8.281-.814 4.717-4.406 5.939-11.469-.281-5.367-5.05-4.463-10 .031-10.219m155.3 2.915l11.432 14.758-259.49 209.84.061-24.15c6.326.815 172.72-143.77 248-200.44m-201.24 2.397c.693-.145 1.777 2.233 4.656 6.563 5.859 8.815 11.239 14.626 17.375 19.25 5.8 4.372 6.45 6.814 2.469 6.844-1.7.013-4.03 1.804-5.25 3.906-2.455 4.223-2.67 3.223-6.469 1-5.426-3.174-10.864-7.966-13.03-14.25-2.042-5.921-2.269-14.93-.594-21.5.292-1.147.529-1.747.844-1.813m40.969 16.75c6.613-.229 11.372 7.464 7 13.688-2.431 2.37-4.626 3.509-9.469.656-6.392-3.765-7.548-9.564-2.313-12.813 1.633-1.013 3.256-1.478 4.781-1.531m-42.562 16.656c1.391-.064 3.894 1.941 8.094 6.25 3.223 3.307 8.821 6.125 11.06 7.375 5.03 2.803 5.264 3.779 2.531 6.03-1.164.96-4.992 1.023-6.03 4.063-2.974 8.698-15.581-1.408-16.781-13.844-.611-6.313-.665-9.793 1.125-9.875m31.687 1.031c8.276.345 12.187 10 5.594 14.75-3.594 2.588-12.654-1.981-13.563-6.719-.585-3.051 4.822-8.162 7.969-8.03m193.49 7.177c4.8 0 8.687 3.887 8.688 8.688 0 4.8-3.887 8.688-8.688 8.688-4.8 0-8.687-3.887-8.687-8.688 0-4.8 3.887-8.688 8.687-8.688m-25.969 3.594c4.8 0 8.688 3.887 8.688 8.688 0 4.8-3.887 8.688-8.688 8.688-4.8 0-8.688-3.887-8.688-8.688 0-4.8 3.887-8.688 8.688-8.688m-174.03 11.604c.527-.03 1.084-.028 1.656 0 7.972.389 8.396 7.977 3.656 12.06-2.833 2.44-5.398 3.212-9.06.281-6.547-5.237-4.125-11.899 3.75-12.344m193.37 12.709c4.8 0 8.688 3.887 8.688 8.688 0 4.8-3.887 8.688-8.688 8.688-4.8 0-8.719-3.887-8.719-8.688 0-4.8 3.919-8.688 8.719-8.688m762.72.51l.409 21.97-306.82 255.22-10.379-13.555zm-780.36 1.874l-22.68 50.938-6.814-13.13-16.963-.009 5.204-15.193-9.988-12.152zm482.83 211.86l40.37-32.368c-17.38-87.69 51.997-122.58 117.88-97.11l40.992-34.938c-76.06-64.05-254.93-20.602-199.25 164.41m-546.19-171.39c4.8 0 8.688 3.887 8.688 8.688 0 4.8-3.887 8.688-8.688 8.688-4.8 0-8.688-3.887-8.688-8.688 0-4.8 3.887-8.688 8.688-8.688m-26.375 2.125c4.8 0 8.411 3.611 8.411 8.411 0 4.8-3.611 8.995-8.411 8.995-4.8 0-8.688-3.919-8.688-8.719 0-4.8 3.887-8.688 8.688-8.688m140.37 17.639l-40.03 32.05c10.343 83.962-30.502 126.72-118.31 97.93l-42.468 33.689c114.73 78.915 264.88-22.808 200.8-163.67m-123.19 7.58c4.8 0 8.688 3.887 8.688 8.688 0 4.8-3.887 8.688-8.688 8.688-4.8 0-8.688-3.887-8.688-8.688 0-4.8 3.887-8.688 8.688-8.688m842.01 2.202c4.8 0 8.719 3.887 8.719 8.688 0 4.8-3.919 8.688-8.719 8.688-4.801 0-8.686-3.887-8.688-8.688 0-4.8 3.886-8.688 8.688-8.688m-859.98 2.077l-25.591 50.623-6.375-15.243-17.18.237 5.549-17.671-10.745-9.08zm825.61 5.329l7.957 13.393 16.8.409-6.32 12.747 12.133 12.504-54.736 13.448zm-886.67 36.762c4.8 0 8.718 3.887 8.719 8.688 0 4.8-3.919 8.688-8.719 8.688-4.8 0-8.688-3.887-8.688-8.688 0-4.8 3.887-8.688 8.688-8.688m-25 .969c4.8 0 8.718 3.887 8.719 8.688 0 4.8-3.919 8.688-8.719 8.688-4.8 0-8.688-3.887-8.688-8.688 0-4.8 3.887-8.688 8.688-8.688m869.35 5.165c4.8 0 8.688 3.887 8.688 8.688 0 4.8-3.887 8.688-8.688 8.688-4.8 0-8.688-3.887-8.688-8.688 0-4.8 3.887-8.688 8.688-8.688m87.88 1.345l.381 19.292c-80.05 70.66-248.39 207.03-248.39 207.03l-10.475-13.452c0 0 171.27-139.95 258.49-212.87m-939.82 18.818c4.801 0 8.687 3.887 8.688 8.688 0 4.8-3.887 8.719-8.688 8.719-4.8 0-8.687-3.919-8.687-8.719 0-4.8 3.887-8.688 8.687-8.688m869.72 2.087c4.8 0 8.687 3.887 8.687 8.688 0 4.8-3.887 8.719-8.687 8.719-4.801 0-8.686-3.919-8.688-8.719 0-4.8 3.886-8.688 8.688-8.688m-24.594 1.563c4.8 0 8.688 3.887 8.688 8.688 0 4.8-3.887 8.719-8.688 8.719-4.8 0-8.717-3.919-8.719-8.719 0-4.8 3.919-8.688 8.719-8.688m97.11 3.078l-.728 24.558c-77.57 66.13-236.24 197.5-235.69 197.57l-11.986-16.547c0 0 173.93-149.82 248.41-205.58m-958.19-3.609l-23.933 53.99-10.327-14.536-15.11-1.027 3.597-14.605-13.872-9.432zm829.84 21.327l15.279-2.903-2.666 15.639 10.738 11.274-56.29 12.369 27.21-50.46zm84.1 263.03c11.412 17.07 10.688 35.717 5.911 38.574-5.03-2.834-9.408-7.758-14.619-10.01-26.23-11.311-47.16-20.598-50.908-37.23-14.282-37.634 50.11-5.534 59.62 8.665m-137.83-99.97l88.23-71.83c0 0 13.525 6.971 16.08 10.138.912 3.484-1.527 4.554-5.123 7.799-1.652 2.116-2.685 4.15-2.778 8.728-.1 4.93 1.526 7.139-.466 9.313-3.325-.172-5.982 4.17-5.84 7.686.108 2.684-3.402 5.656-5.459 7.678-3.649 3.587-4.718 4.333-7.06 16.491-.235 1.216-.154 4.38-1.869 6.02-5.101.457-8.8 12.944-11.125 13.737-3.723-.239-9.641-4.79-11.08-11.513-.938-4.369-.684-12.857.349-18.322 1.23-6.508 1.786-12.405 1.375-13.969-.952-3.624-3.348-1.398-3.313 3.688.015 2.067-.782 8.26-2.094 14.09-1.314 5.851-4.881 13.619-3.276 18.231 2.393 6.878 11.2 9.787 15.171 13.427 10.446 9.575 12.719 14.248 13.906 16.373 8.354 15.27 8.379 17.872 6.287 29.361-1.204 6.613-7.651 5.486-11.53 2.8 0 0-24.809-18.05-35.605-27.02-16.355-13.584-27.838-27.466-34.775-42.905m33.478 49.37c9.463 3.829 34.1 21.707 34.1 21.707l-22.439 46.682c4.086 7.314 5.731 25.468 5.731 25.468 28.383-2.173 43.755 45.665-.448 41.25 5.04 29.569-42.591 52.744-41.29-.249-49.616 3.854-32.954-52.35-2.38-41.807-.916-23.818 14.963-26.904 26.16-32.754 9.184-10.388 14.815-33.903 14.815-33.903l-2.237-7.174c-9.411 16.439-49.47 21.16-93.5 12.438 11.92-28.24 48.08-27.442 81.48-31.655m-87.55 35.536c-1.497 5.626-1.536 5.562 5.25 4.875 3.434-.348 17.235-.32 26.867.062 17.711 1.381 45.595 1.505 59.58-9.153 2.706-2.58 4.194-2.406 4.7-.993 1.195 6.881-12.387 29.52-12.387 29.52l-22.417 12.392c0 0-9.175.43-20.544.156l-.199 20.17c-8.909 5.265-24.19 27.834.373 45.14l-.81 21.962 21.654.398c14.372 13.754 26.07 13.692 39.26.737l24.967.02-.098-23.722c12.308-9.893 14.06-26.681 1.477-40.09l-.309-24.07-19.213.122c0 0-3.974-3.076-4.085-5.521-.014-1.581 14.03-28.633 16.714-32.498 3.493-5.02 2.545-2.15 8.131 9.443 7.995 16.591 15.903 23.357 36.17 33.15 18.08 8.741 24.541 12.822 29.785 17.827 4.175 3.985 6.638 2.73 8.25-3.219 3.487-13.229 2.414-26.47-4.872-38.579-15.379-25.561-42.17-26.74-46.43-32.654-.559-1.409 4.895-3.039 10.756-5.659 10.142-6.161 24.982-24.796 26.889-32.27-.347-3.606 2.036-14.959 3.789-17.473 2.02-4.463 2.247-6.547 2.156-18.531-1.814-6.839-.162-15.744.687-18.813.92-6.219-2.383-13.547-7.079-22.542-1.759-8.352-1.351-6.18 4.054-24.998.88-3.041 6.956-29.26-.819-31.05.096.233.814 1.037 1.031 1.469 1.308 2.629 2.027 13.95.844 17.16-.468 1.271-1.352 4.554-1.969 7.313-4.712 21.06-7.494 26.348-11.756 21.744-1.015-1.099-4.907-2.663-7.9-4.65-5.654-3.752-5.172-5.595-3.781-12.625.341-1.068 2.581-10.732 2.344-10.438-1.223 3.324-2.045 11.895-5.906 13.906-2.07.482-4.927-1.36-10.313-6-2.056-1.772-6.462-4.864-6.462-4.864 0 0 63.765-53.667 87.47-71.46l-.208 794.85-450.7.193c-5.639-49.23 9.165-114.37 33.682-179.62 15.15-40.32 36.917-70.23 61.46-106.33 47.05-68.828 82.64-138.71 68.922-227.3-1.792-13.148-3.601-19.446-2.982-22.983 5.717-10.729 28.404-43.26 44.987-56.811 24.334-19.877 58.19-49.574 60.908-47.813 8.08 15.589 17.651 28.21 30.32 37.727 2.229 2.42 2.287 4.546-2.856 5.626-33.593-.303-68.17 7.08-79.39 36.791m-782.63-225.82c4.8 0 8.688 3.887 8.688 8.687 0 4.801-3.887 8.687-8.688 8.688-4.8 0-8.688-3.886-8.688-8.688 0-4.8 3.887-8.687 8.688-8.687m842.56 1.969c4.8 0 8.688 3.887 8.688 8.688 0 4.8-3.887 8.688-8.688 8.688-4.8 0-8.688-3.887-8.688-8.688 0-4.8 3.887-8.688 8.688-8.688m18.928 23.833c4.802 0 8.686 3.887 8.688 8.688 0 4.8-3.886 8.688-8.688 8.688-4.8 0-8.687-3.887-8.687-8.688 0-4.8 3.887-8.688 8.687-8.688m-28.12 3.698c4.8 0 8.688 3.887 8.688 8.687 0 4.802-3.887 8.686-8.688 8.688-4.8 0-8.688-3.886-8.688-8.688 0-4.8 3.887-8.687 8.688-8.687m-31.04 19.799l15.712-.775c-1.971 5.64-3.03 11.469-4.146 17.315l12.794 9.398-55.35 9.415 23.852-49.05zm-37.763 143.05l-93.22-120.37 11.243-9.09 93.97 119.05zm-11.386-116.94c4.8 0 8.688 3.887 8.688 8.688 0 4.8-3.887 8.688-8.688 8.688-4.8 0-8.688-3.887-8.688-8.688 0-4.8 3.887-8.688 8.688-8.688m195.79 13.483c7.557 5.875 0 14.11-7.222 10.864-6.265-2.645-5.793-9-.856-11.546 3.08-1.464 5.43-1.101 8.08.682m10.06 5.602c7.752.123 16.317 18.501 14.743 23.9-2.309 6.283-4.432 6.508-15.368-2.743-10.808-9.142-10.963-9.523-6.594-14.469 2.426-2.808 3.589-6.513 7.219-6.687m-184.38 3.353c4.802 0 8.686 3.887 8.688 8.688 0 4.8-3.886 8.717-8.688 8.719-4.8 0-8.687-3.919-8.687-8.719 0-4.8 3.887-8.688 8.687-8.688m-26.937 3.344c4.8 0 8.687 3.886 8.687 8.688 0 4.8-3.887 8.687-8.687 8.687-4.802 0-8.686-3.887-8.688-8.687 0-4.802 3.886-8.686 8.688-8.688m190.82 6.197c8.576 1.269 10.818 7.745 6.875 12.563-5.36 6.516-17.381.597-14.531-7.156 1.294-3.522 4.425-5.341 7.656-5.406m15.381 9.781c3.358-.287 8.414 4.354 13.947 12.05 6.219 8.649 6.724 11.441 4.962 16.718-2.569 7.69-4.175 9.1-9.759 1.603-2.106-2.824-6.994-9.451-10.481-13.1-7.445-7.8-8.608-5.816-4.166-11.772 2.059-2.76 3.482-5.325 5.497-5.497m-20.16 9.09c7.702 3.976 8.441 9.154 3.89 12.816-5.357 2.929-14.806-.545-16.64-5.847-2.683-7.755 5.539-11.69 12.75-6.969m13.05 11.453c4.354-.275 7.942 4.221 13.271 12.825 9.08 14.649 9.57 19.583 1.834 29.24-5.565 6.95-6.129 7.321-11.575-3.753-4.45-9.05-12.912-19.646-20.75-26-3.274-2.654-4.425-6.373-2.063-6.625.687-.073 3.587-.209 6.438-.313 4.188-.152 5.705-.721 8-2.969 1.517-1.488 3.141-2.299 4.844-2.406m-31.28 11.431c4.053-.198 9.289 2 13.188 6.531 4.417 4.645 3.894 8.896-4.781 9.75-3.906 1.53-14.542-5.445-14.594-10.125-.044-3.928 2.611-5.984 6.188-6.156m20.447 16.989c.213-.012.416-.0001.625 0 3.643.175 5.523 3.69 9.619 11.906 6.284 12.614 4.47 19.482-6.394 25.06-7.37 3.787-12.995 4.922-13.943.593-.276-1.258-.281-4.892-.89-8.425-.811-4.702-1.889-9.599-6.05-15.869-6.64-10.01-7.815-13.56-.528-10.612 3.857 1.56 8.05 1.378 12.469-.937 1.946-1.022 3.6-1.635 5.094-1.719m-36.847 20.285c-2.528-.052-4.151 1.495-3.469 5.625 2.294 1.127 5.921.077 8.656 1.063 3.689 1.329 5.969 7.323 9.906 6.344.414-5.05-9.533-12.912-15.09-13.03m-752.14 87.94c-20.307-9.676-70.62-32.06-94.86-32.39-44.942-12.613-47.959-6.885-63.719-10.921 83.42-21.633 140.83 19.957 161.86 40.17 9.544 9.513 4.346 6.782-3.283 3.145m53.12 196.65c47.729 82.8 92.22 176.2 166.86 314.49l-7.17 2.24-284.64.509c14.1-152.78-68.46-298.35-74.05-292.64 64.48 1.187 118-11.249 129.3-35.01l-9.192-2.634c-37.524 32.384-91.88 33.873-129.39 23.863.851-79.61-3.629-163.69-1.15-243.27 44.33-3.299 78.99 12.959 103.56 45.35 41.31 54.46 69.33 123.71 105.86 187.09m-130.54-220.57c11.416-.872 73.72 24.76 101.59 43.906 7.742 8.01 19.05 21.921 19.06 23.281.043 3.699-5.455-.866-32.375-16.219-20.374-11.46-41.51-20.602-62.09-29.387-.944-.403-2.827-1.207-2.827-1.207 0 0-1.525-1.756-4.139-3.779-7.329-5.672-21.568-15.729-19.227-16.596m30.29 29.03c-.617-.116 61.793 22.488 111.45 62.03 6.603 5.258 14.708 24.874 14.708 24.874-4.43-8.339-82.87-55.27-110.4-66.01-.034-.037-15.757-20.894-15.757-20.894m22 30.01c3.402-2.041 94.68 51.832 108.05 65.739 6.06 4.636 20.262 27.16 20.313 31.688.047 4.03-4.391.55-12.562-7-42.03-39.25-102.76-68.833-103.25-68.18zm16.937 31.3c42.858 18.13 96.69 61.735 123.86 87.69 6.796 6.724 11.645 16.466 12.562 21 .571 2.811-.849 2.622-1.406 4.125-35.21-40.42-112.6-86.55-122.86-90.16.078 2.556-8.512-15.67-12.156-22.656m142.3 125.94c4.932 5.03 12.748 22.66 11 24.813-.859 1.058-.776.501-2.844-.938-11.267-11.209-69.14-62.56-117.43-91.37-4.537-2.268-19.743-26.25-16.519-26.708 25.24 8.235 97.44 65.879 125.8 94.2m-104.44-57.31c.835.062 2.346 1.133 4.937 2.563 44.41 24.495 108.78 86.18 120.99 101.01 2.776 4.566 7.146 12.948 6.824 18.08-.553 4.04-2.17.606-20.12-17.06-28.853-28.25-62.04-55.6-97.22-78.56-6.763-4.647-5.468-5.24-10.375-13.781-4.922-8.568-6.87-12.385-5.03-12.25m284.03.938c31.71.902 44.11 24.909 63.64 69.16 15.985 43.599 22.611 83.54 23.344 115.34.049 2.135-3.829.319-5.594-.156-8.491-2.278-19.06-4.409-31.31-1.312-8.998 2.273-17.551 2.02-8.312-4.03 2.979-1.951 11.05-9.424 15.344-12.09 8.696-5.409 3.408-5.343-5.219-1.094-6.532 3.216-10.9 7.292-13.594 7.938-1.664.399-.629-5.074.969-9 9.221-22.679 12.01-36.11-1.719-40.31-3.716-1.138-8.729-4.578-11.09-6.875-1.888-1.835-3.498-9.172-4.094-9.469-.633-.314-1.074 6.686-1.063 7.75.041 3.645 4.718 11.03 10.344 15.06 9.552 6.85 11.44 8.745 6.25 24.969-7.272 22.725-8.823 28.29-10.156 33.563-.767 3.034-2.252 8.189-3 11.531-2.882 12.881-2.532 24.14-2 34.844 3.14 23.92 28.926 35.721 63.54 22.436 3.275-1.274 4.637-.124 4.637-.124-27.57 28.04-58.51 45.958-76.55 102.61-23.19-46.737-56.04-83.36-110.65-98.03l-.805-9.76c19.05 9.132 55.979 21.556 79.42 7.591 12.551-8.57 8.733-14.1-6.5-8.188-18.14 7.04-50.893 6.218-67.25-3-3.329-1.876-6.724-.255-7.682.063-.855-5.494-8.724-26.2-7.569-33.98-.675-1.09 4.979-1.142 6.07.309 4.524 6.04 27.502 24.03 51.38 22.622 11.869-.698 21.628-4.302 31.94-15.181.859-.766 5.058-1.315 5.629-1.957.921-1.033.254-2.573.219-3.125-.257-.828-1.799-3.099-2.812-5.656-1.329-2.235-1.602-4.567-1.378-6.363.029-1.495 1.02-2.283 1.796-3.328.891-2 .646-4.549.149-5.905-2.118-1.431-1.86-4.102-.723-5.342 3.227-3.652-27.799-31.974-33.875-31.906-2.194.026-.899 4.068 3.563 7.03 15.77 10.474 27.26 24.15 24.656 25.938-2.01 1.377-9.07-1.638-16.263-3.334-14.432-3.384-31.753-5.539-50.55 8.02-7.03 5.774-25.617 6.641-25.617 6.641-.235-10.124-43.02-123.17-43.1-118.26 15.563-18.15 64.47-61.11 113.47-79.63 15.07-4.943 31.26-7.466 42.13-6.01m-185.79 25.302l88.95 1.374c-22.365 11.255-63 51.636-63 51.636-11.625-23.389-15.177-35.06-25.953-53.01m-76.897 11.729c6.63.037 77.24 57.57 87.28 71.16 1.21 1.637 8.362 9.187 15.906 16.75 18.262 18.306 25.791 28.888 25.875 36.438.04 3.566-3.22 1.245-8.094-4.125-36.57-40.633-60.36-62.69-105.56-93.84-5.131-2.748-21.06-23.949-15.656-26.313.073-.029.145-.063.25-.062m241.52 10.593c-1.986-.069-1.66 1.839-.579 3.597 11.207 9.902 40.786 9.466 50.986 1.463 9.253-7.26-2.88-3.429-6.657-1.81-8.84 3.79-18.318 3.362-30.625.094-7.177-1.906-11.139-3.275-13.12-3.344m27.28 16.12c-10.345.096-21.16 3.2-18.75 7 .879 1.387 3.706 3.985 10.469.313 9.761-4.828 29.815 1.502 30.406 1.656 2.047.538-6.666-5.74-9.594-7.03-3.222-1.421-7.83-1.981-12.531-1.938m-249.27 10.75c37.942 23.21 84.16 69.67 111.91 102.84 4.618 5.713 7.954 12.741 8 16.875.066 5.958-1.21 2.656-26.406-22.875-19.762-20.22-49.591-47.74-69.34-62.56-11.865-8.646-13.978-9.772-19.563-20.03-5.239-9.625-7.131-14.398-4.594-14.25m236.39 7.75c-7.133 3.389-16.599 2.667-25.813-.5-8.344-2.869-6.387-.415-3.219 8.688 1.441 4.14 2.334 10.01 2.344 10.875.025 2.023.022 2.167 5.906-1.125 5.13-2.869 6.214-3.858 17.16-1.313 11.124 2.588 11.304 1.63 16.531-1.094 4.557-2.374 5.5-3.797 8.614-2.543 6.099 2.457 13 3.502 20.818-.61 5.994-3.153 7.949-1.025 10.724.371 3.767 1.894 5.226.689 3.75-3.063-.587-1.494-1.688-7.911-1.719-9.938-.059-3.848-1-7.315-2.625-6.5-5.982 3.01-10.837 6.205-16.542 6.101-10.462-.191-19.637-6.474-35.927.649m-462.39 7.914c94.57 117.82 77.856 287.67 74.71 286.29l-74.12.324zm246.07 23.814c37.774 26.487 82.73 72.66 107.65 104.58 4.239 5.514.79 7.255 2.906 13.906.777 2.469-3.407-1.174-15.406-14.06-14.95-16.06-39.534-40.2-55.719-54.22-17.731-15.354-22.85-19.215-26.628-24.401-2.976-4.34-15.12-25.2-12.8-25.808m212.6 10.835c-.401-.0001-.798.013-1.188.031-13.446.632-20.272 15.698-8.75 26.344 4.334 4 11.211 6.37 11.188 4.219-.011-.512-2.172-2.68-3.688-3.844-9.598-7.378-8.615-18.878 2.313-19 3.786-.042 4.02 1.307 12.781 7.594 10.3 7.392 22.458 7.401 22.313-.031-.107-5.462-2.144-11.06-11.344-10.156-2.418.239-5.642.496-8.469-.219-2.709-.685-5.02-2.339-6.094-2.813-3.206-1.422-6.267-2.083-9.06-2.125m-188.04 34.687c28.899 19.402 68.62 63.28 88.92 89.15 4.652 6.07 4.96 12.77 3.081 16.38-.446.711-4-1.5-4-1.5-23.474-27.639-50.09-52.766-76.22-78.28 0 0-15.521-24.966-11.781-25.75m280.16 41.968l-6.241 3.103c-9.462-14.18-18.12-14.375-25.362 2.193l-4.648-1.17c-3.463-3.818 12.457-39.845 36.25-4.126m-1.4-12.09c2.605.091 7.16 1.5 8.219 4.156 1.187 2.448-.146 5.218-3.719 5.094-.543-.019-3.997-4.258-5.717-6.854-1.272-1.582-.725-2.448 1.217-2.396m-106.14 17.349l-6.987.323c-13.307-17.488-23.258-5.749-29.22 1.547l-7.483-1.016c1.194-19.21 35.14-25.897 43.692-.854m67.982-14.932c1.052.02 2.088.217 3.062.594-2.753 4.176-3.222 7.66-3.844 11.437-2.717 1.125-6.588 3.471-9.469.469-5.357-4.864 2.885-12.642 10.25-12.5m-109.15 1.959c3.297.014 2.31-.204.878 1.637-1.445 1.87-3.421 5.19-4.479 8.16-.446 2.064-.791 2.813-2.727 2.88-3.694.116-11.175-1.198-11.124-1.148-2.845-2.687 8.919-11.242 17.453-11.53m42.27 2.447c2.203-.268 1.686 2.881.98 4.116-1.392 1.643-1.947 2.179-2.725.131-.378-.985-.95-1.767-1.425-2.354-1.088-1.398-.964-1.47.382-1.708.604-.103 2.01-.173 2.788-.185m114.19 13.959c8.139-.213 2.696 13.595-8.625 16.937-12.504 6.336-26.843 4.82-41.44-3.5-8.325-4.745-10.845-9.746-3.594-7.75 27.325 7.525 33.968 6.133 50.45-4.53.981-.836 2.023-1.041 3.205-1.157m-262.92-2.989c27.21 23.05 47.684 49.15 69.44 73.21 4.337 5.361 6.368 10.53 5.531 14.03-1.042 4.357-9.969-6.03-9.969-6.03.225.097-53.1-56.823-53.1-56.823 0 0-13.535-24.265-11.896-24.385m81.3 7.958c1.89.063 5.638.939 11.688 2.5 26.17 7.933 34.09 7.639 49.13.734 9.586-4.401 13.548-3.767 9.446 2.851-7.551 12.177-34.22 13.524-54.23 6.727-5.3-1.8-9.958-4.958-15.06-8.781-2.737-2.849-3.398-4.112-.969-4.03m120.69 8.07c1.567-.102 4.487 1.698 8.04 3.712 21.922 12.431 38.11 10.151 51.613 1.813 2.443-2.228 3.766-1.16 4.094 1 1.15 7.571 1.49 13.01-1.969 16.656-2.01 2.12-5.433 3.077-10.594 4.813-21.23 7.138-47.06 2.037-52.01-13.884-1.608-8.187-2.628-13.889.82-14.11m-173.95 34.15c.077-.0001.158-.014.25 0 1.536.231 5.076 3.326 10.656 9.656 29.18 33.1 45.32 52.11 42.37 61.688-.271 0-.456 2.064-1.687 1-16.05-13.857-29.15-29.01-38.906-44.844-10.693-17.356-15.09-27.29-12.688-27.5m235.23 23.286c-24.623 18.827-54.49 63.64-57.17 85.71-.515 4.218-.065 7.381-1.625 8.906-1.241 1.213-4.02 1.325-7.75.594-2.284-.418-1.739-.672-2.281-3.25-2.117-10.1 7.564-35.529 27.594-65.5 10.509-15.724 34.381-36.958 41.05-37.1 4.45 1.833.128 10.836.182 10.634m-182.33-10.224c1.739-.05 4.43.858 8.188 2.469 22.1 9.48 30.35 12.93 44.656 24.594 26.659 21.736 56.29 73.36 47.594 78.19-3.82 2.121-6.53.784-8.08-4.01-.283-.872-3.079-8.104-6.417-14.239-17.871-32.843-41.11-55.43-73.875-71.41-12.1-5.9-13.331-5.247-14.25-10.188-.692-3.709-.046-5.344 2.187-5.406m181.97 18.969c2.215-.187 2.746 3.856 1.994 11.989-.611 6.628-1.01 6.491-8.4 14.261-11.814 9.565-25.783 32.03-32.25 54.906.0001.796-.6 2.537-1.719 3.5-3.039 2.61-6.876 1.334-9.5 1.281-1.887-1-1.368-5.144-1.031-7.469 5.405-20.771 18.707-46.28 39.562-68.69 5.865-6.302 9.39-9.617 11.344-9.781m-177.37.594c11.705-.272 53.29 30.802 70.12 58 11 17.776 13.969 25.07 11.438 27.656-1.338 1.369-7.253 1.588-10.344.375-2.814-1.103-3.889-5.385-9.156-15.281-13.741-25.814-33.534-44.525-54.969-54.41-3.989-1.839-6.123-3-7.411-4.431-1.435-2.959-3.277-11.294.317-11.913m6.313 23.09c3.633.685 13.689 7.206 22.09 13.375 14.863 10.909 37.485 44.25 32.813 49.03-1.5 1.534-6.693 1.592-9.365.542-15.914-28.33-36.573-41.814-44.963-49.689-2.545-4.275-8.488-14.359-.579-13.259m-33.06 5c.689-.175 3.476 2.565 8.531 7.875 14.934 15.683 24.41 33.06 22.22 41.844-1.854 7.426-4.03 3.36-21.12-29.25-7.193-13.725-10.631-20.21-9.625-20.469m204.34.438c.341 9.02-.389 11.244-1.344 16.03-.65 3.258-2.804 4.775-4.844 7.312-5.078 6.326-10.847 17.262-13.75 26.09-2.442 7.128-1.294 8.835-10.06 7.875-4.09-.534-3.103-1.637-1.5-6.344 5.522-15.453 18.778-40.491 31.5-50.969m-169.76 17c.185-4.627 40.07 35.522 34.594 40.04-5.19.907-8.282 1.098-10.452-.753-4.263-9.551-23.256-27.664-23.256-27.664zm167.54 12.656c.092-.021.17-.018.25 0 1.781.364.797 25.06-.688 27.09-2.839 1.434-8.217 1.561-11.09 0-1.756-.952-2.288-2.713-1.625-4.625 1.653-4.779 10.297-21.879 13.156-22.469m-150.55 27.16c-1.257 1.96-9.02 2.307-11.948.094-.938-.711-1.853-12.957-.76-15.177 2.975-1.939 13.694 12.442 12.708 15.08" fill="#131f67"/>
   <path transform="matrix(.99994.01113-.01113.99994-3051.4-711.61)" d="m2774.31 6.906c-31.01.6-46.39 26.553-46.54 52.54l.024 68.17h-18.512v22.626h18.512c0 0 .318 10.342.267 16.534-.256 30.63 10.564 49.21 31.688 54.34 20.269 3.688 30.829-.674 46.25-8.656 5.603 2.33 9.523 7.134 15.518 7.739 6.632.67 20.45.354 20.45.354l-.375-23.22-6.912-1.01c-13.201-.227-18.935-4.844-17.507-13.1 2.805-5.38 3.211-9.29 3.478-15.78v-115.31c-.41-28.27-23.507-44.995-46.34-45.24m-.969 22.469c14.806-.231 27.11 17.01 26.781 34.656l.224 89.08c.488 5.606-.417 11.08-2.88 14.924-1.941-5.692-32.563-36.975-47.875-35.531 0 0-.626 1.582-1.063-37.563-.195-19.227-5.239-47.916 12.03-60.875 4.316-3.176 8.635-4.623 12.781-4.688m802.41 77.19l5 6.563-29.22.156c4.779 4.04 113.04 221.89 251.47 473.59 22.916 44.17 66.63 60.1 117.37 62.03l-134.44-216.5c14.32-7.8 42.749-28.678 59.944-24.801 1.064 5.28 6.17 3.179 6.243-1.511l6.219.125 2.187 3.406h26.12l2.136-3.083 22.52 3.24c-60.18-74.18-91.93-188.5-81.62-300.09l-199.59.438-2.656-3.5zm-24.22 6.719c-.111-.094-.19-.141-.187 0zm-229.47 145.22c-22.692 73.28-78.81 133.57-112.13 194.28-35.722 66.24-44.11 123.89-34.06 186.94l6.531.563c76.15-103.87 135.12-227.98 168.12-350.02.719-2.658-.514-7.353.094-10.04-1.409-3.228-.176-6.716.719-7.656 1.918-2.02 1.207-9.939-.219-23.03-3.593-38.891-2.887-69.42.362-104.67 2.502-27.06 2.361-31.32 2.361-31.32l-13.03-.198c2.405 46.07-3.682 102.83-18.751 145.16m313.47-142.03l21.42.442c3.302 65.46 58.44 73.975 66.963 73.02-14.08 44.27 9.225 92.85 65.34 99.74-12.87 41.04 9.914 95.14 54.807 93.67l4.75 3c-2.895 5.91-3.515 18.06-3.344 18.25-9.982.731-15.392 2.185-21.875 3.469-58.02-87.48-188.06-291.59-188.06-291.59m190.37 0c-6.487 73.13 8.183 173.56 42.531 232.91 0 0-1.093 3.979-1.813 5.063-3.272 4.932-4.891.664-6.875-3.313-7.315-13.515-21.13-15.618-27.19-8.094-13.368 18.219 1.126 25.407 12.377 35.694-45.98-2.808-61.31-53.41-50.68-78.44-.238 4.774 2.324 11.98 5.693 17.09 12.921 19.598 31.793 3.065 26.385-12.44-2.238-6.414-10.48-17.11-10.48-17.11 0 0 11.195-1.651 15.771-4.416 4.274-2.653 6.972-7.351 5.872-13.78-.883-5.159-1.109-7.413-3.875-12.06-3.392-4.235-9.467-7.163-14.332-6.839-9.492.632-10.646 7.162-16.859 11.637-1.543-11.764-9.08-20.712-21.377-18.488-9.356 1.692-16.1 11.642-10.366 24.1 2.895 6.361 6.964 8.292 11.06 13.808-66.07-7.399-58.867-85.85-51.56-84.44 0 0 1.989-.368 1.401 2.632-3.763 19.2 20.08 30.668 30.531 16.719 6.662-11.315-7.65-29.18-7.65-29.18 0 0 9.53-2.046 13.857-4.541 17.253-9.95-1.131-38.532-17.18-31.513-5.633 2.564-7.07 7.786-12.564 10.568-3.674-4.089-3.897-8.561-10.501-12.237-18.12-10.09-29.441 13.778-19.413 24.277 4.113 4.254 11.37 8.132 9.95 8.652-56.17-7.092-55.624-65.875-54.34-65.46zm-482.79.493l7.732-.004c-2.291 34.875-7.241 80.88-4 114.89 3.781 32.483 3.951 37.09 1.625 40.31-3.192 3.582-1.505 5.27-.875 8.188.839 5.337.917 5.394.158 8.433-6.808 27.27-15.512 55.52-26.564 84.1-36.14 99.66-95.11 208.32-141.36 265.31-.03-.203-2.113.182-2.145-.021-12.655-79.52 14.388-145.8 28.504-173 28.62-55.15 73.58-102.23 100.27-160.01 22.717-49.17 39.477-108.26 36.651-188.18m284.54-.337l188.37 292.94-34.375 16.844-192.78-308.72zm-567.31 30.656c-66.793.986-99.37 85.02-43.44 125.37 10.05 7.252 13.146 11.48 10.406 14.281-2.301 2.353-5.399 1.261-10.406-3.719-43.549-42.747-110.76-19.378-117.03 39.875-10.391 98.21 111.8 123.96 143.12 30.469 8.978-26.799 12.806 2.237 4.094 30.75-7.254 26.299-19.872 53.26-34.625 75.72-2.471 3.681-6.06 8.375-6.06 8.375h107.31c0 0-3.41-4.577-8.25-10.219-19.526-29.06-30.1-61.67-33.531-95.72-.794-9.681-.456-17.03 1.438-18.25 3.249-2.088 5.123.523 8.594 12.06 7.141 23.746 20.631 43.15 35.687 50.5 36.4 15.1 66.13 10.521 91-22.625 53.804-71.71-34.18-160.29-97.06-102.41-5.772 5.266-9.382 5.839-9.938 1.5-.268-2.1 1.357-4.107 9.219-11.5 54.04-42.927 26.961-116.5-40.44-123.97-3.444-.368-6.809-.548-10.09-.5m-271.53 44.813c1.36 2.744-3.658 5.46-9.03 6.956-15.16 4.22-30.03-5.228-30.506-26.962-.145-6.621-.574-13.706 1.75-14.75 6.965-3.13 33.682 26.475 37.787 34.756m949.25-18.25c4.877 0 8.813 3.967 8.813 8.844 0 4.877-3.935 8.844-8.813 8.844-4.877 0-8.844-3.967-8.844-8.844 0-4.877 3.967-8.844 8.844-8.844m-966.76 77.33c-30.546.076-46.547 41.637-17.463 66.27 5.097 4.317 7.07 8.248 6.719 9.188-.79 2.13-1.568.338-7.781-4.03-27.34-19.227-60.17-2.01-57.28 25.625 4.119 39.458 48.537 48.805 64.31 12.313 2.788-6.449 4.125-8.452 5.625-8.469 1.371-.015 1.556 2.633.906 6.844-2.881 17.19-11.23 35.27-20.594 49.781h49.594c-10.168-15.379-14.395-30.54-17.09-49.5-.2-4.992.502-8.291 2.438-8.313 1.303-.014 2.05 1.778 4.188 10.219 7.912 31.24 56.18 29.6 64.22-2 9.01-35.397-24.428-60.57-51.875-38.19-3.872 3.158-8.268 5.46-9.03 3.25-.219-.634 2.247-5.251 6.625-9.09 28.02-27.366 9.274-63.975-23.506-63.894m1029.22 20.362c4.935 0 8.937 4 8.938 8.938 0 4.934-4 8.938-8.938 8.938-4.934 0-8.937-4-8.937-8.938 0-4.934 4-8.938 8.937-8.938m-448.84 17.446c3.216 12.765-59.79 204.36-149.32 326.27l39.09.813 1.207 4.313c54.77 80.86 20.517 152.4-23.707 185.62l15.312 20.406-13.781 11.156-13.781-16.406c-112.08 84.07-330.78 270.16-330.78 270.16l1.219 29.844 17.06-13.437c110.94 107.39 346.18 101.51 407.87-120.16l16.531.375c-37.31 162.47-189.15 226.07-303.75 199.12l-26.844 38.563 7.188 3.844c-1.326-2.054-2.54-2.769-.594-4.656l22.813-29.344c171.45 21.959 274.97-75.08 308.56-206.53l21.875.375c-18.765 110.42-70.53 207.63-144.34 283.72-53.27-.217-146.94-1.437-146.94-1.437 34.11 33.05 99.25 133.9 101.84 144.12 0 0 67 2.133 138.87.375 26.344-11.855 61.6-16.61 78.06-8.313 28.929 14.579 56.12 68.68 68.34 155.47 3.149 22.359 6.01 31.834 6.875 36.34.157.812 2.12 1.402 2.406 1.25 1.103-.584-1.755 3.953-1.875 7.312-.12 3.36-.0001 8.427 1.594 10.188 2.027 2.229 1.779 3.697 1.5 4.656-.184.63-4.094 4.25-4.094 4.25-.584 50.563-.298 96.46-3.063 158.66l9.938.063c-.072-100.07 30.12-192.67 76.66-256.41 28.29-41.833 58.23-86.92 74.78-129.84 18.635-48.32 21.2-99.1 11.219-141.94l-6.812.375c-40.926-28.05-57.6-87.93-7.188-130.72l-17.844-23.22c-50.35 38.924-61.907 110.73-9.75 170.16l-20.406-.062c-50.891-63.51-39.62-136.45 19.19-188.5l-13.156-16.719 14.302-12.602 12.905 14.12 328.3-274.3-.234-30.01-25.16 20.403c-147.26-136.15-365.65-40.61-397.67 123.38l-20.01.21c41.97-176.47 196.61-226.35 308.48-202.88l27.61-41.763c-20.309-5.705-40.12-19.19-58.811-35.11-7.876-6.71-12.853-10.822-18.579-17.538-52.985-55.993-88.95-133.75-90.64-133.88l-144.07-.355c-21.14 10.452-57.33 22.338-77.19 6.299-42.646-34.44-56.959-103.92-62.822-148.62-1.779-13.916-3.286-38.13-4.594-46.16-.812-1.471-2.384-1.558-3.806-1.304m510.77 77.27c4.82 0 8.719 3.93 8.719 8.75 0 4.82-3.899 8.719-8.719 8.719-4.82 0-8.719-3.899-8.719-8.719 0-4.82 3.898-8.75 8.719-8.75m18.75 10.281c7.103 9.202 13.41 18.688 16.937 28.719-3.312-.103-6.421.927-10.1-1.948-.855-10.13-5.02-16.209-10.271-22.958zm-26.344 12.906c2.913 1.428 5.223 12.426 3.188 14.313-3.507.747-5.898.497-7.081-.728-1.76-2.901 1.575-13.02 3.894-13.584m-572.97 95.56l133.75.156c23.271 17.839 46.01 15.477 79.03 1.175h148.72l8.406 15.262h-377.16c2.1-5.671 7.25-16.594 7.25-16.594m-11.03 23.844h384.91l9.719 15.656h-404.16zm37.16 22.75h43.19l-16 27.16h-44.563zm95.87 0h41.22l-18.344 27.12h-40.844zm133.31 0l-17.344 27.12h-41.906l18-26.875zm51.687 0h41.28l-15.438 27.12h-42.75zm-554.49 4.219c-26.766-.306-21.807 35.19-19.282 34.08-16.803-3.847-29.22 4.134-31.29 18.45-1.641 11.362 9.459 27.555 28.871 25.293-2.581 2.976.054 20.15 2.636 21.719 0 0 .33 2.49-9.917 23.865-12.161 25.37-14.644 26.572-20.16 9.906-5.928-17.924-15.1-27-38.969-38.594-6.36-3.087-15.357-8.471-20-11.969-10.66-8.03-10.783-7.904-10.281 8.406.653 21.18 7.08 30.467 29.688 42.969 11.07 6.119 32.26 14.761 36.09 14.719 2.699-.03 12.613 4.417 27.313 12.25 2.871 1.53 12.697 6.94 25.281 8.156 13.354.942 43.44-2.209 60.875-12.281 9.785-5.651 13.563-10.707 20.781-25.16 0 0-24.711 1.279-36-1.688-23.459-1.376-35.12-.017-52.906 9.219-14.88 7.727-15.713 9.109-9.5-3.656 2.839-5.861 5.483-12.759 7.875-19.625 2.593-6.831 3.276-7.399 9.781-8.06 14.27-1.454 22.399-9.688 23.719-23.969.354-3.829-.218-7.871-.218-7.871 9.713 1.436 29.599-3.38 28.978-23.504-.558-18.09-13.458-22.256-29.339-23.499 2.041-9.269-4.726-28.936-24.04-29.16m.323 5.614c23.452.164 22.905 21.689 12.686 33.906l-12.475-10.268-10.06 9.285c-10.952-6.996-10.907-33.07 9.851-32.924m641.67.26l11.531 17.03h-23.813zm-437.84 24.469h44.16l-17.719 24.906h-41.75c0 0 9.343-15.901 15.313-24.906m139.19 0l-16.688 25.875h-38.594l15.469-25.344zm51.719 0h39.906l-15.781 27.594h-39.438zm93.91 0h40.41l-16.437 27.594h-39.844zm91.53 0h41.625l-17.19 27.594h-40.12zm-579.59 5.125l19.844 20-19.344 19.375-19.938-19.06zm50.31 19.482c-3.515 23.23-25.901 21.968-32.26 10.606l9.124-10.407-11.186-10.978c10.855-17.42 36.979-6.771 34.32 10.779m-66.63-11.12l-10.728 12.09 11.772 11.314c-7.585 10.537-36.731 9.702-30.886-15.658 3.711-16.1 20.09-19.06 29.842-7.743m680.16-2.955l12.281 16.875-23.03.188zm-478.94 20.719l493.78 1.594 13.219 16.16c-172.4 2.97-341.22-2.77-517.34-2.906zm-173.6 10.5c19.567 12 5.116 37.29-15.885 32.989-15.654-6.871-18.857-23.11-4.773-32.531l11.03 9.09zm169.32 9.687l-13.469.063-13.12 15.344c49.613 52.27 47.791 97.6 1.562 137.12l18.594 20.813c51.854-44.36 63.35-114.06 6.438-173.34m50.969 2c27.812 43.45 51.864 125.76-31 201.16l-10-12.12c72.15-70.46 55.19-129.71 22.875-188.5zm7.719 1.063l112.12.438c-24 91.47-40.844 145.34-43.37 288.44l-32.406.188c3.526-3.298-16.78-86.4-40.469-115.22 49.68-84.35 22.909-131.93 4.125-173.84m-352.69.125c1.937-.016 5.908 2.492 13.688 7.156 6.98 4.185 16.05 9.478 20.16 11.781 15.4 8.633 23.05 16.783 27.438 29.22 3.281 9.31 1.237 9.492-8.188.719-7.01-6.526-14.48-12.148-33.16-24.938-6.579-4.505-8.66-3.765-4.844 1.719 2.751 3.952 8.669 8.444 20.656 15.75 8.693 5.298 20.661 15.906 19.719 17.469-.858 1.423-2.341 1.299-6.531-.531-1.934-.845-8.19-3.412-13.875-5.719-24.421-9.91-34.849-22.08-36.31-42.31-.51-7.05-.945-10.295 1.25-10.313m511.69.438c0 0 3.378 4.455 3.813 6.313.939 4.01-2.998 7.698-15.406 13.219-4.258 1.895-7.801 2.922-7.687 5.406.568 5.834 11.742 14.739 10.375 22.688-2.569 6.08-18.09 12.05-21.969 19.219.027 4.933 10.09 12.481 8.656 19.19-.784 2-4.03 4.045-8.844 8.219-9.845 8.543-10.456 9.85-6.844 16.5 8.391 15.448 8.701 14.309-2.75 25.281-11.54 11.06-11.327 10.918-5.813 20.531 5.944 10.361 5.669 9.894-2.312 16.531-7.823 6.505-7.504 7.828-3.313 15.906 4.054 7.812 4.978 7.925-1.844 13.969-7.969 7.06-9.465 7.803-3.844 16.688 5.813 9.188 6.243 8.8-.313 16.313-6.208 7.116-6.93 7.444-3.562 12.281 4.229 6.076 5.03 7.689.594 14.375-4.789 7.222-4.767 6.71-.375 13.438 3.698 5.665 3.063 11.969 3.063 11.969l-13.875-.031c0 0-.099-7.976-1.719-10.906-3.931-7.111-3.829-9.317.844-15.625 4.795-6.474 3.996-7.03-.469-13.5-4.518-6.551-3.87-6.485 2-13.938 5.385-6.836 5.655-10.06 2.594-13.969-7.257-9.258-7.24-13.158.062-19.281 5.571-4.669 6.089-6.752 1.281-14.75-4.706-7.827-5.298-8.542 3.344-16.344 8.831-7.972 8.737-7.805 2.813-16.844-5.746-8.766-5.439-9.351 3.781-17.906 9.33-8.657 9.454-8.675 3.344-19.594-5.719-10.219-5.766-10.05 5.406-20 11.123-9.269 14.911-10.446 3.813-23.75-6.183-10.551-1.781-11.588 8.375-16.844 17.812-10.878 9.703-10.202 2.219-26.344-6.254-10.822-2.682-10.901 8.219-16.313 2.704-1.163 5.705-2.503 8.781-4.219 7.289-4.066 3.344-7.781 3.344-7.781zm23.281.25l53.53.688c-62.05 79.23-91.91 180.57-102.62 287.47l-20.22-.313c-1.266-83.49 24.997-187.79 69.31-287.84m274.87 1.857c30.615 25.771 53.31 40.526 69.44 46.34 0 0-21.591 35.83-23.25 34.52-124.19-23.923-271.87 48.49-305.28 204.59l-19.563.125c7.226-61.26 23.345-112.42 53.03-165.78 29.455-51.817 56.59-82.1 97.51-120.26zm-213.65-1.326l26.375.469c0 0 4.952 5.948 7.188 8.094 11.384 12.911 12.363 10.34-12.719 24.5-15.84 8.942-22.856 13.1-23.781 16.844-.708 3.775 6.917 11.266 7.813 16.313.0001.567-21.534 14.989-25.438 17.03-5.435 2.635-5.709 4.904-.313 14.281 6.204 10.781 5.704 10.405-7.688 19.75-13.06 9.115-15.627 8.212-10.06 17.281 7.729 12.595 4.092 15.435-14.09 25.25-4.592 2.478-4.709 4.965-1.5 13.563 4.46 11.947 5.614 10.749-3.781 17.219-11.1 7.641-13.05 7.852-10.594 12.531 7.145 13.6 9.98 16.904.438 21.344-7.279 3.386-7.43 5.304-3.406 14.281 4.04 9.02 5.092 8.662-2.094 13.75-6.658 4.713-10.577 3.665-4.094 11.375 5.127 6.098 4.67 10.912.5 14.656-3.592 1.522-5.265 8.35-4.219 8.5l-9.25.25c-7.243-9.764 1.303-15.356 2.594-16.313 1.177-2.248-.267-3.84-3.188-9.125-4.02-7.28-3.882-8.149 1.906-12.406 5.848-4.301 6.02-3.187 2.125-12.688-4.534-11.05-4.322-12.314 2.812-17.438 7.02-5.04 7.116-6.164 2.344-15.844-5.03-10.21-5.04-10.217 7.438-18.5 8.775-5.827 8.897-5.478 4.25-16.281-3.209-7.461-.94-10.04 11-18.219 6.821-4.67 7.336-5.594 4.125-11.156-8.852-15.335-8.759-15.801 6.5-25.688 12.482-8.09 12.377-8.784 7.563-19.563-5.214-11.673-5.68-10.773 11.438-21.03 14.09-8.447 14.861-7.957 9.06-18.12-7.213-12.647-6.755-10.577 21.438-26.688 10.163-6.962 19.334-4.552 9.219-16.406-4.451-5.686-9.906-11.813-9.906-11.813m-497.87 20.813c1.953-.07 3.476 2.331 3.375 6.781-.347 6.27-3.311 12.488-6.156 18.719-5.962 12.694-11.901 22.09-15.03 22.12-7.369.082-7.17-1.569 2.625-20.719 4.471-8.742 9.09-18.723 9.813-20.656 1.575-4.187 3.652-6.188 5.375-6.25m90.62 28.75c.133 26.882-84.18 40.43-88.55 26.857 14.696-11.506 58.15-6.398 67.36-16.69-11.1-.641-26.13 1.187-36.438 1.372-12.851.23-33.611 5.722-33.822 7.993-1.344-7.07 22.07-20.353 40.614-21.19 17.338-.754 36.17 1.301 50.844 1.656m7.219 41.03c0 0-164.39 136.03-245.66 201.84l.5 29.344 260.06-212.91zm-.531 6.719l10.5 12.75-244.12 198.91-.875-20.844zm771.65 69.792l-8.774 9.367c-238.44-177.41-458.01 91.96-336.93 284.65-1.097 2.483-9.517 8.635-9.517 8.635-134.94-223.7 123.26-485.46 355.22-302.66m-131.21-38.855c13.535.104 38.446 9.397 48.969 22.06 12.25 14.746 8.688 21.317-6.875 7.406-16.728-12.154-30.542-14.974-7.313-.625 5.125 3.165 9.733 9.346 9.969 10.03.849 2.465-3.436-.12-22.906-7.219-11.576-4.221-26.25-15.633-30.06-23.406-2.853-5.816 1.129-8.305 8.219-8.25m-50.19.406c4.222-.034 7.984.295 10.656 1.063 17.05 4.897 22.425 7.462 28.781 12.406 4.349 3.383 2.956 5.822-2.094 3.656-5.882-2.522-24.51-8.06-27.844-7.719-4.844.498.014 3.667 6.969 5.406 15.416 3.855 23.07 7.833 12.06 8-5.737.851-30.849.932-37.688.125-11.425-1.348-28.534-11.766-24.594-15.5 4.251-4.03 21.08-7.335 33.75-7.438m-48.906 16.03c20.223.238 31.17 7.791 9.06 9.313-37.999 6.02-45.3 14.28-3.188 4.438 9.798-2.29 9.617 1.243 2.844 4.563-5.539 2.691-12.456 4.02-18.219 6.813-10.388 4.323-34.18 5.28-43.47 1.75-13.699-5.209 29.3-27.15 52.969-26.875m162.72 3.438c10.217.264 32.02 15.08 41.719 28.969 6.342 9.08 3.183 15.603-6.406 8.313-1.918-1.458-15.69-13.163-16.438-13.438-1.288-.473 11.423 11.6 13.281 15 1.594 2.881 5.263 9.488-1.594 9.625-10.715-1.322-35.876-29.433-36.03-43.31-.041-3.713 2.063-5.244 5.469-5.156m-126.78 7.906c4.257-.138 2.083 2.121-6 7.813-14.585 10.268-6.979 8.21 10.06-.563 5.18-2.666 11.429-4.751 13.625-5.156 2.196-.405 4.808-1 5.813-1.313 4.582-1.406 1.048 4.244-6.406 10.219-15.684 12.571-33.397 22.442-45.625 25.469-15.584 3.857-18.886 4.351-13.12-5.375 9.155-15.455 22.485-27.817 35.22-30.22 2.864-.54 5.02-.829 6.438-.875m52.44.25c6.492-.13 14.515 1.214 27.16 3.938 8.886 2.771 6.558 3.367-4.094 4.531-20.04 2.189-11.695 4.528 7.781 4.188 26.571-.199-13.313 9.579-26.25 11.531-10.09.45-13.05.091-35.06-4.03-8.387-1.571-3.357-7.715 12.531-15.313 6.494-3.106 11.446-4.714 17.937-4.844m164.22 3.594l.719 17.12-321.72 269-10.938-12.09zm-109.47 14.719c12.829-.171 31.367 8.727 29.375 14.09-.743 2-2.175 1.918-11.969-.688-6.426-1.71-17.936-3.516-16.406-2.094.529.491 9.511 3.927 12.938 4.75 11.332 2.724 24.906 9.131 21.906 11.03-5.252 3.197-10.06.697-16.281.031-15.556-2.16-41.11-10.02-45.31-13.938-4.769-4.45 11.946-13 25.75-13.187m-150.06 1c2.313.122 3.178 2.274.969 5.219-3.353 4.421-4.894 8.131-7.906 13.563-10.754 16.609-17.536 23.19-27.875 29.625-10.338 6.439-11.815 5.332-10.906-8.06 1.16-13.909 11.12-28.536 25.19-35.406 6.495-.92 10.22-2.631 3.406 5.531-12.09 14.482-3.817 13 7.469-3.438 3.587-5.225 7.343-7.153 9.656-7.03m-41.781 1.938c6.972-.035 9.31 2.434.375 6.625-8.508 3.991-25.429 15.825-25.844 17.12-.704 2.204 5.633-1.255 16.16-7 14.07-7.681 15.302-7.5 8.5 1.281-7.692 9.93-26.2 22.366-40.719 26.969-20.319 5.564-19.824 1.674-8.469-13.406 10.825-16.393 20.02-24.21 33.875-28.688 6.073-1.961 11.942-2.885 16.12-2.906m-344.62 2.5c73.72 127.14 32.796 256.32-52.737 322.21-89.42 68.876-228.54 64.787-310.64-17.874l11.389-10.754c-.056.053 129.42 131.91 292.48 14.868 82.75-59.4 116.93-199.66 48.666-297.45zm-330.25.281c-.24.002-.426.037-.563.125-2.483 1.612-11.838 29.07-13.719 40.469-.55 3.335.263 6.604 3 9.281 1.923 1.88 5.04.662 6 .281 6.234-2.821 9.673-7.144 15.12-20.844 3.658-7.499 4.161-16.462 3.438-19.594-.294-1.268-2.311-4.225-4.844-5.906-2.803-1.862-6.76-3.824-8.438-3.813m1.438 5.719c2.948-.028 8.783 4.77 9.5 8.188.054 5.961-3.358 15.881-5.906 14.406-4.258-5.29-9.156-1.955-9.969-3.875-.549-5.865 3.22-13.546 5.813-18.656.168-.047.366-.061.563-.063m796.25 4.75c32.782.009 65.38 9.61 89.31 30.813l-12.781 11.719c-56.14-40.02-121.49-28.31-160.22-1.313-38.34 26.722-72.27 85.87-39.03 169.19l-12 10.875c-37.25-67.01-17.261-155.57 48.656-197.47 23.24-14.772 53.01-23.23 82.87-23.781 1.057-.02 2.13-.032 3.188-.031m-484.78 9.781c.995 0 2.504 3.257 2.344 7.25-.193 4.795-2.223 11.05-5.469 12.375-3.658 1.493-5.969-9.406-5.969-9.406 2.245-3.556 5.312-7.175 9.09-10.219m586.94 3.75c1.336-.067 2.631-.014 3.75.125 3.662.454 3.693 3.73.25 6.875-3.717 3.397-5.655 3.578-9.406.844-3.348-2.44-3.521-4.236-.625-6.313 1.514-.964 3.805-1.419 6.03-1.531m-629.62.75l10.875 13.406-37.687 30.31-4.5.344-288.5 238.91-.063-21.22zm602.79 32.35l-39.29 32.419c-78.53-40.801-141.51 31.906-119.29 97.95l-33.978 29.489c-60.778-166.79 116.97-223.86 192.56-159.86m-205.73-25.472c.123-.023.229-.025.344 0 .261.058.527.252.781.5 1.374 1.344-1.361 23.456-3.406 27.563-.744 1.494-1.322 3.418-1.313 4.281.02 1.814-7.233 16.989-12.906 27-2.139 3.773-4.424 8.723-5.063 11.03-4.554 21.897-14.374-13.313-10.906-33.75 1.63-9.606 15.263-29.436 19.219-27.969 2.02.748 1.872 2.262-1.656 9.938-9.846 21.417-12.315 32.459-1.969 11.75 11.924-23.869 15.03-30.01 16.875-30.344m-667.47.438c1.459.083 2.618.892 3.25 2.594.438 1.453.909 4.464.094 5.938-2.01 4.535-6.188 7.521-10.406 7.25-1.854-.119-3.875-1.749-4.125-3.75-.226-1.81.216-4.883 2.5-7.219 3.01-3.073 6.257-4.951 8.688-4.813m299.12 1.375c4.653.228 9.56 12.747 6.438 18.469-2.555 4.682-3.03 3.809-7.5-5.25-2.351-4.763-4.156-9.875-4.156-9.875l3.813-3c.311-.168.65-.272.969-.313.149-.019.287-.039.438-.031m-7.844 5.281c0 0 4.897 8.87 6.094 15.938.731 4.315.61 3.508-4.125 1.719-3.731-2.331-4.553-3.682-6.875-6.594-1.527-2.696-3.063-4.688-3.063-4.688zm29.438 1.906c2.475-.085 5.13 2.414 7.562 8.531 9.133 22.968 8.293 48.74-1.969 60.906-1.7 2.02-2.115 2.103-4.156.844-1.667-1.029-1.829-11.939-.219-15.03.505-.968 2.01-7.556 2.125-11.281.269-8.821-2.153-9.929-3.313-1.75-1.34 9.452-2.798 16.06-5.375 10.375-1.295-2.887-1.955-5.771-2.938-8.844-5.135-19.858.856-43.497 8.281-43.75m-39.781 5.875c0 0 8.79 11.347 12.406 15.406 1.277 2.193 1.226 2.751-.813 3.531-3.479 1.331-15.11-6.417-19.719-8.813-2.486-1.982-1.406-3.5-1.406-3.5 3.178-2.393 6.354-4.745 9.531-6.625m346.62.406c4.69-.052 4.692 1.582-.313 8.781-27.952 40.21-22.308 34.24-4.531 12.25 9.885-12.229 11.602-13.394 12.687-10.656.813 2.049-10.947 25.846-17.03 34.469-3.143 4.454-13.882 11.907-19.313 14.656-13.294 6.73-11.82 4.03-6.906-12.656 6.265-25.882 22.01-46.695 35.406-46.844m-363.03 13.906c76.63 190.55-133.2 274.19-227.87 186.06l11.03-8.781c131.7 89.32 261.68-53.773 202.19-165.75 0 0 5.392-4.483 14.656-11.531m17.75 4.625c12.613 1.292 31.25 24.365 32.19 37.22 1.992 9.13-.588 10.697-5.063 4.281-7.556-13.958-6.649-5.11-.219 8.75 3.415 7 4.207 15.395.656 15.844-4.853-.983-15.353-17.723-18.563-24.625-7.653-15.12-8.211-12.557-12.406-34.969-.786-4.2.31-6.466 3.406-6.5m-38.12 6.25c58.37 111.94-67.19 246.43-194.91 159.5l38.28-30.375c66.66 31.973 141.02-7.683 119.72-99.59zm582.29 20.87l-105.29 87.74c-21.669-72.72 57.893-114.26 105.29-87.74m-195.57-.183c3.441-.716 6.362 21.309 7 52.22.624 30.24 1.397 33.22-8 22.09-3.94-4.537-8.785-8.868-10.938-12.938-6.242-11.801-4.257-24.16-2.531-41.44 1.61-16.12 7.375-13.599 6.438 3.281-.604 10.861-.488 24.363 1.219 24.344.619-.007.795-1.051.406-2.531-.813-3.09 2.906-38.09 4.437-42.22.661-1.781 1.332-2.68 1.969-2.813m-290.19 13.313c7.606 2.977 9.769 28.36 1.531 52.906-3.54 10.546-8.983 17.435-17.09 21.688-5.789 3.035-7.141 2.073-4.531-3.219 4.804-8.623 7.367-17.56 9.312-28.688.778-10.86-4.95-2.14-4.469 2.5-4.489 20.257-10.388 23.307-9.625 1.969.562-15.726 2.624-22.473 10.03-33.28 3.725-5.412 7.71-12.862 14.844-13.875m264.09 2.563c3.129.028 3.896 4.225 1.094 12.406-1.942 5.67-8.557 24.03-7.781 23.969.486-.04 7.584-16.555 9.03-19.25 2.376-4.425 3.258-5.262 5.344-5.063 2.035 8.155-.062 18.339-1.063 26.781-4.301 22.01-19.289 44.733-25.03 37.969-9.355-11.02-4.972-55.652 7.438-69.22 4.674-5.109 8.535-7.615 10.969-7.594m-401.03 3.375c11.309 77.84-52.917 111.07-108.41 87.59 1.175-.294 108.41-87.59 108.41-87.59m262.56 1.438l11.188 14.688 20.5 1.063-10.5 15.469 10.438 19.813-22.875.438-13.156 15.12-11.437-13.656-20-1.063 11.656-18.594-9.406-17.781 21.594-1.031zm-172.03 6.688c2.571.09 15.213 16.707 16.469 22.844 3.819 14.858 2.408 42.966-2.938 42-5.799-20.246-3.545-30.7-5.625-28.375-3.603 3.725 2.236 34.759.313 42.41-.916 1.949-4.02-.398-7.5-5.406-9.3-13.374-8.05-65.69-.938-73.41.061-.032.136-.065.219-.063m684.59 31.541l-253 209.58 14.594 18.781 238.86-197.21zm-365.4 3.615c1.106-.226 3.629 1.548 8.375 6.75 8.28 11.179 17.05 26.533 20.25 38.34 1.213 4.594 3.162 10.683 4.344 13.531 1.775 4.276 1.923 5.458.875 6.75-4.381 5.401-22.712-8.198-28.625-21.22-8.305-18.288-8.515-34.768-.188-18.719 3.03 5.838 6.788 14.345 6.75 10.969-.011-.962-3.688-13.218-6.5-18.688-1.745-3.439-8.109-17.14-5.281-17.719m362.72 5.094l.531 17.344-235.62 197.06-9.25-11.25c0 0 221.94-184.59 244.34-203.16m-367.87 10.719c1.108.112 1.676 1.695 1.344 5.219-1.078 11.455-3.9 36.4-3.312 38.594.354 1.322 3.727-16.516 4.5-19.688 4.02-16.529 10.178 22.984 6.469 40.688-.583 2.784-1.764 7.274-2.375 10.03-.611 2.757-2.582 7.472-3.375 8.719-6.675 10.498-22.36-31.3-19.719-52.594 1.644-13.261 12.512-31.367 16.469-30.969m-272.59 9.156c3.082-.165 3.676 2.859 3.156 9.219-1.782 21.801-16.276 44.693-32.16 50.781-15.814 6.06-17.285 4.845-7.906-6.469 7.11-8.578 11.415-17.584 10.219-18.75-.661-.645-2.242 2.956-8 10.344-7.22 9.263-8.41 1.42-1.844-12.188 5.671-11.752 10.968-17.904 21.625-25.09 7.519-5.073 12.186-7.698 14.906-7.844m143.28 6.625c-3.187 93.88-26.591 195.87-71.78 284.53l-42.22.094c51.694-76.15 84.69-170.43 93.87-284.22zm18.563.094c0 0 6.332 6.569 8.906 11 2.839 4.886 3.632 9.155-1.531 12.813-5.992 5.066-8.49 3.182 1.281 15.75 5.149 6.622 3.476 7.704-2.906 13.281-6.588 5.757-6.966 6.06-.844 13.844 6.551 8.324 7.733 9.603-.813 16.03-7.699 5.791-7.794 7.15-1.781 16.563 5.538 8.669 7.216 8.584-3.406 17.563-9.07 7.669-9.287 5.545-.531 19.656 3.221 5.191 2.997 5.528-2.906 10.75-14.504 12.832-13.748 12.03-11.687 15.406 15.896 22.778 8.708 22.13-6.844 33-3.137 2.685-2.33 5.711 4.688 17.09 5.965 9.675 5.098 11.766-8.875 21.375-14.549 10.01-15.02 11.356-7.75 21.563 7.166 10.05 7.324 9.37-4.313 19.75-5.253 4.685-9.563 9-9.563 9h-25.781c0 0 5.444-4.971 9.156-7.719 21.17-15.671 21.09-14.01 12.156-25.313-7.903-9.999-7.136-10.657.875-16.375 5.76-4.114 13.521-8.354 19.344-12.563 3.137-2.231.817-4.091-4.406-13.969-5.853-11.07-6.171-9.789 4.719-18.75 11.922-9.81 12.12-9.447 5.656-21.875-6.482-12.465-6.59-11.382 1.594-18.06 12.167-9.932 12.747-9.399 6.344-20.906-5.108-9.178-5.157-8.917 3.469-17.531 8.699-8.687 7.617-8.14 2.469-16.09-5.233-8.08-4.959-9.174 1.938-15.313 7.43-6.614 6.38-6.21.219-14.656-6.071-8.324-5.978-7.701 1.406-14.156 3.882-3.394 7.785-6.843 7.562-8.438-.572-4.111-4.499-9.947-8.281-15.563-1.442-2.141 1.445-2.798 6.06-7.594 4.696-4.878 4.485-3.653.938-10.125-1.92-3.502-5.563-9.406-5.563-9.406zm-69.09.219l7.344.188c0 0 1.262 1.665 2.969 3.406 4.718 4.813 4.925 7.637.188 10.219-4.547 2.478-2.802 5.949 1 11.531 4.03 5.923 3.997 5.243-1.781 11.06-5.967 4.851-9.05 6.223-2.469 15.406 3.74 4.258 3.276 8.653-2.531 12.469-4.463 2.933-11.876 5.369-4.063 16.531 3.812 7.956 4.115 7.447-3.844 13.09-10.589 7.515-12.579 6.208-7.719 17.16 5.408 12.179 5.943 12.363-5.156 20.531-12.899 9.492-13.34 10.259-7.969 21.625 5.417 11.463 5.557 8.557-8.094 19.19-10 7.787-12.275 8.216-9.313 14.656 5.55 12.07 7.901 15.302-8.281 23.594-18.686 9.576-19.629 10.286-10.656 24.531 7.297 11.586 5.676 9.94-6.375 16.875-17.421 10.02-25.12 14.389-25.656 17.5-.355 3.521 13.594 14 13.594 14l-24.312.656c0 0-10.221-8.296-14.188-12.156-10.997-10.704-11.12-7.198 25.438-24.938 20.17-9.79 18.481-7.571 15.187-13.281-9.726-16.869-10.07-18.624 8.188-27.813 15.859-7.983 13.14-8.555 9.281-20.625-3.36-10.519-2.826-9.55 5.531-15.75 20.2-14.986 19.654-13.434 16.5-20.781-3.102-7.229-5.485-10.594-3.156-14.156 7.28-10.441 22.767-12.66 16.438-25.09-2.955-8.02-4.01-9.814 4.906-16.75 8.04-6.692 8.08-5.881 2.937-14.719-6.268-8.11-5.364-9.446 3.813-15.812 6.54-5.979 6.452-5.822 2.781-11.656-5.061-8.04-4.816-8.292 2.406-14.625 5.883-5.158 6.907-5.437 3.156-11.125-4.977-7.547-4.152-9.204 2.406-12.906 4.02-2.27 4-3.196 3.656-7.03-.066-.738-2.156-5-2.156-5m91.19.437l33.844.094c10.81 62.754 29.682 88.5 40.594 108.37-42.792 68.7-33.06 125.76-6.938 176.25l-107.19-.406c27.48-94.01 41.649-188.6 39.687-284.31m-232.31.25c1.244-.09 2.12 1.922 4.219 5.5 6.782 11.559 1.986 27.951-7.938 45.13-7.425 12.849-8.771 3.035-5.375-15.469 2.141-11.666-3.738 5.814-6.531 19.906-1.515 7.64-5.177 13.805-9.156 13.438-3.747-.608-2.589-11.314-2.469-13.688.849-16.867 7.135-28.815 19.344-45.563 4.624-6.343 6.496-9.148 7.906-9.25m345.5 33c1.608-.073 3.854.599 6.625 2.188 2.157 1.237 6.03 3.584 8.719 5.063 9.387 5.168 10.147 6.743 5.688 11.938-5.517 6.426-9.05 3.977-18.594-6.719-6.439-7.216-6.548-12.282-2.437-12.469m-3.125 14.13c1.516.036 4.641 1.669 7.687 5.156 6.182 7.07 5.437 13.05-1.406 11.344-2.794-4.085-4.237-10.306-6.906-14.906-.607-1.045-.285-1.616.625-1.594m302.31.906c-5.993.0001-16.03 7.921-17.937 15.969-5.824 24.55-5.816 23.487-.594 27.06 1.532 1.049 2.682 1.815 3.438 2.281 3.062 2.415 7.232 6.149 7.781 5.406 4.974.027 12.532-31.426 12.281-37.906.314-6.844.553-7.671-1.156-10.781-.777-1.412-2.134-2.034-3.813-2.031m-306.91.531c.399-.076.899.138 1.5.625 3.928 3.908 5.508 10.899 7.5 15.906.012 1.085-.443 2.867-1 3.938-3.394 6.514-8.675.198-9.219-11.03-.305-6.313.022-9.208 1.219-9.437m305.97 4.844c.264-.016.517-.011.75 0 4.02.181 3.398 4.34-2.188 10.375-2.937 3.174-8.998 4.676-11 2.719-2.912-2.848 3.102-10.674 9.656-12.563 1.066-.307 1.99-.484 2.781-.531m-679.78 3.437c.226 0 .437-.014.656 0 2.104.132 3.868 1.082 5.25 2.688 2.681 3.314 1.553 8.438.281 12.719-3.179 11.22-24.21 32.947-31.75 33.03-4.491-.784 14.286-24.641 14.875-28.656-1.398-1.367-13.03 12.07-18.5 21.406-2.475 4.227-5.288 9.439-6.781 10.344-3.921.452-8.443 2.949-8.469.313.648-11.92 23.986-37.896 31.938-45.12 4.88-4.595 9.104-6.657 12.5-6.719m56.28 1.125c18.03-.201-17.47 39.25-40.44 44.938-7.153 1.771-20.34 2.236-21.281.75-.941-1.486.116-2.694 3.063-3.469 4.74-1.246 28.21-16.178 28.19-17.938-.025-2.21-9.719 1.455-18 6.813-5.362 3.469-7.881 2.751-4.969-1.438 13.483-19.388 31.524-29.412 53.44-29.656m312.09.063c1.024.083 2.049 2.117 2.688 6.656 3.277 8.455 3.434 10.763.344 13.25-5.288 4.255-6.591 3.065-6.531-6.719.049-8.06 1.794-13.327 3.5-13.187m-593.97 11.219c0 0 6.578 2.466 3.844 5.594-1.9 2.173-9.993.322-10-.312zm905.78.25c2.146-.14 2.199 1.84 1.063 6.844-.597 2.627-3.193 16.445-7.781 20.281-.557.366-7.22-3.607-9.03-5.438-.83-.848-3.435-2.786-3.781-4.063-1.135-4.176.08-9.605 3.25-12.313 1.238-1.058 3.725-1.641 5.062-1.656 1.051-.012 4.155-1.03 6.906-2.25 1.924-.854 3.337-1.343 4.313-1.406m-903.47 9.531c4.33-.031 9.647.432 14.156 1.969 13.296 3.865 37.686 14.79 41.44 18.375 5.463 5.22-8.795 10.778-25.938 10.969-9.09.102-10.802-1.788-23.375-9.312-1.615-1.063-8.94-5.872-6.813-7.625 2.33-2.383 9.349.684 18.09 5.125 2.853 1.448 9.796 1.034 9.781-.25-.017-1.51-17.478-8-30.563-12.156-8.591-2.729-8.391-5.483-3.125-6.656 1.509-.226 3.746-.419 6.344-.437m-17.19 5.969c0 0 3.62 3.205 8.312 6.719 5.094 3.814 11.01 8.52 15.12 14.781 5.954 7.259 15.363 25.323 14.313 28.594-2.408 7.499-27.543-5.659-48.09-26.22-6.68-6.683-10.594-11.656-10.594-11.656l7.844-7.094c0 0 6.888 5.761 14.844 12.781 14.923 13.168 14.824 8.645-.188-5.219-4.246-3.922-8.156-7.438-8.156-7.438.199-2.515 2.576-4.735 6.594-5.25m613.97.625c0 0 8.02 8.324 11 12.156-48.909 47.812-67.58 114.61-20.375 185.75l-22.656-.094c-42.44-83.51-22.313-146.38 32.03-197.81m-413.66 1.969c3.041-.137.272 3.441-5.125 12.625-10.08 17.15-12.07 21.477-28.437 25.75-4.214 1.089-10.217.222-12.688.531-7.04.881-3.906-.0001 6.875-7 14.94-9.689 2.252-4.706-11.562 2.406-8 4.118-16.394 3.914-17.12 1.781-.404-1.176 3.241-4.271 5.594-6.375 21.04-18.809 27.49-18.02 47.06-24.813 8.542-2.966 13.326-4.812 15.406-4.906m-87.94 17.16c7.615.046 14.717.808 21.03 2.219 4.182.943 10.991 1.779 5.25 6.969-6.502 6.117-24.06 14.472-37.06 15.03-1.825.067-28.587-1.822-22.875-7.562 1.141-.637 4.774-.47 7.906-1.063 14.825-2.806 10.814-5.193-7.438-4.219-22.858 1.22-23.902-1.143-6.594-5.875 12.658-3.461 25.1-5.239 36.5-5.469 1.108-.022 2.193-.038 3.281-.031m122.12 1.75c10.173-.1 18.08 1.716 18.12 5.594.07 6.289-19.2 20.08-31.844 22.813-2.978.643-7.212 1.567-9.406 2.062-4.41.995-28.838.146-31.22-.719-11.44-4.154-3.481-5.784 17.5-8.219 9.131-1.06 13.488-3.453 13.469-5.188-.0001-.843-6.738-1.08-16.75.188-11.186 1.415-8.99-1.877 4.937-9.09 9.2-4.767 23.657-7.324 35.19-7.438m-188.28 8.719c1.423.036 4.858 1.216 10.563 3.594 12.181 3.545 28.917 7.553 40.37 20.06 9.253 8.961 11.508 11.849 9.563 15-2.356 3.817-31.07.914-43.16-4.25-7.983-3.412-17.498-10.732-21.844-17.06-10.529-15.336-6.1-19.375 7.281-8.656 16.13 12.917 18.514 14.245 21.375 13.656 1.151-.237-1.687-2.89-7.094-6.906-13.58-10.09-20.19-15.516-17.06-15.438m99.34 16.469c13.505.018 16.421 1.029 29.531 7.03 16.408 5.783 12.43 10.929-16.688 18.19-14.581 3.421-29.26 1.023-39.906-5.531-23.469-14.441-21.92-17.329 4.281-10.875 8.611 2.121 17.189 2.517 17.719.906.405-1.234-10.01-3.886-18.469-6.688-9.162-3.034-1.287-2.777 17.03-2.969 2.424-.025 4.571-.065 6.5-.062m675.29 62.39c0 0-2.999 1.418-4.323 2.146-1.046.575-9.157 1.59-18.03 2.25-17.498 1.302-29.27 4.107-39.883 8.374-16.03 6.442-26.743 26.313-26.743 26.313 11.98-.812 79.79 11.445 98.6-12.984 3.939-5.115-10.113 38.607-17.322 40.548-17.871-2.146-25.392 25.898-23.603 24.714-18.03 6.985-32 11.09-27.421 32.01 1.998 9.123 11.245 19.96 30.836 17.236-5.336 36.28 39.06 45.662 43.95 1.932 0 0 8.657-1.65 11.989-2.044 20.241-4.795 25.15-34.37-4.563-43.75-8.242-2.441-8.708-3.99-8.708-3.99 1.537-6.673 1.171-13.677-3.656-21.457 6.553-15.616 22.864-45.729 22.864-45.729zm3.136 9.02c4.084 5.456-17.215 14.484-39.896 16.434-5.087.437-16.274 1.463-16.563 1.969-2.443 4.278 43.856 1.17 58.28-6.906 4.941-2.766 5.386-.334 3.24 3.931-16.747 21.531-57.17 16.225-88.77 12.444-1.803-1.814-.268-4.04 6.813-9.781 12.987-10.536 22.339-14.05 42.844-16.16 5.723-.183 31.475-5.03 34.05-1.934m25.04 22.278c-2.912 9.262-18.12 37.531-18.12 37.531-1.868 1.868-8.533 3.186-8.03-3.969.079-7.68 14.463-39.33 18.344-39.938 4.635-.357 8.05 3.054 7.813 6.375m9.65 2.156c4.457 32.438 29.07 40.15 52.694 50.38 6.217 2.85 11.487 7.914 17.719 11.187 11.673-15.919-1.479-46.833-22.03-56.906-15.268-7.125-29.18-12.795-37.781-12.156-4.976.37-10.53 3.565-10.6 7.499m12.631-1.937c2.643-.029 6.426.738 20.22 4.406 20.82 5.538 35.509 20.896 39.34 41.12.155.819 1.224 16.496-2.365 15.937-5.423-1.56-8.344-7.02-17.04-10.655-10.861-4.543-26.09-10.513-35.438-19-7.548-6.857-11.673-14.239-12.594-20.563-.933-6.563 1.264-7.233 6.781-1.937 12.354 9.829 24.536 13.191 36.75 22.687 3.393 2.638 15.575 9.389 7.257.982-5.634-5.694-22.23-15.623-31.04-19.857-12.247-5.886-18.902-13.05-11.875-13.12m-937.81 32.375l139.59 218.22c-34.36 18.12-51.29 26.06-108.34 21.594l.219 2.875-24.24-1.412c41.871 65.36 93.55 150.62 78.885 299.37l170.04-.175c0 0 2.655 2.519 2.914 2.694 2.486 1.679 6.216-2.951 6.216-2.951l76.71-.41 2.075 2.475 35.766-.248c0 0-163.54-306.01-245.67-457.97-33.744-60.954-68.886-88.03-134.16-84.06m880.25 7.219c9.166-.226 18.281 6.074 18.344 18.313.033 6.375-5.346 15.268-5.346 15.268l-12.455-11.871-11.907 11.916c-5.862-4.848-9.337-14.07-7.417-19.323 3.664-8.972 11.651-14.13 18.781-14.302m-144.37 4.344c11.815 46.04 24.576 109.53-77.875 256.25-60.6 86.78-80.42 168.65-82.84 268.56l-6.125.031c2.894-54.833 3.281-154.25 3.281-154.25l5.719-5.094c0 0-2.604-4.226-3.75-9.188-1.931-8.361-.304-5.573 4.688-28.03 20.942-108.46 156.91-328.28 156.91-328.28m-547.06 21.13l519.22 2.375-6.906 13.625-502.44-3.594zm692.09 3.937l19.281 18.781-18.844 21.16-19.844-20.75zm-15.814 7.983l-10.519 11.184 9.118 9.593c-9.387 19.703-34.37 4.328-33.531-10.417.978-17.25 21.14-24.323 34.933-10.361m33.32 22.23l8.378-10.651-9.468-10.378c15.504-15.311 30.16-1.826 31.582 10.95 1.511 13.617-19.724 28.99-30.493 10.08m-614.94-13.03l42.531.406-15.813 29.594-43.12-.188zm94.75.219h39.06l-16.5 30h-39.531zm92.25 0h41.44l-16.813 30h-42.563zm92.75 0h42.41l-15.438 30h-44zm94.47 0h40.875l-16.562 30h-42.06zm-451.37.156h27.469l-11.219 19.75zm684.93 18.927c15.72 12.621 4.796 33.35-11.583 33.724-11.28.255-27.656-18.828-9.938-34.38l11.801 10.787zm-577.8 15.948h39.938l-15.03 27h-39.12zm88.78.219h43.813l-15.438 27h-41.688zm93.81 0h43.594l-14.219 27h-44.03zm93.47 0h43.25l-13.469 27h-45.719zm-356.69 1.031h27.563l-11.75 21.625zm20.781 31.31l404.72 3.594-6.875 13.12-387.56.062zm14.219 23.5l379.25.938-8.719 18.16-131.03-.594c-25.57-19.09-54.79-10.262-88.12.594 0 0-100.31 1.047-139.75 0zm532.22 46.34c21.04 26.929 36.13 64.44 42.25 94.03 6.06 30.26-.515 45.08-8.25 18.594-12.822-66.22-91.34-75.89-126.37-24.594-48.671 71.26 36.592 157.73 97.72 99.81 5.216-4.943 8.111-6.139 9.875-4.063 2.047 2.412.63 4.569-10.25 15.531-42.466 42.788-26.687 104.37 30.812 118.69 81.62 20.321 130.96-79.43 59.62-126.53-7.419-5.645-8.202-7.07-5.5-10.125 2.414-2.728 4.511-2.409 11.11 3.562 61.14 55.31 144.65-16.952 105.97-91.69-29.797-57.56-112.71-46.997-132.55 16.969-3.699 11.924-3.976 12.609-6.03 13.938-8.497.327-2.509-27.785-1.219-35.22 9.616-32.814 20.244-63.52 40.563-88.91zm-658.34 30.594l200.03 315.72-44.22-.5-189.94-297zm982.47 18.425c1.329.997 19.963 52.26 16.326 56.965-1.131 3.707-4.28 2.427-5.5-2.219-11.621-44.28-66.42-36.82-65.906 8.969.316 28.356 29.431 40.598 54.75 23 3.754-2.609 5.472-2.659 5.5-.156.0001.749-2.909 4.623-6.5 8.625-20.342 22.668-12.682 53.978 14.781 60.41 36.906 8.639 54.782-32.9 27.03-62.781-4.04-4.346-7.338-8.343-7.344-8.875-.025-2.251 3.082-1.864 6.687.813 25.599 19 56.794 6.185 56.44-23.19-.47-38.768-48.66-48.984-61.906-13.12-3.299 8.93-4.912 11.309-6.594 9.688-6.477-3.399 17.354-58.677 18.01-58.677zm-1022.56 2.137l188.84 295.08c-8.666-.201-16.71.33-25.377.199 3.51-55.11-40.836-80.947-66.894-82.26 15.631-64.45-31.356-91.57-62.701-96.69 12.711-83.76-56.626-95.63-57.634-94.79.337-6.876-.956-11.835-1.88-17.57l25.643-3.973m-30.594 4.677c-.406 1.773 3.557 18.461-3.906 15.385l-.531-15.354zm-39.754.427c2.696 11.1 8.399 13.298 16.14 20.741 0 0-9.905 1.681-12.201.094-4.118-2.847-12.718-20.924-12.718-20.924zm29.536 18.772c4.787 0 8.656 3.9 8.656 8.688 0 4.787-3.869 8.656-8.656 8.656-4.787 0-8.656-3.869-8.656-8.656 0-4.788 3.869-8.687 8.656-8.688m17.16 6.668c24.837-1.625 60.859 25.02 51.36 74.873-1.653-3.481-3.609-11.142-7.64-16.578-17.12-23.09-37.28 8.554-23.695 21.469 6.661 6.331 9.781 8.827 9.06 9.401-15.31-2.906-26.909 10.652-20.537 25.699 10.621 19.474 25.376 9.157 33.915-2.394 0 0 5.256 17.429 10.484 19.645 8 3.392 19.05-.906 22.806-10.576 5.595-14.385-8.01-18.07-11-26.08 28.734.936 65.34 42.933 48.687 79.35 2.184-8.303-6.715-26.894-24.02-22.1-8.646 3.02-11.655 15.61-4.682 28.56 2.232 4.145 3.438 5.687 3.438 5.687 0 0-7.483.988-9.448 2.198-22.447 13.823 6.493 51.53 23.2 27.958 1.704-2.803 4.498-6.01 4.498-6.01 2.758 5.25 3.6 12.643 8.633 15.177 20.683 10.412 29.903-11.566 21.21-22.338-4.895-6.067-10.419-13.07-10.419-13.07-.862-3.878 61.988 12.603 54.33 73.74l-166.62-.227c15.445-93.92-21.952-201.38-41.04-234.13l8.267-10.907c2.072 4.057 5.515 14.268 11.595 16.225 19.328 6.222 25.22-7.288 22.627-21.17-1.379-7.394-11.732-13.344-15.02-14.412m44.12 88.39c4.544 0 8.219 3.706 8.219 8.25 0 4.544-3.675 8.219-8.219 8.219-4.544 0-8.25-3.675-8.25-8.219 0-4.544 3.706-8.25 8.25-8.25m989.78 76.01c-11.08-10.343-23.338-10.06-34.42-8.845l-.602 23.282c0 0 27.436-1.364 23.79 12.854-.979 2.789-2.296 12.141-2.296 12.141l-.362 119.4c4.453 52.47 72.02 62.976 88.67 13.18 3.209-8.503 2.682-16.228 2.682-25.506v-62.95l19.213-.383-.736-22.369-17.596.273c1.286-31.441-4.146-61.72-26.23-68.91-24.28-7.31-39.512-1.127-52.11 7.835m57.3 53.729c-11.16 2.029-26.772-19.04-39.619-34.15 5.884-11.32 23.792-9.279 30.469-2.325 9.676 10.08 9.01 28.702 9.15 36.474m-984.55-31.899c4.59 0 8.313 3.722 8.313 8.313 0 4.59-3.722 8.313-8.313 8.313-4.59 0-8.313-3.722-8.313-8.313 0-4.59 3.722-8.313 8.313-8.313m935.9 20.08c11.789 23.01 48 40.674 48.544 37.15l.2 63.32c1.84 25.363-7.07 37.724-23.15 39.38-28.19.308-27.872-34.702-27.879-54.21l-.376-62.5c.183-7.524-.724-16.908 2.663-23.15"/>
  </g>
 </g>
</svg>
