<svg xmlns="http://www.w3.org/2000/svg" viewBox="0 0 744.09 1052.36">
 <g transform="translate(-512.47 486.83)">
  <rect rx="10.63" width="223.23" height="311.81" x="772.9" y="-116.56" fill="#fff" stroke="#000" stroke-width=".997"/>
  <g transform="matrix(.15456 0 0 .15456 730.66-19.639)">
   <path transform="translate(-649.37-550.75)" d="m1830.22 94.63c0 0 163.65 236.55 219.16 278.53 4.081 1.915 72.51-11.156 72.51-11.156-35.07-83.963-57.634-170.83-34.874-268.22zm90.94 374.11c-112.82 31.843-225.43 61.789-347.74 9.882l-133.57 129.05c-1.109 3.328 173.09 78.37 175.83 70.15l-42.874 136.87 98.85 21.761 45.38-145.59c0 0 136.48-13.09 199.82-34.825 48.16-16.524 97.96-28.508 140.97-64.41-88.83-53.39-136.75-123.53-136.66-122.89m-678.59 38.16c-42.761-26.24-76.18 27.765-44.873 54.732-3.68 15.753-4.929 39.2 10.313 49.5 14.01 8.853 40.13-.329 43.898-.232.268.007.677 28.356-1.5 28.28-4.05-.136-19.341-13.161-28.773-15.988-31.871-9.555-76.7-14.269-75.906-12.625 1.33 2.758-7.939 9.294 27.625 31.625 13.21 8.295 54.947-1.048 88.19 9.438 20.252 6.388 40.16 17.01 51.16 11.719 13.901-5.81 30.11-24.15 35.34-39.09 1.474-16.319-83.4 18.989-78.24 19.562l-.266-32.891c34.2 3.764 65.07-21.02 31.457-63.52 25.03-24.881-9.983-84.18-58.42-40.512m142.49 150.43c-84.11 84.79-256.05 243.92-256.05 243.92l1.84 118.76 167.97 150.31c13.306-159.56 103.98-308.47 190.32-382.97 7.929-22.655-85.79-122.07-104.08-130.02m599.3 29.331c-12.674 98.11-24.19 231.9-190.64 380.62 28.842 49.12 65.55 99.11 118.39 122.97 3.75 8.439 152.71-154.13 244.34-231l-.485-104.12zm-750.16 21.06c-.346 2.137-6.493 27.907-8.08 27.22.124 1.403 17.05-6.285 18.958-13.351 1.677-6.196 5.557-14.591 5.81-15.777-3.815-26.528-11.03-7.687-16.69 1.903m-62.31 68.59c-6.05 14.602-11.705 41.42-9.618 58.881 29.799 14.915 37.897-47.13 29.883-53.06-4.8-2.028-16.178-5.962-20.265-5.819m920.29 284.48c-2.764 12.373-2.18 16.04 3.328 18.459 9.644 4.228 13.981-.878 21.726-21.03 4.61-11.994 8.719-30.04 5-37.22-18.278-12.753-27.938 30.444-30.05 39.79m-450.66-29.07c-5.848.048-11.477.527-16.688 1.719-49.19 11.251-45.46 97.2-53.813 131.47-154.51 22.05-195.38 32.545-237.72 49.938-65.827 27.04-86.67 43.545-104.09 57.16 10.945-1.281 129.06 108.86 135.16 124.41-7.514-21.317 228.51-73.2 354.22-21.09 15.417 5.522 132.86-113.98 129.16-127.31 15.245-26.688-148.03-56.673-168.62-73.34-16.894-90.93 114.06-140.74 23.375-138.09-16.505.482-40.08-5.01-60.969-4.844m410.94 102.16c-2.905 3.434-5.842 5.257-9.625 9.281l-8.625 11.375 6.281 10.156 16.09-17.75zm-115.21 114.36c16.953-7.649 77.13-36.819 79.71-30.08l-1.274 29.2c-9.207-3.01-68.62 6.809-34.26 68.14-21.64 48.72 26.583 73.846 60.36 41.632 70.799 24.29 61.32-46.55 46.714-57.996 11.514-17.883-2.957-55.96-10.16-56.09 0 0 61.782 13.928 55.74 2.928-2.758-5.02-6.207-13.677-19.938-22.844-15.824-10.565-43.624-6.73-66.12-11.438-24.05-5.03-39.542-13.636-59.756-14.849-30.512 2.781-58.991 29.565-51.02 51.39m-688.51 229.92l-85.12 22.75c0 0 27.535 63.899 37.06 120.87 11.654 69.69 2.344 145.47 2.344 145.47l247.06 1.25z" fill="#e2cf00"/>
   <path d="m1604.33 1321.83c-32.522-11.294-33.19-31.763-34.3-57.851-1.922-39.569-1.576-81.21 4.1-113.44 2.175-9.802 3.345-14.818-6.442-18.283-5.398-1.862-10.795-1.113-16.193-1.939v-24.391c10.251-.55 19.77-.528 28.426 4.595 3.897 2.373 8.238 5 8.238 5 12.745-12.05 46.22-13.848 62.12 1.037 10.55 10.633 13.957 19.529 14.641 43.48.505 17.663 0 18.866 0 18.866l18.351-.103v23.732h-18.351c0 0 .409 11.796 0 37.37-.319 19.9-.703 32.912-2.091 42.38-6.253 33.03-35.664 46.995-58.5 39.549m35.21-40.862c6.392-17.04 3.722-82.88 3.722-82.88-27.395-10.53-39.01-27.02-50.17-38.757 0 0-4.648 73.09.901 112.45 5.06 32.648 34.516 37.515 45.542 9.185m.154-110.72c1.492.218 3.198.318 3.422-.315 2.096-5.917-1.548-30.669-7.738-35.636-16.661-13.37-31.891 0-31.401.602 7.864 10.685 17.09 22.423 28.999 31.683 2.256 1.888 4.171 3.286 6.717 3.667m-818.5 46.634c-108.4-154.72-208.85-301.9-342.21-464.1 0 0 .111-62.693.578-124.87l409.69 587.45zm379.5-202.15c53.707-58.29 94.39-120.4 130.5-183.87 41.16 73.09 88.8 132.64 141.4 181.8-51.571 52.13-98.36 111.78-135.4 186.75-30.11-57.29-69.16-117.06-136.5-184.68m356.46-18.741c22.909-24 42.628-50.888 61.16-79.27 20.593 29.19 33 51.04 60.667 81.84-23.754 25.16-43.73 50.44-60.01 77.957-19.598-31.23-40.03-60.27-61.819-80.53m-516.51-28.917c-3.492-29.386-9.477-64.55-18.08-94.82l74.8-70.53c-8.07 63.02-20.465 111.38-56.72 165.35m357.51-222.3c16.74 22.24-11.51 34.579-22.18 24.683-21.628-20.06 10.05-40.79 22.18-24.683m-741.7-140.03c-12.412 7.955 22.306-193.89 117.61-298.21 57.966 166.03-44.31 259.12-117.61 298.21m470.16-.747l-63.29-17.08 31.516-88.52c0 0 59.43 13.923 54.36 32.3-16.499 59.836-22.581 73.3-22.581 73.3m-293-34.03c17.14-28.18 30.15-59.24 42.13-91.03l89.997-12.473-52.16 101.16zm381.47-124.22c-48.986-97.54 8.724-251.91 115.31-294.4-3.84 98.91-34.529 199.1-115.31 294.4m-329.24-27.713c2.156-34.643-1.813-70.947-6.604-103.12l222.79 29.696 7.784 93.38zm163.04-148.36c7.55-29.703 14.258-54.42 28.836-78.5 16.222.517 82.01-10.302 73.62 2.479-17.887 22.881-26.443 60.02-38.16 83.38-12.291-1.302-67.988 8.289-64.3-7.364m-147.57-17.02c-22.532-7.951-53.34-10.172-65.32-27.597l23.437-74.27 69.41 21.294zm194.8-708.62l54.4-.519c0 0 261.38 334.44 359.35 464.59-3.264 13.248 1.094 125.52 1.094 125.52-138.76-195.28-414.84-589.59-414.84-589.59m-501.24 466.64c-14.616-15.69 8.629-29.593 18.293-15.573 8.512 12.348-10.585 23.848-18.293 15.573m293.28-54.835c.844-77.5 55.803-169.48 55.23-167.13-.636-.151 7.833 75.77 18.395 99.66-2.85 4.209-71.03 72.33-73.63 67.48m-234.11-25.719c-42.61-81.46-93.81-143.19-138.41-186.43 55.54-52.53 97.18-117.42 139.91-181.34 35.27 67.05 81.13 128.33 132.55 186.57-51.584 50.656-100.32 122.42-134.05 181.2m-342.75-165.36c24.958-24.895 61.836-81.52 61.48-81.59 17.548 28.664 36.05 58.33 61.52 82.02-.269-.255-39.474 41.882-59.72 81.5-18.06-33.01-41.912-61.755-63.27-81.928m-3.545-180.17v-24h17.952c0 0-.204 1.952-.062-30.773.199-45.779 2.486-59.841 11.637-71.53 24.652-31.491 69.881-21.833 81.76 17.459.903 2.987 2.943 10.557 3.148 20.578.532 26.05.575 69.28-.284 96.28.432 10.578-3.342 24.376-6.06 26.736 1.309 9.614 16.438 11.549 25.921 10.802v25.11c.047-.14-9.623.919-21.02 0-4.8-.387-15.887-9.527-15.887-9.527 0 0-17.529 12.05-33.29 11.727-51.55-1.066-45.827-65.41-45.676-72.76zm41.29 6.332c0 0 .041 9.04.591 15.08 1.818 19.946 14.833 30.28 27.808 26.735 6.475-2.01 10.274-5.914 10.274-5.914-11.04-16.38-24.16-30.14-38.674-35.903m47.902-99.85c-5.509-30.09-33.843-34.698-44.52-9.24-1.924 4.587-3.53 40.851-3.53 40.851l.221 42.839c22.988 5.05 35.673 19.801 50.03 36.535 0 0 2.882-76.993-2.202-110.98" fill="#d40000"/>
   <g transform="translate(-649.37-550.75)">
    <path d="m1118.19 80.6l-2.046 1695.69 1055.06.195-.357-1693.14zm964.19 13.271c-8.572 93.82-10.07 167.35 38.61 264.66-8.794 9.222-75.04 11.836-95.91 22.755-.382 2.621 5.362 7.156 5.362 7.156 21.84-10.135 107-19.38 107-19.38-35.666-62.16-65.01-181.73-42.919-273.44l61.47.195-.39 451.8c0 0 4.834 87.21 6.655 136.34-32.727-42.29-76.13-101.37-104.47-145.22-34.384-48.37-72.66-105.11-111.97-158.34-11.589-16.772-28.11-38.531-41.594-58.12-21.17-30.26-38.671-53.739-60.62-86.31-23.442-33.727-45.916-64.34-73.78-103.5-23.62-33.33-24.719-37.28-24.719-37.28zm-403.69 1.752c39.845 69.24 111.17 92.69 129.11 97.36l10.432 15.243c-84.09-16.479-129.12-70.46-150.27-103.84-1.645-2.597-1.46-8.567-1.46-8.567zm-39.438 0c-11.02 26.15-26.446 41.17-41.07 57.01l.505-16.817c.452 1.054 21.889-22.733 29.27-40.19zm19.293 0c0 0 .322 4.467-1.01 8.138-8.446 27.26-60.869 79.01-59.36 71.26l-.534-13.349c-.23.574 39.38-37.716 49.756-66.05zm-38.12 0c-4.086 7.61-19.328 30.597-20.707 24.23l1.353-24.23zm119.77 0c6.607 9.562 12.609 16.555 19.555 26.334 1.295 1.864 2.075 4.068 1.75 4.906-1.054 2.716-4.194.699-12.871-6.992-14.233-12.616-23.918-24.25-23.918-24.25zm-53.02 0l12.875.031c26.667 44.29 74.51 67.854 91.07 73.01 4.417 4.869 9.18 13.776 11.03 15.746-44.658-12.09-94.69-49.852-114.98-88.78m31.31-.187c14.203 20.494 36.457 34.862 48.992 44.669 6.742 5.284 15.643 16.07 14.811 18.217-27.918-8.823-60.57-39.769-75.55-62.699zm-54.733 12.681l7.759 12.352c-18.801 31-42.38 58.927-73.822 80.939l-.169-16.189c35.682-25.696 51.1-51.52 66.23-77.1m12.586 17.903c22.415 30.19 70.72 76.926 148.19 90.89 0 0 4.399 3.974 10.816 12.711 8.141 11.08 8.269 11.522 9.344 29.688.72 33.25 11.523 78.36 22.25 106.75-1.329 7.06-2.568 10.652-15.875 28.625-55.45 74.895-173.58 145.73-231.78 49.05-19.409-30.975-21.298-90.36-22.529-127.39 0 0 .366-2.605.513-3.31 1.401-6.722 3.322-5.663 13.828-2.784 10.651 4.572 21.742.879 33.01-2.188 12.834-5.184 13.901-1.187 1.524 10.364-4.28 3.995-9.519 10.1-8.968 9.807.551-.294 7.75-3.234 10.933-5.656 9.89-7.529 12.228-4.645 8.562 3.641-15.548 35.15-18.308 36.549 3.563 46.31 4.559 2.035 7.671 4.309 10.229 6.541 14.954 14.07 9.584 6.492 5.403.03-6.434-10.113-.618-15.458 10.243-9.196 7.257 4.185 16.791 7.562 21.976 5.96 10.06-3.276 13.13-14.299 10.149-26.429-2.389-6.709-16.14-18.559-12.969-6.156 8.264-.372 15.401 11.348 8.219 19.281-5.419 7.308-15.08 3.362-29.906-6.438-8.19-6.156-18.14-3.01-17.75 4.563.259 5.084-6.94 3.915-11.618-2.563-2.598-3.597-.835-13.953 4.045-23.764 30.73-61.78 4.822-121.69-48.4-104.8-5.852 1.857-11.13 3.364-11.13 3.364l-.288-23.635c30.556-21.292 62.967-55.25 78.41-83.27m31.07 110.91c-8.02 9.686-5.18 18.307 12.438 9.625 14.346-7.07 16.333-7.904 31.969-8.469 22.19-.802 42.1 6.256 66.75 21.375 16.335 10.02 18.715 10.779 14.281 4.5-13.194-25.25-91.18-63.58-125.44-27.03m-75.36 2.891c15.401 3.88 30.18 14.05 27.607 18.265-.926 1.516-1.821 1.804-3.781.781-11.267-5.565-29.23-14.665-55.19-3.563-2.862 1.224-4.451-.674-4.438-4.125.026-6.698 11.303-12.05 23.21-12.48 4.24-.005 8.861.213 12.585 1.121m89.46 19.586c-9.18 4.771-12.332 7.311-16.233 5.179-9.317-5.093-7.349-1.097-1.562 9.156 4.083 7.235 4.04 8.723 3.437 13.156-.658 4.818-.559 5 4.125 10.156 8.762 11.513 17.477 22.619 30.595 31.354 4.09 2.723 9.555 5.821 9.968 5.834 1.306.04.807-1-1.531-3.281-16.8-16.16-30.05-30.642-12.942-24.49 19.919 6.494 38.865-1.597 54.4-6.879 6.333-1.953 12.987-3.6 14.637-3.599 14.347.015 17.737-5.957 8.563-15.06-31.04-34.802-56.791-42.994-93.45-21.523m73.64 6.523c6.417 5.926 9.798 9.144 9.156 10.688-.688 1.656-5.628-1.149-13.906-5.563-16.653-8.879-35.534-10.968-59.12-4.156-18.315 5.288-12.909-3.106 7.5-11 16.341-7.535 38.885-5.284 56.37 10.03m-171.02-11.988c13.99-.224 28.562 4.368 38.31 12.769 6.797 5.861 1.828 7.225-9.219 2.656-16.709-6.911-30.789-8.01-44.5-1.594-4.304 2.01-9.267 4.412-10.625 4.281-2.292-1.551-3.266-6.06-1.281-9.25 5.511-5.409 16.438-8.688 27.319-8.863m230.59 4.8c1.026.044 2.574 1.677 4.875 4.906 4.185 5.875 4.344 8.776.875 19.06-4.236 12.56-5.935 10.522-7-7-.691-11.368-.71-17.05 1.25-16.969m13.875 18.938c1.597-.226 3.458 2.588 6.437 8.406 2.08 4.06 1.587 5.275-4.906 24.281-2.717 7.954-5.275 14.289-5.344 14.344-1.998 1.574-1.739 1.435-2.594.344-4.63-5.916-4.299-17.453-.313-31.28 3.02-10.48 4.666-15.803 6.719-16.09m-126.06 1.438c.504-.043 3.607.633 3.607.633-.321 28.15 21.449 22.488 24.33 2.492 0 0 5.372-.553 6.193.78 2.58 4.187-3.412 16.23-12.373 20.17-6.54 2.919-15.427 2.208-20.737-2.68-1.485-2.754-5.985-13.214-5.146-17.552 1.045-2.533 2.613-3.713 4.125-3.844m-12.972 3.289c.223-.011.434-.011.656 0 2.137.109 3.69.686 4.534 3.274l4.664 14.301c-3.432 4.102-16.473-4.21-16.448-10.449.017-4.308 3.256-6.96 6.594-7.125m-88.52-.029c3.289-.319 4.45.048 4.832 3.118 1.112 9.293-8.183 19.391-20.237 19.94-11.665 1.305-17.963-7.744-17.604-16.568.027-6.707 5.798-7.546 6.439-2.244 1.85 15.309 14.931 16.189 20.906 7.736 2.26-3.313 1.745-11.473 5.664-11.981m143.24 3.115c.928-.038 2.17.312 4 .938 12.03 3.84 12.354 5.699 2.063 9.406-12.273 4.421-13.07 4.999-10.188-3.563 1.608-4.776 2.083-6.697 4.125-6.781m-127.54 1.349c8.919.553 9.668 8.1 1.823 10.62-11.681 5.155-15.616 4.818-11.09-2.787 2.455-5.387 4.649-7.73 9.268-7.833m-55.802 2.713c1.065-.001 2.286.4 3.594 1.375 1.34 4.047 3.613 7.159 5.406 11.344-1.832 1.818-6.2 1.789-8.985-.419-5.586-4.43-4.629-12.255-.015-12.3m280.44 8.719c3.464.021 6.985 5.508 8.136 9.597-12.1 15.547-10.199 44.574-13.01 53.34-2.439 7.132-3.226.976-9.959-17.495-2.718-7.456 10.981-44.522 14.15-45.35.225-.058.457-.095.688-.094m12.375 15.937c2.694 1.538 6.353 5.069 7 10.625.375 3.225-1.222 7.51-2.25 11.75-2.444 10.08-5.749 29.12-6.938 46.719-.506 7.488-.48 14.223-.813 14.875-3.642 7.135-11.319-12.06-10.661-27.347 2.386-12.203 3.718-54.946 13.661-56.622m17.09 21.938c1.71 2.376 2.794 4.195 3.322 6.244.916 3.56.148 7.813-1.947 16.881-5.552 24.03-4.747 49.938-1.125 76.53.762 5.595-3.123 2.792-9-6.844-3.259-5.343-5.344-12.666-6.344-21.313-2.048-18.904 1.899-44.53 5.258-64.746 1.486-8.947 2.522-16.831 9.836-6.754m9.219 14.625l9.719 11.719c0 0-4.15 26.941-4.125 41.31-.678 5.383 4.83 63.922 6.625 68.66-5.972-6.69-8.765-10.625-15.312-19.03-.744.122-6.414-57.675-2.5-79.78 2.367-13.371 5.594-22.875 5.594-22.875m15.25 23.281c1.632-.06 3.706 1.779 6.313 5.438 2.352 3.301 3.498 6.01 3.625 10.125.093 2.997-1.391 5.311-1.438 10.656-.274 31.843 4.03 61.895 9.445 90.87 1.91 10.366-1.807 6.138-7.955-.42-5.636-6.01-5.738-8.29-8.747-16.825-.601-1.703-6.601-60.43-6.55-64.864.212-18.247.735-28.411 2.839-32.789.687-1.43 1.49-2.152 2.469-2.188m-35.32 63.984c0 0-11.314 5.823-14.278 3.779-4.778-13.03-22.02-47.91-22.313-54.09.306-2.029 7.07-11.206 7.07-11.206 9.526 20.663 18.1 41.803 29.525 61.51m-212.94-41.892c-3.413 4.01-7.478 2.336-15.705-1.278-4.218-1.295-3.565.441-10.534 4.062-5.405 2.808-7.303 2.88-10.883 2.85-4.723-.04-6.424-1.696-6.437 1.626-.001 1.837-.283 10.139-1.398 14.43-1.518 5.841-2.844 8.419-2.01 9.432 2.402 2.2 4.42.858 9.484-4.03 8.4-8.114 14.07-5.789 23.425-2.771 10.643 3.432 12.844 4.696 22.578 1.294 13.791-4.82 22.1-4.825 27.586-1.328 9.464 6.03 12.319 5.672 8.421-10.806-1.257-5.312-1.346-13.549-2.12-14.976-.877-1.616-3.283 2.994-5.801 4.688-4.814 3.239-7.302 3.179-18.16-.375-6.428-2.107-13.635-8.997-18.448-2.815m174.55 2.15c4.2 9.897 20.917 42.967 20.409 46.662-3.256 2.924-7.614 5.05-10.197 2.44-8.358-15.25-10.863-23.471-17.654-40.586-2.026-4.091 4.04-14.517 7.443-8.515m89.78-1.216c1.185-.165 3.658 2.294 5.497 4.755 5.724 7.657 6.069 8.607 6.25 16.813.658 29.753 4.397 64.776 12.781 91.78 1.65 5.315 4.778 11.779 4.438 12.656-2.811 4.098-15.847-6.875-19.781-23.563-5.427-21.19-8.603-43.3-10.328-57.693-2.185-25.314-2.172-43.43 1.143-44.749m-100.28 16.411c4.816 9.286 10.882 25.31 14.967 34.924 1.862 4.174-7.66 7.464-9.85 6.04-3.804-2.84-5.604-10.834-8.101-15.625-7.948-17.375-9.376-17.74-4.972-23.15 2.712-3.762 5.949-8.373 7.957-2.191m119.16 10.656c.699 0 1.604.681 2.75 2.156 5.02 5.938 8.437 10.475 9.75 14.875.953 3.193.188 5.589.531 11.375.899 15.16 4.879 35.846 16.16 78.19 1.1 4.129 2.592 9.02 2.406 10.344-1.091 7.774-12.493-4.827-15.813-17.844-3.849-14.775-10.868-33.646-12.937-51.09-4.26-27.695-6.62-48-2.844-48m-129.2 11.194c9.482 22.12 10.231 22.09 4.261 23.837-6.311 1.851-6.69 1.244-14.1-13.821-5.409-10.994-6.478-12.373-1.929-16.335 6.944-8.183 8.766-.38 11.77 6.319m-132.05-5.277c-1.08.022-4.255 2.43-7.448 3.694-7.833 3.1-21.743 3.313-30.22.759-15.02-6.03-10.792 1.801 2.497 6.567 10.314 3.469 30.743.78 33.908-5.647 1.947-2.057 2.653-5.401 1.265-5.373m114.23 11.634c8.464 13.08 11.01 18.305 9.578 19.323-1.353 1.353-8.06 3.881-10.813 2.531-3.459-1.695-6.472-9.772-7.992-16.11 1.06-3.093 6.623-8.64 9.226-5.749m-212.02 5.511c3.783.015 13.621 13.239 11.625 15.625-.554 1.226-4.243.058-12.861-2.329-2.878-1.058-9.382-1.91-7.324-6.082 1.024-1.895 7.05-7.219 8.56-7.213m202.94 18.13c-.846 2.261-7.228 2.792-9.937 2.625-2.333-4.85-2.945-7.165-3.594-10.375.881-1.927 5.252-6.917 7.409-5.938 1.291 1.153 5.463 11.298 6.122 13.688m176.09-12.75c1.35.047 3.686 2.413 7.156 7.375 6.558 9.377 5.669 8.696 10.375 31.09 5.343 25.401 11.733 43.491 18.19 69.44.088 4.306-1.655 3.162-6.438.25-7.813-4.758-10.383-10.04-12.844-23.813-4.199-22.744-13.07-43.787-16.469-70.66-1.797-8.886-1.942-13.756.031-13.688m-196.85 9.08c4.613-.157 3.992 6.95 2.671 8.1-3.371 2.936-12.663 2.06-14.258 2.225-3.569-5.596 8.58-10.136 11.587-10.325m220.29 24.17c1.357.187 4.998 5.329 11.813 14.906 6.547 9.202 5.113 7.699 9.03 22.844 5.544 20.928 14.718 36.02 20.09 55.28-.001 2.202-2.671 1.918-5.219.875-4.962-2.079-9.392-5.591-13.594-9.03-2.875-3.104-2.853-7.05-11.344-36.25-3.064-10.536-3.861-13.274-7.688-29.28-3.199-13.385-4.632-19.556-3.094-19.344m-709.88 62.52c22.262 40.967 14.02 59.13-33.866 64.808-3.458-.486-.194 20.988-.29 30.585 23.994-13.725 53-16.931 79.74-25.548-7.28 23.312-20.06 49.73-58.767 45.662-40.457-31.26-88.08-12.479-120.38-25.17-17.573-6.547-24.283-26.06-24.492-29.412 21.07 2.111 44.867 6.625 65.29 5.148-22.306-17.18-15.782-40.962-12.638-51.836-26.1-32.911-4.311-69.931 33.601-61.32 3.918.89 11.653 4.7 11.653 4.7 36.571-32.739 78.961-1.982 60.15 42.39m739.92-19.93c1.514-.144 4.859 3.809 11.562 13.188 19.886 27.82 37.1 53.7 36.844 55.16-.859 4.792-21.583-3.605-26.813-10.469-5.957-7.818-22.713-48.07-22.688-54.47.001-2.135.301-3.331 1.094-3.406m-809.87 119.16c10.344 1.519 13.233 2.394 13.12 6.438.884 3.433-25.1 3.891-28.625 1.344-2.813-2.034.815-6.493 3.594-7.563 4.03-1.213 8.01-.789 11.906-.219m716.37 3.688c-145.19 68.57-204.59 250.96-131.3 390.73l-10.09 7.284c-71.851-147.78-18.401-306.13 98.34-386.11 4.727-3.36 15.182-5.954 20.04-9.176 0 0-47.623 10.865-63.745 17.17-3.269-.112-12.877 3.275-23.2 14.466-9.02 8.359-37.23 47.25-36.33 48.604l-74.956 3.02.064 2.77 73.57-1.7c-75.76 124.73-57.15 243.41-10.368 326.47l1.156.777c2.72 1.83 9.876-3.405 24.719-17.469 6.113-5.793 13.818-12.988 17.12-16 9.174-8.405 22.24-22.904 31.22-33.375-50.94-103.82-.689-240.57 118.51-302.19.204-3.28-1.271-13.297-1.271-13.297 0 0-4.504-4.047-7.166-3.631-132.8 58.5-186.01 203.77-132.01 335.86l-8.906 9.691c-67.847-136.8 4.981-307.78 131.97-356.22-.061-3.091-2.812-7.04-6.226-4.661-137.09 63.65-196.84 226.18-129.68 364.72l-8.46 7.474c-76.4-151.69 4.099-321.67 130.3-379.75 3.723-.863-3.312-5.469-3.312-5.469m-738.95 1.414c0 0-.962 8.08 1.89 10.836 1.311 5.763-.784 5.138-5.687 3.969-12.07-2.878-2.655 3.989 7.219 9.531 9.727 5.46 8.421 5.276-.062 10.656-5.703 3.617-5.11 4.974-4.344 7.719 1.138 4.074 1.917 1.361 4.281-.813 4.965-4.564 8.931-5.705 13.344-5.688 6.627.026 7.298 5.331 6.125 9.469-2.635 8.684-11.575 8.222-18.906 6.06-11.993-3.532-31.581-24.334-31.28-36.578-.833-10.969 14.176-15.666 27.418-15.16m53.922 2.68c4.649 1.709 10.5 3.993 16.938 6.688 8.889 2.824 17.898 7.422 23.707 11.294 17.689 11.792 16.61 35.38 15.333 37.72l-91.39 86.61c0 0-5.162-2.521-10.02-5-15.366-7.84-19.06-11.971-10.531-16.313 4.137-2.106 5.47-6.634 6.06-11.06.793-5.934.483-4.922 4.03-7.625 6.175-4.705 6.469-6.648 6.5-14.469.02-5.177.554-7.561 2.438-10.813 1.495-2.581 3.07-7.969 4.125-14.156.173-1.016.224-3.557.422-4.449 1.08-4.84 2.613-6.265 3.64-7.364 1.024-1.096 2.668-4.827 3.813-8.06 2.55-7.213 2.07-6.143 6.188-5.344 5.982 1.161 5.124 4.65 4.469 10.188-.318 2.687-2.109 4.573-1.5 3.969.817-.811 4.49-2.546 5.25-2.719 1.914-.436 3.821.22 4.313 3.219.274 1.67-.453 4.747-.406 7.125.122 6.163.373 13.546 1.781 18.406 6.784 23.419 5.435 20.18 3.125.688-.553-4.665-1.204-11.516-.531-17.219.474-4.02 1.626-8.999 3.188-11.719 4.01-6.99 4.23-8.371-4.469-11.813-3.232-1.279-8.736-3.518-9.875-5.75-1.394-2.732-5.538-6.449-10.937-7.719-13.13-3.088-20.77-15.772-18.875-17.656 1.242-1.235 6.53.381 9.875.5 11.986.427 14.533-.19 19.844-4.75 2.828-2.428 4.097-4.589 6.348-4.747 2.375-.045 5.402 1.72 7.152 2.341m622.07 14.03c-122.78 99.33-144.3 260.01-83.05 384l-10.599 8.328c-76.974-145.44-25.27-302.33 69.29-388.13zm-708.82 11.843c2.167-.203 4.537 2.975 13.156 12.188 5.806 6.205 11.852 11.595 15.03 13.406 7.212 3.453 5.635 2.02-.375 7.719-6.144 7.05-2.751 12.843-10.09 9.313-19.1-8.967-32.517-35.387-20.09-41.75.937-.48 1.653-.807 2.375-.875m-9.5 27.781c.466-.036.969.034 1.469.156 2.356.575 5.213 5 8.281 8.094 8.491 8.549 12.432 12.342 19.219 15.344 6.67 2.95 6.851 3.667 2.156 8.875-1.707 1.894-2.725 4.17-3.125 5.438-.4 1.267-.505 2.881-1.938 3.156-7.436 1.428-32.15-13.564-33.12-23.906.798-9.673 3.24-16.864 7.06-17.16m52.37 2.875c4.288-.11 6.806 3.711 6.781 9.906-.017 4.292-2.433 6.04-7.344 7.875-10.497 3.93-16.965-3.581-9.625-11.875 3.085-3.486 7.254-5.831 10.188-5.906m-6.406 25.22c7.918.031 10.212 6.708 4.406 12.469-5.454 5.411-16.461 5.438-16.438-.5.018-4.658 6.991-11.989 12.03-11.969m-49.1 7.989c5.358 1.584 18.398 10.977 24.13 12.08.302 3.168-3.511 4.03 1.903 9.992 2.458 2.705 2.668 4.549.531 5.688-6.541 3.485-29.2-7.532-30.719-18.875-.737-5.539 1.103-8.688 4.152-8.886m29.567 13.574c7.796.325 16.615.556 15.688 4.281-.673 2.701-3.462 9.835-7.03 8.5-1.734-.649-3.42-2.375-4.625-3.531-4.16-3.99-5.266-9.302-4.03-9.25m294.83 32.28c22.71 20.561 105.22 235.34-66.72 391.82l-36.488 10.932c165.08-129.62 137.62-313.64 93.07-393.03.001-2.33-.647-2.065-4.755 1.656-3.597 3.257-3.98 3.961-2.531 4.563 50.34 77.47 69.16 296.26-129.19 401.84-3.327 3.456 3.408 2.929 3.408 2.929.351-2.842 89.31-24.457 83.03-25 82.913-73.29 155.1-248.08 65.24-400.43-2.17-1.426-5.069 4.712-5.069 4.712m-28.641 24.318l-1.156 4.844c71.964 141.28 3.271 314.37-130.5 378.44 2.203 1.616 4.646 2.73 7.104 3.881 151.75-81.71 195.51-254.66 129.31-388.61zm-12.03 10.02l-.839 5.127c59.58 120.24 12.28 287.1-129.91 354.79-1.349 7.278.022 5.152 6.672 4.807 164.52-88.23 179.99-256.01 128.51-364.97zm-10.219 14.419c-4.646 6.142-13.154 9.322-15.981 17.227 47.796 126.32-13.977 247.92-118.55 299.17-.085 6.358-4.646 22.09 6.426 19.573 129.2-58.53 185.41-214.09 128.92-336.54 0 0-.736.537-.815.565m648.95 244.23c4.757.334 9.02 1.775 13.435 2.351 16.05 2.08 26.459 13.78 19.287 20.896-2.356 2.338-5.648.993-16.07-4.107-4.79-2.343-5.559-4.538-6.55-9.822-1.188-6.336-2.453-6.977-4.063-2.062-1.627 4.966-3.378 8.05-8.857 6.791-15.387-3.576-9.571-14.166 2.82-14.05m-171.66 107.55c-38.536-21.868-86.12-61.3-113.33-106.11-13.525 25.377-29.416 71.56-29.416 71.56l-60.48-16.895-.712 1.259 59.782 17.227-5.827 19.948c-.63 2.156-9.887 24.861-9.887 24.861l93.37 43.573c-5.785 9.05-12.1 14.907-20.12 23.351-4.534 4.761-4.661 10.931-4.661 10.931l129.46-123.49c0 0 16.701 24.766 22.913 30.383 5.826 5.267 7.636 6.542.839 8.115-30.418 4.457-54.03 27.49-45.795 58.38 1.33 3.437 4.01 2.171 9.779-1.456 20.2-18.289 69.56-35.22 71.24-30.923l.195 19.672c-53.15.769-47.697 39.84-43.806 60.795 0 .452-15.368 13.888-15.368 13.888 5.435 2.85 10.756 5.798 15.779 9.31-4.671 26.06 17.535 63.841 61.16 44.503 3.772 3.869 7.334 7.756 11.493 12.613 4.463-5.169 9.61-17.344 9.61-17.344 21.668 9.805 66.63-12.142 43.632-62.41l12.678-12.09-12.178-7.677c-.316-12.781-2.294-24.2-9.926-35.34 0 0 20.456 5.215 35.594 6.093 9.347.845 17.228 1.083 16.442-4.568-.231-1.663-1.628-9.798-2.541-12.464-4.514-13.168-27.933-22.836-50.677-24.11-3.71-.208-7.707-.092-8.499-1.055-1.487-1.806 1.18-4.37 3.624-3.945 12.456 2.167 24.436-7.04 26.594-18.75.429-2.053 2.972-5.814 6.625-9.813 6.481-7.095 6.99-6.909 6.867-17.16-.085-7.116 1.163-8.695 4.445-13.465 4.236-6.801 6.204-15.675 4.074-24.856-.675-2.909-3.431-7.02-1.083-14.274 3.82-11.793-4.572-22.578-15.575-28.722-.88-.251-.615.612-1.344 1.484-9.982 3.108-22.14-4.045-22.14-4.045-2.508-1.232 8.5-65.2 31.31-59.49 3.793 2.3 5.396 13.417 5.11 13.613 1.05-.026 1.618-6.542.142-10.892-1.546-4.559-5.085-8.905-11.89-7.62-5.276.996-11.365 7.998-14.12 11.51-10.655 13.579-10.776 22.247-14.336 36.693-1.711 6.828-1.898 6.434-11.348-.951-6.783-5.301-10.07-6.994-7.71-10.1 1.061-1.397 5.455-5.811 5.455-5.811l82.57-79.45v795.67h-466.94l3.268-102.25c8.762-71.896-6.653-222.87-18.317-237.07 8.996-10.11 36.91-34.472 35.37-35.571l-3.7-2.189-14.758 13.574-36.445-11.04c-15.547-10.737-31.412-20.664-47.87-24.889-26.874-6.899-78.63 15.08-78.68 15.307-82.69 6.123-148.91 39.7-147.98 39.444-3.601-3.306-8.367-13.861-8.493-13.799-42.624-59.32-84.53-92.54-141.78-133.09l72.51-40.05-171.83-179.53-1.514-145.78 248.92-237.97c1.468-4.109 79.42 55.05 108.44 103.2 5.565-23.535 15.929-44.905 24.565-68.01.903-2.114 49.52 17.975 63.945 18.827 2.156.127 3.896-2.147 3.896-2.147l-64.17-20.867 13.13-37.584c0 0 4.569-10.212-.588-11.906-29.25-9.461-56.699-26.14-84.67-40.35 0 0 13.07-14.526 13.263-15.169.185-.605 5.483-8.399 4.219-11.09-14.231 13.807-130.36 121.51-130.36 121.51-3.304-18.484-8.497-24.946-19.787-36.35 6.152-.295 15.778-6.375 21.343-10.429 17.02-12.399 26.29-34.524 24.06-47.45-16.339 5.197-31.09 11.292-51.56 15.01-11.499 2.087-22.409 7.28-29.02 12.851l-1.016-20.624c.039.235 27.533 4.819 40.27-13.631 10.974-15.9 6.475-34.1 3.955-43.38.284-2.061-.326-1.829 4.406-6.188 3.494-3.217 8.938-7.375 8.938-7.375.234-1.17-14.197-6.518-16.636-11.403 3.842-38.23-26.699-52.983-52.55-46.19-4.831 1.457-7.137 2.363-12.883-4.04-.856-.953-7.75-8.236-7.75-8.236 0 0-3.043 7.02-4.602 10.09-5.07 9.997-6.461 6.988-17.391 7.524-27.688 1.357-40.04 23.713-33.688 51.16 1.492 6.442.823 5.449-3.406 13.594-2.16 4.16-5.688 9.469-5.688 9.469 0 0 5.078 2.814 8.5 4.344 5.068 2.266 5.332 4.916 5.313 9.969.707 11.137 3.152 18.593 9.554 28.16-21.689.499-38.33-1.526-57.968-8.05 3.01 30.2 25.27 41.45 52.53 45.87 0 0-2.861 2.672-5.87 3.863-6.379 1.848-10.372 7.451-10.313 12.469-.918 4.792-4.02 9.604-6.875 12.165-4.245 3.674-7.734 8.852-6.06 18.867-.428 7.256-2.182 9.355-4.313 12.12-4.278 5.564-5.723 11.09-4.656 18.406.496 3.403 1.547 10.689.844 18.219-1.173 12.552 3.324 17.258 9.03 26.09 3.697 5.724 2.918 5.878 2.063 10.03-2.053 9.974-4.189 15.1-6.406 22.688-4.961 16.974-5.151 29.843-1.094 33.16 6.113 4.992 13.03 3.489 16.254 2.495 24.12-7.447 19.945-31.14 21.22-47.03.689-4.087 2.084-6.05 3.439-5.859 6.821 7.983 14.03 12.599 23.316 17.631-32.1 32.673-53.07 52.667-93.66 88.31l1.104-795.86h462.98c0 0 .483 5.888-.62 34.685-2 58.53-4.466 119.84-.625 179.5.645 20.649.221 41.04 3.187 61.47 2.89 19.904 4.168 41.37 13.469 59.906 3.738 10.05 3.858 9.276-10.384 22.438-6.986 6.456-12.922 13.329-12.663 14.54.086.403-.309 1.917.763 1.06.713-.57 5.873-5.678 6.445-6.352 3.858-4.549 10.315 1.29 32.34 7.502 4.32 1.218 10.406 5.286 15.06 8.656 32.922 27.743 79.25 19.09 113.87 3.962 9.828-4.294 12.237-4.737 28.03-6.61 58.49-6.934 120.98-32.488 120.85-32.409l7.633 12.507c0 0 2.874-.531 4.92 2.616 33.641 63.53 143.47 136.13 141.51 132.77l-71.787 39.742c52.26 64.57 171.78 174.13 171.78 174.13l-2.75 157.45c-32.08 25.663-60.31 55.08-88.52 83.81-8.111 8.03-13.838 12.615-10.758 12.767 7.323-1.116 13.648 6.105 19.608 11.11 3.775 4.208 2.863 3.826-1.492 9.575-3.059 4.04-4.181 5.207-4.193 8.126.107 5.649.068 9.435-4.959 13.672-3.123 3.92-4.907 6.431-5.472 11.08-.564 4.639-.52 7.614-3.712 11.718-5.407 1.149-5.919 9.02-4.967 12.543 5.662 5.615 3.076 11.694 3.603 10.418-10.813 11.737-22.16 21.906-14.918 5.497 3.267-6.109 4.406-11.172 4.406-11.172 0 0-5.207 5.394-7.931 7.941-4.169 3.86-5.694 1.587-5.819-10.394-.535-9.07-4.359-21.717-5.877-24.13-.849-1.351-.992.989-.594 9.719.524 11.484 1.892 14.815-2.151 26.28-5.462 15.488-9.348 17.682-.475 17.15 8.405-.506 15.509-.596 19.19 4.42 1.239 1.69 2.834 4.588 6.23 6.294 6.915 3.778 12.415 7.97 16.257 12.149 12.43 13.517 8.863 25.6-15.17 17.406-12.653-4.314-4.366-9.746 9.235-8.489 8.354.783 9.761-2.306 2.531-4.518-13.453-2.487-15.617-4-24.486 6.544-37.25-3.686-58.17-24.508-68.22-41.473-4.204-7.095-5.49-8.451-2.563-12.469 1.153-1.582.453-1.099-1.531 1.094-1.985 2.192-7.396 4.03-9.185 5.607-12.513 12.483-25.2 25.896-36.471 36.05m162.12-87.44c6.324.781 6.199 6.089.555 11.193-5.304 4.02-8.938 4.792-11.93 1.776-5.242-5.283 1.527-13.01 11.375-12.969m18.411 3.679c5.096-.022 11.597 2.324 19.319 8.74 9.218 7.659 11.323 26.21 2.859 29.419-3.544 1.344-4.095.029-11.651-7.151-5.095-4.841-10.621-9.223-16.06-11.813-11.11-5.287-12.534-7.286-5.03-10.887 1.581-.81 3.628-2.722 4.562-4.219 1.928-3.088 2.514-4.075 6-4.09m-12 24.695c1.474.043 3.448.941 6.531 2.594 18.727 10.228 27.882 26.26 21.544 35.31-4.157 5.936-10.921 3.67-16.08-4.749-2.905-4.742-10.62-10.812-19.375-15.25-10.03-5.083-10.242-5.811-3-9.281 2.972-1.424 5.203-3.438 6.656-6 1.686-2.972 1.826-2.681 3.722-2.626m6 38.21c14.15 14.1 12.531 21.741 3.338 27.484-6.274 3.92-16.34 4.899-19.639 1.652-5.333-4.66-5.193-10 .703-11.719 5.498-1.176 3.438-3.379-1.699-4.683-18.347-5.206-29.621-14.942-9.681-12.831 5.723.606 11.262-3.841 14.255-7.393 4.326-5.253 10.172 4.946 12.723 7.489m-964.81 5.433l412.91 591.13-333.82-.652c0 0-1.256-4.341 1.463-39.772 4.02-48.07-2.151-89.76-13.531-136.69 1.437-.16-15.984-56.964-29.531-84.72-2.465-5.814-2.06-6.377 5.938-7.406 23.63-3.795 49.08-9.515 72.69-19.5 10.972-.966 27.09 3.312 26.22 1.971-.392-.639-14.278-13.372-14.278-13.372-38.546 15.402-74.11 21.04-107.59 24.859 44.44 75.64 60.3 178.6 46.976 271.1l-63.961-.195-.195-455.19zm73.8 87.55c5.831-.228 20.361 10.03 22.14 17.742.363 1.58 4.141 11.07 8.375 19.882.085 1.628 14.399 27.475 8.109 25.22-12.514-17-34.87-45.957-40.495-60.06.001-1.879.242-2.717 1.875-2.781m44.606 25.855c.783 4.272 5.111 15.441 8.53 22.8 8.911 19.18 22.712 49.25 19.906 57.813-1.891 5.77.05 5.467-5-1.656-2.47-3.484-10.18-14.236-12.03-16.719-4.516-6.06-1.478-.501-4.055-10.362-6.147-27.895-16.08-42.55-22.531-58.849-2.301-7.652 12.225 3.891 15.181 6.974m7.936 4.254c1.2.843 17.564 12.349 19.219 14 5.802 20.628 28.993 86.71 22.99 98.52-2.091-1.637-10.93-12.296-12.157-17.786-2.675-31.599-12.702-54.32-23.458-77.875-3.03-7.1-5.404-14.197-6.594-16.858m30.782 23.2c5.181 2.528 10.543 8.318 13.58 13.487 2.03 3.508 3.071 7.637 4.982 16.324 5.931 26.961 17.245 54.29 12.156 83.06-3.173 4.303-10.08-5.453-11.06-15.06-3.27-31.861-6.077-47.12-17.281-84.59-2.174-7.269-3.818-12.966-2.374-13.217m26.28 24.717c1.107.048 3.374 2.106 7.156 5.656 7.357 6.906 8.393 9.451 8.438 20.906.239 16.838 5.848 36.06 6.719 53.06.503 9.808 2.299 35.18.781 36.688-2.141 2.953-11.64-7.799-10.906-24.281 1.21-19.813.227-34.723-8.219-69-3.904-15.842-5.879-22.609-4.188-23 .063-.015.145-.034.219-.031m762.34-100.07c29.503 18.939 19.1 53.892 12.784 58.19 40.739 51.47-22.589 77.83-42.686 59.33-29.75 29.56-80.8 4.786-61.14-43.938-.025 0-37.36-71.37 36.32-66.6 0 0 1.269-28.837-.81-30.16-26.304-1.768-62.06 23.558-72.19 30.563-5.62 3.396-6.849 1.775-6.849 1.775-1.403-14.968-1.439-21.822 4.644-30.17 10.615-14.563 28.16-19.488 51.21-24.548 28.526 8.782 55.687 22.57 82.12 20.425 14.555.085 29.44 2.438 43.546 10.01 9.521 4.49 14.475 21.336 14.475 21.336-14.935 7.813-61.43-6.211-61.43-6.211m-14.03-105.83c.123-5.11 5.894-10.808 11.579-10.145 7.809.563 8.83 9.811 1.887 13.216-2.01 1.623-8.486-.771-8.84 1.024.476 3.149-2.698 1.822-3.311.686-1.075-1.336-1.32-3.247-1.315-4.781m-4.736 20.15c2.868-2.01 5.262-2.186 8.148-2.565 4.43-.539 10.1.13 11.355 4.774 1.235 4.557-7.507 7.239-14.579 7.36-3.601.062-7.767.762-8.848-1.764-1.014-2.37 2.476-6.736 3.924-7.805m-892.95-325.5c5.694-19.786 2.139-30.863 11.625-55.25l23.09 7.688c0 0 .979 23.92-3.676 37.25-4.661 13.315-19.977 23.935-31.04 10.315m172.03 535.09c2.727.328 9.418 9.855 12.438 18.563 2.771 8.07 1.856 18.33 3.875 27.03 4.534 29.817 4.266 59.689 3.063 68.72-.599 4.497-3.5 2.664-7.469-1.625-5.772-6.237-4.974-6.37-4.906-23.688.058-14.841-3.234-51.52-4.75-58.969-2.803-13.782-3.97-26.93-3.313-29.19.184-.633.557-.905 1.063-.844m270.11 3.568c29.741 4.736 53.52 25.04 67.14 58.46 13.152 33.988 16.39 80.36 18.431 122.99-.142 10.2-4.346 7.625-15.361 1.286-12.04-5.879-14.596-4.176-32.16-.154-10.962 2.51-9.971-4.945 8.06-17.312 6.14-4.01 13.285-9.356 10.937-10.156-1.19-.406-6.684 1.071-10.656 4.281-17.694 14.3-22.493 17.779-17.39 3.875 1.289-3.514 5.389-13.264 7.101-17.932 6.41-17.47-.976-24.946-22.742-36.01-5.447-2.767-9.03-7.383-3.594 2.281 4.445 7.903-4.745 14.279-16.12 5.03-7.91-6.428-23.803-2.146-28.935 5.875-4.969 7.768-2.311 22.263 7.485 26.959 8.632 3.718 11.852 1.042 3.503-4.747-10.737-7.445-8.649-20.01 3.41-19.959 2.978.012 8.24 3.331 21.536 10.56 9.515 5.148 16.288 2.971 16.3-4.716.001-5.145 2.95-4.723 9.208-1.63 8.428 4.165 7.504 7.94 3.052 19.583-3 8.131-4.498 17.375-7.25 25.875-7.099 28.611-8.04 61.01-.194 71.11 20.879 26.862 43.05 24.01 62.04 6.264l-.812 29.416c-19.359 15.538-41.976 26.13-76.892 83.73-12.176-15.296-64.42-77.82-148.2-91.95l-18.852-25.795c.32-1.6-14.09-95.93-23.51-128.05 0 0 10.365-15.737 19.78-27.338 37.615-46.34 101.2-99.38 164.69-91.84m-109.26 26.775c-3.223 1.022-4.268-5.403-2.516-6.627 3.874-.324 5.243-.203 9.127.083 2.931.182 2.861 3.541-6.611 6.544m-141.38-4.812c4.183 2.98 9.287 11 14.281 18.313 2.763 4.04 1.196 10.754 1.625 17.375.609 9.387 1.651 24.865 2.313 34.375 1.291 18.547-.447 34.06-3.156 39.656-2.77 6.696-8.388 2.069-9.781-7.094-.335-2.202 1.498-24.946 1.5-37.437 0-21.483-5.49-47.996-6.781-65.19m126.81-.133c1.478-.083 2.602-.031 3.581 1.223 4.511 5.779 6.342 9.274 2.232 12.441-5.446 4.546-10.404 3.401-13.426-5.237-1.944-6.152 2.646-8.092 7.614-8.427m-16.796 5.093c4.862 3.259 9.688 11.839 10.193 18.03-.31 1.699-1.805 3.14-5.07 5.777-3.236 2.965-4.258 2.773-7.87-2.923-5.665-8.851-8.317-14.679-7.207-17.734 2.831-2.942 6.515-4.116 9.954-3.15m198.04 1.121c8.119.688 16.14 4.397 24.04 6.264l-12.05 11.653c-3.584-5.973-7.665-11.945-11.984-17.918m-216.05 6.075c4.452 5.796 12.215 20.953 11.801 26.586-1.136 1.918-2.896 3.628-4.762 4.701-1.482.402-2.815-2.193-7.839-11.08-8.734-15.448-11.291-19.804-6.758-21.661 2.383-.263 6.01-.149 7.557 1.453m-17.61 3.594c4.858 4.321 16.512 27.341 16.848 33.817-.132 1.822-.676 3.402-1.757 4.628-7.328 7.881-5.472 6.611-16.382-15.846-9.212-18.469-11.643-20.291-5.552-22.37 1.348-.46 4.72-1.067 6.843-.229m-17.515 6.01c3.197-.048 4.097 5.304 10.331 17.482 10.436 23.03 14.353 26.23 11.989 28.69-2.911 3.671-4.614 6.253-7.38 1.791-6.294-10.234-12.538-23.29-18.398-34.752-4.691-8.556-5.111-9.594-2.097-11.688 1.728-1.2 4.303-1.505 5.554-1.524m186.28 6.542c-3.921 1.103-19.69 6.097-10.03 7 1.952.182 6.899-1.054 10.375-1.294 9.763-.674 30.07 1.165 29.344-.706-1.852-7.01-24.367-6.363-29.688-5m-199.93 2.155c0 .389 2.531 4.876 5.05 9.273 14.834 28.658 23.08 39.09 20.445 43.623-2.168 2.734-5.519 6.175-7.501 5.359-3.19-1.314-7.442-10.694-18.06-31.927-10.97-21.943-12.11-23.585-6.473-26.435 2.309-1.069 5.111-1.864 6.535.106m-14.817 10.11c6.818 11.08 5.922 9.623 5.844 45.687-.049 22.443-2.933 36.759-6.688 42.28-1.966 2.892-5.436 1.191-7.156-4.469-.787-2.589 1.455-6.435 1.875-10.531 2.653-27.01.8-53.995.862-79.55 2.058-.213 4.162 4.777 5.263 6.584m175.84 8.844c3.175 4.533 2.399 8.185 2.375 14.281-.034 8.621.59 9.257 6.542 4.904 5.276-3.859 5.7-4.108 15.11 2.281 5.585 3.79 12.629 4.219 17.188.031 3.211-2.95 4.322-1.621 8.625-.5 4.682 2.602 6.01 3 16.06-1.875 6.785-3 7.06-3.433 11.09-1.31 7.099 6.256 8.147 3.993 7.187-4.188.019-2.855.846-8.191 1.688-11.656 3.532-14.551-2.188-14.71-9.75-5.437-2.929 3.591-9.457 5.147-15.625 2.25-8.835-4.15-22.625-2.471-32.82-.757-12.06 2.028-17.647-1.297-22.493-5.431-2.746-2.343-9.02-4.434-9.715-2.64-.696 1.794.727 4.62 4.528 10.05m-161.75 20.406c1.511-.326 3.827 4.148 7.219 13.625 4.377 12.232-3.273 54.755-7.875 61.719-2.435 3.654-3.998 5.895-9-.875-1.99-2.976-.441-3.922 1.531-12.281 3-12.721 5.529-33.3 5.687-42.875.042-12.425.726-18.943 2.438-19.312m15.375 41.25c1.087.076 2.357 2.529 4.094 7.375 2.46 6.657 1.265 19.49-1.969 29.31-1.872 5.722-3.653 11.82-6.844 16.938-1.087 2.871-6.653 1.867-8.188-4.5-.971-4.03 2.379-9.03 4-15.438 1.628-6.439 3.486-14.629 4.406-18.75 1.699-10.06 2.911-15.05 4.5-14.937m119 18.844c-.135-.018-.258 0-.344.031.025-.038-.063.064-.094.094-.254.252 11.601 13.17 14.781 16.781 1.663 1.408 15.945 18.77 7.06 14.781-22.409-9.288-48.634-4.729-64.781 10.844-2.023 1.951-3.694-.044-9.813-.5-12.543-.935-17.1 4.04-9.469 10.219 1.168.946 3.605 1.372 4.706 2.889 1.01 1.393.709 3.89 1.234 4.587 24.25 32.19 69.17 38.459 97.37 17.43 3.547-2.646 5.538-3.578 8.844-2.594 6.559 1.953 7.139-3.542 1.344-11.219-2.527-3.347-5.639-7.209-3.825-8.32 3.582-3.081 5.352-8.114-.875-10-4.293-1.3-9.106-6.076-11.518-12.742-2.818-7.786-30.44-31.713-34.625-32.28m-110.09 14.09c5.27-.123 5.514 31.02-.313 40.469-2.994 3.578-9.84-3.076-8.813-9.906.781-5.193 6.379-28.601 7.656-29.813.518-.491 1.022-.74 1.469-.75m107.47 19.438c4.424-.044 10.481 1.937 15.295 6.286 2.603 2.351 7.161 12.536 5.267 16.527-.53 2.029-5.996 1.91-6.492.423-3-20.551-19.667-23.533-24.957-4.349 0 0-3.429 2.914-3.867-2.703 1.186-10.892 6.306-16.1 14.753-16.184m134.16 1.781c5.295-.099 10.344 2.563 12.938 8.219 1.808 3.943 2.01 7.261 1.288 8.992-.536 1.293-2.32.732-2.32.732-8.457-23.19-19.962-12.466-24.13.354 0 0-4.351 1.343-4.893-.037-.544-1.387-.206-3.994 1.525-7.604 3.304-6.893 9.593-10.544 15.594-10.656m-113.12 1.438c2.994-.162 8.121 2.273 11.954 6.136 3.894 3.925 4.277 6.268 1.13 9.177-1.89 1.751-8.608 3.479-9.91.439l-5.658-13.216c-.538-1.257 1.123-2.462 2.484-2.536m-40.75.624c3.353.001 4.061.771-1.204 13.02-1.125 2.617-14.632-1.184-12.06-6.235 3.862-4.02 9.909-6.788 13.262-6.782m135.28.969c1.348-.062 2.445.132 2.906.75-1.207.434-6.313 13.344-6.313 13.344-4.819-.582-10.582.099-11.625-3.844-.985-3.725.96-5.992 7.75-8.594 2.055-.747 5.03-1.553 7.281-1.656m39.525 3.313c5.115 1.874 6.311 6.203 5.656 8.437-.495 1.691-2.912 1.709-4.625.406-1.629-1.892-4.03-5.114-3.844-7.281.533-2.157 1.183-2.181 2.813-1.562m-254.78 11.927c1.571 2.959 4.41 19.723 1.094 19.291-3.218-.83-4.717-5.888-5.281-10.438-.116-.938 2.749-8.744 4.187-8.854m56.28 8.948c1.489-.213 5.24 1.102 10.813 4.25 18.338 8.859 37.14 10.112 57.1 5.654 11.516-2.988 14.454-4.739 16.08-2.763 2.763 3.356-1.598 6.714-17.86 12.18-17.833 5.994-36.34 4.983-60.666-12.185-6.538-4.613-7.386-6.862-5.472-7.136m203.5 4.622c3.02 5.632-7.26 10.975-12.466 12.48-11.06 3.199-27.824 1.706-37.29-3.982-.795-.477-1.557-.986-2.281-1.525-7.698-5.731-4.511-9.827 4.062-5.406 9.22 4.753 27.984 5.627 37.935.828 4.988-2.406 8.414-5.426 10.04-2.394m-227.71 10.503c-1.023.227.707 2.813 4.281 6.687 25.09 28.16 84.935 43.43 118.58 14.412 10.536-9.888 8.931-14.337-7.688-6.438-18.376 6.05-44.491 6.839-67.08 3.495-11.11-1.501-29.2-5.757-38.37-12.469-5.782-4.227-8.817-5.888-9.719-5.687m172.97.844c1.531.123 4.216.691 10.04 3.719 8.5 4.42 27.801 2.906 34.12.574 13.317-4.915 16.05 1.33 3.434 8.3-14.06 8.509-33.459 5.182-44.781-5.781-3.506-3.142-5.401-7.05-3.863-7.367.15-.031.832.536 1.05.554m-166.3 49.8c49.4 4.514 123.95 53.53 153.02 112.42h-16.73c-29.2-46.34-74.14-83.64-127.47-97.55-2.109-1.623-9.956-12.811-8.825-14.865m219.27 10.788l-2.281 16.281c-8.278 6.785-38.623 31.926-61.13 71.29-4.688-.219-6.961-5.87-6.179-9.717 18.02-35.529 39.563-55.15 69.59-77.853m-199.65 12.741c11.333-.779 85.07 38.822 109.9 88.89h-13.593c-27.932-36.37-58.975-60.1-86.53-69.63-6.7-7.07-14.04-18.955-9.778-19.265m197.37 11.327l-.125 22c-17.642 17.17-30.537 34.451-40.633 55.56h-13.7c0 0-3.044-6.03-1.983-9.793 15.57-28.02 30.481-48.42 56.44-67.77m-112.02 77.56h-13.256c-11.189-15.818-27.811-31.04-43.07-40.09-6.253-7.749-13.259-17.311-10.439-18.862.167-5.722 58.843 33.927 66.765 58.957m112.31-44.752l-.287 12.719c-8.973 11.474-16.492 21.1-23.675 32.03h-11.297c10.302-22.24 36.18-50.764 35.26-44.752m-152.15 24.63c4.089 1.078 19.03 15.343 18.55 20.12l-6.724-.195c-3.772-4.763-8.246-9.719-10.898-14.593-1.662-3.084-2.727-5.939-.928-5.333m149.55 3.933c.046-.016.068-.011.094 0 .021.001-.13 16.188-.13 16.188h-11.341c-1.222-.222 5.491-12.225 11.376-16.188" fill="#131f67"/>
    <path d="m1915.75 91.72c-55.58-.008-111.78.31-174.31.969l422.16 598.98.342-133.06-135.47-174.83c30.831-9.508 68.48-16.08 98.12-18.719-38.07-84.4-57.12-163.67-40.34-272.31-59.972-.689-114.92-1.023-170.5-1.031m163.47 3.813c-3.305 38.35-7.647 81.12-.688 128.62-21.97-8.02-27.12 5.682-30.765 7.124-4.134-9.216-19.447-25.16-36.784-6.421-9.01 9.743-4.634 28.07 16.289 36.34-23.959 1.839-36.411-18.638-40.615-39.757-12.95-8.289-26.563-16.483-27.859-45.547l6.64 1.109c-2.207 20.278 18.862 30.605 31.19 20.927 7.973-6.108 8.826-15.534 5.682-30.18 6.403-1.311 21.403-7.59 17.438-26.859-5.475-26.602-32.797-23.479-45.28-5.985-10.377-12.844-29.401-15.227-37.03 4.719-4.25 11.11 5.434 23.587 16.438 26-24.437 4.686-36.758-29.01-38.12-51.813l-10.125-17.969c66.06-.384 94.96-.307 173.59-.313m-330.91.656l49.03.031 357.84 463.06.75 115.28zm123.97.031l7.813.094c6.125 40.757 29.564 70.27 69.66 84.62 2.081 33.3 18.14 78.53 79.06 93.81-1.796 37.599 22.358 73.53 48.22 90.75 0 0-6.981 1.728-12.437 2.25-34.767-27.567-43.34-68.16-46.781-84.91-1.177-2.419-4.49-3.01-7.125-3.594-29.755-10.51-54.797-34.95-65.03-64.781l-6.437-29.28c.015-3.761-.75-1.994-9.594-5.25-22.951-8.448-44.17-33.28-53.688-62.938-5-15.593-3.656-20.781-3.656-20.781m-31.531.094l27.469.031c0 0 .163 4.845.562 8 3.696 29.2 29.915 65.844 56.656 78 3.784 1.719 9.05 4.135 10.281 5.281 7.475 47.866 29.17 76.69 74.969 96.44.729.756 2.794 1.235 3.406 2.188 6.243 29.6 19.888 63.914 45.844 82.78l-11.219 1.156zm134.18 50.24c6.211 0 11.25 5.04 11.25 11.25 0 6.211-5.04 11.219-11.25 11.219-6.21 0-11.25-5.01-11.25-11.219 0-6.211 5.04-11.25 11.25-11.25m-379.12 61.39c.65 1.625-153.64 132.13-138.62 377.69l-4.469 5 1.219 1.75c-5.095 5.783-10 10.424-15.563 16.06 31.995 20.39 87.76 42.647 87.94 42.06l-10.656 24.688 66.66 21.531-8.938 23.469c0 0-46.37-15.375-65.59-21.781-9.482 21.02-15.222 43.23-22.12 65.09-.65 1.763-2.165.915-4.531-2.5-34.625-59.05-105.74-101.66-103.34-97.44l-252.19 239.28-1.719 147.88 174.53 179.87c0 0-50.51 24.854-74.41 41.16 18.585 15.167 39.62 26.846 58.09 41.19 38.22 26.952 64.01 66.57 88.78 93.41 116.82-57.917 234.46-54.692 336.06-19.531-11.837 12.455-25.05 23.24-37.25 36.75 29.533 77.49 20.08 231.38 18.594 235.56 61.49-62.81 152.95-197.49 140.75-387.12l25.875-25.938c-.472-1.33-64.726-35.724-91.5-43.21l7.407-23.568-64.12-20.03 7.156-18.719 63.875 18.5c12.09-29.692 24.906-71.28 24.906-71.28 25.507 38.16 53.625 72.87 111.5 108.19l250.75-239.91-1.625-154.25-170.72-170.72 71.06-37.03c-6.828-5.507-16.727-10.733-23.75-16.25-.501-.394 1.41-1.582.906-1.969-1.784-1.372-3.088-2.485-4.906-3.75-.408-.284-1.69 1.565-2.094 1.281-24.11-16.91-48.24-33.55-67.22-53.781-.475-.511.227-2.615-.25-3.125-9.865-10.539-19.685-20.346-29.719-30.719-4.653-4.697-12.344-15.844-12.344-15.844l-.438-3.688-10.781-13.563c-34.718 20.478-182.74 71.876-325.97 14.969l27.22-27.22c-7.246-17.482-11.945-36.991-13.813-52.969-7.49-64.08-4.625-179.47-4.625-179.47m451.5 36.28c6.553 0 11.875 5.322 11.875 11.875 0 6.553-5.322 11.875-11.875 11.875-6.553 0-11.844-5.322-11.844-11.875 0-6.553 5.29-11.875 11.844-11.875m37.14 14.12c6.04 29.513 19.335 72.37 32.577 101.26l-15.774 1.749c-12.844-8.345-26.418-20.52-27.843-37.79-34.731.267-44.888-54.21-32.2-47.67-1.618 18.61 11.732 25.944 24.832 24.12 11.277-1.572 21.03-17.14 7.606-34.33 5.964-2.321 8.881-4.074 10.804-7.329m-492.2 87.28c2.3 37.743 9.709 65.27 16.625 93.78l-68.62 64.75c5.353-59.1 22.711-111.92 52-158.53m329.12 124.31l8.719 12.5c-99.17 58.24-268.44 62.35-371.56 13.25l13.688-13.03c90.68 40.945 238.31 43.988 349.16-12.719m-644.09 19.438c-9.992-.123-21.526 3.687-33.75 13-45.49-20.726-75.29 27.724-47.16 59.813-4.165 23.1-7.318 27.399 10.06 50.781-18.463 2.35-41.769-2.48-61.59-5.531 3.35 34.2 52.33 42.17 72.72 38.41 22.01-4.771 42.783 6.122 43.688 6.375 12.944 3.614 20.985 9.845 33.75 12.844 21.05 5.01 51.878-19.663 56.34-43.09.422-3.148 1.395-5.999-.344-6.469-14.391 3.68-30.2 8.868-44.22 11.938-13.729 3.369-24.08 6.692-34.531 14.875l-.875-28.25c71.27 3.391 40.25-64.37 36.22-67.28 13.243-26.736-2.687-57.07-30.31-57.41m647.81 2.125l15.5 37.28-41.19 13.969-10.531-36.5zm-650.78 1.125c24.23.235 45.892 25.747 22.625 54.31 45.1 39.776-12.698 82.4-40.22 52.813-36.64 33.552-75.56-1.493-55.09-38.03-39.07-34.966 9.114-81.86 42.03-51.656 8.08-12.427 19.645-17.544 30.656-17.438m281.25 13.656c5.799 0 10.5 4.701 10.5 10.5 0 5.799-4.701 10.5-10.5 10.5-5.8 0-10.5-4.701-10.5-10.5 0-5.799 4.7-10.5 10.5-10.5m-268.34.781c-.6.007-1.316.278-2.094.969-1.175.109-3.725 4.489-10.125 11.906-11.122 12.892-12.323 13.01-12.323 13.01-11.851-3.877-19.774-1.784-27.583 3.156 0 0-8.902-1.687-21.19-11.951-5.603-4.684-8.618-5.7-9.594-3.188-1.039 2.676 1.502 5.313 12.25 12.625 14.874 10.119 13.951 9.346 13.951 9.346-.92 8.893.522 16.12 3.886 22.853 0 0-2.62 6.316-13.181 20.14-2.986 3.908-5.432 8.158-5.438 9.438-.021 5.38 4.674 1.764 15.469-11.875 4.23-5.346 10.04-12.999 10.04-12.999 12.679 4.391 17.12 1.72 25.07-1.105 0 0 2.726 2.027 9.64 7.538 12.651 10.09 15.388 11.158 16.942 9.879 2.093-1.723 1.816-2.287-2.969-5.75-14.269-10.331-19.18-16.3-19.18-16.3 2.902-11.301-.272-20.651-3.383-26.546 0 0 .226-1.44 8.279-10.435 5.915-6.606 14.01-17.03 13.5-18.531.136-.933-.652-2.202-1.969-2.188m292.03 2.281l37.09 11.531-8.188 38.563-39.531-12.75zm268.44 9.469l10.344 37.625-38.594 10.25-6.313-39.938zm27.09.625c5.801 0 10.5 4.701 10.5 10.5 0 5.799-4.699 10.5-10.5 10.5-5.799 0-10.5-4.701-10.5-10.5 0-5.799 4.701-10.5 10.5-10.5m87.72 1.344l32.438 28.875-36 18.19-17.344-37.625zm-305.87 8.344l37.688 4.438-1.531 40.5-43.25-5.781zm-130.75.438l41.938 18.406-15.12 42.25-42.938-18.438zm108.09 3.281c15.456 2.419 11.297 20.657 0 21-5.799 0-10.5-4.701-10.5-10.5 0-5.799 4.701-10.5 10.5-10.5m135.59.031l5.156 40.531-39.12 2.375-.844-41.19zm26.906 4.625c5.799 0 10.5 4.701 10.5 10.5 0 5.799-4.701 10.5-10.5 10.5-5.801 0-10.5-4.701-10.5-10.5 0-5.799 4.699-10.5 10.5-10.5m-544.68 3.802c5.983 0 10.844 4.831 10.844 10.813 0 5.982-4.861 10.844-10.844 10.844-5.981 0-10.812-4.862-10.812-10.844 0-5.982 4.832-10.813 10.812-10.813m463.31-.396c5.799 0 10.5 4.701 10.5 10.5 0 5.799-4.701 10.5-10.5 10.5-5.801 0-10.5-4.701-10.5-10.5 0-5.799 4.699-10.5 10.5-10.5m184.28 2.594l15.25 41.656-42.75 13.781-12.09-42.781zm30 1.125c5.799 0 10.5 4.701 10.5 10.5 0 5.799-4.701 10.5-10.5 10.5-5.8 0-10.5-4.701-10.5-10.5 0-5.799 4.7-10.5 10.5-10.5m73.906 11.813l27.625 19.531-13.687 7.625c-3.588-8.586-9.921-18.766-13.938-27.16m-394.87 3.781l40.781 8.844-6.219 42.719-44.5-8.875zm-121.28 2.344l21.656 10.188-14.281 35.594-35.03-18.656zm96.81 2.313c5.8 0 10.5 4.701 10.5 10.5 0 5.799-4.7 10.5-10.5 10.5-5.799 0-10.5-4.701-10.5-10.5 0-5.799 4.701-10.5 10.5-10.5m235.53 2.344l7.281 42.719-46 6.469-2.844-43.563zm172.22.813c5.8 0 10.5 4.701 10.5 10.5 0 5.799-4.7 10.5-10.5 10.5-5.799 0-10.5-4.701-10.5-10.5 0-5.799 4.701-10.5 10.5-10.5m-32.625.313l15.219 37.656-45 18.813-13.312-37.688zm-114.75 2.719c5.801 0 10.5 4.701 10.5 10.5 0 5.799-4.699 10.5-10.5 10.5-5.799 0-10.5-4.701-10.5-10.5 0-5.799 4.701-10.5 10.5-10.5m-151.97 4.281l43.06.781-.5 43.19-47.16-1.312zm344.41 3l16.938 11.75c-174.31 112.09-419.19 125.99-610.28 15.656 0 0 7.809-7.782 12.25-12.344 172.27 103.1 423.77 88.63 581.09-15.06m-367.75 4.875c5.801 0 10.5 4.701 10.5 10.5 0 5.799-4.699 10.5-10.5 10.5-5.799 0-10.5-4.701-10.5-10.5 0-5.799 4.701-10.5 10.5-10.5m88.41 2.375c5.799 0 10.5 4.701 10.5 10.5 0 5.799-4.701 10.5-10.5 10.5-5.8 0-10.5-4.701-10.5-10.5 0-5.799 4.7-10.5 10.5-10.5m-205.09 5.781l44.969 13-7.656 35.5-49.31-14.188zm-29.75.25c5.801 0 10.5 4.701 10.5 10.5 0 5.799-4.699 10.5-10.5 10.5-5.799 0-10.5-4.701-10.5-10.5 0-5.799 4.701-10.5 10.5-10.5m349.28 7.563l10.75 39.844-49.719 10.625-6-39.19zm28.562 5.781c5.8 0 10.5 4.701 10.5 10.5 0 5.799-4.7 10.5-10.5 10.5-5.799 0-10.5-4.701-10.5-10.5 0-5.799 4.701-10.5 10.5-10.5m-649.53 6.188l-.094 27.938c-8.246-6.797-17.56-14.03-27.09-21.344 9.725.516 18.764-2.167 27.19-6.594m-102.41.688c2.269-.022 7.58 1.833 13.906 1.813 20.246-.064 58.06 6.251 69.25 15.438 3.727 3.051 9.307 5.76 12.344 10.688-.0001 2.35-3.333 2.41-8.219-.625-9.373-5.822-24.971-11.01-45.844-13.906-3.772-.523-4.242-.37-4.25 1.406-.0001 2.195 3.476 3.477 14.469 5.281 14.226 2.335 17.254 3.731 20.406 4.594 8.448 2.313 3.05 5.404-5.647 6.235-35.494 3.325-62.07-11.947-67.42-29.391-.43-1.145-.031-1.521 1-1.531m494.47.625l44.656 5.781-2.031 37.37-48.875-5.594zm-379.75 3.25c7.801 6.124 2.435 24.691-1.813 30.16-2.75 3.069-9.191 1.442-9.156-2.875.972-3.877-.403-22.343.437-28.06 3.11-1.771 7.689-1.271 10.531.781m517.5 1.656l2.313 38.531-48.719 2.219.375-37.844zm-164.37 2.594c5.799 0 10.5 4.701 10.5 10.5 0 5.799-4.701 10.5-10.5 10.5-5.8 0-10.5-4.701-10.5-10.5 0-5.799 4.7-10.5 10.5-10.5m-271.47.531c1.799 28.27-41.629 47.46-57.875 38.781-7.194-3.843-4.201-6.212 10.06-9.09 18.457-4.886 30.612-9.646 30.625-13.09.0001-2.115-2.789-1.86-10.312.938-11.584 3.891-23.627 5.563-34.688 10.531-8.268 3.754-11.485 5.069-13.344 2.813-3.895-4.731 14.477-16.67 33.531-19.844 14.296-2.381 28.71-10 42-11.03m462.72 3.531c5.8 0 10.5 4.701 10.5 10.5 0 5.799-4.7 10.5-10.5 10.5-5.801 0-10.5-4.701-10.5-10.5 0-5.799 4.699-10.5 10.5-10.5m-97.66 7.688c5.8 0 10.5 4.701 10.5 10.5 0 5.799-4.7 10.5-10.5 10.5-5.8 0-10.5-4.701-10.5-10.5 0-5.799 4.7-10.5 10.5-10.5m233.97 17.844c70.28 66.914 147.3 143.95 210.84 207.31-.091 33.15-.281 99.47-.281 99.47l-242.62 230.59c-43.935-26.821-81.13-60.35-115.37-119.91 3.861-3.333 7.259-5.45 10.188-9.09l-12.656 7.563c-44.757-71.58-63.74-214.2 12.281-328.53l-76.81 2.813 12.531-26.16 83.62-4.563 33.812-36.28c0 0 10.715-1.982 19.594-4.03 8.807-2.033 26.786-7.176 39.969-11.438 13.182-4.261 24.401-7.752 24.906-7.75m-567.22 18.531c0 0 72.21 39.25 112.31 117.84-129.62 111.5-178.47 241.33-189.5 376.47-70.55-65.984-106.2-102.48-169.94-166.56l2.313-95.62zm272.62 12.469c-18.684 39.945-34.758 83.7-49.16 130.59l-20.09-5.938c0 0 12.997-5.435 18.781-8.875l-10.438-16.813 19.781-8.125-11.687-14.25 20.06-11.625-10.03-12.594 18.375-9.188-11.406-13.12 19.281-10.75-10.06-12.563zm6.156.094c0 0 2.588.493 5.625 1.094.73-.279-3.621 10.467-3.156 10.844 7.02 1.445 7.427 1.054 9.531 1.688l5.344-11.06 8.781 1.656c-17.714 39.977-36.657 83.72-47.531 131.06l-10.344-2.156c0 0 3.02-9.983 3.03-11.313-1.215-.257-7.04-2.709-8.844-3.438-.622 1.562-4.313 13.12-4.313 13.12l-8.188-.219c13.401-51.695 36.763-109.02 50.06-131.28m33.656 1.531l18.344 15.188-20.813 8.094 10.781 14.344-22.06 7.969 12.656 14.906-21.844 8.06 13.03 18.03-22.719 7.656 14.344 15.844-20.5 9.594 12.281 12.156c0 0-12.791 4.217-13.531 4.406-2.056.526-10.656-1.594-10.656-1.594 12.959-46.14 28.971-92.9 50.688-134.66m-446.28 7.688c-5.065 3.287-2.176 10.446-8.531 16.563-1.014 1.096-1.101 3.614-1.5 5.813-.301 1.668-5.323 21.631-5.323 21.631 0 0 1.269-1.525 3.279-7.893 1.715-5.434 3.205-15.747 4.134-17.468 4.684-1.431 5.395-16.709 10.145-14.617 2.744 1.209 2.22 3.706.672 9.565-3.381 11.71-4.709 16.643 1.094 8.656 8.667-10.433 9.514-19.85-.25-21.844-1.029-.197-3.121-.386-3.719-.406m131.06 4.344l-226.72 212.87-.687 79.44 78.906 79.969 56 54.28c20.328-121.57 66.965-237.54 181.78-337.91-17.593-28.29-47.731-63.923-89.28-88.66m611.12 2.188c-133.21 62.61-163.85 191.01-122.59 307.25 63.48-81.65 113.31-158.35 122.59-307.25m-474.12 6.5l60.5 19.469-22.781 77.69-54.47-16.531-5.563-13.75zm467.44 2.031c-5.789 103.89-44.964 205.35-113.12 284.97-34.465-85.02-13.735-220.96 113.12-284.97m-325.84.563l-3.813 9.656 8.375 2.375 3.563-9.813zm-8.375 22.813l-3.438 9.813 8.594 2.906 3.219-9.969zm356.87 1.781c-18.647 144.1-96.5 275.24-178.75 342.06 26.21 42.515 57.03 69.861 88.34 92.69l231.69-221.94-.906-74.03zm-612.25 38.25c-1.423 5.268-1.927 7.947-1.927 7.947 0 0 2.668-2.465 9.712-6.319 45.523-22.706 30.834 11.823 9.385 24.594-4.793 2.552-9.721 5.585-9.721 5.585 0 0 4.556 1.031 9.492 1.947 27.628 5.741 21.746 21.901-7.07 19.386-4.26-.372-9.266-1.178-9.268-.94 0 .238 1.727 6.307 3.721 11.33 9.714 24.466-8.406 26.37-20.325 10.815-1.659-2.166-5.42-8.142-5.42-8.142 0 0-1.175 4.521-1.892 8.892-10.297 38.35-35.701 37.37-26.22-1.531 1.187-4.02 2.632-11.216 2.632-11.216 0 0-5.712 3.451-11.928 6.227-32.901 14.69-38.24-.428-8.354-22.534 8.504-6.29 11.386-8.761 11.386-8.761-5.293-.404-10.174-1.216-14.483-2.297-23.842-5.984-30.2-20.236 8-19.567 5.643.114 11.39.487 11.39.487 0 0-1.884-8.193-3.874-14.366-9.216-28.584 9.357-31.985 25.03-6.379 3.333 5.446 4.29 5.481 4.29 5.481-.481.017.984-9.751 4.781-18.785 18.968-35.13 26.395-3.067 20.665 18.15m409.75-28.437c-15.914 28.12-29.789 56.07-36.406 85.22l-61.906-1.063c4.283-25.845 15.217-52.728 28.28-81.16 25.2-.688 47.929-1.796 70.03-3m-163.44 12.469l-3.562 10.344 8.969 2.75 3.25-10.06zm-462.94 19.406c-6.632 17.234-8.851 36.428-12.531 51.813-1.553 8.917.029 12.631 5.375 14.625 7.606 2.838 18.581-1.029 24.719-9.813 3.461-4.954 5.974-15.184 6.5-33.25l.594-16.09c-9.409-1.748-15.834-4.27-24.656-7.281m454.56 2.25l-2.969 9.5 8.656 3.219 3.312-9.594zm400.94 3.563c10.532.259 12.49 1.204 22.03 6.844l18.406 18.938c-4.825 4.62-7.844 11.11-7.844 18.313 0 14.01 11.365 25.375 25.375 25.375 6.941 0 17.813-7.313 17.813-7.313l29.17 30.21c-17 7.449-33.656-9.689-39.919-16.47-1.469-1.59-1.847-2.683-1.847-2.683 0 0 .259.834-.35 4.186-2.444 13.452-15.713 53.15-28.399 51.04-14.288-2.383.26-59.13.414-57.825-9.822 10.384-57.688 21.44-54.34 9.846 6.661-23.03 42.464-31.91 47.17-35.911-19.04-11.452-43.17-43.21-27.689-44.547m-853.19.745c6.06.426 10.223 1.158 14.344 2.88 1.919.514 2.01 2.117 2.219 3.625.036 6.802 1.742 26.765-4.563 26.969-7-.146-13.576 1.355-18.19 4.875-3.708 2.831-4.938.786-3.938-6.469.969-7.03 4.463-21.801 5.969-27.781.239-2.467 2.2-4.209 4.156-4.098m189.16.255c-14.01 0-25.375 11.365-25.375 25.375 0 14.01 11.365 25.375 25.375 25.375 14.01 0 25.375-11.365 25.375-25.375 0-14.01-11.365-25.375-25.375-25.375m0 8.875c9.106 0 16.5 7.394 16.5 16.5 0 9.106-7.394 16.469-16.5 16.469-9.106 0-16.5-7.362-16.5-16.469 0-9.106 7.394-16.5 16.5-16.5m130.93.308c58.16 100.4 51.42 238.2-17.15 338.44l73.72-5.156-9.688 18.875-78.59 7.656c-12.01 10.991-22.938 23.556-34.75 35.31l-.125 4.156c-26.943 6.256-53.911 13.458-81.37 23.355-14.497-14.233-41.764-42.692-41.585-43.41l1.753-9.213c186.91-95.36 132.23-286.61 119.08-302.33 20.05-24.08 43.985-46.732 68.72-67.69m518.76 18.255c7.571 0 13.688 6.148 13.688 13.719 0 7.571-6.117 13.719-13.688 13.719-7.571 0-13.719-6.148-13.719-13.719 0-7.571 6.148-13.719 13.719-13.719m60.938 3.688l22.969 23.656c-2.981 2.942-7.07 4.781-11.594 4.781-9.106 0-16.5-7.362-16.5-16.469 0-4.697 1.97-8.963 5.125-11.969m-788.91 2.938c7.571 0 13.688 6.117 13.688 13.688 0 7.571-6.117 13.719-13.688 13.719-7.57 0-13.719-6.148-13.719-13.719 0-7.571 6.149-13.688 13.719-13.688m-102 5.75c6.419 2.147 4.923 8.145-3.371 13.422-5.367 3.414-10.283 4.168-15 1.64-8.946-4.789 9.616-18.19 18.375-15.06m105.97 33.563l-82.59 79.906c5.197-13.277 5.389-26.518 5.781-39.781 24.853 2.562 35.26-10.05 31.625-36 16.05.958 32.69-.734 45.19-4.125m132.34 9.125c38.3 109.2 5.04 224.76-114.75 291.69 4.931-104.64 48.851-204.68 114.75-291.69m109.09 9.563c65.734 17.206 140.56 25.23 218.25 25.281.584 29.561 2.01 60.823 8.06 91-66.18-17.311-140.1-25.359-220.84-23.938 3.351-31.24-2.01-66.68-5.469-92.34m487.44 16.16l-70 81.84 2.938-44.688c23.576 3 31.973-9.433 28.5-34 12.86 1.591 25.702-.661 38.563-3.156m-680.19 4.531l-5.531 32.688c-13.97.378-27.683 5.339-27.5 36.531l-41.75-.5zm770.37 6.03c7.571 0 13.688 6.148 13.688 13.719 0 7.571-6.117 13.719-13.688 13.719-7.571 0-13.719-6.148-13.719-13.719 0-7.571 6.148-13.719 13.719-13.719m-833.87 4.156c7.571 0 13.719 6.148 13.719 13.719 0 7.571-6.148 13.688-13.719 13.688-7.571 0-13.719-6.117-13.719-13.688 0-7.571 6.148-13.719 13.719-13.719m803.28 14.06l-7.313 49.5c-19.07-1.676-34.99 1.263-30.09 34.813-16.14-1.578-38.546 2.234-53.56 3.531zm-68.34 8.969c7.571 0 13.719 6.148 13.719 13.719 0 7.571-6.148 13.688-13.719 13.688-7.571 0-13.719-6.117-13.719-13.688 0-7.571 6.148-13.719 13.719-13.719m-835.44 10.625c7.571 0 13.719 6.148 13.719 13.719 0 7.571-6.148 13.688-13.719 13.688-7.571 0-13.688-6.117-13.688-13.688 0-7.571 6.117-13.719 13.688-13.719m45.47 16.219c17.51 3.93 9.409 44.744 5.469 55.844-.299.299 48.853-25.75 51.781-14.25 1.92 23.05-40.687 39.12-40.687 39.12 0 0 28.717 24.945 29.531 40.625.07 10.145-12.01 8.263-27.688-4.594-6.702-6.584-11.888-11.518-16.5-16.09 5.386-4.654 8.781-11.546 8.781-19.219 0-14.01-11.365-25.375-25.375-25.375-7.737 0-14.658 3.474-19.313 8.937-3.637-3.502-7.752-7.586-13.281-12.812-9.06-8.47-15.415-15.201-14.5-18.25 11.951-8.414 35.722 14.193 37.844 16.25-1.781-4.407 11.365-47.843 23.937-50.19m-23.937 50.19c.095.236.223.375.406.375 0 0-.307-.279-.406-.375m746.44-18.313c8.33-.115 7.811 18.841 4.844 28.688-2.029 7.507-4.03 13.656-4.03 13.656 0 0 7.02-5.483 10.125-6.938 22.666-10.615 31.11 1.404 19.687 15.344-5.491 7.17-12.981 8.76-19.06 14.781 8.663.395 18.611 2.314 26.09 6.719 5.819 3.479 10.386 7.695 10.375 10.313-.023 5.86-14.414 9.02-27.875 7.5-5.727.125-16.5-2.938-16.5-2.938 0 0 4.466 7.514 6.094 12 5.03 13.946 3.264 30.28-4 30.25-12.156-3.25-18.09-16.764-22.844-26.469-3.902 10.817-7.684 22.396-16.375 30.438-8.618 7.974-13.04 1.352-12.594-12.156.176-5.374 4.125-21.406 4.125-21.406-51.06 17.236-47.26-6.082-7.418-26.504-24.542-11.704-39.453-22.23 2.293-24.621-1.105-1-8.395-23.357-.594-28.594 7.248-4.865 22.696 11.845 23.438 12.656-.312-1.652 4.068-14.743 11.406-23.781 5.625-6.367 9.8-8.896 12.812-8.938m-47.06 48.656c.052.047.103.052.125 0 0 0-.115 0-.125 0m223.5-14.768c-8.892.81-14.422 8.698-18.535 15.578-.834 1.395-2.373 1.891-2.946 3.734-3.685 11.862-6.9 26.07-8.87 43.759 5.634 2.316 18.34 6.223 23.959 4.121 1.581-.662 1.091-4.748 1.626-6.095 8.864-22.319 13.245-39 13.247-49.26 0-8.267-2.843-12.353-8.481-11.839m-913.57-1.014c9.106 0 16.5 7.394 16.5 16.5 0 5.235-2.443 9.891-6.25 12.906-10.627-10.597-16.07-16.15-23.19-23.12 3.02-3.825 7.689-6.281 12.937-6.281m916.71 7.855c2.229 5.412-4.935 11.29-14.207 11.254-5.515-.022-7.31.757-4.855-4.02 2.923-5.815 14.796-17.587 19.06-7.229m-124.4-3.824c7.571 0 13.719 6.149 13.719 13.719 0 7.571-6.149 13.688-13.719 13.688-7.571 0-13.719-6.117-13.719-13.688 0-7.571 6.148-13.719 13.719-13.719m-723.16.969c7.571 0 13.719 6.117 13.719 13.688 0 7.57-6.148 13.719-13.719 13.719-7.571 0-13.688-6.149-13.688-13.719 0-7.571 6.117-13.688 13.688-13.688m648.56 5.563c-14.01 0-25.375 11.365-25.375 25.375 0 14.01 11.365 25.375 25.375 25.375 14.01 0 25.375-11.365 25.375-25.375 0-14.01-11.365-25.375-25.375-25.375m-339.12 3.406c-6.671 29.24-16.939 57.19-29.906 84.84-24.462 1.474-50.903 2.616-68.34 5.094 29.05-50.872 29.748-62.832 40.5-89.78zm42.03 4.125c6.87.812 14.4 1.85 21.19 3.156-12.486 43.949-28.996 89.07-50.31 132.5l-12.906-2-6.125-7.562 20.5-8.188-15.969-16.312 26.469-8-16.281-16.06 26.16-6.531-14-17 23.469-9.156-14.906-19.25 25-6.875zm297.09 1.344c9.106 0 16.5 7.394 16.5 16.5 0 9.106-7.394 16.469-16.5 16.469-9.106 0-16.5-7.362-16.5-16.469 0-9.106 7.394-16.5 16.5-16.5m-271.22 2.5l8.719 1.406-2.688 9.344 9.938 2.125 3.219-10.09c0 0 7.992.737 8.844 1.375-10.409 42.43-47.22 131.22-47.688 130.75l-9.469-1.406 2.5-8.969-8.812-1.25v-.094l-4.25 9.75-9.406-.781c22.789-52.01 38.3-91.93 49.09-132.16m463.19 3.375c6.989-.031 6.565 3.571 1.5 16.75-4.759 12.382-6.541 17.343-8.852 18.946-5.509 3.909-17.372.63-16.41-5.068 3.121-18.5 4.23-26.389 9-28.901 4.975-.98 9.823-1.705 14.758-1.727m-428.12 1.531l22.75 4.406-19.03 11.313 12.09 14.12-23.375 9.969 14.188 14.688-22.563 9.219 13.719 16.16-23.406 9.875 15.937 13.813-26.312 8.313 9.969 15.313-9.906 5.531-12.219-1.906c20.282-47.31 33.32-86.24 48.16-130.81m55.906 11.313l44.563 12.12 8.906 15.906-20.906 70.59-59.37-17.438zm-88.56 6.813l-4.25 11.594 9.813 2.031 3.781-11.938zm-8.625 26.625l-4.25 11.594 9.219 1.812 4.344-11.719zm-8.688 23.406l-4.344 11.531 8.969 1.844 4.281-11.562zm418.68 21.22c.0001 0-4.548 3.298-5.747 4.758.991 2.646 3.867 6.712 3.438 9.381-.391 2.01-2.63 3.627-5.992 7.204-8.389 9.765-11.34 8.701-6.469-1.719 1.602-3.275 2.313-6.313 2.313-6.313-1.94 2.716-3.403 5.936-4.717 8.487-2.768 5.329-5.348 10.364-5.348 10.364 5.343 1.844 8.895 5.816 12.345 8.392 0 0 1.756-4.725 2.969-9.243 1.692-6.302 5.03-8.896 9.125-11.06 2.582-1.37 5.05-3.859 5.05-3.859-4.507-4.596-5.02-11.17-6.966-16.392m-427.96 2.844l-4.594 12.281 8.938 2.188 4.969-12.531zm-504.19 30.875c-.815 48.904.805 81.1-.906 133.84l132.41 171.59-20.656 6.938c0 0-.225 2.38-1.344 2.687-28.29 7.782-74.19 15.531-74.19 15.531 34.13 77.938 56.27 175.4 41 272.75l342.69-.906zm724.75 82.87l-11.812 11.844c-174.28-94.32-414.31-93.95-589.47 20.25l-14.281-10.469c191.18-122.48 426.37-121.71 615.56-21.625m-718.34-65.719l403.34 579.41-47.37.688-355.62-465.22zm865.59 10.469c0 0-11.649 3.02-21.437 6.156-28.03 8.975-41.14 25.18-38.563 47.688.761 6.649 2.484 6.555 13.906-.656 26.727-16.871 28.398-17.617 61.688-27.375 2.575-.754 6.313-.187 6.313-.187l-1.469 26.28c-55.49-.209-52.46 43.868-36.5 66.781-5.587 10.595-17.813 47.585 22.437 61.66 20.08 3.998 41.34-12.314 40.688-13.156 37.03 17.515 80.01-11.851 46.5-62.719 12.601-22.18 3.717-38.653-8.313-52.813 0 0 2.033.175 19.563 3.406 26.59 4.905 36.75 4.03 36.75 4.03.035-23.932-19.786-34.623-61.12-37.875-29.28 4.13-80.44-21.425-80.44-21.22m-446.5 2.781c2-.0001 3.981-.0001 5.969.031l-1.938 40.875-45.03 2.063-2.937-40.719c15.509-1.07 29.923-2.202 43.937-2.25m53.969 1l48.31 5.875-7.313 38.22-44.5-4.781zm390.84.438c4.963-.109 3.881 5.05-1.938 6.188-8.686 1.7-30.957 14.665-30.969 18.03-.0001 2.17 1.096 1.858 9.25-2.5 4.075-2.178 12.581-5.889 18.875-8.281 6.295-2.394 13.493-5.276 16-6.406 7.487-3.378 11.198-1.043 8.5 5.344-1.784 4.223-2.489 4.554-19.844 10.06-15.704 4.981-18.586 6.271-28.563 12.656-3.721 2.383-10.315 6.188-14.656 8.438-10.258 5.312-12.34 5.332-12.313-1.813-.562-21.17 22.857-37.06 54.59-41.625.386-.056.731-.083 1.063-.094m-417.13 4.969c6.04 0 10.937 4.898 10.937 10.938 0 6.04-4.898 10.937-10.937 10.937-6.04 0-10.938-4.896-10.938-10.937 0-6.04 4.897-10.938 10.938-10.938m-119.53 2.906l3.594 37.09-44.28 11.375-10.125-38.31c16.941-4.15 33.872-7.07 50.813-10.156m570.44 2.813c12.139 1.847 11.175 29.648 4.969 34.469-9.554 6.88-15.42-7.509-11.156-26.594 1.2-5.739 3.414-7.744 6.188-7.875m-545.31 1.5c6.04 0 10.938 4.899 10.938 10.938 0 6.04-4.897 10.938-10.938 10.938-6.04 0-10.938-4.895-10.938-10.938 0-6.04 4.898-10.938 10.938-10.938m216.31 3.188l50.06 13.656-12.25 38.75-46.969-13.219zm-27.25.75c6.04 0 10.938 4.897 10.938 10.938 0 6.04-4.897 10.938-10.938 10.938-6.04 0-10.938-4.897-10.938-10.938 0-6.04 4.898-10.938 10.938-10.938m409.53 3.25c21.568.226 50.01 11.04 50.06 27.719-.439 4.738-45.18-1.553-65.844-9.875-7.331-2.952-16.265-11.936-16.25-15.687.0001-2.23 4.374-2.071 6.156.094 2.908 3.535 13.209 7.226 36.875 13.188 18.18 4.579 19.989 4.758 20 2 .0001-2.511-10.735-5.974-22.375-7.906-5.853-.958-11.315-2.725-20.312-3.5-4.195-.015-5.217-2.648-1.719-4.438 3.811-1.132 8.429-1.646 13.406-1.594m-38.09 8.625c5.44 2.552 7.405 7.635 10.406 10.313-3.731 1.768-5.398 3.551-11.438 4 .111-3.991-.979-8.754 1.031-14.313m-655.59 3c6.04 0 10.937 4.898 10.937 10.938 0 6.04-4.898 10.938-10.937 10.938-6.04 0-10.938-4.897-10.938-10.938 0-6.04 4.897-10.938 10.938-10.938m-29.438 3.094l11.813 37.875-42.31 18.406-15-37.531c14.627-7.69 30.627-13.276 45.5-18.75m195.66 6.188c0 0 33.707.047 45.34.187l-2.719 42.75-42.06.313zm-45.03 2.344l2.344 42.688-40.5 5.438-8-42.938zm256.06.375c6.04 0 10.937 4.898 10.937 10.938 0 6.04-4.898 10.938-10.937 10.938-6.04 0-10.938-4.897-10.938-10.938 0-6.04 4.897-10.938 10.938-10.938m293.03 1c24.66.106 48.18 28.474 23.813 58.19 39.966 30.749-3.485 82.43-38.813 52.31-50.52 49.616-78.75-17.757-57.844-35.625-30.872-50.728 7.06-82.79 46.19-60.41 7.205-10.222 17.01-14.51 26.656-14.469m-412.78 1.219l44.44 9.875-8.937 42.22-43.41-8.813zm147.06 1.031l40.625 20.19-31.5 30.31-23.406-11.656zm-260.47 4.781c6.04 0 10.938 4.898 10.938 10.937 0 6.04-4.897 10.938-10.938 10.938-6.04 0-10.938-4.897-10.938-10.938 0-6.04 4.897-10.937 10.938-10.937m87.78 1.375c6.04 0 10.937 4.898 10.937 10.937 0 6.04-4.897 10.938-10.937 10.938-16.1-2.52-11.766-21.517 0-21.875m-202.34 6.156l9.906 42.22-41.16 13.906-14.719-41.12zm28.28 3c6.04 0 10.938 4.897 10.938 10.938 0 6.04-4.898 10.938-10.938 10.938-6.04 0-10.937-4.898-10.937-10.938 0-6.04 4.897-10.938 10.937-10.938m609.22 19.469c-3.096 3.847-7.164 8.38-7.164 8.38-10.239-4.222-20.16-2.537-26.805 2.02 0 0-7.06-5.626-13.5-10.836-11.168-9.02-14.893-11.09-14.906-7.312 0 .783 3.791 4.643 8.406 8.594 12.593 10.775 15.168 14.659 15.168 14.659-3.03 9.778-2.995 17.439 2.787 25.66 0 0 .241 1.07-4.182 5.736-8.02 8.463-16.298 21.531-14.393 23.452 2.368 2.386 9.07-3.335 17.487-14.702 5.995-8.103 7.799-8.279 7.799-8.279 10.229 2.76 15.896 5.259 26.12-3.182 0 0 3.859 1.17 11.565 7.529 12.01 9.912 16.32 12.05 17.625 8.688 1.063-2.74-.517-4.575-10.688-12.313-6.623-5.04-13.988-10.941-13.988-10.941 2.164-3.552 3.698-16.17-3.706-24.811 0 0 .292.569 11.24-13.622 7.286-9.439 8.549-10.633 6.134-12.656-3.218-4.213-13.916 12.594-15 13.938m-317.41-12.09l40.09 16.844-14.344 41.906-38.719-15.813zm-441.16 2.813c6.04 0 10.938 4.898 10.938 10.938 0 6.04-4.897 10.938-10.938 10.938-6.04 0-10.938-4.896-10.938-10.938 0-6.04 4.898-10.938 10.938-10.938m410.16 1.125c6.04 0 10.937 4.898 10.937 10.938 0 6.04-4.897 10.938-10.937 10.938-6.04 0-10.938-4.897-10.938-10.938 0-6.04 4.897-10.938 10.938-10.938m-438.16 3l13.12 32.5-29.844-22.25zm329.03 8.375l39.937 4.719-6.312 38.06-34.438-3.125zm-43.594.094l-.406 39.12-37.938 1.625-3.219-39.06zm-195.19 7.125c6.04 0 10.938 4.898 10.938 10.938 0 6.04-4.898 10.937-10.938 10.937-6.04 0-10.938-4.896-10.938-10.937 0-6.04 4.897-10.938 10.938-10.938m-30.25.781l15.438 39.31-23.938 11.563-32.09-30.375zm142.78.5l6.187 37.41-39.562 9.781-9.594-38.06zm565.47.375c8.611 0 15.594 6.983 15.594 15.594 0 8.611-6.983 15.594-15.594 15.594-8.611 0-15.594-6.982-15.594-15.594 0-8.611 6.983-15.594 15.594-15.594m-462.91 1.188c6.04 0 10.938 4.897 10.938 10.938 0 6.04-4.898 10.938-10.938 10.938-6.04 0-10.937-4.897-10.937-10.938 0-6.04 4.897-10.938 10.937-10.938m107.75 4.03l42.19 13.656-14.188 33.781-36.437-9.875zm-186.97 1.406c6.04 0 10.938 4.897 10.938 10.938 0 6.04-4.897 10.938-10.938 10.938-6.04 0-10.938-4.897-10.938-10.938 0-6.04 4.897-10.938 10.938-10.938m160.41 4.03c6.04 0 10.937 4.898 10.937 10.937 0 6.04-4.898 10.938-10.937 10.938-6.04 0-10.938-4.896-10.938-10.938 0-6.04 4.897-10.937 10.938-10.937m-267.87 12.812l14.531 33.438-39.688 17.16-17.281-34.09zm28.12 2c6.04 0 10.937 4.899 10.937 10.938 0 6.04-4.898 10.937-10.937 10.937-6.04 0-10.938-4.895-10.938-10.937 0-6.04 4.897-10.938 10.938-10.938m146.22 10.09c65.15-.135 123.97 13.486 171.19 33.03l-14.06 13.188c-153.15-52.626-253.29-28.917-356 16.12l-10.375-12.813c72.59-35.51 144.1-49.4 209.25-49.53m173.25.406c6.04 0 10.938 4.898 10.938 10.938 0 6.04-4.897 10.937-10.938 10.937-6.04 0-10.938-4.897-10.938-10.937 0-6.04 4.897-10.938 10.938-10.938m-399.09 24c8.787.518 9.627 16.915 5.531 12.188l-9.781-11.313c1.588-.681 2.995-.949 4.25-.875m409.41 6.781c-.322 12.433-12.1 95.77-51.844 153.06-2.412-28.979-9.405-63.63-17.219-86.75 0 0 42.765-39.514 69.06-66.31m-508.41 126.28l206.81 278.87-21.719-.156c-4.538-20.478-11.1-41.43-24-57.09-10.47-12.718-19.847-22.3-38.625-30.844-11.3-5.136-12.755-4.04-13.469-12.719-3.411-48.775-42.908-79.45-73.16-91.12-2.919-29.482-16.228-58.49-49.594-82.906zm-20.14 6.677c18.896 12.987 39.606 24.25 50.764 75.45.839 10.706 1.495 9.566 9.905 12.716 32.96 9.661 61.63 49.28 64.19 83.91-.027 10.445 3.38 11.372 16.25 16.781 15.805 6.638 32.21 20.679 41.5 34.5 13.814 19.87 18.691 49.961 17.5 48.531l-11.375.063c-8.115-51.02-40.21-71.37-74.16-80.9 2.643-72.02-53.36-94.5-72.915-97.88 1.149-51.877-32.417-73.28-54.08-90.69 4.04-1.588 12.425-2.479 12.425-2.479m-33.454 7.155c16.916 5.528 29.736 29.1 28.435 39.949 22.313 2.812 45.755 24.38 40.61 46.847-1.65.952-4.256 1.145-6.836-1.435 5.979-43.585-59.09-22.01-33.09 9.526l-11.625 7.594c-9.35-43.619-20.861-68.33-33.36-99.84 4.557-1.203 15.858-2.641 15.858-2.641m53.873 91.39c5.779 0 10.438 4.69 10.438 10.469 0 5.779-4.659 10.469-10.438 10.469-5.779 0-10.469-4.69-10.469-10.469 0-5.779 4.69-10.469 10.469-10.469m55.859 47.05c24.845 7.03 32.886 32.18 32.07 41.33l-5.43-.123c-8.735-39.848-54.15-18.17-35.19 13.608-24.278 8.973-22.362 31.382-15.214 40.24 9.868 12.23 35.02 11.846 42.691-6.977 23.604 30.533 56.17-3.728 27.438-32.19 23.531 8.667 27.306 40.19 23.769 50.04 10.923 3.725 23.507 21.06 21.825 20.961l-176.31.031c0 0 8.535-71.15-.531-124.84 11.731 2.822 19.597 5.658 33.09-10.188 21.842 18.08 37.54 4.436 36.406-11.188-1.678-10.927-7.324-16.354-16.688-22.12 19.12-4.7 33.573 28.367 32.08 41.42m19.672 50.12c5.954 0 10.781 4.827 10.781 10.781 0 5.954-4.827 10.781-10.781 10.781-5.954 0-10.781-4.827-10.781-10.781 0-5.954 4.827-10.781 10.781-10.781"/>
   </g>
  </g>
 </g>
</svg>
