<svg xmlns="http://www.w3.org/2000/svg" viewBox="0 0 744.09 1052.36">
 <g transform="translate(-512.47-136.72)">
  <rect rx="10.63" width="223.23" height="311.81" x="772.9" y="507" fill="#fff" stroke="#000" stroke-width=".997"/>
  <g transform="matrix(.1541.0006-.0006.1541 548.67 610.34)">
   <path d="m3628.41-18.625l-1059 .531 6.375 1700.25 1062.78-2.219c-8.228-566.88-9.01-1132.69-10.156-1698.56m-124.94 14.313l111.69.563v654.25c0 0-6.958-.201-6.312-4.781.865-6.133-.076-17.609-4.375-22.438-1.812-2.035-4.771-5.236-5.938-7.563-2.933-5.848-7.762-11.9-11.625-13.531-1.92-.811-4.146-1.264-4.437-2.594-.27-1.235-.899-5.313-1.719-9.06-2.053-9.39-3.881-9.09 2.094-18.438 20.702-32.373 28.671-62.15 26.06-91.68-.817-9.223-3.13-21.17-4.223-22.81-20.01 20.05-34.491 44.827-48.11 63.13-3.034-26.15-2.598-45.893-3.039-66.859 10.685-3.047 17.15-8.733 21.75-23.281 0 0 11.454 8.967 18.469 7.688l-4.619-16.897c30.636-9.401 34.826-49.38-1.358-57.831l3.258-21.05c0 0-10.918 3.655-15.719 6-2.39 1.01-2.981.209-4.656-3.25-16.873-26.25-43.07-20.662-54.625 5.219l-14.12-6c1.531 7.162 3.358 14.425 2.063 21.594-29.647 13.2-22.323 49.33 1.344 54.06l-2.063 16.875 17.813-5.75c2.597 7.929 1.268 12.513 15.5 21.438-.349 35.37-.923 57.48.188 88.91-18.555-18.998-36.459-32.19-67.844-41.875 0 0-.292 7.617 1.531 19.19.602 3.817.487 3.257-1.313 3.25-4.079-.093-22.469-29.656-22.469-29.656 0 0-2.137.026-4 1.875-2.19 2.173 2.814 6.187 9.844 16.625 8.229 12.218 7.434 11.702.969 17.188-36.749 31.18-89.82 149.87-80.906 161.41-23.23 1.39-113.78 45.784-130.22 137.31-.975 4.121-2.906 9.469-2.906 9.469l-26.19-6.5c15.795-74.966 51.44-227.41 51.44-227.41 0 0 25.06-7.12 39.719-8.688l-.156-5.906-34.5 8.03 1.656-13.06 32.563-6.406-.094-3.094-34.469 4.625 5.625-21.75c0 0-77.38 11.365-105.09 10.531 1.755 84.58-4.919 154.84-1.328 245.99l-37.829-22.925c-3.364-63.46-4.375-223.75-4.375-223.75l-104.45-16.406 3.469 25.18c-86.59-34.32-173.46-65.898-237.42-132.99 39.38-30.22 105.09-60.19 105.09-60.19l-2.156-4.813c-161.58 83.3-221.6 141.17-302.78 212.97l-2.187-593.56 441-.219-1.469 108.25c0 0-.573 2.804-1.406 3.781-5.392 26.22 10.09 72.77 6.969 95.44 1.444 6.995.938 20 .938 20-26.329 36.06-40.28 70.3-52 112.22-4.535 1.799-11.216 5.508-15.938 6.781l-1.344 5.719c10.332-5.675 39.625-14.938 39.625-14.938 130.5 63.62 226.4 48.05 329.03.781-16.365 57.44 19.212 130.48 77.75 145.84 6.693 1.756 18.16 3.253 24.719 1.531 6.554-1.89-14.752-50.645-24.19-52.47-28.28-12.247-39.922-41.03-36.906-74.03l-4.688-7.875c-9.64 40.09 13.554 80.81 45.41 90.75l8.562 18.688c-57.727-17.315-82.31-71.37-63.09-124.81.335-33.35-21.272-48.1-31.19-62.47-50.2-19.15-59.53-65.64-50.75-103.22 23.37 9.94-15.75-33-15.75-33-17.213 37.28-24.405 84.42 14.969 132.19-25.472 33.749-58.31 60.45-95.03 83.25-53.661 28-93.92 9.134-119.84-52.875-15.565-37.23-21.14-74.35-21.06-113.22.088-24.07.359-24.797 9.375-20.719 8.47 3.832 26.843 4.376 37.813-1.281 14.948-7.708 14.243-3.02-2.031 13.719-4.427 4.552-9.153 8.66-9.156 9.531-.019 4.941 6.948.778 16.875-9.06 3.625-3.593 6.304-7.05 7.438-7 1.298.06 1.18 4.688-.313 9.688-.573 1.919-2.396 10.03-4.062 18-1.667 7.969-3.95 17.33-5.063 20.813-4.414 13.821-3.217 20.227 10.04 26.612 6.99 3.366 18.944 14.825 18.839 14.825 0 0-2.855-12.565-1.798-16.605 1.272-4.859 7.05-1.423 12.931 1.387 13.01 6.212 20.574 6.39 27.554.563 9.632-8.04 6.871-26.1-5.03-30.813-8.734-3.456-10.261-.258-1.543 5.821 13.08 9.121-1.669 23.22-12.777 14.48-8.689-6.837-23.775-7.603-25.459-1.909-1.592 5.383-3.237 4.405-9.252.89-9.348-5.463-9.427-6.419-1.594-36.563 14.833-57.08 13.38-78.03-6.281-95.37-14.553-12.836-38.591-18.796-63.53-4.531v-19.438c36.609-14.629 63.24-38.832 84.72-79.34h4.187c21.382 46.3 55.945 79.55 120.97 103.94 25.405 25.08-32.2-72.05-13.813-32.28-34.502-13.362-65.26-39.26-82.19-71.66h9.406c9.911 14.32 29.994 40.451 65.75 58.5 3.246 2.716 6.375-.094 6.375-.094 0 0-29.999-47-34.906-58.19l299.71-2.121c-9.511 72.995-22.903 152.32 29.802 294.48-24.72-12.98-123.84 14.672-106.39 20.14 8.758-10.11 71.919-25.03 118.66-14-3.867-3.338-71.27-159.74-32.06-299.06m32.06 299.06c.086.074.166.11.188.031-.061-.014-.126-.017-.188-.031m-231.56 281.69l.281 11.438 2.375-.563-1.375-11.125zm-270.59-580.41h13.156c-2.889 5.942-7.106 10.397-13.531 14.06zm22.625 0h14.156c-11.03 17.553-22.754 28.18-36.906 36.5l.25-13.75c8.183-7.167 15.989-14.579 22.5-22.75m23.406 0h13.06c-17.729 27.23-35.923 45.519-59.22 57.09v-11.125c14.389-11.19 34.793-27.635 46.16-45.969m19.938 0h10.562c-18.16 34.598-43.49 58.49-76.66 71.781v-8.313c36.33-19.358 52.22-40.966 66.09-63.47m28.875 0h12.687c17.407 34.591 53.57 67.31 93.28 81.66l6.06 14.03c-52.35-18.793-87.02-46.21-112.03-95.69m36.719 0h9.06c9.525 13.278 21.07 24.07 34.563 33.03l8.219 15.906c-18.208-12.249-38.535-27.12-51.844-48.938m16.531 0l10.125.531 13.406 22.344c-8.932-5.02-15.696-15.223-23.531-22.875m-11.625 89.81c-13.883-.064-26.511 3.764-35.656 11.219-9.66 7.874-2.553 16.453 11.344 10 23.67-10.991 50.863-6.04 80.22 10.03 24.716 13.529 16.06-.569-7-15.625-15.806-10.456-33.17-15.553-48.906-15.625m-111.62 17.719c19.913.158 42.726 8.977 43.28 20.656-13.206-11.05-39.752-16.41-65.22-5.063-1.949-.413-2.223-7.341-1.062-9.875 5.483-4.047 13.949-5.79 23-5.719m120.59 7.531c-12.592-.003-24.11 3.293-29.438 10.375-2.719 3.357-3.438 3.717-6.438 3.219-5.857-.974-5.529 2.412 1.156 11.688 3.243 4.499 2.71 9.618-1.625 15.719-4.978 7-4.01 7.271 10.812 14.375 11.33 5.516 20.427 13.34 30.719 19.781 7.352 4.148 8.82.5 2.031-4.969-2.33-1.877-9.234-6.806-15.437-10.844-10.514-6.843-18.232-13.76-9.875-10.688 3.831 1.211 4.818 1.716 9.03 2.438 10.831 2.341 21.534 3.646 30.625 1.813 6.521-1.303 15.02-5.619 22-11.656 1.785-.822 3.547.051 7.875.219 16.557.643 12.903-4.217-10.875-17.188-23.527-12.834-41.981-15.174-57.03-8.125-6.372 2.984-10.02 3.729-9.09 1.844.965-1.966 2.735-4.25 5.594-5.906 24.323-14.555 43.87-2.49 65.31 8.438 9.202 5.483 11.689 6.909 12.781 5.156 1.399-2.245-10.26-10.532-25.906-18.375-9.174-4.755-21.11-7.31-32.22-7.313m-77.76 16.852c4.117 1.612 2.271 6.317-1.489 4.834-22.462-10.08-26.969-14.999-53.744-5.665-8.846 3.084-12.35.359-1.494-4.296 23.652-9.896 40.816-3.22 56.727 5.128m-15.393 11.866c-6.084 30.901-36.847 21.374-33.375.156l5.656.031c.44 18.662 19.15 18.536 22.344.188zm178.91.063l8.281 17.719c-18.12 44.618 6.478 104.7 59.969 119.09 0 0 8.629 13.259 6.938 14.938-100.42-22.22-92.69-117.95-75.19-151.75m-95.12 1.156l2.813.156c8.673 21.538 21.267 9.162 23.719.063l6.406.156c-1.956 22.307-35.798 26.09-32.938-.375m-77.41.625c4.064-.474 5.448 5.626 4.313 6.75-.314.311-7.747 7.532-8.656 3.281-1.33-6.218 2.655-9.727 4.344-10.03m-46.844.625c.344.002.692.019 1.063.063 2.52 1.921 3.476 7.665 2.156 10.625-1.492 1.548-7.52-.565-8.687-2.875-1.793-3.376.313-7.846 5.469-7.813m162.87 2.063c1.982.079 7.437 2.435 6.906 5.063-.135.668-7.726 6.256-9.438 5.344-3.293-1.755 1.263-9.782 1.906-10.281.113-.088.342-.136.625-.125m-44.37.969c.05-.015.107-.013.125 0 .585.434 5.436 3.452 1.313 9.03-.285.385-5.787-1.572-5.875-2.219-.446-3.245 3.682-6.583 4.438-6.813m121.69 39.12c-1.225 25.646 5.463 50.54 33.469 66.53l-6.03-11c-7.179-5.719-22.22-22.04-20.344-41.469zm-251.5 45.844l3.156 16.875c-15.412 25.607-27.11 50.773-36.812 80.19l-14.563 5.313c11.562-37.1 22.253-66.49 48.22-102.37m6.125 26.28l4.125 14.5c-7.567 13.945-15.654 29.698-20.531 48.03l-16.09 5.938c7.242-24.292 17.832-47.89 32.5-68.47m51.03 6c-.24.002-.476.027-.719.094-.17 2.86-.139 10.76.469 23.781.115 2.47 2.539 1.43 9.375-2.063 5.961-3.045 5.347-3.527 11.125-1.594 16 5.479 23.28 3.1 29.531 1.49 9.533-2.456 13.426-1.461 18.969 1.854 3.049 1.823 7.207 3.169 8.03 3.469 4.39 1.597 2.717-.334-.281-12.188-3.372-13.33-1.926-14.792-7.269-11.32-1.174.763-4.564 2.64-6.416 2.855-4.655.542-12.429-5.164-17.07-3.351-11.228 4.393-11.126 3.237-21.552.681-5.212-1.277-10.202 1.898-14.728 2.791-2.586.323-5.867-6.526-9.469-6.5m191 6.906c18.969 17.398 38.47 23.352 59.62 29.938-2.55 8.652-7.656 18.38-10.03 29.688-110.1 58.19-220.73 56.37-325.09 3.531l54.16-20.688c29.587 51.24 67.52 64.922 110.16 48.16 47.651-22.17 82.927-53 111.19-90.62m-235.25 10.25l4.688 12.563-6.969 18.938-13.281 5.375c2.544-12.901 7.452-23.501 15.562-36.875m99.5 14.563c-3.295.158-8.273 2.374-19.625 2.438-6.146.034-10.96-.514-13.344-.031-4.945 1 .834 3.21 11.906 6.375 11.07 3.151 24.6-1.601 26.28-6.406.411-1.174-1.049-2.575-5.219-2.375m-91.72 6.188l2.906 6.375-4.969 1.781zm292.72 3.594l8.219 18.719c-14.24 30.818-23.695 115.28 71.37 141.56l4.156 12.09c-64.706 1.264-129.55-80.98-83.75-172.37m-217.69 6.375c-9.29-.092-19.02 2.215-25.281 7.188-5.662 4.479 1.26 7.303 8.625 3.719 9.539-4.642 25.464-4.259 34.813 1.594 7.148 4.873 10.876 4.02 6.094-3.406-3.753-5.825-13.721-8.989-24.25-9.09m415.09 21.03c24.849-.41 27.432 35.16 22.594 38.22 1.399-.471 5.645-1.721 11.688-1.563 18.209.476 27.702 10.543 28.75 25.19 1.056 14.755-10.155 22.974-26.5 22.16-6.066-.303-10.245-.918-9.969.156 3.036 11.79-.629 29.562-16.25 34-1.795.51-4.35 3.01-4.406 3.906-1.169 18.701 4.156 82.938 4.156 82.938 0 0 29.28-49.22 35.875-56.688 12.892-17.597 15.221-16.02 15.25 13.219-2.134 40.563-8.641 49.867-32.531 83.91-10.228 14.661-34.443 6.963-32.25 16.875.484 2.189 4.416 6.12 8.344 9.844 2.516 2.385 5.119 3.883 11 3.688 10.331-.343 14.354-2.438 8.184 6.539-4.883 7.105-22.05 8.578-23.98 12.273-4.499 8.596-1.419 6.696-9.11 14.25-5.885 6.448-3.838 3.162-1.156 8.469 4.208 6.847 2.456 20.511-1.719 29.719-3.401 7.5-3.02 12.851-3.02 12.851.062.625 9.562-9.802 12.428-21.851 2.385-10.02 5.178-15.05 5.156-9.438-.028 7.081 1.206 16.704 7.594 20.375 5.05 2.904 5.779 5.804 4.938 9.375-.87 3.692 3.075 6.944 6.969 10.03.915.912 3.985 2.113 3.656 4.063-1.039 6.161 1.462 13.406 5.954 14.586 2 .991 14.753-.093 16.859-7.273-.204-2.288-.019-11.706-5.094-12.25-3.587-1.651-3.213-2.638 2.219-5.875 8.125-4.843 14.02-8.319 18.03-9.06 5.372-.729 10.531-6.563 10.531-6.563l1.031 387.19c-48.19 49.32-101 98.41-170.66 146.66-40.476-33.73-84.7-67.874-131.66-93.44l-16.219-9.594 5.813-7.438-28.16-37.12 31.688-25.5 8.03 10.156-15 14.563 22.5 24.875 50.563-49.31-33.31-31.875 17.344-32.469 11.09 5.438-8.375 20.594 25.344 16.03 31.719-63-40.22-18.313 10.188-42.31 12.406 1.313-4.125 30.469 31.344 6.219 12.75-71.844-46-8.219 3.906-40.969 12.844.156-1.875 22.656 32.5 4.625 6.125-62.62-45.09-7.469 5.813-48.34 10.313 1.469-2 29.813 33.09 5.656c3.637-20.22 6.601-45.606 12-65.44l-42.625-15.875 15.09-40.594 9.594 3.344-8.375 22 31.469 13.375 26.531-52.34-37.06-26.22c8.304-13.776 16.596-26.871 28.469-38.03l7.281 6.344c0 0-2.672 2.409-6.781 8.094-4.991 6.905-6.556 10.392-5.875 12.188.673 1.775 23.573 18.681 25.313 18.688 2.02.008 9.615-6.915 13.531-11.563 4.191-4.974 6.387-5.454 10.719-2.344.863.62 2.109 1.848 3 2.906 1.041 1.25 1.459 2.298 1.563 3.094.102.781-.118 1.304-.313 1.625.368-.348 1.166-.953 2.875-1.906 3.112-1.735-6.03-9.769-13.5-13.938-22.35-12.542-48.643-36.18-54.719-65.75-2.228-13.279 32.1 2.692 55.75 26.25 3.584 3.564 16.906 16.469 16.906 16.469-1.943-34.18-4.727-68.903-3.219-103.5l-5.219-3.625c-7.307-5.089-10.117-13.441-10.781-21.813-.458-5.772 4.495-8.723-6.813-8.344-23.531.209-37.15-21.94-22.875-40.875 5.101-7.085 26.806-10.546 26.781-10.375-5.544-22.645 11.11-34.794 23.375-35.938m-8.563 263.34c-.446.421-.257.424 0 0m31.16-225.12c-.308.104-.656.219-.656.219.226-.009.454-.091.656-.219m-783.5 73.969c65.718 55.32 107.65 92.55 241.41 134.22l3.313 19.813c-76.913-17.756-160.82-53.703-260.56-143.06zm-19.781 12.781c41.611 38.846 84.27 68.43 127.44 93.25l15.16 9.125-7.813 8 25.406 36.625-32.688 26.656-7.781-7.75 17.06-16.719-24.281-23.875-49.47 50.06 33.906 30.06-19.656 30.22-7.125-3.219 10.438-21.06-31.5-17.188-35.22 64.719 44.844 20.406-10.125 39.719-10.469-.531 3.531-31.12-33.719-5.969-11.344 72.72 43.37 6.813-1.031 41.875-11.563-.188.813-23.656-34.25-1.594-3.063 61.03 42.16 5.469-4.187 49.53-10.375-2.656 1.156-32.16-32.12-3.156-11.06 68.37 43.34 12.375-15.312 42.625-9.406-5.156 6.156-22c-7.904-3.447-30.12-12.688-30.12-12.688l-28.313 53.09 36.719 25-22.594 39.688-8.719-5.844 15.594-23.16-30.5-19.16-17.375 23.719c-7.375-6.406-20.631-15.294-25.687-21.25-5.404-4.921-9.513-5.671-16.469-4.03-5.489 1.294-10.774 2.286-9.563.344.596-.956 11.02-7.968 26.938-18.06 4.452-2.823 7.961-5.289 7.906-7.813-.04-1.884 2.411-4.871 5.625-6.813 3.557-2.149 2.761-4.151 2.188-6.375-3.077-11.942-1.136-30.561 4.875-43.09 4.02-8.389 5.284-9.896 2.656-9.906-7.749.993-17.192 29.06-19 36.969-.608-.628-1.451-8.03-2-10.875-.991-5.143-1.713-8.332-5.844-9.313-4.938-1.173-3.372-3.537-3.875-7.25-.817-6.02-3.662-9.837-8.812-11.969-4.958-2.052-5.498-2.877-5.281-7.813-.017-3.877-4.057-10.441-7.06-12.531l-17.188 6.06c-1.352 4.538.446 10.422 3.281 12.563 8.637 8.127-4 8.239-12.656 13.531-2.339 1.514-5.138 4.807-7.03 3.719-5.495-1.8-5.064 14.618-10.469 12.563l1.313-393.84c46.05-47.684 180.25-147.12 180.25-147.12m696.06 69.66l6.625 7.344c-20.547 23.12-35.45 46.928-51.875 76-14.01 24.803-26.12 59.53-32.469 97.41-4.898 23.18-5.656 46.779-8.688 70.5-3.088 25.524-3.678 59.89-8.562 86.84-9.02 73.917-29.778 113.25-74.906 155.19-19.834 18.432-81.54 53.24-83.22 52.906l-14.625-3.625c126.52-64.767 158.15-109.44 171.84-262.75 2.677-192.35 90.17-266.86 95.87-279.81m12.438 12.875l6.781 6.531-36.937 52.16 36.406 25.656-14.438 33.719-11.03-4.094 7.844-23-30.625-12.906-24.75 67 43.625 13.75-7.188 43.656-8.813-2.375.031-29.75-32.375-6.594-9.406 74.844 47.688 6.625-3.5 38.625-11.281-.781-.437-23-33.09-1.75-7.563 64.875 46.969 7.969-8.5 46.09-10-2.375 2.25-30.406-31.5-4.156-18.219 62.25 39.563 19.938-19.469 39.906-8.344-5.813 10.781-23.594-30.781-15.188-29.719 51.5 32.25 31.719-31.5 33-7.03-9 16.25-17.5-24.281-24.03-50.5 40.16 25.781 33.969-3.03 4.281-26.625-10.688-12.75-16.844-15.25 6.687-12.03-4.594c74.59-39.11 123.12-84.46 143.16-152.84 11-37.812 14.275-79.07 17.844-120.66 1.854-21.597 3.776-43.29 6.906-64.62 3.677-34.851 9.01-64.1 23.16-97.72 17.15-40.772 38-69.51 63.69-100.62m-401.37 25.781l51.22 27-.75 17.938-47.34-23.719zm14.406.5l36.5 5 .156 14.719zm-164.53.469l21.313 9.594 18.06 20.844 13.531-8.875 14.688 5.5c-46.41 23.85-87.59 52.39-119.66 101.62-35.737 54.867-39.708 126.7-44.28 196.03-7.624 95.64-24.02 162.82-87.59 240.34l-9.375-5.906 34.31-54.5-38.688-25 17.625-32.22 8.906 3.063-6.906 19.219 32 16.875 24.531-68.69-45.12-14.06 7.562-42.969 11.344 1-3 30.781 32.25 5.094 9.25-72.62-43.47-6.656.969-38.37 10.656 1.031-.062 23.344 34.28 1.844 2.656-66.25-42.625-4.719 5.25-46.781 11.938 1.219-2.75 28.06 32.812 4.688 15.563-60.56-42.625-19.25 23-40.906 10.344 4.75-10.563 22.656 29.563 14.406 31-47.37-32.938-31.625 32.34-33.844 7.937 7.781-17.562 20.19 24.344 22.5 48.19-40.44-23.531-35.37zm306.53 2.25l-1.5 16.969-51.34 29.16-.031-16.625zm275.56.594l11.344 7.03-8.219 9.75-9.906-6.25zm-297.16 2.406l-30.75 17.75v-17.656zm362.62 16.563c1.605.037 3.079.382 4.219 1.125 3.094 2.02 2.651 6.992-.844 9.438-4.55 3.185-17.02 2.969-18.25-.313-1.78-4.731 7.919-10.41 14.875-10.25m-490.78 7l44.12 23.813-.156 16.781-42.469-23.344zm143.75.531l-2.594 21.875-45.44 24.09-.375-18.969zm-219.94.406l18.09 4.594c-66.984 29.883-133.18 73.23-158.94 148.84-8.04 22.631-13.463 47.817-16.995 80.06-1.66 34.01-6.05 67.48-7.653 95.84-3.274 57.747-22.282 135.95-87.95 219.04l-6.281-4.938c40.28-49.634 61.22-94.64 74.16-142.19 20.496-75.66 10.335-159.15 32.19-235.31 13.33-46.33 41.01-87.76 82.47-123.59 28.85-22.415 70.906-42.34 70.906-42.34m30.406 6.344c.198-.001.289-.006.313.063 16.262 54.746 36.34 154.53 36.34 154.53-43.02-20.804-114.62-17-114.62-17 0 0-40.29-51.971-48.09-56.25 32.22-43.46 119.92-81.04 126.06-81.34m553.87 8.625c9.906-.316 9.194 14.733-3.344 24.969-6.404 5.228-9.369 4.493-14.09.313-1.39-1.866-5.42-3.197-8.375-2.844-7.03-.027 6.86-14.56 19.219-20.563 2.555-1.241 4.759-1.816 6.594-1.875m-502.91 12.25l39.34 20.19.375 16.625-36.406-19.75zm133.37 2.25l-2.125 18.281-40.969 21.313.219-16.844zm383.37 6.813c1.361-.126 2.418.4 3.406 1.5 5.585 6.22-5.03 25.07-17.06 30.719-4.62 2.17-7.466 1.815-11.313-1.5-1.869-1.61-4.634-3.726-6.219-3.563-6.889.709-3.088-7.02 2.469-7.469 1.534-.125 11.175-7.339 18.469-13.406 4.889-4.067 7.982-6.071 10.25-6.281m-41.625 7.344c8.696-.21 11.861 7.03 1.562 10.188-7.333 2.25-11.425.649-11.406-4.281 1.542-5.065 5.977-5.654 9.844-5.906m-469.72 9.781l34.906 17.5.156 17.938-32.06-16.719zm124.91 2.469l-2.437 16.969-37.594 19.313.094-14.03zm394.03 7.125c2.376.147 3.081 2.797 3.063 7.5-.03 7.789-5.19 14.982-12.938 18.5-5.672 2.576-9.675 2.375-12.5-.656-1.286-1.38-3.079-2.495-4-2.531-12.143-.481-10.187-3.611 1.438-8.469 4.094-1.711 12.13-7.281 15.938-10 4.286-3.061 7.152-4.458 9-4.344m-44.563 5.531c5.956.023 11.2 4.225 7.906 6.938-2.561 2.109-12.169 3.127-14.06 1.219-3.597-3.625-.394-8.182 6.156-8.156m-468.59 12.06l29.75 16.03-.156 17.06-28.406-16.06zm114.12 1.313l-.687 17.469-34.16 16.844-.219-16.656zm367.5 7.245c5.778.417 5.05 6.01.377 8.724-3.485 2.421-8 1.147-9.844-1.688-4.154-7.891 5.285-6.94 9.467-7.04m11.592 17.928c.962 1.93.429 5.384-1.467 6.477-2.533 1.068-9.107-.046-10.123-1.962-.834-1.574-.644-2.4.969-4 2.689-2.138 8.731-3.727 10.622-.515m-488.9.327l25.406 13.875-.156 16.75-23.344-13.563zm105.66.438l-1.25 16.12-29.563 14.656.406-15.719zm-309.5 10.156c6.337.074 11.229 4.296 7.5 11.5-2.329 4.499-4.084 6.161-14.219 13.313-4.136 2.919-7.724 5.59-8 5.938-.276.348-2.917 2.171-4.656 3.375-9.08 6.287-5.931-6.84 5.406-26.19 3.249-5.545 9.04-7.995 13.969-7.938m307.25 14.375l-2.344 17.75-26.437 13.5v-17.09zm-99.41 1.656l21.375 10.594.312 17.281-19.406-10.188zm256.78 1.344c.687-.028 1.286.207 1.719.813 1.751 2.451 2.032 13.04.312 19.03-2.992 7.05-8.809-10.734-8.156-15.25 1.243-2.045 4.065-4.51 6.125-4.594m-449.34 3.219c8.645-.159 14.895 5.747 11.969 14.5-3.371 8.451-22.885 13.769-31.688 19.594-5.758 2.856-7.152-.242-5.375-5.219.822-2.301 1.453-4.103-2.938-4.75-10.659-1.57-4.164-6.75 15.375-19.844 4.281-2.869 8.727-4.209 12.656-4.281m428.69 5.531c3.066-.034 6.847 1.763 10.75 6 6.714 7.289 11.566 22.634 7.906 26.625-2.805-.312-4.196 3.825-4.344 5.5-.426 4.834-9.247-3.991-17.594-17.906-6.724-11.209-3.464-20.14 3.281-20.22m-360.03 2.594c26.351-.18 76.67 5.266 146.31 48.844 8.882 5.566 17.766 11.701 27.813 16.656 26.422 14.248 48.23 23.905 82.28 30.25l-.969 17.625c-.306 5.561 8.862 37.766 4.656 55.875-6.248-.12 6.03 5.344 6.03 5.344l8 16.375c0 0-41.806-.354-60.813-4.094-30.616-4.979-86.49-30.93-113.5-51.34-28.05-20.578-70.43-37.684-106.75-44.31l-.5-15.16c0 0-3.607-51.896-6.5-59l-6.688-16.406c1.64.659 8.647-.574 20.625-.656m219.84 11.375l-2.031 17.406-23.19 10.875v-14.906zm115.56.781c6.488.015 16.316 7.608 27.531 22.781 2.527 3.418 4.476 6.384 4.844 8.438.34 1.894-.828 2.982-2.688 2.75-4.421-.799-6.04-2.395-7.281 3.094-.304 1.359.483 3.819-1.031 3.375-7.873-2.31-30.383-25.02-29-32.28 1.039-5.453 3.732-8.165 7.625-8.156m-206.5 1.156l16.906 9 .75 17.16-15.03-6.469zm-181.69 5.219c5.191-.169 8.413 1.88 10.06 5.906 3.977 9.707-3.066 15.553-23.969 19.938-18.16 4.316-17.789 4.585-15.25-2.156 1.684-4.473-3.927-4.971-7.06-6.156-5.299-2-.963-2.625 14.281-10.219 9.578-4.772 16.747-7.144 21.937-7.313m-60.44 4.594c.516-.044 1.134.443 2.031 1.563 26.407 31.988 19.616 78.61-13.813 101.62-3.796 2.513-3.929.183-3.5-4.813l.656-9.5c.171-1.887 38.4-25.354 10.125-77.56l2.375-7.375c.756-2.349 1.265-3.864 2.125-3.938m431.41 9.938c10.425.04 39.683 26.583 27.22 27.531-1.464.111-.964 2.01-.969 3.219 0 1.208-.069 3.506-.406 4.375-.899 2.317-4.311 1.86-9.563-1.25-13.313-7.882-16.334-10.394-20.937-14.75-9.06-8.571-6.485-19.17 4.656-19.12m-103.03 4.563l-.188 14.313-20.844 10.09.125-12.938zm-264.16 10.281c14.03-.484 21.921 13.494 7.906 20.844-5.603 2.938-24.05.878-32.625.125-9.684-.85-3.965-3.726-3.438-4.594 1.329-2.187 2.36-2.524-2.687-5.531-4.01-4.22-6.309-5.256 3.719-6.563 4.867-.634 16.686-1.786 20.781-3.125 2.209-.722 4.34-1.087 6.344-1.156m427.03 3.406c1.033-.046.922 1.668.5 6.125l-.688 9.563c-6.389 1.02-38.13 40.48-12.344 86.37l-2.156 8.156c-.991 4.03-1.313 4.621-4.656 2.125-19.326-13.356-25.598-81.35 14.438-109.47 2.606-1.726 4.103-2.839 4.906-2.875m-75.37 7.969c3.731.067 8.296 1.118 13.531 3.5 12.195 5.549 20.298 10.04 22.19 13 1.167 1.83-.664 3.354-3.125 4.063-2.977.857-3.34 2.103-2.531 5.594-.001 2.028.51 4.27-2.031 4.406-4.704.251-15.211-3.061-25.844-8.781-17.951-9.657-15.514-22.02-2.187-21.781m-91.19.219v17.406l-17.12-7.906zm-287.06 14.969c1.815.048 4.219.373 7.375.875 3.858.614 9.849 1.21 12.937 1.156 19.517-.339 27.601 13.249 11.5 20.16-4.403 1.889-6.236 1.684-18.281-1.813-5.769-1.674-12.834-3.432-15.719-4.25-5.802-1.646-7.808-3.473-3.969-4.781 3.576-1.218 3.885-3.691 1.656-6.969-.542-3.283.508-4.482 4.5-4.375m453.53 0c-2.765 26.955-5.02 47.96-9.09 74.34-2.971-1.171-24.03-50.883 9.09-74.34m-82.12 12.906c6.351.116 17.07 2.56 27.5 6.656 9.114 3.356 10.264 4.252 3.969 6.938-3.802 1.622-3.34 3.076-2.219 5.563 1.733 1.865 5.02 5.596-.156 4.844-6.131.461-22.24-.449-27.16-1.313-14.708-2.581-18.716-15.841-6.656-22 .971-.496 2.602-.726 4.719-.688m-377.91 6.813c1.36-.003 3.851.729 8.375 2.156 26.413 8.333 37.12 18.428 24.19 28.22-3.752 2.84-9.575 1.634-20.562-4.5-11.236-6.273-16.875-9.71-18.969-11.938-2.077-2.21-.945-4.743 2.25-4.531 4.383.29 3.725-1.91 3.375-5.594-.245-2.58-.405-3.808 1.344-3.813m71.25 2.438l20.25 4.594-50.563 221.12c-17.26 4.979-27.21 7.125-39.34 13.656l34.969-6.03-3.03 15.813-31.75 5.969-.719 4.719 36.37-6.562c0 0-1.297 15.09-2.562 20.937 34.713-2.795 68.997-12.447 103.91-12.719 0 0 .847-174.51.719-193.53-.139-20.554.031-45.12.031-45.12l35 19.75 5.781 219.94 109.62 17.812c-.764-3.709-3.749-20.71-3.749-20.71 81.27 23.963 163.68 59.39 236.62 132.6-33.943 18.367-66.02 36.581-99 54.23l-4.781 6.875c83.62-39.06 210.74-120.27 302.53-210.03l2.031 581.56-439.34 1.75c0 0-.024-28.01-.031-54.41l.25-48.625c-1.785-31.18 3.644-65.52-5.906-91.69l-1.875-27.406c27.08-31.492 41.71-71.2 54.625-111.78 0 0 13.03-5.05 19.375-7.281l2.188-7.969c-12.595 6.43-41.5 17.219-41.5 17.219 3.108-2.432-61.46-29.616-101.34-36-65.808-10.534-154.33.316-224.91 35.31-3.457 2.438-4.932 2.38-4.063-.781 16.387-59.59-18.13-119.42-78.72-136.75-12.853-3.677-23.375-3.656-23.375-3.656l1.094 5.219c99.01 11.154 122.23 115.77 84.12 164.37-9.992 16.03-11.516 20.713 9.461 20.18 84.77-.692 114.24 94.03 75.61 146.44.098-.408 3.129 6.098 3.129 6.098 24.09-31.802 30.509-92.22-12.188-134.69 31.564-35.19 92.16-91.52 144.56-88.22 19.07 1.2 37.9 24.289 50.44 42.719 26.548 39.02 33.368 93.52 35.25 124.59.463 8.143 1.548 14.06 1.563 18.344.041 12.441-2.337 10.95-10.375 8.875-10.09-2.605-23.93-2.709-34.16.406-16.433 5.01-13.781 2.152.844-15.969 8.629-10.691 9.788-13.986 6.219-14.688-1.091-.214-4.746 3.451-9.531 10.813-14.427 22.19-13.303 13.08-2.875-21.531 6.78-22.505 6.092-24.08-12.375-38.06-6.11-4.627-13.617-9.12-14.281-10.531-3.479-7.383-4.931 1.88-1.813 7.969 3.047 5.949-3.406 8.666-14.75 2.531-26.699-14.789-44.08 15.15-20.25 28.12 5.617 3.058 8.752.549 4.406-3.469-14.661-13.555-4.461-24.974 15.375-12.969 11.466 6.939 15.823 4.718 19.656-3.969 2.123-3.54 19.925 9.209 19.906 14.156-.013 3.246-2.074 13.636-4.094 20.594-5.701 19.638-7.25 25.737-9.719 38.469-4.477 23.09-4.357 34.916.438 45.06 10.744 22.737 37.789 33.463 61.25 24.313 3.41-1.33 9.937-2.438 9.937-2.438l.281 16.688c-46.26 17.518-79.68 72.2-78.16 74.06l-16.5.031c-21.9-43.478-60.44-76.22-109.41-94.31 0 0-5.892-9.807-.625 8.094.326 7.18 7.887 17.307 14 20.844 23.264 11.824 54.04 32.793 71.03 65.34l-11.687.188c-14.25-21.723-32.709-36.39-50.22-49.19-4.116-.867 3 39.39 19.813 51.813l-301.56 5.25c20.579-80.52 24.532-169.86-23.688-286.97 39.979 2.454 75.44-6.125 107.94-20.313l-2.938-8.344c-37.02 17.676-77.65 21.15-118.31 17 30.847 57.11 57.84 176.78 31.563 291.87l-110.69.594-1.531-627.44c0 0 4.327 3.948 5.687 5.312 3.475 3.486 5.825 8.697 6.813 12.469 1.264 4.825 2.602 5.118 9.5 10.281 3.309 2.477 5.224 4.659 5.219 5.938-.192 1.425-.237 5.825 2 8.531 6.077 7.349 5 12.07.438 16.813-21.22 22.08-34.511 68.47-23.781 117.41 25.17-16.941 51.09-61.24 51.906-61.31l2.438 60.5c-2.236-.497-17.598 8.603-17.781 20.5-6.957 2.068-15.448-1.391-22.5-3.469l5.086 17.82c-25.829 10.302-27.22 45.635 2.714 55.724 0 0-2.731 13.815-5.081 21.237l19.437-2.961c11.29 33.718 54.639 22.921 54.43-.602 0 0 13.191 4.953 18.2 7.156l-4.875-22.984c49.29-24.594 12.419-56.792 1.164-56.33.153-6.423 3.1-8.45 5.805-15.938l-19.906 1.25c-3.652-11.872-17.03-21.583-17.531-20.281l-2.75-86.59c15.05 13.13 29.859 26.585 49.812 37.03 18.416 9.641 20.29 7.488 17.563-9.156-1.231-7.509-1.125-12.438-1.125-12.438 6.906 1.624 24.338 24.269 23.5 35.438 6.365 8.303 12.139-14.04-4.281-33.06 43.711-45.773 77.02-121.64 84.12-173.34l58.12-23.12.656-7.563c39.6-26.495 60.25-63.35 71.12-105.03m48.37 13.531l13.375 5.969-15.188 7.531zm-128.87 3.656c2.578 1.187 6.481 3.754 11.844 7.688 11.367 8.336 17.998 14.07 18.219 19.12.109 2.497-1.724 5.729-4.594 7.25-6.866 3.64-13.435.661-28.28-14.531-4.798-4.91-8.01-7.537-9.469-9.719-1.704-2.544-.448-4.942 2.375-3.906 12.05 5.44 1.618-9.667 9.906-5.906m409.59 3.125c2.477.011 4.432.067 5.656.313 3.218.646 4.149 2.472 2.156 4.25-3.089 2.755-2.211 5.544.906 7.03 2.14 1.021 1.273 3.176-1.312 4.656-1.51.864-3.818 1.796-6.969 2.781-18.247 5.706-31.698 4-35.22-4.5-4.046-9.771 3.694-14.517 26-14.5 3.313.003 6.304-.042 8.781-.031m-265.72 5.812l-.156 13.09-18.938 9.09 2.063-13.281zm-160.97 4.094c1.661.1 4.386 2.652 8.344 7.5 18.266 22.374 20.733 26.689 14.75 32.625-7.09 7.04-17.04.234-27.75-19.375-1.441-2.637-3.2-6.02-4.25-7.25-3.93-4.599-2.198-6.04 2.781-5.656 2.727.21 4.02-.752 4.094-3.563.075-2.967.739-4.359 2.031-4.281m437.75 11.313c3.325 0 3.077 1.135 1.594 5-1.143 3.425-3.01 4.531 1.812 6.688.799.389 2.577 2.583.969 3.531-3.811 2.576-20.838 10.33-27 12.375-11.974 3.973-19.343-5.781-12.313-15.469 2.947-4.06 23.19-11.411 33.28-12.06.628-.041 1.181-.063 1.656-.063m-447.31 12.969c12.137 18.1 13.655 26.562 5.656 31.844-5.062 3.852-15.848-1.682-18.313-13.375-1.887-8.953-2.751-18.313.164-25.746 4.415-11.258 11.237 5.405 12.492 7.277m170.44-7.5l.094 14.156-23.03 11.563 2.125-15.594zm46.938.563l21.656 14.03 1.25 12.06-22.375-12.313zm241.59 13.938c.57.009.878.266.875.938-.001 1.665-.427 7.587 2.813 8.125 6.37 1.057 4.92 3.043-.656 7.844-6.04 5.347-11.56 11.694-18.844 15.594-18.777 6.942-24.678-12.904-6.906-23.22 6.136-3.561 11.697-6.02 15.844-7.188 3.119-.879 5.622-2.113 6.875-2.094m-241 7.281l25.09 14.781.875 14.875-24.938-12.688zm-48.41 1.375l.094 12.938-24.5 14.03 2.031-14.469zm101.41 10.563c6.936 3.235 95.99 27.974 125.47 19.531 0 0 25.24 36.38 43.906 49.41-28.903 42.41-126.78 84-126.78 84zm200.44.906c1.621-.056 2.01 1.556 2 4.594-.396 8.8-14.854 41.2-26.375 24.594-3.166-6.182.053-12.584 10.156-20.22 8.01-6.05 12.135-8.897 14.219-8.969m-484.84 5.109c2.199 2.394 1.203 9.77-3.531 9.281-1.37-.141-1.553-7.628-.656-11.688 1.364-.666 3.425 1.616 4.188 2.406m183.3 4.109l-.156 16.438-29.06 15.813 3.125-18.281zm48.06 2.313l28.781 15.344 3.375 18.16-31.906-16.531zm-48.12 22.344v16.563l-32.656 16.75 2.219-16.344zm48.688 1.438l32.19 18.313 4.219 17.25-35.938-18.563zm-456.25.531c5.276-.071 7.172 5.547 3.188 9.125-2.631 2.447-10.09 1.952-10.75 0-3.369-3.252 1.254-9.04 7.563-9.125m9.844 17.531c.779-.053 1.517-.007 2.156.156 3.802.97 6.17 6.463 3.844 9.594-4.296 5.781-15.624 1.773-13.969-5.531.438-1.933 4.592-3.987 7.969-4.219m397.16 5.531v14.813l-35.531 18.75 2.25-16.562zm50.25 2.063l36.656 19.688 2.812 16.594-39.41-20.5zm-464.81.438c1.769-.098 3.177.396 3.938 1.719.68 1.183 1.486 4.21 4.03 5.688 4.747 2.756 5.24 3.332-3.781 7.281-3.8 1.663-11.267 6.744-13.875 8.5-7.98 5.371-11.227 3.569-11.813-2.781-.738-8.01 13.833-19.982 21.5-20.406m27.5 12.12c1.849-.106 3.647.241 4.938 1.094 3.05 2.02 3.211 6.06.281 8.094-6.712 4.291-17.212-1.591-11.625-6.719 1.57-1.441 4.03-2.332 6.406-2.469m387 8.03l.188 19.219-39.625 20.906 2.625-19.5zm-406.59 2.25c2.597-.147 5.083.462 7.25 2.063 2.349 2.994 5.175 3.874 6.813 3.938 6.798.263 4.633 2.745-2.5 6-9.831 4.487-16.736 10.182-23.813 16.75-7.361 6.832-7.895 8.3-10.312 5.5-8.994-10.415 8.537-33.457 22.562-34.25m457.5.219l41.531 22.719 3.563 19.19-45.09-25.09zm-430.22 13.531c1.68-.039 3.261.364 4.5 1.375 2.951 2.409 1.246 7.06-2.844 9.156-3.479 1.782-9.206 1.026-10.844-.625-3.924-3.955 3.188-9.765 9.188-9.906m-20.06 9.656c2.528-.244 4.822 2.983 6.875 6.469.717.871 3.557.482 5.594.5 7.773.063 8.858 3.35 1.312 7.531-2.206 1.222-9.443 6.762-14.281 10.875-13.04 12.452-20.11 9.531-18.438-3.219 1.595-12.192 12.182-21.504 18.938-22.16m450.28 1.188l45.813 25.12 4.469 20.656-50.28-27.09zm-50.562.375l-.188 19.03-43.12 22.813 3.344-19.313zm51.25 24.22l51.31 31.06 1.875 20.22-53.19-30.625zm-51.28 3.375l.094 18.656-47.687 24.19 2.406-17.625zm-387.12 12.344c1.219-.029 2.364.157 3.313.594 5.585 2.571 4.121 7.02-4.281 11.594-8.572 4.668-11.505 3.864-13.344-1.375-1.548-4.41 7.731-10.655 14.313-10.813m535.78 2.531c89.22 20.421 176.57 64.58 261.37 141.69l-17.719 12.531c0 0-74.32-84.75-239.47-134.44zm-96.84 8.875l24.75 14.594.062 3.719-24.813-2.031zm-421.66.156c1.876.1 3.526 1.193 12.375 5.406 35.518 25.644 49.742 41.11 58.56 69.22 5.286 16.847 5.182 16.16-12.187 7-16.34-8.673-38.734-23.07-53.19-41.688-2.395 43.799 2.719 98.25 2.719 98.25 22.19 10.933 15.01 39.4 14.945 39.23 57.09-15.582 44.584 59.764 2.04 43.514 10.142 56.53-54.58 51.928-47.953 3.477-51.52-1.992-42.41-58.14.358-50.38-4.449-17.324 1.685-29.06 17.455-36.495l-2.406-74c0 0-41.987 60.26-49 59.31-4.119-.555-10.317-7.473.125-60.31 5.437-27.51 34.605-61.01 50.938-62.09 2.888-.191 4.093-.497 5.219-.437m41.06.562l7.531 5.156-7.094 12.656-7.844-5.688zm328.53 3.625l-.25 11.09-23.12 1.375zm-253.56 125.25c-3.468.091 5.855 2.274 11.75 7.563 54.42 8.427 87.71 74.991 62.53 123.19-3.047 2.167 1.656 12.659 4.719 8.719 26.544-37.624 6.786-130.09-70.66-138.91-4.595-.391-7.188-.593-8.344-.563m20.563 25.281c-4.374 11.991-5.524 14.863 5.688 9.969 19.81 7.333 41.18 39.576 34.34 71.969-2.2 3.778 1.643-2.466 4.25 8.188 9.778-23.713.024-74.845-44.28-90.12m251.53 60.34c55.703-.164 110.83 12.01 154.69 37.22-14.906 8.287-62.47 19.844-62.47 19.844-26.731-29.995-40.35-59.987-88.69-44.656-50.618 13.07-96.2 56.879-121.86 85.945-25.723-15.313-39.653-19.05-62.46-20.32-1.319-.037-3.277 5.766-1.656-3.594 6.523-10.05 11.02-21.44 15.375-32.938 47.807-27.18 107.77-41.33 167.06-41.5m173.16 38.5c-11.09 35.89-25.417 71.24-49.719 102.37l-3-15.562c22.852-35.09 33.679-66.988 38.563-80.969zm-21.563 9.313c1.426 2.281-22.15 58.47-33.781 68.69l-4.562-14.5c9.487-14.334 23.534-48.892 23.12-49.22zm-143.81.062c-.734.067-.994.713-1 2.125-.02 5.158 5.36 9.217 15.16 11.438 13.237 3 31.788-1.576 31.813-7.844.014-3.619-2.573-3.884-10.156-.375-9.509 4.4-17.902 3.538-30.31-3.03-2.845-1.506-4.557-2.399-5.5-2.313m117.91 8.969c-3.681 13.613-9.149 23.634-16.12 34.03l-2.25-7.156c4.825-7.797 8.01-16.712 12.09-25.375zm-13.844 4.406c-1.786 4.734-3.755 10.215-7.844 14.438l-5.313-11.25zm-83.8 10.43c-8.969.172-17.849 3.058-18.621 7.824-.37 2.283 3.073 1.4 19.758-.633 8.805-1.073 13 4.143 21.07 3.598 4.11-.487.267-4.284-1.012-5.383-4.485-3.816-13.286-5.558-21.2-5.406m-38.29 10.383c-.9.183.107 2.473 3.469 8.312 1.82 3.162 2.273 9.605 2.625 13.594-.436 9.932-.405 9.62 4.5 3.875 3.087-3.063 9.09-2.386 18.594.188 6.127 1.658 7.6 2.251 11.852-.414 4.931-3.091 6.09-1.532 10.336-.679 4.1.823 7.818-.82 12.312-2.063 5.486-1.516 6.537-1.165 11.313 0 7.296 3.455 6.236 3.147 6.844-9.219.609-12.174-.048-13.04-7.094-8.938-6.825 3.975-11.527 5.774-22 2.125-11.413-3.977-13.03-2.969-21.12-.531-9.787 2.947-14.235 3.951-22.03-.813-5.131-3.135-8.574-5.645-9.594-5.437m-159.47 18.375l4.375 7.125c39.453 14.11 66.18 46.36 50.41 100.72l3.75 6c19.746-54.771-2.792-100.05-58.53-113.84m12.219 23.19l5.375 11.03c29.69 14.341 27.914 53.835 26.25 52.28l4.656 10.282c7.427-25.556-6.106-63.29-36.28-73.59m124 58.906c-1.168.001-1.936.409-2.25 1.219-.763 1.966 1.533 3.146 15.09 12.531 11.647 8.06 20.657 14.04 19.969 15.188-.461.769-7.702-.993-12.875-2.531-13.553-4.03-33.542.824-44.75 8.719-2.844 1.911-7.578-.176-11.687-1.25-1.645-.466-5.273-.906-7.06-.438-8.476 2.219-.273 10.313 20.469 20.813 25.454 12.886 39.23 14.06 54.688 6.25 10.266-5.309 13.946-1.37 2.719 4.688-19.61 10.581-38.39 7.308-69.37-14-14.351-9.87-20.09-8.221-7.75 1.188 21.649 16.926 63.32 37.57 88.91 12.344.999-.362 3.321-.192 4.438-.187 5.32.021 5.544-1.657 0-10.438-3.342-5.293-10.1-10.862-1.875-17.344 6.238-4.914 5.789-7.248-1.75-9.5-1.99-.551-1.789.757-4.781-1.656-18.1-14.599-35.82-25.625-42.12-25.594m7.844 28.844c7.603.211 15.263 6.06 17.656 16.594.215.938.401 1.899.531 2.906l-6.477.242c-5.371-21.453-21.545-14.342-23.16-1.777l-5.836-.777c2.149-11.964 9.678-17.399 17.281-17.188m134.15 18.313l-4.313.637c-2.823-7.9-15.598-18.516-21.686.738l-5.438-.219c3.787-26.08 27.465-22.03 31.436-1.156m-33.06-10.839c1.765 2.502-1.334 6.724-3.133 8.653-1.72 1.843-5.544.286-7.145-1.533-1.401-1.797-.363-5.374 1.969-6.563 2.42-1.234 6.534-2.348 8.309-.557m-75.81.776c1.809 4.047-3.255 7.07-3.89 5.699-1.087-.377-2.43-7.05-1.806-7.493 1.676-.053 5.01.495 5.696 1.794m113.97-.657c2.731.22 5.708 1.514 6.25 4.594.029 2.04-2.331 4.257-5.03 4.375-1.187.052-5.737-3.286-4.883-8.05.964-1.69 2.077-1.051 3.664-.92m-158.44 1.282c.958 1.467-.838 5.847-1.25 6.438-.214.307-6.03.056-5.906-.375.126-.432-.54-3.729.875-6.125 1.613-1.028 5.116-1.572 6.281.062m105.69 14.13c.753.019 1.711.326 2.844 1.031 16.273 10.594 37.2 15.314 52.28 7.75 3.367-1.689 5.569-1.6 5.563.031-.001 1.787-3.736 5.445-10.688 7.531-15.531 4.661-41.17-1.493-50.03-11-2.607-2.797-2.229-5.4.031-5.344m-142.72 11.09c-1.554-.043-2.056.875-1.75 2.75 1.03 6.313 44.554 31.29 62.75 34.656 14.942 2.766 26.549 1.527 35.687-3.781 22.19-12.89 16.501-30.32-5.219-17.188-14.591 8.826-51.57 4.763-73.56-7.938-9.778-5.647-15.316-8.427-17.906-8.5m196.09 9.133c5.499-2.307 7.862-3.112 9.07-2.102 5.594 4.679-3.573 11.976-20.289 14.824-13.37 2.197-21.408 2.628-36.672-8.664-11.816-8.741-6.249-12.976.536-9.01 18.05 10.552 31.464 10.886 47.35 4.95m-192.21 27.305c38.503 13.789 82.3 47.04 101.75 87.44l-11.875-.094c-13.221-23.06-39.38-52.35-82.5-72.937-3.821-3.141-5.807-8.75-7.375-14.406m202.22 18.907v12.625c-23.795 11.991-43.74 30.449-58.781 55.906l-13.469-.188c15.43-27.315 38.545-52.89 72.25-68.34m0 19.25v15.5c-15.05 8.821-27.602 20.449-36.406 33.781h-15.937c12.773-21.59 30.3-38.803 52.34-49.28m-176.28 11.906c11.464 6.589 30.447 24.16 37.34 37.688l-6.125.281c-6.243-7.945-16.218-17.08-24.344-24.281-5.194-6.102-6.875-13.688-6.875-13.688m176.28 9.938c.192 0 .193.119 0 .375v12.313c0 .323-11.427 7.787-16.281 14.75h-12.937c8.883-16.07 27.365-27.47 29.22-27.438m.031 20.469l-.031 6.969-8.125.031c.54-.788 5.062-5.76 8.156-7m-158.56 1.75c2.436 1.281 4.307 5.85 4.307 5.85l-2.182.234z" transform="matrix(.99999-.00388.00388.99999-924.74-489.76)" fill="#131f67"/>
   <path d="m1765.51 887.03c26.782.624 83.26-9.597 82.36-8.574 0 0 176.47 290.65 169.33 287.79-2.266 3.623-224.61 4.355-224.61 4.355-4.817.074 46.756-108.13-27.08-283.57m78.71-205.55c85.16-71.13 174.66-72 270.73-82.11l1.269-240.6 34.865 20.683 1.59 220.44c126.9 9.02 236.53 55.05 330.88 136.01 1.184 1.761-135.75 75.66-195.77 95.31-46.791-34.06-169.97-55.18-251.5-28.531-22.393 7.319-49.877 19-76.63 27.655 18.948-116.22-71.814-133.02-103.74-138.25-4-.657-8.804-9.235-11.704-10.597m-109.53 37.976c1.401-24.752-.312-49.52-2.26-74.81-.511-5.775-49.671 75.48-52.51 55.828-7.115-49.2 17.09-111.87 55.46-119.7 3.809-5.195 80.07 41.597 76.75 82.3-1.081 13.258-68.04-44.507-68.3-41.04-1.54 6.791 2.347 97.58 4.41 97.39 19.259 10.736 15.13 24.639 17.272 36.14 51.47-7.792 48.871 49.33.266 47.739 3.265 67.46-59.52 37.22-47.32 1.231-63.12-2.729-32.27-61.798-.796-48.964-1.953-14.871 1.667-30.4 17.03-36.11m71.3-286.57c-3.64-1.423-134.67-7.624-134.67-7.624l5.617-319c66.29-153.8 318.26-82.974 278.34-50.15-119.97 79.25-137.72 222.99-149.29 376.77m241.1-131.97l-4.133-35.401c-10.364-21.969 268.24 105.37 271.39 108.1l8.238 37.763c1.672 16.596-177.15-66.59-275.49-110.46m505.65-64.52c-3.538 143.15-25.24 240.17-107.96 357.45-2.295 3.853-25.767 13.679-27.582 16.992 11.963 18.748 79.929 46.05 111.33 60.752l162.69-97.73c1.887.127-6.9-340.13-6.9-340.13zm61.11-155.68c-21.918-3.257-73.1-55.912-62.6-71.934.279-12 63.55 33.673 70.16 46.02-3.249-3.665-4.122-112.14-5.126-107.83-2.398 1.283-19.317-10.731-15.01-33.36-48.33 10.877-45.923-51.969-3.633-49.564-5.686-57.15 64.25-36.424 45.811 1.935 59.733-11.24 49.673 55.89 4.459 45.15 3.932 25.429-6.536 32.5-21.2 37.639.981 10.661 5.261 81.79 5.261 81.79 0 0 43.933-67.876 47.13-62.05 8.924 20.502-6.774 129.15-65.26 112.21m-205.78-248.89c-19.68 68.797 35.27 147.1 86.9 146.68 10.374-1.675 30.28 3.853 23.443 9.438-81.19 66.28-271.19 80.71-271.25 77.851 2.305 80.968-1.01 162.77-2.632 243.73l-34.907-20.833c-1.403-73.842-3.519-149.37-5.497-223.19-121.83-15.411-231.43-54.25-318.24-137.44 57.26-42.767 125.76-69.61 191.56-96.72 83.14 42.763 198.76 67.21 330.62.483m-61.36-326.28c-3.825-1.667 13.07-14.312 13.07-14.312 0 0 141.49 1.306 211.67.09-25.16 105.02-6.71 198.96 26.66 289.1-8.765-2.01-66.859 2.927-81.02 9.325-2.272 2.295-168.57-281.65-170.37-284.21" fill="#e2cf00"/>
   <path d="m2764.47 1243.75c-2.295-6.422-2.332-7.215-3.072-66-.748-59.4-.528-65.911 2.645-78.25 6.094-15.392-11.886-15.397-23.279-17.191l-.094-24.307c13.345-1.9 29.448 1.912 35.38 9.71 13.834-9.648 22.809-11.291 32.41-10.949 32.25 0 46.5 19.868 45.771 58.33-.119 6.263 1.047 14.285 1.047 14.285l17.328-.067.095 24.583-18.236.071c0 0 3.209 60.933-.836 82.5-12.351 48.03-71.918 51.39-89.16 7.288m65.66-8.906c3.057-7.319 2.603-4.266 2.51-60.2l-.185-25.561c-25.584-5.803-48.31-36.36-48.16-36.35 0 0-.33-2.939-.33 55.1 0 65.781 2.341 69.59 16.319 80.19 13.557 7.594 24.66-1.134 29.848-13.175m-36.29-147.79c7.828 10.899 17.547 22.05 29.06 31.02 4.314 3.362 10.345 4.676 10.345 4.676 0 0-.346-7.403-.387-11.17-.251-22.97-16.857-40.97-39.02-24.525m-772.05 78.77l-172.18-288.08 25.625-11.249 177.51 299.62zm446.77-41.766c-64.26-9.877-82.65-90.54-35.739-166.65 22.19-36.915 115.16-174.35 109.68-169.76-2.937-2.55 72.27 105.83 109.86 161.41 35.628 58.641 54.83 154.6-32.09 172.58-33.28 6.883-67.999-13.02-69.69-51.916-.237-5.45-2.499-9.881-5.683-9.881-2.667 0-4.512 3.824-4.512 7.593-.764 37.16-34 62.64-71.832 56.626m300.73-96.18c-28.621-9.417-33.869-43.68-12.708-82.978 17.328-31.22 26.439-39.27 42.4-70.29 6.553-12.812 7.291-13.07 12.276-4.36 12.04 19.721 25.21 41.19 35.959 57.881 28.18 43.533 33.23 73.964 15.32 92.42-16.241 16.735-50.801 7.182-51.06-14.11-.012-.999-.503-2.715-1.092-3.815-1.325-2.475-3.925-.823-3.94 2.503-.071 15.484-20.756 28.16-37.15 22.761m-1053.38-246.91l24.613-25.515 24.875 25-25.817 24.16zm548.19-164.06l-3.557-20.625c98.65 23.744 179.51 74.08 237.73 129.01l-13.772 10.158c4.303-1.192-140.44-108.84-220.4-118.54m-286.32-19.223l31.23-4.649-.821 17.357-29.667 6.863zm576.83-15.952l-17.08-13.651 12.195-14.573 16.595 12.969zm-579.39-137.66c42.23-20.18 74.943-101.09 70.778-106.46l23.08 5.373-52.4 221.53-40.07 7.405c-.347-42.34-1.237-85.51-1.386-127.84m278.91 124.14c-14.525-46.533-43.17-151.81-43.17-151.81 1.046 3.437 91.88 28.877 124.21 19.356 13.894 18.858 29.15 35.418 45.24 50.591-33.472 32.985-75.08 60.59-126.28 81.86m379.68-171.08l-16.04-13.783 14.269-17.608 17.608 13.299zm-208.85-8.448c-13.11-23.343-14.12-49.787 9.938-75.964zm-496.68-43.42c-1.04-2.407 5.253-57.874 6.774-60.33 2.674-4.326 7.997 11.206 10.53 23.08 3.175 14.885-13.489 46.09-17.304 37.25m365.08-18.634c0 0 34.509-162.93 49.48-226.78l42.829-10.98-5.269 133.69c-35.11 31.633-64.11 106.78-64.11 106.78zm-564.83-24.879l-17.03-15.775 14.293-15.758 15.03 15.247zm303.66-64.64l-46.82-54.33c28.718-40.26 76.55-63.69 127.27-82.12l34.98 152.84c-38.914-11.56-80.87-24.08-115.43-16.379m-238.73-135.42l11.895-14.908 15.699 12.26-11.832 16.484zm560.92-48.13l29.978-4.401-2.181 20.589-31.731 5.173zm-488.96-113.77l18.418-11.556c65.05 57.933 136.8 97.8 214.97 120.32l5.343 25.11c-88.15-26.796-171.5-67.6-238.74-133.88m757.39-26.15l-24.1-23.577 21.524-24.11 25.761 22.08c-8.426 12.816-23.18 25.611-23.18 25.611m-805.92-40.656c-29.933-45.82-64.4-94.48-91.51-134.56-44.971-66.69-57.24-111.97-43.32-153.04 22.811-67.3 121.29-64.15 128.73 4.125 1.519 13.944 8.106 12.737 9.851-1.651 9.216-75.978 124.75-66.53 132 14.369 7.569 68.69-39.734 122.22-65.822 158.7-23.14 37.15-50.1 72.55-69.934 112.07m-285.01-107.74c-19.612-32.506-73.17-105.9-22.19-128.77 18.1-8.122 41.34 6.153 41.34 21.492 0 6.936 3.835 7.312 4.703.116 3.634-30.12 45.834-32.451 59.45-3.387 11.685 34.596-9.04 66.27-38.08 110.88-6.666 10.239-22.04 38.08-22.04 38.08zm957.47 33.729l-180.89-305.81 25.96-.316 177.98 294.56zm-981.94-263.79l-18.359.071-.096-24.609 18.359-.071c0 0 .097-13.221.532-36.607.926-49.826 2.194-57.58 16.802-71.34 28.909-27.22 77.59-5.323 77.16 35.435-.611 57.5.226 112.34-1.464 120.12-2.976 13.692-3.276 14.475-2.024 16.955 2.536 5.03 24.51 7.104 24.504 5.694l.094 24.22c-16.767 1.364-23.729-.154-37.18-9.523-8.341 7.983-33.806 16.02-54.1 6.747-15.443-7.06-27.22-25.425-24.22-67.09m62.28 42.699c-9.162-12.91-24.541-30.477-39.02-36.654-.82 14.829.508 27.29 5.864 33.97 8.518 10.628 22.19 13.03 33.15 2.683m7-142.09c-6.821-18.796-24.22-25.07-36.847-13.299-7.917 7.379-9.153 15.06-9.153 56.891 0 25.797.017 36.641.017 36.641 24.744 7.752 47.939 35.933 47.717 35.566l.311-78.02c.412-12.635-.258-25.315-2.044-37.782" fill="#d40000"/>
   <path d="m3231.59-9.688l-42.938.156 243.72 490.12c0 0-6.605 1.11-19.531-2.281-58.54-15.357-94.61-77.19-81.37-137.84 1.346-4.714 1.687-8.75 1.687-8.75-150.89 68.29-244.32 43.14-331.44-.344l-37.16 14.25c2.466-22.437 30.23-106.7 71.75-146.37l-.062-42.5-1-20.06-3.281-36.406c-61.775 58.16-133.85 149.71-142.87 279.72 0 0-56.25 28.887-104.25 60.844 2.664-.355 74.78 88.19 248.03 137.91l-7.625-28.25c25.763 7.23 62.39 12.947 98.81 17.563l4.875 221.91 41.37 24.5 1.406-245.69c1.27 1.013 65.988-2.282 100.84-10.594l-4.906 23.688 34.438-6.781v17.281l-37.75 8.906-53.75 229.66 31.31 6.969c9.165-46.26 32.31-83.67 65.844-106.62l-.344-8.813c21.51-15.43 66.21-27.695 66.5-27.406 15.249-74.48 50.74-126.09 88.47-175.19l-17.969-24.406 68.906-25.281-95.66-162.72c36.803-25.397 109.78-15.938 109.78-15.938-31.28-84.44-58.77-171.53-27.875-299.34l-266.06.219zm87.29 5.294c-.062 21.352-27.957 19.15-31.362-.107zm170.93-.669c-16.929 97.87-11.316 193.2 27.938 283.78 0 0-5.72.329-6.438.188-.542-.107.667-4.885.375-6.156-.781-3.403-6.425-1.809-11.156 1.375-2.061 1.387-4.437 2.97-5.937 3.719-4.862 2.427-29.52 2.242-29.52 2.242 8.04-5.446 19.36-20.776 12.793-29.719-1.488-1.907-2.388-1.065-3.836 1.508-7 12.446-10.483 14.398-19.844 14.281-14.683-.183-25.19-9.279-24-23 1.148-13.333 20.773-20.371 17.875-7.438-.793 11.522 10.636 13.76 12.75 2.281.792-4.299.163-2.304 1.094-7.344 22.862-12.13 10.24-36.826-11.09-31.656-5.02 1.326-5.646 1.792-9.188-.031-6.58-3.389-12.05-2.322-14.531 2.438-2.19 4.193 1.143 7.544 6.03 7.563 5.068.02 6.04 2.461 6.03 5.5-.03 7.07-12.227 10.468-20.312 6.344-21.344-10.888-13.434-39.19 11.344-39.09 7.533.029 10.68.5 11-1.125.901-4.57-10.6-12.475-17.09-11.313-5.506 1.075-8.848 2.513-5.938-4.813 1.788-7.552 1.737-10.976.219-16.656-3.961-8.111-3.865-3.952-6.313 2.625-8.162 13.535-20.463 16.529-31.06 9.125-9.831-6.87-9.537-19.917-.188-29.22 6.495-6.462 13.463-2.063 9.563 5.156-1.615 2.989-.341 6.697 2.563 7.438 5.865 1.496 9.503-1.955 9.531-9.06-.123-3.914-1.205-4.787 5.844-8.813 18.254-10.424 4.6-38.904-16-29.75-4.522 2.01-5.578 3.974-7.625 3.03-8.611-8.136-20.962 2.149-13.656 7.594 3.157 1.537 7.02 2.124 8.03 2.219 1.779 1.015 1.186 3.544-1.406 6.719-8.529 10.06-27.898 5.091-32.469-9.09-5.295-16.429 11.5-33.699 24.375-24.12 3.806 2.831 7.108 3.129 7.125-1.063.02-6.529-8.199-14.02-18.688-13.281-10.649.75-9.487 2.124-3.688-7.5 4.277-8.57 3.698-16.932-.031-21.969-2.874-3.881-5.831-4.7-5.531-.594 2.331 12.735-12.548 24.842-24.781 19.5-11.758-5.256-17.588-18.419-11.813-29.844 5.325-10.54 18.245-11.632 16.09-.375-1.012 7.177 4.447 10.953 9.719 6.719 1.917-1.54 2.366-2.9 2.5-7.531.148-5.157-1.948-6.666 1.375-9.688 8.72-1.156 9.259-19.673 7.937-20.438l140.03-.656m-156.09.625c5.53 0 10.125 1.876 10.125 7.406 0 5.53-4.47 10-10 10-5.53 0-10.03-4.47-10.03-10 0-5.53 4.376-7.406 9.906-7.406m-98.13.719h22.258l175.79 292.96-20.816 10.125zm36.557 10.238c10.653 6.091 20.487 11.09 33.847 12.394-3.912 7.94-7.478 16.609-8.124 31.442zm35.805 58.998c10.846 3.885 20.262 9.771 38.13 3.824-9.527 8.432-14.923 18.515-18.959 29.14zm91.46 35.389c5.124 0 9.281 4.158 9.281 9.281 0 5.124-4.157 9.25-9.281 9.25-5.124 0-9.281-4.126-9.281-9.25 0-5.124 4.157-9.281 9.281-9.281m-56.948 23.13c7.836 2.884 16.05 4.797 25.17 4.38-4.509 6.202-6.04 15.636-6.335 26.424zm26.911 46.17c7.256 3.538 15.846 8.693 31.08 7.04-10.09 17.12-7.93 21.842-8.962 29.332zm88.1 34.01c5.366 0 9.719 4.352 9.719 9.719 0 5.366-4.352 9.719-9.719 9.719-5.367 0-9.719-4.352-9.719-9.719 0-5.366 4.352-9.719 9.719-9.719m-54.603 21.824c6.646 3.755 19.767 5.898 19.913 4.881-.842-.632-3.779 12.653-4.289 21zm30.595 49.904c9.444 5.569 19.897 5.04 26.04 5.694-6.569 1.315-12.76 2.961-19.814 5.73zm111.4 54.785c-22.755 1.467-28.03 18.915-25.335 36.595-17.348-2.772-36.769 13.673-31.34 33.785 5.149 19.07 22.884 19.741 35.12 18.466-.94 4.634-3.518 20.21 15.307 33.394l2.508 99.02c0 0-8.297-7.621-13.714-13.02-23.651-23.558-59.23-40.622-57-27.344.329 1.952 1.085 6.905 1.656 11 3.762 22.418 33.877 46.648 54.41 58.844 7.335 4.091 11.875 8.469 11.875 8.469-38.4 41.06-59.05 84.86-64.19 128.34-4.775 40.4-8.639 76.78-12.437 113.87-15.672 186.06-95.52 232.86-99.31 241.97l-1.5 24.813-22.281-1.656-25.688 22.22c84.14 43.476 133.22 95.94 132.53 96.94 67.18-43.991 125.17-92.86 179.91-143.44l-1.063-414.28c0 0-4.541 1.661-5.719 1.656-4.156-.016-4.684 1.855-6.125 9.781-.772 4.243-3.301 8.15-5.281 10.938-3.761 5.295-2.421 2.616 2.313 4.531 10.778 4.361-3.216 24.12-18.531 26.531-11.03 1.737-17.191 3.765-19.06 6.313-23.22 20.311-46.35 23.528-63.844 16.06-8.606-3.672-17.961-9.04-21.12-18-7.184-20.337 7.782-49.638 16.563-66.56 16.1-31.04 42.844-54.34 42.844-54.34l-4.375-4.75c0 0 5.255.08 6.25-.281 23.08-8.391 24.507-8.511 28.75-14.625 4.244-6.118 14.947-23.566 17.16-29.31 11.861-30.851 13.457-32.855 13.438-53.09-.02-16.397-1.112-27.351-4.281-28.22-18.18 13.941-36.543 46.5-47.28 65.69-3.711-28.429-4.813-78.06-4.813-78.06 3.848-4.253 25.684-1.875 20.844-37.473 19.221 8.669 39.471-4.594 38.625-23.1-1.318-28.82-23.523-27.97-41.598-24.332 8.613-17.408-7.756-38.39-24.2-37.33m-.351 2.424c23.748.734 28.458 26.978 13.906 41.835 0 0-9.43-7.259-14.431-11.389-4.752 3.732-6.123 6.964-11.348 10.804-6.184-4.571-9.916-12.659-9.973-20.449.29-12.169 12.568-21.09 21.846-20.8m-542.57.813c96.1 53.705 216.6 57.55 326.91 2.813l-1.344 9.09-12.09 6.813 6.844 12.531 3.781-1.813.094 8.281c-90.93 49.11-243.24 59.28-362.47-22.281l10.375-4.813c0 0 2.341 1.637 4.594 3.03 4.347 2.691 11.517 7.01 16.25 9.125l7.219-10.406c0 0-11.02-6.717-9.938-7.156l9.781-5.219m8.468 16.469l-5.5 12.5 13.781 7.344 5.25-12.594zm-52.28 1.406c147.99 92.89 285.74 65.24 368.47 27.25l1.062 9.906c-106.77 45.42-247.17 57.61-380.81-32.22zm348.34 5.969l-13.156 5.25 5.219 12.06 13.531-5.781zm-366.03 2.25c120.26 77.54 249.24 92.72 388.25 35.906l5.312 14.844c-135.38 54.36-278.26 48.1-408.78-44.31zm92.41.438l-5.375 13 14.906 5.656 4.344-12.75zm252.91 5.375l-13.03 4.219 4.062 12.438 13.5-4.594zm-230.12 3.563l-3.219 13.06 15.219 4.281 2.656-13.12zm550.76 21.503c2.05 22.22-30.893 32.937-43.22 12.203l10.862-13.19-9.715-9.06c13.182-20.847 40.15-10.813 42.07 10.05m-684.48-20.785l35.875 24.656-26.06 40.5-38.625-25.938zm621.78 1.125l22.781 19.75-20.906 24.469-21.375-21.563zm-14.162 6.699l-12.81 14.891 13.863 14.741c-16.441 17.474-40.975 6.688-40.731-14.703.186-16.327 25.18-32.22 39.678-14.929m-265.59-5.73l-13.688 4.094 3.125 12 14.156-3.688zm-184.62 3.781l-2.531 12.906 15.719 3.375 2.656-12.844zm162.03 2.188l-14.563 3.156 2.5 12.844 14.594-3.063zm303.87 3.03l-12 11.781 12 12.438 12.09-12.438zm-440.69.375l-1.844 13 16.469 2.219 1.281-13.156zm110.91 1.781l-14.813 1.688 1.5 12.75 15.375-1.938zm-87.44 1.5l-.188 13.344 14.438 1.156.031-13.219zm63.69 1.25l-14.5.531.094 12.906 14.813-.938-.406-12.5m-264.56.125c-8.531 0-15.439 6.907-15.438 15.438 0 8.531 6.907 15.438 15.438 15.438 8.531 0 15.439-6.907 15.438-15.438 0-8.531-6.907-15.437-15.438-15.438m240.25.438l-14.25.125.062 13.06 14.688.063-.5-13.25m377.84.063l6.25 6.25-6.25 6.156-6.406-6.156zm-618.12 4.938c5.597 0 10.125 4.528 10.125 10.125 0 5.597-4.528 10.156-10.125 10.156-5.598 0-10.157-4.559-10.156-10.156 0-5.597 4.559-10.125 10.156-10.125m-54.906.75l20.531 16.719c-6.533 12.504-27.22 38.906-27.22 38.906l-37.938-30.406 19.844-11.219c-1.08 2.086-1.687 4.429-1.687 6.938 0 8.383 6.803 15.16 15.187 15.16 8.383 0 15.187-6.773 15.188-15.16 0-8.04-6.279-14.601-14.188-15.12zm-11.469 10.75c5.622 0 10.188 4.566 10.187 10.188 0 5.622-4.565 10.156-10.187 10.156-5.622 0-10.188-4.535-10.188-10.156 0-5.622 4.566-10.188 10.188-10.188m697.82 4.809c0 0 5.593 2.122 6.961 4.223 11.01 16.903-.459 37-18.916 36.607-21.561-.46-27.24-27.487-12.407-38.512l12.05 11.382zm-560.54 6.879l42.5 16.313-16.12 46.19-46.47-19.06zm-174.69 4.813c173.39 156.22 419.71 167.45 598.75 63.75l10.906-.219 5.781 5.938c-203.97 120.62-457.52 94.37-628.69-60.875zm477.44 9.313l13.688 45.656-47 12.375-10.5-46.25zm-495.22 1.656c52.625 50.709 127.03 95.14 214.41 120.34l2.156 18.719c-92.76-27.854-162.82-65.05-231.06-129.62zm203.72.719c-8.383 0-15.188 6.805-15.188 15.188 0 8.383 6.805 15.16 15.188 15.16 8.383 0 15.188-6.773 15.188-15.16 0-8.383-6.805-15.188-15.188-15.188m-75.59 3.406l43.844 23.19-21.844 43.719-46.562-24.969zm75.41 1.594c5.621 0 10.188 4.566 10.188 10.188 0 5.622-4.566 10.156-10.188 10.156-5.622 0-10.188-4.535-10.188-10.156 0-5.622 4.566-10.188 10.188-10.188m72.59 6.219l42.12 6.125-1.937 46.688-49.16-5.906c1.885-16.433 8.969-46.906 8.969-46.906m203.47 1.156c-8.383 0-15.188 6.805-15.188 15.188 0 8.383 6.805 15.16 15.188 15.16 8.383 0 15.188-6.773 15.188-15.16 0-8.383-6.805-15.188-15.188-15.188m-.188 5c5.621 0 10.188 4.566 10.188 10.188 0 5.622-4.566 10.156-10.188 10.156-5.622 0-10.188-4.535-10.188-10.156 0-5.622 4.566-10.188 10.188-10.188m-342.5.656c-8.383 0-15.184 6.805-15.188 15.188 0 8.383 6.805 15.16 15.188 15.16 8.383 0 15.184-6.773 15.188-15.16 0-8.383-6.805-15.188-15.188-15.188m269.31.063l6.03 46.906-46 2.281-2.719-46.781zm329.69 4.188h6.531c.602 40.37 3.797 87.1 8.469 121.66.704 5.148 1.024 6.667.5 7.594-4.517 7.999-9.765-2.069-11.813-25.03-.564-6.327-1.282-15.541-2.063-21.594-2.362-18.306-1.625-82.62-1.625-82.62m-777.47.719c-69.17 43.15-184.22 146.22-183.53 148.62l.469 396.06 9 .438 7.438-14.563c-11.508-2.881-8.286-24.506 13.75-28.844 3.76-.74 15.247-4.604 18.06-6.75 16.727-12.751 43.902-20.281 62.969-15.25 27.803 7.11 33.505 27.549 20.12 63.09-10.547 28.02-31.441 63.844-51.06 74.06-1.601.835-5.063 2.531-5.063 2.531 0 0 4.561 4.148 6.219 5.219 54.05-31.23 81.34-143.26 79.875-212.97 2.178-71.4 14.492-143.05 43.31-195.16 47.632-86.12 110.63-120.75 110.31-121.06 0 0-84.931-51.56-131.87-95.44m178.28.031c5.625 0 10.188 4.566 10.188 10.188 0 5.622-4.563 10.156-10.188 10.156-5.621 0-10.188-4.535-10.188-10.156 0-5.622 4.566-10.188 10.188-10.188m420.16 1.625l16.406 43.594-45.594 18.656-16.438-45.813zm-262.25.219c-8.383 0-15.187 6.805-15.187 15.188 0 8.383 6.804 15.16 15.187 15.16 8.387 0 15.187-6.773 15.188-15.16 0-8.383-6.801-15.188-15.188-15.188m92.69 3.781c-8.384 0-15.184 6.805-15.188 15.188 0 8.383 6.804 15.16 15.188 15.16 8.383 0 15.184-6.773 15.187-15.16 0-8.383-6.804-15.188-15.187-15.188m-92.87 1.219c5.622 0 10.191 4.566 10.187 10.188 0 5.622-4.565 10.156-10.187 10.156-5.622 0-10.191-4.535-10.188-10.156 0-5.622 4.566-10.188 10.188-10.188m92.69 3.781c5.626 0 10.188 4.566 10.188 10.188 0 5.622-4.562 10.156-10.188 10.156-5.621 0-10.188-4.535-10.187-10.156 0-5.622 4.566-10.188 10.187-10.188m155.06 5.188c-8.384 0-15.187 6.805-15.188 15.188 0 8.383 6.804 15.16 15.188 15.16 8.386 0 15.187-6.773 15.187-15.16 0-8.383-6.801-15.188-15.187-15.188m-.188 5c5.623 0 10.191 4.566 10.188 10.188 0 5.622-4.565 10.156-10.188 10.156-5.621 0-10.191-4.535-10.187-10.156 0-5.622 4.566-10.188 10.187-10.188m-322.03.781l45.563 11.656-10.594 47.781-51.41-13.656zm576.38-1.233c7.452 23.34-6.222 53.28-6.912 55.23-8.282 23.479-18.248 42.666-21.875 43.781-3.085 1.17-4.449.421-4.438-2.469.02-4.433 10.184-34.5 18.19-53.844 1.959-4.737 6.497-19.06 6.506-21.463.0001-3.621-3.499 2.278-7.287 11.306-7.331 18.06-18.03 37.4-20.344 54.906-1.662 14.309-4.383 12.288-6.375-4.75-2.767-23.65 2.409-35.813 29-68.75 6.361-7.88 12.892-15.973 13.537-13.952m-334.72 12.139l13.188 46.781-53.781 9.188-8.375-47.44zm-225.19 4.719c-8.385 0-15.187 6.805-15.188 15.188 0 8.383 6.804 15.16 15.188 15.16 8.382 0 15.187-6.773 15.187-15.16 0-8.383-6.805-15.188-15.187-15.188m80.41 3.03l48.719 2.781.437 48.625-52.875-2.281zm-80.59 1.969c5.623 0 10.188 4.566 10.188 10.188 0 5.621-4.565 10.156-10.188 10.156-5.621 0-10.188-4.535-10.187-10.156 0-5.622 4.566-10.187 10.187-10.188m204.47 4.313c-8.383 0-15.186 6.805-15.188 15.188 0 8.383 6.805 15.16 15.188 15.16 8.383 0 15.186-6.773 15.188-15.16 0-8.383-6.805-15.188-15.188-15.188m-101 3.906c-8.383 0-15.186 6.805-15.188 15.188 0 8.383 6.805 15.16 15.188 15.16 8.383 0 15.186-6.773 15.188-15.16 0-8.383-6.805-15.188-15.188-15.188m100.81 1.094c5.622 0 10.188 4.566 10.188 10.188 0 5.621-4.564 10.156-10.188 10.156-5.621 0-10.188-4.535-10.188-10.156 0-5.622 4.566-10.188 10.188-10.188m-101 3.906c5.622 0 10.188 4.566 10.188 10.188 0 5.621-4.564 10.156-10.188 10.156-5.621 0-10.188-4.535-10.188-10.156 0-5.622 4.566-10.188 10.188-10.188m332.22 2.906c.801-.02 1.858.133 2.563.125 10.878-.124 47.572 26.23 56.969 42.19 7.797 14.09 3.761 19.685-5.219 7.094-12.388-13.794-35.27-34.27-38.19-34.28-3.125-.012 1.18 4.451 15.75 18.656 14.453 14.09 29.7 32.447 29.688 35.719 0 2.158-2.875 1.886-7-.656-9.01-5.555-16.841-11.171-20.844-14.938-2.412-2.269-7.02-6.451-10.281-9.313-13.476-11.813-28.834-39.05-24.5-44.28.193-.233.582-.301 1.062-.313m-679.75 3.875c9.387-.273 19.977 5.696 20.406 16.625.304 7.721.829 8.312 7.813 8.438 6.66.12 25.906 2.406 25.906 2.406l.125 21.625c0 0-9.29-.056-20-.563-18.234-.863-18.15-.888-20.469 7.125-.937 3.24-2.24 4.831-5.875 7.219-16.375 10.755-32.16-8.756-22-27.19 3.489-6.327 3.692-8.489 1.281-12.281-4.899-11 1.621-22.855 12.812-23.406m4 11.06c-2.02 0-4.226.868-6.25 2.875-2.7 2.676-2.722 10.31-.031 14.75 2.567 4.247 2.502 5.389-.5 8.188-5.29 4.931-5.44 14.712-.281 18.391 4.704 3.356 9.693-1.076 9.719-7.86.03-7.433 5.231-7.297 5.231-7.297l34.26.594.112-5.582-24.854-1.245c-3.457-.014-7.07-.343-9.742-2.148-2.828-1.956-6.05-5.349-2.973-9.478 4.31-5.783.471-11.227-4.688-11.188m-74.25 12.781l16.25 27.625 18.938.688 1.656 16.813 23.02 14.824-23.582 13.797-1.164 16.914-17.867 2.246-16.594 20.781-15.906-20.75-17.531.094-.25-17.344-24.12-15.531 26.406-14.844-.281-19.812 18.719-1.25 12.312-24.25m574 12.562l.781 16.688-26.594 4.719 3.469-17zm-170.44 16.813l35.844 1.094-2.063 234.22c0 0-7.06-.049-8.406-.063l-.156-9.125-11.469.375-11.656-7.06zm-403.56 5.938l-21.03 26.625 25.469 22.25 22.437-26.03zm414.31 3.563v10.781h15.03v-10.781zm-413.84 9.219l14.813 10.844-11.281 14.906-14.281-12.375zm574.28 6.125l-.469 128.19c-49.25 38.65-64.6 106.69-64.59 106.69l-20.03-1.188 50.906-225.81zm-266.97 2.844c-44.32 21.08-88.981 37.05-132.94 87.34 17.02 15.318 35.01 30.933 51 57.03 36.596-5.45 77.31 1.097 121.72 18.563zm106.53 2.875v11.156h15.03v-11.156zm-498.16 16.09c1.093 3.41 1.438 7.06 1.438 7.06 32.497-2.725 24.21 34.989 3.5 36.28-2.429.314 2.01 6.688 6.844 8.719 12.308 5.171 21.15 1.849 29.22-8.906 6.187-8.249 6.563-9.438 6.563-9.438l20.06 10.625c0 0 .574-.292-2.969 8.906-6.448 16.74 2.959 37.28 10.219 22.313 3.869-7.976 15.247-12.518 23.12-9.219 9.208 3.856 12.396 20.296 5.938 30.656-1.955 3.132-2.01 3.787-.813 6.688 1.806 4.366 2.923 15.594 1.031 19.219-2.455 4.7-5.285 5.771-10.813 1.938-7.569-5.248-11.803-7.43-24.969-11.09-23.12-4.351-27.649-12.488-36.844-31.5-27.387 8.201-68.37-8.969-62.906-49.625 2.484-8.972 3.167-26.2-1.406-29.719-8.964-6.905.872-16.869 14.344-18.469 11.07-1.099 16.396 9.386 18.438 15.563m387.44-11.781l35.625 149.19c-39.1-14.321-77.48-25.496-111.44-17.188-15.553-24.817-28.811-37.03-46.06-53.16 33.612-40.521 76.34-63.19 121.87-78.84m-403.06 7.313c-2.304-.024-4.907.971-7.625 3.375 0 0 2.408 2.02 3.719 4.75 2.096 4.371 2.118 4.369-.25 14.06-10.862 38.862 14.908 64.57 51.563 53.34 9-2.785 8.653-2.478 11.25 8.094 4.273 17.399 16.576 26.387 41.03 29.688 1.503.203 4.01.694 6 1.906 10.759 6.862 6.346-2.266 3.406-5.813-2.1-2.774-5.937-5.531-5.937-5.531 0 0 3.279-2.125 4.812-2.938 6.903-3.659 9.476-17.986 3.781-21.06-5.194-2.805-14.04 1.43-14.06 6.75-.04 9.72-12.307 10.753-23.04 2.672-13.774-10.37-1.571-36.505-1.49-36.47l-7.767-3.415c1.032.916-16.359 25.619-37.753 17-14.942-6.02-25.474-23.32-18.544-28.26 5.05-1.352 11.1 1.42 14.938-1.531 7.64-5.993 1.475-16.51-9.438-16.12-2.291.081-7.5 1.094-7.5 1.094.574-4.897 1.829-8.34 1.219-13.06-.64-4.726-3.915-8.486-8.313-8.531m513.94 11.344v9.188l14.875.094v-9.188zm-.156 18.938v9.469h15.03v-9.469zm0 20.406v9.688h15.03v-9.688zm0 19.03v10.25h15.03v-10.25zm0 19.09v9.563h15.03v-9.563zm0 19.469v9.656h15.03v-9.656zm-488.69 9.438l12.656 21.375 15.03.656.594 14.688 25.563 19.531-22.344 15.969-1.625 15.844-17.719.563-14.344 24.19-17.656-21.22-14.188-2.281-1.625-19.313-21.844-16.344 20.531-16.406 1.656-17.16 16.719 1.469zm831.78 10.219c1.368.028 2.857.405 4.469 1.219 5.311 2.678 6.984 2.992 20.781 3.688 16 .807 21.659 2.236 29.594 7.531 4.785 3.193 5.065 3.175 10.188-.219 22.47-14.889 48.13-1.353 50 26.375.491 7.291 1.22 10.226 4.094 16.344 1.959 4.239 3.99 7.579 2.813 10.281-3.602 8.257-20.913 8.787-30.344-3.469-1.688-1.849-3.402-2.647-5.75-2.656-4.683 1.741-16.666-7.688-16.531-8.094-1.113 6.562-1.67 11.777-2.844 21.313l-20.969-.313c0 0-.468-3.842-1.438-17.25-1.117-15.412-4.948-19.921-9.875-11.594-8.477 14.337-31.01 8.03-32.31-9.03-.442-5.785-.771-6.536-3.938-8.969-10.609-8.157-7.519-25.349 2.063-25.16m-343.09.844v8.563h15.03v-8.563zm345.5 9.156c-4.166.298-1.793 7.688 5.094 11.594 3.908 2.216 3.919 2.2 3.406 9-.93 12.315 10.944 18.353 16.219 8.25.915-1.749 1.307-3.975.938-5.469-2.212-8.951 17.15-6.509 21.813 2.75 1.071 2.129 2.267 7.787 2.844 13.5.549 5.414.688 11.688.688 11.688h6.187c0 0-.074-3.739.281-7.313 1.534-15.3 8.302-24.973 17.438-24.938 3.899.015 4.04.708 1.313 5.75-4.614 8.529-.169 14.708 10.594 14.781 6.827.046 6.802.057 9.344 4.906 2.79 5.327 4.901 7.02 7.5 6.03 1.835-.696 1.869.332-.531-17.844-3.577-27.08-19.335-34.379-41.09-19.03-6.157 4.344-7.505 4.213-12.969-1.063-8.186-7.905-13.369-9.716-29.375-10.313-7.626-.284-15.14-1.031-16.687-1.656-1.233-.498-2.229-.68-3-.625m-516.41 7.75c-3.559.061-7.688.809-11.271 1.115 3.979 20.93 5.829 41.861 7.648 62.791 18.326-3.183 42.06-.216 73.37 14.375 19.216 8.955 42.683 24.26 67.28 41.531 26.629 18.697 57.842 29.738 84.43 35.508 32.376 7.03 58.38 6.425 57.667 4.898-1.432.239-11.672-51.34-10.33-62.37-44.785-4.113-88.03-20.696-121.08-43.16-43.754-29.739-94.33-55.6-147.72-54.688m170.91 1.75v8.688h15.03v-8.688zm-493.25 1.719l-23.781 24.781 25.875 24.5 21.969-24.969zm-.656 11.25l13.469 12.906-10.875 13.781-15.16-13.06zm335.31 2.031c3.169.027 6.269 2.252 16.75 8.125 8.791 6.06 15.81 9.85 13.25.344 2-2.739 11.741 6.169 23.22 11.781 13.837 11.09 13.889 8.413 15.687 2.906 1.855-4.03 4.412-1.302 15.469 8.938 14.525 13.454 13.221 13.472 16.12 10.125 3.31-6.284 4.414-6.219 16.25 7.375 12.303 13.725 14.906 16.655 17.531 10.781 4.05-3.041 6.145-.088 22.844 15.594 8.213 8.191 10.146 6.919 11.688 1.406 1.588-5.68 2.04-4.4 15.906 6.594 16.06 12.854 17.645 13.795 18.312 9.344 1.061-7.07 6.03-4.56 22.563 7.313 10.02 7.158 13.801 9.148 15.937 7.375 2.183-3.856-5.432-11.27 10.719-4.281l4.438 23.438-5.594-1.594c-3.434-.977-10.963-3.525-8.125 3.781 1.638 4.22-2.427 3.72-14.969-3.75-17.967-10.701-21.282-13.158-22.625-10.969-2.372 8.01-2.07 8.527-14.188-.969-14.1-10.693-16.936-13.647-18.906-10-.257 8.07-4.193 6.434-17.344-4.906-11.12-9.722-13.486-14.801-18.465-7.364-1.367 2.585-2.741 1.933-4.58.59-6.465-4.78-19.465-18.503-23.14-22.444-2.888-3.148-4.533-2.133-6.906.469-2.217 2.429-2.387 1.675-9.563-4.906-17.14-15.72-20.326-19.649-22.719-17.5-1.954 3.687-.087 8.697-13.25-1.688-16.51-11.893-23.68-17.17-22.563-9.375-2.833 3.489-.848 4.173-17.375-4.969-15.707-8.688-17.699-11.297-19.969-8.313-1.542 4.72-6.813 3.02-6.812 2.75l-3.188-23.844 5.656.063c0 0 5.439-2.216 7.938-2.219m-126.03 2c-1.26 3.687-9.923 24.954-10.03 79.09 1.039 1.279 21.474-19.553 22.469-38.969.944-18.399-12.395-40.18-12.437-40.12m284.59 1.5v9.875h15.03v-9.875zm-283.52 7.829c19.11 30.29-1.954 58.851-7.196 60.868 0-22.764 3.35-44.16 7.196-60.868m501.43 25.445c-31.41 19.793-26.31 73.36-10.898 87.08 1.134 0 11.03-57.859 10.898-87.08m-4.301 6.59l-8.453 68.938c-10.981-12.161-12.929-48.42 8.453-68.938m198.08 11.637l16.594 20.875 14.75 1.094 3.281 15.06 21.531 17.531-21.562 14.625-1.906 16.688-16.03 1.625-15.875 24.969-15.531-24.469-14.875-1.594-.469-16.06-23.375-17.25 22.313-13.406.437-18.16 17.469.063zm-587.66 6.531c-10.544 50.13-35.725 84.43-71.25 107.5l.187 5.063-59.844 24c-13.11 61.16-36.682 120.81-86.09 176.78l13.781 28-66.844 22.969 95.69 164.09c6.589 0-46.36 25.06-110.28 18.531 40.452 99.04 48.792 201.58 26.406 291.37l313.22-1.313-239.37-469.72-3.906-7.656c-3.324-6.137 127.25 18.359 99.53 139.47-.388 2.804.582 3.157 2.156 2 25.385-21.805 193.97-82.27 328.59-2.438l40-16.563c-19.04 66.64-40.675 112.48-77.16 152.66l6.188 94.84c64.55-52.861 134.6-149.91 144-278.87 29.07-14.165 54.35-30.25 81.44-45.41l3.594 1.156 17.531-10.531c-56.23-61.51-171.03-120.3-244.59-135.75l4.344 20.844c-40.594-10.899-70.951-13.268-102.53-16.656l-4.844-220.69-40.875-24.09-1.281 243.44c-30.566.378-100.84 12.438-100.84 12.438l3.156-20.813-32.19 6.625-.563-20.281 36.37-10.437 52.75-223.63zm4.406 4.969l16.813 3.406-52.22 219.25c0 0-29.29 8.092-31.09 6.969-2.331-41.11-3.219-124.91-3.219-124.91 51.54-42.961 59.61-73.38 69.72-104.72m-358.41 16.09c7.87-.098 16.337 5.625 16.875 10.781 1.348 3.178 2.473 4.551 4.594 4.844 13.174 1.821 13.594 5.31 13.969 12.906-1.856 14.563 7.893 2.338 10.656-12.12.288-1.507.125-12.563.125-12.563l16.12-.156c0 0 .547 11.541.781 13.375 1.422 11.185 6.191 20.254 9.5 14.313 11.343-20.373 37.33-9.985 33.22 9.656-1.01 4.645-.946 4.941 2.219 8.469 5.162 5.757 7.081 11.849 5.375 17.16-1.661 5.182-5.289 5.97-13.09 2.844-3.669-1.469-8.113-1.994-20-2.344-16.813-.494-17.862-.813-24.406-7.156l-4.125-4-7.125 4.188c-11.863 6.971-22.649 7.238-35.19.813-8.164-4.183-12.917-14.209-14.188-29.844-.242-8.307-2.574-14.322-7.719-16.313-2.778-2.615.316-7.816 5.063-12.563 2.177-1.562 4.72-2.248 7.344-2.281m940.28 2.375l-22.16 27.625 26.344 23.563 24.531-28.844zm-513.22 3.969l30.688 17.563 3.937 217.56-34.687-.969.062-234.16m-426.22 3.03c-2.334.229-.867 3.972.844 9.688 1.536 5.113 1.923 8.292 1.438 11.844-3.258 23.841 24.08 35.964 43.812 19.438 5.247-6.01 6.106-5.621 10.5.813 5.414 6.785 13.291 8.991 29.813 8 7.541-.452 12.54 3.573 15.812.906 2.366-1.715.07-6.26-4.5-8.906-2.798-1.619-2.899-1.872-2.344-7.469 1.401-14.11-10.237-17.847-18.5-5.938-6.825 9.838-17.12 3.336-20.438-12.906-1.972-12.499-3.545-12.303-5.03-1.406-1.611 13.25-19.06 27.616-26.03 21.09-1.907-1.922-1.888-1.442.062-8.094 2.518-8.538.503-11.72-8.813-13.938-1.525-.363-3.28-1.636-3.875-2.813-4.932-7.634-4.716-10.313-12.75-10.313m941.66 5.063l14.06 12.12-12.25 14.469-14.969-11.5zm-505.81 7.75v10.03.25h13.12v-10.281zm0 20.719v9.875.938h13.12v-10.813zm79.06 12.438c14.711 54.626 29.537 109.2 44.31 163.81 13.997-5.591 94.82-41.464 132.94-87.37-1.45.115-34.654-32.35-46.28-53.41-38.12 6.283-81.91-1.711-130.97-23.03m-79.06 6.5v9.781.313h13.12v-10.09zm87.34 2.75c34.742 10.361 79.24 24.651 120.22 17.375 10.569 18.988 25.862 34.615 43.12 49.03-31.01 33.734-75.856 59.47-122.25 79.28zm329.75 3.938c1.747.0001 3.518.676 5.219 2.188 5.496 4.887 9.735 6.576 20.969 8.406 18.09 2.948 31.894 14.246 35.813 29.31 1.645 6.329 2.55 6.674 11.563 4.406 34.14-8.592 60.47 19.717 52.34 57.5-2.837 13.193-3.708 14.773.25 20 8.679 9.355 10.564 9.477 1.063 17.719-8.652 7.773-25.827 4.01-29.469-8.594-3.484-6.909-3.431-7.431-9.156-8.344-22.283-3.552-21.361-34.37-.375-37.938 1.755-.298 3.051.057 3.937-.344 5.959-2.694-6.493-16.786-16.781-14.625-12.621 2.651-18.906 10.747-23.875 23.438l-19.875-11.344c4.987-10.31 8.646-23.595 4.313-31.812-3.502-6.93-7.927-7.195-9.281-.563-3.184 15.605-22.582 20.265-35.31 7.563-7.116-7.099-7.947-14.718-2.719-25 3.386-6.653 3.471-7.13 2.031-9.938-5-9.771 1.77-22.08 9.344-22.03m-417.09 12.688v10.531l13.156-.063-.031-10.469h-13.12m419.53.875c-4.04.029-4.01 3.968-.281 8.75 3.318 3.367 3.965 4.911-.625 7.813-5.752 5.331-7.01 13.354-3.03 19.469 5.964 9.18 19.736 4.065 18.16-6.75-1.107-7.588 4.855-10.982 14.344-8.125 13.791 4.154 20.361 19.565 14.938 35.09-1.023 2.927-3.057 9.754-3.057 9.754l4.076 2.47c0 0 4.832-7.719 6.72-10.06 15.667-19.257 52.699-9.501 48.573 14.585-.635 7.568-.603 8.589-8.844 6.219-5.473-2.82-10.759 3.03-10.594 10.344.27 6.587 5.988 11.87 13.906 10.813 6.279-1.178 7.857-.963 7.406 7.5.643 5.885 2.838 9.783 6.688 11.781 9.352 3.861 14.162-1.46 6.688-9.281-4.529-4.739-4.255-12.07-1.406-18.938 3.405-8.215 1.627-26.28-3.594-36.469-7.522-14.68-28.568-20.831-46.19-13.5-8.05 4.305-8.936 5.3-9.719-2.25-4.415-18.724-18.504-32.87-36.06-34.12-6.751-.482-13.783-4.167-18.09-5.094m-419.53 19.12v9.719h13.156v-9.719zm0 19v10.719h13.12v-10.719zm0 20.906v10.719c0 0 7.18-.199 13.12 0v-10.719zm428.62 17.19l14.375 21.25 15.906 1.063 1.875 17.16 24.12 15.03-20.906 13.09-.156 16.594-19.938 1.687-17.625 23.375-15-20.625-15 .063-3.531-18.406-26.562-13.469 27.25-15.531-.75-19.344 18.531-.125 17.406-21.813m-428.62 2.531v11h13.12v-11zm0 20.16v10.875h13.12v-10.875zm420.56 8.094l-20.594 27.406 27.75 22.937 22.06-27.719zm-420.56 10.969v11.906h13.12v-11.906zm422.69 1.438l14.312 11.06-10.219 12.969-14.219-10.844zm-422.69 20.562v9.969h13.12v-9.969zm-390.62 1.281c-25.301.116-49.23 41.1-54.969 60.5-6.777 24.859-7.784 69.828-1.344 71.09 22.68-16.32 33.43-43.978 50.47-64.69 2.645 23.946 2.225 70.13 2.225 70.13 0 0-10.08 5.306-15.518 13.686-3.925 6.971-5.176 15.297-1.832 23.05-12.609-4.094-35.452.531-36.75 23.812.821 32.784 36.616 28.16 36.75 27.719-.76-.203-7.05 34.875 24.719 38.594 11.402 1.335 31.455-6.976 25.5-38.875 20.05 3.309 37.34-7.733 37.563-27.03.255-13.219-9.789-24.589-27.09-24.656-3.607-.014-11.219 1.625-11.219 1.625.244-1.906 6.929-22.425-16.344-37.31l-3.656-94.91c0 0 8.03 8.755 11.625 12.06 15.467 14.236 25.562 21.406 43.41 30.813 17.369 9.157 15.224 6.899 12.219-10.5-8.206-26.13-25.362-45.876-61.66-70.56-4.672-3.178-9.408-4.584-14.09-4.563m2.5 2.031l5.094 134.23-7.531-.011-6.469-134.09zm744.62 4.437c.669-.025 1.354 0 2.063.063 16.372 1.379 20.578 19.683 13.219 27.812-2.909 3.214-3.914 3.907-2.406 5.875 7.03 8.901 3.105 22.964-3.844 25.12-22.09 6.871-25.442-5.215-25.375-19.437l-34.12-1.281.219-19.875 37.625.75c-2.837-9.03 2.597-18.649 12.625-19.03m-760.44.218c.142-.012.282-.011.406 0 3.536.301-.102 9.753-9.969 24.16-6.668 9.739-15.945 26.914-18.719 33.844-6.074 15.168-10.165 42.37-6.094 37.37 3.673-11.371 4.03-16.11 7.187-24.281 4.158-10.662 23.563-45.706 27.406-49.16 3.287-2.952 4.139-1.138 4.063 8.719-.172 22.2-10.691 45.562-35.781 72.906-4.183 4.558-9.758 9.533-10.156 9.531-2.417-.0001-2.354-5.04-2.313-15.594.163-41.942 15.731-79.39 39.688-95.5 1.873-1.26 3.29-1.913 4.281-2m25.406 1.938c11.01 3.222 30.765 20.89 38.906 29.969 9.43 10.178 22.07 38.36 19.844 42.688-.738 1.901-2.33 1.603-7.844-1.5-35.03-19.715-60.11-44.02-53.53-51.875 1.836-2.196 9.361 2.332 19.438 11.687 6.849 6.077 13.862 12.239 20.12 18.406 9.842 9.691 12.06 11.12 6.125.344-5.327-9.673-20.425-25.906-38.688-39.687-7.424-5.603-9.111-10.12-4.375-10.03m737.19 5.656c-.468.0001-.892.081-1.219.219-6.892 2.902-4.086 11.834-4.75 18.688l-37.875-1.313-.219 5.25 35.531 1.938c.625 5.358-2.167 16.922 2.406 18.875 9.942 4.137 15.376-8.679 6.938-16.375-3.01-2.67-6.262-3.853 2.094-7.625 5.505-4.704 6.362-13.889 1.656-17.969-1.302-1.129-3.16-1.706-4.563-1.687m-479.19 1.562l-1.906 14.03-21.969 5.531-.563-15zm259.09 4.969c81.11 21.846 171.26 71.45 229.81 127.47l-11.719 7.687c-60.835-56.19-141.08-98.85-214.81-120.03zm-139.75 2.156c133.56-.368 255.31 51.55 353.56 135.41l-16.06 10.125c-89.62-74.08-188.91-123.49-322.5-129.37-87.32-3.85-186.96 18.54-285.16 72.56l-7.313-13.281c95.38-52.01 189.01-75.19 277.47-75.44m-10.5 20.12l52.53 1.531-3.25 48.781-47.75-1.563zm-56.5 3.469l7.406 47.06-45.719 8.531-12.969-47.19zm166.28 6.219l52.19 13.906-17.219 47.969-45.813-13.06zm-83.59.687c-8.287 0-14.999 6.716-15 15 0 8.285 6.713 15 15 15 8.284 0 14.997-6.715 15-15 0-8.284-6.715-14.999-15-15m0 5.188c5.524 0 10 4.382 10 9.812 0 5.431-4.476 9.844-10 9.844-5.526 0-10-4.412-10-9.844 0-5.431 4.475-9.813 10-9.812m-103.62.094c-8.285 0-14.999 6.716-15 15 0 8.284 6.715 15 15 15 8.285 0 15-6.716 15-15 0-8.284-6.715-15-15-15m0 5.188c5.524 0 10 4.382 10 9.813 0 5.431-4.476 9.844-10 9.844-5.523 0-10-4.413-10-9.844 0-5.431 4.477-9.813 10-9.813m206.59 6.03c-8.284 0-14.997 6.716-15 15 0 8.285 6.716 15 15 15 8.286 0 15-6.715 15-15 0-8.284-6.713-14.999-15-15m-290.81 1.75l15.469 45.906-44.28 17.938-16.594-45.34zm290.81 3.438c5.526 0 10 4.382 10 9.812 0 5.431-4.474 9.844-10 9.844-5.523 0-9.999-4.412-10-9.844 0-5.431 4.478-9.813 10-9.812m86.75 11l46.969 24.812-24.281 43.875-43.781-22.812zm-393.25 3.969c-8.285 0-15 6.716-15 15 0 8.284 6.715 15 15 15 8.284 0 15-6.716 15-15 0-8.284-6.716-15-15-15m177.44 1.438l2.188 46.34-41.594 2.937-7.562-46.06zm49.906 2.438l47.41 6.562-11.156 44.625-42.906-6.906 6.656-44.28m-227.34 1.313c5.523 0 10 4.382 10 9.813 0 5.431-4.477 9.844-10 9.844-5.523 0-10-4.413-10-9.844 0-5.431 4.477-9.813 10-9.813m155.31 6c-8.285 0-15 6.716-15 15 0 8.284 6.715 15 15 15 8.284 0 15-6.716 15-15 0-8.284-6.716-15-15-15m-75.75 1.875l12.281 45.09-45.719 13.09-14.03-43.37zm165.97.719c-8.285 0-14.999 6.715-15 15 0 8.284 6.715 14.999 15 15 8.285 0 15-6.716 15-15 0-8.285-6.715-15-15-15m-90.22 2.594c5.523 0 10 4.382 10 9.813 0 5.431-4.477 9.844-10 9.844-5.523 0-10-4.413-10-9.844 0-5.431 4.477-9.813 10-9.813m90.22 2.594c5.524 0 10 4.381 10 9.813 0 5.431-4.476 9.844-10 9.844-5.523 0-10-4.413-10-9.844 0-5.431 4.477-9.813 10-9.813m160.44.094c-8.286 0-15 6.716-15 15 0 8.284 6.714 15 15 15 8.284 0 14.999-6.716 15-15 0-8.284-6.716-15-15-15m-81.16 4.375l45.813 15.656-18.281 42.813-43.844-16.688zm81.16.813c5.523 0 10 4.382 10 9.813 0 5.431-4.477 9.844-10 9.844-5.524 0-10-4.413-10-9.844 0-5.431 4.476-9.813 10-9.813m-344.62 1.594c-8.285 0-14.997 6.716-15 15 0 8.285 6.715 15 15 15 8.286 0 14.999-6.715 15-15 0-8.284-6.713-14.999-15-15m0 5.188c5.526 0 10 4.382 10 9.812 0 5.431-4.474 9.844-10 9.844-5.524 0-10-4.412-10-9.844 0-5.431 4.477-9.813 10-9.812m277.56 8.75c-8.285 0-14.999 6.715-15 15 0 8.284 6.715 14.999 15 15 8.285 0 15-6.716 15-15 0-8.285-6.715-15-15-15m0 5.187c5.524 0 10 4.381 10 9.813 0 5.431-4.476 9.844-10 9.844-5.523 0-10-4.413-10-9.844 0-5.431 4.477-9.813 10-9.813m-536.62 5.219c11.987.506 20.982 11.272 21.526 22.475.414 8.516-10.448 19.662-10.448 19.662l-12.643-11.703-12.137 11.181c-2.048.683-11.481-15.349-8.6-23.643 3.753-10.802 11.473-18.43 22.302-17.973m681.13 0l36.28 29.688c0 0-15.926 9.681-18.875 11.406.361-1.291.531-2.657.531-4.063 0-8.284-6.716-14.999-15-15-8.286 0-15 6.716-15 15 0 7.104 4.963 13.07 11.594 14.625-3.729 2.141-8.688 4.906-8.688 4.906l-19.16-16.06zm-57.44 79.34l-16.05 6.586c-98.79-64.891-233.95-100.4-388.44-35.06l-5.316-12.807c114.7-47.761 259.4-62.63 409.81 41.28m-8.781-64.844l38.875 23.844-24.688 37.906-37.969-24.281zm-11.75 73.5l-16.313 6.125c-120.59-77.48-249.12-73.35-363.97-26.906l-1.773-10.883c135.23-58.55 270.95-39.918 382.05 31.664m80.906-60.781c5.523 0 10 4.382 10 9.812 0 5.431-4.477 9.844-10 9.844-5.524 0-10-4.412-10-9.844 0-5.431 4.476-9.813 10-9.812m-701.66 17.771l-13.41 13.528 12.242 13.757c0 0-3.885 3.286-6.7 4.818-16.05 8.735-33.604-5.06-32.766-19.959 1.222-21.707 27.38-32.05 40.633-12.145m638.1-10.365c-8.285 0-14.999 6.716-15 15 0 8.284 6.715 15 15 15 8.285 0 15-6.716 15-15 0-8.284-6.715-15-15-15m-583.82.609c11.936.091 21.21 9.256 22.352 19.797.914 8.408-3.459 16.48-12.883 22.2-12.786 7.755-27.644-4.8-27.386-5.573l10.782-10.656-12.965-13.262c-.375-.25 8.554-12.589 20.1-12.5m-37.34 2.578l22.09 22.03-23.375 21.781-21.656-21.75zm582.66 58.62l-12.406 5.688-16.906-10.188-5 9.594 9.406 5.969-9.78 3.666c-112.67-63.3-239.99-44.962-324.62-2.955 0 0 .734-6.514.778-6.513l9.212-4.699-3.438-11.656-4.937 1.437-.375-12.906c120.84-54.41 257.95-41.948 358.06 22.563m38.5-56.625c5.524 0 10 4.382 10 9.813 0 5.431-4.476 9.844-10 9.844-5.523 0-10-4.413-10-9.844 0-5.431 4.477-9.813 10-9.813m-621.62 7.875l-11.781 11.719 11.719 12.5 11.437-12.09zm368.81 2.594l-15.438.688.813 12.594 15.06-.375zm10.531.063l.281 12.594 14-.062-.062-12.438-14.219-.094m24.843.218l-.688 12.531 13.906.625 1-12.469zm-60 1.594l-15.813 1.719 1.75 12.656 14.969-1.75zm85.91.188l-1.125 12.937 14.281 1.625 1.938-12.375zm-430.03.062l6.875 7.313-6.844 6.812-7.281-7.125zm317.47 3.844l-15.25 2.406 1.625 13.03 14.875-2.938zm138.34 0l-2.531 12.06 14.188 3.406 2.313-12.313zm-163.34 5.281l-12.813 3.406 2.781 12.688 13.531-3.313zm187.69.5l-2.688 12.25 14.469 3.938 2.906-11.75zm-208.84 6.094l-13.406 4.75 3.469 11.75 13.625-4.594zm233.75 1.344l-4.469 11.781 12.531 5.03 5.531-10.687zm-255.87 6.906l-12.719 5.219 5.25 11.656 12.06-5.5zm-262.16.364l12.877 12.855 15.297-13.801c13.349 11.8 13.14 39.4-10.493 44.01-20.638 4.03-39.512-26.865-17.682-43.07m541 2.48l-4.906 10.812 13.844 6.094 4.781-10.406zm-394.87 69.37l174.69 296.91-27.625-.531-169.06-286.91zm-28.676 11.309l9.66 15.01c-18.918-15.06-46.721-2.391-45.547 16.59.925 8.476 8.093 13.63 8.125 5.469-.86-8.529 11.228-15.963 20-15.563 16.19.211 26.08 21.02 14.906 31.375-7.349 6.767-17.291 6.465-13.938-2.812.529-3.2.267-4.37-1.25-5.75-4.645-4.238-13.212 1.282-11.125 7.344 1.372 3.985 1.775 4.966-3 8.25-18.521 13.01-5.616 38.647 16.813 26.969 4.587-1.652 6.448-1.895 8.531-1.094 9.334 3.59 15.693-4.51 6.844-8.719-5.142-2.446-5.272-6.623-.313-9.938 10.59-7.07 27.09 3.981 27.03 18.12-.04 10.01-13.248 17.407-25.906 14.5-7.524-1.727-8.426 3.369-1.531 8.656 13.361 10.246 33.369 1.752 39.34-16.688 1.879-5.8 1.607-7.02 1.607-7.02l17.825 29.432c0 0-5.529-2.616-8.87-3.635-16.781-5.121-35.598 5.76-35.656 20.625-.03 7 4.115 9.716 6.438 4.219 5.403-12.791 17.15-17.767 29.22-12.375 11.16 4.986 16.266 16.292 11.906 26.375-4.566 10.558-19.882 13.669-18.16 3.688.827-4.757-2.075-7.662-7.187-7.188-1.935.18-4.418 5.799-3.75 8.5.624 2.527.178 3.139-6.375 8.25-15.571 12.141-3.594 31.961 15.844 26.22 3.267-.965 4.484-.876 7.406.531 7.03 3.386 14.413 1.278 14.437-4.125.0001-3.714-1.663-5.139-6.06-5.156-6.664-.026-5.223-7.563 2.156-11.25 18.497-9.242 37.39 14.09 26.12 32.28-4.839 7.814-7.896 8.62-25.19 6.719-2.789-.307-4.048 1.602-2.389 3.871 5.115 7.252 20.333 9.548 29.2 5.535 9.567-4.331 15.396-15.261 16.07-26.918l19.545 34.13c-15.203-15.893-41.43-9.815-45.643 12.946-.02 5.771 5.238 8.774 7.06 4.03 7.906-20.544 37.962-14.245 37.875 7.938-.0001 3.57-.715 5.591-3 8.719-5.518 10.639-19.617 13.265-17.06 3.719 1.136-2.954-1.122-6.164-5-7.094-3.818-.915-6.251 2.283-6.156 8.094.07 4.352.102 5.68.102 5.68-7.03 2.966-11.519 8.768-13.08 17.355l-136.83.308c16.272-94.84 12.449-180.48-18.656-261.47-2.686-7.02-6.547-17.234-6.547-17.234l24.15.641c5.826 5.05 27.844 3.09 36.445-4.719zm23.23 37.24l14.13 25.386c-5.849-3.351-11.804-5.573-20.906-6.344 4.75-7.05 5.129-13.366 6.773-19.04m-37.15 26.98c5.149 0 9.313 4.164 9.313 9.313 0 5.149-4.164 9.313-9.313 9.313-5.148 0-9.344-4.164-9.344-9.313 0-5.149 4.195-9.313 9.344-9.313m97.44 75.835l13.61 24.23c-6.621-2.821-12.215-5.575-22.563-5.845 3.764-4.399 7.02-11.783 8.954-18.381m-39.25 25.947c4.881 0 8.844 3.962 8.844 8.844 0 4.882-3.962 8.813-8.844 8.813-4.882 0-8.813-3.931-8.813-8.813 0-4.882 3.931-8.844 8.813-8.844m98.61 75.51l20.09 35.645c-7.903-4.526-16.411-10.261-27.09-9.159 5.08-10.854 7.85-16.774 6.992-26.486m-26.735 44.47l-21.555.074c4.309-18.844 21.735-13.944 21.555-.074m20.398-9.08c7.328.372 13.651 2.88 17.611 9.269l-27.12.069c0 0 .189-9.375 9.512-9.338" transform="matrix(.99999-.00388.00388.99999-924.74-489.76)"/>
  </g>
 </g>
</svg>
