<svg xmlns="http://www.w3.org/2000/svg" viewBox="0 0 744.09 1052.36">
 <g transform="translate(-512.47-1384.08)">
  <rect y="1754.35" x="772.9" height="311.81" width="223.23" rx="10.63" fill="#fff" stroke="#000" stroke-width=".997"/>
  <g transform="matrix(.15387.00171-.00171.15387 1047.54 1867.12)">
   <path d="m-1108.56 1129.14l147.78-277.02c-.018.065 36.668 13.59 79.51 24.2-39.809 107.27 2.455 247.73 2.455 247.73 0 0-229.86 4.866-229.74 5.095m-419.76-465.96c-9.881-116.93-11.41-229.98 6.822-323.85.34-1.504-54.25-32.23-48.676-35.889 8.529-5.6 114.77-62.49 114.77-62.49 0 0 7.264 4.03 13.487 3.322 4.857-.549 9.363-5.02 7.423-9.717-4.587-11.11-12.865-38.802-8.394-66.816 2.569-16.09 11.08-33.874 19.996-44.799 19.871-24.354 65.981-12.11 79.34-12.663 8.484-.35 33.14-90.33-7.895-106.52-11.305-4.461-36.458 57.06-18.354 70.6 2.723 2.037-36.32-20.03-66.19-33.12-2.767-1.213-15.01-10.421-17.876-22.722-3.578-15.345 45.04-45.49 35.24-62.725-14.283-25.11-50.867-62.48-66.23-51.943-14.485 13.378-49.09 40.769-48.651 59.25 11.269 33.01 39.01 35.01 53.921 66.19 3.706 6.734 30.806 34.906 30.806 34.906-9.886 15.483 6.684 42.17 7.397 38.05l-127.5-53.864c0 0 31.513 218.48 1.159 251.21-3.212 3.463 27.08-8.886 27.616-7.02 9.376 11.596 112.58 75.6 142.17 98.69 51.28-73.21 69.954-105.38 136.37-170.57 14.599-12.339 47.2-34.945 65.69-61.875 14.855-21.638 20.845-45.888 17.926-64.63-3.775-24.23-6.119-40.82-21.318-59.996-35.11-44.3-90.65-86.32-89.69-87.1l18.645-15.51c0 0 68.53 55.38 97.75 96.35 19.684 27.603 11.346 59.6 28.11 65.12 4.03 1.329 31.445-1.264 40.475.364 1.093.197 201.33 138.18 165.39 146.66-49.742 11.748-129.34 5.327-129.34 5.327-57.39-54.771-84.993-72.69-118.64-54.95 0 0-84.91 75.934-133.74 135.19-27.83 33.771-50.91 75.903-69.48 103.05-7.153 10.457-99.17-75.995-98.13-65.52 14.586 95.05 23.57 209.66 13.962 287.53-6.449 66.13-15.498 137.18-19.214 198.14 0 0 15.232-4.606 26.928-.598 6.32 2.166 10.965 7.951 11.584 14.43 3.721 28.962-33.704 22.647-34.602 20.15.042-.025 21.343 44.506 21.343 44.506 0 0-31.731 56.15-30.861 53.709.539-1.508-29.953-49.2-29.953-49.2 0 0 22.281-40.39 25.05-48.775 1.66-5.03-32.614 16.967-35.626-14.316-3.036-31.537 37.418-23.526 35.649-19.622-5.583-64.68-17.191-131.48-24.672-185.94m488.05 140.22c.886-.68-86.24-33.848-165.9-29.746-28.2-10.615-74.11-21.542-104.45-.833-34.627-22.882-64.59-48.16-95.02-73.2 8.441-.202 37.81-203.91 57.709-274.99-10.205-87.9 74.61-88.77 82.75-18.371 92.42 93.42 205.37 189.85 321.75 284.68-17.923 38.23-83.81 67.967-96.85 112.46m192.85-624.73c-105.34-105-325.45-292.35-325.45-292.35l100.94-100.69c53.743 15.362 108.94 28.09 171.18 28.02.247.241 68.54 30.15 104.4-1.241l95.03 73.56c0 0-36.789 205.84-58.934 277.78.803 28.392-9.563 63.1-37.565 68.55-23.913 4.653-42.717-29.1-49.599-53.634m207.81-248.24c10.125-66.895 11.824-115.53 18.5-193.51-46.832 14.277-46.898-49.03-.563-32.892l-21.916-46.885 31.09-53.43 29.64 50.08-24.545 44.962c52.08 1.981 40.06 50.41-4.894 39.25 9.28 74.54 28.726 149.72 28.643 223.51 17.421 118.15-16.677 283.2-10.685 287.04l51.14 34.33-5.815 257.54-80.54-34.22-23.677 16.347c7.825 15.07 17.727 29.483 21.2 45.907 0 0 55.705 44.767 48.2 58.995 3.58 2.046-38.63 59.19-51.22 57.917-24.03-2.43-52.45-33.07-60.37-55.04-7.02-22.1 49.07-44.46 41.788-60.6-8.715-19.311-30.28-28.405-49.36-33.899-26.311-7.574-38.539-28.19-39.743-28.18 0 0-9.276 82.4-19.16 75.926-39.766-26.02-13.704-110.29-6.355-108.03 0 0 17.282 3.768 37.667 5.455 71.834 6.716 65.996-81.4 51.617-123.92-3.601-10.09 1.851-10.225 1.466-10.352-3.344-1.108 11.601-.44 24.23-4.314 34.727-10.65 87.71-46.668 87.71-46.668-56.42-30.464-106.32-65.39-151.1-98.53 0 0-40.446 70.77-88.77 120.08-35.18 35.899-40.83 48.05-99.86 94.43-1.146.9-44.523 53.917-22.91 115.02 18.496 52.29 105.22 108.15 104.63 111.95l-16.77 16.371c.695.933-122.72-74.63-120.78-157.4-.171-3.125-55.745-3.586-55.745-3.586l-163.16-147.79 136.8-2.106 70.878 56.55 43.914 1.79c2.896 2.489 4.331-11.639 42.664-40.883 73.24-55.875 163.18-198.27 163.18-198.27 0 0 97.52 66.939 97.61 66.949-5.974-102.09-23.671-211.75-14.635-299.9m-357.65-478.8c0 0-98.45 189.86-152.6 279.39l-78.35-21.518c31.765-87.17-1.408-252.26-9.688-256.34z" fill="#e2cf00"/>
   <g transform="matrix(.99994-.0111.0111.99994-7446.54-205.05)">
    <path d="m5852.81-282.69l5.935 1699.82 1055.46-.678-3.036-1699.14zm733.56 1231.81c50.07-46.507 99.6-84.9 145.9-112.8 17.959-10.821 23.409-12.405 30.464-5.987 11.505 10.466 18.671 19.57 14.913 26.897-.847 1.653-3.557 4.396-3.557 4.396l-27.662-10.519 8.962 31.373c-24.891 10.131-24.441 37.05-.422 51.32l-16.529 38.02 38.424-16.905c1.471 8.288 28.871 28.326 45.914.007l34.699 16.927-11.958-42.471c11.394-10.852 18.03-28.19.118-44.18l8.248-33.27-31.34 10.195c-7.851-10.73-12.412-9.993-14.216-12.919-.536-3.997-.635-13.313-5.844-21.897-4.309-7.101-9.237-14.639-13.844-19.92-2.444-4.131-.491-4.48 12.02-11.246 5.879-3.179 10.737-6.393 10.737-6.393 0 0 61.67 30.926 86.83 42.703l1.428 569.54-338.27-.987c-38.04-113.52-10.711-211.64-.631-252.94-17.735-1.478-109.22-31.1-111.96-41.3 36.24-57.56 85.43-109.86 137.56-157.65m-658.22 165.71c-44.12-14.245-44.567 38.872-22.03 42.989 5.847 1.068 11.951 1.943 21.09-1.01 2.269.47-26.427 44.531-26.427 44.531 0 0 22.979 41.723 33.985 59.45l34.74-61.62-22.713-42.649c35.565 18.12 53.979-35.841 16.634-42.901-9.02-1.229-18.991 3.284-18.991 3.284l19.634-184.59c15.832 10.754 44.71 32.32 44.71 32.32 6.574 101.7 1.756 186.45 58.63 334.41l.583 102.95h-195.25l-.758-537.49 34.17 24.445c.728 3.036-5.447 1.01-2.117 38.41 3.01 33.791 13.297 92.39 24.11 187.47m701.04-1381.73c1.558 2.207 1.442 5.583 2.786 10.06 7.903 26.328 35.37 57.942 57.27 66.25 7.666 2.907 10.643 7.326 6.214 11.754-5.593 5.593-28.669-9.702-45.706-29.536-15.471-18.01-25.789-32.916-28.07-44.23-1.356-6.713-2.035-11.03-1.033-14.52 2.832-3.918 6.346-2.83 8.544.222m27.299-2.847c2.895-.012 6.787 3.395 9.125 9.594 5.622 14.906 14.434 26.05 28.22 35.688 3.655 2.556 5.108 6.386 3.25 8.625-.688.829-1.586 1.237-2.599 1.519-10.747 3-39.05-29.738-41.3-50.06-.49-4.414 1.057-5.354 3.309-5.364m35.22.406c5.716-.025 8.458 11.9 5.146 18.15-2.158 1.971-6.9-1.068-11.11-8.899-3.616-6.729-2.168-9.212 5.962-9.247m-19.16.188c1.281-.04 3.928-.718 5.27 1.143 2.204 12.323 11.498 21.246 18.914 28.386 1.245 2.338 1.827 7.229-.898 8.501-6.497 2.877-26.06-19.356-26.19-32.22-.041-3.871 1.143-5.757 2.906-5.813m-24.821 7.813c6.856 22.499 23.464 40.85 38.33 50.37 10.628 6.766 14.732 10.61 9.801 14.06-1.222.856-2.46 1.512-2.75 1.469-24.892-9.502-55.49-45.542-56.52-71.05 5.421-6.943 10.206.832 11.133 5.145m-86.15 97.66c-13.09.017-29.12 2.998-42.14 8.905-18.12 8.221-22.658 13.683-20.02 15.664 1.9 1.393 13.565-3.608 19.411-4.369 31.544-7.806 53.25-9.723 73.81-.763 15.895 6.928 15.99 3.748 5.319-7.788-7.737-8.363-21.544-11.669-36.38-11.65m111.19 17.29c10.439-.105 21.1 2.335 24.883 7.2 2.947 15.749-4.917 8.548-11.252 5.41-9.158-4.224-19.646-7.874-29.436-6.371-6.292.966-6.468.65-2.902-1.37 5.377-3.269 12.996-4.79 18.708-4.87m-123.65 6.133c-29.837 2.316-40.17 17.402-59.43 32.963-7.914 6.02-6.113 10.673 3.531 9.09 11.904-1.949 16.703-1.482 32.939 4.061 17.725 6.05 30.431 8.56 40.17 4.818 18.422-7.08 16.84-5.899-9.5 19.601-14.09 11.317-8.402 10.724 5.873.925 10.548-8.426 17.803-13.796 20.01-18.415 1.07-2.244 1.165-10.284 3.151-10.283 6.7.002 3.245-8.358-2.844-11.906-4-2.849-3.108-5.83 2.073-11.31 8.13-8.552 5.366-12.42-3.462-7.091-1.554.843-2.321-1.77-7.71-5.02-8.525-5.142-15.71-7.536-24.796-7.436m21.506 11.197c7.211 6.068 4.126 7.748-11.612 7.598-13.299-.126-24.62 1.27-40.42 6.509-17.94 5.948-19.04 6.1-8.5-2.879 14.495-12.352 43.944-24.743 60.53-11.228m93.2-5.239c7.236-.156 13.344.871 18.856 3.909 15.03 8.284 18.375 15.466 1.644 9.611-10.496-3.673-24.672-3.156-34.469-.441-10.119 2.804-11.861 3.787-10.491-1.67 1.678-6.687 12.399-11.149 24.46-11.409m-118.2 24.443c3.564 17.852 17.1 12.02 18.446 1.24l4.944.021c-2.101 14.335-21.621 26.332-29.21-1.259 1.602-.043 8.689.447 5.817-.002m108.02.302l3.67-.117c2.422 13.687 15.14 18.16 20.673 1.041l4.44.093c-3.399 28.554-33.62 14.646-28.782-1.017m-118.38 1.334c2.444.862 3.558 7.556 3.147 9.321-.852 3.659-12.804-.236-15.335-3.813 2.495-2.654 8.394-6.847 12.187-5.509m162.62 3.04l-.031 5c-5.52 1.323-7.811 4.422-12.969 3.406.292-3.195-.248-7.585 2.75-11.313 3.759-1.985 8.234.448 10.25 2.906m-120.44 5.781c-2.506 1.971-5.942 2.188-5.942 2.188-.54-4.787-1.347-10.17 4.62-10.214 3.921 1.143 3.647 5.996 1.322 8.03m68.875-7.938c2.098.148 4.557 5.368 4.844 8.406-.614 4.996-12.904 3-12.904-1.964 0-2.099 5.137-6.437 8.06-6.443m-112.5 189.06c-9.49-4.745-81.46-48.47-99.89-125.8l-3.664 7.91c7.814 18.516 19.341 48.587 19.341 48.587-.482-2.591 2.942 20.14 10.274 58.745-3.89.044-8.191-1.061-12.416-2.19-9.492-35.34-11.738-63.04-19.709-97.62l-3.469 9.656c0 0 10.02 62.05 16.813 86.31-3.882-.368-11.03-1.969-11.03-1.969-5.657-26.17-10.03-43.727-15.353-69.97l-4.897 6.345c7.03 21.541 9.771 40.801 13.312 61.44-4.829-.727-9.686-1.191-14.286-3.75 0 0-7.259-37.641-8.221-38.19-2.767 2.787-3.908 6.375-3.908 6.375-.292-.338 6.297 20.866 5.827 29.598-4.622-.76-12.637-3.071-18.286-4.969-2.957 1.967-4.499 5.242-6.771 8.186 2.783 11.978 167.89 37.905 157.99 28-.059 1.035 72.802 31.888 113.47 5.672 0 0 70.72 52.44 98.35 73.39 0 2.383 9.57 13.496 19.531 20.563l28 21.563c8.136 6.318 11.389 1.743 12.625-10.156 1.376-13.253 11.01-102.58 13.256-121.63 8.404-64.16 8.396-63.48-1.35-60.53-14.9 4.514-28.313-1.351-28.313-16.594 0-9.325 4.314-17.05 14.25-20.656 2.82-.964 6.497-1.05 10.719-.969 1.925.348 5.495.584 5.875.656 4.744-.267-18.375-42.12-18.375-42.12 0 0 22.09-39.37 32.719-54.03l28.594 51.812-23.414 45.703c45.603-3.423 41.14 53.899-3.504 34.706 0 0-.265 17.03-.176 15.779.431-4.875.363-9.04 1.906-9.951 43.25 16.387 52.06-46.68 5.454-43.772 7.67-13.369 16.217-27.19 24.19-41.926l-33.696-61.42-38.07 63.32 19.16 39.531c-4.305-1.118-7.765-.439-12.375.031-28.21 5.779-22.15 51.18 10.09 44.938 3.686-.714 9.224-3.5 9.224-3.5l-20.818 185.45c0 0-2.052 1.664-10.406-4.354-9.647-6.95-29.854-22.05-31.14-23.601 7.222-118.56-22.434-243.3-56.29-321.4-2.152-5.991-.875-123.61-.875-123.61l192 .505.714 546.27c-10.04-6.355-20.897-14.719-31.22-22-3.094-2.503-5.01-5.474-3.688-10.25-3.395 7.263-1.345 10.378-1.345 10.378l42.4 33.872-1.682 537.6c0 0-68.45-35.27-110.59-52.29-19.01-7.757-19.862-5.522-19.862-5.522.061-.035 13.435 30.15 9.617 35.595 9.06 8.707 24.286 26.933 25.03 44.771 8.111 7.02 10.389 7.895 16.472 18l25.432-9.192-5.773 26.494c27.04 18.938 1 44.41-4.01 42.06 0 0 11.932 25.604 14.656 37.26-4.271-.29-25.689-11.905-31.656-14.656-15.519 30.545-41.728 4.91-41.938.406l-29.07 12.945 10.293-33.09c-18.721-11.386-31.368-28.6-1.098-47.14l-6.991-25.813 24.897 9.778c0 0 4.644-7.46 8.176-12.9-9.313-40.545-70.54-32.877-90.21-69.34 0 0-4.831 45.524-9.781 61.996-1.932 43.539-32.438-.504-32.438-46.563 0-10.401 13.07-45.4 17.5-47.09 4.603-.639 48.31 20.487 77.66-.5 13.362-13.899 36.408-52.994 14.268-114.2-7.326-14.14 13.928-15.933 20.829-11.16 0 0 63.872-33.405 92.71-49.5-48.37-26.577-148.95-97.29-148.88-100.64-13.414 21.301-28.788 39.16-50.39 69.28-35.02 41.24-62.4 80.42-106.84 113.37-62.51 45.507-77.18 91.31-59.75 145.09 7.05 23.24 21.257 46.813 44.522 54.969 11.835 11.965 59.38 56.976 59.38 56.976-79.37 72.26-133.86 131.7-172.08 197.37 32.26 16.964 110.05 41.531 110.05 41.531-28.895 96.03-15.74 172.31 3.299 248.88 0 0-225.83.291-343.01-3.393-1 .988-13.684.312-13.853-.495-.462-8.562 21.11-32.1 27.562-28.813 3.247-3.194 10.11-4.826 8.875-8.75-16.17-1.928-40.699 26-41.669 37.563h-9.643c-1.976-1.725 17.502-47.19 56.53-50.813-.408 1.635 5.238-3.534 1-5.75-45.498 5.393-66.69 55.875-65.34 56.56h-7.03c15.471-49.646 55.752-65.31 79.06-67.47.225-.097 7.562-2.652 5.594-7-51.52 8.946-77.2 31.24-89.59 74.47h-9.286c6.703-43.844 51.803-82.25 102.78-81 1.597-1.012 3.55-2.203 2.719-7.188-56.57 6.375-84.79 25.25-108.03 73.844-20.79-53.963-78.57-79.57-79.26-79.79 0 0-1.396-15.11 1.831-14.482 49.29 17.844 68.11-24.954 66.05-49.82-1.147-13.837-.371-21.461-5-41.41-4.127-17.785-7.18-29.769-6.853-37.49.324-7.643 2.719-9.188 8.362-11.746 10.569-4.791 17.18-22.13 14.835-24.25-5.43 12.615-19.78 14.79-26.391 23.267-5.279 6.981-2.954 18.1 6.446 56.695 5.728 23.519-1.063 12.705-14.43 5.341l-8.929-5.05c5.987 6.155 12.318 11.955 18.42 17.987 5.46 4.991 2.403 8.08-5.429 5.188-11.278-5.628-33.01-3.271-41.34 3.815-3.247 2.312-4.397 2.073-5.216-.061-3.645-59.945 2.658-96.82 22.514-141.86 12.837-30.623 31.945-53.55 57.44-55.19 25.686-2.13 62.62 6.87 96.16 29.651 39.39 26.754 77.78 67.44 81.86 117.35.158.578 3.03-4.267 4.335-6.827 1.802-5.934-4.773-23.755-15.04-44.42-1.895-15.538-7.241-42.782-11.442-61.21 3.195-1.454 10-.64 11.913 1.686 7.213 30.471 12.346 54.2 18.531 95.03.088 3.98 5.204-5.909 5.219-8.531-.889-6.09-17.904-85.976-17.563-84.16.1-2.716 16.14.856 13.938 3.375 0 0 12.198 67.01 13.06 64.937l4.125-5.687c0 0-11.642-48.942-10.187-58.37.995-1.443 10.02 1.479 12.875 3.03 3.592 4.815 5.89 22.276 7.406 34.19 4.149 3.168 4.97-5.988 4.656-8.406-2.989-4.742-6.153-22.433-3.781-23.344 1.865-.716 12.205 3.389 14.188 5.156 2.333 2.079 11.348-10.399 9.06-12.559-48.774-18.684-110.31-29.585-156.62-30.32-10.763.045-15.03-1.473-31.536-7.433-42.03-15.174-76.78-.058-81.87 4.738-51.31-35.658-108.6-85.46-154.2-117.23-2.146-1.42-7.259-2.263-7.821-2.263-7.237 55.32-12.291 119.32-18.46 170.37-2.508 20.21-2.805 21.79-1.88 22.362.803.496 2.385-.311 3.01-.634 15.01-5.528 28.566-1.929 35.75 11.625 3.613 19.385-13.342 32.14-31.22 22.938-6.638-3.418-7.591-2.746-4.562 3.719 5.228 11.638 20.312 42.28 20.312 42.28.029.0001-20.379 41.591-30.687 52.906-10.05-16.233-22.874-32.646-28.438-50.37 7.897-15.455 22.818-35.36 27.531-50.594-.671-.488-4.734-.068-7.563 1.406-26.08 12.338-30.27-10.893-29.926-19.244.706-16.977 15.495-20.588 36.972-12.677-23.21-154.23-28.17-242.11-22.24-232.6 0 0-28.04-20.04-41.978-33.643l-1.259-1123.21 335.5.505c34.2 91.69 24.784 201.95 4.34 259.37 36.31 6.638 72.989 15.212 114.43 38.999-70.01 102.63-179.9 213.55-298.93 284.56-6.749 3.045-28.914-10.779-31.516-24.436-.604-3.172 1.155-9.425 4.724-9.31 8.745 2.838 17.219 6.736 25.758 10.217 0 0-11.894-29.846-6.153-34.379 3.734-2.453 6.791-4.5 9.185-7.03 8.544-11.03 7.86-23.561-1.186-33.18-3.645-3.817-7.895-6.45-10.02-7.422 0 0 8.391-23.285 12.598-34.26l-33.03 10.925c-10.698-14.825-30.362-26.358-44.895-4.286-2.772 5.884-2.197 4.98-22.644-4.065-11.59-5.127-18.733-7.754-18.733-7.754 4.344 12.941 10.03 25.09 14.998 40.07-22.756 14.506-17.57 38.972 1.585 46.27l-10.09 33.05c0 0 21.514-8.02 33.18-11.133 0 0 10.227 10.279 13.259 20.04 5.202 16.747 17.02 28.888 24.485 35.802-12.445 9.12-18.591 12.192-32.606 18.929l48.38 19.544c-3.01-10.226-9.416-17.818-10.06-30.753-.574-11.08-1.204-11.285-8.369-18.785-11.719-10.11-13.483-23.631-20.06-34.672-4.591-2.772-8.254-8.327-11.676-14.606-7.363.697-23.993 8.964-27.14 6-3.86-4.119 6.698-25.22 5.526-27.329-8.49-.727-32.28-19.266-3.947-39.919l-9.04-33.589c0 0 21.57 9.426 31.907 14.703 7.182-33.562 39.925-17.467 45.22-2.999 0 0 25.957-8.533 24.349-1.608-.724 6.217-4.939 21.727-4.939 21.727 23.338 20.663 18.509 30.807-.451 44.36-.29 10.954 4.309 27.983 4.309 27.983 0 0-13.203-5.864-21.903-8.326-3.481 3.481-7.432 9.77-6.772 13.01 5.901 26.12 38.11 33.39 85.83 60.08 1.637-16.874 13.28-39.939 14.598-60.19.82-14.766 1.327-14.999 11.719-10.281 27.344 19.748 18.999 74.02 9.03 96.28-5.902 12.605-6.87 12.28-18.344 8.625-15.889-5.061-43.982-3.02-59.44 2.219-21.371 8.752-31.455 56.42-31.687 70.906-.376 13.758.686 27.407 7.906 44.41 2.992 10.876-2.505 19.258-12.313 16.344-2.2-.654-7.438-2.656-7.438-2.656l-92.25 47.719 17.379 10.223c0 0-12.811-7.646-4.872-11.79l79.09-41.27c14.739 5.749 12.764 6.922 22.318-3.03 5.717-5.888 8.525-6 16.184-5.27 46.632 4.474 67.29-2.315 75.35-21.856 1.21-2.933.748-2.831 5.511-5.235 8.822-3.429 12.97-9.635 13.419-17.424.294-5.105 2.51-5.802 6.396-9.37 7.255-6.661 8.725-15.01 4.156-23.594-2.15-4.04-3.795-5.312-2.901-9.503 1.497-7.02-1.099-14.328-7.844-22.06-7.764-8.902-7.712-7.397 6.906-21.01 28.716-27.3 54.02-48.19 81.955-72.89 19.1-16.896 17.04-15.687 24.477-7.956 27.375 28.46 38.11 72.837 25.786 111.86-.579 1.833-.838 1.624.594 0 7.741-8.777 7.96-52.947 1.344-72.53-8.06-24.07-15.881-36.6-42.558-60.17-16.654-15.04-61.978-58.45-61.978-58.45 65.937-57.18 136.96-128.26 176.79-193.6-20.436-21.915-115.18-42.12-115.18-42.12 11.793-24.465 35.12-134.37-4.819-256.24l340.38 3.932 12.11.82c0 0 1.824-.698 2.795-.951 3.261-.853 4.889 1.445 4.1 5.094-2.505 9.3-16.16 31.08-25.787 29.28-4.293-1.666-3.083 6.587-5.01 10.02 15.183-1.967 32.987-21.2 37.445-40.27 2.445-4 4.03-4.679 6.469-3.906 2.806.89 2.104 3.562-.935 12.781-9.507 23.06-28.785 44.492-51.19 42.35l-2.906 7.867c30.23-.488 53.607-28.831 60.51-50.03 4.825-12.603 5.01-14.311 9.862-13.09 4.01 3.709 1.529 9.04.163 13.422-15.196 48.556-56.941 61.53-77.73 59.42-2.504-.312-2.945 2.035-2.187 6.03 44.655 2.947 80.22-35.521 85.25-68.53 2.447-9.167 6.693-12.296 9.14-8.108 1.381 3.696.921 7.467.243 10.987-12.204 52.11-67.751 81.7-101.7 73.25-1.57-1.466-4.127 5.736-.432 8.307 68.52-2.585 89.68-37.943 105.31-69.18 18.642 28.12 33.885 57.12 78.56 74.15 0 0 4.455 9.813.942 12.01-1.852 1.16-4.68.62-8.782-.042-54.45-8.794-72.46 42.1-49.28 118.12 6.346 20.817 3.504 17.629-10.06 30.656-6.466 6.209-9.543 17.215-7.844 17.469 2.324-1.308 3.091-4.873 8.75-9.563 2.464-2.042 7.519-3.991 11.25-6.563 10.07-5.841 9.983-9.838 6.366-23.647-2.69-10.268-9.535-41.496-9.545-44.665-.017-5.984 1.399-5.353 8.887.009 10.45 7.748 16.375 7.193 3.73-2.731-4.897-3.847-8.08-6.842-9.559-8.999-2.01-2.934-.766-4.829 3.313-3.551 18.762 5.881 34.873 5.453 53.08-5.63 2.082 50.15-4.819 126.24-46.839 180.65-32.24 36.2-93.95 8.808-116.78-2.625m49.38-115.25c-1.252.057-5.749.987-8.531 2.58-12.378 7.087-9.424 32.23 4.085 35.576 5.431 1.346 10.364 2.085 19.495-2.272 5.438-2.595 13.05-4.625 15.188-3.732 4.487 1.874 5.905-2.09 6.861-6.558 2.141-9.995-14.25-10.233-27.29.098-16.459 13.04-29.07-6.202-13.567-20.688 5.17-3.338 5.02-5.062 3.763-5m-127.85 53.796l13.823 15.975 8.686 38.07c-5.269.896-11.656-2.031-11.656-2.031-4.311-17.223-8.523-34.463-10.853-52.02m188.26 9.579c-.141.017-.305.053-.469.125-.582.256-3.158 1.416-6.719 1.813-2.055.229-5.161-1.231-7.375-1.094-6.05.375-11.706 2.157-13.219 2.781-1.862.769-3.693 1.092-5.281.156-4.513-2.66-17.661-1.908-21.656.438-4.733 2.01-10.05 2.04-13.937.031-1.674-.866-3.387-3.051-3.688-2.75-.618.618-3.145 11.395-3.906 15.563.021 1.466-1.013 3.909-.406 4.156.771.315 3.25-1.938 6.312-3.5 6.278-3.203 13.298-2.956 25.625.063 15.215 3.725 21.14 2.645 30.12-1.938 7.152-3.648 11.497-4.524 16.25-3.219 1.173.322 4.292 1.942 4.719 1.531.839-.808-1.463-5.318-3.438-9.781-1.428-3.229-1.951-4.495-2.938-4.375m-164.17 17.18c13.364 12.661 12.36 11.576 20.796 17.839l-.409 12.199c0 0-10.336.232-15.406-1.344-1.602-4.747-8.553-28.571-4.981-28.694m109.94 8.197c.903.622 2.22 1.276 4.03 1.894 21.281 7.978-.977 5.967-3.098 13.567 0 .684.971.791 2.02.379 7.3-2.87 25.14-4.726 33.25-3.156 10.528 3.553 11.187 1.098 1.062-4.188-7.408-2.917 1.575-4.903 4.598-7.455 6.279-4.04 1.959-5.705-6.04-1.871-8 3.839-22.254 3.777-28.75.138-2.876-1.459-5.674-2.818-7-2.902-2.722-.11-1.275 2.735-.076 3.592m-83.76 13.668l12.452 9.735-12.734-1.224zm-282.04 244.61c-2.515 0-4.563 2.048-4.563 4.563 0 2.515 2.048 4.563 4.563 4.563 2.515 0 4.563-2.048 4.562-4.563 0-2.515-2.048-4.563-4.562-4.563m16.623 4.605l-57.12 27.12 15.09 5.05-.12 15.625 13.902-4.433 5.893 14.594zm2.532 12.769c-2.515 0-4.563 2.048-4.563 4.563 0 2.515 2.048 4.563 4.563 4.563 2.515 0 4.563-2.048 4.563-4.563 0-2.515-2.048-4.563-4.563-4.563m-72.41 27.749c-2.515 0-4.563 2.02-4.563 4.531 0 2.515 2.048 4.563 4.563 4.563 2.515 0 4.563-2.048 4.562-4.563 0-2.515-2.048-4.531-4.562-4.531m17.555 8.487l-64.12 29.451 19 5.777-5.02 19.567 15.482-6.5 8.643 13.13zm1.888 14.02c-2.515 0-4.563 2.048-4.562 4.563 0 2.515 2.048 4.563 4.562 4.563 2.515 0 4.531-2.048 4.531-4.563 0-2.515-2.02-4.563-4.531-4.563m-127.21 2.934c24.11-.031 51.15 9.142 60.37 29.781 2.456 10.318-7.687 16.462-29.344 10.524-35.801-9.817-42.481-10.921-36.531-4.836.784.802 2.36 2.767 7.719 4.594 13.484 4.596 39.585 9.913 46.625 9.188 9.62-1.276 16.277 3.201 13.875 11.219-2.728 9.107-15.219 12.833-34 10.188-19.451-2.74-30.16-4.982-36.625-6.938-8.297-2.51-8.588-2.295-4.656 3.531 2.047 3.034 2.248 5.462 5.281 6.03 12.843-.725 26.52 1.733 38.31 2.844 21.17 1.894 24.482 7.895 8.937 17.06-7.369 4.346-29.411 3.155-41.937-1.354-8.953-3.223-29.476-7.829-21.563-1.584 1.901 1.5 1.25 5.185 4.563 6.344 10.855 1.497 41.542 3.647 46.34 7.989 3.09 2.796-3.869 9.896-18.2 13.602-21.565 4.086-53.812 2.38-62.33-3.435-15.768-32.11-7.282-84.67 17.406-105.22 7.878-6.163 21.285-9.513 35.75-9.531m141.37 16.749c-2.515 0-4.531 2.048-4.531 4.563 0 2.515 2.02 4.531 4.531 4.531 2.515 0 4.563-2.02 4.563-4.531 0-2.515-2.048-4.563-4.563-4.563m19.04 4.867l-66.2 32.969 16.746 4.973-3.969 19.263 15.515-6.393 9.395 12.96zm.514 16.13c-2.515 0-4.563 2.048-4.563 4.563 0 2.515 2.048 4.563 4.563 4.563 2.515 0 4.563-2.048 4.563-4.563 0-2.515-2.048-4.563-4.563-4.563m38.5 38.875c-29.359 28.569-62.44 51.2-92.66 78.946l6.546-.264 16.467-14.851 463.75-1.456-10.834 15.816 4.558 1.956c0 0 13.907-20.562 12.963-21.506-101.89.292-180.54.056-292.31.828-20.37-20.18-41.89-39.08-63.19-58.25zm-140.97 18.32c-2.515 0-4.563 2.048-4.562 4.563 0 2.515 2.048 4.563 4.562 4.563 2.515 0 4.531-2.048 4.531-4.563 0-2.515-2.02-4.563-4.531-4.563m605.44 3.487c40.06 29.731 87.52 66.19 126.91 87.84 15.775 6.852 14.248 9.189-1.781 16.763-15.755 9.794-41.976 22.412-63.844 33.438-9.476 3.581-13.618-1.086-20.344.156-4.85 1.236-6.235 2.148-9.125 5.969-4.739 6.266-3.447 6.05-28.781 4.906-25.56-1.154-36.1-.583-41.594 2.219-5.284 2.694-14.348 11.901-14.348 15.719 0 3.675-2.888 8.388-8.152 9.969-6.132 1.489-13.207 6.343-12.906 13.875-1.64 5.671-5.108 8.183-8.188 11.29-7.285 7.35-6.558 13.13-4.451 19.955.975 3.059 2.459 2.346 1.703 11.389-1.732 20.713-3.159 18.966 19 34.29l-113.22 98.65c-2.624 2.065-3.397 1.86-5.783.217-13.805-10.251-23.415-27.19-28.952-44.14-19.13-52.69 4.228-95.97 35.27-122.46 10.755-9.178 25.2-20.12 29.22-22.871 58.45-49.851 109.29-120.45 149.36-177.17m-588.54 3.857l-64.724 30.56 20.846 3.512-3.989 18.01 15.1-5.722 7.991 15.18zm3.958 14.282c-2.515 0-4.563 2.048-4.563 4.563 0 2.515 2.048 4.531 4.563 4.531 2.515 0 4.531-2.02 4.531-4.531 0-2.515-2.02-4.563-4.531-4.563m593.06 20.04l-7.348-17.376c0 0-20.445 50.36-24.77 67.42 17.321-8.927 68.06-34.757 68.06-34.757l-21.712-4.03 2.453-19.721zm-739.32 3.108c-2.515 0-4.563 2.048-4.563 4.563 0 2.515 2.048 4.563 4.563 4.563 2.515 0 4.563-2.048 4.563-4.563 0-2.515-2.048-4.563-4.563-4.563m19.824 4.157c0 0-48.16 22.599-69.901 32.35l20.297 4.252-3.565 19.736 18.319-7.145 7.388 19.505zm2.575 14.907c-2.515 0-4.563 2.048-4.562 4.563 0 2.515 2.048 4.531 4.562 4.531 2.515 0 4.563-2.02 4.563-4.531 0-2.515-2.048-4.563-4.563-4.563m681.54 3.28c-2.515 0-4.563 2.02-4.563 4.531 0 2.515 2.048 4.563 4.563 4.563 2.515 0 4.531-2.048 4.531-4.563 0-2.515-2.02-4.531-4.531-4.531m78.74 4.123l-22.924 63.704 61.993-31.21-16.829-4.596.087-15.759-13.845 4.03zm-732.66 15.314c-2.515 0-4.563 2.048-4.562 4.563 0 2.515 2.048 4.563 4.562 4.563 2.515 0 4.563-2.048 4.563-4.563 0-2.515-2.048-4.563-4.563-4.563m678.06 1.159c-2.515 0-4.531 2.048-4.531 4.563 0 2.515 2.02 4.531 4.531 4.531 2.515 0 4.563-2.02 4.562-4.531 0-2.515-2.048-4.563-4.562-4.563m-659.05 4.67l-65.69 32.04 20.388 4.777-2.238 20.509 16.577-9.412 8.999 18.703zm4.105 13.549c-2.515 0-4.31 2.048-4.31 4.563 0 2.515 2.048 4.531 4.562 4.531 2.515 0 4.531-2.02 4.531-4.531 0-2.515-2.269-4.563-4.784-4.563m683.11 4.03c-2.515 0-4.563 2.048-4.563 4.563 0 2.515 2.048 4.531 4.563 4.531 2.515 0 4.563-2.02 4.563-4.531 0-2.515-2.048-4.563-4.563-4.563m-90.52 20.953l-6.104-17.15-24.303 62.888 65.36-29.939-20.74-4.866.368-16.422zm-66.4-13.539c-.747-.04-1.406.167-1.406.656 0 1.453-16.701 17.773-16.701 17.773l-192.91 1.781c.397.028 16.06 4.361 16.06 4.361 25.306 20.22 64.961 56.08 64.961 56.08l47.889-1.909c26.519-26.03 66.37-45.833 84.14-77.992-.434-.434-1.284-.71-2.031-.75m180.82 12.964c-2.515 0-4.563 2.048-4.562 4.563 0 2.515 2.048 4.531 4.562 4.531 2.515 0 4.531-2.02 4.531-4.531 0-2.515-2.02-4.563-4.531-4.563m-148.91 21.956c-2.515 0-4.531 2.02-4.531 4.531 0 2.515 2.02 4.563 4.531 4.563 2.515 0 4.563-2.048 4.562-4.563 0-2.515-2.048-4.531-4.562-4.531m97.93 6.585c13.827-.07 27.15.405 30.594 3.036 21.371 17.994 11.243 102.11-15.696 112.73-29.562 6.653-50.01 7.887-75.67-9.04-7.276-3.545-21.715-14.269-18.897-23.12 3.842-10.879 14.412-10.09 44.719-.656 11.06 3.442 17.14 2.749 19.969.594 2.637-2.01-.816-4.26-6.469-4.281-2.277-.008-12.08-2.425-20.25-4.938-11.538-3.547-14.854-4.59-22.313-5.03-12.542-.742-16.187-1.234-16.187-8.906 0-14.326 19.923-16.222 56.59-7.813 4.385 1.01 12.331 2.12 14.281 2.063 1.414.539-2.793-4.747-3.5-7.906-1.324-1.128-3.694-1.664-9.938-1.875-23.582-2.313-43.16-3.912-43.58-7-2.083-15.16 28.419-19.292 60.05-7.125 8.121 3.124 8.282 1.831 8.219-.531-.117-4.369-13.711-11.999-33.763-11.79-19.505.203-16.784-9.709-.75-17.16 5.48-2.546 18.758-1.189 32.585-1.259m-75.43 16.254c-2.515 0-4.531 2.048-4.531 4.563 0 2.515 2.02 4.563 4.531 4.563 2.515 0 4.563-2.048 4.562-4.563 0-2.515-2.048-4.563-4.562-4.563m-70.28 31.473l-4.125-16.996-26.54 66.13 67.03-34.13-22.1-4.152 1.937-13.915zm-34.16 26.554c-2.515 0-4.563 2.048-4.562 4.563 0 2.515 2.048 4.563 4.562 4.563 2.515 0 4.531-2.048 4.531-4.563 0-2.515-2.02-4.563-4.531-4.563m66.781 18.759l-5.643-16.07-22.54 57.56 57.2-25.549-16.893-4.612 2.402-17.442zm-45.531.17c-2.515 0-4.563 2.048-4.562 4.563 0 2.515 2.048 4.563 4.562 4.563 2.515 0 4.531-2.048 4.531-4.563 0-2.515-2.02-4.563-4.531-4.563m14.643 21.987c-2.515 0-4.563 2.02-4.562 4.531 0 2.515 2.048 4.563 4.562 4.563 2.515 0 4.531-2.048 4.531-4.563 0-2.515-2.02-4.531-4.531-4.531m-28.745 13.478l-19.303 54.52 53.745-26.02-15.705-5.174c0 0 .864-12.26-.616-11.692-.938.36-11.05 3.183-11.05 3.183zm47.839 6.522c-2.515 0-4.563 2.02-4.563 4.531 0 2.515 2.048 4.563 4.563 4.563 2.515 0 4.563-2.048 4.563-4.563 0-2.515-2.048-4.531-4.563-4.531m-71.25 26.23c-2.515 0-4.563 2.048-4.562 4.563 0 2.515 2.048 4.563 4.562 4.563 2.515 0 4.563-2.048 4.563-4.563 0-2.515-2.048-4.563-4.563-4.563m20.545 21.09c-2.515 0-4.563 2.02-4.563 4.531 0 2.515 2.048 4.563 4.563 4.563 2.515 0 4.563-2.048 4.562-4.563 0-2.515-2.048-4.531-4.562-4.531m-283.48 251.1c-2.464.366-8.861-5.481-10.11-8.226 3.648-.926 7.41-.243 9.452 1.467 1.688 1.601 2.882 5.708.653 6.76m19.458-3.941c-.867 6.662 3.257 18.705 2.474 21.565-2.112 1.037-12.804-10.432-15.437-13.219-.551-3.807.039-8.637.254-10.823 3.675-.65 10.189-.406 12.709 2.476m19.255 3.315c2.279 14.762 8.777 38.493 7.763 46.5-.963-.769-9.206-8.895-15.293-17.516-2.142-5.161-5.475-23.13-5.189-31.73 4.104-.563 9.612.095 12.719 2.75m-128.98-1.661c-6.574 3.353-14.05 5.767-23.433 5.728-7.526-.031-20.486-3.933-19.17-2.973 3.427 6.128 12.376 2.916 12.549 6.915-2.226 3.956-8.173 3.582-11.134 7.371-.621 1 .876 1.854 5.066 1.412 12.712-5.765 29.32-5.659 44.515-.667 3.197.668 1.098-2.392.012-3.203-1.973-1.448-5.235-2.968-7.98-3.297-13.278-2.359-7.446-3.696 1.438-7.665 6.519-2.383 8.157-8.245-1.858-3.62m28.763 18.755c-1.765.138-6.187 2.385-11.03 4.344-8.177 3.306-15.745 2.533-26.75-.531-9.558-2.661-13.04-1.92-22.554 2.871-6.312 4.046-13.225 5.176-18.228 2.348-6.48-3.685-6.438-2.422-3.226 6.686.802 2.275-.784 9.161 2.039 10.751 2.145 1.208 4.622-2.816 6.281-3.375 1.659-.559 12.09 4.119 17.906-1.031 10.38-3.764 13.498 2.341 20.688 1.75 11.671-4.114 18.972-8.403 28.996-.457.597-2.976 2.928-19.224 6.66-23.07-.096-.223-.374-.313-.781-.281m-21.259 46.783c-8.399.1-12.946 5.259-23.776 4.272-8.649-.606-11.611 7.06-7.947 12.655 2.58 3.938 6.04 4.664 17.826-.741 4.85-2.223 11.591-7.112 15.531-6.719 11.533 1.153 14.322 12.299 4.719 21.719-4.673 2.751-4.717 5.731-3.29 5.786 3.797.146 11.483-4.39 13.228-9.677 4.781-14.479-3.812-27.555-16.29-27.3m37.678 66.71c-10.926 2.301-26.677 14.843-32.03 22.964-5.01 7.912-9.804 16.857-6.303 21.277 2.869 3.622 6.883 7.144 7.228 9.107.301 1.715-2.043 3.417-4.237 5.871-9.597 10.732-7.312 11.32 6.143 4.353 6.816-3.53 9.987-4.947 14.438-3.786 12.969 3.383 29.11.971 40.09-3.063 4.96-1.822 9.814-4.292 10.187-3.03-20.04 22.05-45.02 16.498-53.937 15.16-1.553-.405-2.754-.31-2.75.219 0 1.073 2.585 3.399 8.094 5.844 9.207 4.085 31.32-.258 45.16-10.344 27.349-17.892 42.43-34.987 20.875-27.844-9.886 3.277-13.59 2.704-25.594-2.719-17.993-8.128-31.78-10.512-46.688-5.313-18.881 6.585-4.4-8.979 16.844-22.469 4.602-2.927 5.177-6.274 2.482-6.223m-101.85 46.51l-6.296.094c-4.505-15.166-15.387-15.14-20.1.095l-5.26-.372c5.155-18.906 24.617-22.799 31.655.184m112 1.252l-4.73.215c-2.868-9.186-12.981-17.268-20.1-2.214l-3.283-.676c5.823-24.05 29.04-10.67 28.12 2.674m-31.544-13.816c2.946 0 3.693 3.346.344 8.781-2.359 3.828-5.159 3.481-7.969.594-2.537-2.537-2.384-2.987.375-5.5 2.939-2.677 5.483-3.876 7.25-3.875m34.844.094c1.279-.039 3.715 1.015 6.446 1.938 7.179 2.424 8.808 4.433 5.866 7.375-2.89 2.89-8.375 3.762-10.906 2.121-.116-3.614-3.693-6.395-3.817-10.02.0001-.973 1.131-1.372 2.411-1.411m-112.47.125c4.977-.228 11.652 2.718 11.165 5.594-.532 3.139-5.442 5.196-9.49 5.534-2.71.353-2.601-.743-3.311-2.67-.634-1.718-1.451-3.91-1.914-5.626-1.117-3.3 1.01-2.737 3.55-2.833m-34.04 1.091c0 0-2.788 8.298-4.04 11.128-10.416-.559-9.43-5.151-4.512-8.47 2.646-2.01 5.323-2.053 8.547-2.658m-8.08 19.722c1.884.034 4.225 1.664 7.5 2.719 9.223 2.971 24.548 2.634 36.5-.125 5.723-1.321 8.432-3.096 9.688-2.187 2.24 1.621-.078 7.273-8.344 10.906-10.766 3.971-27.19 6.125-39.625-.219-10.639-5.426-11.822-11.202-5.719-11.09m-2.844 11.875c9.756 6.444 19.521 8.476 31.589 7.357 18.07-.662 21.292-2.89 6.067 5.174-14.07 7.451-35.76 6.079-39.938-2-2.394-4.629-.847-10.143 2.281-10.531m87.56 10.813c-.065 0-.113.011-.156.031 1.458 9.749 17.829 18.673 25.688 20.781 16.672 7.395 43.18.073 63.12-8.531 14.568-6.283 19.823-15.765 2.469-10.375-27.922 8.672-62.973 9.327-80.53 2.594-5.708-2.705-9.621-4.542-10.599-4.5m-91.88 36.514c34.942 7.884 77.17 61.77 77.02 85.33h-11.286c-17.18-59.936-61.796-72.906-66.16-76.48-1.999-7.354.508-9.02.425-8.846m-.554 15.179c41.526 18.19 56.29 50.642 62.52 70.15h-12.14c-9.04-26.843-25.305-45.989-50.47-57.906-1.706-3.738.094-12.245.094-12.245m-.062 18.37c21.28 6.274 40.04 34.29 45.37 51.781l-10.625-.063c-7.53-19.521-18.201-32.04-35.16-39.25-.701-3.678-.559-7.838.406-12.469m-.344 19.03c9.992 2.01 26.91 17.54 29.344 32.75h-9.75c-3.439-10.252-14.07-19.619-19.517-23.44-.016-1.862-.077-9.31-.077-9.31m1.027 16.237c1.072-.67 15.988 12.764 13.473 16.513 0 0-9.284 0-13.438 0-.154-4.175-.25-16.556-.035-16.513" fill="#131f67"/>
    <path d="m6452.94-269.09c-25.326 49.05-155.27 269.97-156.59 277.66l33.28 14.718 161.56-291.25c0 0-33.479-1.089-38.25-1.125m381.47 184.5l-15.09 21.22 12.844 23.281 13.03-23.03zm-593.58 221.66c0 0-46.598 46.29-64.807 67.888 39.14 39.05 113.96 88.09 114.51 163.55l51.583.196 166.97 149.34c0 0 151.2 1.101 154.02.446 3.045-.708 56.765-77.61 56.765-77.61l95.81 69.852c0 0-4.595-75.23-8.215-121.33-1.185-30.833-2.205-49.797 20.332-63.44-30.969-14.761-29.01-41.897-6.237-61.825-7.514-10.386-18.739-12.305-20.427-49.13-4.74-5.082-9.228-8.06-15.16-12.375l-6.188 5.531c-19.88 17.847-33.425 36.05-35.656 47.906-4.246 22.56 18.663 38.01 31.906 21.531 3.733-4.645 7.06-3.344 7.06 2.719 0 12.301-15.474 19.247-28.563 12.844-3.058-1.496-5.759-2.491-6.03-2.219-.474.474 12.988 33.446 16.625 40.719 6.05 12.1 9.22 24.25 9.688 36.969.5 13.58.227 15.318-6.125 38.781-5.984 22.1-3.165 35.25 7.531 35.25 6.02 0 5.833 5.785-.25 7.906-12.93 4.507-20.951-5.02-21.406-25.375-.277-12.37-.49-12.674-6.844-9.688-22.11 10.392-46.12-8.185-35.719-27.625 2.186-4.084 4.769-2.796 6.125 3.03 2.545 10.935 8.274 15.758 18.625 15.719 23.862-.089 33.855-33.803 20.09-67.75-2.763-6.814-4.154-6.426-7.781 2.188-5.691 13.513-15.229 17.49-23.09 9.625-2.637-2.636-3.913-6.914-2.125-7.125.412-.049 3.038-.161 5.812-.25 13.902-.445 18.703-13.933 12.188-34.22-5.726-17.825-6.608-21.06-8.313-30.719-2.633-14.93-.796-26.26 6.594-40.75 1.306-2.559 9.458-11.669 19.594-21.906 10.347-10.452 19.25-18.469 19.25-18.469 0 0-5.234-4.512-12.331-9.844-14.95-11.231-17.594-13.165-17.594-13.165 0 0-71.05 195.09-66.02 271.1-9.02 100.15-82.64 72.44-88.06 3.084zm-3.17 29.25c24.284-.403 40.29 31.71 49.44 98.34 3.03 22.08 16.487 53 26.25 60.31 24.633 18.441 63.19 4.23 63.22-23.313.038-34.29-48.1-39.37-48.844-5.156-.175 8.06-4.314 8.484-8.281.813-3.539-6.843-.352-19.634 6.531-26.09 4.411-4.14 4.066-4.92-4.344-9.563-29.29-16.17-41.746-40.28-26.09-50.53 6.845-4.484 16.199 1.185 11.906 7.219-6.709 9.428-6.794 10.921-1.188 18.75 6.372 8.898 13.926 13.339 31.844 18.625 15.04 4.438 17.518 5.27 24.469 8.438 20.342 9.27 29.632 29.681 22.531 49.5-1.676 4.675-3.303 9.288-3.625 10.25-.729 2.175.466 2.187 14.781.281 22.782-3.03 48.09 5.106 60.56 19.469 6.703 7.721 12.08 25.08 12.25 39.563.033 2.789.891 9.09 1.938 14 1.046 4.911 2.434 13.212 3.063 18.438 5.961 49.57 47.23 74.923 65.06 39.969 11.222-21.997-14.729-44-27.938-23.688-4.639 7.135-9.423 3.854-6.75-4.625 5.194-16.477 25.769-19.279 39.781-5.406 7.576 7.502 11.209 24.517 7.531 35.31-1.931 5.666-1.728 6.03 2.469 4.563 9.416-3.282 25.692-.123 31.531 6.125 13.76 14.722 11 32.396-5.938 38.12-7.703 2.58-16.427-.102-19.281-9.125-1.253-6.432 3.174-8.283 6.594-2.75 6.405 10.364 20.355 2.01 17.06-10.219-3.746-13.913-15.639-16.867-37.594-9.313-34.9 12.01-46.17 11.01-62.875-5.594-11.928-11.851-16.414-22.09-19.625-44.688-3.547-24.953-3.886-25.599-10.06-20.344-29.535 25.13-68.55-12.846-43.531-37.813 7.736-7.736 13.431-.996 6.469 7.656-10.165 12.63 3.087 30.22 19.687 26.12 30.23-7.46 24.06-51.697-8.656-62.03-9.972-3.15-37.37-1.844-58.44 2.781-58.837 12.915-84.83-12.198-96.94-93.56-1.415-9.506-3.07-16.532-8.656-37-6.628-24.282-29.17-37.463-41.469-24.25-9.807 10.535-4.65 24.716 9 24.75 13.607.034 9.437 9.364-4.75 10.625-24.619 2.188-28.901-38.791-5.281-50.53 5.766-2.866 11.148-4.354 16.187-4.438m-321.29 15.13l7.632 29.16 30.422 8.594-9.646-27.748zm78.04 8.705l-8.169 26.388 23.06-5.656 7.522-27.522zm250.25 43.2c4.833 0 8.75 3.918 8.75 8.75 0 4.832-3.917 8.75-8.75 8.75-4.832 0-8.749-3.918-8.75-8.75 0-4.832 3.918-8.75 8.75-8.75m-293.26 15.746l-23.991 8.393-4.616 20.92 25.11-6.468zm57.23 6.612l-19.594-3.379 5.509 21.598 20.755 8.482zm850.75-1.654l-12.603 9.805c36.736 31.931-2.917 62.702-4.149 60.62 26.558 17.578 21.827 45.31 18.381 70.69-6.287 45.29-8.736 88.12-15.594 134.53 0 0 31.997 22.08 53.28 30.624.401.05.126-272.31.126-272.31zm-453.34 41.02c4.833 0 8.75 3.918 8.75 8.75 0 4.832-3.917 8.75-8.75 8.75-4.832 0-8.749-3.918-8.75-8.75 0-4.832 3.918-8.75 8.75-8.75m-537.14 22.394l1.097 254.15 52.61-94.07-36.2-41.753 31.29-33.403zm512.26 38.731c4.833 0 8.75 3.918 8.75 8.75 0 4.832-3.917 8.75-8.75 8.75-4.832 0-8.749-3.918-8.75-8.75 0-4.832 3.918-8.75 8.75-8.75m119.44 26c4.832 0 8.749 3.918 8.75 8.75 0 4.832-3.918 8.75-8.75 8.75-4.833 0-8.75-3.918-8.75-8.75 0-4.832 3.917-8.75 8.75-8.75m342.12 283.12l38.644 39.662-30.19 37.584 47.528 80.65-.766-249.53zm-974.31-83.47l1.835 273.35 41.32 30.14 10.479-9.895c-26.665-28.476-10.738-49.659 9.365-61.916-35.463-8.257-24.697-55.29-22.58-77.09-.867-40.465 13.963-86.64 9.397-125.54zm237.99 37.996l-59.22 82.51c0 0-65.08-49.29-97.89-71.53 3.512 35.607 6.712 81.03 11.07 119.33 10.642 55.924-17.06 56.889-17.317 62.24 44.03 33.415 7.08 64.67.451 63.1 23.449 12.768 21.518 51.56 21.518 51.56l11.12 6.29c0 0 3.621-2.205 5.156-3.03 11.892-6.398 31.28-29.2 35.719-44.25 7.529-25.513-14.629-46.707-28.563-27.313-6.845 9.527-12.329 3.156-6.719-7.813 5.12-10.01 18.489-15.04 27.375-10.281 5.168 2.766 4.01-4.41-3.969-24.5-2.677-6.74-4.854-14.09-8.625-29-3.647-14.421-2.23-31.807 4.094-49.5 9.115-25.51 5.882-41.51-8.719-42.906-7.791-.745-8.633-3.184-2.281-6.781 14.182-8.03 27.933 3.403 27.375 22.781-.302 10.48-.187 10.656 5.344 8.438 27.983-11.225 50.09 17.813 30.531 40.09-5.982 6.809-9.747 2.489-5.813-6.656 6.08-14.13.29-24.2-13.937-24.313-20.641-.156-32.07 28.359-23.938 59.719 2.538 9.787 2.929 9.911 9.781 3.375 6.083-5.802 10.63-7.66 15.344-6.25 9.771 2.923 12.333 13.319 2.969 12.03-16.09-2.213-20.32 14.643-11.219 44.625 12.08 39.779-.149 72.19-35.875 95.25-1.807 1.166-4.687 3.406-4.687 3.406 13.782 12.278 22.596 19.254 40.805 30.344l65.02-262.71c0 0-1.096-14.919-2.695-21.95-.052-70.52 65.739-77.27 86.33-13.242 1.977 6.148 12.441 21.846 12.441 21.846l342.52 303.95c0 0 63.945-61.795 63.07-63.43-48.578-48.961-114.19-83.58-116.58-161.26-11.641-.336-50.56.383-50.56.383l-166.55-152.76c-52.27.334-98.63-3.406-152.87-1.802m93.32 5.723c9.147-.288 18.374 4.466 18.375 12.09 0 6.582-4.41 8.089-8.06 2.75-5.105-7.463-11.03-8.06-17.06-1.719-16.716 17.571 9.258 33.631 39.12 24.19 18.291-5.783 27.15-7.343 33.844-6 28.22 5.661 41.843 24.699 44.25 61.781 1.224 18.855 1.188 18.786 9.344 11.313 19.85-18.19 48.534-8.07 53 18.719 1.917 11.495-10.457 25.969-22.22 25.969-4.613 0-3.881-4.816 1.094-7.188 11.963-5.704 12.434-24.567.813-31.938-15.428-9.784-35.752 5.476-35.5 26.656.302 25.46 19.318 37.19 56.875 35.03 5.5-.316 19.307-.965 30.656-1.438 17.939-.764 37.22-4.144 55.5 9.656 19.14 15.224 31.849 45.49 37.28 89.22 8.559 53.823 15.174 68.25 33.25 69.54 10.722.767 19.813-8.366 19.813-18.976 0-7.48-9.896-14.07-17.406-11.594-9.07 2.993-10.9-6.831-1.969-10.563 12.373-5.17 27.481 4.792 30.844 20.344 1.96 9.06-8.269 26.451-18.998 30.789-27.986 11.316-47.887-11.802-54.44-63.54-4.02-23.727-6.227-39.722-13.625-60-13.578-37.32-35.889-52.727-60.19-41.563-27.515 12.642-22.06 53.835 7.094 53.53 16.01 1.267 19.368-10.5 19.699-23.1.376-9.293 10.908-.569 11.81 5.828.864 7.76-6.092 17.362-12.233 21.904-9.923 6.643-6.393 6.227 3.755 8.899 27.28 5.03 47.564 41.13 31.25 53.39-8.476 5.169-17.482-2.44-11.604-9.911 9.343-11.878-6.47-30.645-35.25-36.95-37.699-8.259-52.709-36.32-39.11-65.16 4.498-9.541 4.889-9.319-13.5-8.281-40.46 2.284-54.825-3.308-68.41-26.75-4.098-7.07-5.908-16.541-6.781-35.34-1.562-33.664-4.631-54.51-8.875-60.37-21.01-29.06-64.715-20.363-59.25 11.781 2.871 16.879 20.31 22.291 32.22 10 8.994-9.283 13.189-.658 4.406 9.06-21.13 23.384-57.893-3.913-46.969-34.875 2.5-7.087 2.836-6.86-10.719-7.25-30.15-.868-44.499-26.667-25.06-45.03 3.404-3.216 8.146-4.756 12.938-4.906m72.75 110.75c4.832 0 8.75 3.918 8.75 8.75 0 4.832-3.918 8.75-8.75 8.75-4.833 0-8.75-3.918-8.75-8.75 0-4.832 3.917-8.75 8.75-8.75m121.22 31.06c4.833 0 8.75 3.918 8.75 8.75 0 4.832-3.917 8.75-8.75 8.75-4.833 0-8.75-3.918-8.75-8.75 0-4.832 3.917-8.75 8.75-8.75m-26.03 57.09c4.833 0 8.75 3.918 8.75 8.75 0 4.832-3.917 8.75-8.75 8.75-4.832 0-8.75-3.918-8.75-8.75 0-4.832 3.918-8.75 8.75-8.75m385.22 34.03l5.545 25.881 20.08 5.285-3.135-22.18zm70.25 8.958l-.434 15.347 17.864 2.102 6.319-26.456zm-299.91 23.17c4.832 0 8.75 3.918 8.75 8.75 0 4.832-3.918 8.75-8.75 8.75-4.833 0-8.75-3.918-8.75-8.75 0-4.832 3.917-8.75 8.75-8.75m256.55 35.647l-21 5.826-10.09 29.16 26.884-9.732zm41.08 2.625l2.571 21.607 25.87 11.692-8.75-30.799zm-381.33 184.19l-160.61 290.36 43.889-.61 151.59-273.79zm-505.14 70.29l-14.188 19.09 13.469 22.16 15.469-22.25z" fill="#d40000"/>
   </g>
   <path transform="matrix(.99994-.0111.0111.99994-3051.62-485.62)" d="m1362-139.91c-19.782.088-39.636 13.403-45.22 39.31-1.247 5.786-1.733 15.787-2.156 43.781-.627 41.479-1.031 38.12-1.031 38.12l-17.781-.438.938 23.09 18.969.156c-.091.108-.412 1.358.187 14.406 1.496 32.52 6.572 44.07 25 52.813 12.463 5.911 35.502 5.878 45.938-2.313 6.313-4 6.946-3.971 14.437.656 15.938 9.843 29.06 4.5 29.06 4.5l-.438-23.625c-25.11-.384-28.453-6.332-21.875-22.656.46-1.141.522-3.271.719-6.06 1.851-26.304 1.105-114.97-1.813-125.53-6.576-23.807-26.354-36.3-44.938-36.22m-2.156 23.25c9.04.049 18.253 6.153 22.437 17.531 4.427 12.03 4.367 10.99 5.656 85.09.635 36.478-.895 36.33-.895 36.33-14.01-18.557-31.72-32.24-51.12-38.671 0 0 .364 1.721 0-34.23-.376-37.13.073-45.12 5.604-54.804 4.382-7.675 11.284-11.288 18.313-11.25m449.69 72.05c29.573 89.66 32.32 178.02 6.656 262.92 14.621.742 78.41 17.1 113.53 38.772-6.499 16.712-106.05 139.14-173.62 194.32 19.21 19.02 40.35 38.04 62.56 59 33.601 31.881 45.47 53.835 47.688 95.22-.302 19.982-7.463 44.64-20.19 62.09-9.62 13.196-19.831 23.339-40.31 36.906-18.897 12.516-46.516 39.448-81.25 79.16-13.239 15.14-35.588 42.708-54.09 69-7 9.557-27.621 39.38-27.621 39.38-68.778-56.12-142.43-99.41-144.32-99.08 0 0 74.31-39.602 89.94-47.674 12.01 7.704 28.314 1.113 20.486-15.841-15.04-38.588-4.551-78.3 13.92-106.03 4.423-6.682 15.08-10.579 32.31-11.781 7.482-.488 15.388-.245 23.312-.344 2.858 0 10.56 1.101 14.781 3.406 14.05 7.67 16.863-2.194 25.625-35.406 8.717-33.04-5.311-74.833-25.313-74.969-4.701-.032-7.341 1.702-6.372 13.459.731 8.875-1.403 13.475-3.69 19.07-4.988 12.211-7.639 24.16-9.223 40.09 2.921.591-18.571-21.384-52.43-30.09-22-2.604-33.18-30-32.25-30.06 0 0 3.295-7.421 6.188-10.313 7.517 3.595 14.9 7.821 23.812 10.438 0 0-2.053-11.01-2.844-13.969-4.088-15.307-3.868-17.636 2.031-20.813 14.626-7.876 16.17-21.965 4.75-34.781-2.883-3.278-5.312-5.381-9.188-7.03l7.219-28.75c0 0-6.613 1.423-11.906 3.03-15.305 4.649-14.163 4.806-20.688-2.625-14.199-16.17-35.885-13.1-39.12 5.563-.358 2.063-1.312 5.344-1.312 5.344l-32.645-15.841c.953 7.656 9.432 33.591 9.432 33.591-28.563 22.19-4.424 41.836 3.367 43.911 0 0-6.672 21.233-8.967 30.06l32.21-9.207c2.707 6.136 6.04 10.796 12.743 15.09 1.748 18.12 15.713 32.734 25.335 41.526 0 0 1.387 6.629.551 10.868-2.079 10.537 8.631 27.22 10.445 28.22-44.21-18.08-90.3-39.785-134.79-61.1l2.781 546.84c0 0 10.359 9.281 30.906 24 9.871 7.07 9.868 7.099 7.812 15.25-2.71 10.746-2.04 18.948 7.125 89.69 4.856 37.41 10.141 76.21 14.875 111 1.878 12.673 2.14 20.804 2.14 20.804-9.821-4.548-24.12-5.01-31.515 3.29-12.753 14.524-2.547 37.906 16.344 37.41 4.293-.262 7.207-1.508 10.906-4.03 2.561-1.372 5.199-.175 5.199-.175l-28.19 49.53 32.454 54.64 32.374-58.43-23.543-46.22c0 0 2.296-.258 5.488 1.345 3.164 1.589 7.419 2.798 10.375 2.969 16.426.125 19.797-7.364 21.531-20.844 0-17.349-13.81-25.19-32.813-18.656-2.983 1.027-6.281 1.313-6.281 1.313l19.938-190.72 10.688 7.844 3.5-1.906-9.344-7.969c2.026-30.559-8.05-41.38-18.941-48.78 36.413-20.711 20.63-53.45-3.582-63.53 0 0 15.733-9.19 18.886-18.836 2.684-8.622 1.681-22.291-1.363-46.539-2.276-37.38-10.312-114.62-10.312-114.62 31.814 23.984 64.47 49.654 95.19 73.906l61.56-85.56 148.37 1.031c0 0 112.77 102.39 169.53 154.59l49 .438c0 0 .539 5.24 1.031 8.719 4.645 50.556 38.558 85.28 69.44 109.62 12.587 11.305 43.687 41 43.687 41l-57.656 58.12-353.06-315.34c0 0-1.69-4.601-2.375-7.406-8.154-33.399-30.28-47.39-50.41-45.03-21.11 2.471-39.12 23.266-38.22 58.656.14 5.475 2.125 15.12 2.125 15.12l-64.5 268.66c0 0-25.793-19.689-39.719-29.16l-3.063 1.781 37.75 28.375 2.813-1.219 10.719 8.375.813 5.719c33.03 22.469 89.03 64.41 89.03 64.41 26.436-19.644 54.23-13.08 82.06-5.688 0 0 20.236 6.764 31 6.719 54.694 1.229 103.13 11.854 153.97 30.22l-185.31 328.5 353 .719c-17.401-68.756-35.886-138.6-2.844-255.87-34.814-7.03-112.22-38-112.22-38 0 0-.368-1.76 2.906-5.781 14.308-20.463 50.49-75.927 84.41-108 4.131-2.955 63.24-60.31 63.813-62.12.323-1.018 1.743-4.887 4.063-6.406 5.448-3.639 19.93-17.327 19.93-17.327l-73.97-64.14c0 0-3.251-.314-4.304-.903-10.327-5.776-28.971-37.996-33.562-59.57-10.562-49.618 8.941-88.85 63.969-129.12 53.726-36.789 155.6-179.59 155.94-182.75 54.934 45.48 97.82 69.02 146.15 98.85-29.2 16.747-53 27.947-73.43 39.02-13.257 7.562-15.08 9.142-26.28 5.969-12.691.103-17.03 4.996-13.813 15.938 19.21 30.355 10.964 101.03-15.01 114.65-22.547 11.824-44.47 8.622-62.58 1.916-13.982-4.479-13.798-4.526-20.03 8.156-13.714 29.21-14.595 53.804-1.938 81.81 10.386 22.487 25.821 32.736 27.723 2.42 1.117-17.802 8.961-38.607 8.714-57.732 15.746 17.383 26.19 25.328 52.03 32.406 17.334 2.697 35.746 24.44 35.17 33.3-4.76 4.806-6.208 10.946-6.979 10.509-8.443-2.757-26.726-10.533-26.726-10.533l7.781 27.5c0 0-1.284 1.245-5.03 3.156-17.207 8.779-16.1 32.51 1.969 42 3.678 1.933 3.941 2.841 2.375 7.906-2.244 11.278-7.178 18.853-9.844 30.03 0 0 2.458.09 23.06-9.438l8.094-3.75 4.875 5.219c10.673 11.41 23.495 11.343 34.688-.188l5.125-5.281 14.312 7.25c13.486 6.836 17.03 8.25 17.03 8.25 0 0-7.777-30.17-9.219-33.625-.78-1.865-2.37-3.758-3.531-4.187-1.923-.712-1.618-1.163 3.5-5.219 12.973-10.281 14.275-24.468 3.219-35.25-4.215-4.111-4.75-4.969-4.75-4.969l6.719-27.969-27.862 9.229c-4.396-9.353-11.384-13.608-15.795-15.512-.472-12.62-2.056-25.594-23.744-45.32 7.307-6.675-1.383-22.76-8.541-32.406 12.201 4.096 42.714 17 42.714 17l4.607-.187 14.569 6.984 1.709 2.59c0 0 45.829 21.627 66.875 31.748-.053-1.131-.22-23.769-.281-272.97-.037-148.58.208-270.78-.094-271.56-.3-.783-5.334-4.647-10.562-8.594-9.648-7.283-11.624-8.703-23.875-16.875-9.831-6.557-9.168-6.505-7.125-14.06 2.346-8.68 2.295-20.615-.813-42.969-2.294-16.503-10.612-74.54-16.406-121.37-4.065-32.858-5.03-40.15-6.03-45.44-1.612-13.308.117-19.1-.174-19.299 46.02 19.933 49.658-46.17 3.519-37.25 8.827-17.803 16.263-26.07 23.827-45.08-9.622-20.717-30.922-55.748-30.922-55.748l-33.719 58.719 19.844 40.625c-22.828-4.112-34.942 12.505-30.719 27.406 4.591 13.18 17.227 16.875 28.375 11.563 8.588-3.385 8.577-4.245.969 60.16-2.25 19.04-12.249 108.09-13.625 121.34-.925 8.901-1.499 11.371-5.125 9.406-4.914-2.112-7.724-5.195-12.656-8.438l-2.75 2.563c4.38 3.551 9.569 8.146 14.871 13.02-1.214 23.584-.735 37.25 18.897 48.755-35.584 22.305-14.778 56.619 6.121 61.58-12.456 3.217-24.74 19.242-21.764 51.08l10.09 131.22-96.47-71.62-56.625 81.03-149.19.188-168.28-151.84c0 0-36.892-.504-52.03-.875 1.716-.799-3.177-46.938-27.531-77.06-26.473-31.473-86.73-83.42-86.69-83.44l63.28-64.25 355.28 319.78c0 0 1.719 9.06 2.625 12.906 11.877 50.49 69.32 53.55 81.53 2.125 1.974-8.308 4.352-27.638 3.469-29.938-.284-.74 1.502-9.171 3.969-18.75 19.1-74.905 35.37-139.52 54.16-211.44 2.591-9.9 5.336-20.925 6.094-24.5 3.095-14.592 2.634-14.5 17.906-3 9.351 7.04 13.219 9.563 13.219 9.563l2.969-3.094c-10.488-8.118-28.438-21.06-28.438-21.06l.188-5.5c-57.684-41.31-69.57-52.27-103.72-79.34-26.464 23.306-64.31 13.866-88.03 5.625-6.111-2.403-21.12-6.313-21.12-6.313-59.08.076-110.98-11.327-160-27.344l189-336.56-72.998.005-2.55 2.862h-37.983l-.126-2.86zm697 1106.92c.0001.207.031 0 .031 0zm-481.56-1099.31l25.844.5-152.94 272.87-16.25-6.344c0 0 1.489-.781 1.469-12.281-.022-12.343-2.691-17.618-8.25-24.906-4.656-6.308-6.64-6.656 7-4.781 27.888 3.833 47.702-26.485 36.625-50.16-4.274-9.132-3.673-9.686 7.625-10.813 31.1-3.1 43.2-42.557 21.19-62.22-4.55-4.118-2.519-6.738 5.969-4.906 26.909 5.806 47.752-24.03 37.06-47.41-3.481-6.521-.351-7.604 4.563-8.25 23.04-5.402 30.875-23.493 30.09-41.31m-206.13.031l119.72.031c-16.11 24.639 12.334 39.23 15.938 37.5-25.81 14.1-18.725 33.965-5.337 40.792 12.988 6.623 32.47.663 27.27-28.01l6.406-2.781c6.228 7.04 12.409 50.701-35.09 44.625-8.457-1.082-13.04 6.814-5.969 11.188 37.535 43.16-21.22 62.22-23.781 55.06l-.196-7.304c15.889 2.924 36.22-17.554 18.395-35.755-10.136-10.348-39.539-5.305-34.505 26.1-17.368-25.94-36.32-18.11-41.43-4.41-3.961 10.626 1.077 25.17 18.399 27.643-19.344 16.206-9.95 34.29 3.347 38.28 14.679 4.408 29.668-1.573 25.62-28.24.23-2.526 5.355-1.703 5.781-1.844 15.176 37.87-21.1 51.783-40.687 43.969-7.256-2.824-11.05 8.364-3.344 14.06 11.697 8.646 8.08 33.535 6.715 33.784-21.751-8.25-52.916-14.351-51.752-13.887 20.782-82.19 19.437-165.76-5.494-250.8m190.87.031l10.812.031c.143 15.478-6.58 34.532-33 37.469.118-4.15-.182-8.08-1.25-12.469 9.908-2.244 23.06.507 23.438-25.03m47.22.844l34.531.156-162.47 288.37-25.969-13.344zm-85.19 21.875c6.102 0 11.06 4.929 11.06 11.03 0 6.102-4.961 11.06-11.06 11.06-6.102 0-11.03-4.961-11.03-11.06 0-6.102 4.929-11.03 11.03-11.03m-338.69 5.063c-26.03 67.43-76.08 108.29-112.5 176.12-38.03 68.962-20.621 128.36 33.09 139.37 28.321 5.81 61.42-21.771 65.66-51.75 1.01-7.155 2.262-9.188 5.625-9.188 4.919 0 4.362 12.487 1.25 29.406-7.487 44.869-22.894 72.17-34.625 88.91l93.28-.781c-18.954-22.784-33.501-53.5-36.625-91.44-2.292-20.627-.605-29.691 6-26.16 2.172 1.163 2.725 3.213 3.687 13.875 3.382 36.985 42.12 57.14 73.41 40.875 43.19-22.856 42.02-65.58 32.09-96.72-29.853-81.48-95.77-135.07-130.34-212.53m-285.07 25.526c11.212 9.497 22.321 20.231 29.968 29.739-10.742 7.689-22.04 8.155-28.976 4.325-7.801-4.309-11.182-14.306-11.92-31.11-.41-9.325 2.877-9.755 10.928-2.949m13.473 89.16c.319-.08-16.881 35.12-29.5 54.06-9 16.641-31.2 45.64-25.25 68.844 6.879 24.13 32.658 30.29 46.37 11.719 6.43-8.704 7.806-7.666 7.625 2.063-.157 18.602-10.03 29.17-17.25 38.31l47.12.344c-9.987-11.998-18.968-21.965-20-38.25.028-6.13 1.847-10.585 6.156-3.969 4.855 4.732 8.986 13.437 22.25 11 13.755-2.455 25.758-20.309 23-37.625-3.695-20.12-16.268-39.887-28.906-56.844-10.548-14.15-32.02-48.949-31.625-49.656m541.03 6c5.649 0 10.219 4.57 10.219 10.219 0 5.649-4.57 10.25-10.219 10.25-5.649 0-10.219-4.601-10.219-10.25 0-5.649 4.57-10.219 10.219-10.219m534.84 8.156l27.5 47.875-31.375 55.56-26.19-53.25zm-.5 16.313l-19.344 31.938 17.563 32.719 19.969-31.09zm.375 13.688l10 19.313-12.156 19.594-10.09-20.719zm-26.656 64.875c2.079.006 4.303.449 6.594 1.406 18.526 7.74 12.622 35.902-7.156 34.16-2.611-.273-6.04-1.601-8.531-3.281-13.721-11.254-5.462-32.32 9.09-32.28m45.28.531c16.202.293 25.964 22.833 8.906 33.375-8.23 4.582-20.535 1.802-25.375-6.344-4.154-6.99-2.359-18.643 6.938-24.688 3.314-1.691 6.53-2.398 9.531-2.344m-22.5 32.16c1.617.136 3.379 8 5 21.656.587 4.95 2.165 17.325 3.5 27.5 2.549 21.759 5.179 42.02 7.437 63 .445 4.125 1.561 12.9 2.469 19.5 9.371 68.13 11.495 89.89 9.281 95.69-5.913 20.315-33.635 21.867-45.22 10.06-8.755-8.921-10.04-18.719-6.594-44.25 1.991-14.742 2.81-22.16 8.656-78.5 1.37-13.2 3.348-30.75 4.406-39 2.319-22.04 5.059-42.703 8.06-64.44.865-7.775 1.893-11.312 3-11.219m-454.03 50.625c0 0 88.8 29.26 156.34 27.938 9.917-.008 11.527-.094 23.875 3.938 7.322 2.39 18.843 5.631 25.594 7.188 20.828 4.03 39.13 2.894 55.34-3.719 2.547-1.039 6.289-4.171 10.06-3.03 2.303.695 5.656 5.281 5.656 5.281-59.15 15.704-197.52 12.807-283.66-23.5zm456.19 9.313c-.368.061-.754.565-1.188 1.25-1.447 2.285-.251 17.279 5.125 64.969 10.27 91.1 10.228 93.05-2.219 102.62-6.118 4.707-7.07 6.6-4.125 8.313 2.189 1.275 2.01 1.269 6.469.031 10.471-2.908 14.805-11.218 14.719-28.19-.065-12.935-.217-14.495-4.25-46.28-1.395-11-3.302-26.525-4.25-34.5-6.74-56.75-8.294-68.55-10.281-68.22m-465.12 9.531c88.4 31.655 180.76 40.619 292.09 23.531 0 0 10.703 6.936 16.09 10.344l-3.75.875 1.688 15.375 18.906-3.03c0 0 10.226 8.132 17.844 13.12-99.27 30.31-259.6 25.09-358.5-18.875-3.763-2.17-5.969-3.906-5.969-3.906 2.134-5.242 4.714-8.357 7.344-11.281l18.06 5.156 5.219-16.469-13.812-5.03zm23.16 19.719l-5.781 16.219 25.25 7.5 4.313-16.563zm38.625 10.03l-3.344 18.469 25.344 4.688 3.156-17.969zm41.938 8.656l-2 17.813 26.875 2.844 1.656-18.03zm184.72.281l-22.875 2.5 1.438 15.688 23.12-2.719zm-40.34 4.531l-22.688 1.5.781 16.438 22.813-1.438zm-102.22.344l-.031 17.469 23.25.875.281-17.844zm63.938 2.188l-21.438.094-.094 16.625 21.656.094zm-248.56 2.938c2.311-.069 7.597 5.079 9.781 10.844 4.296 11.336 2.325 23.902-4.406 28.06-9.162 5.662-19.928-3.205-13.625-11.219 1.114-1.417 2.908-2.841 4-3.188 4.711-1.495 5.811-8.913 3.25-21.75-.379-1.898.096-2.723 1-2.75m34.28 4.344c95.69 31.33 204.26 41.848 316.12 18.938 0 0-53.01 216.49-54.16 216.59zm-46.906.656c5.04 0 5.951 8.55 1.406 13.09-5.802 5.802-16.871 1.147-14.562-6.125.671-2.113 9.83-6.969 13.156-6.969m27.5 5.03c1.043-.077 3.02 1.996 6.156 6.219 10.749 14.469 11.59 30.635 1.969 38-11.28 8.635-19.526-4.765-10.125-16.469 2.435-3.03 2.793-8.632 1.344-21.03-.517-4.416-.387-6.642.656-6.719m371.03 5.219c1.235-.041 3.425.914 7.813 3.063 6.858 3.359 9.239 8.273 5.937 12.25-4.797 5.78-17.945-5.667-15.469-13.469.377-1.187.759-1.812 1.719-1.844m-10.312 7.531c1.719.171 4.469 3.32 7.656 9.719 2.047 4.11 3.236 5.285 6.688 6.531 8.182 2.954 9.7 11.428 2.5 13.938-7.818 2.725-13.642-2.894-17.219-16.625-2.359-9.06-1.836-13.782.375-13.563m-342.28 6.06c1.187-.072 3.459 2.589 7.06 7.906 10.695 15.784 7.01 46.08-6.469 53.16-5.941 3.118-10.08 2.453-14.844-2.313-6.966-6.966-5.251-12.476 5.094-16.281 8.807-3.239 11.654-13.261 8.938-31.5-1.086-7.288-1.126-10.887.219-10.969m50.938 5c65.35 53.885 124.34 111.65 200.37 179.09 18.06-55.56 44.38-170.9 44.47-171.28-2.874 2.37-127.73 20.08-244.84-7.813m244.84 7.813c.06-.049.079-.089.031-.125 0 0-.031.124-.031.125m40.531-7.656c1.088 0 4.238 8.105 6.03 15.5 1.626 6.7 8.097 17.921 10.594 18.344 12.877 2.179 18.361 9.358 12 15.719-4.671 4.671-14.783 2.024-19.656-5.125-9.16-13.435-15.412-44.44-8.969-44.44m-729.12 7.438c7.771.063 15.238 4.961 17.12 15.06 2.196 11.754-4.449 20.302-10.07 18.933-6.109-2.284-8.187-11.962-8.187-11.962 0 0-1.453 7.891-3.96 11.873-5.479 8.362-17-4.054-14.937-16.09 2.01-11.756 11.225-17.884 20.03-17.813m465.09 3.094c71.16 10.692 132.39 13.464 217.28 4.25l-40 155.31zm-53.75.25c1.054.069 3.218 1.962 6.594 5.531 11.06 11.693 14.249 27.918 7.06 35.969-4.374 4.9-7.319 5.465-11.969 2.281-5.939-4.067-6.386-10.183-.937-13 5.01-2.59 5.461-8.279 1.5-19.06-2.954-8.04-3.792-11.819-2.25-11.719m-464.25 4l26 10.781 9.312 21.969-25.937-6.688zm98.31 2.906l-7.719 21.875-20 7.469 7.781-23.656zm678.22 4.594c.962-.015 2.391 2.753 4.125 8.469 4.294 14.15 6.114 17.726 10.03 19.594 6.381 3.043 6.845 10.782.813 13.531-3.829 1.744-5.086 1.386-7.813-2.188-4.245-5.566-7.662-16.221-8.281-25.781-.581-8.962-.112-13.606 1.125-13.625m-289.44 9.875c.753-.052 1.862 1.053 3.5 3 10.1 12.01 11.201 30.422 2.156 35.938-8.76 5.341-21.01-5.679-13.375-12.03.687-.572 2.269-1.85 3.531-2.813 2.127-1.622 2.309-2.569 2.5-13 .142-7.746.432-11.01 1.688-11.09m76.74 1.279l124.47 113.12 28.577-111.9c-49.16 4.414-100.53 3.103-153.05-1.218m-305.77 5.689c39.33 41.523 90.78 75.09 103 116.37 21.906 56.836 5.843 122.77-45.44 160.5-28.31 21.419-56.05 43.964-79.12 71.19-37.867 40.31-63.14 84.36-88.44 116.31-4.288 5.372-15.594 22.281-15.594 22.281 0 0-5.535 6.326-24.03-9.188-49.07-43.635-100.57-75.29-153-105.44l22.19-12.406c43.769 24.955 98.18 60.48 147.13 101.87 0 0 38.92-56.836 51.34-73.12 18.01-23.373 30.664-38.426 47.44-56.5 42.836-52.885 87.07-70.38 105.47-97.16 26.958-39.23 28.11-85.74 5.937-125.44-21.868-37.882-64.39-63.855-92.62-95.22zm373.25 3.063h48.656c0 0-7.146 5.961-12.625 9.625-3.437 2.298-7.454 1.983-15.03-1.188-7.359-3.079-21-8.438-21-8.438m55.719 0l11.344.344c-8.482 10.654-17.18 17.526-28.563 27-1.472.633-2.293.893-5.719-.219-23.256-7.694-44.6-17.471-67.25-26.719l20.19-.094c0 0 9.715 3.103 24.313 9.156 16.738 6.941 21.07 9.08 27.531 4.844 6.225-4.141 11.378-10.372 18.16-14.313m22.969 0l-4.063 14.906c-6.786 8.475-20.509 18.244-31.969 27.875-2.687 1.402-2.597 1.656-14.344-2.906-43.25-16.796-64.16-27.719-64.16-27.719l-8.781-7.844c0 0 11.278 3.226 18.719 6.156 5.076 1.999 13.718 5.28 19.219 7.313 5.5 2.033 17.664 7.202 25.781 10.406 18.72 7.388 17.685 7.615 35.625-8.219 19.427-17.15 23.969-19.969 23.969-19.969m-655.22 1.375l18.875 21.625-25.16 21.16-19-22.375zm716.17.022c4.34 8.123 7.254 17.731 14.299 24.571 5.306 5.059 6.628 8.962 3.478 11.813-8.209 5.076-9.625-3.121-12.169-8.476-4.474-9.434-9.936-22.19-5.608-27.908m-682.54 2.165c.479-.015.969-.008 1.469 0 20.13.304 24.879 30.05 5.937 37.19-6.789 2.559-14.603 1.397-18.812-2.813-4.085-4.084-4.658-7.537-1.855-9.678 4.366-3.105 14.76-3.316 14.76-3.316 0 0-9.436-3.2-13.64-5.556-8.274-4.715-1.107-15.297 12.141-15.825m414.41.031c1.139.063 3.096 2.379 5.875 6.969 10.154 16.769 9.62 48.674-.969 56.75-5.505 4.199-12.363 3.598-16.969-1.5-6.072-6.721-4.205-13.512 4.812-17.5 8.706-3.85 10.48-12.452 6.938-33.719-1.236-7.413-1.151-11.08.312-11m-488.41.531c6.01-.212 11.805 2.136 14.688 6.875 2.13 3.501 1.097 6.076-2.924 7.823-4.891 1.934-14.172 3.685-14.172 3.685 0 0 9 1.481 14.438 3.689 6.811 3 6.28 8.521-3.69 13.259-19.2 9.122-37.33-15.804-21.495-30.11 3.688-3.332 8.482-5.05 13.156-5.219m504.81 12.03c.142-.023.297-.021.469 0 1.763.216 5.01 2.767 8.281 7.094 11.445 15.16 13.432 37.935 3.688 42.37-10.292 4.689-17.695-4.982-10.281-13.438 5.249-5.988 4.597-14.749-2.375-32.09-1.015-2.523-.775-3.777.219-3.938m247.16.719c.902-.069 2.544 3.577 5.187 10.938 5.819 16.204 10.794 23 16.781 23 7.525 0 11.467 10.311 5.531 14.469-11.728 8.214-27.09-11.912-28.22-37-.338-7.538-.184-11.337.719-11.406m-62 8.094l-3.469 13.219c0 0-7.997 7.775-13.719 12.719-9.09 7.852-11.324 9.413-18.5 6.969-11.04-3.811-21.968-7.265-33.469-10.75l-26.594-22 60.687 23.688c0 0 5.261 1.55 7.094-.281 7.948-7.941 16.676-14.1 27.969-23.563m57.25 12.375c.761-.173 1.528.798 2.062 3.219 2.749 12.45 6.737 21.472 10.09 22.875 4.254 1.777 5.884 5.463 4.094 9.219-5.165 10.831-18.75-8.298-18.75-26.406 0-5.139 1.23-8.618 2.5-8.906m-219.03.875c.74-.045 1.937 1.062 3.813 2.938 8.39 8.39 10.927 31.573 4.188 38.31-9.739 9.739-20.14-4.737-10.688-14.875 2.5-2.681 2.504-2.871 1.906-14.75-.416-8.271-.452-11.549.781-11.625m-508.37 2.312l-6.563 21.75-20.969 5.406 4.906-17.906zm25.12 2.219c1.664-.067 3.549.564 5.531 2 8.543 6.188 9.244 16.762 5.25 24.563-3.82 7.618-11.631 9.801-19.19 9.03-9.803-1.09-17.203-7.921-16.687-18.375.171-5.24 2.456-11.05 6-13.531 2.495-1.748 4.542-1.03 6.704 2.555 2.01 3.508 5.455 11.446 5.455 11.446 0 0 .112-8.147 1.266-12.338.941-3.336 3.02-5.243 5.668-5.35m16 1.906l15.188 5.188 6 20.625-17-6.594zm865.94 3.848c0 0 4.358 1.842 25.09 18.308 5.186 4.118 13.937 12 13.937 12l-.5 269.16c0 0-40.891-22.1-46.19-27.344-2.824-3.02-1.461-11.467-.469-26.813 4.81-40.31 6.764-71.2 11.938-108.5 3.617-41.577 11.608-53.52-16.226-71.15 29.959-18.809 21.503-48.07 2.703-60.26zm-244.25 1.027l-2.75 12.313c-9.86 16.877-18.688 16.01-33.781 8.188l-18.12-15.406c11.728 2.444 18.04 6.201 29.5 9.813 5.691 1.573 7.775.562 11.781-3.03 4.605-4.191 8.07-7.322 13.375-11.875m-134.37 6.469c6.144 6.704 7.745 13.308 7.219 29.625-1.182 11.605-.664 20.245-10.188 26.75-4.651 3.048-12.689 3.054-16.281.031-8.618-5.771-3.867-17.313 7.427-17.878 7.124-.126 10.06-23.417 6.01-37.966-.628-2.258-.466-3.74.653-3.846 1.119-.106 3.205 1.152 5.159 3.284m192.59-.875c1.385-.015 3.829 3.531 5.281 9.313 2.104 8.375 5.06 13.08 9.688 15.438 5.937 3.03 7.856 8.849 4.063 12.281-7.553 6.836-15.273-1.362-17.75-18.844-.116-1.986-3.584-18-1.281-18.19m162.12 2.875c16.842.262 26.373 12.05 26.351 26.337-.184 10.3-5.811 20.772-16.17 25.12-24.738 7.282-38.24-9.278-38.01-25.387.189-12.999 10.987-26.331 27.828-26.07m-340 9.344c14.168 14.168 14.802 44.47.937 44.47-16.635-5.507-3.658-15.324-3.34-17.875 1.3-10.437-1.096-17.13-3.535-26.875-1.075-5.764 4.378-1.407 5.938.281m340.91-1.375c-2.972-.089-2.759 2.901 2.688 7.594 9.876 8.509 5.04 24.21-7.469 24.281-5.773.031-7.186 3.918-2.156 5.938 19.429 7.803 32.692-21.731 15.281-34.03-3.636-2.568-6.56-3.728-8.344-3.781m-742.99 3.967c15.633 5.329 21.03 35.12 21.619 45.626.703 18.285-7.811 48.18-15.406 54.16-19.665 15.468-28.884-39.21-12.06-74.41 1.473-2.886 3.314-6.783 2.625-13.969-.684-7.131.52-11.355 3.225-11.408m516.65 2.876c0 0-1.969 8.93-4.062 13.813-2.423 5.65-4.204 5.828-9.844 1-3.14-2.688-8.344-8.25-8.344-8.25 4.909.768 9.299 3.313 13.469 1.25 4.449-2.201 8.04-6.329 8.781-7.813m59.34.469c1.11.038 2.526 3.149 4.406 9.313 5.147 16.871 9.648 23.22 16.469 23.22 11.174 0 13.609 13.454 3.063 16.906-3.909 1.279-5.225 1.269-10.219-.063-7.524-2.01-17.816-27.392-16.344-40.31.693-6.076 1.515-9.1 2.625-9.06m-688.12 9.813c4.102-.099 5.715 1.921 8.125 6.906 2.744 5.674 9.942 12.889 16.03 16.03 14.68 7.216 30.15 12.854 44.656 20.09 18.812 9.451 35.669 38.39 24.12 41.41-4.184.965-9 1.016-13.281.625-1.399-.733-4.127-3.895-6.06-7.06-8.58-14.04-24.627-27.789-49.37-34.22-17.448-4.533-33.08-26.02-36.438-36.12-.87-2.616-.91-4.668 1.438-5.344 4.964-1.428 8.32-2.253 10.781-2.313m530.5 1.75c.779-.128 1.925.868 3.656 2.719 10.386 11.1 11.675 31.483 2.344 37.25-10.115 6.251-18.971-4.087-11.03-12.875 3.5-3.874 3.5-3.871 3.5-15.5 0-8.01.234-11.381 1.531-11.594m151.19 12.938c1.246.05 3.116 3.497 5.375 10.281 3.206 9.628 3.644 10.386 7.313 12.281 6.204 3.205 7.21 8.01 2.656 12.563-8.488 8.488-17.04-5.173-17.06-27.25-.0001-5.308.619-7.919 1.719-7.875m-135.76 1.526c.772.074 2.927 1.767 4.604 3.755 12.723 15.09 10.163 50.42-4.03 55.719-4.74 1.77-6.182 1.867-9.125.594-10.581-4.578-9.291-15.75 3.75-22.844 9.752-5.304 2.801-37.09 4.802-37.22m-650.52 11.13l52.53 26.06c0 0 14.399 30.32 21.03 41.688 4.551 7.883 13.659 15.492 4.25 20.75-15.805 10.713-24.766 16.815-24.625 23.469.115 5.383 6.806 10.87 15.812 21.469 12.936 15.223 12.809 11.717 1.063 34.938-9 16.285-16.656 53.16-16.656 53.16l-53.06 27.344c15.789-37.713 34.381-69.808 55.22-92.75-15.479-11.495-28.491-23.459-42.06-39.34 10.01-13.412 23.23-24.25 35.438-35.906-24.783-28.01-40.31-54.882-48.938-80.87m664.37.469c.084-.014.187-.006.281 0 2.204.144 7.233 5.62 11.656 14.406 5.713 11.349 6.265 25.642 1.187 30.719-8.751 8.751-20.15-2.497-11.969-11.813 5.771-4.193 4.2-14.62-.344-25.469-2.102-5.201-2.069-7.642-.813-7.844m-670.19 5.094c13.669 29.04 28.954 52.662 44.625 75.03l-34.19 35.875c10.524 12.213 23.283 25.33 41.19 40.563-21.984 24.447-36.406 58.679-50.844 91zm786.25.625c1.184.088 2.866 3.608 4.594 10.688 2.178 8.926 3.674 11.208 8.875 13.438 8.271 3.546 8.46 11.534.344 14.406-2.976 1.053-8.54-1.935-10.844-5.844-3.035-5.583-4.597-13.09-4.563-19.969-.482-8.509.251-12.819 1.594-12.719m189.55 5.379c12.919 3.621 17.591 16.573 15.07 40.558-3.374 32.08-7.34 67.777-10.563 97.25-3.715 34-5.861 51.663-6.687 53-2.622 4.241-3.055-11.734-1.156-29.5 2.89-25.391 4.485-47.628 6.938-73 5.491-56.45 4.148-74.29-6.06-79.5-7.899-4.03-11.295-1.653-5.469 3.844 11.11 8.568 10.764 12.153-1.125 151.16-1.219 14.38-1.719 24.563-1.719 24.563l-15.09-9.375c0 0-1.12-11.915-2.531-29.906-3.409-33.887-5.398-70.02-7.656-102.5-2.423-34.652 4.066-46.78 25.562-47.625 3.436-.131 7.251.144 10.491 1.035m-277.33 20.14c1.646 4.589 9.141 38.771-10.04 28.956-5.11-2.885-5.391-7.399-1.621-11.787 4.217-4.907 5.207-11.963 3.094-22.03-1.286-6.128-2.842-11.208-2.842-11.208 3.697 1.351 10.977 14.872 11.407 16.07m-570.28-10.719c16.224 3.08 34.05 12.544 45.532 24.38 7.125 7.574 6.764 13.673-4.376 14.384-10.727 1.578-10.956 3.322-16.08-1.114-2.302-1.801-6.78-6.221-11.888-7.01-16.188-2.504-24.448-32.776-13.188-30.638m654.87 8.951c1.711 2.752 1.89 8.157 3.313 12.03 2.423 10.831 9.853 18.845 16.531 17.844 4.485-.54 10.68.817 11.344 6.188 1.303 4.543-1.079 8.843-6 10.813-5.555 2.222-11.823.858-16.563-3.594-9.987-9.382-16.08-40.01-8.625-43.28m-78.04.424c5.818 2.233 13.245 20.862 14.04 35.638-.023 10.582-1.656 23.896-10.781 28.938-5.795 2.997-11.788 1.501-14.406-3.563-3.213-6.212-.828-12.631 5.812-15.625 8.124-3.663 10.764-20.13 5.813-36.22-.279-2.681-4.341-10.279-.476-9.17m-619.74 7.732l42.813 21.688c-6.229 8.505-11.126 16.394-14.5 25.375-13.606-15.434-20.74-31.16-28.313-47.06m635.83 7.424c.736-.018 3.2 2.333 5.354 4.42 10.685 10.347 15.295 29.13 8.844 36-5.157 5.489-14.18 5.11-15.687-.656-.545-2.827 2.456-8.117 3.781-10.656 1.973-3.781 2.328-14.578-.656-22.469-1.338-3.537-2.581-6.616-1.635-6.638m-297.43 4.263l48.37 1.656 162.06 145.97-15.219-.344-148.91-135.69-46.34.125zm-278.71 26.296c-18.468 29.349-23.51 66.35-12.167 99.24 8.611 23.321-10.19 24.715-17.902 9.348-5.929-11.49-9.342-31.489-7.535-52.785 2.527-34.437 18.421-69.01 31.15-73.16 12.923-4.216 10.08 12.674 6.456 17.36m664.05 70.64c-4.916 22.958-14.02 34.385-26.938 39.16-52.909 19.54-75.959-87.17-26.875-112.69 46.782-15.55 60.31 43.21 53.813 73.53m-388.28-69.72l45.625.938c41.593 37.829 86.3 73.13 130.81 119.12h-21.531c0 0-6.291-5.984-7.781-7.406-40.23-35.933-70.03-65.27-108.81-98.66l-40.719-1.125zm348.09 7.04c-24.669.998-26.679 34.421-25.94 47.08 1.796 18.242 9.07 45.2 32.22 43.07 16.99-1.695 24.853-21.814 23.301-45.977-1.46-22.736-10.735-44.2-29.581-44.17m-352.25 11.09l40.03.906c35.26 30.755 72.56 64.16 109.62 101.03h-17.469c0 0-4.565-4.351-5.938-5.75-30-27.12-60.5-57.35-89.59-81.72l-41.531-1.625zm352.91 1.313c7.01 2.595 8.176 19.654 2.062 26.723-4.189 4.844-13.823-4.327-14.687-15.879-.527-7.04 6.323-13.178 12.625-10.844m-661.62 2.125c-3.221 11.03-5.339 23.432-6.656 36.844l-16.75-21.281zm674.34 20.531c4.093 0 7.406 3.313 7.406 7.406 0 4.093-3.314 7.406-7.406 7.406-4.093 0-7.406-3.313-7.406-7.406 0-4.093 3.314-7.406 7.406-7.406m-336.34 3.719l79.78 75-22.719.25-65.44-59.31-41.531-1.563 8.125-14.156zm310.28 1.281c4.093 0 7.406 3.313 7.406 7.406 0 4.093-3.313 7.406-7.406 7.406-4.093 0-7.406-3.313-7.406-7.406 0-4.093 3.313-7.406 7.406-7.406m94.97.156c44.976 34.954 108.46 81.33 174.41 118.94 0-.129-10.867 8.54-20.875 11.281-51.32-28.29-112.39-68.2-150.22-100.56-35.71 52.57-104.3 148.2-165.28 192.34-38.481 27.528-57.861 61.46-57.75 101.12.115 41.03 14.604 67.739 54.969 101.34 26.04 21.678 54.5 49.34 54.5 49.34l-14.969 12.906c-2.49-.303-43.675-35.788-85.34-77.62-22.898-22.991-33.09-73.45-29.19-100.69 5.299-37.03 17.643-63.57 52.75-92.16 13.479-10.433 27.09-18.539 38.969-30.406 109.07-116.67 148.03-185.84 148.03-185.84m-73 19.06c4.124 8.477 6.392 19.598-6.531 20.344-7.656.442-12.04-12.303-5.406-23.656 5.02-8.938 9.49-1.33 11.938 3.313m-384.37-2.25l43.06 1.281c0 0 42.468 37.02 63.906 57.53h144.25c79.33 0 144.54.317 144.91.688.987.987-10.25 16.06-10.25 16.06l-475.75.281c.098-.074 29.387-26.15 39.875-33.469 18.574-12.954 35.597-25.01 50-42.37m-291.53 17.906c3.112 11.487 5.718 23.2 11.09 33.781l-33.03 17.531c6.07-17.485 13.02-34.3 21.938-51.31m917.25 95.5c-6.561 17.876-23.729 54.35-44.47 82-4.118 5.299-6.938 9.438-6.938 9.438l40.469 38.75-35.12 37.34c19.727 20.527 36.411 51.968 45.19 77-15.933-6.293-24.879-10.1-44.531-21.03-5.557-13.938-11.223-28.708-17.469-41.44-14.335-29.04-14.14-26.2-2.438-34.75 17.13-12.512 22.23-15.413 17.781-21.719-3.13-4.434-23.342-28.433-24.562-29.19-1.859-1.148-1.032-4.699 2.406-10.375 11.711-21.03 21.311-44.21 27.28-64.813zm7.656 1.469l1.062 244.19c-14.494-29.17-29.572-58.973-46.37-77.59-.633-1.266 36.656-37.688 36.656-37.688-13.667-12.662-21.661-20.23-40.75-37.813 18.591-26.794 33.31-61.823 49.41-91.09m-1026.28 8.469l46.4 26.933c-2.456 34.445-5.547 79.66-10.304 125.54-3.985 35.791-5.628 52.29.716 62.22 5.373 7.265 19.864 15.12 19.864 15.12-24.402 9.882-33.811 39.01-6.456 60.813 0 0-6.644 5.226-9.594 8.375l-38.06-28.469zm726.22 12.344c-11.567 12.961-29.707 32.18-43.625 41.37-18.563 12.262-44.625 35.799-43.37 36.16 0 0-27.316-.137-45.812-.875l-63.813-56.938c0 0 2.281-.839-84.56-.125-112.24.923-203.19-.313-203.19-.313l12.75-17.906zm227.47 11.188c-6.286 20.19-16.03 38.848-28.375 56.34-2.86-12.411-4.431-25.583-10.406-36.12zm-901.41 6.469l5.562 3.969c0 0-3.316 42.14-4.406 54.47-1.956 22.784-2.918 43.32-4.906 66.53-3.996 46.09-3.329 52.883 5.719 60 6.958 5.207 11.703 2.842 5.531-3.75-4.066-5.228-4.048-5.122-5.281-12.812-.857-5.345-.723-13.318.5-34.938 6.888-121.77 8.318-125.87 8.469-125.91l13.871 8.969c-.77 1.87 12.709 122.74 11.339 152.78-1.601 35.13-48.888 27.374-51.13 1.299-.929-5.992 8.04-104.64 8.04-104.64zm385.72 7.094l18.563.531 114.5 105.25 39.03.844-3.406 13.281-37.719-.094zm71 0h17.969l65.53 59.41 40.34.625-7.687 11.438-40.12-1.156zm-22.375.063l96.87 87.34 33.03 1.719-5.094 11.938-39.16-1.094-108.84-99.69zm-93.41.313h20.12l151.44 136.34 39.687.719-.594 12.281-47.781-.219zm509.62 3.875c7.989 2 11.928 9.749 17.563 38.469 6.57 33.491-7.667 87.86-25.5 98.06-9.227 7.258-19.268-.438-12.75-9.906 21.277-30.906 24.09-81.47 11.5-109.75-3.989-9.09.119-18.512 9.187-16.875m-642.5 5.03c48.39.578 60.896 99.96 13.295 113.89-30.92 4.565-46.844-23.422-51.33-48.679-5.287-31.38 8.538-65.57 38.04-65.21m-26.597 59.62c2.891 19.916 15.242 42.724 33.2 40.775 23.616-2.564 26.58-34.09 24.24-49.96-2.823-19.15-13.379-36.508-30.25-37.464-25.15-1.425-29.421 31.28-27.19 46.649m25.941-38.68c6.749-.11 11.72 8.906 9.875 20.09-1.194 7.244-3.95 16.16-12.09 10.1-3.793-3.461-7.191-13.612-6.279-21.2.6-4.985 3.062-8.861 8.498-9m667.25 22.969l22.719 26.28-25.813 18.09c3.626-13.83 4.826-28.536 3.094-44.37m-650.78 2.375c4.093 0 7.406 3.345 7.406 7.438 0 4.093-3.313 7.406-7.406 7.406-4.093 0-7.406-3.313-7.406-7.406 0-4.093 3.313-7.438 7.406-7.438m-26.5 4.563c4.093 0 7.406 3.313 7.406 7.406 0 4.093-3.313 7.406-7.406 7.406-4.093 0-7.437-3.313-7.438-7.406 0-4.093 3.344-7.406 7.438-7.406m15 9.563c3.723 1.129 6.098 4.549 8.094 7.518 4.957 7.373 5.604 16.627 2.081 20.5-7.115 8.456-18.231-.585-16.893-13.643.981-9.574 3.522-15.344 6.719-14.375m63.44 29c10.624 0 13.622 12.53 4.469 18.656-5.951 3.983-7.273 16.938-3.594 34.875 2.983 12.955 1.419 14.958-6.312 3.281-13.205-21.17-9.798-56.812 5.437-56.812m-24.844 6.813c9.321-.356 12.312 6.764 6.875 12.219-3.186 3.534-2.868 12.862.688 20.531 5.03 11.1 3.845 14.459-5.563 3.781-13-13.902-12.804-36.12-2-36.531m616.06 5.406c10.574 14.06 19.945 32.401 28.5 53.19l-45.844-21.06zm-669.93 56.52c-3.245-3.755-4.816-15.918-7.478-21.11-2.067-6.237-3.864-9.871-7.232-9.661-19.371 1.642-18.55-16.881-7.431-20.379 23.01-7.24 31.406 48.32 22.14 51.15m96.11-18.695c-3.285 9.708-.895 15.514-.212 25.884.574 4.71.818 5.952-3.051 2.338-9.19-8.02-14.07-35.37-5.798-40.444 11.125-6.816 14.499 4.694 9.06 12.221m459.29-12.981c4.495-.208 9.597 3.289 12.12 9.719 3.636 9.25 3.303 31.927 1.469 44-2.808 18.478-7.265 35.45-9.09 48.16-6.488 7.71-22.468-19.568-23.969-41.09-2.515-17.07 3.365-52.54 16.5-60.03.935-.449 1.931-.702 2.969-.75m61.893 2.908c4.02-.185 3.103 1.171 6.075 4.28 4.513 4.721 6.345 5.87 12.719 7.875 13.148 4.135 27.605 22.466 22.04 28.04-4.401 3.489-16.381-3.102-20.473-4.505-4.401-1.515-9.897-3.405-12.219-4.188-11.02-3.716-26.868-24.03-21.938-28.12 2.637-2.188 10.675-3.23 13.8-3.374m-32.05 3.374c8.146.082 10.371 2.112 15.03 10.875 6.907 12.99 19.738 22.15 38.37 27.438 23.789 7.262 44.32 21.05 43.32 46.594-5.677.06-11.354.437-17.03 2.165-6.586-18.532-22.97-29.15-37.07-32.353-32.525-7.379-62.709-40.37-54.12-53.47 3.753-1.917 7.778-1.296 11.5-1.25m-561.03 1.625l280.97 244.69c-118.57-43.99-227.35-43.04-332.53-26.781zm119.83 16.2c-.528 7.619-10.98 9.246-13.14 11.126-5.254 4.57-4.555 17.76-2.309 33.14 1.719 9.236-.581 8.829-5.437 1.594-8.599-12.811-8.427-35.03-2.723-48.12 7.347-16.859 24.35-8.417 23.611 2.256m-161.58-11.982c10.774 1.12 13.743 15.779 14.188 25.5 0 13.394-3.799 12.891-5.938 0-1.02-5.712-2.793-7.931-7.406-9.312-10.481-3.141-11.164-16.187-.844-16.188m130.56 14.969c-2.762 3.038-2.825 17.236-.313 26.781 1.389 5.278-1.18 5.687-4.75 1.5-11.623-13.632-12.693-36.751-1.906-41.22 8.783-2.283 11.06 8.435 6.969 12.938m-121.56 27.344c.262 13.607-2.842 14.861-6.937 1.812-1.05-3.03-2.913-6.084-4.25-7-7.649-5.234-8.996-9.316-4.563-13.75 10.888-8.887 15.607 14.89 15.75 18.938m41.06-12l-38.09 162.47c93.76-7.859 136.36-9.51 236.53 10.06zm113.59 2.687c5.734 1.438 7.715 8.919 1.031 16-2.193 2.804-4.236 7.136-1.562 18.619 3.66 15.716-2.502 10.688-10-4.15-4.804-9.505-2.599-33.761 10.531-30.469m-179.34.5c10.187 0 19.63 16.535 19.781 34.625.107 14.621-1.976 13.565-7.406-.406-3.824-9.24-6.907-12.587-13.844-15-12.855-4.472-11.736-19.218 1.469-19.219m68.844 4.688l176.44 154.19c-72.25-11.546-143.18-12.436-212.06-3.781zm146.84 5.812c13.839 0 19.288 17.1 2.315 23.08-10.114 3.565-5.8 24.02-3.94 36.17.703 4.581-.743 4.903-3.656.813-10.66-15.736-16.623-55.41 5.281-60.06m-18.687 19.219c-2.509 3.959-2.793 8.207-1.063 15.875 4.486 16.492 5.653 19.543-3.719 11.156-9.862-10.427-14.166-31.07-5.906-37.19 9.279-6.869 17.642.751 10.688 10.156m-348.66-12.728c16.378-.116 28.28 10.484 27.651 25.27-.693 16.282-10.892 26.552-25.871 27.407-16.72.847-27.05-12.494-27.423-26.315-.328-12.208 7.445-26.23 25.643-26.361m-.281 6.54c-18.745-.06-25.767 24.651-10.25 36.06 6.652 4.891 11.907 3.512 6.438-1.688-10.305-9.796-6.163-25.988 7.406-28.969 6.708-1.474 4.108-5.382-3.594-5.406m228.22 4.188l-22.563 109.44c46.16-7.171 102-4.983 145.09-.938zm-76 4.156c11.224-.57 14.505 16.313 14.594 23.03.0001 8.691-1.019 13.216-2.62 8.569-3.777-10.957-7.503-16.975-11.561-16.975-2.201-.563-4.079-1.449-5.85-3.437-3.989-5.275-.126-10.967 5.438-11.188m78.09 4.375l14.875 12.625c-9.571-4.194-17.719 6.656-17.719 6.656zm153.09 20.656c-4.315 5.429-4.284 16.884-.938 30.22.937 3.732-2.549.967-6.06-3.469-6.657-8.39-9.782-18.222-8.576-26.29 1.339-20.38 27.2-16.411 15.576-.465m-235.31-9.75c9.626 1.091 13.258 21.19 13.03 27.28-.315 6.371-1.766 10.667-3.03 6.795-2.479-8.401-7.601-20.467-12.04-23.23-7.603-4.743-5.453-10.172 2.031-10.844m737.08 22.52c.34 7.091-2.608 14.348-6.974 16.685-4.464 2.389-7.188-.846-9.853-9.02-1.958-6.01-2.652-8.317-2.652-8.317 0 0-1.652 7.516-2.177 9.09-3.48 10.429-14.812 10.528-19.56-1.123-5.05-13.589 9.06-27.514 19.907-27.02 12.03.552 20.672 8.313 21.309 19.702m-642.98-15.177c3.382 0 16.5 5.875 16.5 5.875l13.06 11.563c0 0-12.01-5.22-16.25-6.719-10.114-3.579-9.898-3.609-18.06 3.063-8.409 6.87-15.313 11.906-15.313 11.906l2.594-14.844c0 0 12.303-10.843 17.469-10.844m-85.72 36.469c1.928 15.687-2.458 17.01-6.719 2.031-3.647-12.826-7.239-17.5-13.437-17.5-11.413 1.703-15.253-15.225-5-18.625 19.351-5.433 24.332 27.906 25.16 34.09m663.13-34.406l17.844 8.281 3.781 18.469-16.438-4.063zm-399.93 1.703c17.18-4.764 19.297 16.614 6.134 19.771-8.04 1.927-7.994 14.377-5.704 32.464.522 4.126 1.632 9.125 1.375 9.813-1.223 3.272-5.31-1.726-10.813-13.313-8.214-21.13-5.651-44.669 9.01-48.735m490.9-.265l-4.969 21.375-15.09-1.031-.562-13.09zm-508.52 13.899c-8.269 11.97-.838 23.02.996 32.391.325 5.445-6.705.115-10.754-7.821-8.443-16.55-8.931-29.908-1.344-35.875 10.632-6.227 15.517 4.912 11.1 11.305m-154.85-2.93c2.922.03 6.878 1.616 15.187 4.813 6.296 2.422 20.875 8.344 20.875 8.344l19.281 17.03c0 0-16.931-6.239-28.719-11.219-26.546-11.214-22.732-11.577-43.719 4.406-6.06 4.611-12.375 9.875-12.375 9.875l2.563-13.688c0 0 7.927-7.874 17.813-15 4.259-3.07 6.171-4.592 9.09-4.563m-246.94 6.469c13.585-.378 22.516 10.428 25.781 22.5 1.891 6.991.258 13.447-.125 20.16-9.378 71.849-13.503 138.53-22.12 205.06-1.06 3.176-2.214 1.996-3.594-3.719-9.982-60.32-16.482-126.54-24.875-186.31-1.919-22.322-7.682-51.51 20.562-57.22 1.504-.29 2.97-.43 4.375-.469m-.812 7.969c-5.992.239-13.08 4.355-15.594 9.656-5.138 10.828-3.796 32.872 5.969 98.94.813 5.501 1.941 14.683 2.5 20.406 1.712 17.543 4.04 31.474 5.719 34.06 3.195 4.928 3.605-.367 1.313-17.531-1.17-8.759-2.76-22.15-3.531-29.75-4.389-31.33-5.343-53.627-8.06-82.22-1.361-14.05 4.294-24.412 14.906-27.22 5.745-1.519 6.05-4.104.688-5.844-1.197-.388-2.524-.555-3.906-.5m898.44.879c19.843.045 27.14 27.825 7.719 37.621-7.206 3.635-19.292 1.923-22.295-3.884-1.454-4.518.176-7.146 3.775-9.06 4.379-2.332 10.806-4.332 10.806-4.332 0 0-10.509-2.037-13.469-7.01-6.382-10.726 5.332-13.13 13.463-13.332m-746.56 29.964c-.222 5.237-2.896 3.077-3.563 0-2.139-6.967-6.601-14.524-10.344-17.531-4.521-3.633-5.598-8.558-2.531-11.625 11.519-10.177 16.375 25.893 16.438 29.16m673.21-30.04c5.079-.147 11.988 1.577 16.357 5.946 5.642 5.641 5.337 7.757-4.116 11.201-4.589 1.705-7.749 3.03-7.749 3.03 0 0 4.262 1.675 7.427 2.557 9.06 3.03 8.585 8.283.263 14.496-11.331 8.46-29.539-2.769-29.326-17.661.17-11.806 7.447-19.292 17.14-19.571m41.888-.085l18.12 19.969-21.19 21.938-19.938-21.875zm-615.94 1.875c.258-.012.508 0 .781 0 5.618.104 14.582 3.897 36.563 12.75 12.08 4.865 26.03 10.406 26.03 10.406l19.781 17.5c0 0-27.1-8.508-36.531-13.281-2.048-1.037-6.548-2.953-10-4.25-3.452-1.296-12.01-4.644-19.03-7.469-15.09-6.071-15.257-6.112-20.313-1.844-2.161 1.825-7.468 5.986-11.781 9.25-4.314 3.263-10.614 8.05-14 10.625-3.994 3.034-9.03 7.625-9.03 7.625l3.187-16.875c0 0 2.848-2.79 7.938-6.688 4.123-3.157 11.157-8.545 15.625-11.969 4.539-3.478 6.905-5.597 10.781-5.781m194.53 14.813c.56 3.512.228 4.188-3.812 8.312-5.102 5.209-5.799 13.744-2.063 24.813 1.031 3.052 2.287 6.667 2.01 6.946-5.391 5.392-19.581-28.646-16.194-38.79 4.051-12.13 17.373-12.311 20.06-1.281m-311.09 1.469c3.714-.174 8.03 2.643 10.188 8.5 5.866 16.38 2.278 36.47-3.719 17.75-1.556-3.963-4.238-8.218-6.281-10.375-2.104-2.236-6.829-4.828-6.719-8.469.457-4.775 3.254-7.253 6.531-7.406m121.28.469c2.379.076 5.55 1.26 11.25 3.594 5.151 2.11 19.656 6.941 27.906 10.125 12.813 4.945 26.19 11.469 26.19 11.469l-29-1.625c0 0-9.855-3.278-15.719-5.688-21.238-8.726-20.06-8.681-30.625-.656-3.777 2.867-8.531 7.5-8.531 7.5l-14.75.813c0 0 6.931-7.396 16.938-14.813 3.273-2.426 7.745-5.887 9.906-7.688 2.491-2.074 4.058-3.106 6.438-3.03m226.88 5.719c8.07-1.529 12.492 6.163 11.982 10.962-.559 5.264-5.448 10.51-12.968 11.971-1.582 5.885-6.089 19.314-3.46 39.35 2.119 9.387-1.854 9.595-5.906.594-6.567-14.586-16.14-57.857 10.353-62.875m-23.04 16.06c-3.422 7.316-4.61 13.21-2.719 22.438 2.101 10.255 2.543 12.784-3.281 6.375-11.286-15.05-12.931-38.999-2.531-41.75 10.04-2.655 12.241 8.24 8.531 12.938m-338.31-11.216c17.613 2.784 22.801 32.791 20.341 45.622-4.666 15.533-4.434 5.04-6.06-1.438-4.336-15.63-9.353-24.14-14.719-25.03-14.446-2.402-12.421-21.19.44-19.15m135 5.904c.303-.021.569.017.844.062 5.796.969 21.318 5.759 14.625 7.375l-22.906.125c-4.447.165 2.893-7.241 7.438-7.563m616.81 4.907c2.222-.202 5.252 2.403 8.813 6.03 8.148 8.303 4.574 21.391-6.438 27.844-17.285 10.13-36.96-8.964-27.469-26.5 5.209-9.624 11.467-7.906 16.808 5.674.977 1.65-.011-1.697 1.817-5.83 1.821-4.116 4.247-7.02 6.469-7.219m-29 .969l-5.188 20.875-21.06 10.125 7.688-25.719zm43.813 3.563l16.781 1.344 9.313 27.12-24.19-10.312zm-396.53 15.33c12.206.504 13.443 12.03 6.437 17.08-3.927 3.762-5.284 9.206-4.469 17.906.362 3.868 1.129 8.606 1.094 9.156-.115 1.854-1.654 1.565-3.75-.719-12.89-14.05-11.173-43.91.688-43.42m-369.22 4.513c7.735 0 16.508 22.16 12.191 30.639-2.72 4.977-5.344 3.748-6.336-2.027-.74-4.205-3.15-9.959-9.386-10.987-9.06-2.895-6.114-17.624 3.531-17.625m391.53 13.406c5.909 3.055 6.466 9.853 1.125 13.656-4.141 2.948-5.232 5.444-5.875 13.437 1.357 18.19-8.868 6.643-9.83-9.906-.524-9.01 4.351-22.376 14.58-17.188m-398.03 5.594c5.552 0 12.147 9.965 10.686 15.785-.778 4.622-3.199 3.803-6.592.371-1.313-1.024-4.258-2.083-5.633-2.499-8.307-2.511-6.912-13.657 1.539-13.658m157.78 7.656c75.04-.349 153.09 11.561 217.97 37.469l-5.344 9.594-17.03-5.844-5.844 15.438 14.03 5.344-6.594 14.25c-76.57-25.18-159.15-43.935-296.37-23.625-6.812-4.742-19.12-14.09-19.12-14.09l10.969-2.406-1.438-15.25-27.719 4.938-8.094-8.469c43.33-11.11 93.25-17.1 144.59-17.344m251.69 3.344c7.185.012 11.644 8.08 6.375 11.531-3.691 2.418-11.885 3.078-13.531 1.094-3.402-4.099 1.426-12.634 7.156-12.625m-262.28 9.438l-.313 15.812 22.625-.719.469-15zm39.531.344l.094 15.531 21.969.719 1.031-15.219zm-57.47 1.063l-22.22 1.469.688 14.5 22.03-.969zm99.34 2.406l-.563 14.969 22.344 2.469 1.625-15.219zm-140.69.719l-22.344 2.844 1.906 14.906 21.719-2.406zm183.87 4.844l-2.187 15.625 20.844 3.094 2.688-14.844zm365.72 4.531c10.06 14.08 19.685 26.08 26.375 41.813 8.588 20.22 14.354 46.632 14.344 68.41-.0001 13.01-9.08 10.389-10.938-3.156-7.811-57.05-76.45-65.63-103.44-12.938-7.01 15.1-8.344 33.733-4.656 54.53 13.05 73.57 105.77 144.62 134.84 221.81 54.59-111.87 102.5-129.25 127.34-220.31 20.01-70.01-48.12-122.07-97.53-76.72-9.02 8.316-17.345 23.772-18.313 33.969-2.048 16.399-9.334 13.958-10.03.438-.253-14.233 5.847-41.565 14.469-65.906 4.59-12.843 11.417-28.65 20.656-41.938zm-324.41 4.219l-2.063 15.781 21.19 4.5 2.844-14.656zm-149.97 18.19c70.35-.083 134.47 12.04 188.47 32.563 0 0-6.999 15.09-9.469 16.719-38.75-15.467-104.78-29.843-149.41-30.625-16.351-.606-19.976-1.042-26-3.125-34.01-11.184-64.03-16.02-91.72.5l-11.313-8c34.19-5.44 67.46-7.994 99.44-8.03m769.31 58.844c0 0 3.982 5.356 6.438 8.313 10.893 13.12 17.546 36.594 10.375 36.594-1.778 0-2.642-1.648-5.281-4.187-9.75-14.421-29.26-9.379-36.813 1.281-7.765 10.961-8.603 28.693-2.594 41.688 19.527 40.28 56.984 86.26 56.31 91.53 20.02-44.689 36.443-57.29 51.28-90 5.323-16.205 5.383-25.68 1.25-38.12-5.643-16.994-33.02-24.748-42.719-7.03-3.2 5.403-5.73 6.957-7.906 4.781-4.433-4.434 3.252-28.697 12.25-38.656 1.591-1.76 4.563-6.188 4.563-6.188zm-1066.44 31.344c16.09.188 23.745 24.854 6.75 35.22-4.561 2.579-10.555 2.234-15.375.062-13.775-6.56-14.801-27.04 1.25-33.75 2.594-1.084 5.076-1.558 7.375-1.531m525.81.813c5.759 3.52 27.03 12.938 27.03 12.938l-149.41 270.09-36.16.281zm-481.9.638c8.953-.998 15.308 6.687 17.616 13.11 3.149 8.765-2.501 24.334-18.281 23.438-18.1-1.028-26.22-33.554.665-36.549m513.8 14.05c4.01 2.202 18.521 4.608 19.781 7.406.545 1.399-.552 4.155-.875 7.719-.778 8.585 1.367 18.1 6.563 25.719 8.515 11.831-.708 6.397-9.219 6.313-19.21-4.906-43.672 21.259-34.375 48.19 2.149 5.959 1.728 6.43-8.563 9.563-23.362 7.112-33.55 31.902-22.326 54.04 5.849 11.535 6.02 10.949-4.268 11.804-28.585 2.373-45.19 27.731-33.19 53.656 1.857 4.01.675 5.116-5.563 6.281-19.514 3.58-28.25 19.898-30.719 37.813l-25.813.25zm24.75 9.531l49.594 13.531c-20.595 70.02-23.441 151.37 1.344 245.47l-114.03.094c15.837-14.216 9.582-33.855-8.929-38.18 17.963-10.314 17.973-37.755-3.554-41.05-18.928-2.9-28.701 15.1-20.295 33.13l-8.08 2.201c0 0-3.619-4.545-4.451-6.969-7.14-20.815 7.806-41.475 33.28-41.41 15.713.043 18.965-4.404 10.281-14.06-15.524-17.266-10.639-41.531 9.63-51.08 9.332-4.395 14.835-1.487 14.835-1.487l.482 11.442c0 0-3.783.367-6.728.835-22.389 3.58-18.237 39.26 4.518 38.955 12.522-.17 21.48-9.667 21.482-23.308 0-3.832.018-9.487.018-9.487 11.501 19.676 31.26 21.08 39.67 5.076 9.904-18.842-8.07-30.686-26.08-28.741 0 0 3.781-2.455 6.17-3.683 19.18-9.864 12.576-38.05-8.638-38.05-14.557 0-23.05 13.525-18.357 27.866.753 2.301 2.536 5.991 2.536 5.991l-8.661 2.196c0 0-1.964-1.501-2.844-2.875-14.859-23.22 9-48.801 39.06-43 11 3.45 10.648-4.16 4.469-11.03-6.644-9.908-11.603-21.13-6.719-32.375m-560.47 10.125l26.03 45.875-29.16 52.844-28.906-49.5zm-2.563 23.875l-18.06 24.875 17.688 28.563 16.781-28.906zm-.781 9.344l11.75 15.75-11.844 19.344-11.594-18.16zm537.94 49.562c5.474 0 9.937 4.433 9.937 9.906 0 5.474-4.464 9.906-9.937 9.906-5.474 0-9.906-4.433-9.906-9.906 0-5.474 4.433-9.906 9.906-9.906m540.97 54.56c-7.619.189-15.872 2.412-24.438 6.844-9.231 4.776-9.232 4.765-12.844 2.375-8.79-5.817-11.495-7.188-21.406-7.188-6.154 0-10.406.344-10.406.344l.844 23.75c21.347-.576 27.2 6.675 22.719 19.531-4.649 5.829-3.598 89.64-2.125 121.97-.352 15.882 6.709 30.984 16.469 40.16 15.244 13.509 42.23 12.498 57.906 1.219 10.466-7.53 15.444-20.14 17.675-32.947 1.054-26.292.454-52.647.454-78.959l16.902.188-.188-23.813-16.5-.969c0 0 .169.679-.531-16.969 1.16-36.926-17.799-54.53-43.03-55.53-.502-.0001-.992-.013-1.5 0m-1.343 23.941c13.927 1.06 19.582 6.581 22.797 18.469 2.291 8.473 3.153 18.478 1.234 21.621-3.128 5.122-15.168-3.797-30.938-23.03-5.313-6.48-7.679-9.818-7.679-9.818 3.051-5.437 9.525-7.626 14.586-7.24m-25.318 31.969c14.476 12.449 16.522 25.08 50.674 37.09 0 0 .97-1.33.393 40.31-.637 45.94-3.387 55.35-17.25 59.16-12.01 3.3-23.325-2.277-28.313-13.938-5.102-11.928-6.34-40.01-6.156-93.44.066-19.394.652-29.18.652-29.18m-584.39 13.902c5.671 0 10.281 4.579 10.281 10.25 0 5.671-4.611 10.281-10.281 10.281-5.671 0-10.25-4.611-10.25-10.281 0-5.671 4.579-10.25 10.25-10.25m-15.54 6.987c-.937.401.025 9.314 2.268 13-14.806.907-18.725 12.233-20.17 21.794l-13.263-.036c2.209-32.34 30.22-33.06 31.16-34.763"/>
  </g>
 </g>
</svg>
